<?xml version="1.0" encoding="utf-8" ?>	<!-- Generator: Assembly 2.4 - http://assemblyapp.co -->	<svg version="1.1" xmlns="http://www.w3.org/2000/svg" xmlns:xlink="http://www.w3.org/1999/xlink" width="4096.00" height="4096.00" viewBox="0 0 4096.0 4096.0">		<g id="document" transform="scale(13.653333333333334 13.653333333333334) translate(150.0 150.0)">			<path d="M-17.6129,-85.8877 L-14.4466,-68.6706 L-9.697,-69.4622 L-12.8634,-86.6793 L-17.6129,-85.8877 Z M-32.2574,-81.534 L-26.3204,-65.1084 L-21.7688,-66.6916 L-27.7057,-83.1172 L-32.2574,-81.534 Z M-45.9123,-74.8054 L-37.2048,-59.5673 L-33.049,-61.9421 L-41.7565,-77.1802 L-45.9123,-74.8054 Z M-58.182,-65.7021 L-46.9018,-52.0472 L-43.1418,-55.4114 L-54.4219,-68.8685 L-58.182,-65.7021 Z M-68.8685,-54.6198 L-55.4114,-43.3397 L-52.2451,-47.0997 L-65.7021,-58.3799 L-68.8685,-54.6198 Z M-77.1802,-41.7565 L-61.9421,-33.049 L-59.5673,-37.2048 L-74.8054,-45.9123 L-77.1802,-41.7565 Z M-83.315,-27.7057 L-66.8895,-21.7688 L-65.3063,-26.3204 L-81.7319,-32.2574 L-83.315,-27.7057 Z M-86.8772,-12.6655 L-69.6601,-9.4991 L-68.8685,-14.2487 L-86.0856,-17.415 L-86.8772,-12.6655 Z M-87.6688,2.37478 L-87.6688,2.57267 L-70.0559,2.57267 L-70.0559,-2.17688 L-87.6688,-2.17688 L-87.6688,2.37478 Z M-85.8877,17.6129 L-68.6706,14.4466 L-69.4622,9.697 L-86.6793,12.8634 L-85.8877,17.6129 Z M-81.534,32.2574 L-65.1084,26.3204 L-66.6916,21.7688 L-83.1172,27.7057 L-81.534,32.2574 Z M-74.8054,45.9123 L-59.5673,37.2048 L-61.9421,33.049 L-77.1802,41.7565 L-74.8054,45.9123 Z M-65.7021,58.182 L-52.2451,46.9018 L-55.4114,43.1418 L-68.8685,54.4219 L-65.7021,58.182 Z M-54.6198,68.8685 L-43.3397,55.4114 L-47.0997,52.2451 L-58.3799,65.7021 L-54.6198,68.8685 Z M-41.7565,77.1802 L-33.049,61.9421 L-37.2048,59.5673 L-45.9123,74.8054 L-41.7565,77.1802 Z M-27.7057,83.315 L-21.7688,66.8895 L-26.3204,65.3063 L-32.2574,81.7319 L-27.7057,83.315 Z M-12.6655,86.8772 L-9.4991,69.6601 L-14.2487,68.8685 L-17.415,86.0856 L-12.6655,86.8772 Z M2.37478,87.6688 L2.57267,87.6688 L2.57267,70.0559 L-2.17688,70.0559 L-2.17688,87.6688 L2.37478,87.6688 Z M17.6129,85.8877 L14.4466,68.6706 L9.697,69.4622 L12.8634,86.6793 L17.6129,85.8877 Z M32.2574,81.534 L26.3204,65.1084 L21.7688,66.6916 L27.7057,83.1172 L32.2574,81.534 Z M45.9123,74.8054 L37.2048,59.5673 L33.049,61.9421 L41.7565,77.1802 L45.9123,74.8054 Z M58.182,65.7021 L46.9018,52.2451 L43.1418,55.4114 L54.4219,68.8685 L58.182,65.7021 Z M68.8685,54.6198 L55.4114,43.3397 L52.2451,47.0997 L65.7021,58.3799 L68.8685,54.6198 Z M77.1802,41.7565 L61.9421,33.049 L59.5673,37.2048 L74.8054,45.9123 L77.1802,41.7565 Z M83.315,27.7057 L66.8895,21.7688 L65.3063,26.3204 L81.7319,32.2574 L83.315,27.7057 Z M86.8772,12.6655 L69.6601,9.4991 L68.8685,14.2487 L86.0856,17.415 L86.8772,12.6655 Z M87.6688,-2.37478 L87.6688,-2.57267 L70.0559,-2.57267 L70.0559,2.17688 L87.6688,2.17688 L87.6688,-2.37478 Z M85.8877,-17.6129 L68.6706,-14.4466 L69.4622,-9.697 L86.6793,-12.8634 L85.8877,-17.6129 Z M81.534,-32.2574 L65.1084,-26.3204 L66.6916,-21.7688 L83.1172,-27.7057 L81.534,-32.2574 Z M74.8054,-45.9123 L59.5673,-37.2048 L61.9421,-33.049 L77.1802,-41.7565 L74.8054,-45.9123 Z M65.7021,-58.182 L52.2451,-46.9018 L55.4114,-43.1418 L68.8685,-54.4219 L65.7021,-58.182 Z M54.6198,-68.8685 L43.3397,-55.4114 L47.0997,-52.2451 L58.3799,-65.7021 L54.6198,-68.8685 Z M41.7565,-77.1802 L33.049,-61.9421 L37.2048,-59.5673 L45.9123,-74.8054 L41.7565,-77.1802 Z M27.7057,-83.315 L21.7688,-66.8895 L26.3204,-65.3063 L32.2574,-81.7319 L27.7057,-83.315 Z M12.6655,-86.8772 L9.4991,-69.6601 L14.2487,-68.8685 L17.415,-86.0856 L12.6655,-86.8772 Z M-2.37478,-87.6688 L-2.57267,-87.6688 L-2.57267,-70.0559 L2.17688,-70.0559 L2.17688,-87.6688 L-2.37478,-87.6688 Z " fill="#ffffff" fill-opacity="1.00" />		</g>	</svg>