<?xml version="1.0" encoding="utf-8" ?>	<!-- Generator: Assembly 2.4 - http://assemblyapp.co -->	<svg version="1.1" xmlns="http://www.w3.org/2000/svg" xmlns:xlink="http://www.w3.org/1999/xlink" width="4096.00" height="4096.00" viewBox="0 0 4096.0 4096.0">		<g id="document" transform="scale(13.653333333333334 13.653333333333334) translate(150.0 150.0)">			<path d="M99.9305,37.3479 C101.695,32.5505 103.241,27.3752 104.192,22.0402 M106.461,2.84477 C106.48,-4.97558 105.932,-12.4687 104.6,-20.0124 C102.358,-31.3134 98.1386,-42.9844 91.812,-53.9424 C82.9765,-69.2459 71.3947,-81.4524 57.6627,-90.4021 M5.49488,-107.894 C-5.00757,-108.632 -15.6113,-107.8 -26.3162,-105.398 M-79.1666,-75.6407 C-87.0355,-68.3266 -93.5155,-59.0433 -98.4256,-49.6588 C-105.965,-35.2295 -109.79,-19.166 -110.475,-2.90009 C-111.243,7.11541 -109.953,17.2029 -107.312,27.0138 M-35.1017,103.217 C-30.2245,104.684 -25.1583,106.041 -19.9323,106.803 C-11.0212,108.711 -2.60485,108.89 6.34909,108.255 C14.3291,107.678 22.5487,106.208 30.6008,103.574 " fill="none" stroke-width="2.00" stroke="#ffffff" stroke-linecap="square" stroke-linejoin="miter" />		</g>	</svg>