<?xml version="1.0" encoding="utf-8" ?>	<!-- Generator: Assembly 2.4 - http://assemblyapp.co -->	<svg version="1.1" xmlns="http://www.w3.org/2000/svg" xmlns:xlink="http://www.w3.org/1999/xlink" width="4096.00" height="4096.00" viewBox="0 0 4096.0 4096.0">		<g id="document" transform="scale(13.653333333333334 13.653333333333334) translate(150.0 150.0)">			<path d="M107.091,-107.091 L107.091,107.091 L-107.091,107.091 L-107.091,-107.091 L107.091,-107.091 Z M107.091,-137.649 L-107.091,-137.649 C-123.884,-137.649 -137.649,-123.884 -137.649,-107.091 L-137.649,107.091 C-137.649,123.884 -123.884,137.649 -107.091,137.649 L107.091,137.649 C123.884,137.649 137.649,123.884 137.649,107.091 L137.649,-107.091 C137.649,-123.884 123.884,-137.649 107.091,-137.649 Z " fill="#79bd9a" fill-opacity="1.00" />			<path d="M101.385,-43.3044 L101.385,-101.385 L-14.7764,14.7764 L43.3044,14.7764 L101.385,-43.3044 Z " fill="#79bd9a" fill-opacity="1.00" />			<path d="M-101.385,-43.3044 L-101.385,-101.385 L14.7764,14.7764 L-43.3044,14.7764 L-101.385,-43.3044 Z " fill="#79bd9a" fill-opacity="1.00" />		</g>	</svg>