<?xml version="1.0" encoding="utf-8" ?>	<!-- Generator: Assembly 2.4 - http://assemblyapp.co -->	<svg version="1.1" xmlns="http://www.w3.org/2000/svg" xmlns:xlink="http://www.w3.org/1999/xlink" width="4096.00" height="4096.00" viewBox="0 0 4096.0 4096.0">		<g id="document" transform="scale(13.653333333333334 13.653333333333334) translate(150.0 150.0)">			<path d="M63.5628,149.253 C111.036,149.253 149.253,111.036 149.253,63.5628 L149.253,-63.9278 C149.253,-111.401 110.737,-149.618 63.5628,-149.618 L-63.9278,-149.618 C-111.401,-149.618 -149.618,-111.102 -149.618,-63.9278 L-149.618,63.5628 C-149.618,111.036 -111.102,149.253 -63.9278,149.253 L63.5628,149.253 Z " fill="#345b7d" fill-opacity="1.00" />			<path d="M43.7218,48.435 L48.5653,48.435 L48.5653,-48.4351 L43.7218,-48.4351 L43.7218,48.435 Z M23.3791,48.435 L33.0661,48.435 L33.0661,-48.4351 L23.3791,-48.4351 L23.3791,48.435 Z M-27.9621,48.435 L-23.1186,48.435 L-23.1186,-48.4351 L-27.9621,-48.4351 L-27.9621,48.435 Z M7.87986,48.435 L12.7234,48.435 L12.7234,-48.4351 L7.87986,-48.4351 L7.87986,48.435 Z M-48.3048,48.435 L-38.6178,48.435 L-38.6178,-48.4351 L-48.3048,-48.4351 L-48.3048,48.435 Z M-12.4629,48.435 L-2.77585,48.435 L-2.77585,-48.4351 L-12.4629,-48.4351 L-12.4629,48.435 Z " fill="#ffffff" fill-opacity="1.00" />		</g>	</svg>