<?xml version="1.0" encoding="utf-8" ?>	<!-- Generator: Assembly 2.4 - http://assemblyapp.co -->	<svg version="1.1" xmlns="http://www.w3.org/2000/svg" xmlns:xlink="http://www.w3.org/1999/xlink" width="4096.00" height="4096.00" viewBox="0 0 4096.0 4096.0">		<g id="document" transform="scale(13.653333333333334 13.653333333333334) translate(150.0 150.0)">			<path d="M63.5628,149.253 C111.036,149.253 149.253,111.036 149.253,63.5628 L149.253,-63.9278 C149.253,-111.401 110.737,-149.618 63.5628,-149.618 L-63.9278,-149.618 C-111.401,-149.618 -149.618,-111.102 -149.618,-63.9278 L-149.618,63.5628 C-149.618,111.036 -111.102,149.253 -63.9278,149.253 L63.5628,149.253 Z " fill="#00b4ce" fill-opacity="1.00" />			<path d="M-46.432,-141.202 C-45.7043,-141.202 -45.1144,-141.792 -45.1144,-142.519 C-45.1144,-143.247 -45.7043,-143.837 -46.432,-143.837 C-47.1596,-143.837 -47.7495,-143.247 -47.7495,-142.519 C-47.7495,-141.792 -47.1596,-141.202 -46.432,-141.202 Z M-45.1144,-119.393 C-45.1144,-120.121 -45.7043,-120.711 -46.432,-120.711 C-47.1596,-120.711 -47.7495,-120.121 -47.7495,-119.393 C-47.7495,-118.666 -47.1596,-118.076 -46.432,-118.076 C-45.7043,-118.076 -45.1144,-118.666 -45.1144,-119.393 Z M-45.1144,-107.83 C-45.1144,-108.558 -45.7043,-109.148 -46.432,-109.148 C-47.1596,-109.148 -47.7495,-108.558 -47.7495,-107.83 C-47.7495,-107.103 -47.1596,-106.513 -46.432,-106.513 C-45.7043,-106.513 -45.1144,-107.103 -45.1144,-107.83 Z M-46.432,-94.9498 C-45.7043,-94.9498 -45.1144,-95.5397 -45.1144,-96.2673 C-45.1144,-96.995 -45.7043,-97.5849 -46.432,-97.5849 C-47.1596,-97.5849 -47.7495,-96.995 -47.7495,-96.2673 C-47.7495,-95.5397 -47.1596,-94.9498 -46.432,-94.9498 Z M-46.432,-83.419 C-45.7043,-83.419 -45.1144,-84.0089 -45.1144,-84.7366 C-45.1144,-85.4642 -45.7043,-86.0541 -46.432,-86.0541 C-47.1596,-86.0541 -47.7495,-85.4642 -47.7495,-84.7366 C-47.7495,-84.0089 -47.1596,-83.419 -46.432,-83.419 Z M-45.1144,-73.1414 C-45.1144,-73.8691 -45.7043,-74.4589 -46.432,-74.4589 C-47.1596,-74.4589 -47.7495,-73.8691 -47.7495,-73.1414 C-47.7495,-72.4137 -47.1596,-71.8239 -46.432,-71.8239 C-45.7043,-71.8239 -45.1144,-72.4137 -45.1144,-73.1414 Z M-45.1144,-61.5784 C-45.1144,-62.3061 -45.7043,-62.8959 -46.432,-62.8959 C-47.1596,-62.8959 -47.7495,-62.3061 -47.7495,-61.5784 C-47.7495,-60.8508 -47.1596,-60.2609 -46.432,-60.2609 C-45.7043,-60.2609 -45.1144,-60.8508 -45.1144,-61.5784 Z M-46.432,-48.6979 C-45.7043,-48.6979 -45.1144,-49.2878 -45.1144,-50.0154 C-45.1144,-50.7431 -45.7043,-51.333 -46.432,-51.333 C-47.1596,-51.333 -47.7495,-50.7431 -47.7495,-50.0154 C-47.7495,-49.2878 -47.1596,-48.6979 -46.432,-48.6979 Z M-46.432,-37.1349 C-45.7043,-37.1349 -45.1144,-37.7248 -45.1144,-38.4525 C-45.1144,-39.1802 -45.7043,-39.77 -46.432,-39.77 C-47.1596,-39.77 -47.7495,-39.1802 -47.7495,-38.4525 C-47.7495,-37.7248 -47.1596,-37.1349 -46.432,-37.1349 Z M-46.432,-129.639 C-45.7043,-129.639 -45.1144,-130.229 -45.1144,-130.956 C-45.1144,-131.684 -45.7043,-132.274 -46.432,-132.274 C-47.1596,-132.274 -47.7495,-131.684 -47.7495,-130.956 C-47.7495,-130.229 -47.1596,-129.639 -46.432,-129.639 Z M-21.9885,-142.519 C-21.9885,-143.247 -22.5783,-143.837 -23.3061,-143.837 C-24.0337,-143.837 -24.6235,-143.247 -24.6235,-142.519 C-24.6235,-141.792 -24.0337,-141.202 -23.3061,-141.202 C-22.5783,-141.202 -21.9885,-141.792 -21.9885,-142.519 Z M-21.9885,-119.393 C-21.9885,-120.121 -22.5783,-120.711 -23.3061,-120.711 C-24.0337,-120.711 -24.6235,-120.121 -24.6235,-119.393 C-24.6235,-118.666 -24.0337,-118.076 -23.3061,-118.076 C-22.5783,-118.076 -21.9885,-118.666 -21.9885,-119.393 Z M-21.9885,-107.83 C-21.9885,-108.558 -22.5783,-109.148 -23.3061,-109.148 C-24.0337,-109.148 -24.6235,-108.558 -24.6235,-107.83 C-24.6235,-107.103 -24.0337,-106.513 -23.3061,-106.513 C-22.5783,-106.513 -21.9885,-107.103 -21.9885,-107.83 Z M-21.9885,-96.2673 C-21.9885,-96.995 -22.5783,-97.5849 -23.3061,-97.5849 C-24.0337,-97.5849 -24.6235,-96.995 -24.6235,-96.2673 C-24.6235,-95.5397 -24.0337,-94.9498 -23.3061,-94.9498 C-22.5783,-94.9498 -21.9885,-95.5397 -21.9885,-96.2673 Z M-21.9885,-84.7366 C-21.9885,-85.4642 -22.5783,-86.0541 -23.3061,-86.0541 C-24.0337,-86.0541 -24.6235,-85.4642 -24.6235,-84.7366 C-24.6235,-84.0089 -24.0337,-83.419 -23.3061,-83.419 C-22.5783,-83.419 -21.9885,-84.0089 -21.9885,-84.7366 Z M-21.9885,-73.1414 C-21.9885,-73.8691 -22.5783,-74.4589 -23.3061,-74.4589 C-24.0337,-74.4589 -24.6235,-73.8691 -24.6235,-73.1414 C-24.6235,-72.4137 -24.0337,-71.8239 -23.3061,-71.8239 C-22.5783,-71.8239 -21.9885,-72.4137 -21.9885,-73.1414 Z M-21.9885,-61.5784 C-21.9885,-62.3061 -22.5783,-62.8959 -23.3061,-62.8959 C-24.0337,-62.8959 -24.6235,-62.3061 -24.6235,-61.5784 C-24.6235,-60.8508 -24.0337,-60.2609 -23.3061,-60.2609 C-22.5783,-60.2609 -21.9885,-60.8508 -21.9885,-61.5784 Z M-21.9885,-50.0154 C-21.9885,-50.7431 -22.5783,-51.333 -23.3061,-51.333 C-24.0337,-51.333 -24.6235,-50.7431 -24.6235,-50.0154 C-24.6235,-49.2878 -24.0337,-48.6979 -23.3061,-48.6979 C-22.5783,-48.6979 -21.9885,-49.2878 -21.9885,-50.0154 Z M-21.9885,-38.4525 C-21.9885,-39.1801 -22.5783,-39.77 -23.3061,-39.77 C-24.0337,-39.77 -24.6235,-39.1801 -24.6235,-38.4525 C-24.6235,-37.7248 -24.0337,-37.1349 -23.3061,-37.1349 C-22.5783,-37.1349 -21.9885,-37.7248 -21.9885,-38.4525 Z M-21.9885,-130.956 C-21.9885,-131.684 -22.5783,-132.274 -23.3061,-132.274 C-24.0337,-132.274 -24.6235,-131.684 -24.6235,-130.956 C-24.6235,-130.229 -24.0337,-129.639 -23.3061,-129.639 C-22.5783,-129.639 -21.9885,-130.229 -21.9885,-130.956 Z M-0.180077,-141.202 C0.547587,-141.202 1.13748,-141.792 1.13748,-142.519 C1.13748,-143.247 0.547587,-143.837 -0.180077,-143.837 C-0.907742,-143.837 -1.49763,-143.247 -1.49763,-142.519 C-1.49763,-141.792 -0.907742,-141.202 -0.180077,-141.202 Z M1.13748,-119.393 C1.13748,-120.121 0.547563,-120.711 -0.180077,-120.711 C-0.907718,-120.711 -1.49763,-120.121 -1.49763,-119.393 C-1.49763,-118.666 -0.907718,-118.076 -0.180077,-118.076 C0.547563,-118.076 1.13748,-118.666 1.13748,-119.393 Z M1.13748,-107.83 C1.13748,-108.558 0.547563,-109.148 -0.180077,-109.148 C-0.907718,-109.148 -1.49763,-108.558 -1.49763,-107.83 C-1.49763,-107.103 -0.907718,-106.513 -0.180077,-106.513 C0.547563,-106.513 1.13748,-107.103 1.13748,-107.83 Z M-0.180077,-94.9498 C0.547587,-94.9498 1.13748,-95.5397 1.13748,-96.2673 C1.13748,-96.995 0.547587,-97.5849 -0.180077,-97.5849 C-0.907742,-97.5849 -1.49763,-96.995 -1.49763,-96.2673 C-1.49763,-95.5397 -0.907742,-94.9498 -0.180077,-94.9498 Z M-0.180077,-83.419 C0.547587,-83.419 1.13748,-84.0089 1.13748,-84.7366 C1.13748,-85.4642 0.547587,-86.0541 -0.180077,-86.0541 C-0.907742,-86.0541 -1.49763,-85.4642 -1.49763,-84.7366 C-1.49763,-84.0089 -0.907742,-83.419 -0.180077,-83.419 Z M1.13748,-73.1414 C1.13748,-73.8691 0.547563,-74.4589 -0.180077,-74.4589 C-0.907718,-74.4589 -1.49763,-73.8691 -1.49763,-73.1414 C-1.49763,-72.4137 -0.907718,-71.8239 -0.180077,-71.8239 C0.547563,-71.8239 1.13748,-72.4137 1.13748,-73.1414 Z M1.13748,-61.5784 C1.13748,-62.3061 0.547563,-62.8959 -0.180077,-62.8959 C-0.907718,-62.8959 -1.49763,-62.3061 -1.49763,-61.5784 C-1.49763,-60.8508 -0.907718,-60.2609 -0.180077,-60.2609 C0.547563,-60.2609 1.13748,-60.8508 1.13748,-61.5784 Z M-0.180077,-48.6979 C0.547587,-48.6979 1.13748,-49.2878 1.13748,-50.0154 C1.13748,-50.7431 0.547587,-51.333 -0.180077,-51.333 C-0.907742,-51.333 -1.49763,-50.7431 -1.49763,-50.0154 C-1.49763,-49.2878 -0.907742,-48.6979 -0.180077,-48.6979 Z M-0.180077,-37.1349 C0.547587,-37.1349 1.13748,-37.7248 1.13748,-38.4525 C1.13748,-39.1802 0.547587,-39.77 -0.180077,-39.77 C-0.907742,-39.77 -1.49763,-39.1802 -1.49763,-38.4525 C-1.49763,-37.7248 -0.907742,-37.1349 -0.180077,-37.1349 Z M-0.180077,-129.639 C0.547587,-129.639 1.13748,-130.229 1.13748,-130.956 C1.13748,-131.684 0.547587,-132.274 -0.180077,-132.274 C-0.907742,-132.274 -1.49763,-131.684 -1.49763,-130.956 C-1.49763,-130.229 -0.907742,-129.639 -0.180077,-129.639 Z M-56.6774,-32.671 C-56.6774,-33.3987 -57.2673,-33.9886 -57.9949,-33.9886 C-58.7226,-33.9886 -59.3125,-33.3987 -59.3125,-32.671 C-59.3125,-31.9434 -58.7226,-31.3535 -57.9949,-31.3535 C-57.2673,-31.3535 -56.6774,-31.9434 -56.6774,-32.671 Z M-56.6774,-44.234 C-56.6774,-44.9616 -57.2673,-45.5515 -57.9949,-45.5515 C-58.7226,-45.5515 -59.3125,-44.9616 -59.3125,-44.234 C-59.3125,-43.5063 -58.7226,-42.9164 -57.9949,-42.9164 C-57.2673,-42.9164 -56.6774,-43.5063 -56.6774,-44.234 Z M-56.6774,-55.7969 C-56.6774,-56.5246 -57.2673,-57.1145 -57.9949,-57.1145 C-58.7226,-57.1145 -59.3125,-56.5246 -59.3125,-55.7969 C-59.3125,-55.0693 -58.7226,-54.4794 -57.9949,-54.4794 C-57.2673,-54.4794 -56.6774,-55.0693 -56.6774,-55.7969 Z M-56.6774,-67.3599 C-56.6774,-68.0876 -57.2673,-68.6774 -57.9949,-68.6774 C-58.7226,-68.6774 -59.3125,-68.0876 -59.3125,-67.3599 C-59.3125,-66.6322 -58.7226,-66.0424 -57.9949,-66.0424 C-57.2673,-66.0424 -56.6774,-66.6322 -56.6774,-67.3599 Z M-56.6774,-78.9229 C-56.6774,-79.6505 -57.2673,-80.2404 -57.9949,-80.2404 C-58.7226,-80.2404 -59.3125,-79.6505 -59.3125,-78.9229 C-59.3125,-78.1953 -58.7226,-77.6053 -57.9949,-77.6053 C-57.2673,-77.6053 -56.6774,-78.1953 -56.6774,-78.9229 Z M-56.6774,-90.4858 C-56.6774,-91.2135 -57.2673,-91.8034 -57.9949,-91.8034 C-58.7226,-91.8034 -59.3125,-91.2135 -59.3125,-90.4858 C-59.3125,-89.7582 -58.7226,-89.1683 -57.9949,-89.1683 C-57.2673,-89.1683 -56.6774,-89.7582 -56.6774,-90.4858 Z M-56.6774,-102.049 C-56.6774,-102.776 -57.2673,-103.366 -57.9949,-103.366 C-58.7226,-103.366 -59.3125,-102.776 -59.3125,-102.049 C-59.3125,-101.321 -58.7226,-100.731 -57.9949,-100.731 C-57.2673,-100.731 -56.6774,-101.321 -56.6774,-102.049 Z M-56.6774,-113.612 C-56.6774,-114.339 -57.2673,-114.929 -57.9949,-114.929 C-58.7226,-114.929 -59.3125,-114.339 -59.3125,-113.612 C-59.3125,-112.884 -58.7226,-112.294 -57.9949,-112.294 C-57.2673,-112.294 -56.6774,-112.884 -56.6774,-113.612 Z M-56.6774,-125.175 C-56.6774,-125.902 -57.2673,-126.492 -57.9949,-126.492 C-58.7226,-126.492 -59.3125,-125.902 -59.3125,-125.175 C-59.3125,-124.447 -58.7226,-123.857 -57.9949,-123.857 C-57.2673,-123.857 -56.6774,-124.447 -56.6774,-125.175 Z M-56.6774,-136.738 C-56.6774,-137.465 -57.2673,-138.055 -57.9949,-138.055 C-58.7226,-138.055 -59.3125,-137.465 -59.3125,-136.738 C-59.3125,-136.01 -58.7226,-135.42 -57.9949,-135.42 C-57.2673,-135.42 -56.6774,-136.01 -56.6774,-136.738 Z M-56.6774,-148.301 C-56.6774,-149.028 -57.2673,-149.618 -57.9949,-149.618 C-58.7226,-149.618 -59.3125,-149.028 -59.3125,-148.301 C-59.3125,-147.573 -58.7226,-146.983 -57.9949,-146.983 C-57.2673,-146.983 -56.6774,-147.573 -56.6774,-148.301 Z M-34.869,-31.3535 C-34.1413,-31.3535 -33.5515,-31.9433 -33.5515,-32.671 C-33.5515,-33.3987 -34.1413,-33.9886 -34.869,-33.9886 C-35.5967,-33.9886 -36.1866,-33.3987 -36.1866,-32.671 C-36.1866,-31.9433 -35.5967,-31.3535 -34.869,-31.3535 Z M-34.869,-42.9164 C-34.1413,-42.9164 -33.5515,-43.5063 -33.5515,-44.234 C-33.5515,-44.9616 -34.1413,-45.5515 -34.869,-45.5515 C-35.5967,-45.5515 -36.1866,-44.9616 -36.1866,-44.234 C-36.1866,-43.5063 -35.5967,-42.9164 -34.869,-42.9164 Z M-34.869,-54.4794 C-34.1413,-54.4794 -33.5515,-55.0693 -33.5515,-55.7969 C-33.5515,-56.5246 -34.1413,-57.1145 -34.869,-57.1145 C-35.5967,-57.1145 -36.1866,-56.5246 -36.1866,-55.7969 C-36.1866,-55.0693 -35.5967,-54.4794 -34.869,-54.4794 Z M-33.5515,-67.3599 C-33.5515,-68.0876 -34.1414,-68.6774 -34.869,-68.6774 C-35.5966,-68.6774 -36.1866,-68.0876 -36.1866,-67.3599 C-36.1866,-66.6322 -35.5966,-66.0424 -34.869,-66.0424 C-34.1414,-66.0424 -33.5515,-66.6322 -33.5515,-67.3599 Z M-34.869,-77.6053 C-34.1413,-77.6053 -33.5515,-78.1952 -33.5515,-78.9229 C-33.5515,-79.6506 -34.1413,-80.2404 -34.869,-80.2404 C-35.5967,-80.2404 -36.1866,-79.6506 -36.1866,-78.9229 C-36.1866,-78.1952 -35.5967,-77.6053 -34.869,-77.6053 Z M-34.869,-89.1683 C-34.1413,-89.1683 -33.5515,-89.7582 -33.5515,-90.4858 C-33.5515,-91.2135 -34.1413,-91.8034 -34.869,-91.8034 C-35.5967,-91.8034 -36.1866,-91.2135 -36.1866,-90.4858 C-36.1866,-89.7582 -35.5967,-89.1683 -34.869,-89.1683 Z M-34.869,-100.731 C-34.1413,-100.731 -33.5515,-101.321 -33.5515,-102.049 C-33.5515,-102.776 -34.1413,-103.366 -34.869,-103.366 C-35.5967,-103.366 -36.1866,-102.776 -36.1866,-102.049 C-36.1866,-101.321 -35.5967,-100.731 -34.869,-100.731 Z M-33.5515,-113.612 C-33.5515,-114.339 -34.1414,-114.929 -34.869,-114.929 C-35.5966,-114.929 -36.1866,-114.339 -36.1866,-113.612 C-36.1866,-112.884 -35.5966,-112.294 -34.869,-112.294 C-34.1414,-112.294 -33.5515,-112.884 -33.5515,-113.612 Z M-33.5515,-125.175 C-33.5515,-125.902 -34.1414,-126.492 -34.869,-126.492 C-35.5966,-126.492 -36.1866,-125.902 -36.1866,-125.175 C-36.1866,-124.447 -35.5966,-123.857 -34.869,-123.857 C-34.1414,-123.857 -33.5515,-124.447 -33.5515,-125.175 Z M-34.869,-135.42 C-34.1413,-135.42 -33.5515,-136.01 -33.5515,-136.738 C-33.5515,-137.465 -34.1413,-138.055 -34.869,-138.055 C-35.5967,-138.055 -36.1866,-137.465 -36.1866,-136.738 C-36.1866,-136.01 -35.5967,-135.42 -34.869,-135.42 Z M-34.869,-146.983 C-34.1413,-146.983 -33.5515,-147.573 -33.5515,-148.301 C-33.5515,-149.028 -34.1413,-149.618 -34.869,-149.618 C-35.5967,-149.618 -36.1866,-149.028 -36.1866,-148.301 C-36.1866,-147.573 -35.5967,-146.983 -34.869,-146.983 Z M-10.4255,-32.671 C-10.4255,-33.3987 -11.0154,-33.9886 -11.743,-33.9886 C-12.4707,-33.9886 -13.0606,-33.3987 -13.0606,-32.671 C-13.0606,-31.9434 -12.4707,-31.3535 -11.743,-31.3535 C-11.0154,-31.3535 -10.4255,-31.9434 -10.4255,-32.671 Z M-10.4255,-44.234 C-10.4255,-44.9616 -11.0154,-45.5515 -11.743,-45.5515 C-12.4707,-45.5515 -13.0606,-44.9616 -13.0606,-44.234 C-13.0606,-43.5063 -12.4707,-42.9164 -11.743,-42.9164 C-11.0154,-42.9164 -10.4255,-43.5063 -10.4255,-44.234 Z M-10.4255,-55.7969 C-10.4255,-56.5246 -11.0154,-57.1145 -11.743,-57.1145 C-12.4707,-57.1145 -13.0606,-56.5246 -13.0606,-55.7969 C-13.0606,-55.0693 -12.4707,-54.4794 -11.743,-54.4794 C-11.0154,-54.4794 -10.4255,-55.0693 -10.4255,-55.7969 Z M-10.4255,-67.3599 C-10.4255,-68.0876 -11.0154,-68.6774 -11.743,-68.6774 C-12.4707,-68.6774 -13.0606,-68.0876 -13.0606,-67.3599 C-13.0606,-66.6322 -12.4707,-66.0424 -11.743,-66.0424 C-11.0154,-66.0424 -10.4255,-66.6322 -10.4255,-67.3599 Z M-10.4255,-78.9229 C-10.4255,-79.6505 -11.0154,-80.2404 -11.743,-80.2404 C-12.4707,-80.2404 -13.0606,-79.6505 -13.0606,-78.9229 C-13.0606,-78.1953 -12.4707,-77.6053 -11.743,-77.6053 C-11.0154,-77.6053 -10.4255,-78.1953 -10.4255,-78.9229 Z M-10.4255,-90.4858 C-10.4255,-91.2135 -11.0154,-91.8034 -11.743,-91.8034 C-12.4707,-91.8034 -13.0606,-91.2135 -13.0606,-90.4858 C-13.0606,-89.7582 -12.4707,-89.1683 -11.743,-89.1683 C-11.0154,-89.1683 -10.4255,-89.7582 -10.4255,-90.4858 Z M-10.4255,-102.049 C-10.4255,-102.776 -11.0154,-103.366 -11.743,-103.366 C-12.4707,-103.366 -13.0606,-102.776 -13.0606,-102.049 C-13.0606,-101.321 -12.4707,-100.731 -11.743,-100.731 C-11.0154,-100.731 -10.4255,-101.321 -10.4255,-102.049 Z M-10.4255,-113.612 C-10.4255,-114.339 -11.0154,-114.929 -11.743,-114.929 C-12.4707,-114.929 -13.0606,-114.339 -13.0606,-113.612 C-13.0606,-112.884 -12.4707,-112.294 -11.743,-112.294 C-11.0154,-112.294 -10.4255,-112.884 -10.4255,-113.612 Z M-10.4255,-125.175 C-10.4255,-125.902 -11.0154,-126.492 -11.743,-126.492 C-12.4707,-126.492 -13.0606,-125.902 -13.0606,-125.175 C-13.0606,-124.447 -12.4707,-123.857 -11.743,-123.857 C-11.0154,-123.857 -10.4255,-124.447 -10.4255,-125.175 Z M-10.4255,-136.738 C-10.4255,-137.465 -11.0154,-138.055 -11.743,-138.055 C-12.4707,-138.055 -13.0606,-137.465 -13.0606,-136.738 C-13.0606,-136.01 -12.4707,-135.42 -11.743,-135.42 C-11.0154,-135.42 -10.4255,-136.01 -10.4255,-136.738 Z M-10.4255,-148.301 C-10.4255,-149.028 -11.0154,-149.618 -11.743,-149.618 C-12.4707,-149.618 -13.0606,-149.028 -13.0606,-148.301 C-13.0606,-147.573 -12.4707,-146.983 -11.743,-146.983 C-11.0154,-146.983 -10.4255,-147.573 -10.4255,-148.301 Z M11.3829,-31.3535 C12.1105,-31.3535 12.7004,-31.9433 12.7004,-32.671 C12.7004,-33.3987 12.1105,-33.9886 11.3829,-33.9886 C10.6552,-33.9886 10.0653,-33.3987 10.0653,-32.671 C10.0653,-31.9433 10.6552,-31.3535 11.3829,-31.3535 Z M11.3829,-42.9164 C12.1105,-42.9164 12.7004,-43.5063 12.7004,-44.234 C12.7004,-44.9616 12.1105,-45.5515 11.3829,-45.5515 C10.6552,-45.5515 10.0653,-44.9616 10.0653,-44.234 C10.0653,-43.5063 10.6552,-42.9164 11.3829,-42.9164 Z M11.3829,-54.4794 C12.1105,-54.4794 12.7004,-55.0693 12.7004,-55.7969 C12.7004,-56.5246 12.1105,-57.1145 11.3829,-57.1145 C10.6552,-57.1145 10.0653,-56.5246 10.0653,-55.7969 C10.0653,-55.0693 10.6552,-54.4794 11.3829,-54.4794 Z M12.7004,-67.3599 C12.7004,-68.0876 12.1105,-68.6774 11.3829,-68.6774 C10.6552,-68.6774 10.0653,-68.0876 10.0653,-67.3599 C10.0653,-66.6322 10.6552,-66.0424 11.3829,-66.0424 C12.1105,-66.0424 12.7004,-66.6322 12.7004,-67.3599 Z M11.3829,-77.6053 C12.1105,-77.6053 12.7004,-78.1952 12.7004,-78.9229 C12.7004,-79.6506 12.1105,-80.2404 11.3829,-80.2404 C10.6552,-80.2404 10.0653,-79.6506 10.0653,-78.9229 C10.0653,-78.1952 10.6552,-77.6053 11.3829,-77.6053 Z M11.3829,-89.1683 C12.1105,-89.1683 12.7004,-89.7582 12.7004,-90.4858 C12.7004,-91.2135 12.1105,-91.8034 11.3829,-91.8034 C10.6552,-91.8034 10.0653,-91.2135 10.0653,-90.4858 C10.0653,-89.7582 10.6552,-89.1683 11.3829,-89.1683 Z M11.3829,-100.731 C12.1105,-100.731 12.7004,-101.321 12.7004,-102.049 C12.7004,-102.776 12.1105,-103.366 11.3829,-103.366 C10.6552,-103.366 10.0653,-102.776 10.0653,-102.049 C10.0653,-101.321 10.6552,-100.731 11.3829,-100.731 Z M12.7004,-113.612 C12.7004,-114.339 12.1105,-114.929 11.3829,-114.929 C10.6552,-114.929 10.0653,-114.339 10.0653,-113.612 C10.0653,-112.884 10.6552,-112.294 11.3829,-112.294 C12.1105,-112.294 12.7004,-112.884 12.7004,-113.612 Z M12.7004,-125.175 C12.7004,-125.902 12.1105,-126.492 11.3829,-126.492 C10.6552,-126.492 10.0653,-125.902 10.0653,-125.175 C10.0653,-124.447 10.6552,-123.857 11.3829,-123.857 C12.1105,-123.857 12.7004,-124.447 12.7004,-125.175 Z M11.3829,-135.42 C12.1105,-135.42 12.7004,-136.01 12.7004,-136.738 C12.7004,-137.465 12.1105,-138.055 11.3829,-138.055 C10.6552,-138.055 10.0653,-137.465 10.0653,-136.738 C10.0653,-136.01 10.6552,-135.42 11.3829,-135.42 Z M11.3829,-146.983 C12.1105,-146.983 12.7004,-147.573 12.7004,-148.301 C12.7004,-149.028 12.1105,-149.618 11.3829,-149.618 C10.6552,-149.618 10.0653,-149.028 10.0653,-148.301 C10.0653,-147.573 10.6552,-146.983 11.3829,-146.983 Z M22.941,-141.202 C23.6687,-141.202 24.2585,-141.792 24.2585,-142.519 C24.2585,-143.247 23.6687,-143.837 22.941,-143.837 C22.2133,-143.837 21.6234,-143.247 21.6234,-142.519 C21.6234,-141.792 22.2133,-141.202 22.941,-141.202 Z M24.2585,-119.393 C24.2585,-120.121 23.6686,-120.711 22.941,-120.711 C22.2133,-120.711 21.6234,-120.121 21.6234,-119.393 C21.6234,-118.666 22.2133,-118.076 22.941,-118.076 C23.6686,-118.076 24.2585,-118.666 24.2585,-119.393 Z M24.2585,-107.83 C24.2585,-108.558 23.6686,-109.148 22.941,-109.148 C22.2133,-109.148 21.6234,-108.558 21.6234,-107.83 C21.6234,-107.103 22.2133,-106.513 22.941,-106.513 C23.6686,-106.513 24.2585,-107.103 24.2585,-107.83 Z M22.941,-94.9498 C23.6687,-94.9498 24.2585,-95.5397 24.2585,-96.2673 C24.2585,-96.995 23.6687,-97.5849 22.941,-97.5849 C22.2133,-97.5849 21.6234,-96.995 21.6234,-96.2673 C21.6234,-95.5397 22.2133,-94.9498 22.941,-94.9498 Z M22.941,-83.419 C23.6687,-83.419 24.2585,-84.0089 24.2585,-84.7366 C24.2585,-85.4642 23.6687,-86.0541 22.941,-86.0541 C22.2133,-86.0541 21.6234,-85.4642 21.6234,-84.7366 C21.6234,-84.0089 22.2133,-83.419 22.941,-83.419 Z M24.2585,-73.1414 C24.2585,-73.8691 23.6686,-74.4589 22.941,-74.4589 C22.2133,-74.4589 21.6234,-73.8691 21.6234,-73.1414 C21.6234,-72.4137 22.2133,-71.8239 22.941,-71.8239 C23.6686,-71.8239 24.2585,-72.4137 24.2585,-73.1414 Z M24.2585,-61.5784 C24.2585,-62.3061 23.6686,-62.8959 22.941,-62.8959 C22.2133,-62.8959 21.6234,-62.3061 21.6234,-61.5784 C21.6234,-60.8508 22.2133,-60.2609 22.941,-60.2609 C23.6686,-60.2609 24.2585,-60.8508 24.2585,-61.5784 Z M22.941,-48.6979 C23.6687,-48.6979 24.2585,-49.2878 24.2585,-50.0154 C24.2585,-50.7431 23.6687,-51.333 22.941,-51.333 C22.2133,-51.333 21.6234,-50.7431 21.6234,-50.0154 C21.6234,-49.2878 22.2133,-48.6979 22.941,-48.6979 Z M22.941,-37.1349 C23.6687,-37.1349 24.2585,-37.7248 24.2585,-38.4525 C24.2585,-39.1802 23.6687,-39.77 22.941,-39.77 C22.2133,-39.77 21.6234,-39.1802 21.6234,-38.4525 C21.6234,-37.7248 22.2133,-37.1349 22.941,-37.1349 Z M22.941,-129.639 C23.6687,-129.639 24.2585,-130.229 24.2585,-130.956 C24.2585,-131.684 23.6687,-132.274 22.941,-132.274 C22.2133,-132.274 21.6234,-131.684 21.6234,-130.956 C21.6234,-130.229 22.2133,-129.639 22.941,-129.639 Z M46.0669,-141.202 C46.7946,-141.202 47.3844,-141.792 47.3844,-142.519 C47.3844,-143.247 46.7946,-143.837 46.0669,-143.837 C45.3392,-143.837 44.7493,-143.247 44.7493,-142.519 C44.7493,-141.792 45.3392,-141.202 46.0669,-141.202 Z M47.3844,-119.393 C47.3844,-120.121 46.7945,-120.711 46.0669,-120.711 C45.3393,-120.711 44.7493,-120.121 44.7493,-119.393 C44.7493,-118.666 45.3393,-118.076 46.0669,-118.076 C46.7945,-118.076 47.3844,-118.666 47.3844,-119.393 Z M47.3844,-107.83 C47.3844,-108.558 46.7945,-109.148 46.0669,-109.148 C45.3393,-109.148 44.7493,-108.558 44.7493,-107.83 C44.7493,-107.103 45.3393,-106.513 46.0669,-106.513 C46.7945,-106.513 47.3844,-107.103 47.3844,-107.83 Z M46.0669,-94.9498 C46.7946,-94.9498 47.3844,-95.5397 47.3844,-96.2673 C47.3844,-96.995 46.7946,-97.5849 46.0669,-97.5849 C45.3392,-97.5849 44.7493,-96.995 44.7493,-96.2673 C44.7493,-95.5397 45.3392,-94.9498 46.0669,-94.9498 Z M46.0669,-83.419 C46.7946,-83.419 47.3844,-84.0089 47.3844,-84.7366 C47.3844,-85.4642 46.7946,-86.0541 46.0669,-86.0541 C45.3392,-86.0541 44.7493,-85.4642 44.7493,-84.7366 C44.7493,-84.0089 45.3392,-83.419 46.0669,-83.419 Z M47.3844,-73.1414 C47.3844,-73.8691 46.7945,-74.4589 46.0669,-74.4589 C45.3393,-74.4589 44.7493,-73.8691 44.7493,-73.1414 C44.7493,-72.4137 45.3393,-71.8239 46.0669,-71.8239 C46.7945,-71.8239 47.3844,-72.4137 47.3844,-73.1414 Z M47.3844,-61.5784 C47.3844,-62.3061 46.7945,-62.8959 46.0669,-62.8959 C45.3393,-62.8959 44.7493,-62.3061 44.7493,-61.5784 C44.7493,-60.8508 45.3393,-60.2609 46.0669,-60.2609 C46.7945,-60.2609 47.3844,-60.8508 47.3844,-61.5784 Z M46.0669,-48.6979 C46.7946,-48.6979 47.3844,-49.2878 47.3844,-50.0154 C47.3844,-50.7431 46.7946,-51.333 46.0669,-51.333 C45.3392,-51.333 44.7493,-50.7431 44.7493,-50.0154 C44.7493,-49.2878 45.3392,-48.6979 46.0669,-48.6979 Z M46.0669,-37.1349 C46.7946,-37.1349 47.3844,-37.7248 47.3844,-38.4525 C47.3844,-39.1802 46.7946,-39.77 46.0669,-39.77 C45.3392,-39.77 44.7493,-39.1802 44.7493,-38.4525 C44.7493,-37.7248 45.3392,-37.1349 46.0669,-37.1349 Z M46.0669,-129.639 C46.7946,-129.639 47.3844,-130.229 47.3844,-130.956 C47.3844,-131.684 46.7946,-132.274 46.0669,-132.274 C45.3392,-132.274 44.7493,-131.684 44.7493,-130.956 C44.7493,-130.229 45.3392,-129.639 46.0669,-129.639 Z M34.5039,-31.3535 C35.2316,-31.3535 35.8215,-31.9433 35.8215,-32.671 C35.8215,-33.3987 35.2316,-33.9886 34.5039,-33.9886 C33.7763,-33.9886 33.1864,-33.3987 33.1864,-32.671 C33.1864,-31.9433 33.7763,-31.3535 34.5039,-31.3535 Z M34.5039,-42.9164 C35.2316,-42.9164 35.8215,-43.5063 35.8215,-44.234 C35.8215,-44.9616 35.2316,-45.5515 34.5039,-45.5515 C33.7763,-45.5515 33.1864,-44.9616 33.1864,-44.234 C33.1864,-43.5063 33.7763,-42.9164 34.5039,-42.9164 Z M34.5039,-54.4794 C35.2316,-54.4794 35.8215,-55.0693 35.8215,-55.7969 C35.8215,-56.5246 35.2316,-57.1145 34.5039,-57.1145 C33.7763,-57.1145 33.1864,-56.5246 33.1864,-55.7969 C33.1864,-55.0693 33.7763,-54.4794 34.5039,-54.4794 Z M35.8215,-67.3599 C35.8215,-68.0876 35.2316,-68.6774 34.5039,-68.6774 C33.7763,-68.6774 33.1864,-68.0876 33.1864,-67.3599 C33.1864,-66.6322 33.7763,-66.0424 34.5039,-66.0424 C35.2316,-66.0424 35.8215,-66.6322 35.8215,-67.3599 Z M34.5039,-77.6053 C35.2316,-77.6053 35.8215,-78.1952 35.8215,-78.9229 C35.8215,-79.6506 35.2316,-80.2404 34.5039,-80.2404 C33.7763,-80.2404 33.1864,-79.6506 33.1864,-78.9229 C33.1864,-78.1952 33.7763,-77.6053 34.5039,-77.6053 Z M34.5039,-89.1683 C35.2316,-89.1683 35.8215,-89.7582 35.8215,-90.4858 C35.8215,-91.2135 35.2316,-91.8034 34.5039,-91.8034 C33.7763,-91.8034 33.1864,-91.2135 33.1864,-90.4858 C33.1864,-89.7582 33.7763,-89.1683 34.5039,-89.1683 Z M34.5039,-100.731 C35.2316,-100.731 35.8215,-101.321 35.8215,-102.049 C35.8215,-102.776 35.2316,-103.366 34.5039,-103.366 C33.7763,-103.366 33.1864,-102.776 33.1864,-102.049 C33.1864,-101.321 33.7763,-100.731 34.5039,-100.731 Z M35.8215,-113.612 C35.8215,-114.339 35.2316,-114.929 34.5039,-114.929 C33.7763,-114.929 33.1864,-114.339 33.1864,-113.612 C33.1864,-112.884 33.7763,-112.294 34.5039,-112.294 C35.2316,-112.294 35.8215,-112.884 35.8215,-113.612 Z M35.8215,-125.175 C35.8215,-125.902 35.2316,-126.492 34.5039,-126.492 C33.7763,-126.492 33.1864,-125.902 33.1864,-125.175 C33.1864,-124.447 33.7763,-123.857 34.5039,-123.857 C35.2316,-123.857 35.8215,-124.447 35.8215,-125.175 Z M34.5039,-135.42 C35.2316,-135.42 35.8215,-136.01 35.8215,-136.738 C35.8215,-137.465 35.2316,-138.055 34.5039,-138.055 C33.7763,-138.055 33.1864,-137.465 33.1864,-136.738 C33.1864,-136.01 33.7763,-135.42 34.5039,-135.42 Z M34.5039,-146.983 C35.2316,-146.983 35.8215,-147.573 35.8215,-148.301 C35.8215,-149.028 35.2316,-149.618 34.5039,-149.618 C33.7763,-149.618 33.1864,-149.028 33.1864,-148.301 C33.1864,-147.573 33.7763,-146.983 34.5039,-146.983 Z M56.3124,-32.671 C56.3124,-31.9434 56.9022,-31.3535 57.6299,-31.3535 C58.3576,-31.3535 58.9474,-31.9434 58.9474,-32.671 C58.9474,-33.3987 58.3576,-33.9886 57.6299,-33.9886 C56.9022,-33.9886 56.3124,-33.3987 56.3124,-32.671 Z M58.9474,-44.234 C58.9474,-44.9616 58.3576,-45.5515 57.6299,-45.5515 C56.9022,-45.5515 56.3124,-44.9616 56.3124,-44.234 C56.3124,-43.5063 56.9022,-42.9164 57.6299,-42.9164 C58.3576,-42.9164 58.9474,-43.5063 58.9474,-44.234 Z M58.9474,-55.7969 C58.9474,-56.5246 58.3576,-57.1145 57.6299,-57.1145 C56.9022,-57.1145 56.3124,-56.5246 56.3124,-55.7969 C56.3124,-55.0693 56.9022,-54.4794 57.6299,-54.4794 C58.3576,-54.4794 58.9474,-55.0693 58.9474,-55.7969 Z M58.9474,-67.3599 C58.9474,-68.0876 58.3576,-68.6774 57.6299,-68.6774 C56.9022,-68.6774 56.3124,-68.0876 56.3124,-67.3599 C56.3124,-66.6322 56.9022,-66.0424 57.6299,-66.0424 C58.3576,-66.0424 58.9474,-66.6322 58.9474,-67.3599 Z M58.9474,-78.9229 C58.9474,-79.6505 58.3576,-80.2404 57.6299,-80.2404 C56.9022,-80.2404 56.3124,-79.6505 56.3124,-78.9229 C56.3124,-78.1953 56.9022,-77.6053 57.6299,-77.6053 C58.3576,-77.6053 58.9474,-78.1953 58.9474,-78.9229 Z M58.9474,-90.4858 C58.9474,-91.2135 58.3576,-91.8034 57.6299,-91.8034 C56.9022,-91.8034 56.3124,-91.2135 56.3124,-90.4858 C56.3124,-89.7582 56.9022,-89.1683 57.6299,-89.1683 C58.3576,-89.1683 58.9474,-89.7582 58.9474,-90.4858 Z M58.9474,-102.049 C58.9474,-102.776 58.3576,-103.366 57.6299,-103.366 C56.9022,-103.366 56.3124,-102.776 56.3124,-102.049 C56.3124,-101.321 56.9022,-100.731 57.6299,-100.731 C58.3576,-100.731 58.9474,-101.321 58.9474,-102.049 Z M58.9474,-113.612 C58.9474,-114.339 58.3576,-114.929 57.6299,-114.929 C56.9022,-114.929 56.3124,-114.339 56.3124,-113.612 C56.3124,-112.884 56.9022,-112.294 57.6299,-112.294 C58.3576,-112.294 58.9474,-112.884 58.9474,-113.612 Z M58.9474,-125.175 C58.9474,-125.902 58.3576,-126.492 57.6299,-126.492 C56.9022,-126.492 56.3124,-125.902 56.3124,-125.175 C56.3124,-124.447 56.9022,-123.857 57.6299,-123.857 C58.3576,-123.857 58.9474,-124.447 58.9474,-125.175 Z M58.9474,-136.738 C58.9474,-137.465 58.3576,-138.055 57.6299,-138.055 C56.9022,-138.055 56.3124,-137.465 56.3124,-136.738 C56.3124,-136.01 56.9022,-135.42 57.6299,-135.42 C58.3576,-135.42 58.9474,-136.01 58.9474,-136.738 Z M58.9474,-148.301 C58.9474,-149.028 58.3576,-149.618 57.6299,-149.618 C56.9022,-149.618 56.3124,-149.028 56.3124,-148.301 C56.3124,-147.573 56.9022,-146.983 57.6299,-146.983 C58.3576,-146.983 58.9474,-147.573 58.9474,-148.301 Z " fill="#ffffff" fill-opacity="1.00" />			<path d="M-46.432,39.405 C-45.7043,39.405 -45.1144,38.8151 -45.1144,38.0875 C-45.1144,37.3598 -45.7043,36.7699 -46.432,36.7699 C-47.1596,36.7699 -47.7495,37.3598 -47.7495,38.0875 C-47.7495,38.8151 -47.1596,39.405 -46.432,39.405 Z M-45.1144,61.2134 C-45.1144,60.4857 -45.7043,59.8959 -46.432,59.8959 C-47.1596,59.8959 -47.7495,60.4857 -47.7495,61.2134 C-47.7495,61.9411 -47.1596,62.5309 -46.432,62.5309 C-45.7043,62.5309 -45.1144,61.9411 -45.1144,61.2134 Z M-45.1144,72.7764 C-45.1144,72.0487 -45.7043,71.4588 -46.432,71.4588 C-47.1596,71.4588 -47.7495,72.0487 -47.7495,72.7764 C-47.7495,73.504 -47.1596,74.0939 -46.432,74.0939 C-45.7043,74.0939 -45.1144,73.504 -45.1144,72.7764 Z M-46.432,85.6569 C-45.7043,85.6569 -45.1144,85.067 -45.1144,84.3393 C-45.1144,83.6117 -45.7043,83.0218 -46.432,83.0218 C-47.1596,83.0218 -47.7495,83.6117 -47.7495,84.3393 C-47.7495,85.067 -47.1596,85.6569 -46.432,85.6569 Z M-46.432,97.1876 C-45.7043,97.1876 -45.1144,96.5977 -45.1144,95.8701 C-45.1144,95.1424 -45.7043,94.5525 -46.432,94.5525 C-47.1596,94.5525 -47.7495,95.1424 -47.7495,95.8701 C-47.7495,96.5977 -47.1596,97.1876 -46.432,97.1876 Z M-45.1144,107.465 C-45.1144,106.738 -45.7043,106.148 -46.432,106.148 C-47.1596,106.148 -47.7495,106.738 -47.7495,107.465 C-47.7495,108.193 -47.1596,108.783 -46.432,108.783 C-45.7043,108.783 -45.1144,108.193 -45.1144,107.465 Z M-45.1144,119.028 C-45.1144,118.301 -45.7043,117.711 -46.432,117.711 C-47.1596,117.711 -47.7495,118.301 -47.7495,119.028 C-47.7495,119.756 -47.1596,120.346 -46.432,120.346 C-45.7043,120.346 -45.1144,119.756 -45.1144,119.028 Z M-46.432,131.909 C-45.7043,131.909 -45.1144,131.319 -45.1144,130.591 C-45.1144,129.864 -45.7043,129.274 -46.432,129.274 C-47.1596,129.274 -47.7495,129.864 -47.7495,130.591 C-47.7495,131.319 -47.1596,131.909 -46.432,131.909 Z M-46.432,143.472 C-45.7043,143.472 -45.1144,142.882 -45.1144,142.154 C-45.1144,141.427 -45.7043,140.837 -46.432,140.837 C-47.1596,140.837 -47.7495,141.427 -47.7495,142.154 C-47.7495,142.882 -47.1596,143.472 -46.432,143.472 Z M-46.432,50.968 C-45.7043,50.968 -45.1144,50.3781 -45.1144,49.6504 C-45.1144,48.9227 -45.7043,48.3329 -46.432,48.3329 C-47.1596,48.3329 -47.7495,48.9227 -47.7495,49.6504 C-47.7495,50.3781 -47.1596,50.968 -46.432,50.968 Z M-21.9885,38.0875 C-21.9885,37.3598 -22.5783,36.7699 -23.3061,36.7699 C-24.0337,36.7699 -24.6235,37.3598 -24.6235,38.0875 C-24.6235,38.8151 -24.0337,39.405 -23.3061,39.405 C-22.5783,39.405 -21.9885,38.8151 -21.9885,38.0875 Z M-21.9885,61.2134 C-21.9885,60.4857 -22.5783,59.8959 -23.3061,59.8959 C-24.0337,59.8959 -24.6235,60.4857 -24.6235,61.2134 C-24.6235,61.9411 -24.0337,62.5309 -23.3061,62.5309 C-22.5783,62.5309 -21.9885,61.9411 -21.9885,61.2134 Z M-21.9885,72.7764 C-21.9885,72.0487 -22.5783,71.4588 -23.3061,71.4588 C-24.0337,71.4588 -24.6235,72.0487 -24.6235,72.7764 C-24.6235,73.504 -24.0337,74.0939 -23.3061,74.0939 C-22.5783,74.0939 -21.9885,73.504 -21.9885,72.7764 Z M-21.9885,84.3393 C-21.9885,83.6117 -22.5783,83.0218 -23.3061,83.0218 C-24.0337,83.0218 -24.6235,83.6117 -24.6235,84.3393 C-24.6235,85.067 -24.0337,85.6569 -23.3061,85.6569 C-22.5783,85.6569 -21.9885,85.067 -21.9885,84.3393 Z M-21.9885,95.8701 C-21.9885,95.1424 -22.5783,94.5525 -23.3061,94.5525 C-24.0337,94.5525 -24.6235,95.1424 -24.6235,95.8701 C-24.6235,96.5977 -24.0337,97.1876 -23.3061,97.1876 C-22.5783,97.1876 -21.9885,96.5977 -21.9885,95.8701 Z M-21.9885,107.465 C-21.9885,106.738 -22.5783,106.148 -23.3061,106.148 C-24.0337,106.148 -24.6235,106.738 -24.6235,107.465 C-24.6235,108.193 -24.0337,108.783 -23.3061,108.783 C-22.5783,108.783 -21.9885,108.193 -21.9885,107.465 Z M-21.9885,119.028 C-21.9885,118.301 -22.5783,117.711 -23.3061,117.711 C-24.0337,117.711 -24.6235,118.301 -24.6235,119.028 C-24.6235,119.756 -24.0337,120.346 -23.3061,120.346 C-22.5783,120.346 -21.9885,119.756 -21.9885,119.028 Z M-21.9885,130.591 C-21.9885,129.864 -22.5783,129.274 -23.3061,129.274 C-24.0337,129.274 -24.6235,129.864 -24.6235,130.591 C-24.6235,131.319 -24.0337,131.909 -23.3061,131.909 C-22.5783,131.909 -21.9885,131.319 -21.9885,130.591 Z M-21.9885,142.154 C-21.9885,141.427 -22.5783,140.837 -23.3061,140.837 C-24.0337,140.837 -24.6235,141.427 -24.6235,142.154 C-24.6235,142.882 -24.0337,143.472 -23.3061,143.472 C-22.5783,143.472 -21.9885,142.882 -21.9885,142.154 Z M-21.9885,49.6504 C-21.9885,48.9228 -22.5783,48.3329 -23.3061,48.3329 C-24.0337,48.3329 -24.6235,48.9228 -24.6235,49.6504 C-24.6235,50.3781 -24.0337,50.968 -23.3061,50.968 C-22.5783,50.968 -21.9885,50.3781 -21.9885,49.6504 Z M-0.180077,39.405 C0.547587,39.405 1.13748,38.8151 1.13748,38.0875 C1.13748,37.3598 0.547587,36.7699 -0.180077,36.7699 C-0.907742,36.7699 -1.49763,37.3598 -1.49763,38.0875 C-1.49763,38.8151 -0.907742,39.405 -0.180077,39.405 Z M1.13748,61.2134 C1.13748,60.4857 0.547563,59.8959 -0.180077,59.8959 C-0.907718,59.8959 -1.49763,60.4857 -1.49763,61.2134 C-1.49763,61.9411 -0.907718,62.5309 -0.180077,62.5309 C0.547563,62.5309 1.13748,61.9411 1.13748,61.2134 Z M1.13748,72.7764 C1.13748,72.0487 0.547563,71.4588 -0.180077,71.4588 C-0.907718,71.4588 -1.49763,72.0487 -1.49763,72.7764 C-1.49763,73.504 -0.907718,74.0939 -0.180077,74.0939 C0.547563,74.0939 1.13748,73.504 1.13748,72.7764 Z M-0.180077,85.6569 C0.547587,85.6569 1.13748,85.067 1.13748,84.3393 C1.13748,83.6117 0.547587,83.0218 -0.180077,83.0218 C-0.907742,83.0218 -1.49763,83.6117 -1.49763,84.3393 C-1.49763,85.067 -0.907742,85.6569 -0.180077,85.6569 Z M-0.180077,97.1876 C0.547587,97.1876 1.13748,96.5977 1.13748,95.8701 C1.13748,95.1424 0.547587,94.5525 -0.180077,94.5525 C-0.907742,94.5525 -1.49763,95.1424 -1.49763,95.8701 C-1.49763,96.5977 -0.907742,97.1876 -0.180077,97.1876 Z M1.13748,107.465 C1.13748,106.738 0.547563,106.148 -0.180077,106.148 C-0.907718,106.148 -1.49763,106.738 -1.49763,107.465 C-1.49763,108.193 -0.907718,108.783 -0.180077,108.783 C0.547563,108.783 1.13748,108.193 1.13748,107.465 Z M1.13748,119.028 C1.13748,118.301 0.547563,117.711 -0.180077,117.711 C-0.907718,117.711 -1.49763,118.301 -1.49763,119.028 C-1.49763,119.756 -0.907718,120.346 -0.180077,120.346 C0.547563,120.346 1.13748,119.756 1.13748,119.028 Z M-0.180077,131.909 C0.547587,131.909 1.13748,131.319 1.13748,130.591 C1.13748,129.864 0.547587,129.274 -0.180077,129.274 C-0.907742,129.274 -1.49763,129.864 -1.49763,130.591 C-1.49763,131.319 -0.907742,131.909 -0.180077,131.909 Z M-0.180077,143.472 C0.547587,143.472 1.13748,142.882 1.13748,142.154 C1.13748,141.427 0.547587,140.837 -0.180077,140.837 C-0.907742,140.837 -1.49763,141.427 -1.49763,142.154 C-1.49763,142.882 -0.907742,143.472 -0.180077,143.472 Z M-0.180077,50.968 C0.547587,50.968 1.13748,50.3781 1.13748,49.6504 C1.13748,48.9227 0.547587,48.3329 -0.180077,48.3329 C-0.907742,48.3329 -1.49763,48.9227 -1.49763,49.6504 C-1.49763,50.3781 -0.907742,50.968 -0.180077,50.968 Z M-56.6774,147.936 C-56.6774,147.208 -57.2673,146.618 -57.9949,146.618 C-58.7226,146.618 -59.3125,147.208 -59.3125,147.936 C-59.3125,148.663 -58.7226,149.253 -57.9949,149.253 C-57.2673,149.253 -56.6774,148.663 -56.6774,147.936 Z M-56.6774,136.373 C-56.6774,135.645 -57.2673,135.055 -57.9949,135.055 C-58.7226,135.055 -59.3125,135.645 -59.3125,136.373 C-59.3125,137.1 -58.7226,137.69 -57.9949,137.69 C-57.2673,137.69 -56.6774,137.1 -56.6774,136.373 Z M-56.6774,124.81 C-56.6774,124.082 -57.2673,123.492 -57.9949,123.492 C-58.7226,123.492 -59.3125,124.082 -59.3125,124.81 C-59.3125,125.537 -58.7226,126.127 -57.9949,126.127 C-57.2673,126.127 -56.6774,125.537 -56.6774,124.81 Z M-56.6774,113.247 C-56.6774,112.519 -57.2673,111.929 -57.9949,111.929 C-58.7226,111.929 -59.3125,112.519 -59.3125,113.247 C-59.3125,113.974 -58.7226,114.564 -57.9949,114.564 C-57.2673,114.564 -56.6774,113.974 -56.6774,113.247 Z M-56.6774,101.684 C-56.6774,100.956 -57.2673,100.366 -57.9949,100.366 C-58.7226,100.366 -59.3125,100.956 -59.3125,101.684 C-59.3125,102.411 -58.7226,103.001 -57.9949,103.001 C-57.2673,103.001 -56.6774,102.411 -56.6774,101.684 Z M-56.6774,90.1208 C-56.6774,89.3932 -57.2673,88.8033 -57.9949,88.8033 C-58.7226,88.8033 -59.3125,89.3932 -59.3125,90.1208 C-59.3125,90.8485 -58.7226,91.4384 -57.9949,91.4384 C-57.2673,91.4384 -56.6774,90.8485 -56.6774,90.1208 Z M-56.6774,78.5579 C-56.6774,77.8302 -57.2673,77.2403 -57.9949,77.2403 C-58.7226,77.2403 -59.3125,77.8302 -59.3125,78.5579 C-59.3125,79.2855 -58.7226,79.8754 -57.9949,79.8754 C-57.2673,79.8754 -56.6774,79.2855 -56.6774,78.5579 Z M-56.6774,66.9949 C-56.6774,66.2672 -57.2673,65.6774 -57.9949,65.6774 C-58.7226,65.6774 -59.3125,66.2672 -59.3125,66.9949 C-59.3125,67.7226 -58.7226,68.3124 -57.9949,68.3124 C-57.2673,68.3124 -56.6774,67.7226 -56.6774,66.9949 Z M-56.6774,55.4319 C-56.6774,54.7042 -57.2673,54.1144 -57.9949,54.1144 C-58.7226,54.1144 -59.3125,54.7042 -59.3125,55.4319 C-59.3125,56.1595 -58.7226,56.7494 -57.9949,56.7494 C-57.2673,56.7494 -56.6774,56.1595 -56.6774,55.4319 Z M-56.6774,43.8689 C-56.6774,43.1413 -57.2673,42.5514 -57.9949,42.5514 C-58.7226,42.5514 -59.3125,43.1413 -59.3125,43.8689 C-59.3125,44.5966 -58.7226,45.1865 -57.9949,45.1865 C-57.2673,45.1865 -56.6774,44.5966 -56.6774,43.8689 Z M-56.6774,32.306 C-56.6774,31.5783 -57.2673,30.9884 -57.9949,30.9884 C-58.7226,30.9884 -59.3125,31.5783 -59.3125,32.306 C-59.3125,33.0336 -58.7226,33.6235 -57.9949,33.6235 C-57.2673,33.6235 -56.6774,33.0336 -56.6774,32.306 Z M-34.869,149.253 C-34.1413,149.253 -33.5515,148.663 -33.5515,147.936 C-33.5515,147.208 -34.1413,146.618 -34.869,146.618 C-35.5967,146.618 -36.1866,147.208 -36.1866,147.936 C-36.1866,148.663 -35.5967,149.253 -34.869,149.253 Z M-34.869,137.69 C-34.1413,137.69 -33.5515,137.1 -33.5515,136.373 C-33.5515,135.645 -34.1413,135.055 -34.869,135.055 C-35.5967,135.055 -36.1866,135.645 -36.1866,136.373 C-36.1866,137.1 -35.5967,137.69 -34.869,137.69 Z M-34.869,126.127 C-34.1413,126.127 -33.5515,125.537 -33.5515,124.81 C-33.5515,124.082 -34.1413,123.492 -34.869,123.492 C-35.5967,123.492 -36.1866,124.082 -36.1866,124.81 C-36.1866,125.537 -35.5967,126.127 -34.869,126.127 Z M-33.5515,113.247 C-33.5515,112.519 -34.1414,111.929 -34.869,111.929 C-35.5966,111.929 -36.1866,112.519 -36.1866,113.247 C-36.1866,113.974 -35.5966,114.564 -34.869,114.564 C-34.1414,114.564 -33.5515,113.974 -33.5515,113.247 Z M-34.869,103.001 C-34.1413,103.001 -33.5515,102.411 -33.5515,101.684 C-33.5515,100.956 -34.1413,100.366 -34.869,100.366 C-35.5967,100.366 -36.1866,100.956 -36.1866,101.684 C-36.1866,102.411 -35.5967,103.001 -34.869,103.001 Z M-34.869,91.4384 C-34.1413,91.4384 -33.5515,90.8485 -33.5515,90.1208 C-33.5515,89.3932 -34.1413,88.8033 -34.869,88.8033 C-35.5967,88.8033 -36.1866,89.3932 -36.1866,90.1208 C-36.1866,90.8485 -35.5967,91.4384 -34.869,91.4384 Z M-34.869,79.8754 C-34.1413,79.8754 -33.5515,79.2855 -33.5515,78.5579 C-33.5515,77.8302 -34.1413,77.2403 -34.869,77.2403 C-35.5967,77.2403 -36.1866,77.8302 -36.1866,78.5579 C-36.1866,79.2855 -35.5967,79.8754 -34.869,79.8754 Z M-33.5515,66.9949 C-33.5515,66.2672 -34.1414,65.6774 -34.869,65.6774 C-35.5966,65.6774 -36.1866,66.2672 -36.1866,66.9949 C-36.1866,67.7226 -35.5966,68.3124 -34.869,68.3124 C-34.1414,68.3124 -33.5515,67.7226 -33.5515,66.9949 Z M-33.5515,55.4319 C-33.5515,54.7042 -34.1414,54.1144 -34.869,54.1144 C-35.5966,54.1144 -36.1866,54.7042 -36.1866,55.4319 C-36.1866,56.1595 -35.5966,56.7494 -34.869,56.7494 C-34.1414,56.7494 -33.5515,56.1595 -33.5515,55.4319 Z M-34.869,45.1865 C-34.1413,45.1865 -33.5515,44.5966 -33.5515,43.8689 C-33.5515,43.1413 -34.1413,42.5514 -34.869,42.5514 C-35.5967,42.5514 -36.1866,43.1413 -36.1866,43.8689 C-36.1866,44.5966 -35.5967,45.1865 -34.869,45.1865 Z M-34.869,33.6235 C-34.1413,33.6235 -33.5515,33.0336 -33.5515,32.306 C-33.5515,31.5783 -34.1413,30.9884 -34.869,30.9884 C-35.5967,30.9884 -36.1866,31.5783 -36.1866,32.306 C-36.1866,33.0336 -35.5967,33.6235 -34.869,33.6235 Z M-10.4255,147.936 C-10.4255,147.208 -11.0154,146.618 -11.743,146.618 C-12.4707,146.618 -13.0606,147.208 -13.0606,147.936 C-13.0606,148.663 -12.4707,149.253 -11.743,149.253 C-11.0154,149.253 -10.4255,148.663 -10.4255,147.936 Z M-10.4255,136.373 C-10.4255,135.645 -11.0154,135.055 -11.743,135.055 C-12.4707,135.055 -13.0606,135.645 -13.0606,136.373 C-13.0606,137.1 -12.4707,137.69 -11.743,137.69 C-11.0154,137.69 -10.4255,137.1 -10.4255,136.373 Z M-10.4255,124.81 C-10.4255,124.082 -11.0154,123.492 -11.743,123.492 C-12.4707,123.492 -13.0606,124.082 -13.0606,124.81 C-13.0606,125.537 -12.4707,126.127 -11.743,126.127 C-11.0154,126.127 -10.4255,125.537 -10.4255,124.81 Z M-10.4255,113.247 C-10.4255,112.519 -11.0154,111.929 -11.743,111.929 C-12.4707,111.929 -13.0606,112.519 -13.0606,113.247 C-13.0606,113.974 -12.4707,114.564 -11.743,114.564 C-11.0154,114.564 -10.4255,113.974 -10.4255,113.247 Z M-10.4255,101.684 C-10.4255,100.956 -11.0154,100.366 -11.743,100.366 C-12.4707,100.366 -13.0606,100.956 -13.0606,101.684 C-13.0606,102.411 -12.4707,103.001 -11.743,103.001 C-11.0154,103.001 -10.4255,102.411 -10.4255,101.684 Z M-10.4255,90.1208 C-10.4255,89.3932 -11.0154,88.8033 -11.743,88.8033 C-12.4707,88.8033 -13.0606,89.3932 -13.0606,90.1208 C-13.0606,90.8485 -12.4707,91.4384 -11.743,91.4384 C-11.0154,91.4384 -10.4255,90.8485 -10.4255,90.1208 Z M-10.4255,78.5579 C-10.4255,77.8302 -11.0154,77.2403 -11.743,77.2403 C-12.4707,77.2403 -13.0606,77.8302 -13.0606,78.5579 C-13.0606,79.2855 -12.4707,79.8754 -11.743,79.8754 C-11.0154,79.8754 -10.4255,79.2855 -10.4255,78.5579 Z M-10.4255,66.9949 C-10.4255,66.2672 -11.0154,65.6774 -11.743,65.6774 C-12.4707,65.6774 -13.0606,66.2672 -13.0606,66.9949 C-13.0606,67.7226 -12.4707,68.3124 -11.743,68.3124 C-11.0154,68.3124 -10.4255,67.7226 -10.4255,66.9949 Z M-10.4255,55.4319 C-10.4255,54.7042 -11.0154,54.1144 -11.743,54.1144 C-12.4707,54.1144 -13.0606,54.7042 -13.0606,55.4319 C-13.0606,56.1595 -12.4707,56.7494 -11.743,56.7494 C-11.0154,56.7494 -10.4255,56.1595 -10.4255,55.4319 Z M-10.4255,43.8689 C-10.4255,43.1413 -11.0154,42.5514 -11.743,42.5514 C-12.4707,42.5514 -13.0606,43.1413 -13.0606,43.8689 C-13.0606,44.5966 -12.4707,45.1865 -11.743,45.1865 C-11.0154,45.1865 -10.4255,44.5966 -10.4255,43.8689 Z M-10.4255,32.306 C-10.4255,31.5783 -11.0154,30.9884 -11.743,30.9884 C-12.4707,30.9884 -13.0606,31.5783 -13.0606,32.306 C-13.0606,33.0336 -12.4707,33.6235 -11.743,33.6235 C-11.0154,33.6235 -10.4255,33.0336 -10.4255,32.306 Z M11.3829,149.253 C12.1105,149.253 12.7004,148.663 12.7004,147.936 C12.7004,147.208 12.1105,146.618 11.3829,146.618 C10.6552,146.618 10.0653,147.208 10.0653,147.936 C10.0653,148.663 10.6552,149.253 11.3829,149.253 Z M11.3829,137.69 C12.1105,137.69 12.7004,137.1 12.7004,136.373 C12.7004,135.645 12.1105,135.055 11.3829,135.055 C10.6552,135.055 10.0653,135.645 10.0653,136.373 C10.0653,137.1 10.6552,137.69 11.3829,137.69 Z M11.3829,126.127 C12.1105,126.127 12.7004,125.537 12.7004,124.81 C12.7004,124.082 12.1105,123.492 11.3829,123.492 C10.6552,123.492 10.0653,124.082 10.0653,124.81 C10.0653,125.537 10.6552,126.127 11.3829,126.127 Z M12.7004,113.247 C12.7004,112.519 12.1105,111.929 11.3829,111.929 C10.6552,111.929 10.0653,112.519 10.0653,113.247 C10.0653,113.974 10.6552,114.564 11.3829,114.564 C12.1105,114.564 12.7004,113.974 12.7004,113.247 Z M11.3829,103.001 C12.1105,103.001 12.7004,102.411 12.7004,101.684 C12.7004,100.956 12.1105,100.366 11.3829,100.366 C10.6552,100.366 10.0653,100.956 10.0653,101.684 C10.0653,102.411 10.6552,103.001 11.3829,103.001 Z M11.3829,91.4384 C12.1105,91.4384 12.7004,90.8485 12.7004,90.1208 C12.7004,89.3932 12.1105,88.8033 11.3829,88.8033 C10.6552,88.8033 10.0653,89.3932 10.0653,90.1208 C10.0653,90.8485 10.6552,91.4384 11.3829,91.4384 Z M11.3829,79.8754 C12.1105,79.8754 12.7004,79.2855 12.7004,78.5579 C12.7004,77.8302 12.1105,77.2403 11.3829,77.2403 C10.6552,77.2403 10.0653,77.8302 10.0653,78.5579 C10.0653,79.2855 10.6552,79.8754 11.3829,79.8754 Z M12.7004,66.9949 C12.7004,66.2672 12.1105,65.6774 11.3829,65.6774 C10.6552,65.6774 10.0653,66.2672 10.0653,66.9949 C10.0653,67.7226 10.6552,68.3124 11.3829,68.3124 C12.1105,68.3124 12.7004,67.7226 12.7004,66.9949 Z M12.7004,55.4319 C12.7004,54.7042 12.1105,54.1144 11.3829,54.1144 C10.6552,54.1144 10.0653,54.7042 10.0653,55.4319 C10.0653,56.1595 10.6552,56.7494 11.3829,56.7494 C12.1105,56.7494 12.7004,56.1595 12.7004,55.4319 Z M11.3829,45.1865 C12.1105,45.1865 12.7004,44.5966 12.7004,43.8689 C12.7004,43.1413 12.1105,42.5514 11.3829,42.5514 C10.6552,42.5514 10.0653,43.1413 10.0653,43.8689 C10.0653,44.5966 10.6552,45.1865 11.3829,45.1865 Z M11.3829,33.6235 C12.1105,33.6235 12.7004,33.0336 12.7004,32.306 C12.7004,31.5783 12.1105,30.9884 11.3829,30.9884 C10.6552,30.9884 10.0653,31.5783 10.0653,32.306 C10.0653,33.0336 10.6552,33.6235 11.3829,33.6235 Z M22.941,39.405 C23.6687,39.405 24.2585,38.8151 24.2585,38.0875 C24.2585,37.3598 23.6687,36.7699 22.941,36.7699 C22.2133,36.7699 21.6234,37.3598 21.6234,38.0875 C21.6234,38.8151 22.2133,39.405 22.941,39.405 Z M24.2585,61.2134 C24.2585,60.4857 23.6686,59.8959 22.941,59.8959 C22.2133,59.8959 21.6234,60.4857 21.6234,61.2134 C21.6234,61.9411 22.2133,62.5309 22.941,62.5309 C23.6686,62.5309 24.2585,61.9411 24.2585,61.2134 Z M24.2585,72.7764 C24.2585,72.0487 23.6686,71.4588 22.941,71.4588 C22.2133,71.4588 21.6234,72.0487 21.6234,72.7764 C21.6234,73.504 22.2133,74.0939 22.941,74.0939 C23.6686,74.0939 24.2585,73.504 24.2585,72.7764 Z M22.941,85.6569 C23.6687,85.6569 24.2585,85.067 24.2585,84.3393 C24.2585,83.6117 23.6687,83.0218 22.941,83.0218 C22.2133,83.0218 21.6234,83.6117 21.6234,84.3393 C21.6234,85.067 22.2133,85.6569 22.941,85.6569 Z M22.941,97.1876 C23.6687,97.1876 24.2585,96.5977 24.2585,95.8701 C24.2585,95.1424 23.6687,94.5525 22.941,94.5525 C22.2133,94.5525 21.6234,95.1424 21.6234,95.8701 C21.6234,96.5977 22.2133,97.1876 22.941,97.1876 Z M24.2585,107.465 C24.2585,106.738 23.6686,106.148 22.941,106.148 C22.2133,106.148 21.6234,106.738 21.6234,107.465 C21.6234,108.193 22.2133,108.783 22.941,108.783 C23.6686,108.783 24.2585,108.193 24.2585,107.465 Z M24.2585,119.028 C24.2585,118.301 23.6686,117.711 22.941,117.711 C22.2133,117.711 21.6234,118.301 21.6234,119.028 C21.6234,119.756 22.2133,120.346 22.941,120.346 C23.6686,120.346 24.2585,119.756 24.2585,119.028 Z M22.941,131.909 C23.6687,131.909 24.2585,131.319 24.2585,130.591 C24.2585,129.864 23.6687,129.274 22.941,129.274 C22.2133,129.274 21.6234,129.864 21.6234,130.591 C21.6234,131.319 22.2133,131.909 22.941,131.909 Z M22.941,143.472 C23.6687,143.472 24.2585,142.882 24.2585,142.154 C24.2585,141.427 23.6687,140.837 22.941,140.837 C22.2133,140.837 21.6234,141.427 21.6234,142.154 C21.6234,142.882 22.2133,143.472 22.941,143.472 Z M22.941,50.968 C23.6687,50.968 24.2585,50.3781 24.2585,49.6504 C24.2585,48.9227 23.6687,48.3329 22.941,48.3329 C22.2133,48.3329 21.6234,48.9227 21.6234,49.6504 C21.6234,50.3781 22.2133,50.968 22.941,50.968 Z M46.0669,39.405 C46.7946,39.405 47.3844,38.8151 47.3844,38.0875 C47.3844,37.3598 46.7946,36.7699 46.0669,36.7699 C45.3392,36.7699 44.7493,37.3598 44.7493,38.0875 C44.7493,38.8151 45.3392,39.405 46.0669,39.405 Z M47.3844,61.2134 C47.3844,60.4857 46.7945,59.8959 46.0669,59.8959 C45.3393,59.8959 44.7493,60.4857 44.7493,61.2134 C44.7493,61.9411 45.3393,62.5309 46.0669,62.5309 C46.7945,62.5309 47.3844,61.9411 47.3844,61.2134 Z M47.3844,72.7764 C47.3844,72.0487 46.7945,71.4588 46.0669,71.4588 C45.3393,71.4588 44.7493,72.0487 44.7493,72.7764 C44.7493,73.504 45.3393,74.0939 46.0669,74.0939 C46.7945,74.0939 47.3844,73.504 47.3844,72.7764 Z M46.0669,85.6569 C46.7946,85.6569 47.3844,85.067 47.3844,84.3393 C47.3844,83.6117 46.7946,83.0218 46.0669,83.0218 C45.3392,83.0218 44.7493,83.6117 44.7493,84.3393 C44.7493,85.067 45.3392,85.6569 46.0669,85.6569 Z M46.0669,97.1876 C46.7946,97.1876 47.3844,96.5977 47.3844,95.8701 C47.3844,95.1424 46.7946,94.5525 46.0669,94.5525 C45.3392,94.5525 44.7493,95.1424 44.7493,95.8701 C44.7493,96.5977 45.3392,97.1876 46.0669,97.1876 Z M47.3844,107.465 C47.3844,106.738 46.7945,106.148 46.0669,106.148 C45.3393,106.148 44.7493,106.738 44.7493,107.465 C44.7493,108.193 45.3393,108.783 46.0669,108.783 C46.7945,108.783 47.3844,108.193 47.3844,107.465 Z M47.3844,119.028 C47.3844,118.301 46.7945,117.711 46.0669,117.711 C45.3393,117.711 44.7493,118.301 44.7493,119.028 C44.7493,119.756 45.3393,120.346 46.0669,120.346 C46.7945,120.346 47.3844,119.756 47.3844,119.028 Z M46.0669,131.909 C46.7946,131.909 47.3844,131.319 47.3844,130.591 C47.3844,129.864 46.7946,129.274 46.0669,129.274 C45.3392,129.274 44.7493,129.864 44.7493,130.591 C44.7493,131.319 45.3392,131.909 46.0669,131.909 Z M46.0669,143.472 C46.7946,143.472 47.3844,142.882 47.3844,142.154 C47.3844,141.427 46.7946,140.837 46.0669,140.837 C45.3392,140.837 44.7493,141.427 44.7493,142.154 C44.7493,142.882 45.3392,143.472 46.0669,143.472 Z M46.0669,50.968 C46.7946,50.968 47.3844,50.3781 47.3844,49.6504 C47.3844,48.9227 46.7946,48.3329 46.0669,48.3329 C45.3392,48.3329 44.7493,48.9227 44.7493,49.6504 C44.7493,50.3781 45.3392,50.968 46.0669,50.968 Z M34.5039,149.253 C35.2316,149.253 35.8215,148.663 35.8215,147.936 C35.8215,147.208 35.2316,146.618 34.5039,146.618 C33.7763,146.618 33.1864,147.208 33.1864,147.936 C33.1864,148.663 33.7763,149.253 34.5039,149.253 Z M34.5039,137.69 C35.2316,137.69 35.8215,137.1 35.8215,136.373 C35.8215,135.645 35.2316,135.055 34.5039,135.055 C33.7763,135.055 33.1864,135.645 33.1864,136.373 C33.1864,137.1 33.7763,137.69 34.5039,137.69 Z M34.5039,126.127 C35.2316,126.127 35.8215,125.537 35.8215,124.81 C35.8215,124.082 35.2316,123.492 34.5039,123.492 C33.7763,123.492 33.1864,124.082 33.1864,124.81 C33.1864,125.537 33.7763,126.127 34.5039,126.127 Z M35.8215,113.247 C35.8215,112.519 35.2316,111.929 34.5039,111.929 C33.7763,111.929 33.1864,112.519 33.1864,113.247 C33.1864,113.974 33.7763,114.564 34.5039,114.564 C35.2316,114.564 35.8215,113.974 35.8215,113.247 Z M34.5039,103.001 C35.2316,103.001 35.8215,102.411 35.8215,101.684 C35.8215,100.956 35.2316,100.366 34.5039,100.366 C33.7763,100.366 33.1864,100.956 33.1864,101.684 C33.1864,102.411 33.7763,103.001 34.5039,103.001 Z M34.5039,91.4384 C35.2316,91.4384 35.8215,90.8485 35.8215,90.1208 C35.8215,89.3932 35.2316,88.8033 34.5039,88.8033 C33.7763,88.8033 33.1864,89.3932 33.1864,90.1208 C33.1864,90.8485 33.7763,91.4384 34.5039,91.4384 Z M34.5039,79.8754 C35.2316,79.8754 35.8215,79.2855 35.8215,78.5579 C35.8215,77.8302 35.2316,77.2403 34.5039,77.2403 C33.7763,77.2403 33.1864,77.8302 33.1864,78.5579 C33.1864,79.2855 33.7763,79.8754 34.5039,79.8754 Z M35.8215,66.9949 C35.8215,66.2672 35.2316,65.6774 34.5039,65.6774 C33.7763,65.6774 33.1864,66.2672 33.1864,66.9949 C33.1864,67.7226 33.7763,68.3124 34.5039,68.3124 C35.2316,68.3124 35.8215,67.7226 35.8215,66.9949 Z M35.8215,55.4319 C35.8215,54.7042 35.2316,54.1144 34.5039,54.1144 C33.7763,54.1144 33.1864,54.7042 33.1864,55.4319 C33.1864,56.1595 33.7763,56.7494 34.5039,56.7494 C35.2316,56.7494 35.8215,56.1595 35.8215,55.4319 Z M34.5039,45.1865 C35.2316,45.1865 35.8215,44.5966 35.8215,43.8689 C35.8215,43.1413 35.2316,42.5514 34.5039,42.5514 C33.7763,42.5514 33.1864,43.1413 33.1864,43.8689 C33.1864,44.5966 33.7763,45.1865 34.5039,45.1865 Z M34.5039,33.6235 C35.2316,33.6235 35.8215,33.0336 35.8215,32.306 C35.8215,31.5783 35.2316,30.9884 34.5039,30.9884 C33.7763,30.9884 33.1864,31.5783 33.1864,32.306 C33.1864,33.0336 33.7763,33.6235 34.5039,33.6235 Z M56.3124,147.936 C56.3124,148.663 56.9022,149.253 57.6299,149.253 C58.3576,149.253 58.9474,148.663 58.9474,147.936 C58.9474,147.208 58.3576,146.618 57.6299,146.618 C56.9022,146.618 56.3124,147.208 56.3124,147.936 Z M58.9474,136.373 C58.9474,135.645 58.3576,135.055 57.6299,135.055 C56.9022,135.055 56.3124,135.645 56.3124,136.373 C56.3124,137.1 56.9022,137.69 57.6299,137.69 C58.3576,137.69 58.9474,137.1 58.9474,136.373 Z M58.9474,124.81 C58.9474,124.082 58.3576,123.492 57.6299,123.492 C56.9022,123.492 56.3124,124.082 56.3124,124.81 C56.3124,125.537 56.9022,126.127 57.6299,126.127 C58.3576,126.127 58.9474,125.537 58.9474,124.81 Z M58.9474,113.247 C58.9474,112.519 58.3576,111.929 57.6299,111.929 C56.9022,111.929 56.3124,112.519 56.3124,113.247 C56.3124,113.974 56.9022,114.564 57.6299,114.564 C58.3576,114.564 58.9474,113.974 58.9474,113.247 Z M58.9474,101.684 C58.9474,100.956 58.3576,100.366 57.6299,100.366 C56.9022,100.366 56.3124,100.956 56.3124,101.684 C56.3124,102.411 56.9022,103.001 57.6299,103.001 C58.3576,103.001 58.9474,102.411 58.9474,101.684 Z M58.9474,90.1208 C58.9474,89.3932 58.3576,88.8033 57.6299,88.8033 C56.9022,88.8033 56.3124,89.3932 56.3124,90.1208 C56.3124,90.8485 56.9022,91.4384 57.6299,91.4384 C58.3576,91.4384 58.9474,90.8485 58.9474,90.1208 Z M58.9474,78.5579 C58.9474,77.8302 58.3576,77.2403 57.6299,77.2403 C56.9022,77.2403 56.3124,77.8302 56.3124,78.5579 C56.3124,79.2855 56.9022,79.8754 57.6299,79.8754 C58.3576,79.8754 58.9474,79.2855 58.9474,78.5579 Z M58.9474,66.9949 C58.9474,66.2672 58.3576,65.6774 57.6299,65.6774 C56.9022,65.6774 56.3124,66.2672 56.3124,66.9949 C56.3124,67.7226 56.9022,68.3124 57.6299,68.3124 C58.3576,68.3124 58.9474,67.7226 58.9474,66.9949 Z M58.9474,55.4319 C58.9474,54.7042 58.3576,54.1144 57.6299,54.1144 C56.9022,54.1144 56.3124,54.7042 56.3124,55.4319 C56.3124,56.1595 56.9022,56.7494 57.6299,56.7494 C58.3576,56.7494 58.9474,56.1595 58.9474,55.4319 Z M58.9474,43.8689 C58.9474,43.1413 58.3576,42.5514 57.6299,42.5514 C56.9022,42.5514 56.3124,43.1413 56.3124,43.8689 C56.3124,44.5966 56.9022,45.1865 57.6299,45.1865 C58.3576,45.1865 58.9474,44.5966 58.9474,43.8689 Z M58.9474,32.306 C58.9474,31.5783 58.3576,30.9884 57.6299,30.9884 C56.9022,30.9884 56.3124,31.5783 56.3124,32.306 C56.3124,33.0336 56.9022,33.6235 57.6299,33.6235 C58.3576,33.6235 58.9474,33.0336 58.9474,32.306 Z " fill="#ffffff" fill-opacity="1.00" />		</g>	</svg>