<?xml version="1.0" encoding="utf-8" ?>	<!-- Generator: Assembly 2.4 - http://assemblyapp.co -->	<svg version="1.1" xmlns="http://www.w3.org/2000/svg" xmlns:xlink="http://www.w3.org/1999/xlink" width="4096.00" height="4096.00" viewBox="0 0 4096.0 4096.0">		<g id="document" transform="scale(13.653333333333334 13.653333333333334) translate(150.0 150.0)">			<path d="M63.5628,149.253 C111.036,149.253 149.253,111.036 149.253,63.5628 L149.253,-63.9278 C149.253,-111.401 110.737,-149.618 63.5628,-149.618 L-63.9278,-149.618 C-111.401,-149.618 -149.618,-111.102 -149.618,-63.9278 L-149.618,63.5628 C-149.618,111.036 -111.102,149.253 -63.9278,149.253 L63.5628,149.253 Z " fill="#fbdd8f" fill-opacity="1.00" />			<path d="M-106.604,-114.865 L-99.718,-116.901 C-99.4645,-116.986 -99.1847,-117.027 -98.8787,-117.022 L-93.9299,-116.848 C-93.4805,-116.805 -93.0522,-117.113 -92.9632,-117.588 L-91.8488,-121.747 C-91.6951,-122.321 -91.4243,-122.901 -91.0292,-123.372 L-86.238,-129.35 C-86.0632,-129.572 -86.3379,-129.838 -86.5652,-129.707 L-92.1109,-126.505 C-92.52,-126.269 -93.0219,-126.403 -93.2581,-126.812 L-95.7078,-131.58 C-95.8128,-131.762 -96.0926,-131.722 -96.1502,-131.507 L-97.3863,-125.459 C-97.5138,-124.84 -98.026,-124.363 -98.6835,-124.347 L-106.76,-123.744 C-106.995,-123.73 -107.117,-123.417 -106.921,-123.288 L-103.425,-120.276 C-103.078,-119.991 -103.096,-119.496 -103.335,-119.176 L-106.885,-115.248 C-106.969,-115.078 -106.812,-114.805 -106.604,-114.865 Z M-83.3906,-127.358 C-84.2107,-127.308 -84.9905,-126.979 -85.5149,-126.313 L-88.2277,-122.928 C-88.9724,-122.014 -89.5403,-120.898 -89.8477,-119.751 L-90.597,-116.954 C-90.8468,-116.022 -91.4166,-115.329 -92.1894,-114.883 C-92.7349,-114.568 -93.3591,-114.39 -93.9974,-114.446 L-97.8847,-114.565 C-98.6139,-114.568 -99.3168,-114.526 -100.032,-114.295 L-104.909,-112.873 C-105.487,-112.721 -106.026,-112.289 -106.225,-111.689 C-108.834,-105.395 -108.684,-98.2079 -105.141,-92.0712 C-98.869,-81.207 -84.3487,-77.8927 -72.7117,-84.6113 C-61.0747,-91.3299 -56.7111,-105.607 -62.9573,-116.426 C-67.1373,-123.771 -75.0845,-127.668 -83.3906,-127.358 Z M-88.9415,-85.8476 C-89.0376,-85.4891 -89.3033,-85.2145 -89.576,-85.057 C-89.8942,-84.8733 -90.2912,-84.826 -90.6497,-84.922 C-95.5062,-86.3002 -99.5693,-89.3486 -102.036,-93.6215 C-104.057,-97.1217 -104.863,-101.142 -104.38,-105.239 C-104.286,-106.021 -103.611,-106.531 -102.829,-106.437 C-102.047,-106.343 -101.537,-105.668 -101.631,-104.887 C-102.032,-101.382 -101.378,-97.941 -99.6463,-94.9408 C-97.5467,-91.3042 -94.0975,-88.6893 -89.8863,-87.4841 C-89.1239,-87.3182 -88.7494,-86.5647 -88.9415,-85.8476 Z " fill="#fe772b" fill-opacity="1.00" />			<path d="M11.8938,80.2449 C11.4046,80.8427 11.5133,81.7123 12.0568,82.2014 C22.7087,91.6577 24.1761,107.962 15.1546,119.211 C6.13304,130.461 -10.1166,132.581 -21.6924,124.211 C-22.2902,123.776 -23.1597,123.885 -23.6488,124.483 C-24.1379,125.135 -24.0293,126.059 -23.3771,126.548 C-10.5513,135.787 7.383,133.504 17.3828,121.005 C27.3825,108.559 25.7521,90.5164 13.9589,80.0275 C13.3611,79.484 12.4372,79.5927 11.8938,80.2449 Z M13.3611,117.744 C21.5674,107.527 20.2631,92.7989 10.6981,84.1035 C10.1003,83.56 9.12209,83.6144 8.63297,84.2665 L-20.3337,120.407 C-20.8228,121.059 -20.7141,121.983 -20.062,122.472 C-9.51875,129.918 5.1548,127.961 13.3611,117.744 Z M-1.20374,121.113 C-1.91024,121.331 -2.67109,120.95 -2.99717,120.298 C-3.05152,120.19 -3.10586,120.027 -3.16021,119.863 C-3.3776,118.559 -3.05152,117.092 -2.77979,116.114 C-2.67109,115.679 -2.07328,115.57 -1.80155,115.951 C-1.20374,116.766 -0.442887,118.016 -0.171155,119.103 C0.0462311,119.972 -0.388541,120.896 -1.20374,121.113 Z M4.66568,93.9402 C5.04611,93.0707 5.75261,91.712 6.56781,90.9512 C7.21997,90.3533 8.1982,90.299 8.85036,90.8968 C9.39382,91.4403 9.44817,92.2555 9.06775,92.8533 C9.0134,92.962 8.90471,93.0707 8.74167,93.2337 C7.76343,94.0489 6.29608,94.538 5.31784,94.7554 C4.88307,94.8098 4.50264,94.375 4.66568,93.9402 Z M7.54604,98.7227 C7.11127,98.6683 6.89389,98.1249 7.21997,97.7988 C7.92647,97.0923 9.0134,96.1141 10.046,95.6249 C10.8612,95.2989 11.8394,95.5706 12.1655,96.3315 C12.4916,97.038 12.2742,97.7988 11.6764,98.2336 C11.5677,98.3423 11.459,98.3966 11.296,98.451 C10.1003,98.8857 8.52428,98.8314 7.54604,98.7227 Z M8.3069,103.233 C7.92647,103.016 7.92647,102.418 8.3069,102.255 C9.17644,101.82 10.5351,101.277 11.6764,101.168 C12.5459,101.114 13.3611,101.712 13.4698,102.581 C13.5242,103.342 13.035,103.994 12.3829,104.212 C12.2742,104.266 12.1111,104.266 11.9481,104.266 C10.5894,104.266 9.17644,103.668 8.3069,103.233 Z M10.4808,109.972 C9.23078,109.538 8.14386,108.505 7.43735,107.744 C7.11127,107.418 7.32866,106.875 7.76343,106.82 C8.74167,106.712 10.209,106.657 11.296,106.983 C12.1111,107.255 12.709,108.07 12.4916,108.885 C12.2742,109.592 11.622,110.081 10.9155,110.027 C10.8068,110.081 10.6981,110.027 10.4808,109.972 Z M5.75261,110.951 C6.73085,111.168 8.08951,111.657 9.0134,112.309 C9.7199,112.853 9.93729,113.831 9.44817,114.538 C9.0134,115.135 8.25255,115.353 7.60039,115.081 C7.4917,115.027 7.32866,114.972 7.21997,114.864 C6.24173,114.048 5.53522,112.69 5.1548,111.766 C4.93741,111.277 5.31784,110.842 5.75261,110.951 Z M2.43748,114.157 C3.25267,114.701 4.4483,115.624 5.04611,116.548 C5.53522,117.255 5.42653,118.287 4.72003,118.777 C4.12222,119.211 3.30702,119.103 2.76355,118.668 C2.65486,118.559 2.54617,118.45 2.49182,118.287 C1.83966,117.146 1.62228,115.624 1.62228,114.646 C1.56793,114.157 2.05705,113.885 2.43748,114.157 Z M-13.6491,119.266 C-14.3556,118.94 -14.6817,118.179 -14.5186,117.527 C-14.5186,117.418 -14.4643,117.255 -14.3556,117.092 C-13.7034,115.951 -12.5078,115.027 -11.6383,114.483 C-11.2578,114.211 -10.7687,114.538 -10.7687,114.972 C-10.8231,115.951 -11.0404,117.418 -11.5296,118.45 C-11.9643,119.211 -12.8882,119.646 -13.6491,119.266 Z M-8.97528,119.918 C-8.97528,119.809 -9.02963,119.646 -8.97528,119.429 C-8.7579,118.124 -7.9427,116.874 -7.34489,116.059 C-7.07316,115.679 -6.47535,115.787 -6.36665,116.222 C-6.09492,117.146 -5.76884,118.614 -5.93188,119.7 C-6.04057,120.57 -6.74708,121.276 -7.61662,121.222 C-8.37747,121.222 -8.92094,120.624 -8.97528,119.918 Z " fill="#ffa538" fill-opacity="1.00" />			<path d="M128.976,-2.45406 C116.146,-15.284 105.808,-15.8706 97.5237,-7.58606 C90.8155,-0.877804 99.7231,7.07679 104.745,6.30699 C105.442,6.19702 105.918,6.96682 105.588,7.58999 C103.316,11.549 98.5868,16.2044 93.4914,18.5138 C92.2084,19.0637 91.5853,20.4933 91.9518,21.8129 C93.2348,26.3218 96.7539,29.8409 96.7539,29.8409 C96.7539,29.8409 100.273,33.3599 104.782,34.6429 C106.101,35.0095 107.494,34.3497 108.081,33.1033 C110.354,27.9713 115.119,23.2059 119.078,20.9332 C119.665,20.5666 120.434,21.0431 120.324,21.7396 C119.811,26.5051 128.756,34.423 134.144,29.0344 C143.052,20.0534 141.366,9.93604 128.976,-2.45406 Z " fill="#fffbd4" fill-opacity="1.00" />			<path d="M-88.3353,17.7936 C-89.8245,15.2143 -119.552,-7.54315 -128.807,-2.19962 C-138.063,3.14391 -143.091,37.0664 -138.904,43.6177 C-133.644,51.9099 -104.457,46.0502 -91.4503,35.6412 C-90.2015,34.6505 -90.0212,32.8606 -90.9107,31.5534 C-101.357,16.6129 -121.241,3.54708 -125.812,1.93763 C-126.32,1.7588 -126.59,1.17327 -126.412,0.665421 C-126.233,0.157573 -125.647,-0.113048 -125.139,0.0657812 C-120.25,1.76074 -100.097,14.9413 -89.3079,30.3583 C-88.8486,31.0372 -87.7552,30.9454 -87.4617,30.169 C-84.4716,23.3178 -87.1089,19.9178 -88.3353,17.7936 Z M-130.583,43.1967 C-130.596,43.4068 -130.719,43.545 -130.871,43.6326 C-130.972,43.691 -131.022,43.7202 -131.153,43.728 C-131.443,43.6931 -131.69,43.4986 -131.684,43.1581 C-131.665,42.6075 -132.087,42.1096 -132.688,42.1195 C-132.949,42.1352 -133.231,42.2306 -133.404,42.398 C-133.628,42.5946 -133.968,42.5888 -134.165,42.3652 C-134.361,42.1415 -134.356,41.801 -134.132,41.6044 C-133.735,41.2405 -133.2,40.9991 -132.65,41.0183 C-132.099,41.0376 -131.562,41.267 -131.198,41.6638 C-130.805,42.1112 -130.564,42.6461 -130.583,43.1967 Z M-134.807,36.4645 C-134.956,37.0229 -135.324,37.4374 -135.779,37.7002 C-136.285,37.9922 -136.806,38.0235 -137.336,37.9245 C-137.495,37.8817 -137.662,37.7086 -137.7,37.5277 C-137.758,37.4265 -137.737,37.3467 -137.715,37.267 C-137.63,36.9479 -137.377,36.8019 -137.058,36.8874 C-136.499,37.037 -135.943,36.7158 -135.793,36.1574 C-135.729,35.9181 -135.774,35.6068 -135.891,35.4045 C-136.037,35.1516 -135.951,34.8325 -135.698,34.6865 C-135.446,34.5405 -135.126,34.626 -134.98,34.8789 C-134.768,35.3633 -134.657,35.906 -134.807,36.4645 Z M-97.7389,33.7424 C-97.7196,33.1918 -97.4902,32.6548 -97.0935,32.2908 C-96.6967,31.9269 -96.1617,31.6855 -95.6111,31.7047 C-95.401,31.7183 -95.2628,31.8408 -95.1752,31.9925 C-95.1168,32.0937 -95.0876,32.1443 -95.0798,32.2746 C-95.1147,32.5645 -95.3092,32.8117 -95.6497,32.8059 C-96.2003,32.7867 -96.669,33.2596 -96.6883,33.8102 C-96.6726,34.0709 -96.5772,34.353 -96.4099,34.5261 C-96.2133,34.7497 -96.219,35.0902 -96.4427,35.2868 C-96.6664,35.4834 -97.0068,35.4776 -97.2034,35.254 C-97.5966,34.8066 -97.7582,34.293 -97.7389,33.7424 Z M-105.457,28.0833 C-105.544,27.9316 -105.531,27.7215 -105.408,27.5833 C-105.336,27.4743 -105.286,27.4451 -105.185,27.3867 C-104.903,27.2913 -104.583,27.3768 -104.488,27.6589 C-104.276,28.1433 -103.659,28.394 -103.175,28.1818 C-102.893,28.0864 -102.749,27.8684 -102.634,27.5999 C-102.519,27.3314 -102.187,27.2068 -101.918,27.3215 C-101.65,27.4362 -101.525,27.7688 -101.64,28.0374 C-101.818,28.5452 -102.266,28.9383 -102.75,29.1506 C-103.235,29.3628 -103.836,29.3727 -104.344,29.1939 C-104.851,29.0151 -105.245,28.5677 -105.457,28.0833 Z M-104.135,35.2776 C-104.353,35.1337 -104.622,35.019 -104.853,35.0852 C-105.165,35.13 -105.412,34.9356 -105.457,34.6243 C-105.502,34.313 -105.307,34.0659 -104.996,34.021 C-104.424,33.9605 -103.865,34.1102 -103.48,34.4272 C-103.015,34.7655 -102.752,35.2207 -102.692,35.7927 C-102.631,36.3647 -102.781,36.9231 -103.098,37.3084 C-103.22,37.4466 -103.372,37.5342 -103.582,37.5206 C-103.662,37.4993 -103.742,37.4779 -103.851,37.4059 C-104.098,37.2115 -104.143,36.9002 -103.948,36.653 C-103.631,36.2677 -103.67,35.616 -104.135,35.2776 Z M-116.709,17.5867 C-115.622,22.6234 -113.196,29.045 -108.921,37.5009 C-108.088,39.1777 -108.832,41.1586 -110.612,41.5794 C-115.41,42.7307 -119.475,43.8644 -121.995,44.1726 C-123.269,44.3014 -124.561,43.6987 -125.204,42.586 C-127.765,38.2658 -131.387,28.4885 -130.692,18.7138 C-130.499,17.9958 -129.959,17.4139 -129.293,17.1647 C-126.827,16.4149 -121.665,15.6603 -118.702,15.7702 C-117.681,15.7874 -116.902,16.5518 -116.709,17.5867 Z " fill="#fffbd4" fill-opacity="1.00" />			<path d="M-43.7369,67.3722 C-56.9374,67.3722 -67.6509,78.0856 -67.6509,91.2862 C-67.6509,104.487 -56.9374,115.2 -43.7369,115.2 C-30.5363,115.2 -19.8229,104.487 -19.8229,91.2862 C-19.8229,78.0856 -30.5363,67.3722 -43.7369,67.3722 Z M-27.7145,79.5205 C-27.571,79.4726 -27.4753,79.4726 -27.3319,79.4726 C-27.0927,79.5205 -26.8536,79.664 -26.7579,79.9509 L-25.4666,83.2989 C-25.3231,83.6815 -25.5144,84.112 -25.897,84.2554 C-26.2796,84.3989 -26.7101,84.2076 -26.8536,83.825 L-28.1449,80.477 C-28.2884,80.0944 -28.0971,79.664 -27.7145,79.5205 Z M-34.0278,89.3252 L-32.6886,86.0251 C-32.5451,85.6425 -32.1147,85.4511 -31.732,85.6425 C-31.5886,85.6903 -31.4929,85.7859 -31.4451,85.8816 C-31.3016,86.0729 -31.2538,86.3599 -31.3494,86.599 L-32.6886,89.8992 C-32.8321,90.2818 -33.2625,90.4731 -33.6452,90.2818 C-34.0278,90.0905 -34.2191,89.66 -34.0278,89.3252 Z M-38.4758,79.2813 L-35.1278,77.99 C-34.7452,77.8465 -34.3148,78.0378 -34.1713,78.4204 C-34.1234,78.5639 -34.1234,78.6596 -34.1234,78.8031 C-34.1713,79.0422 -34.3148,79.2813 -34.6017,79.377 L-37.9497,80.6683 C-38.3323,80.8118 -38.7628,80.6205 -38.9062,80.2379 C-39.0497,79.8553 -38.8584,79.4248 -38.4758,79.2813 Z M-46.0326,72.2506 C-45.8413,71.868 -45.4109,71.7245 -45.0761,71.9158 L-41.8238,73.3985 C-41.4411,73.5898 -41.2977,74.0202 -41.489,74.355 C-41.5368,74.4985 -41.6324,74.5942 -41.7281,74.642 C-41.9194,74.7855 -42.2064,74.8333 -42.4455,74.6898 L-45.6978,73.2072 C-46.0326,73.0637 -46.1761,72.6332 -46.0326,72.2506 Z M-43.7369,85.0207 C-40.2933,85.0207 -37.4714,87.8426 -37.4714,91.2862 C-37.4714,94.7298 -40.2933,97.5516 -43.7369,97.5516 C-47.1805,97.5516 -50.0024,94.7298 -50.0024,91.2862 C-50.0024,87.8426 -47.1805,85.0207 -43.7369,85.0207 Z M-50.6241,78.3248 C-50.4806,78.2769 -50.385,78.2769 -50.2415,78.2769 C-50.0024,78.3248 -49.7632,78.4683 -49.6676,78.7552 L-48.424,82.1032 C-48.2805,82.4858 -48.4719,82.9163 -48.8545,83.0597 C-49.2371,83.2032 -49.6676,83.0119 -49.811,82.6293 L-51.0546,79.2813 C-51.1981,78.8987 -51.0067,78.4683 -50.6241,78.3248 Z M-59.4723,80.477 L-57.6548,77.416 C-57.4635,77.0812 -56.9852,76.9378 -56.6505,77.1769 C-56.5548,77.2247 -56.4591,77.3204 -56.3635,77.4639 C-56.22,77.703 -56.22,77.9421 -56.3635,78.1813 L-58.181,81.2423 C-58.3723,81.5771 -58.8505,81.7206 -59.1853,81.4814 C-59.568,81.2901 -59.6636,80.8118 -59.4723,80.477 Z M-60.7637,99.7517 C-60.8593,99.7996 -61.0028,99.8474 -61.1463,99.8474 C-61.3854,99.8474 -61.6246,99.7039 -61.7681,99.4648 L-63.5377,96.3559 C-63.729,96.0211 -63.6333,95.5429 -63.2507,95.3516 C-62.9159,95.1602 -62.4376,95.2559 -62.2463,95.6385 L-60.4767,98.7473 C-60.2854,99.0821 -60.4289,99.5604 -60.7637,99.7517 Z M-60.381,89.4687 C-60.4767,89.0861 -60.1897,88.7035 -59.8071,88.6078 L-56.3157,87.9382 C-55.933,87.8426 -55.5504,88.1295 -55.4548,88.5121 C-55.4069,88.6556 -55.4548,88.7513 -55.5026,88.8948 C-55.5982,89.1339 -55.7895,89.3252 -56.0765,89.373 L-59.568,90.0426 C-59.9506,90.1383 -60.3332,89.8992 -60.381,89.4687 Z M-43.7369,112.283 C-49.5719,112.283 -54.833,109.891 -58.6114,106.065 C-56.1243,105.922 -54.1156,103.817 -54.1156,101.282 L-54.1156,97.8386 L-54.1156,97.7908 C-54.1156,96.3559 -53.4938,95.0646 -52.4416,94.1559 C-51.2937,97.5995 -48.2327,100.134 -44.55,100.469 L-44.55,105.252 C-44.55,107.883 -42.3977,110.035 -39.7672,110.035 C-37.1366,110.035 -34.9844,107.883 -34.9844,105.252 L-34.9844,103.53 L-34.9844,102.717 C-34.9844,100.087 -32.8321,97.9343 -30.2015,97.9343 C-27.9058,97.9343 -25.9927,99.5604 -25.5144,101.713 C-29.1493,108.026 -35.9409,112.283 -43.7369,112.283 Z M-23.6491,94.6341 L-27.1884,95.1124 C-27.571,95.1602 -27.9536,94.8733 -28.0015,94.4906 C-28.0493,94.108 -27.7623,93.7254 -27.3797,93.6776 L-23.8404,93.1993 C-23.4578,93.1515 -23.0752,93.4384 -23.0273,93.8211 C-23.0273,93.9645 -23.0273,94.0602 -23.0752,94.2037 C-23.1708,94.395 -23.41,94.5863 -23.6491,94.6341 Z " fill="#fffbd4" fill-opacity="1.00" />			<path d="M13.0877,-107.598 L-36.7576,-96.7183 C-37.6063,-96.564 -38.2236,-95.7924 -38.2236,-94.8664 C-38.2236,-93.6319 -37.0662,-92.7831 -35.9088,-93.0146 L13.7049,-104.434 C14.3994,-104.589 14.9395,-105.129 15.0938,-105.823 C15.2481,-106.981 14.1679,-107.829 13.0877,-107.598 Z M-9.21153,-104.28 C-10.6776,-105.052 -11.6035,-106.286 -11.6035,-107.675 C-11.6035,-109.99 -8.98005,-111.919 -5.66217,-111.919 C-2.3443,-111.919 0.279129,-109.99 0.279129,-107.675 C0.279129,-107.212 0.12481,-106.749 -0.02951,-106.286 L12.3932,-108.987 C13.5506,-109.218 13.9364,-110.684 13.0105,-111.456 C4.7544,-118.4 -8.28561,-123.879 -24.1805,-126.965 C-25.6466,-127.274 -27.1126,-126.733 -28.1157,-125.576 L-29.3502,-124.11 C-26.1867,-124.033 -23.7176,-122.721 -23.7176,-121.178 C-23.7176,-119.558 -26.341,-118.246 -29.6589,-118.246 C-31.2021,-118.246 -32.5909,-118.554 -33.594,-119.017 L-52.5753,-96.1782 C-53.5784,-95.0208 -54.1185,-93.4776 -54.1185,-91.9344 L-54.1185,-79.4345 C-54.1185,-78.1999 -53.1926,-77.0425 -51.958,-76.9654 C-50.5692,-76.8111 -49.3346,-77.9684 -49.3346,-79.3573 L-49.3346,-89.5424 L-49.3346,-89.8511 C-49.3346,-91.0856 -48.4087,-92.243 -47.1741,-92.3202 C-45.7853,-92.4745 -44.5507,-91.3171 -44.5507,-89.9282 L-44.5507,-89.5424 L-44.5507,-89.4653 C-44.5507,-88.385 -43.8563,-87.3819 -42.8532,-87.1505 C-41.2328,-86.7647 -39.844,-87.9221 -39.844,-89.4653 L-39.844,-95.2522 C-39.844,-96.564 -38.918,-97.7985 -37.6063,-98.03 L-9.21153,-104.28 Z M-11.6035,-120.946 C-8.36277,-120.946 -5.66217,-119.48 -5.66217,-117.706 C-5.66217,-115.931 -8.28561,-114.465 -11.6035,-114.465 C-14.8442,-114.465 -17.5448,-115.931 -17.5448,-117.706 C-17.5448,-119.48 -14.8442,-120.946 -11.6035,-120.946 Z M-24.875,-115.314 C-21.8657,-115.314 -19.4738,-113.771 -19.4738,-111.842 C-19.4738,-109.913 -21.8657,-108.369 -24.875,-108.369 C-27.8842,-108.369 -30.2761,-109.913 -30.2761,-111.842 C-30.2761,-113.771 -27.8842,-115.314 -24.875,-115.314 Z M-42.776,-104.126 C-42.776,-106.209 -40.1526,-107.984 -36.8347,-107.984 C-33.5169,-107.984 -30.8934,-106.286 -30.8934,-104.126 C-30.8934,-102.042 -33.5169,-100.268 -36.8347,-100.268 C-40.1526,-100.268 -42.776,-101.965 -42.776,-104.126 Z M20.6493,-116.934 C20.6493,-116.934 20.6493,-116.934 20.6493,-116.934 C5.91179,-131.209 -21.8657,-135.684 -23.1003,-135.838 C-25.1836,-136.147 -27.1126,-134.758 -27.4212,-132.675 C-27.7299,-130.591 -26.341,-128.662 -24.2577,-128.354 C-24.0262,-128.354 -1.10975,-124.65 12.5475,-113.925 C13.8593,-112.845 15.0166,-111.61 15.7882,-110.067 C16.4055,-108.755 17.4858,-107.829 18.7203,-107.829 C20.6493,-107.829 22.2697,-110.067 22.2697,-112.768 C22.2697,-114.465 21.5752,-116.008 20.6493,-116.934 Z " fill="#fffbd4" fill-opacity="1.00" />			<path d="M-23.6745,30.0047 C-24.8351,26.9221 -28.4324,25.4483 -31.6194,26.3978 C-47.0193,31.0022 -68.1759,38.9176 -79.9259,44.1213 C-83.1391,45.508 -82.2858,50.2982 -78.8208,50.5646 C-78.8208,50.5646 -43.3041,51.4679 -27.7382,51.4076 C-24.3448,51.4065 -21.3204,48.7798 -21.0866,45.3713 C-20.7384,38.1084 -21.2251,36.4703 -23.6745,30.0047 Z M-54.1311,47.6295 C-54.7467,47.651 -55.3034,47.1788 -55.3249,46.5632 C-55.3138,45.8911 -55.3202,45.5104 -55.3593,45.1863 C-55.357,44.6599 -55.3721,44.425 -55.5371,43.2742 C-55.7498,41.9451 -55.878,41.6449 -56.1019,40.9879 C-56.2301,40.6877 -56.3496,40.2417 -56.5495,39.6739 C-56.5734,39.5847 -56.5734,39.5847 -56.5973,39.4955 C-56.7081,38.9038 -56.3251,38.371 -55.7899,38.2276 C-55.1656,38.0603 -54.5109,38.3629 -54.3437,38.9873 C-54.1437,39.5551 -54.0481,39.9118 -53.9199,40.212 C-53.6721,40.9582 -53.52,41.3476 -53.2595,42.8551 C-53.0467,44.1843 -53.0403,44.5649 -53.0188,45.1805 C-53.0363,45.472 -52.9972,45.7961 -52.9756,46.4117 C-53.0433,47.0512 -53.5155,47.6079 -54.1311,47.6295 Z M-47.2616,47.2227 C-47.8772,47.2443 -48.4339,46.7721 -48.4555,46.1565 C-48.4619,45.7758 -48.5009,45.4517 -48.4834,45.1602 C-48.4787,44.1074 -48.5656,43.6049 -48.7696,42.1301 C-49.0779,40.4442 -49.2452,39.8198 -49.6124,38.6277 L-49.8514,37.7358 C-49.8753,37.6466 -49.8753,37.6466 -49.8992,37.5574 C-50.01,36.9657 -49.627,36.4329 -49.0918,36.2895 C-48.4675,36.1222 -47.8128,36.4248 -47.6455,37.0491 L-47.3739,37.8845 C-46.9828,39.1658 -46.7589,39.8228 -46.4593,41.6544 C-46.2075,43.3077 -46.1533,43.8667 -46.1341,45.0087 C-46.1516,45.3002 -46.1126,45.6243 -46.0735,45.9484 C-46.1173,46.6771 -46.5895,47.2338 -47.2616,47.2227 Z M-40.3356,46.8486 C-40.9512,46.8702 -41.5079,46.398 -41.5294,45.7824 C-41.5941,43.9356 -41.646,42.8502 -42.0021,40.9859 C-42.2929,39.0085 -42.6602,37.8164 -43.2751,35.8781 C-43.299,35.7889 -43.299,35.7889 -43.3229,35.6997 C-43.4337,35.108 -43.0507,34.5752 -42.5155,34.4318 C-41.8912,34.2645 -41.2365,34.5671 -41.0692,35.1914 C-40.4304,37.2189 -40.0958,38.4676 -39.7571,40.6233 C-39.4424,42.6899 -39.3101,43.8972 -39.2693,45.6548 C-39.1912,46.303 -39.72,46.8271 -40.3356,46.8486 Z M-33.4096,46.4746 C-34.0251,46.4961 -34.5819,46.0239 -34.6034,45.4083 C-34.7566,41.6256 -35.4514,37.6055 -36.5531,34.0291 C-36.577,33.9399 -36.577,33.9399 -36.6009,33.8507 C-36.7117,33.259 -36.3286,32.7262 -35.7935,32.5828 C-35.1692,32.4155 -34.5145,32.7181 -34.3472,33.3424 C-33.1977,37.0972 -32.4312,41.3848 -32.2868,45.3133 C-32.3218,45.8963 -32.794,46.453 -33.4096,46.4746 Z M-6.32277,43.5663 C-7.55333,41.6495 -9.18205,40.0306 -11.2177,38.8553 C-9.09223,38.0468 -7.26466,36.8402 -5.73497,35.2354 C-5.39335,34.9048 -5.53674,34.3697 -5.93256,34.1412 C-7.26575,33.4468 -8.67298,33.0113 -10.1781,32.7455 C-10.2761,32.9151 -10.4306,33.0521 -10.5285,33.2217 C-11.375,34.1655 -12.2453,35.0201 -13.2527,35.7202 C-13.6508,36.0181 -14.2577,35.8939 -14.5556,35.4957 C-14.5795,35.4065 -14.636,35.3739 -14.6599,35.2847 C-14.8121,34.8953 -14.6401,34.4668 -14.3311,34.1928 C-13.4456,33.5732 -12.6405,32.8317 -11.9485,32.0249 C-11.6961,31.7183 -11.4763,31.4682 -11.2805,31.1289 C-11.2805,31.1289 -11.2478,31.0724 -11.2478,31.0724 C-11.2152,31.0158 -11.1825,30.9593 -11.1172,30.8462 C-10.2445,29.4652 -9.63065,28.0102 -9.24295,26.4246 C-9.12751,25.9635 -9.48194,25.5327 -9.95179,25.563 C-12.9732,25.7034 -16.0232,26.8074 -18.5754,28.8774 C-19.3152,29.5058 -19.9658,30.1103 -20.5359,30.8367 C-20.8537,31.2564 -20.9778,31.8632 -20.8018,32.3418 C-19.787,35.4157 -19.2659,38.4308 -19.1995,41.711 C-19.2018,42.2374 -18.9127,42.7813 -18.4603,43.0425 C-17.6687,43.4995 -16.901,43.8674 -16.044,44.2114 C-12.9556,45.3913 -9.708,45.3815 -6.78857,44.5036 C-6.26217,44.506 -6.08144,43.9318 -6.32277,43.5663 Z " fill="#ffa538" fill-opacity="1.00" />			<path d="M88.2145,-71.6833 C88.7742,-71.4516 88.9698,-70.6887 88.5905,-70.2162 L85.5132,-66.3629 C84.9444,-65.6543 85.6561,-64.5859 86.5213,-64.8702 L95.0711,-67.6248 C95.3645,-67.7 95.688,-67.6578 95.9242,-67.4682 L101.105,-63.6054 C101.577,-63.2262 102.281,-63.4067 102.513,-63.9664 L105.196,-69.8451 C105.312,-70.1249 105.575,-70.3175 105.869,-70.3927 L114.689,-72.091 C115.585,-72.258 115.695,-73.5369 114.855,-73.8846 L110.304,-75.7823 C109.744,-76.014 109.548,-76.7769 109.927,-77.2494 L113.005,-81.1027 C113.574,-81.8113 112.862,-82.8797 111.997,-82.5954 L103.447,-79.8408 C103.153,-79.7656 102.83,-79.8078 102.594,-79.9974 L97.4134,-83.8602 C96.9409,-84.2394 96.2367,-84.0589 96.0049,-83.4992 L93.3217,-77.6205 C93.2059,-77.3407 92.9425,-77.1481 92.6491,-77.0729 L83.8285,-75.3746 C82.9332,-75.2076 82.8233,-73.9287 83.6629,-73.581 L88.2145,-71.6833 Z M115.384,-78.8982 C114.633,-79.1435 113.826,-78.8742 113.301,-78.2392 C112.819,-77.678 113.045,-76.7978 113.737,-76.5374 L115.49,-75.7985 C116.61,-75.335 117.454,-74.238 117.387,-73.0328 C117.366,-71.6515 116.36,-70.4553 114.995,-70.168 L108.141,-68.8488 C107.246,-68.6818 106.471,-68.0454 106.108,-67.2645 L104.31,-63.3012 C104.034,-62.6678 103.538,-62.1653 102.937,-61.8237 C101.882,-61.3032 100.721,-61.4432 99.8647,-62.0993 L96.3077,-64.7523 C95.5404,-65.306 94.6286,-65.4475 93.7633,-65.1632 L87.12,-63.0224 C85.7853,-62.6177 84.4011,-63.1385 83.718,-64.3392 C83.1237,-65.4377 83.2923,-66.7317 84.0357,-67.7353 L85.071,-69.0639 C85.6835,-69.8463 85.4729,-70.6678 84.7657,-70.9869 C84.0585,-71.3059 83.1632,-71.139 82.623,-70.5627 C79.5261,-67.5174 77.6842,-63.4804 79.023,-58.2576 C81.7609,-47.5771 96.5042,-29.3424 106.796,-25.7893 C108.137,-25.1948 109.637,-24.954 111.119,-25.2714 C111.295,-25.3165 111.471,-25.3616 111.647,-25.4068 C111.823,-25.4519 111.999,-25.497 112.175,-25.5422 C113.612,-26.0356 114.885,-26.9248 115.716,-28.0758 C123.014,-36.2007 127.182,-59.2206 124.444,-69.9011 C123.12,-75.0652 119.563,-77.7182 115.384,-78.8982 Z M89.1628,-53.1019 C88.5187,-52.6866 87.7393,-52.7995 87.1932,-53.2224 C87.1044,-53.3247 87.0156,-53.427 86.9118,-53.5881 C86.2438,-54.7302 86.1024,-56.2574 86.0228,-57.3002 C86.0348,-57.741 86.5178,-58.0525 86.9015,-57.7756 C87.7276,-57.2369 88.9087,-56.2888 89.5316,-55.3228 C89.9619,-54.6201 89.8505,-53.5909 89.1628,-53.1019 Z M100.909,-34.8493 C100.353,-34.3318 99.5304,-34.3709 98.9256,-34.7787 C98.8368,-34.8811 98.6893,-34.9683 98.5855,-35.1293 C97.8152,-36.1827 97.4828,-37.7235 97.3444,-38.7512 C97.2827,-39.2357 97.7657,-39.5472 98.1344,-39.329 C99.0041,-38.864 100.272,-38.0634 100.998,-37.1861 C101.575,-36.3961 101.581,-35.397 100.909,-34.8493 Z M97.9302,-46.4687 C97.3749,-45.9511 96.5519,-45.9903 95.947,-46.3981 C95.8582,-46.5004 95.7108,-46.5877 95.607,-46.7487 C94.8366,-47.802 94.5042,-49.3429 94.3658,-50.3706 C94.3042,-50.8551 94.7872,-51.1665 95.1558,-50.9483 C96.0255,-50.4833 97.2939,-49.6828 98.0191,-48.8055 C98.5818,-48.0742 98.5878,-47.0751 97.9302,-46.4687 Z M103.278,-56.3451 C103.408,-56.8161 103.951,-56.8928 104.291,-56.5422 C104.928,-55.7672 105.802,-54.5529 106.088,-53.4379 C106.372,-52.5727 105.922,-51.6443 105.115,-51.375 C104.368,-51.1208 103.645,-51.4985 103.245,-52.0839 C103.156,-52.1862 103.111,-52.3622 103.066,-52.5383 C102.735,-53.8293 103.02,-55.4032 103.278,-56.3451 Z M106.287,-44.6084 C106.417,-45.0794 106.96,-45.1561 107.3,-44.8055 C107.936,-44.0305 108.81,-42.8162 109.096,-41.7012 C109.381,-40.836 108.931,-39.9076 108.124,-39.6383 C107.376,-39.3841 106.654,-39.7618 106.254,-40.3471 C106.165,-40.4495 106.12,-40.6255 106.075,-40.8016 C105.744,-42.0926 106.028,-43.6665 106.287,-44.6084 Z M110.757,-29.3687 C110.009,-29.1144 109.287,-29.4921 108.886,-30.0775 C108.798,-30.1798 108.752,-30.3559 108.707,-30.5319 C108.435,-31.838 108.676,-33.3381 108.92,-34.3388 C109.049,-34.8097 109.592,-34.8864 109.932,-34.5358 C110.569,-33.7609 111.443,-32.5465 111.729,-31.4315 C111.939,-30.61 111.563,-29.6379 110.757,-29.3687 Z M111.862,-50.9157 C111.832,-51.0331 111.787,-51.2091 111.801,-51.4002 C111.954,-52.7529 112.681,-54.065 113.205,-54.9497 C113.482,-55.3334 114.055,-55.2927 114.175,-54.8232 C114.533,-53.9144 114.968,-52.4623 114.887,-51.3158 C114.863,-50.434 114.192,-49.6366 113.31,-49.6607 C112.619,-49.6713 112.028,-50.2702 111.862,-50.9157 Z M118.493,-40.4201 C118.469,-39.5384 117.798,-38.7409 116.916,-38.7651 C116.167,-38.7606 115.517,-39.3444 115.41,-40.005 C115.38,-40.1224 115.335,-40.2984 115.348,-40.4895 C115.502,-41.8422 116.228,-43.1543 116.752,-44.039 C117.029,-44.4227 117.602,-44.382 117.723,-43.9125 C118.081,-43.0037 118.516,-41.5516 118.493,-40.4201 Z M119.191,-61.3623 C119.284,-60.5106 118.702,-59.6109 117.85,-59.5176 C117.072,-59.3808 116.378,-59.8909 116.154,-60.5214 C116.124,-60.6387 116.079,-60.8148 116.034,-60.9908 C115.953,-62.2834 116.502,-63.8001 116.893,-64.7134 C117.097,-65.1407 117.655,-65.1587 117.877,-64.778 C118.427,-63.8556 119.022,-62.5074 119.191,-61.3623 Z " fill="#fe772b" fill-opacity="1.00" />			<path d="M53.1715,90.0408 C45.3988,97.5563 44.707,110.068 51.6372,118.391 C53.3697,120.471 55.3857,122.123 57.6452,123.368 C58.1373,123.668 58.8039,123.443 59.0413,122.934 L76.5372,87.1749 C76.7746,86.666 76.5721,86.0392 76.0234,85.8249 C68.5569,82.6455 59.5239,83.9297 53.1715,90.0408 Z M53.1913,94.4916 C53.8945,93.5013 54.7065,92.6075 55.6273,91.8102 C56.5482,91.013 57.5779,90.3122 58.6368,89.754 C59.4566,89.3338 60.4284,89.7289 60.769,90.5947 L64.6224,101.225 C64.8187,101.75 64.2334,102.3 63.7414,102 L53.7376,96.726 C52.8853,96.2619 52.6582,95.2244 53.1913,94.4916 Z M64.3732,108.063 L59.003,118.175 C58.5787,119.005 57.5014,119.255 56.7686,118.722 C55.7783,118.018 54.8845,117.206 54.0642,116.246 C53.2439,115.285 52.5662,114.295 51.985,113.196 C51.5648,112.377 51.9369,111.365 52.8257,111.064 L63.5759,107.142 C64.1,106.945 64.6505,107.531 64.3732,108.063 Z M62.4303,104.882 L51.8255,108.136 C50.9765,108.413 50.0782,107.87 49.92,106.952 C49.7265,105.788 49.6756,104.596 49.7672,103.374 C49.8587,102.153 50.076,100.965 50.4021,99.8736 C50.6608,99.0336 51.6232,98.5843 52.4295,98.9687 L62.4591,103.643 C63.014,103.96 62.9544,104.685 62.4303,104.882 Z M71.9304,88.0286 C72.7704,88.2873 73.2197,89.2497 72.8583,90.0958 L68.0874,100.234 C67.85,100.743 67.0852,100.707 66.9287,100.16 L63.6285,89.475 C63.3508,88.626 63.9345,87.7047 64.8126,87.5695 C65.9759,87.376 67.1682,87.3251 68.3898,87.4167 C69.5883,87.4684 70.7762,87.6856 71.9304,88.0286 Z M50.2859,86.6071 C40.7282,95.6313 39.7169,110.717 47.9566,120.941 C50.1599,123.653 52.7829,125.804 55.6602,127.383 C56.1921,127.66 56.8189,127.458 57.0563,126.949 L57.5541,125.971 C57.6843,125.736 57.5631,125.434 57.3286,125.304 C54.9035,124.048 52.699,122.346 50.778,120.215 C42.445,110.842 43.2818,96.2818 52.6773,87.9888 C59.6856,81.8176 69.4099,80.7187 77.318,84.3868 C77.5525,84.517 77.8544,84.3958 77.9846,84.1613 L78.4824,83.1833 C78.7198,82.6744 78.5173,82.0476 77.9686,81.8332 C68.9293,77.862 57.9913,79.343 50.2859,86.6071 Z " fill="#fe772b" fill-opacity="1.00" />			<path d="M-88.4031,103.641 C-86.9668,97.7983 -90.5389,91.8975 -96.3816,90.4612 C-102.224,89.0249 -108.125,92.597 -109.562,98.4397 C-110.998,104.282 -107.426,110.183 -101.583,111.62 C-95.7403,113.056 -89.8394,109.484 -88.4031,103.641 Z M-110.216,95.8633 C-109.778,94.9513 -109.313,94.153 -108.696,93.392 C-108.319,92.9481 -108.258,92.2651 -108.564,91.7606 C-109.022,91.0039 -109.531,90.2347 -110.178,89.5925 C-110.432,89.3154 -110.823,89.3801 -110.999,89.6589 C-111.402,90.2041 -111.678,90.673 -111.854,90.9518 C-112.545,92.0165 -113.934,92.4265 -115.099,91.9254 C-115.2,91.9005 -115.289,91.825 -115.378,91.7495 C-116.582,90.9704 -116.942,89.3789 -116.176,88.2254 C-116,87.9466 -115.761,87.6296 -115.497,87.2114 C-115.309,86.8819 -115.424,86.4778 -115.829,86.3783 C-121.308,85.085 -127.175,87.9905 -129.252,93.5992 C-131.178,98.8154 -128.93,104.736 -124.128,107.473 C-119.833,109.871 -114.74,109.244 -111.237,106.348 C-110.771,105.979 -110.558,105.334 -110.738,104.753 C-111.647,101.899 -111.57,98.751 -110.216,95.8633 Z M-114.637,90.4824 C-114.586,90.4948 -114.548,90.5579 -114.498,90.5703 C-114.016,90.796 -113.385,90.6291 -113.109,90.1603 C-111.425,87.4609 -102.828,74.7595 -90.8715,70.6669 C-92.9947,74.0634 -96.4968,80.4489 -97.8829,88.0524 C-97.97,88.4067 -97.7161,88.6839 -97.3617,88.771 C-97.0456,88.795 -96.7419,88.8697 -96.4382,88.9443 C-96.1345,89.019 -95.8067,88.7775 -95.7321,88.4738 C-93.8259,78.0996 -87.7267,69.8834 -87.4122,69.4776 C-87.3367,69.3888 -87.3118,69.2876 -87.2363,69.1988 C-87.199,69.0469 -87.1741,68.9457 -87.1243,68.7432 C-87.0165,67.2131 -86.5287,65.8837 -86.1902,65.1618 C-85.9894,64.7817 -86.0924,64.327 -86.3969,64.0374 C-86.6127,63.8233 -86.9172,63.5338 -87.323,63.2193 C-87.5512,63.0559 -87.8923,63.133 -87.9545,63.3861 C-88.0042,63.5886 -88.054,63.7911 -88.1038,63.9936 C-88.8023,66.3983 -90.6916,68.1883 -93.0142,69.1203 C-104.879,73.9331 -113.225,86.2669 -114.959,88.9539 C-115.311,89.5115 -115.157,90.1936 -114.637,90.4824 Z " fill="#fe772b" fill-opacity="1.00" />			<path d="M-104.498,-44.3988 C-105.311,-43.9928 -106.19,-43.6543 -107.07,-43.4513 C-107.442,-43.3498 -107.679,-43.0452 -107.679,-42.6391 C-107.679,-40.7441 -107.273,-37.9015 -105.344,-34.9573 C-106.664,-37.0893 -107.849,-38.7475 -109.033,-40.1349 C-109.27,-40.4395 -109.71,-40.4057 -109.913,-40.0672 C-110.387,-39.2551 -111.3,-37.9353 -112.011,-37.2246 C-112.045,-37.1908 -112.079,-37.157 -112.18,-37.0554 L-112.519,-36.717 C-112.62,-36.6155 -112.755,-36.4802 -112.823,-36.3448 C-113.094,-36.0741 -113.06,-35.6341 -112.789,-35.3634 C-111.503,-34.1452 -109.845,-32.2839 -108.593,-30.0166 C-108.458,-29.8136 -108.728,-29.5428 -108.931,-29.6782 C-110.928,-30.7949 -113.804,-31.844 -116.343,-32.4193 C-116.512,-32.4531 -116.647,-32.3854 -116.782,-32.3178 C-117.967,-31.201 -119.151,-30.152 -120.302,-29.2044 C-120.64,-28.9337 -120.471,-28.4261 -120.065,-28.3584 C-116.173,-28.0538 -109.236,-26.5987 -105.446,-20.1013 C-105.006,-19.323 -103.923,-19.1199 -103.212,-19.6952 C-100.505,-21.7933 -96.5458,-25.0759 -94.5154,-29.0014 C-94.177,-29.6782 -94.38,-30.4904 -94.9553,-30.9303 C-97.4933,-32.7915 -101.926,-36.5478 -103.28,-43.7897 C-103.449,-44.365 -104.025,-44.6696 -104.498,-44.3988 Z M-103.043,-63.3834 C-106.901,-66.7675 -112.789,-66.8351 -116.715,-63.5188 C-118.136,-62.3005 -119.185,-60.7777 -119.794,-59.1533 C-123.618,-59.864 -127.713,-58.7472 -130.657,-55.8031 C-132.281,-54.1788 -133.364,-52.216 -133.872,-50.0841 C-134.007,-49.5426 -133.534,-49.0688 -132.992,-49.2042 C-130.319,-49.7795 -127.51,-49.4072 -125.04,-48.0198 C-124.701,-47.8167 -124.498,-47.343 -124.667,-46.9707 C-124.701,-46.8692 -124.803,-46.7677 -124.87,-46.7 C-125.141,-46.4293 -125.547,-46.3616 -125.886,-46.5646 C-128.525,-48.0536 -131.571,-48.189 -134.278,-47.1061 C-134.278,-47.1061 -134.278,-47.1061 -134.278,-47.0384 C-135.632,-46.4293 -136.884,-45.5156 -137.899,-44.2973 C-141.283,-40.3718 -141.215,-34.4159 -137.764,-30.4904 C-134.447,-26.7679 -129.202,-25.9896 -125.073,-28.1554 C-125.073,-28.1554 -125.073,-28.1554 -125.073,-28.1554 C-124.532,-28.4261 -124.058,-28.7645 -123.551,-29.1367 C-120.64,-31.2349 -116.749,-34.7881 -113.94,-38.003 C-113.601,-38.3414 -113.5,-38.5106 -113.432,-38.5783 C-112.62,-39.3904 -112.045,-40.3041 -111.503,-41.2517 C-111.436,-41.387 -111.368,-41.5224 -111.3,-41.6578 C-111.199,-41.8946 -111.097,-42.0638 -110.996,-42.3007 C-110.759,-42.8083 -111.097,-43.3498 -111.639,-43.4175 C-112.857,-43.6205 -114.075,-44.0266 -115.158,-44.6357 C-115.564,-44.8388 -115.767,-45.3125 -115.598,-45.7525 C-115.395,-46.2262 -114.854,-46.3616 -114.414,-46.1247 C-113.094,-45.4141 -111.639,-44.9741 -110.184,-44.9403 C-110.184,-44.9403 -110.184,-44.9403 -110.184,-44.9403 C-107.646,-44.9065 -105.074,-45.7863 -103.077,-47.5799 C-103.009,-47.6475 -102.976,-47.6814 -102.908,-47.7491 C-102.908,-47.7491 -102.908,-47.7491 -102.908,-47.7491 C-102.806,-47.8506 -102.739,-47.9183 -102.637,-48.0198 C-98.2717,-52.3175 -98.4409,-59.3225 -103.043,-63.3834 Z " fill="#ffa538" fill-opacity="1.00" />			<path d="M112.733,-114.188 C113.234,-114.919 112.204,-116.534 110.423,-117.798 C110.045,-118.094 109.633,-118.332 109.187,-118.511 C109.187,-118.511 109.128,-118.545 109.128,-118.545 C109.128,-118.545 109.069,-118.579 109.069,-118.579 C106.731,-119.694 101.258,-120.814 91.2219,-113.896 C87.0982,-117.219 81.3674,-121.155 74.8351,-124.927 C60.5936,-133.149 47.8699,-137.749 46.3749,-135.159 C42.0259,-127.627 36.7738,-106.57 57.3711,-94.678 C77.9684,-82.7862 93.612,-97.9218 97.927,-105.396 C98.6405,-106.632 96.6627,-109.186 92.9601,-112.422 C96.678,-114.513 103.187,-116.953 109.969,-114.293 C111.214,-113.732 112.335,-113.634 112.733,-114.188 Z M95.0385,-105.965 C93.8154,-103.846 82.3209,-108.129 69.374,-115.604 C56.4271,-123.078 46.9373,-130.833 48.1944,-133.01 C49.4176,-135.129 60.9121,-130.847 73.8589,-123.372 C80.2147,-119.702 85.7441,-115.961 89.5735,-112.808 C89.4127,-112.665 89.1931,-112.557 89.0323,-112.414 C88.6179,-112.104 88.4887,-111.473 88.8575,-111.024 C89.1676,-110.61 89.7991,-110.481 90.2475,-110.85 C90.5011,-111.017 90.8227,-111.302 91.1691,-111.494 C94.1158,-108.852 95.5821,-106.906 95.0385,-105.965 Z M57.2463,-129.118 C56.599,-129.492 55.8406,-129.537 55.098,-129.338 C54.7267,-129.239 54.4888,-128.827 54.5883,-128.456 C54.6878,-128.084 55.0998,-127.847 55.4711,-127.946 C55.8424,-128.046 56.2046,-127.993 56.4988,-127.823 C56.8519,-127.62 57.0194,-127.366 57.1528,-127.054 C57.2523,-126.682 57.2001,-126.32 57.0303,-126.026 C56.8264,-125.673 56.9847,-125.267 57.279,-125.098 C57.279,-125.098 57.279,-125.098 57.279,-125.098 C57.6321,-124.894 58.0374,-125.052 58.2412,-125.405 C58.615,-126.052 58.6605,-126.811 58.4615,-127.553 C58.3802,-128.228 57.8937,-128.744 57.2463,-129.118 Z M65.8639,-126.104 C65.3184,-126.655 64.662,-126.877 63.9036,-126.922 C63.1701,-126.875 62.4863,-126.642 61.9361,-126.097 C61.6733,-125.778 61.68,-125.381 61.9652,-125.06 C62.2843,-124.797 62.6805,-124.804 63.002,-125.089 C63.2307,-125.349 63.602,-125.449 63.9394,-125.489 C64.3356,-125.496 64.6298,-125.326 64.8901,-125.097 C65.1503,-124.869 65.2498,-124.497 65.2905,-124.16 C65.2971,-123.764 65.5823,-123.442 65.9785,-123.449 C65.9785,-123.449 65.9785,-123.449 65.9785,-123.449 C66.3746,-123.456 66.6962,-123.741 66.6895,-124.137 C66.6762,-124.929 66.4093,-125.554 65.8639,-126.104 Z M71.6322,-119.243 C71.2136,-119.877 70.6251,-120.217 69.8419,-120.355 C69.1175,-120.46 68.4088,-120.319 67.7748,-119.901 C67.4872,-119.675 67.4011,-119.254 67.5934,-118.907 C67.8197,-118.619 68.2996,-118.499 68.5872,-118.726 C68.8748,-118.952 69.2121,-118.993 69.5743,-118.94 C69.9953,-118.854 70.2307,-118.718 70.423,-118.372 C70.6493,-118.084 70.69,-117.747 70.6378,-117.385 C70.5856,-117.023 70.8368,-116.642 71.199,-116.59 C71.199,-116.59 71.199,-116.59 71.199,-116.59 C71.5612,-116.538 71.9416,-116.789 71.9938,-117.151 C72.2498,-117.866 72.0508,-118.609 71.6322,-119.243 Z M79.9944,-117.554 C79.7026,-118.272 79.216,-118.788 78.5347,-119.103 C77.8534,-119.418 77.061,-119.404 76.4361,-119.137 C76.0308,-118.979 75.8858,-118.592 76.0441,-118.187 C76.2025,-117.781 76.5896,-117.636 76.9948,-117.795 C77.3073,-117.928 77.7035,-117.935 77.9977,-117.765 C78.3508,-117.561 78.5522,-117.366 78.7446,-117.02 C78.878,-116.708 78.8847,-116.311 78.7148,-116.017 C78.5698,-115.63 78.7281,-115.225 79.0564,-115.114 C79.0564,-115.114 79.0564,-115.114 79.0564,-115.114 C79.4434,-114.969 79.8487,-115.127 79.9937,-115.514 C80.2407,-116.078 80.2273,-116.87 79.9944,-117.554 Z M84.6453,-113.378 C83.9979,-113.752 83.2735,-113.856 82.5309,-113.657 C81.7883,-113.458 81.2131,-113.005 80.8394,-112.358 C80.6355,-112.005 80.7939,-111.6 81.147,-111.396 C81.5001,-111.192 81.9053,-111.35 82.1092,-111.703 C82.2791,-111.998 82.5667,-112.224 82.938,-112.323 C83.3093,-112.423 83.6715,-112.371 83.9657,-112.201 C84.26,-112.031 84.4863,-111.743 84.5858,-111.372 C84.6852,-111.001 85.0972,-110.763 85.4685,-110.862 C85.4685,-110.862 85.4685,-110.862 85.4685,-110.862 C85.8398,-110.962 86.0776,-111.374 85.9781,-111.745 C85.7452,-112.429 85.2926,-113.004 84.6453,-113.378 Z " fill="#ffa538" fill-opacity="1.00" />			<path d="M59.694,-61.123 C56.5727,-58.0869 52.5403,-56.4042 47.6107,-55.0973 C42.6239,-53.7751 37.3704,-52.9958 32.7384,-54.0376 C31.1079,-54.4028 29.7191,-52.9303 30.2593,-51.3558 C32.697,-43.7813 37.11,-33.8471 43.3412,-26.5421 C44.6721,-24.9932 46.9636,-24.6805 48.6306,-25.7973 C50.1983,-26.8264 52.0442,-27.4999 54.0504,-28.0318 C56.0566,-28.5637 57.9938,-28.8933 59.8654,-28.776 C61.9241,-28.647 63.7023,-30.0387 64.091,-32.0436 C65.8998,-41.4188 64.8266,-52.1771 63.1914,-59.9644 C62.9074,-61.7296 60.9143,-62.3054 59.694,-61.123 Z M42.7557,-65.7732 C43.0071,-65.2877 43.695,-65.4701 43.7453,-65.9742 C43.7832,-68.3769 44.0234,-70.7105 44.3512,-72.9446 C44.3899,-73.2616 44.4134,-73.6359 44.2649,-73.9647 C43.5692,-76.3569 42.8584,-78.8065 42.1594,-81.4432 C42.0074,-82.0164 41.4121,-82.4107 40.8389,-82.2587 L38.7753,-81.7116 C38.2021,-81.5596 37.8078,-80.9643 37.9598,-80.3911 C38.7957,-77.2385 40.0232,-72.8401 41.3957,-68.3574 C41.9255,-67.5162 42.3406,-66.6447 42.7557,-65.7732 Z M28.9442,-63.9518 C31.2379,-62.474 33.7864,-60.2663 36.3136,-56.5192 C36.5042,-56.263 36.8177,-56.4688 36.7417,-56.7554 C34.608,-63.1835 30.9922,-69.6481 28.2696,-72.9753 C27.831,-73.4725 27.0824,-73.5195 26.6425,-73.0961 L25.1239,-71.6505 C24.684,-71.2272 24.664,-70.6084 25.0301,-70.1533 C26.1283,-68.788 27.5117,-66.5781 28.9442,-63.9518 Z M31.5643,-55.6895 C32.0953,-55.7689 32.5843,-55.7759 33.1037,-55.6682 C33.3633,-55.6143 33.5657,-55.5453 33.8254,-55.4914 C34.6044,-55.3299 35.1672,-56.2153 34.683,-56.8844 C31.4272,-61.2972 26.0339,-64.2845 24.4116,-65.0814 C24.1941,-65.2077 23.8502,-65.1165 23.739,-64.8417 L22.329,-61.8298 C22.2026,-61.6122 22.2786,-61.3256 22.5535,-61.2145 C23.7559,-60.613 27.4086,-58.6367 29.5407,-56.3799 C30.1243,-55.7985 30.8039,-55.5492 31.5643,-55.6895 Z M29.782,-72.8242 C34.2003,-66.5723 37.3397,-58.2023 38.1652,-55.7831 C38.2563,-55.4392 38.6189,-55.2286 38.9629,-55.3198 C39.0202,-55.335 39.1348,-55.3654 39.2646,-55.3384 C39.8109,-55.3606 40.1479,-55.9407 39.969,-56.3841 C37.8222,-61.7044 33.9433,-68.4674 32.4265,-70.9487 C32.1026,-71.4763 32.2372,-72.1254 32.7648,-72.4494 L33.1205,-72.7277 C33.7897,-73.2119 33.936,-74.0482 33.5934,-74.8776 L31.5309,-80.343 C31.276,-81.073 30.4514,-81.4065 29.7939,-81.1095 L28.2919,-80.5272 C27.5619,-80.2723 27.2284,-79.4477 27.5254,-78.7903 L29.4664,-73.7834 C29.3856,-73.3939 29.5189,-73.1225 29.782,-72.8242 Z M33.7097,-70.7367 C35.8405,-67.5593 38.4845,-62.6776 40.8253,-56.8565 C41.1679,-56.0271 41.9656,-55.5638 42.8406,-55.7344 C43.3144,-55.7987 43.8303,-55.9354 44.304,-55.9997 C45.0071,-56.1247 45.4704,-56.9224 45.1582,-57.6372 C42.6198,-64.2034 39.6518,-69.6128 37.2123,-73.2605 C36.9188,-73.6734 36.3421,-73.7659 35.9292,-73.4724 L33.9216,-72.0199 C33.5087,-71.7264 33.4162,-71.1497 33.7097,-70.7367 Z M46.2121,-57.3645 C46.4214,-56.8065 46.9863,-56.5268 47.5443,-56.7361 C47.9456,-56.8425 48.4463,-57.0366 48.9048,-57.1582 C49.3061,-57.2645 49.5015,-57.6844 49.4676,-58.0436 C49.4489,-58.3454 49.373,-58.632 49.3695,-58.8764 C48.1724,-63.1602 46.9331,-67.3715 45.7885,-70.9944 C45.7126,-71.281 45.2236,-71.2741 45.185,-70.9571 C44.8101,-67.9743 44.6833,-64.7505 44.8769,-61.2436 C45.368,-60.0854 45.79,-58.725 46.2121,-57.3645 Z M54.5514,-65.7104 C54.2328,-69.9204 54.6193,-73.0903 55.3146,-75.79 L53.4149,-82.955 C53.2933,-83.4136 52.8582,-83.6663 52.3997,-83.5447 L49.8776,-82.876 C49.419,-82.7545 49.1663,-82.3194 49.2879,-81.8608 L49.9869,-79.2241 C51.2462,-75.6316 52.7824,-70.7628 54.2648,-65.6344 C54.2531,-65.4473 54.5397,-65.5233 54.5514,-65.7104 Z M51.6527,-58.1321 C52.5394,-58.4899 53.4262,-58.8477 54.1831,-59.2324 C54.5691,-59.3961 54.7072,-59.8008 54.6008,-60.2021 C51.884,-70.2179 48.5027,-80.4256 47.0481,-83.5982 C46.8692,-84.0416 46.3346,-84.2066 45.9217,-83.9131 L43.555,-82.4267 C43.2415,-82.2209 43.1034,-81.8162 43.2519,-81.4875 C44.413,-78.7278 47.806,-68.7072 50.538,-58.6341 C50.7169,-58.1907 51.2094,-57.9532 51.6527,-58.1321 Z M61.3124,-78.8526 C60.5755,-79.0866 59.2163,-79.5852 58.1472,-79.9152 C57.8875,-79.9691 57.6009,-79.8931 57.4898,-79.6182 C56.6425,-77.4918 54.7065,-69.9846 56.0247,-62.236 C56.165,-61.4757 57.0621,-61.1 57.674,-61.569 C57.9723,-61.8321 58.2706,-62.0953 58.5116,-62.3432 C58.7526,-62.5912 59.0088,-62.7818 59.2802,-62.9151 C59.8079,-63.2391 60.0723,-63.8613 59.9777,-64.4497 C59.0698,-70.6507 60.9002,-76.4734 61.4795,-78.2221 C61.7205,-78.47 61.5872,-78.7414 61.3124,-78.8526 Z " fill="#fffbd4" fill-opacity="1.00" />			<path d="M90.0614,65.3019 C90.0614,66.4844 91.3753,67.6012 93.6089,68.4552 C94.0687,68.6523 94.5286,68.3238 94.5286,67.7983 L94.5286,56.8931 C94.5286,56.1705 94.9227,55.5136 95.514,55.1851 L103.134,50.8493 C103.332,50.718 103.2,50.4552 103.003,50.4552 C95.3826,51.1778 89.9957,52.8201 89.9957,54.791 L89.9957,65.3019 L90.0614,65.3019 Z M96.368,58.0099 L96.368,68.4552 C96.368,69.0465 96.7622,69.5063 97.2877,69.6377 C99.1928,70.0976 101.361,70.426 103.726,70.6888 C104.448,70.7545 105.04,70.1633 105.04,69.4406 L105.04,59.061 C105.04,58.0099 105.631,57.0245 106.551,56.4333 L116.207,50.7836 C116.47,50.6523 116.339,50.2581 116.076,50.2581 C114.434,50.1924 112.726,50.1267 111.018,50.1267 C110.295,50.1267 109.638,50.1267 108.981,50.1267 C108.456,50.1267 107.93,50.2581 107.47,50.5209 L97.4191,56.2362 C96.7622,56.6304 96.368,57.2873 96.368,58.0099 Z M106.945,60.1121 L106.945,69.4406 C106.945,70.2289 107.602,70.8859 108.39,70.9516 C109.244,70.9516 110.098,71.0173 111.018,71.0173 C112.66,71.0173 114.302,70.9516 115.879,70.8859 C116.667,70.8202 117.324,70.1633 117.324,69.3092 L117.324,60.0464 C117.324,58.6669 117.981,57.353 119.098,56.5647 L125.339,52.1632 C125.667,51.9661 125.536,51.4406 125.142,51.3749 C123.894,51.1121 122.514,50.915 121.003,50.718 C120.478,50.6523 119.886,50.7836 119.426,51.0464 L108.39,57.5501 C107.47,58.0756 106.945,59.061 106.945,60.1121 Z M119.098,61.0318 L119.098,68.8494 C119.098,69.7691 119.952,70.4917 120.872,70.3603 C127.441,69.3749 131.908,67.4698 131.908,65.3019 L131.908,54.8566 C131.908,54.0026 130.923,53.2143 129.149,52.4917 C128.689,52.2946 128.164,52.3603 127.704,52.6231 L120.806,57.4844 C119.821,58.3384 119.098,59.6523 119.098,61.0318 Z M83.6891,43.4917 C80.3388,40.9296 76.4628,39.55 72.5869,39.2873 C71.6015,39.2216 70.8132,40.207 71.1417,41.1267 C72.4555,44.8055 74.7548,48.0902 78.0395,50.6523 C73.9665,50.6523 70.1563,51.7691 66.8716,53.8056 C66.0176,54.3311 66.0176,55.5793 66.8059,56.1705 C70.0249,58.4041 73.9008,59.718 78.1052,59.7837 C81.7183,59.8494 85.1344,58.9953 88.0906,57.4187 L88.0906,54.791 C88.0906,53.6085 88.7475,52.5574 90.0614,51.7034 C88.8132,48.6158 86.6453,45.7252 83.6891,43.4917 Z M131.974,69.9005 C131.974,69.4406 131.448,69.1778 131.054,69.5063 C128.361,71.8056 120.412,73.5136 110.952,73.5136 C101.558,73.5136 93.5432,71.6742 90.9154,69.3092 C90.587,68.9808 89.9957,69.2435 89.9957,69.7034 C89.9957,72.3968 89.93,77.4552 89.93,77.4552 C89.93,82.7764 99.3242,87.1122 110.886,87.1122 C122.448,87.1122 131.843,82.7764 131.843,77.4552 C131.974,77.4552 131.974,72.5282 131.974,69.9005 Z M95.7768,79.0319 C95.514,79.6231 95.0541,80.083 94.5286,80.2801 C94.3315,80.3458 94.1344,80.3458 93.9373,80.2144 C93.8716,80.1487 93.8059,80.083 93.7403,79.9516 C93.6089,79.6231 93.7403,79.2947 94.0687,79.1633 C94.66,78.9005 94.9227,78.2436 94.66,77.6523 C94.5286,77.3895 94.3315,77.1268 94.0687,77.0611 C93.7403,76.9297 93.6089,76.6012 93.7403,76.2728 C93.8716,75.9443 94.2001,75.8129 94.5286,75.9443 C95.1198,76.2071 95.5797,76.6669 95.7768,77.1925 C95.9738,77.8494 95.9738,78.4406 95.7768,79.0319 Z M103.726,77.6523 C103.266,78.0465 102.609,78.1779 102.018,78.1122 C101.426,78.0465 100.835,77.718 100.441,77.2582 C100.047,76.7983 99.9155,76.1414 99.9811,75.5501 C99.9811,75.353 100.113,75.156 100.31,75.0903 C100.441,75.0246 100.507,75.0246 100.638,75.0246 C100.967,75.0903 101.229,75.353 101.164,75.6815 C101.098,76.2728 101.558,76.864 102.149,76.9297 C102.478,76.9954 102.74,76.864 103.003,76.6669 C103.266,76.4698 103.66,76.5355 103.857,76.7983 C103.988,77.0611 103.988,77.4552 103.726,77.6523 Z M107.667,81.5282 C107.47,81.791 107.142,81.9224 106.813,81.7253 C106.288,81.3969 105.565,81.5939 105.237,82.1195 C105.105,82.3823 105.04,82.7107 105.105,82.9735 C105.171,83.302 104.974,83.6304 104.645,83.6961 C104.317,83.7618 103.988,83.5647 103.923,83.2363 C103.791,82.645 103.857,81.9881 104.186,81.4625 C104.514,80.937 105.04,80.5428 105.631,80.4115 C106.222,80.2801 106.879,80.3458 107.405,80.6742 C107.602,80.8056 107.667,81.0027 107.667,81.1998 C107.799,81.2655 107.733,81.3969 107.667,81.5282 Z M114.171,81.4625 C113.908,82.0538 113.514,82.5136 112.923,82.7107 C112.594,82.8421 112.266,82.7107 112.134,82.3823 C112.003,82.0538 112.134,81.7253 112.463,81.5939 C112.726,81.4625 112.988,81.2655 113.054,81.0027 C113.317,80.4115 112.988,79.7545 112.463,79.4917 C112.134,79.3604 112.003,79.0319 112.134,78.7034 C112.2,78.572 112.266,78.5063 112.332,78.4406 C112.463,78.3093 112.726,78.3093 112.923,78.375 C113.514,78.6377 113.974,79.0319 114.171,79.6231 C114.368,80.2144 114.368,80.8713 114.171,81.4625 Z M122.186,81.8567 C121.988,82.1195 121.594,82.1852 121.332,81.9881 C121.069,81.791 120.806,81.7253 120.478,81.7253 C119.886,81.791 119.426,82.3823 119.492,82.9735 C119.558,83.302 119.295,83.6304 118.967,83.6304 C118.835,83.6304 118.77,83.6304 118.638,83.5647 C118.441,83.499 118.31,83.302 118.31,83.1049 C118.244,82.5136 118.375,81.8567 118.77,81.3969 C119.164,80.8713 119.689,80.6085 120.346,80.5428 C120.937,80.4771 121.594,80.6085 122.054,81.0027 C122.383,81.2655 122.383,81.5939 122.186,81.8567 Z M126.521,77.9808 C125.996,78.3093 125.339,78.375 124.748,78.2436 C124.156,78.1122 123.631,77.718 123.302,77.1925 C122.974,76.6669 122.908,76.01 123.04,75.4187 C123.105,75.0903 123.434,74.8932 123.762,74.9589 C124.091,75.0246 124.288,75.353 124.222,75.6815 C124.156,75.9443 124.222,76.2728 124.353,76.5355 C124.682,77.0611 125.405,77.2582 125.93,76.9297 C126.193,76.7326 126.587,76.864 126.784,77.1268 C126.85,77.2582 126.85,77.3239 126.85,77.4552 C126.85,77.718 126.718,77.9151 126.521,77.9808 Z " fill="#ffa538" fill-opacity="1.00" />			<path d="M50.6143,-6.26493 L13.7883,21.4615 C13.1272,21.967 12.1939,21.2671 12.505,20.4893 C15.266,13.9174 20.4379,5.71227 27.4376,-2.99842 C27.6709,-3.30951 27.9042,-3.54284 28.2153,-3.77616 C28.2153,-3.77616 28.2153,-3.77616 28.2542,-3.81504 C28.2542,-3.81504 28.2542,-3.81504 28.2542,-3.81504 C28.8375,-4.2428 29.5375,-4.5539 30.2375,-4.63167 L50.0698,-7.58708 C50.8087,-7.70374 51.2364,-6.73157 50.6143,-6.26493 Z M10.1329,27.4501 C10.6773,27.0612 11.4161,27.1001 11.8828,27.5668 L24.21,39.9717 C25.2988,41.0606 27.0487,41.255 28.332,40.3606 L68.1912,11.9342 C68.8134,11.4676 69.6689,11.5453 70.2133,12.0897 C70.9133,12.7897 70.7966,13.9174 70.0189,14.4619 L28.332,44.4048 C27.2432,45.1826 25.7266,45.0659 24.7544,44.0937 L10.0551,29.3945 C9.43291,28.85 9.51068,27.9168 10.1329,27.4501 Z M25.6877,-4.35946 C17.677,5.59561 11.9995,14.9285 9.58846,22.0837 L9.39402,22.5892 C8.8496,24.2225 7.0608,25.1558 5.46644,24.4947 C4.68869,24.1836 4.0665,23.6392 3.56097,22.9003 C2.66657,21.5393 2.66657,19.7505 3.4832,18.3894 C4.26094,17.1451 5.46644,16.484 6.74971,16.3673 C6.12751,14.8118 6.43861,13.023 7.72188,11.7398 C8.49962,10.962 9.54957,10.5343 10.5995,10.4954 C9.78289,8.90101 10.0551,6.91777 11.3773,5.59561 C12.3883,4.58455 13.7494,4.23457 15.0326,4.429 C14.4104,2.87352 14.6827,1.04583 15.9659,-0.23744 C16.8992,-1.17073 18.1436,-1.5596 19.3491,-1.44294 C19.1158,-2.84287 19.5435,-4.35946 20.6324,-5.4483 C21.799,-6.61491 23.4322,-7.00378 24.9488,-6.6538 C25.9599,-6.49825 26.3488,-5.17609 25.6877,-4.35946 Z " fill="#fe772b" fill-opacity="1.00" />			<path d="M-20.0546,-58.232 C-33.0436,-65.7312 -49.2515,-62.0827 -55.1204,-51.9174 C-57.64,-47.5535 -48.3305,-39.3721 -35.2902,-31.8432 C-22.2498,-24.3144 -10.4505,-20.4455 -7.99029,-24.7068 C-2.12133,-34.8721 -7.06556,-50.7328 -20.0546,-58.232 Z M-41.2229,-56.8998 C-41.7876,-57.2258 -41.9316,-57.925 -41.6352,-58.4384 C-41.3091,-59.0031 -40.6099,-59.1471 -40.0965,-58.8507 C-39.5831,-58.5543 -39.3878,-57.8254 -39.6842,-57.312 C-39.9293,-56.769 -40.6581,-56.5737 -41.2229,-56.8998 Z M-43.0147,-49.1722 C-43.5794,-49.4983 -43.7234,-50.1975 -43.427,-50.7109 C-43.1306,-51.2243 -42.4017,-51.4196 -41.8883,-51.1231 C-41.3236,-50.7971 -41.1796,-50.0979 -41.476,-49.5845 C-41.7725,-49.0711 -42.5013,-48.8758 -43.0147,-49.1722 Z M-33.8018,-53.9843 C-34.3666,-54.3103 -34.5105,-55.0095 -34.2141,-55.5229 C-33.8881,-56.0877 -33.1889,-56.2316 -32.6755,-55.9352 C-32.1107,-55.6092 -31.9668,-54.91 -32.2632,-54.3966 C-32.5892,-53.8318 -33.2371,-53.6582 -33.8018,-53.9843 Z M-27.5736,-57.3022 C-27.2476,-57.867 -26.5484,-58.0109 -26.035,-57.7145 C-25.4703,-57.3885 -25.3263,-56.6893 -25.6227,-56.1759 C-25.9488,-55.6111 -26.648,-55.4672 -27.1614,-55.7636 C-27.6748,-56.06 -27.8997,-56.7375 -27.5736,-57.3022 Z M-31.1815,-46.3106 C-31.7463,-46.6367 -31.8902,-47.3359 -31.5938,-47.8493 C-31.2677,-48.414 -30.5685,-48.558 -30.0551,-48.2616 C-29.4904,-47.9355 -29.3465,-47.2363 -29.6429,-46.7229 C-29.9689,-46.1582 -30.6681,-46.0142 -31.1815,-46.3106 Z M-23.9726,-46.9403 C-24.5374,-47.2664 -24.6813,-47.9656 -24.3849,-48.479 C-24.0588,-49.0437 -23.3597,-49.1877 -22.8463,-48.8912 C-22.2815,-48.5652 -22.1376,-47.866 -22.434,-47.3526 C-22.7304,-46.8392 -23.4592,-46.6439 -23.9726,-46.9403 Z M-17.1516,-51.2851 C-16.8256,-51.8498 -16.1264,-51.9938 -15.613,-51.6973 C-15.0482,-51.3713 -14.9043,-50.6721 -15.2007,-50.1587 C-15.5267,-49.594 -16.2259,-49.45 -16.7393,-49.7464 C-17.2527,-50.0428 -17.4777,-50.7203 -17.1516,-51.2851 Z M-22.0774,-38.2478 C-22.6422,-38.5739 -22.7861,-39.2731 -22.4897,-39.7865 C-22.1637,-40.3512 -21.4645,-40.4951 -20.9511,-40.1987 C-20.3863,-39.8727 -20.2424,-39.1735 -20.5388,-38.6601 C-20.8352,-38.1467 -21.5127,-37.9218 -22.0774,-38.2478 Z M-13.9549,-42.5941 C-14.5197,-42.9202 -14.6636,-43.6194 -14.3672,-44.1328 C-14.0412,-44.6975 -13.342,-44.8415 -12.8286,-44.545 C-12.2638,-44.219 -12.1199,-43.5198 -12.4163,-43.0064 C-12.691,-42.412 -13.3902,-42.2681 -13.9549,-42.5941 Z M-10.8228,-35.9256 C-11.3875,-36.2516 -11.5315,-36.9508 -11.235,-37.4642 C-10.909,-38.029 -10.2098,-38.1729 -9.6964,-37.8765 C-9.13166,-37.5504 -8.98771,-36.8513 -9.28413,-36.3379 C-9.61018,-35.7731 -10.3094,-35.6292 -10.8228,-35.9256 Z M-18.3045,-21.8997 C-24.7819,-23.7227 -32.1177,-27.6158 -36.3276,-30.0463 C-41.3076,-32.9215 -47.9066,-37.1422 -52.424,-41.5301 C-52.7241,-41.8403 -53.2613,-41.7397 -53.3958,-41.2697 C-55.602,-34.6029 -59.8435,-18.3639 -59.8435,-18.3639 C-60.0421,-15.0559 -56.5081,-11.0989 -49.5259,-7.06769 C-42.5436,-3.03649 -37.0989,-2.15193 -34.5842,-3.78048 C-34.5842,-3.78048 -22.6041,-15.7569 -17.9415,-20.8686 C-17.7044,-21.2793 -17.8859,-21.7949 -18.3045,-21.8997 Z M-53.932,-13.3081 C-55.17,-14.3651 -56.173,-15.3549 -56.9923,-16.3071 C-57.2411,-16.5876 -57.3199,-17.0438 -57.2447,-17.4112 C-57.0055,-18.2998 -56.5349,-19.9448 -56.1019,-21.4062 C-54.7574,-26.1062 -52.6893,-33.1266 -52.0092,-35.609 C-51.8826,-35.9466 -51.4777,-36.0551 -51.1993,-35.8259 C-50.0127,-34.7986 -48.6207,-33.6526 -46.9641,-32.4908 C-46.583,-32.2023 -46.4528,-31.7165 -46.6089,-31.3274 L-50.6948,-20.338 L-53.2545,-13.533 C-53.3001,-13.217 -53.6536,-13.0789 -53.932,-13.3081 Z M-41.1058,-15.4863 L-45.5694,-8.82218 C-45.7769,-8.4628 -46.2332,-8.38395 -46.6222,-8.54009 C-47.2679,-8.84445 -47.884,-9.20014 -48.5001,-9.55584 C-49.0648,-9.88189 -49.5782,-10.1783 -50.1133,-10.5557 C-50.4727,-10.7632 -50.6029,-11.2491 -50.3954,-11.6085 L-46.7532,-18.7468 L-41.9095,-28.2035 C-41.702,-28.5629 -41.1865,-28.7444 -40.8567,-28.4856 C-40.0866,-28.041 -39.2948,-27.5154 -38.4734,-27.0411 C-37.4466,-26.4483 -36.4711,-25.8851 -35.466,-25.3732 C-35.0553,-25.1361 -34.9251,-24.6502 -35.2136,-24.2691 L-41.1058,-15.4863 Z M-23.7721,-19.3063 C-25.5818,-17.4761 -30.6276,-12.1749 -34.0257,-8.66048 C-35.0155,-7.65751 -36.0942,-6.50051 -36.7442,-5.84898 C-37.1136,-5.4462 -37.6805,-5.29431 -38.1801,-5.37742 C-39.3631,-5.58122 -40.6408,-5.97663 -42.0725,-6.46096 C-42.3588,-6.55782 -42.4673,-6.96273 -42.2678,-7.18979 L-37.6544,-12.8091 L-30.1801,-21.8423 C-29.8917,-22.2233 -29.3841,-22.2725 -28.9951,-22.1164 C-27.1606,-21.2626 -25.4208,-20.6004 -23.9891,-20.1161 C-23.5705,-20.0113 -23.4916,-19.5551 -23.7721,-19.3063 Z " fill="#ffa538" fill-opacity="1.00" />		</g>	</svg>