<?xml version="1.0" encoding="utf-8" ?>	<!-- Generator: Assembly 2.4 - http://assemblyapp.co -->	<svg version="1.1" xmlns="http://www.w3.org/2000/svg" xmlns:xlink="http://www.w3.org/1999/xlink" width="4096.00" height="4096.00" viewBox="0 0 4096.0 4096.0">		<g id="document" transform="scale(13.653333333333334 13.653333333333334) translate(150.0 150.0)">			<path d="M63.5628,149.253 C111.036,149.253 149.253,111.036 149.253,63.5628 L149.253,-63.9278 C149.253,-111.401 110.737,-149.618 63.5628,-149.618 L-63.9278,-149.618 C-111.401,-149.618 -149.618,-111.102 -149.618,-63.9278 L-149.618,63.5628 C-149.618,111.036 -111.102,149.253 -63.9278,149.253 L63.5628,149.253 Z " fill="#a5ae31" fill-opacity="1.00" />			<path d="M-79.9582,71.7942 C-78.6281,73.28 -77.2695,74.7396 -75.8597,76.1493 L-71.5046,71.7942 L-79.9582,71.7942 Z M-71.5046,71.7942 L-71.5046,80.2478 C-66.6364,84.6061 -61.3769,88.5354 -55.7726,91.9593 L-53.5561,89.7427 L-71.5046,71.7942 Z M-53.5561,89.7427 L-46.0851,97.2138 C-42.689,98.8368 -39.1889,100.273 -35.6076,101.539 L-35.6076,71.7942 L-53.5561,89.7427 Z M-30.9802,103.064 C-21.0821,106.063 -10.5879,107.691 0.289605,107.691 L-17.6589,89.7427 L-30.9802,103.064 Z M-35.6076,71.7942 L0.289605,71.7942 L-17.6589,89.7427 L-35.6076,71.7942 Z M0.289605,71.7942 L0.289605,107.691 L18.2381,89.7427 L0.289605,71.7942 Z M18.2381,89.7427 L31.5594,103.064 C33.1181,102.592 34.6588,102.08 36.1868,101.539 L36.1868,71.7942 L18.2381,89.7427 Z M46.6643,97.2138 C49.9913,95.6238 53.2243,93.8702 56.3518,91.9593 L54.1353,89.7427 L46.6643,97.2138 Z M36.1868,71.7942 L72.0838,71.7942 L54.1353,89.7427 L36.1868,71.7942 Z M72.0838,80.2477 C73.5697,78.9175 75.0292,77.5591 76.4389,76.1493 L72.0838,71.7942 L72.0838,80.2477 Z M90.0325,53.8457 L97.5034,46.3747 C99.1264,42.9787 100.563,39.4784 101.829,35.897 L72.0838,35.897 L90.0325,53.8457 Z M72.0838,71.7942 L80.5373,71.7942 C84.8956,66.926 88.8249,61.6667 92.249,56.0622 L90.0325,53.8457 L72.0838,71.7942 Z M54.1353,53.8457 L72.0838,35.897 L72.0838,71.7942 L54.1353,53.8457 Z M36.1868,35.897 L36.1868,71.7942 L54.1353,53.8457 L36.1868,35.897 Z M0.289605,35.897 L36.1868,35.897 L18.2381,53.8457 L0.289605,35.897 Z M0.289605,71.7942 L36.1868,71.7942 L18.2381,53.8457 L0.289605,71.7942 Z M-17.6589,53.8457 L0.289605,71.7942 L0.289605,35.897 L-17.6589,53.8457 Z M-35.6076,35.897 L-35.6076,71.7942 L-17.6589,53.8457 L-35.6076,35.897 Z M-53.5561,53.8457 L-71.5046,35.897 L-35.6076,35.897 L-53.5561,53.8457 Z M-71.5046,71.7942 L-35.6076,71.7942 L-53.5561,53.8457 L-71.5046,71.7942 Z M-89.4533,53.8457 L-71.5046,71.7942 L-71.5046,35.897 L-89.4533,53.8457 Z M-96.9242,46.3747 C-95.3342,49.7017 -93.5805,52.9348 -91.6698,56.0622 L-89.4533,53.8457 L-96.9242,46.3747 Z M-89.4533,17.9485 L-102.774,31.2697 C-102.302,32.8284 -101.79,34.3691 -101.25,35.897 L-71.5046,35.897 L-89.4533,17.9485 Z M-71.5046,1.87549e-15 L-107.402,1.87549e-15 L-89.4533,17.9485 L-71.5046,1.87549e-15 Z M-71.5046,1.87549e-15 L-71.5046,35.897 L-53.5561,17.9485 L-71.5046,1.87549e-15 Z M-53.5561,17.9485 L-35.6076,35.897 L-35.6076,1.87549e-15 L-53.5561,17.9485 Z M-35.6076,35.897 L0.289605,35.897 L-17.6589,17.9485 L-35.6076,35.897 Z M0.289605,1.87549e-15 L-35.6076,1.87549e-15 L-17.6589,17.9485 L0.289605,1.87549e-15 Z M0.289605,1.87549e-15 L0.289605,35.897 L18.2381,17.9485 L0.289605,1.87549e-15 Z M18.2381,17.9485 L36.1868,1.87549e-15 L36.1868,35.897 L18.2381,17.9485 Z M36.1868,35.897 L72.0838,35.897 L54.1353,17.9485 L36.1868,35.897 Z M54.1353,17.9485 L72.0838,1.87549e-15 L36.1868,1.87549e-15 L54.1353,17.9485 Z M72.0838,35.897 L72.0838,1.87549e-15 L90.0325,17.9485 L72.0838,35.897 Z M103.354,31.2697 C106.353,21.3716 107.981,10.8773 107.981,1.87549e-15 L90.0325,17.9485 L103.354,31.2697 Z M90.0325,-17.9487 L103.354,-31.2698 C102.881,-32.8285 102.369,-34.3692 101.829,-35.8972 L72.0838,-35.8972 L90.0325,-17.9487 Z M72.0838,1.87549e-15 L107.981,1.87549e-15 L90.0325,-17.9487 L72.0838,1.87549e-15 Z M72.0838,-35.8972 L72.0838,1.87549e-15 L54.1353,-17.9487 L72.0838,-35.8972 Z M36.1868,1.87549e-15 L54.1353,-17.9487 L36.1868,-35.8972 L36.1868,1.87549e-15 Z M36.1868,-35.8972 L0.289605,-35.8972 L18.2381,-17.9487 L36.1868,-35.8972 Z M0.289605,1.87549e-15 L36.1868,1.87549e-15 L18.2381,-17.9487 L0.289605,1.87549e-15 Z M0.289605,1.87549e-15 L0.289605,-35.8972 L-17.6589,-17.9487 L0.289605,1.87549e-15 Z M-17.6589,-17.9487 L-35.6076,1.87549e-15 L-35.6076,-35.8972 L-17.6589,-17.9487 Z M-35.6076,-35.8972 L-71.5046,-35.8972 L-53.5561,-17.9487 L-35.6076,-35.8972 Z M-53.5561,-17.9487 L-71.5046,1.87549e-15 L-35.6076,1.87549e-15 L-53.5561,-17.9487 Z M-71.5046,-35.8972 L-71.5046,1.87549e-15 L-89.4533,-17.9487 L-71.5046,-35.8972 Z M-102.774,-31.2698 C-105.774,-21.3717 -107.402,-10.8775 -107.402,1.87549e-15 L-89.4533,-17.9487 L-102.774,-31.2698 Z M-89.4533,-53.8457 L-96.9241,-46.3749 C-98.5471,-42.9787 -99.9833,-39.4786 -101.25,-35.8972 L-71.5046,-35.8972 L-89.4533,-53.8457 Z M-71.5046,-71.7943 L-79.9582,-71.7943 C-84.3166,-66.9261 -88.2458,-61.6666 -91.6698,-56.0622 L-89.4533,-53.8457 L-71.5046,-71.7943 Z M-53.5561,-53.8457 L-71.5046,-35.8972 L-71.5046,-71.7943 L-53.5561,-53.8457 Z M-35.6076,-35.8972 L-35.6076,-71.7943 L-53.5561,-53.8457 L-35.6076,-35.8972 Z M0.289605,-35.8972 L-35.6076,-35.8972 L-17.6589,-53.8457 L0.289605,-35.8972 Z M0.289605,-71.7943 L-35.6076,-71.7943 L-17.6589,-53.8457 L0.289605,-71.7943 Z M18.2381,-53.8457 L0.289605,-71.7943 L0.289605,-35.8972 L18.2381,-53.8457 Z M36.1868,-35.8972 L36.1868,-71.7943 L18.2381,-53.8457 L36.1868,-35.8972 Z M54.1353,-53.8457 L72.0838,-35.8972 L36.1868,-35.8972 L54.1353,-53.8457 Z M72.0838,-71.7943 L36.1868,-71.7943 L54.1353,-53.8457 L72.0838,-71.7943 Z M90.0325,-53.8457 L72.0838,-71.7943 L72.0838,-35.8972 L90.0325,-53.8457 Z M97.5033,-46.3749 C95.9133,-49.7017 94.1596,-52.9348 92.249,-56.0622 L90.0325,-53.8457 L97.5033,-46.3749 Z M80.5373,-71.7943 C79.2071,-73.2801 77.8487,-74.7396 76.4389,-76.1493 L72.0838,-71.7943 L80.5373,-71.7943 Z M72.0838,-71.7943 L72.0838,-80.2478 C67.2156,-84.6062 61.9563,-88.5354 56.3518,-91.9594 L54.1353,-89.7429 L72.0838,-71.7943 Z M54.1353,-89.7429 L46.6645,-97.2137 C43.2683,-98.8367 39.7682,-100.273 36.1868,-101.539 L36.1868,-71.7943 L54.1353,-89.7429 Z M31.5593,-103.064 C21.6612,-106.063 11.1671,-107.691 0.289605,-107.691 L18.2381,-89.7429 L31.5593,-103.064 Z M36.1868,-71.7943 L0.289605,-71.7943 L18.2381,-89.7429 L36.1868,-71.7943 Z M0.289605,-71.7943 L0.289605,-107.691 L-17.6589,-89.7429 L0.289605,-71.7943 Z M-17.6589,-89.7429 L-30.9801,-103.064 C-32.5388,-102.592 -34.0796,-102.079 -35.6076,-101.539 L-35.6076,-71.7943 L-17.6589,-89.7429 Z M-46.0853,-97.2137 C-49.4121,-95.6237 -52.6452,-93.8702 -55.7726,-91.9594 L-53.5561,-89.7429 L-46.0853,-97.2137 Z M-35.6076,-71.7943 L-71.5046,-71.7943 L-53.5561,-89.7429 L-35.6076,-71.7943 Z M-71.5046,-80.248 C-72.9904,-78.9177 -74.4499,-77.5591 -75.8597,-76.1493 L-71.5046,-71.7943 L-71.5046,-80.248 Z " fill="#ffffff" fill-opacity="1.00" />		</g>	</svg>