<?xml version="1.0" encoding="utf-8" ?>	<!-- Generator: Assembly 2.4 - http://assemblyapp.co -->	<svg version="1.1" xmlns="http://www.w3.org/2000/svg" xmlns:xlink="http://www.w3.org/1999/xlink" width="4096.00" height="4096.00" viewBox="0 0 4096.0 4096.0">		<g id="document" transform="scale(13.653333333333334 13.653333333333334) translate(150.0 150.0)">			<path d="M63.5628,149.253 C111.036,149.253 149.253,111.036 149.253,63.5628 L149.253,-63.9278 C149.253,-111.401 110.737,-149.618 63.5628,-149.618 L-63.9278,-149.618 C-111.401,-149.618 -149.618,-111.102 -149.618,-63.9278 L-149.618,63.5628 C-149.618,111.036 -111.102,149.253 -63.9278,149.253 L63.5628,149.253 Z " fill="#fabdbe" fill-opacity="1.00" />			<path d="M-86.2946,-141.319 L-86.2946,-150 L-89.0725,-150 L-86.2946,-141.319 Z M-75.1834,-150 L-80.739,-150 L-80.739,-123.958 L-75.1834,-106.597 L-75.1834,-150 Z M-48.7942,-150 L-62.6833,-150 L-62.6833,-67.5336 L-48.7942,-24.1303 L-48.7942,-150 Z M6.762,106.079 L6.762,-150 L-7.12705,-150 L-7.12705,106.08 L-0.182694,127.781 L6.762,106.079 Z M-30.7384,-150 L-36.2941,-150 L-36.2941,14.9328 L-30.7384,32.2941 L-30.7384,-150 Z M-19.6272,-150 L-25.1828,-150 L-25.1828,49.6554 L-19.6272,67.0168 L-19.6272,-150 Z M24.8178,-150 L19.2621,-150 L19.2621,67.0161 L24.8178,49.6548 L24.8178,-150 Z M35.929,-150 L30.3734,-150 L30.3734,32.2935 L35.929,14.9321 L35.929,-150 Z M62.3182,-150 L48.4292,-150 L48.4292,-24.1306 L62.3182,-67.5339 L62.3182,-150 Z M80.374,-150 L74.8184,-150 L74.8184,-106.597 L80.374,-123.958 L80.374,-150 Z M88.7074,-150 L85.9296,-141.319 L85.9296,-150 L88.7074,-150 Z " fill="#ffffff" fill-opacity="1.00" />		</g>	</svg>