<?xml version="1.0" encoding="utf-8" ?>	<!-- Generator: Assembly 2.4 - http://assemblyapp.co -->	<svg version="1.1" xmlns="http://www.w3.org/2000/svg" xmlns:xlink="http://www.w3.org/1999/xlink" width="4096.00" height="4096.00" viewBox="0 0 4096.0 4096.0">		<g id="document" transform="scale(13.653333333333334 13.653333333333334) translate(150.0 150.0)">			<path d="M63.5628,149.253 C111.036,149.253 149.253,111.036 149.253,63.5628 L149.253,-63.9278 C149.253,-111.401 110.737,-149.618 63.5628,-149.618 L-63.9278,-149.618 C-111.401,-149.618 -149.618,-111.102 -149.618,-63.9278 L-149.618,63.5628 C-149.618,111.036 -111.102,149.253 -63.9278,149.253 L63.5628,149.253 Z " fill="#579a78" fill-opacity="1.00" />			<path d="M-101.953,4.73935 L-97.0312,4.73935 L-97.0312,-0.182524 L-101.953,-0.182524 L-101.953,4.73935 Z M-96.0469,4.73935 L-91.125,4.73935 L-91.125,-0.182524 L-96.0469,-0.182524 L-96.0469,4.73935 Z M-90.1406,4.73935 L-85.2188,4.73935 L-85.2188,-0.182524 L-90.1406,-0.182524 L-90.1406,4.73935 Z M-84.2344,4.73935 L-79.3125,4.73935 L-79.3125,-0.182524 L-84.2344,-0.182524 L-84.2344,4.73935 Z M-78.2812,4.73935 L-73.3594,4.73935 L-73.3594,-0.182524 L-78.2812,-0.182524 L-78.2812,4.73935 Z M-72.4219,4.73935 L-67.5,4.73935 L-67.5,-0.182524 L-72.4219,-0.182524 L-72.4219,4.73935 Z M-66.4688,4.73935 L-61.5469,4.73935 L-61.5469,-0.182524 L-66.4688,-0.182524 L-66.4688,4.73935 Z M-60.5625,4.73935 L-55.6406,4.73935 L-55.6406,-0.182524 L-60.5625,-0.182524 L-60.5625,4.73935 Z M-101.953,10.6456 L-97.0312,10.6456 L-97.0312,5.72371 L-101.953,5.72371 L-101.953,10.6456 Z M-96.0469,10.6456 L-91.125,10.6456 L-91.125,5.72371 L-96.0469,5.72371 L-96.0469,10.6456 Z M-90.1406,10.6456 L-85.2188,10.6456 L-85.2188,5.72371 L-90.1406,5.72371 L-90.1406,10.6456 Z M-84.2344,10.6456 L-79.3125,10.6456 L-79.3125,5.72371 L-84.2344,5.72371 L-84.2344,10.6456 Z M-78.2812,10.6456 L-73.3594,10.6456 L-73.3594,5.72371 L-78.2812,5.72371 L-78.2812,10.6456 Z M-72.4219,10.6456 L-67.5,10.6456 L-67.5,5.72371 L-72.4219,5.72371 L-72.4219,10.6456 Z M-66.4688,10.6456 L-61.5469,10.6456 L-61.5469,5.72371 L-66.4688,5.72371 L-66.4688,10.6456 Z M-60.5625,10.6456 L-55.6406,10.6456 L-55.6406,5.72371 L-60.5625,5.72371 L-60.5625,10.6456 Z M-101.953,16.5518 L-97.0312,16.5518 L-97.0312,11.63 L-101.953,11.63 L-101.953,16.5518 Z M-96.0469,16.5518 L-91.125,16.5518 L-91.125,11.63 L-96.0469,11.63 L-96.0469,16.5518 Z M-90.1406,16.5518 L-85.2188,16.5518 L-85.2188,11.63 L-90.1406,11.63 L-90.1406,16.5518 Z M-84.2344,16.5518 L-79.3125,16.5518 L-79.3125,11.63 L-84.2344,11.63 L-84.2344,16.5518 Z M-78.2812,16.5518 L-73.3594,16.5518 L-73.3594,11.63 L-78.2812,11.63 L-78.2812,16.5518 Z M-72.4219,16.5518 L-67.5,16.5518 L-67.5,11.63 L-72.4219,11.63 L-72.4219,16.5518 Z M-66.4688,16.5518 L-61.5469,16.5518 L-61.5469,11.63 L-66.4688,11.63 L-66.4688,16.5518 Z M-60.5625,16.5518 L-55.6406,16.5518 L-55.6406,11.63 L-60.5625,11.63 L-60.5625,16.5518 Z M-101.953,22.4581 L-97.0312,22.4581 L-97.0312,17.5362 L-101.953,17.5362 L-101.953,22.4581 Z M-96.0469,22.4581 L-91.125,22.4581 L-91.125,17.5362 L-96.0469,17.5362 L-96.0469,22.4581 Z M-90.1406,22.4581 L-85.2188,22.4581 L-85.2188,17.5362 L-90.1406,17.5362 L-90.1406,22.4581 Z M-84.2344,22.4581 L-79.3125,22.4581 L-79.3125,17.5362 L-84.2344,17.5362 L-84.2344,22.4581 Z M-78.2812,22.4581 L-73.3594,22.4581 L-73.3594,17.5362 L-78.2812,17.5362 L-78.2812,22.4581 Z M-72.4219,22.4581 L-67.5,22.4581 L-67.5,17.5362 L-72.4219,17.5362 L-72.4219,22.4581 Z M-66.4688,22.4581 L-61.5469,22.4581 L-61.5469,17.5362 L-66.4688,17.5362 L-66.4688,22.4581 Z M-60.5625,22.4581 L-55.6406,22.4581 L-55.6406,17.5362 L-60.5625,17.5362 L-60.5625,22.4581 Z M-101.953,28.4112 L-97.0312,28.4112 L-97.0312,23.4894 L-101.953,23.4894 L-101.953,28.4112 Z M-96.0469,28.4112 L-91.125,28.4112 L-91.125,23.4894 L-96.0469,23.4894 L-96.0469,28.4112 Z M-90.1406,28.4112 L-85.2188,28.4112 L-85.2188,23.4894 L-90.1406,23.4894 L-90.1406,28.4112 Z M-84.2344,28.4112 L-79.3125,28.4112 L-79.3125,23.4894 L-84.2344,23.4894 L-84.2344,28.4112 Z M-78.2812,28.4112 L-73.3594,28.4112 L-73.3594,23.4894 L-78.2812,23.4894 L-78.2812,28.4112 Z M-72.4219,28.4112 L-67.5,28.4112 L-67.5,23.4894 L-72.4219,23.4894 L-72.4219,28.4112 Z M-66.4688,28.4112 L-61.5469,28.4112 L-61.5469,23.4894 L-66.4688,23.4894 L-66.4688,28.4112 Z M-60.5625,28.4112 L-55.6406,28.4112 L-55.6406,23.4894 L-60.5625,23.4894 L-60.5625,28.4112 Z M-101.953,34.2706 L-97.0312,34.2706 L-97.0312,29.3487 L-101.953,29.3487 L-101.953,34.2706 Z M-96.0469,34.2706 L-91.125,34.2706 L-91.125,29.3487 L-96.0469,29.3487 L-96.0469,34.2706 Z M-90.1406,34.2706 L-85.2188,34.2706 L-85.2188,29.3487 L-90.1406,29.3487 L-90.1406,34.2706 Z M-84.2344,34.2706 L-79.3125,34.2706 L-79.3125,29.3487 L-84.2344,29.3487 L-84.2344,34.2706 Z M-78.2812,34.2706 L-73.3594,34.2706 L-73.3594,29.3487 L-78.2812,29.3487 L-78.2812,34.2706 Z M-72.4219,34.2706 L-67.5,34.2706 L-67.5,29.3487 L-72.4219,29.3487 L-72.4219,34.2706 Z M-66.4688,34.2706 L-61.5469,34.2706 L-61.5469,29.3487 L-66.4688,29.3487 L-66.4688,34.2706 Z M-60.5625,34.2706 L-55.6406,34.2706 L-55.6406,29.3487 L-60.5625,29.3487 L-60.5625,34.2706 Z M-101.953,40.2237 L-97.0312,40.2237 L-97.0312,35.3018 L-101.953,35.3018 L-101.953,40.2237 Z M-96.0469,40.2237 L-91.125,40.2237 L-91.125,35.3018 L-96.0469,35.3018 L-96.0469,40.2237 Z M-90.1406,40.2237 L-85.2188,40.2237 L-85.2188,35.3018 L-90.1406,35.3018 L-90.1406,40.2237 Z M-84.2344,40.2237 L-79.3125,40.2237 L-79.3125,35.3018 L-84.2344,35.3018 L-84.2344,40.2237 Z M-78.2812,40.2237 L-73.3594,40.2237 L-73.3594,35.3018 L-78.2812,35.3018 L-78.2812,40.2237 Z M-72.4219,40.2237 L-67.5,40.2237 L-67.5,35.3018 L-72.4219,35.3018 L-72.4219,40.2237 Z M-66.4688,40.2237 L-61.5469,40.2237 L-61.5469,35.3018 L-66.4688,35.3018 L-66.4688,40.2237 Z M-60.5625,40.2237 L-55.6406,40.2237 L-55.6406,35.3018 L-60.5625,35.3018 L-60.5625,40.2237 Z M-101.953,46.13 L-97.0312,46.13 L-97.0312,41.2081 L-101.953,41.2081 L-101.953,46.13 Z M-96.0469,46.13 L-91.125,46.13 L-91.125,41.2081 L-96.0469,41.2081 L-96.0469,46.13 Z M-90.1406,46.13 L-85.2188,46.13 L-85.2188,41.2081 L-90.1406,41.2081 L-90.1406,46.13 Z M-84.2344,46.13 L-79.3125,46.13 L-79.3125,41.2081 L-84.2344,41.2081 L-84.2344,46.13 Z M-78.2812,46.13 L-73.3594,46.13 L-73.3594,41.2081 L-78.2812,41.2081 L-78.2812,46.13 Z M-72.4219,46.13 L-67.5,46.13 L-67.5,41.2081 L-72.4219,41.2081 L-72.4219,46.13 Z M-66.4688,46.13 L-61.5469,46.13 L-61.5469,41.2081 L-66.4688,41.2081 L-66.4688,46.13 Z M-60.5625,46.13 L-55.6406,46.13 L-55.6406,41.2081 L-60.5625,41.2081 L-60.5625,46.13 Z " fill="#ffa538" fill-opacity="1.00" />			<path d="M-65.0156,93.005 L-55.6406,93.005 L-55.6406,46.13 L-65.0156,46.13 L-65.0156,93.005 Z " fill="#ffa538" fill-opacity="1.00" />			<path d="M-8.7656,12.0041 C-8.7656,-0.93342 -19.2656,-11.4334 -32.2031,-11.4334 C-45.1406,-11.4334 -55.6406,-0.93342 -55.6406,12.0041 C-55.6406,24.9416 -45.1406,35.4416 -32.2031,35.4416 C-19.2656,35.4416 -8.7656,24.9416 -8.7656,12.0041 Z M-32.2031,-2.05842 C-24.4219,-2.05842 -18.1406,4.22283 -18.1406,12.0041 C-18.1406,19.7853 -24.4219,26.0666 -32.2031,26.0666 C-39.9844,26.0666 -46.2656,19.7853 -46.2656,12.0041 C-46.2656,4.22283 -39.9844,-2.05842 -32.2031,-2.05842 Z " fill="#ccdae0" fill-opacity="1.00" />			<path d="M-40.7086,150 L-24.0928,150 C-24.0928,136.209 -12.9603,125.076 0.830787,125.076 C14.6219,125.076 25.7544,136.209 25.7544,150 L42.3702,150 C42.3702,127.07 23.7605,108.461 0.830787,108.461 C-22.0989,108.461 -40.7086,127.07 -40.7086,150 Z " fill="#ccdae0" fill-opacity="1.00" />			<path d="M149.253,60.3548 L96.2831,60.3548 C92.1212,60.3548 88.7159,56.9495 88.7159,52.7876 C88.7159,48.6257 92.1212,45.2204 96.2831,45.2204 L126.552,45.2204 C139.113,45.2204 149.253,35.0804 149.253,22.519 C149.253,9.95747 139.113,-0.182524 126.552,-0.182524 L73.5816,-0.182522 L73.5816,14.9518 L126.552,14.9518 C130.714,14.9518 134.119,18.357 134.119,22.519 C134.119,26.6809 130.714,30.0861 126.552,30.0861 L96.2831,30.0861 C83.7216,30.0861 73.5816,40.2261 73.5816,52.7876 C73.5816,65.3491 83.7216,75.4891 96.2831,75.4891 L149.253,75.4891 L149.253,60.3548 Z " fill="#da4620" fill-opacity="1.00" />			<path d="M149.253,-50.9531 L149.253,-60.3281 C123.378,-60.3281 102.378,-39.3281 102.378,-13.4531 L111.753,-13.4531 C111.753,-34.1719 128.534,-50.9531 149.253,-50.9531 Z " fill="#ffa538" fill-opacity="1.00" />			<path d="M64.8782,-58.6875 L64.8782,-49.3125 C90.7532,-49.3125 111.753,-70.3125 111.753,-96.1875 L102.378,-96.1875 C102.378,-75.4687 85.597,-58.6875 64.8782,-58.6875 Z " fill="#ffa538" fill-opacity="1.00" />			<path d="M55.5032,-72.75 L55.5032,-49.3125 L64.8782,-49.3125 L64.8782,-72.75 C64.8782,-85.6875 54.3782,-96.1875 41.4407,-96.1875 L41.4407,-86.8125 C49.222,-86.8125 55.5032,-80.5312 55.5032,-72.75 Z " fill="#ffa538" fill-opacity="1.00" />			<path d="M48.5282,99.472 L48.5282,53.1595 L30.0032,53.1595 L30.0032,99.472 C30.0032,125.037 50.7512,145.785 76.3157,145.785 L76.3157,127.26 C60.94,127.26 48.5282,114.848 48.5282,99.472 Z " fill="#023649" fill-opacity="1.00" />			<path d="M60.2825,23.4375 C60.2825,34.4758 51.3721,43.3861 40.3339,43.3861 L7.08613,43.3861 L7.08613,56.6852 L40.3339,56.6852 C58.6866,56.6852 73.5816,41.7903 73.5816,23.4375 L73.5816,-9.81024 L60.2825,-9.81024 L60.2825,23.4375 Z " fill="#fce29b" fill-opacity="1.00" />			<path d="M96.2089,-28.12 C96.2089,-43.5416 83.6929,-56.0576 68.2714,-56.0576 C52.8499,-56.0576 40.3339,-43.5416 40.3339,-28.12 C40.3339,-12.6985 52.8499,-0.182524 68.2714,-0.182524 C83.6929,-0.182524 96.2089,-12.6985 96.2089,-28.12 Z M68.2714,-44.8826 C77.5467,-44.8826 85.0339,-37.3953 85.0339,-28.12 C85.0339,-18.8448 77.5467,-11.3575 68.2714,-11.3575 C58.9961,-11.3575 51.5089,-18.8448 51.5089,-28.12 C51.5089,-37.3953 58.9961,-44.8826 68.2714,-44.8826 Z " fill="#fce29b" fill-opacity="1.00" />			<path d="M9.33626,48.7978 C9.33626,37.333 0.0314454,28.0281 -11.4334,28.0281 C-22.8983,28.0281 -32.2031,37.333 -32.2031,48.7978 C-32.2031,60.2627 -22.8983,69.5675 -11.4334,69.5675 C0.0314454,69.5675 9.33626,60.2627 9.33626,48.7978 Z M-11.4334,36.336 C-4.53788,36.336 1.02839,41.9023 1.02839,48.7978 C1.02839,55.6934 -4.53788,61.2596 -11.4334,61.2596 C-18.329,61.2596 -23.8952,55.6934 -23.8952,48.7978 C-23.8952,41.9023 -18.329,36.336 -11.4334,36.336 Z " fill="#fce29b" fill-opacity="1.00" />			<path d="M28.1416,-83.5045 L41.4407,-83.5045 L41.4407,-150 L28.1416,-150 L28.1416,-83.5045 Z " fill="#fce29b" fill-opacity="1.00" />			<path d="M8.19297,-63.5559 L-25.0548,-63.5559 L-25.0548,-50.2568 L8.19297,-50.2568 C26.5457,-50.2568 41.4407,-65.1518 41.4407,-83.5045 L28.1416,-83.5045 C28.1416,-72.4663 19.2312,-63.5559 8.19297,-63.5559 Z " fill="#fce29b" fill-opacity="1.00" />			<path d="M-45.5022,-50.2568 C-45.5022,-39.2185 -54.4126,-30.3081 -65.4508,-30.3081 L-98.6986,-30.3081 L-98.6986,-17.009 L-65.4508,-17.009 C-47.0981,-17.009 -32.2031,-31.904 -32.2031,-50.2568 L-32.2031,-83.5045 L-45.5022,-83.5045 L-45.5022,-50.2568 Z " fill="#023649" fill-opacity="1.00" />			<path d="M-78.5156,-129.817 L-78.5156,-120.555 L-32.2031,-120.555 L-32.2031,-129.817 L-78.5156,-129.817 Z M-78.5156,-92.767 L-78.5156,-83.5045 L-32.2031,-83.5045 L-32.2031,-92.767 L-78.5156,-92.767 Z " fill="#023649" fill-opacity="1.00" />			<path d="M-25.0548,-83.1228 L-11.7557,-83.1228 L-11.7557,-149.618 L-25.0548,-149.618 L-25.0548,-83.1228 Z " fill="#023649" fill-opacity="1.00" />			<path d="M-9.76996e-15,-83.1228 L13.2991,-83.1228 L13.2991,-149.618 L-9.76996e-15,-149.618 L-9.76996e-15,-83.1228 Z " fill="#023649" fill-opacity="1.00" />			<path d="M-78.7969,96.0568 C-67.7586,96.0568 -58.8482,104.967 -58.8482,116.005 L-58.8482,149.253 L-45.5491,149.253 L-45.5491,116.005 C-45.5491,97.6527 -60.4441,82.7577 -78.7969,82.7577 L-112.045,82.7577 L-112.045,96.0568 L-78.7969,96.0568 Z " fill="#023649" fill-opacity="1.00" />			<path d="M-125.572,103.08 L-112.045,103.08 L-112.045,35.4416 L-125.572,35.4416 L-125.572,103.08 Z " fill="#c02819" fill-opacity="1.00" />			<path d="M-125.572,22.9737 L-112.045,22.9737 L-112.045,-44.6646 L-125.572,-44.6646 L-125.572,22.9737 Z " fill="#c02819" fill-opacity="1.00" />			<path d="M-125.572,-44.6646 L-112.045,-44.6646 L-112.045,-112.303 L-125.572,-112.303 L-125.572,-44.6646 Z " fill="#c02819" fill-opacity="1.00" />		</g>	</svg>