<?xml version="1.0" encoding="utf-8" ?>	<!-- Generator: Assembly 2.4 - http://assemblyapp.co -->	<svg version="1.1" xmlns="http://www.w3.org/2000/svg" xmlns:xlink="http://www.w3.org/1999/xlink" width="4096.00" height="4096.00" viewBox="0 0 4096.0 4096.0">		<g id="document" transform="scale(13.653333333333334 13.653333333333334) translate(150.0 150.0)">			<path d="M63.5628,149.253 C111.036,149.253 149.253,111.036 149.253,63.5628 L149.253,-63.9278 C149.253,-111.401 110.737,-149.618 63.5628,-149.618 L-63.9278,-149.618 C-111.401,-149.618 -149.618,-111.102 -149.618,-63.9278 L-149.618,63.5628 C-149.618,111.036 -111.102,149.253 -63.9278,149.253 L63.5628,149.253 Z " fill="#ffa538" fill-opacity="1.00" />			<path d="M-146.648,-29.7248 C-148.59,-20.1029 -149.618,-10.1497 -149.618,0.0445264 C-149.618,3.84763 -149.429,7.60458 -149.151,11.3364 L-112.019,11.3364 L-112.019,-29.7248 L-146.648,-29.7248 L-146.648,-29.7248 Z M93.2872,11.3364 L134.348,11.3364 L134.348,-29.7248 L93.2872,-29.7248 L93.2872,11.3364 Z M116.949,93.4591 L93.2872,93.4591 L93.2872,117.083 C102.027,110.112 109.965,102.188 116.949,93.4591 Z M11.1645,149.26 C18.1515,148.746 25.0074,147.772 31.6951,146.332 L31.6951,134.52 L11.1645,134.52 L11.1645,149.26 Z M-50.4275,140.965 C-43.786,143.344 -36.9348,145.282 -29.8968,146.712 L-29.8968,134.52 L-50.4275,134.52 L-50.4275,140.965 Z M72.7564,93.4591 L93.2871,93.4591 L93.2871,72.9284 L72.7564,72.9284 L72.7564,93.4591 Z M31.6951,134.52 L65.7877,134.52 C68.1481,133.364 70.468,132.14 72.7564,130.866 L72.7564,93.4591 L31.6951,93.4591 L31.6951,134.52 Z M11.1645,93.4591 L31.6952,93.4591 L31.6952,72.9284 L11.1645,72.9284 L11.1645,93.4591 Z M-29.8968,134.52 L11.1644,134.52 L11.1644,93.4591 L-29.8968,93.4591 L-29.8968,134.52 Z M-50.4275,93.4591 L-29.8968,93.4591 L-29.8968,72.9284 L-50.4275,72.9284 L-50.4275,93.4591 Z M-112.019,99.1982 L-112.019,93.4591 L-116.847,93.4591 C-115.284,95.4124 -113.677,97.3267 -112.019,99.1982 Z M-91.4887,93.4591 L-91.4887,118.416 C-83.4885,124.612 -74.8575,130.028 -65.6851,134.52 L-50.4275,134.52 L-50.4275,93.4591 L-91.4887,93.4591 Z M-112.019,93.4591 L-91.4888,93.4591 L-91.4888,72.9284 L-112.019,72.9284 L-112.019,93.4591 Z M93.2872,72.9284 L130.77,72.9284 C132.017,70.6958 133.214,68.4313 134.348,66.13 L134.348,31.8672 L93.2872,31.8672 L93.2872,72.9284 Z M72.7564,-29.7248 L93.2871,-29.7248 L93.2871,-50.2555 L72.7564,-50.2555 L72.7564,-29.7248 Z M146.751,-29.7248 C145.33,-36.7623 143.402,-43.6133 141.032,-50.2555 L134.348,-50.2555 L134.348,-29.7248 L146.751,-29.7248 Z M11.1645,-29.7248 L31.6952,-29.7248 L31.6952,-50.2555 L11.1645,-50.2555 L11.1645,-29.7248 Z M-50.4275,-29.7248 L-29.8968,-29.7248 L-29.8968,-50.2555 L-50.4275,-50.2555 L-50.4275,-29.7248 Z M-112.019,-29.7248 L-91.4888,-29.7248 L-91.4888,-50.2555 L-112.019,-50.2555 L-112.019,-29.7248 Z M72.7564,31.8672 L93.2871,31.8672 L93.2871,11.3364 L72.7564,11.3364 L72.7564,31.8672 Z M134.348,11.3364 L134.348,31.8672 L146.297,31.8672 C147.746,25.1796 148.731,18.3241 149.253,11.3364 L134.348,11.3364 Z M31.6951,11.3364 L72.7564,11.3364 L72.7564,-29.7248 L31.6951,-29.7248 L31.6951,11.3364 Z M31.6951,72.9284 L72.7564,72.9284 L72.7564,31.8672 L31.6951,31.8672 L31.6951,72.9284 Z M11.1645,31.8672 L31.6952,31.8672 L31.6952,11.3364 L11.1645,11.3364 L11.1645,31.8672 Z M-29.8968,11.3364 L11.1644,11.3364 L11.1644,-29.7248 L-29.8968,-29.7248 L-29.8968,11.3364 Z M-29.8968,72.9284 L11.1644,72.9284 L11.1644,31.8672 L-29.8968,31.8672 L-29.8968,72.9284 Z M-50.4275,31.8672 L-29.8968,31.8672 L-29.8968,11.3364 L-50.4275,11.3364 L-50.4275,31.8672 Z M-91.4887,11.3364 L-50.4275,11.3364 L-50.4275,-29.7248 L-91.4887,-29.7248 L-91.4887,11.3364 Z M-146.195,31.8672 C-143.033,46.4633 -137.746,60.2604 -130.667,72.9284 L-112.019,72.9284 L-112.019,31.8672 L-146.195,31.8672 Z M-91.4887,72.9284 L-50.4275,72.9284 L-50.4275,31.8672 L-91.4887,31.8672 L-91.4887,72.9284 Z M-112.019,31.8672 L-91.4888,31.8672 L-91.4888,11.3364 L-112.019,11.3364 L-112.019,31.8672 Z M93.2872,-116.994 L93.2872,-111.848 L99.4113,-111.848 C97.4184,-113.619 95.3732,-115.33 93.2872,-116.994 Z M134.348,-50.2555 L134.348,-66.0409 C129.924,-75.0139 124.622,-83.4695 118.563,-91.3168 L93.2872,-91.3168 L93.2872,-50.2555 L134.348,-50.2555 L134.348,-50.2555 Z M72.7564,-91.3168 L93.2871,-91.3168 L93.2871,-111.848 L72.7564,-111.848 L72.7564,-91.3168 Z M72.7564,-130.777 C60.0857,-137.834 46.2885,-143.1 31.6951,-146.243 L31.6951,-111.848 L72.7564,-111.848 L72.7564,-130.777 Z M31.6951,-50.2555 L72.7564,-50.2555 L72.7564,-91.3168 L31.6951,-91.3168 L31.6951,-50.2555 Z M11.1645,-91.3168 L31.6952,-91.3168 L31.6952,-111.848 L11.1645,-111.848 L11.1645,-91.3168 Z M11.1645,-149.171 C7.49091,-149.441 3.79361,-149.625 0.0512536,-149.625 C-10.2057,-149.625 -20.2199,-148.588 -29.8968,-146.623 L-29.8968,-111.848 L11.1645,-111.848 L11.1645,-149.171 Z M-29.8968,-50.2555 L11.1644,-50.2555 L11.1644,-91.3168 L-29.8968,-91.3168 L-29.8968,-50.2555 Z M-50.4275,-91.3168 L-29.8968,-91.3168 L-29.8968,-111.848 L-50.4275,-111.848 L-50.4275,-91.3168 Z M-50.4275,-140.876 C-65.3605,-135.526 -79.1802,-127.86 -91.4887,-118.327 L-91.4887,-111.848 L-50.4275,-111.848 L-50.4275,-140.876 Z M-118.461,-91.3168 C-127.966,-79.0047 -135.603,-65.1834 -140.929,-50.2555 L-112.019,-50.2555 L-112.019,-91.3168 L-118.461,-91.3168 Z M-91.4887,-50.2555 L-50.4275,-50.2555 L-50.4275,-91.3168 L-91.4887,-91.3168 L-91.4887,-50.2555 Z M-91.4887,-111.848 L-99.3088,-111.848 C-103.797,-107.859 -108.039,-103.605 -112.019,-99.109 L-112.019,-91.3168 L-91.4887,-91.3168 L-91.4887,-111.848 Z " fill="#ffffff" fill-opacity="1.00" />		</g>	</svg>