<?xml version="1.0" encoding="utf-8" ?>	<!-- Generator: Assembly 2.4 - http://assemblyapp.co -->	<svg version="1.1" xmlns="http://www.w3.org/2000/svg" xmlns:xlink="http://www.w3.org/1999/xlink" width="4096.00" height="4096.00" viewBox="0 0 4096.0 4096.0">		<g id="document" transform="scale(13.653333333333334 13.653333333333334) translate(150.0 150.0)">			<path d="M63.5628,149.253 C111.036,149.253 149.253,111.036 149.253,63.5628 L149.253,-63.9278 C149.253,-111.401 110.737,-149.618 63.5628,-149.618 L-63.9278,-149.618 C-111.401,-149.618 -149.618,-111.102 -149.618,-63.9278 L-149.618,63.5628 C-149.618,111.036 -111.102,149.253 -63.9278,149.253 L63.5628,149.253 Z " fill="#542237" fill-opacity="1.00" />			<path d="M118.313,7.21333e-05 L118.313,5.90771e-08 L111.588,-6.72508 L104.792,0.0714667 C108.506,3.78564 114.56,3.75362 118.313,7.21333e-05 Z M96.7471,6.8745 L103.544,0.0780291 L96.8185,-6.64705 C93.0648,-2.89343 93.0329,3.16033 96.7471,6.8745 Z M97.4459,-7.27446 L97.4458,-7.27439 L104.171,-0.549305 L110.967,-7.34585 C107.253,-11.06 101.199,-11.028 97.4459,-7.27446 Z M104.093,14.2204 C107.847,10.4667 107.878,4.41298 104.164,0.698801 L97.3678,7.49528 L104.093,14.2204 Z M103.466,14.8478 L103.466,14.8477 L96.7405,8.12261 L89.944,14.9192 C93.6581,18.6333 99.712,18.6013 103.466,14.8478 Z M81.8994,21.7222 L88.6959,14.9257 L81.9708,8.20064 C78.2172,11.9543 78.1852,18.008 81.8994,21.7222 Z M82.5982,7.57323 L82.5981,7.57331 L89.3232,14.2984 L96.1197,7.50184 C92.4056,3.78766 86.3517,3.81968 82.5982,7.57323 Z M89.2452,29.068 C92.9988,25.3145 93.0308,19.2607 89.3166,15.5465 L82.5202,22.343 L89.2452,29.068 Z M88.6178,29.6955 L81.8927,22.9704 L75.0963,29.7668 C78.8104,33.481 84.8642,33.4491 88.6178,29.6955 Z M67.0516,36.57 L73.8481,29.7735 L67.123,23.0484 C63.3694,26.802 63.3374,32.8558 67.0516,36.57 Z M67.7504,22.421 L74.4755,29.1461 L81.272,22.3496 C77.5578,18.6354 71.504,18.6674 67.7504,22.421 Z M74.3975,43.9158 C78.1511,40.1622 78.183,34.1084 74.4689,30.3943 L67.6724,37.1907 L74.3975,43.9158 Z M73.7701,44.5432 L73.7701,44.5431 L67.0451,37.8181 L60.2485,44.6146 C63.9627,48.3288 70.0165,48.2968 73.7701,44.5432 Z M52.2039,51.4176 L59.0004,44.6212 L52.2753,37.8961 C48.5217,41.6497 48.4898,47.7035 52.2039,51.4176 Z M52.9027,37.2687 L52.9027,37.2688 L59.6277,43.9938 L66.4243,37.1973 C62.7101,33.4831 56.6563,33.5151 52.9027,37.2687 Z M59.5498,58.7635 C63.3033,55.01 63.3354,48.9561 59.6212,45.2419 L52.8247,52.0384 L59.5498,58.7635 Z M58.9224,59.3909 L52.1973,52.6658 L45.4008,59.4623 C49.115,63.1765 55.1688,63.1445 58.9224,59.3909 Z M37.3562,66.2654 L44.1526,59.4689 L37.4276,52.7439 C33.674,56.4974 33.642,62.5512 37.3562,66.2654 Z M38.055,52.1165 L44.78,58.8415 L51.5765,52.0451 C47.8623,48.3309 41.8085,48.3629 38.055,52.1165 Z M44.702,73.6113 C48.4556,69.8576 48.4876,63.8039 44.7734,60.0897 L37.9769,66.8862 L44.702,73.6113 Z M44.0746,74.2387 L44.0747,74.2386 L37.3496,67.5135 L30.5531,74.3101 C34.2672,78.0242 40.3211,77.9922 44.0746,74.2387 Z M22.5085,81.1131 L29.3049,74.3166 L22.5799,67.5915 C18.8262,71.3452 18.7943,77.3989 22.5085,81.1131 Z M23.2073,66.9641 L23.2072,66.9642 L29.9323,73.6893 L36.7288,66.8927 C33.0147,63.1786 26.9608,63.2106 23.2073,66.9641 Z M29.8543,88.459 C33.6079,84.7053 33.6399,78.6516 29.9257,74.9374 L23.1292,81.7339 L29.8543,88.459 Z M29.2269,89.0864 L22.5018,82.3613 L15.7054,89.1578 C19.4195,92.8719 25.4734,92.8399 29.2269,89.0864 Z M7.66071,95.9609 L14.4572,89.1644 L7.7321,82.4393 C3.97855,86.1929 3.94653,92.2467 7.66071,95.9609 Z M8.35951,81.8119 L15.0846,88.537 L21.8811,81.7405 C18.1669,78.0263 12.1131,78.0583 8.35951,81.8119 Z M15.0066,103.307 C18.7602,99.5531 18.7921,93.4993 15.078,89.7852 L8.28148,96.5816 L15.0066,103.307 Z M14.3792,103.934 L14.3792,103.934 L7.65415,97.209 L0.8576,104.006 C4.57178,107.72 10.6256,107.688 14.3792,103.934 Z M-7.187,110.809 L-0.390525,104.012 L-7.1156,97.287 C-10.8692,101.041 -10.9012,107.094 -7.187,110.809 Z M-6.48818,96.6596 L-6.48825,96.6597 L0.236828,103.385 L7.03338,96.5882 C3.3192,92.874 -2.73463,92.906 -6.48818,96.6596 Z M0.158853,118.154 C3.91248,114.401 3.94442,108.347 0.230248,104.633 L-6.56623,111.429 L0.158853,118.154 Z M89.2722,-15.448 L96.0688,-22.2445 L89.3437,-28.9695 L89.3437,-28.9695 C85.5901,-25.2159 85.5581,-19.1621 89.2722,-15.448 Z M95.9907,-7.4748 L89.2657,-14.1998 L82.4692,-7.40333 C86.1833,-3.68922 92.2371,-3.72117 95.9907,-7.4748 Z M96.6181,-8.10213 L96.6181,-8.1022 C100.372,-11.8558 100.404,-17.9096 96.6896,-21.6237 L89.893,-14.8271 L96.6181,-8.10213 Z M75.1234,-14.7492 L81.8484,-8.02417 L88.6449,-14.8206 C84.9308,-18.5348 78.877,-18.5028 75.1234,-14.7492 Z M74.4245,-0.600291 L81.2211,-7.39684 L74.4961,-14.1218 L74.496,-14.1218 C70.7424,-10.3682 70.7104,-4.3144 74.4245,-0.600291 Z M81.143,7.3729 L74.418,0.647888 L67.6215,7.44436 C71.3357,11.1585 77.3894,11.1265 81.143,7.3729 Z M81.7704,6.74556 L81.7704,6.74549 C85.524,2.99194 85.556,-3.06189 81.8419,-6.77599 L75.0454,0.020553 L81.7704,6.74556 Z M60.2757,0.0985101 L67.0007,6.82352 L73.7972,0.0270434 C70.0831,-3.68706 64.0292,-3.65504 60.2757,0.0985101 Z M59.5768,14.2474 L66.3733,7.45092 L59.6483,0.725917 C55.8947,4.47954 55.8627,10.5333 59.5768,14.2474 Z M66.2953,22.2207 L59.5703,15.4957 L52.7738,22.2921 C56.4879,26.0062 62.5416,25.9743 66.2953,22.2207 Z M66.9227,21.5933 C70.6762,17.8397 70.7082,11.7859 66.9941,8.07177 L60.1977,14.8682 L66.9227,21.5933 Z M45.4279,14.9463 L52.1529,21.6713 L58.9494,14.8748 C55.2353,11.1607 49.1816,11.1926 45.4279,14.9463 Z M44.7291,29.0952 L51.5256,22.2986 L44.8006,15.5736 L44.8005,15.5737 C41.047,19.3272 41.015,25.3811 44.7291,29.0952 Z M51.4476,37.0684 L44.7226,30.3433 L37.9261,37.1398 C41.6402,40.8539 47.694,40.822 51.4476,37.0684 Z M52.0749,36.441 L52.075,36.4409 C55.8285,32.6874 55.8606,26.6336 52.1465,22.9195 L45.3499,29.716 L52.0749,36.441 Z M30.5802,29.794 L37.3053,36.519 L44.1017,29.7225 C40.3876,26.0084 34.3338,26.0404 30.5802,29.794 Z M29.8814,43.9429 L36.6778,37.1464 L29.9528,30.4214 C26.1993,34.1749 26.1673,40.2287 29.8814,43.9429 Z M36.5998,51.9161 L29.8748,45.1911 L23.0783,51.9876 C26.7924,55.7017 32.8463,55.6697 36.5998,51.9161 Z M37.2272,51.2887 C40.9808,47.5352 41.0128,41.4813 37.2987,37.7672 L30.5022,44.5637 L37.2272,51.2887 Z M15.7325,44.6417 L22.4575,51.3667 L29.254,44.5703 C25.5399,40.8562 19.4861,40.8881 15.7325,44.6417 Z M15.0336,58.7906 L21.8302,51.9941 L15.1051,45.2691 L15.1051,45.2691 C11.3515,49.0227 11.3195,55.0765 15.0336,58.7906 Z M21.7521,66.7638 L15.0271,60.0388 L8.23064,66.8353 C11.9447,70.5494 17.9985,70.5174 21.7521,66.7638 Z M22.3795,66.1365 L22.3795,66.1364 C26.1331,62.3828 26.1651,56.329 22.451,52.6149 L15.6544,59.4115 L22.3795,66.1365 Z M0.884788,59.4894 L7.6098,66.2144 L14.4063,59.418 C10.6922,55.7038 4.63841,55.7358 0.884788,59.4894 Z M0.185914,73.6383 L6.98239,66.8418 L0.257381,60.1168 C-3.49617,63.8704 -3.52819,69.9242 0.185914,73.6383 Z M6.90436,81.6116 L0.179352,74.8866 L-6.61712,81.683 C-2.90302,85.3971 3.15081,85.3651 6.90436,81.6116 Z M7.53177,80.9842 C11.2854,77.2305 11.3173,71.1768 7.60323,67.4627 L0.806759,74.2592 L7.53177,80.9842 Z M-13.963,74.3372 L-7.23797,81.0622 L-0.441492,74.2657 C-4.1556,70.5516 -10.2094,70.5836 -13.963,74.3372 Z M-14.6618,88.4861 L-7.8653,81.6895 L-14.5903,74.9645 L-14.5904,74.9646 C-18.3439,78.7181 -18.376,84.772 -14.6618,88.4861 Z M-7.94335,96.4593 L-14.6684,89.7343 L-21.4648,96.5307 C-17.7507,100.245 -11.697,100.213 -7.94335,96.4593 Z M-7.316,95.8319 L-7.31592,95.8319 C-3.56237,92.0783 -3.53035,86.0245 -7.24446,82.3104 L-14.041,89.1069 L-7.316,95.8319 Z M-28.8107,89.1849 L-22.0857,95.9099 L-15.2892,89.1134 C-19.0033,85.3993 -25.0571,85.4313 -28.8107,89.1849 Z M29.1283,-89.1848 L29.1284,-89.1849 L22.4033,-95.91 L15.6068,-89.1134 C19.321,-85.3992 25.3748,-85.4312 29.1283,-89.1848 Z M7.5622,-82.3104 L14.3587,-89.1068 L7.63359,-95.8319 C3.87997,-92.0783 3.84802,-86.0245 7.5622,-82.3104 Z M8.261,-96.4593 L8.26093,-96.4593 L14.986,-89.7342 L21.7826,-96.5307 C18.0684,-100.245 12.0146,-100.213 8.261,-96.4593 Z M14.9081,-74.9645 C18.6617,-78.7181 18.6936,-84.7719 14.9794,-88.4861 L8.18297,-81.6896 L14.9081,-74.9645 Z M14.2806,-74.3371 L14.2807,-74.3372 L7.55564,-81.0623 L0.75909,-74.2657 C4.47327,-70.5515 10.5271,-70.5836 14.2806,-74.3371 Z M-7.28549,-67.4627 L-0.489017,-74.2592 L-7.2141,-80.9842 C-10.9677,-77.2306 -10.9997,-71.1769 -7.28549,-67.4627 Z M-6.58669,-81.6116 L-6.58676,-81.6116 L0.138318,-74.8865 L6.93486,-81.683 C3.22069,-85.3972 -2.83314,-85.3652 -6.58669,-81.6116 Z M0.0603608,-60.1168 C3.81391,-63.8704 3.84593,-69.9242 0.131755,-73.6384 L-6.66472,-66.8419 L0.0603608,-60.1168 Z M-0.567046,-59.4894 L-7.29213,-66.2145 L-14.0886,-59.418 C-10.3744,-55.7038 -4.32067,-55.7358 -0.567046,-59.4894 Z M-22.1333,-52.6149 L-15.3368,-59.4114 L-22.0619,-66.1365 C-25.8155,-62.3828 -25.8474,-56.3291 -22.1333,-52.6149 Z M-21.4345,-66.7639 L-14.7094,-60.0388 L-7.9129,-66.8353 C-11.6271,-70.5494 -17.6809,-70.5174 -21.4345,-66.7639 Z M-14.7874,-45.2691 C-11.0338,-49.0227 -11.0018,-55.0764 -14.716,-58.7906 L-21.5125,-51.9941 L-14.7874,-45.2691 Z M-15.4148,-44.6417 L-15.4147,-44.6417 L-22.1398,-51.3668 L-28.9364,-44.5703 C-25.2222,-40.8561 -19.1684,-40.8881 -15.4148,-44.6417 Z M-36.9809,-37.7672 L-30.1845,-44.5637 L-36.9096,-51.2888 C-40.6632,-47.5352 -40.6951,-41.4814 -36.9809,-37.7672 Z M-36.2821,-51.9162 L-36.2822,-51.9161 L-29.5571,-45.191 L-22.7606,-51.9876 C-26.4748,-55.7018 -32.5286,-55.6697 -36.2821,-51.9162 Z M-29.6351,-30.4214 C-25.8815,-34.1749 -25.8495,-40.2288 -29.5637,-43.9429 L-36.3602,-37.1465 L-29.6351,-30.4214 Z M-30.2625,-29.794 L-36.9876,-36.519 L-43.7841,-29.7226 C-40.0699,-26.0084 -34.0161,-26.0404 -30.2625,-29.794 Z M-51.8287,-22.9195 L-45.0322,-29.7159 L-51.7573,-36.441 C-55.5109,-32.6875 -55.5429,-26.6336 -51.8287,-22.9195 Z M-51.1299,-37.0684 L-44.4048,-30.3433 L-37.6084,-37.1398 C-41.3225,-40.854 -47.3764,-40.822 -51.1299,-37.0684 Z M-44.4829,-15.5736 C-40.7292,-19.3272 -40.6973,-25.381 -44.4115,-29.0952 L-51.2079,-22.2987 L-44.4829,-15.5736 Z M-45.1103,-14.9462 L-45.1102,-14.9463 L-51.8353,-21.6714 L-58.6318,-14.8748 C-54.9176,-11.1606 -48.8638,-11.1926 -45.1103,-14.9462 Z M-66.6764,-8.07177 L-59.8799,-14.8682 L-66.605,-21.5933 C-70.3586,-17.8397 -70.3906,-11.7859 -66.6764,-8.07177 Z M-65.9776,-22.2207 L-65.9777,-22.2207 L-59.2526,-15.4956 L-52.456,-22.2921 C-56.1702,-26.0063 -62.224,-25.9743 -65.9776,-22.2207 Z M-59.3305,-0.725917 C-55.5769,-4.47954 -55.545,-10.5333 -59.2592,-14.2475 L-66.0556,-7.451 L-59.3305,-0.725917 Z M-59.958,-0.0985101 L-66.683,-6.82359 L-73.4795,-0.0271156 C-69.7653,3.68706 -63.7115,3.65504 -59.958,-0.0985101 Z M-81.5242,6.77599 L-74.7277,-0.0204809 L-81.4528,-6.74556 C-85.2063,-2.99201 -85.2383,3.06182 -81.5242,6.77599 Z M-80.8254,-7.37297 L-74.1003,-0.647888 L-67.3038,-7.44436 C-71.018,-11.1585 -77.0717,-11.1266 -80.8254,-7.37297 Z M-74.1783,14.1218 C-70.4247,10.3682 -70.3927,4.31447 -74.1069,0.600291 L-80.9034,7.39677 L-74.1783,14.1218 Z M-74.8057,14.7493 L-74.8056,14.7492 L-81.5307,8.0241 L-88.3273,14.8206 C-84.6131,18.5348 -78.5593,18.5028 -74.8057,14.7493 Z M-96.3719,21.6237 L-89.5754,14.8272 L-96.3005,8.10215 C-100.054,11.8558 -100.086,17.9095 -96.3719,21.6237 Z M-95.6731,7.47472 L-95.6731,7.4748 L-88.948,14.1999 L-82.1515,7.40333 C-85.8657,3.68915 -91.9195,3.72117 -95.6731,7.47472 Z M-89.026,28.9696 C-85.2724,25.2159 -85.2404,19.1622 -88.9546,15.448 L-95.7511,22.2445 L-89.026,28.9696 Z M0.158781,-118.154 C-3.59477,-114.401 -3.62679,-108.347 0.0873862,-104.633 L6.88393,-111.429 L0.158853,-118.154 L0.158781,-118.154 Z M6.80585,-96.6597 L0.0808417,-103.385 L-6.71563,-96.5882 C-3.00153,-92.8741 3.05223,-92.906 6.80585,-96.6597 Z M7.43318,-97.287 L7.43326,-97.2871 C11.1868,-101.041 11.2188,-107.094 7.50472,-110.809 L0.708176,-104.012 L7.43318,-97.287 Z M-14.0615,-103.934 L-7.33642,-97.209 L-0.539948,-104.005 C-4.25412,-107.72 -10.3079,-107.688 -14.0615,-103.934 Z M-14.7603,-89.7851 L-7.96376,-96.5817 L-14.6888,-103.307 L-14.6889,-103.307 C-18.4425,-99.5531 -18.4745,-93.4993 -14.7603,-89.7851 Z M-8.04184,-81.812 L-14.7668,-88.537 L-21.5633,-81.7405 C-17.8492,-78.0264 -11.7955,-78.0584 -8.04184,-81.812 Z M-7.41451,-82.4393 L-7.41443,-82.4394 C-3.66088,-86.1929 -3.62886,-92.2468 -7.34297,-95.9609 L-14.1395,-89.1643 L-7.41451,-82.4393 Z M-28.9092,-89.0864 L-22.1841,-82.3613 L-15.3876,-89.1578 C-19.1018,-92.872 -25.1556,-92.8399 -28.9092,-89.0864 Z M-29.608,-74.9374 L-22.8115,-81.7339 L-29.5366,-88.459 C-33.2902,-84.7054 -33.3222,-78.6516 -29.608,-74.9374 Z M-22.8896,-66.9642 L-29.6146,-73.6892 L-36.4111,-66.8927 C-32.697,-63.1786 -26.6432,-63.2106 -22.8896,-66.9642 Z M-22.2622,-67.5916 C-18.5086,-71.3452 -18.4766,-77.399 -22.1907,-81.1131 L-28.9872,-74.3166 L-22.2622,-67.5916 Z M-43.757,-74.2386 L-37.0319,-67.5135 L-30.2354,-74.31 C-33.9496,-78.0242 -40.0033,-77.9922 -43.757,-74.2386 Z M-44.4558,-60.0897 L-37.6592,-66.8862 L-44.3843,-73.6113 L-44.3844,-73.6112 C-48.1379,-69.8577 -48.1699,-63.8038 -44.4558,-60.0897 Z M-37.7373,-52.1165 L-44.4623,-58.8415 L-51.2588,-52.0451 C-47.5447,-48.331 -41.4909,-48.3629 -37.7373,-52.1165 Z M-37.11,-52.7439 L-37.1099,-52.7439 C-33.3563,-56.4975 -33.3243,-62.5513 -37.0384,-66.2654 L-43.835,-59.4689 L-37.11,-52.7439 Z M-58.6046,-59.3909 L-51.8796,-52.6658 L-45.0831,-59.4623 C-48.7973,-63.1765 -54.8511,-63.1445 -58.6046,-59.3909 Z M-59.3035,-45.242 L-52.507,-52.0384 L-59.2321,-58.7635 C-62.9856,-55.01 -63.0176,-48.9561 -59.3035,-45.242 Z M-52.5851,-37.2688 L-59.3101,-43.9938 L-66.1065,-37.1973 C-62.3924,-33.4832 -56.3386,-33.5152 -52.5851,-37.2688 Z M-51.9577,-37.8962 C-48.2041,-41.6497 -48.1721,-47.7035 -51.8862,-51.4176 L-58.6827,-44.6212 L-51.9577,-37.8962 Z M-73.4524,-44.5432 L-66.7273,-37.8181 L-59.9309,-44.6146 C-63.645,-48.3287 -69.6988,-48.2968 -73.4524,-44.5432 Z M-74.1512,-30.3942 L-67.3547,-37.1907 L-74.0797,-43.9158 L-74.0798,-43.9158 C-77.8334,-40.1622 -77.8654,-34.1084 -74.1512,-30.3942 Z M-67.4328,-22.4211 L-74.1578,-29.1461 L-80.9542,-22.3496 C-77.2401,-18.6355 -71.1864,-18.6674 -67.4328,-22.4211 Z M-66.8054,-23.0484 L-66.8053,-23.0485 C-63.0518,-26.802 -63.0198,-32.8559 -66.7339,-36.57 L-73.5304,-29.7734 L-66.8054,-23.0484 Z M-88.3001,-29.6955 L-81.575,-22.9704 L-74.7785,-29.7669 C-78.4927,-33.481 -84.5465,-33.4491 -88.3001,-29.6955 Z M-88.9989,-15.5465 L-82.2024,-22.343 L-88.9275,-29.0681 C-92.6811,-25.3145 -92.7131,-19.2607 -88.9989,-15.5465 Z M-82.2805,-7.57331 L-89.0055,-14.2983 L-95.802,-7.50184 C-92.0879,-3.78773 -86.0341,-3.81975 -82.2805,-7.57331 Z M-81.6531,-8.20071 C-77.8995,-11.9543 -77.8675,-18.0081 -81.5816,-21.7222 L-88.3781,-14.9257 L-81.6531,-8.20071 Z M-103.148,-14.8477 L-96.4228,-8.12263 L-89.6263,-14.9191 C-93.3405,-18.6333 -99.3942,-18.6013 -103.148,-14.8477 Z M-103.847,-0.698747 L-97.0501,-7.49529 L-103.775,-14.2204 L-103.775,-14.2203 C-107.529,-10.4668 -107.561,-4.41292 -103.847,-0.698747 Z M-97.1282,7.2744 L-103.853,0.549396 L-110.65,7.34587 C-106.936,11.06 -100.882,11.028 -97.1282,7.2744 Z M-96.5009,6.64705 L-96.5008,6.64698 C-92.7472,2.89343 -92.7152,-3.1604 -96.4293,-6.8745 L-103.226,-0.077957 L-96.5009,6.64705 Z M-117.996,-5.90772e-08 L-111.27,6.72508 L-104.474,-0.0713946 C-108.188,-3.78557 -114.242,-3.75362 -117.996,-5.90772e-08 Z M59.1325,-59.1806 L59.1326,-59.1807 L52.4076,-65.9057 L45.611,-59.1092 C49.3251,-55.395 55.379,-55.4271 59.1325,-59.1806 Z M37.5665,-52.3061 L44.3629,-59.1026 L37.6378,-65.8277 C33.8842,-62.074 33.8523,-56.0203 37.5665,-52.3061 Z M38.2653,-66.4551 L38.2652,-66.455 L44.9903,-59.7299 L51.7868,-66.5265 C48.0726,-70.2406 42.0188,-70.2086 38.2653,-66.4551 Z M44.9122,-44.9603 C48.6659,-48.714 48.6978,-54.7677 44.9837,-58.4818 L38.1872,-51.6853 L44.9122,-44.9603 Z M44.2848,-44.3329 L44.2849,-44.333 L37.5599,-51.058 L30.7633,-44.2615 C34.4774,-40.5474 40.5313,-40.5794 44.2848,-44.3329 Z M22.7188,-37.4584 L29.5152,-44.2549 L22.7902,-50.98 C19.0365,-47.2264 19.0046,-41.1726 22.7188,-37.4584 Z M23.4176,-51.6074 L23.4175,-51.6073 L30.1426,-44.8822 L36.9391,-51.6788 C33.2249,-55.393 27.1711,-55.3609 23.4176,-51.6074 Z M30.0645,-30.1126 C33.8181,-33.8662 33.8501,-39.92 30.136,-43.6341 L23.3395,-36.8377 L30.0645,-30.1126 Z M29.4371,-29.4852 L22.7121,-36.2102 L15.9157,-29.4138 C19.6298,-25.6997 25.6835,-25.7316 29.4371,-29.4852 Z M7.871,-22.6107 L14.6675,-29.4071 L7.94239,-36.1322 C4.18877,-32.3786 4.15682,-26.3248 7.871,-22.6107 Z M8.5698,-36.7596 L15.2949,-30.0345 L22.0914,-36.831 C18.3772,-40.5452 12.3234,-40.5132 8.5698,-36.7596 Z M15.2168,-15.2649 C18.9704,-19.0185 19.0024,-25.0723 15.2882,-28.7864 L8.49177,-21.9899 L15.2168,-15.2649 Z M14.5894,-14.6375 L14.5894,-14.6375 L7.86444,-21.3626 L1.06789,-14.566 C4.78199,-10.8519 10.8358,-10.8839 14.5894,-14.6375 Z M-6.97669,-7.76297 L-0.180217,-14.5594 L-6.9053,-21.2845 C-10.6589,-17.5309 -10.6909,-11.4771 -6.97669,-7.76297 Z M-6.27789,-21.9119 L-6.27796,-21.9119 L0.447118,-15.1868 L7.24366,-21.9833 C3.52949,-25.6975 -2.52434,-25.6655 -6.27789,-21.9119 Z M0.369088,-0.417189 C4.12264,-4.17074 4.15466,-10.2246 0.440555,-13.9387 L-6.35592,-7.1422 L0.369088,-0.417189 Z M-0.258319,0.210217 L-6.98333,-6.51479 L-13.7798,0.281684 C-10.0657,3.99579 -4.01187,3.96377 -0.258319,0.210217 Z M-21.8245,7.08479 L-15.028,0.288319 L-21.7531,-6.43676 C-25.5066,-2.68321 -25.5386,3.37062 -21.8245,7.08479 Z M-21.1257,-7.06417 L-14.4006,-0.339088 L-7.6041,-7.13556 C-11.3183,-10.8497 -17.3721,-10.8177 -21.1257,-7.06417 Z M-14.4787,14.4306 C-10.7251,10.677 -10.6931,4.6232 -14.4072,0.909091 L-21.2037,7.70557 L-14.4787,14.4306 Z M-15.1061,15.058 L-15.106,15.0579 L-21.831,8.3329 L-28.6276,15.1294 C-24.9135,18.8436 -18.8596,18.8115 -15.1061,15.058 Z M-36.6721,21.9325 L-29.8757,15.136 L-36.6008,8.41093 C-40.3544,12.1646 -40.3863,18.2183 -36.6721,21.9325 Z M-35.9733,7.78352 L-35.9734,7.78359 L-29.2483,14.5087 L-22.4518,7.71213 C-26.166,3.99795 -32.2198,4.02997 -35.9733,7.78352 Z M-29.3264,29.2783 C-25.5727,25.5246 -25.5408,19.4709 -29.2549,15.7568 L-36.0514,22.5533 L-29.3264,29.2783 Z M-29.9538,29.9057 L-36.6788,23.1807 L-43.4753,29.9771 C-39.7612,33.6912 -33.7073,33.6592 -29.9538,29.9057 Z M-51.5199,36.7802 L-44.7234,29.9838 L-51.4485,23.2587 C-55.2021,27.0122 -55.2341,33.0661 -51.5199,36.7802 Z M-50.8211,22.6313 L-44.096,29.3564 L-37.2996,22.5599 C-41.0137,18.8457 -47.0675,18.8777 -50.8211,22.6313 Z M-44.1741,44.126 C-40.4205,40.3724 -40.3886,34.3186 -44.1027,30.6045 L-50.8991,37.401 L-44.1741,44.126 Z M-44.8015,44.7534 L-44.8015,44.7534 L-51.5265,38.0284 L-58.323,44.8249 C-54.6089,48.539 -48.5551,48.507 -44.8015,44.7534 Z M-66.3676,51.628 L-59.5711,44.8315 L-66.2962,38.1064 C-70.0498,41.86 -70.0818,47.9138 -66.3676,51.628 Z M-65.6688,37.479 L-65.6689,37.479 L-58.9438,44.2041 L-52.1472,37.4076 C-55.8614,33.6934 -61.9152,33.7254 -65.6688,37.479 Z M-59.0218,58.9737 C-55.2682,55.2201 -55.2363,49.1664 -58.9504,45.4523 L-65.7468,52.2487 L-59.0218,58.9737 Z M30.0916,-74.6286 L36.8881,-81.4251 L30.1631,-88.1502 L30.163,-88.1502 C26.4094,-84.3966 26.3774,-78.3428 30.0916,-74.6286 Z M36.8101,-66.6554 L30.085,-73.3805 L23.2885,-66.584 C27.0027,-62.8698 33.0565,-62.9018 36.8101,-66.6554 Z M37.4374,-67.2827 L37.4375,-67.2828 C41.1911,-71.0364 41.2231,-77.0902 37.5089,-80.8044 L30.7124,-74.0078 L37.4374,-67.2827 Z M15.9427,-73.9299 L22.6678,-67.2048 L29.4643,-74.0013 C25.7501,-77.7154 19.6963,-77.6835 15.9427,-73.9299 Z M15.2439,-59.7809 L22.0404,-66.5775 L15.3154,-73.3025 L15.3153,-73.3025 C11.5617,-69.5489 11.5297,-63.4951 15.2439,-59.7809 Z M21.9624,-51.8077 L15.2373,-58.5328 L8.44086,-51.7363 C12.155,-48.0222 18.2088,-48.0541 21.9624,-51.8077 Z M22.5897,-52.4351 L22.5898,-52.4351 C26.3434,-56.1887 26.3754,-62.2425 22.6612,-65.9567 L15.8647,-59.1601 L22.5897,-52.4351 Z M1.09501,-59.0822 L7.82009,-52.3571 L14.6166,-59.1536 C10.9024,-62.8678 4.84856,-62.8357 1.09501,-59.0822 Z M0.396204,-44.9332 L7.19268,-51.7297 L0.467598,-58.4548 C-3.28603,-54.7012 -3.31797,-48.6474 0.396204,-44.9332 Z M7.11465,-36.96 L0.389569,-43.685 L-6.40691,-36.8886 C-2.69273,-33.1744 3.36103,-33.2063 7.11465,-36.96 Z M7.74206,-37.5874 C11.4956,-41.3409 11.5276,-47.3947 7.81345,-51.1089 L1.01698,-44.3124 L7.74206,-37.5874 Z M-13.7528,-44.2344 L-7.02768,-37.5093 L-0.231203,-44.3058 C-3.94538,-48.02 -9.99913,-47.988 -13.7528,-44.2344 Z M-14.4516,-30.0855 L-7.65501,-36.882 L-14.3801,-43.6071 L-14.3802,-43.607 C-18.1337,-39.8535 -18.1657,-33.7996 -14.4516,-30.0855 Z M-7.73304,-22.1123 L-14.4581,-28.8373 L-21.2546,-22.0409 C-17.5404,-18.3267 -11.4867,-18.3586 -7.73304,-22.1123 Z M-7.10571,-22.7396 L-7.10563,-22.7397 C-3.35208,-26.4932 -3.32006,-32.5471 -7.03424,-36.2612 L-13.8308,-29.4647 L-7.10571,-22.7396 Z M-28.6004,-29.3867 L-21.8754,-22.6616 L-15.0789,-29.4581 C-18.7931,-33.1723 -24.8469,-33.1403 -28.6004,-29.3867 Z M-29.2993,-15.2378 L-22.5028,-22.0342 L-29.2279,-28.7593 C-32.9814,-25.0058 -33.0134,-18.9519 -29.2993,-15.2378 Z M-22.5808,-7.26451 L-29.3059,-13.9896 L-36.1024,-7.19311 C-32.3882,-3.47893 -26.3344,-3.51095 -22.5808,-7.26451 Z M-21.9534,-7.89191 C-18.1998,-11.6455 -18.1678,-17.6993 -21.882,-21.4135 L-28.6785,-14.617 L-21.9534,-7.89191 Z M-43.4482,-14.539 L-36.7231,-7.81388 L-29.9267,-14.6104 C-33.6408,-18.3245 -39.6946,-18.2926 -43.4482,-14.539 Z M-44.147,-0.390002 L-37.3505,-7.18655 L-44.0755,-13.9116 L-44.0756,-13.9116 C-47.8292,-10.158 -47.8612,-4.10418 -44.147,-0.390002 Z M-37.4285,7.58319 L-44.1536,0.858105 L-50.9501,7.65458 C-47.2359,11.3688 -41.1821,11.3368 -37.4285,7.58319 Z M-36.8012,6.95585 L-36.8011,6.95578 C-33.0475,3.20223 -33.0155,-2.8516 -36.7297,-6.56578 L-43.5262,0.23077 L-36.8012,6.95585 Z M-58.2959,0.308727 L-51.5708,7.03381 L-44.7743,0.237333 C-48.4885,-3.47684 -54.5423,-3.4449 -58.2959,0.308727 Z M-58.9947,14.4577 L-52.1982,7.66121 L-58.9233,0.936134 C-62.6769,4.68969 -62.7089,10.7435 -58.9947,14.4577 Z M-52.2763,22.4309 L-59.0013,15.7059 L-65.7978,22.5023 C-62.0836,26.2165 -56.0298,26.1845 -52.2763,22.4309 Z M-51.6489,21.8035 C-47.8952,18.0499 -47.8633,11.9962 -51.5775,8.28199 L-58.3739,15.0785 L-51.6489,21.8035 Z M-73.1437,15.1565 L-66.4186,21.8816 L-59.6221,15.0851 C-63.3363,11.3709 -69.39,11.4029 -73.1437,15.1565 Z M-73.8425,29.3055 L-67.0459,22.5089 L-73.771,15.7838 L-73.7711,15.7839 C-77.5246,19.5374 -77.5566,25.5913 -73.8425,29.3055 Z M-67.124,37.2787 L-73.849,30.5536 L-80.6455,37.3501 C-76.9313,41.0642 -70.8776,41.0323 -67.124,37.2787 Z M-66.4966,36.6513 L-66.4965,36.6512 C-62.743,32.8977 -62.711,26.8439 -66.4251,23.1297 L-73.2217,29.9262 L-66.4966,36.6513 Z M-87.9914,30.0042 L-81.2663,36.7293 L-74.4698,29.9328 C-78.184,26.2186 -84.2378,26.2506 -87.9914,30.0042 Z M88.7229,-29.5902 L88.723,-29.5903 L81.9979,-36.3154 L75.2013,-29.5188 C78.9155,-25.8047 84.9693,-25.8367 88.7229,-29.5902 Z M67.1568,-22.7158 L73.9532,-29.5123 L67.2282,-36.2374 C63.4745,-32.4837 63.4426,-26.43 67.1568,-22.7158 Z M67.8556,-36.8648 L67.8555,-36.8647 L74.5806,-30.1396 L81.3771,-36.9362 C77.6629,-40.6503 71.6091,-40.6183 67.8556,-36.8648 Z M74.5026,-15.37 C78.2562,-19.1236 78.2882,-25.1773 74.574,-28.8915 L67.7775,-22.095 L74.5026,-15.37 Z M73.8752,-14.7425 L73.8753,-14.7426 L67.1502,-21.4677 L60.3537,-14.6712 C64.0678,-10.957 70.1217,-10.989 73.8752,-14.7425 Z M52.3091,-7.86811 L59.1055,-14.6646 L52.3805,-21.3897 C48.6268,-17.636 48.5949,-11.5823 52.3091,-7.86811 Z M53.0079,-22.0171 L53.0078,-22.017 L59.7329,-15.2919 L66.5294,-22.0885 C62.8153,-25.8026 56.7614,-25.7706 53.0079,-22.0171 Z M59.6549,-0.522262 C63.4085,-4.27581 63.4405,-10.3296 59.7263,-14.0438 L52.9298,-7.24734 L59.6549,-0.522262 Z M59.0275,0.105145 L52.3024,-6.61994 L45.506,0.176539 C49.2201,3.89072 55.2739,3.85877 59.0275,0.105145 Z M37.4613,6.97965 L44.2578,0.183174 L37.5327,-6.54191 C33.7791,-2.78828 33.7471,3.26547 37.4613,6.97965 Z M38.1601,-7.16931 L44.8852,-0.444233 L51.6817,-7.24071 C47.9675,-10.9549 41.9137,-10.9229 38.1601,-7.16931 Z M44.8072,14.3255 C48.5608,10.5719 48.5927,4.51812 44.8786,0.803946 L38.0821,7.60042 L44.8072,14.3255 Z M44.1798,14.9529 L44.1798,14.9528 L37.4547,8.22776 L30.6582,15.0243 C34.3724,18.7385 40.4262,18.7065 44.1798,14.9529 Z M22.6136,21.8273 L29.4101,15.0309 L22.685,8.30578 C18.9314,12.0594 18.8994,18.1132 22.6136,21.8273 Z M23.3124,7.67838 L23.3123,7.67845 L30.0374,14.4035 L36.834,7.60698 C33.1198,3.89281 27.066,3.92483 23.3124,7.67838 Z M29.9595,29.1732 C33.713,25.4196 33.745,19.3658 30.0309,15.6516 L23.2344,22.4481 L29.9595,29.1732 Z M29.3321,29.8006 L22.607,23.0755 L15.8105,29.872 C19.5247,33.5862 25.5785,33.5542 29.3321,29.8006 Z M7.76585,36.6751 L14.5623,29.8786 L7.83725,23.1535 C4.0837,26.9071 4.05168,32.9609 7.76585,36.6751 Z M8.46466,22.5261 L15.1897,29.2512 L21.9862,22.4547 C18.272,18.7406 12.2182,18.7726 8.46466,22.5261 Z M15.1117,44.021 C18.8653,40.2673 18.8973,34.2136 15.1831,30.4994 L8.38663,37.2959 L15.1117,44.021 Z M14.4843,44.6484 L14.4844,44.6483 L7.75929,37.9232 L0.962745,44.7198 C4.67692,48.4339 10.7307,48.4019 14.4843,44.6484 Z M-7.08184,51.5228 L-0.285362,44.7263 L-7.01044,38.0012 C-10.7641,41.7549 -10.796,47.8086 -7.08184,51.5228 Z M-6.38304,37.3738 L-6.38311,37.3739 L0.341973,44.099 L7.13852,37.3024 C3.42434,33.5883 -2.62948,33.6203 -6.38304,37.3738 Z M0.264016,58.8686 C4.01764,55.115 4.04959,49.0613 0.33541,45.3471 L-6.46106,52.1436 L0.264016,58.8686 Z M-0.363391,59.4961 L-7.08847,52.771 L-13.8849,59.5674 C-10.1708,63.2816 -4.11694,63.2496 -0.363391,59.4961 Z M-21.9296,66.3706 L-15.1331,59.5741 L-21.8582,52.849 C-25.6118,56.6026 -25.6438,62.6564 -21.9296,66.3706 Z M-21.2308,52.2216 L-14.5057,58.9467 L-7.70924,52.1502 C-11.4234,48.436 -17.4772,48.468 -21.2308,52.2216 Z M-14.5837,73.7164 C-10.8301,69.9628 -10.7982,63.909 -14.5124,60.1949 L-21.3088,66.9913 L-14.5837,73.7164 Z M-15.2112,74.3438 L-15.2111,74.3437 L-21.9362,67.6187 L-28.7327,74.4152 C-25.0185,78.1294 -18.9647,78.0974 -15.2112,74.3438 Z M-36.7773,81.2183 L-29.9808,74.4218 L-36.7059,67.6967 C-40.4595,71.4503 -40.4915,77.5041 -36.7773,81.2183 Z M-36.0785,67.0693 L-36.0786,67.0694 L-29.3535,73.7944 L-22.5569,66.9979 C-26.2711,63.2837 -32.3249,63.3157 -36.0785,67.0693 Z M-29.4315,88.5641 C-25.6778,84.8105 -25.6459,78.7567 -29.3601,75.0426 L-36.1565,81.839 L-29.4315,88.5641 Z M59.6819,-45.0383 L66.4784,-51.8348 L59.7534,-58.5599 L59.7533,-58.5598 C55.9997,-54.8063 55.9677,-48.7525 59.6819,-45.0383 Z M66.4004,-37.0651 L59.6753,-43.7902 L52.8789,-36.9937 C56.593,-33.2795 62.6468,-33.3115 66.4004,-37.0651 Z M67.0277,-37.6924 L67.0278,-37.6925 C70.7814,-41.4461 70.8134,-47.4999 67.0992,-51.2141 L60.3027,-44.4175 L67.0277,-37.6924 Z M45.533,-44.3396 L52.2581,-37.6145 L59.0546,-44.411 C55.3404,-48.1251 49.2866,-48.0932 45.533,-44.3396 Z M44.8342,-30.1906 L51.6308,-36.9871 L44.9057,-43.7122 L44.9056,-43.7122 C41.152,-39.9586 41.12,-33.9048 44.8342,-30.1906 Z M51.5527,-22.2174 L44.8276,-28.9425 L38.0312,-22.146 C41.7453,-18.4318 47.7991,-18.4638 51.5527,-22.2174 Z M52.1801,-22.8447 L52.1801,-22.8448 C55.9337,-26.5984 55.9657,-32.6522 52.2515,-36.3664 L45.455,-29.5698 L52.1801,-22.8447 Z M30.6853,-29.4919 L37.4104,-22.7668 L44.2069,-29.5633 C40.4927,-33.2774 34.4389,-33.2454 30.6853,-29.4919 Z M29.9865,-15.3429 L36.783,-22.1394 L30.0579,-28.8645 C26.3043,-25.1108 26.2723,-19.0571 29.9865,-15.3429 Z M36.705,-7.36965 L29.9799,-14.0947 L23.1834,-7.29826 C26.8976,-3.58408 32.9513,-3.61603 36.705,-7.36965 Z M37.3324,-7.99706 C41.0859,-11.7506 41.1179,-17.8044 37.4038,-21.5186 L30.6073,-14.7221 L37.3324,-7.99706 Z M15.8376,-14.6441 L22.5626,-7.91903 L29.3591,-14.7155 C25.6449,-18.4297 19.5912,-18.3977 15.8376,-14.6441 Z M15.1388,-0.495147 L21.9353,-7.29169 L15.2102,-14.0168 L15.2101,-14.0167 C11.4566,-10.2632 11.4246,-4.20932 15.1388,-0.495147 Z M21.8573,7.47804 L15.1322,0.75296 L8.33571,7.54944 C12.0499,11.2636 18.1036,11.2317 21.8573,7.47804 Z M22.4846,6.85071 L22.4847,6.85063 C26.2382,3.09708 26.2702,-2.95674 22.5561,-6.67092 L15.7595,0.125625 L22.4846,6.85071 Z M0.989861,0.203583 L7.71494,6.92866 L14.5114,0.132188 C10.7972,-3.58199 4.74341,-3.54997 0.989861,0.203583 Z M0.291059,14.3525 L7.08753,7.55607 L0.362454,0.830989 C-3.3911,4.58454 -3.42312,10.6384 0.291059,14.3525 Z M7.0095,22.3258 L0.284424,15.6007 L-6.51205,22.3972 C-2.79787,26.1114 3.25595,26.0794 7.0095,22.3258 Z M7.63691,21.6984 C11.3905,17.9448 11.4225,11.891 7.70831,8.17684 L0.911831,14.9733 L7.63691,21.6984 Z M-13.8579,15.0513 L-7.13282,21.7764 L-0.336348,14.98 C-4.05052,11.2658 -10.1043,11.2977 -13.8579,15.0513 Z M-14.5567,29.2003 L-7.76016,22.4038 L-14.4852,15.6787 L-14.4853,15.6788 C-18.2389,19.4323 -18.2709,25.4861 -14.5567,29.2003 Z M-7.83819,37.1735 L-14.5633,30.4484 L-21.3597,37.2449 C-17.6456,40.9591 -11.5918,40.9271 -7.83819,37.1735 Z M-7.21085,36.5462 L-7.21078,36.5461 C-3.45723,32.7925 -3.42521,26.7387 -7.13939,23.0245 L-13.9359,29.8211 L-7.21085,36.5462 Z M-28.7056,29.899 L-21.9805,36.6241 L-15.184,29.8276 C-18.8982,26.1135 -24.952,26.1454 -28.7056,29.899 Z M-29.4044,44.048 L-22.6079,37.2515 L-29.333,30.5264 C-33.0866,34.28 -33.1186,40.3338 -29.4044,44.048 Z M-22.6859,52.0213 L-29.411,45.2962 L-36.2075,52.0927 C-32.4933,55.8068 -26.4395,55.7748 -22.6859,52.0213 Z M-22.0585,51.3939 C-18.3049,47.6402 -18.273,41.5865 -21.9871,37.8723 L-28.7836,44.6688 L-22.0585,51.3939 Z M-43.5534,44.7468 L-36.8283,51.4719 L-30.0318,44.6754 C-33.746,40.9612 -39.7997,40.9932 -43.5534,44.7468 Z M-44.2522,58.8958 L-37.4556,52.0992 L-44.1807,45.3741 L-44.1808,45.3742 C-47.9343,49.1278 -47.9663,55.1816 -44.2522,58.8958 Z M-37.5337,66.869 L-44.2587,60.1439 L-51.0552,66.9404 C-47.341,70.6545 -41.2873,70.6226 -37.5337,66.869 Z M-36.9063,66.2416 L-36.9062,66.2415 C-33.1527,62.488 -33.1207,56.4342 -36.8348,52.72 L-43.6314,59.5165 L-36.9063,66.2416 Z M-58.4011,59.5945 L-51.676,66.3196 L-44.8795,59.5231 C-48.5937,55.8089 -54.6474,55.8409 -58.4011,59.5945 Z " fill="#ffffff" fill-opacity="1.00" />		</g>	</svg>