<?xml version="1.0" encoding="utf-8" ?>	<!-- Generator: Assembly 2.4 - http://assemblyapp.co -->	<svg version="1.1" xmlns="http://www.w3.org/2000/svg" xmlns:xlink="http://www.w3.org/1999/xlink" width="4096.00" height="4096.00" viewBox="0 0 4096.0 4096.0">		<g id="document" transform="scale(13.653333333333334 13.653333333333334) translate(150.0 150.0)">			<path d="M63.5628,149.253 C111.036,149.253 149.253,111.036 149.253,63.5628 L149.253,-63.9278 C149.253,-111.401 110.737,-149.618 63.5628,-149.618 L-63.9278,-149.618 C-111.401,-149.618 -149.618,-111.102 -149.618,-63.9278 L-149.618,63.5628 C-149.618,111.036 -111.102,149.253 -63.9278,149.253 L63.5628,149.253 Z " fill="#c5e0dc" fill-opacity="1.00" />			<path d="M-103.467,33.2289 C-105.517,34.5724 -108.063,35.2795 -112.518,35.9159 C-112.447,35.7037 -112.447,35.5623 -112.447,35.2795 C-111.881,31.1782 -111.103,28.7034 -109.901,26.7942 L-111.528,25.1678 C-111.669,25.3093 -111.81,25.4507 -111.952,25.5921 C-115.134,28.9155 -114.71,32.1682 -116.619,39.4514 C-116.689,39.6635 -116.76,39.8757 -116.76,40.1585 C-109.053,38.1079 -105.659,38.6736 -102.194,35.3502 C-102.052,35.2088 -101.911,35.0673 -101.77,34.9259 L-103.467,33.2289 Z M-84.2333,22.198 L-80.9806,14.2784 L-90.8094,4.44961 L-98.729,7.7023 C-99.7189,8.12657 -100.355,8.48012 -101.345,9.47007 L-109.265,17.3897 C-109.76,17.8846 -110.113,18.2382 -110.184,19.016 L-110.75,21.9859 C-110.891,22.5515 -110.75,22.9758 -110.396,23.4708 C-110.113,23.7536 -109.901,23.8243 -109.548,23.6122 L-104.174,19.6524 L-96.1834,13.7834 L-102.052,21.7737 L-105.871,27.0063 C-106.154,27.4306 -106.154,27.7134 -105.8,28.067 L-104.598,29.2691 C-104.244,29.6226 -103.962,29.6226 -103.537,29.3398 L-98.3047,25.5214 L-90.3144,19.6524 L-96.1834,27.6427 L-100.143,33.0167 C-100.355,33.3703 -100.285,33.5824 -100.002,33.8653 C-99.5775,34.2895 -99.0825,34.3602 -98.5168,34.2188 L-95.547,33.6531 C-94.7692,33.441 -94.4156,33.2289 -93.9207,32.7339 L-86.0011,24.8143 C-85.0111,23.8243 -84.7283,23.2587 -84.2333,22.198 Z M-63.3029,-3.68212 C-63.1615,-3.82354 -63.0201,-3.96496 -62.808,-4.17709 C-63.5151,-6.15699 -64.8586,-8.2076 -66.5556,-9.90466 C-66.6263,-9.97537 -66.697,-10.0461 -66.8385,-10.1875 C-68.4648,-11.8138 -70.4447,-13.0866 -72.3539,-13.723 C-72.4953,-13.5816 -72.7074,-13.3695 -72.8489,-13.2281 L-89.2537,3.17682 L-79.7078,12.7228 L-63.3029,-3.68212 Z M-72.4953,1.26763 C-74.2631,3.0354 -76.5965,2.399 -77.8693,0.843367 C-79.0714,-0.500136 -79.425,-2.55075 -77.8693,-4.10638 L-75.6066,-6.36912 C-74.051,-7.92476 -72.0003,-7.5712 -70.6568,-6.36912 C-69.1719,-5.02562 -68.4648,-2.76288 -70.2326,-0.99511 L-72.4953,1.26763 Z M-65.2121,-11.3896 C-63.6565,-9.83395 -62.313,-8.06618 -61.4645,-6.2277 C-59.4846,-9.90466 -58.7067,-14.7837 -60.2624,-16.3393 C-60.3331,-16.41 -60.4038,-16.4807 -60.5452,-16.6222 C-62.3837,-17.895 -66.9092,-17.0464 -70.3033,-15.208 C-68.6062,-14.3594 -66.8385,-13.1573 -65.4242,-11.7431 C-65.3535,-11.531 -65.2828,-11.4603 -65.2121,-11.3896 Z " fill="#345b7d" fill-opacity="1.00" />			<path d="M-35.1984,47.0157 C-35.4984,46.7157 -35.7984,46.3157 -36.0984,46.0157 C-36.2984,45.8157 -36.4984,45.7157 -36.6984,45.5157 C-47.2984,35.3157 -64.0984,35.4157 -74.4984,45.8157 C-92.8984,64.1157 -81.8984,97.2157 -51.7984,97.9157 C-74.6984,92.9157 -85.3984,67.0157 -69.9984,51.0157 C-67.0984,48.1157 -63.5984,46.1157 -59.7984,45.0157 C-60.0984,45.3157 -60.4984,45.6157 -60.7984,45.9157 C-60.9984,46.1157 -61.0984,46.3157 -61.2984,46.5157 C-71.4984,57.1157 -71.3984,73.9157 -60.9984,84.3157 C-42.6984,102.716 -9.59838,91.7157 -8.99838,61.5157 C-13.9984,84.4157 -39.8984,95.2157 -55.7984,79.8157 C-58.6984,76.9157 -60.6984,73.4157 -61.7984,69.6157 C-61.4984,69.9157 -61.1984,70.3157 -60.8984,70.6157 C-60.6984,70.8157 -60.4984,70.9157 -60.2984,71.1157 C-49.6984,81.3157 -32.8984,81.2157 -22.4984,70.8157 C-4.09838,52.5157 -15.0984,19.4157 -45.1984,18.7157 C-22.2984,23.7157 -11.5984,49.6157 -26.9984,65.6157 C-29.8984,68.5157 -33.3984,70.5157 -37.1984,71.6157 C-36.8984,71.4157 -36.4984,71.0157 -36.1984,70.7157 C-35.9984,70.5157 -35.8984,70.3157 -35.6984,70.1157 C-25.4984,59.5157 -25.5984,42.7157 -35.9984,32.3157 C-54.2984,13.9157 -87.3984,24.9157 -88.0984,55.0157 C-83.0984,32.1157 -57.1984,21.4157 -41.1984,36.8157 C-38.2984,39.7157 -36.2984,43.2157 -35.1984,47.0157 Z " fill="#dce9eb" fill-opacity="1.00" />			<path d="M-86.8819,-84.4154 L-134.436,-88.4391 L-83.2669,-63.081 L-113.083,-82.7176 L-86.8819,-84.4154 Z M-79.102,-76.3369 C-77.2545,-76.1143 -75.667,-74.6672 -75.3006,-72.73 C-74.9093,-70.3774 -76.5266,-68.1544 -78.8792,-67.763 C-79.3751,-67.6916 -79.837,-67.7472 -80.2989,-67.8029 C-79.041,-60.0415 -71.7115,-54.6038 -63.8695,-55.9082 C-55.9811,-57.1321 -50.6705,-64.4957 -51.8943,-72.3841 C-52.677,-77.0893 -55.6601,-80.9537 -59.6161,-82.9673 C-60.1643,-81.6838 -61.348,-80.5706 -62.9164,-80.3097 C-65.269,-79.9184 -67.492,-81.5357 -67.8834,-83.8883 C-67.8958,-84.096 -67.8618,-84.2231 -67.9548,-84.3843 C-68.1625,-84.3718 -68.2431,-84.3253 -68.4508,-84.3128 C-73.2024,-83.6107 -77.1009,-80.5005 -79.102,-76.3369 Z M-58.2809,-76.0026 C-57.0814,-76.1579 -55.9931,-75.3895 -55.8378,-74.19 C-55.6824,-72.9904 -56.4508,-71.9022 -57.6503,-71.7468 C-58.8499,-71.5914 -59.9381,-72.3598 -60.0935,-73.5594 C-60.2024,-74.6784 -59.434,-75.7666 -58.2809,-76.0026 Z M-63.3091,-67.4054 C-61.2447,-67.7377 -59.3224,-66.269 -58.9901,-64.2047 C-58.6578,-62.1404 -60.0799,-60.1375 -62.1442,-59.8052 C-64.2085,-59.4728 -66.2114,-60.895 -66.5438,-62.9593 C-66.842,-65.1507 -65.454,-67.0265 -63.3091,-67.4054 Z M-67.4807,-94.5423 C-67.4807,-94.5423 -67.4807,-94.5423 -67.4807,-94.5423 L-118.34,-91.823 L-65.1355,-88.8054 C-63.9235,-88.7531 -62.6184,-88.5396 -61.3474,-88.1991 C-51.4336,-85.5427 -45.5253,-75.3092 -48.1352,-65.3148 C-50.7916,-55.401 -61.025,-49.4927 -71.0194,-52.1026 C-72.2904,-52.4431 -73.4003,-52.8767 -74.5566,-53.3909 L-126.712,-79.8987 L-79.3755,-49.6418 C-77.2921,-48.2662 -74.9793,-47.2378 -72.4838,-46.6373 C-59.5196,-43.1635 -46.063,-50.9327 -42.5893,-63.8969 C-39.1155,-76.8611 -46.8847,-90.3177 -59.8489,-93.7915 C-62.3444,-94.392 -64.9886,-94.6919 -67.4807,-94.5423 Z " fill="#dce9eb" fill-opacity="1.00" />			<path d="M106.736,70.3106 C109.805,71.1329 112.553,71.3993 114.848,68.314 C116.312,66.357 116.958,63.9458 117.943,61.8018 C118.731,59.9572 120.038,58.369 120.786,56.455 C122.626,51.7794 117.809,51.781 121.49,42.4299 C123.044,38.3825 122.254,33.0022 120.782,28.8489 C119.956,26.4542 118.942,24.5381 116.875,23.0445 C114.739,21.5912 112.788,21.4207 111.117,19.3283 C108.624,16.135 105.894,13.1716 102.096,11.5664 C94.8562,8.33442 87.6357,13.8002 84.7819,16.5596 C81.9281,19.319 77.8144,27.438 77.3311,37.3521 C76.7983,42.8478 72.6012,41.1946 70.8686,47.661 C69.9875,50.949 69.5584,79.7313 83.9396,82.1751 C89.2777,83.0768 94.3049,81.1935 98.4896,77.851 C101.127,75.6797 104.39,73.1474 106.736,70.3106 Z M92.7313,25.0329 C91.8594,23.6834 92.6259,21.4806 93.9754,20.6088 C95.325,19.737 97.1481,20.1668 98.0199,21.5163 C98.8917,22.8659 98.9326,25.3437 97.5135,26.2556 C96.2335,27.0873 93.6031,26.3825 92.7313,25.0329 Z M104.874,32.1043 C106.918,30.8313 109.648,31.3864 110.99,33.3907 C112.263,35.4351 112.593,37.9315 110.519,39.3141 C108.445,40.6966 105.131,40.5721 103.788,38.5678 C102.406,36.494 102.76,33.4174 104.874,32.1043 Z M77.3616,57.6236 C76.4898,56.2741 76.9196,54.451 78.2691,53.5792 C79.6187,52.7074 81.1208,52.5812 82.2011,53.8105 C83.5514,55.347 83.3301,57.0497 82.1811,58.2689 C80.4871,59.9882 78.2334,58.9732 77.3616,57.6236 Z M96.6953,50.3524 C99.6724,48.4483 102.899,48.9017 104.803,51.8787 C106.707,54.8557 105.369,58.3149 102.392,60.219 C99.4148,62.1231 97.8539,62.4684 95.9498,59.4914 C94.1553,56.5437 93.7183,52.2565 96.6953,50.3524 Z M85.569,70.3949 C84.9672,69.3527 85.21,68.0081 86.2816,67.2968 C87.2838,66.6255 89.1362,66.9457 89.8476,68.0173 C90.5188,69.0195 90.4766,70.7114 89.4744,71.3827 C88.4723,72.0539 86.6414,72.0919 85.569,70.3949 Z " fill="#dce9eb" fill-opacity="1.00" />			<path d="M99.4414,134.556 C99.5182,134.71 99.5182,134.864 99.3645,135.017 C99.2876,135.171 99.1339,135.248 98.9801,135.248 L92.9075,135.248 C92.7537,135.248 92.5231,135.094 92.4463,134.94 L91.6776,133.326 L80.4547,127.715 L69.2318,135.171 C69.155,135.248 69.0781,135.248 69.0012,135.248 L62.5442,135.248 C62.3905,135.248 62.2368,135.171 62.1599,135.017 C62.083,134.864 62.0061,134.71 62.083,134.556 L66.9258,121.258 C60.5456,121.104 48.5541,116.569 47.5548,112.495 C47.0936,110.496 47.7854,108.421 48.8615,106.806 C49.6302,105.576 50.6295,104.5 51.7057,103.501 C56.0104,99.1963 61.6987,95.5834 67.0795,92.8162 L66.5414,83.515 C65.1578,83.1307 64.0047,82.1314 63.3898,80.8246 C62.2368,78.3648 63.3898,75.3669 65.8496,74.2907 C68.3094,73.1377 71.3073,74.2907 72.3835,76.7505 C72.9984,78.2111 72.9215,79.8253 72.1529,81.2089 L78.6867,87.7428 C83.9907,85.8211 90.0633,84.13 95.7516,83.9762 C98.4421,83.8225 102.824,84.3606 104.592,86.9741 C106.283,89.4339 106.36,94.7379 101.44,102.963 C98.7495,107.498 94.7523,111.342 90.3708,114.263 L99.4414,134.556 Z M82.8376,126.1 L90.1402,129.713 L87.2192,123.179 L82.8376,126.1 C82.8376,126.1 82.8376,126.1 82.8376,126.1 Z M77.9949,126.408 L72.9984,123.871 L70.1543,131.635 L77.9949,126.408 C77.9949,126.408 77.9949,126.408 77.9949,126.408 Z M73.7671,121.488 L80.301,124.871 L86.143,120.95 L84.6056,117.491 L84.0676,117.722 C80.9159,119.105 77.5337,120.105 74.0746,120.72 L73.7671,121.488 C73.7671,121.488 73.7671,121.488 73.7671,121.488 Z M78.6099,106.115 L72.9984,93.5849 C71.8454,94.1229 70.7692,94.661 69.6162,95.1991 L70.3849,109.42 C73.1522,108.421 75.9194,107.344 78.6099,106.115 C78.6099,106.115 78.6099,106.115 78.6099,106.115 Z M71.6148,90.5101 L68.8475,83.9762 L69.3856,91.5863 C70.1543,91.2019 70.8461,90.8176 71.6148,90.5101 Z M71.1536,83.1307 L71.3073,83.8225 L73.844,89.5108 C74.5358,89.2033 75.3045,88.8958 76.0732,88.5884 L71.1536,83.1307 Z M75.2276,92.5856 L80.8391,105.115 C83.5295,103.808 86.0661,102.502 88.6028,101.041 L78.6867,91.2019 C77.5337,91.6631 76.3807,92.1243 75.2276,92.5856 C75.2276,92.5856 75.2276,92.5856 75.2276,92.5856 Z M68.0019,110.189 L67.3101,96.3521 C62.8517,98.6582 58.2396,101.425 54.473,104.731 C53.0893,105.961 49.784,109.036 50.7064,111.111 C51.7826,113.494 57.7015,112.571 59.7001,112.264 C62.4674,111.803 65.3115,111.034 68.0019,110.189 C68.0019,110.189 68.0019,110.189 68.0019,110.189 Z M90.7552,99.7344 C92.9075,98.4276 95.1367,96.8902 97.0584,95.276 C98.5189,94.1229 102.516,90.587 101.517,88.3578 C100.671,86.3592 96.5972,86.6666 94.9061,86.8204 C90.2939,87.2816 85.6049,88.7421 81.2234,90.2026 L90.7552,99.7344 Z " fill="#345b7d" fill-opacity="1.00" />			<path d="M-14.9177,-120.905 C-18.7006,-124.842 -23.0249,-126.958 -26.3447,-128.06 C-27.2188,-130.155 -30.7561,-137.589 -35.3402,-135.362 C-39.5174,-138.82 -45.6195,-139.658 -50.6874,-136.816 C-55.6463,-133.785 -58.0712,-128.108 -57.1018,-122.798 L-57.4162,-122.616 C-62.2591,-119.82 -57.038,-112.52 -55.7697,-110.904 C-56.4121,-107.514 -56.7784,-102.774 -55.2331,-97.6284 C-54.3272,-94.4616 -52.9039,-92.4321 -51.0722,-91.7287 C-49.872,-91.2476 -48.5751,-91.3254 -47.3801,-92.0153 C-45.3675,-93.1773 -44.028,-95.7956 -43.8594,-98.4087 L-38.3037,-88.7858 C-38.6758,-87.3969 -39.0428,-84.837 -37.6461,-82.7083 C-35.9323,-80.1757 -30.7574,-81.2347 -27.6755,-83.014 C-24.4679,-84.8659 -23.1647,-87.5471 -24.0777,-90.2905 C-24.114,-90.3534 -24.114,-90.3534 -24.1503,-90.4163 C-24.114,-90.3534 -24.114,-90.3534 -24.0777,-90.2905 C-22.2212,-88.0918 -19.1848,-87.9161 -15.9771,-89.768 C-12.8953,-91.5473 -9.35444,-95.4366 -10.7272,-98.25 C-11.8094,-100.56 -14.3091,-101.549 -15.6616,-101.858 L-21.2174,-111.481 C-18.933,-110.284 -15.9329,-110.171 -13.9202,-111.333 C-13.9202,-111.333 -13.9202,-111.333 -13.9202,-111.333 C-12.7252,-112.023 -12.0094,-113.108 -11.826,-114.387 C-11.6451,-116.253 -12.691,-118.5 -14.9177,-120.905 Z M-52.3975,-120.314 C-55.0483,-124.906 -53.4534,-130.858 -48.8984,-133.572 C-44.2079,-136.196 -38.2555,-134.601 -35.6047,-130.01 L-34.0069,-127.242 C-35.0106,-126.076 -36.5901,-124.745 -38.5567,-123.358 C-41.3409,-121.499 -44.2704,-119.891 -47.3451,-118.535 C-48.5498,-118.007 -49.7643,-117.642 -50.7272,-117.421 L-52.3975,-120.314 Z M-47.6462,-99.1575 C-47.4231,-97.6091 -48.3515,-95.7313 -49.295,-95.1866 C-49.6094,-95.0051 -49.745,-95.0946 -49.8078,-95.0583 C-50.0063,-95.1114 -50.9186,-95.6749 -51.7784,-98.6167 C-51.9892,-99.4174 -52.1636,-100.155 -52.3381,-100.893 C-51.0678,-100.872 -49.3645,-100.681 -47.748,-99.7696 C-47.6753,-99.6438 -47.6293,-99.4188 -47.6462,-99.1575 Z M-27.6484,-89.0675 C-27.2198,-87.8893 -28.4582,-86.8389 -29.5903,-86.1853 C-31.6659,-84.987 -34.0248,-84.7152 -34.8184,-84.9279 C-35.3728,-86.0334 -34.9572,-87.7828 -34.6985,-88.3515 L-34.6454,-88.5499 C-33.5593,-89.4285 -31.0896,-91.106 -28.1497,-90.3714 C-27.9584,-89.8948 -27.8034,-89.4812 -27.6484,-89.0675 Z M-17.8919,-92.9393 C-18.8354,-92.3947 -20.5167,-91.6755 -21.359,-92.6987 C-21.5308,-92.8511 -21.6397,-93.0398 -21.7753,-93.1292 C-21.3383,-96.1489 -19.1565,-97.744 -17.5744,-98.4897 L-17.1775,-98.3834 C-16.7178,-98.3134 -14.8692,-97.8712 -14.1527,-96.7754 C-14.4016,-96.0446 -15.8164,-94.1376 -17.8919,-92.9393 Z M-23.6581,-117.452 C-25.0399,-118.247 -25.8336,-118.46 -26.032,-118.513 L-30.0897,-119.441 L-19.7408,-101.516 C-21.601,-100.526 -23.4587,-98.9499 -24.52,-96.5761 C-25.1179,-97.3211 -25.6165,-98.0395 -26.1054,-98.5959 L-27.093,-99.8706 L-27.1559,-99.8343 C-27.5093,-100.301 -29.177,-102.609 -30.7494,-101.701 C-32.2589,-100.829 -31.1572,-98.195 -30.9296,-97.6556 L-30.9925,-97.6192 L-30.3823,-96.1266 C-30.1547,-95.5872 -29.8544,-94.9219 -29.6171,-94.2203 C-32.2205,-94.2267 -34.4678,-93.1808 -36.0933,-92.0746 L-46.4423,-110 L-47.6677,-106.022 C-47.7209,-105.823 -47.8804,-105.228 -47.9283,-103.858 C-49.6875,-104.436 -51.4174,-104.528 -52.6876,-104.549 C-52.7759,-108.188 -52.0776,-111.191 -51.4636,-112.887 L-50.6992,-113.16 C-49.0445,-113.78 -47.426,-114.463 -45.8076,-115.146 C-44.0634,-115.901 -42.4548,-116.746 -41.2864,-117.337 L-39.8398,-118.172 C-39.8398,-118.172 -39.8398,-118.172 -39.8398,-118.172 C-39.8398,-118.172 -39.8398,-118.172 -39.8398,-118.172 L-38.8964,-118.717 C-38.1416,-119.153 -37.2345,-119.76 -36.2645,-120.404 C-34.1358,-121.801 -32.0798,-123.323 -30.0963,-124.972 L-29.8811,-125.18 C-28.0688,-124.8 -25.0199,-123.877 -21.9393,-121.882 C-22.6914,-120.861 -23.3781,-119.29 -23.6581,-117.452 Z M-15.5303,-114.848 C-15.5569,-114.749 -15.5835,-114.65 -15.8979,-114.468 C-16.8414,-113.924 -18.9318,-114.059 -20.1612,-115.026 C-20.1612,-115.026 -20.1612,-115.026 -20.1975,-115.089 C-20.278,-116.971 -19.6906,-118.568 -19.1103,-119.742 C-18.5948,-119.285 -18.1156,-118.891 -17.6267,-118.334 C-15.446,-116.155 -15.5135,-115.11 -15.5303,-114.848 Z M-36.0479,-116.252 L-40.1989,-113.856 C-41.7713,-112.948 -42.3295,-110.865 -41.4217,-109.292 L-39.9692,-106.776 C-39.0614,-105.204 -36.9781,-104.646 -35.4057,-105.554 L-31.2546,-107.95 C-29.6823,-108.858 -29.1241,-110.941 -30.0319,-112.514 L-31.4843,-115.03 C-32.3922,-116.602 -34.4755,-117.16 -36.0479,-116.252 Z M-39.6195,-125.344 C-38.1295,-126.539 -38.031,-128.693 -39.1806,-129.958 C-40.3666,-131.286 -42.1957,-131.404 -43.4076,-130.452 C-45.3644,-128.903 -47.5658,-127.632 -49.8857,-126.712 C-51.3155,-126.138 -52.0916,-124.432 -51.5709,-122.804 C-51.0138,-121.113 -49.0997,-120.122 -47.3555,-120.877 C-44.4961,-122.025 -41.9174,-123.514 -39.6195,-125.344 Z M-42.6379,-129.555 C-42.3961,-129.862 -41.8469,-129.928 -41.4669,-129.56 C-40.6804,-128.924 -40.172,-128.044 -39.9781,-126.981 C-39.8497,-126.469 -40.181,-126.026 -40.6044,-126.033 C-40.9915,-125.977 -41.2723,-126.318 -41.391,-126.669 C-41.5654,-127.407 -41.9285,-128.036 -42.4803,-128.556 C-42.7248,-128.834 -42.8435,-129.185 -42.6379,-129.555 Z " fill="#008c9f" fill-opacity="1.00" />			<path d="M63.1864,-53.2168 C65.0864,-52.8168 66.7864,-53.0168 71.4864,-55.2168 C73.9864,-56.3168 77.1864,-56.4168 79.0864,-54.5168 C80.1864,-53.4168 81.0864,-51.6168 81.6864,-49.8168 C82.5864,-47.3168 86.4864,-45.1168 87.7864,-43.0168 L136.986,-108.617 L93.5864,-56.6168 L110.286,-81.7168 L98.1864,-73.1168 L115.986,-96.1168 L91.1864,-75.5168 L123.686,-109.417 L63.1864,-53.2168 Z M85.4864,-41.5168 C85.4864,-43.7168 83.6864,-45.5168 81.2864,-46.0168 C80.7864,-46.9168 80.1864,-47.8168 79.3864,-48.6168 C79.3864,-48.6168 79.2864,-48.7168 79.1864,-48.7168 C79.3864,-50.1168 78.8864,-51.6168 77.7864,-52.7168 C75.8864,-54.6168 72.7864,-54.6168 70.8864,-52.7168 C70.5864,-52.4168 70.2864,-52.0168 70.0864,-51.6168 C68.8864,-51.4168 67.6864,-51.0168 66.4864,-50.4168 C66.4864,-50.5168 66.3864,-50.5168 66.3864,-50.6168 C64.8864,-52.1168 62.5864,-52.1168 61.0864,-50.6168 C59.7864,-49.2168 59.7864,-46.9168 61.2864,-45.4168 C61.3864,-45.3168 61.5864,-45.2168 61.6864,-45.1168 C61.3864,-44.4168 61.1864,-43.6168 60.9864,-42.8168 C60.6864,-42.6168 60.3864,-42.4168 60.0864,-42.1168 C57.9864,-40.0168 57.9864,-36.7168 60.0864,-34.6168 C61.1864,-33.5168 62.7864,-33.0168 64.2864,-33.1168 C66.7864,-30.7168 70.2864,-29.8168 73.4864,-30.3168 C75.2864,-29.1168 77.6864,-29.3168 79.2864,-30.9168 C80.3864,-32.0168 80.7864,-33.4168 80.5864,-34.7168 C81.0864,-35.4168 81.5864,-36.2168 81.8864,-37.1168 C82.4864,-37.3168 83.0864,-37.7168 83.6864,-38.2168 C83.6864,-38.2168 83.6864,-38.3168 83.7864,-38.3168 C84.7864,-39.0168 85.4864,-40.2168 85.4864,-41.5168 Z M68.6864,-39.6168 C68.3864,-39.3168 67.9864,-39.1168 67.5864,-39.0168 C66.5864,-38.7168 65.4864,-38.9168 64.6864,-39.6168 C63.5864,-40.7168 63.5864,-42.5168 64.6864,-43.5168 C65.1864,-44.0168 65.7864,-44.2168 66.4864,-44.3168 C67.2864,-44.4168 68.0864,-44.1168 68.6864,-43.5168 C69.7864,-42.4168 69.7864,-40.6168 68.6864,-39.6168 Z M72.8864,-51.2168 C72.9864,-51.3168 73.1864,-51.4168 73.2864,-51.5168 C74.1864,-52.1168 75.2864,-52.0168 76.0864,-51.2168 C76.2864,-51.0168 76.4864,-50.7168 76.5864,-50.4168 C76.8864,-49.6168 76.6864,-48.6168 76.0864,-48.0168 C75.1864,-47.1168 73.7864,-47.1168 72.8864,-48.0168 C71.9864,-48.8168 71.9864,-50.3168 72.8864,-51.2168 Z M76.8864,-34.1168 C75.8864,-33.1168 74.1864,-33.1168 73.1864,-34.1168 C72.1864,-35.1168 72.1864,-36.8168 73.1864,-37.8168 C74.1864,-38.8168 75.8864,-38.8168 76.8864,-37.8168 C77.9864,-36.8168 77.9864,-35.1168 76.8864,-34.1168 Z " fill="#dce9eb" fill-opacity="1.00" />			<path d="M-33.2302,117.918 C-33.9647,116.596 -34.7726,115.2 -35.7275,113.805 C-36.1682,115.568 -36.0947,115.347 -36.8292,116.963 C-35.5806,119.387 -34.3319,122.619 -33.6709,125.557 C-32.9364,129.009 -34.185,130.111 -39.1061,128.054 C-52.8412,122.325 -71.1301,103.448 -80.091,87.5099 C-82.221,83.6905 -82.5148,80.8994 -79.1361,81.1932 C-76.7857,81.4135 -74.2885,82.5153 -72.3053,83.4701 C-71.277,82.8091 -69.808,82.0746 -68.4125,81.7808 C-69.2939,81.2666 -80.091,73.2607 -86.0404,78.0349 C-87.8766,79.7977 -88.3908,82.5153 -87.9501,85.1595 C-87.5094,87.8037 -86.2607,90.7416 -84.5714,93.9734 C-81.1193,100.364 -75.3168,107.929 -67.9718,115.2 C-60.7003,122.545 -53.2084,128.274 -46.8183,131.726 C-43.66,133.489 -40.722,134.664 -38.1513,135.105 C-33.9647,136.133 -25.0038,131.726 -33.2302,117.918 Z M-34.7726,102.567 C-34.7726,102.053 -34.7726,101.612 -34.8461,101.098 C-34.8461,100.731 -34.8461,100.364 -34.9195,99.9963 C-36.5354,88.5382 -46.9652,80.1649 -58.6437,81.1932 C-65.2542,81.7808 -70.9098,85.3064 -74.5088,90.3744 C-73.8478,91.5496 -73.1867,92.6513 -72.5991,93.6796 C-65.2542,104.33 -55.7057,114.833 -44.0273,121.003 C-38.2247,116.89 -34.6257,110.059 -34.7726,102.567 Z M-56.734,128.568 C-65.6214,122.472 -73.1867,114.245 -79.8706,106.019 C-80.6051,104.917 -81.4131,103.742 -82.221,102.567 C-82.4414,104.183 -82.5148,105.872 -82.3679,107.562 C-82.1476,109.692 -81.7069,111.748 -80.9724,113.658 C-80.8255,114.025 -80.6786,114.319 -80.5317,114.686 C-80.5317,114.76 -80.4582,114.833 -80.4582,114.907 C-79.3565,117.551 -77.814,120.048 -75.6105,122.178 C-72.9664,124.822 -69.808,126.585 -66.4294,127.613 C-66.3559,127.613 -66.3559,127.687 -66.2825,127.687 C-66.2825,127.687 -66.209,127.687 -66.1356,127.76 C-65.7683,127.907 -65.4011,127.981 -64.9604,128.054 C-62.4631,128.715 -59.8189,128.935 -57.1013,128.715 C-57.1013,128.568 -56.8809,128.568 -56.734,128.568 Z " fill="#008c9f" fill-opacity="1.00" />			<path d="M76.0153,21.0305 C83.3224,14.6089 87.6348,9.91616 86.5808,5.70583 C86.024,3.54904 86.5637,1.86062 87.2662,0.215857 C87.5004,-0.3324 87.7942,-0.777394 87.9848,-1.16277 C93.3481,0.972622 104.018,2.52238 112.073,-2.12782 C119.094,-6.18185 121.495,-15.1402 117.441,-22.162 C113.387,-29.1838 104.532,-31.6438 97.5099,-27.5897 C89.4555,-22.9395 85.403,-13.0273 84.6302,-7.21155 C84.0979,-7.1796 83.5656,-7.14765 83.077,-7.27858 C81.3609,-7.38926 79.5693,-7.86933 78.0394,-9.32669 C74.9202,-12.3447 68.8032,-11.0159 59.4852,-7.83906 C50.2704,-4.72181 46.1953,-3.19513 47.5069,-0.923376 C48.8185,1.34837 49.6679,-0.518892 55.9595,-2.49913 C68.6458,-6.51921 67.0937,-3.00718 60.8981,0.569899 C54.7024,4.14698 39.8296,15.3497 36.3943,17.7461 C32.959,20.1426 32.1064,24.6276 37.476,21.5275 C42.8456,18.4273 54.0255,11.5596 57.6088,12.5197 C56.5454,16.1627 45.1111,22.3513 39.6382,25.511 C34.1654,28.6708 38.5354,30.2782 42.3721,28.3384 C46.1651,26.5616 63.2001,19.3424 69.499,15.7057 C75.6947,12.1286 79.5122,12.5405 69.6876,21.5171 C64.8269,25.9756 62.8447,25.8809 64.0966,28.0494 C65.4519,30.1583 68.7083,27.4521 76.0153,21.0305 Z M107.606,-8.91112 C107.828,-8.76422 108.051,-8.61731 108.11,-8.51405 L108.17,-8.41079 C108.392,-8.26389 108.674,-8.01372 108.794,-7.8072 C108.853,-7.70394 109.076,-7.55703 109.135,-7.45377 L110.328,-5.38854 C108.251,-3.50102 105.474,-2.5865 102.559,-3.10594 C101.049,-3.33585 99.7301,-3.95114 98.6612,-4.84854 C97.5924,-5.74594 96.7301,-6.76258 96.1179,-8.06134 C98.1948,-9.94886 101.074,-10.923 103.99,-10.4036 C105.397,-10.114 106.553,-9.54239 107.606,-8.91112 Z M109.358,-7.30687 C109.477,-7.10034 109.537,-6.99708 109.759,-6.85018 C109.537,-6.99708 109.477,-7.10034 109.358,-7.30687 Z M99.505,-24.6111 L99.4017,-24.5515 L100.534,-22.5896 C101.238,-20.6553 101.203,-18.5698 100.473,-16.496 C99.4648,-13.7111 97.1813,-11.7043 94.5082,-10.8494 C93.0337,-13.1648 92.5323,-16.1796 93.5403,-18.9645 C94.5484,-21.7495 96.7286,-23.6966 99.4017,-24.5515 C99.3421,-24.6548 99.4454,-24.7144 99.505,-24.6111 C99.4454,-24.7144 99.505,-24.6111 99.505,-24.6111 Z " fill="#008c9f" fill-opacity="1.00" />			<path d="M-131.206,-48.9544 C-135.618,-32.1942 -136.79,-30.3531 -149.618,-18.6098 C-132.858,-14.1978 -131.017,-13.0255 -119.335,-0.182524 C-114.923,-16.9427 -113.751,-18.7838 -100.908,-30.4659 C-117.698,-35.0003 -119.585,-36.0966 -131.206,-48.9544 Z " fill="#dce9eb" fill-opacity="1.00" />			<path d="M65.7349,-138.529 C53.4229,-126.045 51.467,-125.02 34.2972,-121.177 C46.7809,-108.865 47.8058,-106.909 51.5878,-89.7568 C63.8999,-102.241 65.8558,-103.265 83.0078,-107.047 C70.5596,-119.482 69.4558,-121.394 65.7349,-138.529 Z " fill="#dce9eb" fill-opacity="1.00" />			<path d="M31.1126,-63.0708 C33.3386,-59.2449 34.5907,-54.9321 34.6602,-50.6889 C34.7298,-48.602 34.4515,-46.5152 33.895,-44.4979 C33.6168,-43.524 33.269,-42.5502 32.8516,-41.6459 C32.7125,-41.4372 32.6429,-41.159 32.5038,-40.9503 L32.3647,-40.6025 C32.2951,-40.4633 32.2256,-40.3242 32.156,-40.2547 C31.9473,-39.8373 31.6691,-39.3504 31.3908,-39.0026 C29.1649,-35.5941 25.8955,-33.0898 22.2087,-32.3942 C20.4001,-31.9769 18.4524,-32.0464 16.5743,-32.4638 C15.6004,-32.6725 14.6961,-32.9507 13.7223,-33.2985 C12.818,-33.6463 11.9832,-34.0637 11.2181,-34.6202 C9.6877,-35.6636 8.4356,-37.1244 7.60086,-38.7243 C7.18349,-39.5591 6.83569,-40.4633 6.69657,-41.3676 C6.48788,-42.2719 6.41832,-43.1762 6.48788,-44.1501 C6.55744,-45.0544 6.76613,-46.0283 7.04437,-46.9326 C7.32262,-47.7673 7.80955,-48.5325 8.36604,-49.2281 C9.54858,-50.6193 11.3572,-51.5236 13.3049,-51.7323 C14.2787,-51.8714 15.3222,-51.7323 16.296,-51.454 C17.2699,-51.1758 18.1046,-50.6889 18.8698,-49.9932 C20.3306,-48.5325 21.0958,-46.1674 20.4697,-43.8719 C21.0958,-44.9153 21.374,-46.0978 21.374,-47.4195 C21.374,-48.6716 20.9566,-49.9932 20.1915,-51.1062 C19.4958,-52.2192 18.3829,-53.1931 17.1308,-53.8191 C15.9482,-54.4452 14.6266,-54.793 13.2353,-54.8625 C11.8441,-54.9321 10.4529,-54.793 9.13121,-54.3061 C7.80955,-53.8887 6.55744,-53.1235 5.44446,-52.2192 C4.33148,-51.2454 3.42718,-50.1324 2.80113,-48.8107 C2.17508,-47.5586 1.68815,-46.2369 1.47947,-44.8457 C1.27078,-43.4545 1.20122,-41.9937 1.34034,-40.6025 C1.54903,-39.2112 1.89683,-37.82 2.45332,-36.4984 C3.56631,-33.855 5.3749,-31.5595 7.60086,-29.8205 C8.71384,-28.9162 10.0355,-28.2206 11.2181,-27.7336 C12.4702,-27.1771 13.7223,-26.7598 15.0439,-26.412 C17.6873,-25.7859 20.6088,-25.7163 23.3913,-26.2728 C26.1737,-26.8989 28.7475,-28.0814 30.9735,-29.8205 C33.1299,-31.4899 34.9385,-33.6463 36.3297,-35.9419 C36.6775,-36.4984 36.9557,-37.0548 37.3035,-37.7505 L37.5122,-38.1678 L37.7209,-38.6548 C37.86,-38.933 37.9992,-39.2808 38.1383,-39.5591 C38.6252,-40.8112 38.973,-42.0633 39.2513,-43.3849 C39.8078,-45.9587 39.8078,-48.602 39.5295,-51.1758 C38.9035,-56.3233 36.7471,-61.1231 33.5472,-64.9489 C30.417,-68.7748 26.1737,-71.6964 21.5131,-72.8789 C25.6868,-70.3747 28.8866,-66.9662 31.1126,-63.0708 Z M-0.39869,-26.9685 C-2.62465,-30.7943 -3.87676,-35.1071 -3.94632,-39.3504 C-4.01588,-41.4372 -3.73763,-43.524 -3.18114,-45.5413 C-2.9029,-46.5152 -2.55509,-47.489 -2.13772,-48.3933 C-1.9986,-48.602 -1.92904,-48.8803 -1.78992,-49.089 L-1.65079,-49.4368 C-1.58123,-49.5759 -1.51167,-49.715 -1.44211,-49.7846 C-1.23343,-50.2019 -0.955181,-50.6889 -0.676936,-51.0367 C1.54903,-54.4452 4.81841,-56.9494 8.50516,-57.645 C10.3138,-58.0624 12.2615,-57.9928 14.1396,-57.5754 C15.1135,-57.3668 16.0178,-57.0885 16.9916,-56.7407 C17.8959,-56.3929 18.7307,-55.9755 19.4958,-55.419 C21.0262,-54.3756 22.2783,-52.9148 23.113,-51.3149 C23.5304,-50.4802 23.8782,-49.5759 24.0173,-48.6716 C24.226,-47.7673 24.2956,-46.863 24.226,-45.8891 C24.1565,-44.9848 23.9478,-44.011 23.6695,-43.1067 C23.3913,-42.2719 22.9044,-41.5068 22.3479,-40.8112 C21.1653,-39.4199 19.3567,-38.5156 17.409,-38.3069 C16.4352,-38.1678 15.3917,-38.3069 14.4179,-38.5852 C13.444,-38.8634 12.6093,-39.3504 11.8441,-40.046 C10.3833,-41.5068 9.61814,-43.8719 10.2442,-46.1674 C9.61814,-45.124 9.3399,-43.9414 9.3399,-42.6197 C9.40946,-41.3676 9.75726,-40.046 10.5224,-38.933 C11.2181,-37.82 12.331,-36.8462 13.5831,-36.2201 C14.7657,-35.5941 16.0873,-35.2462 17.4786,-35.1767 C18.8698,-35.1071 20.261,-35.2462 21.5827,-35.7332 C22.9044,-36.1505 24.1565,-36.9157 25.2694,-37.82 C26.3824,-38.7939 27.2867,-39.9069 27.9128,-41.2285 C28.5388,-42.4806 29.0258,-43.8023 29.2344,-45.1935 C29.4431,-46.5847 29.5127,-48.0455 29.3736,-49.4368 C29.1649,-50.828 28.8171,-52.2192 28.2606,-53.5409 C27.1476,-56.1842 25.339,-58.4797 23.113,-60.2188 C22.0001,-61.1231 20.6784,-61.8187 19.4958,-62.3056 C18.2437,-62.8621 16.9916,-63.2795 15.67,-63.6273 C13.0266,-64.2533 10.1051,-64.3229 7.32262,-63.7664 C4.54016,-63.1403 1.96639,-61.9578 -0.259568,-60.2188 C-2.41597,-58.5493 -4.22456,-56.3929 -5.61579,-54.0974 C-5.9636,-53.5409 -6.24184,-52.9844 -6.58965,-52.2888 L-6.79833,-51.941 L-7.00702,-51.454 C-7.14614,-51.1758 -7.28526,-50.828 -7.42438,-50.5497 C-7.91131,-49.2976 -8.25912,-48.0455 -8.53737,-46.7239 C-9.09386,-44.1501 -9.09386,-41.5068 -8.81561,-38.933 C-8.18956,-33.7855 -6.03316,-28.9857 -2.83334,-25.1599 C0.296923,-21.334 4.54016,-18.4124 9.20077,-17.2299 C5.09665,-19.7341 1.82727,-23.1426 -0.39869,-26.9685 Z " fill="#345b7d" fill-opacity="1.00" />		</g>	</svg>