<?xml version="1.0" encoding="utf-8" ?>	<!-- Generator: Assembly 2.4 - http://assemblyapp.co -->	<svg version="1.1" xmlns="http://www.w3.org/2000/svg" xmlns:xlink="http://www.w3.org/1999/xlink" width="4096.00" height="4096.00" viewBox="0 0 4096.0 4096.0">		<g id="document" transform="scale(13.653333333333334 13.653333333333334) translate(150.0 150.0)">			<path d="M63.5628,149.253 C111.036,149.253 149.253,111.036 149.253,63.5628 L149.253,-63.9278 C149.253,-111.401 110.737,-149.618 63.5628,-149.618 L-63.9278,-149.618 C-111.401,-149.618 -149.618,-111.102 -149.618,-63.9278 L-149.618,63.5628 C-149.618,111.036 -111.102,149.253 -63.9278,149.253 L63.5628,149.253 Z " fill="#f25d5a" fill-opacity="1.00" />			<path d="M81.7773,66.3538 L63.5515,81.4773 L45.3368,66.3547 L27.1165,81.4773 L8.90178,66.3556 L-9.30741,81.4783 L-27.5166,66.3556 L-45.7304,81.4783 L-63.9424,66.3556 L-82.158,81.4783 L-94.699,71.0647 L-94.699,80.1397 L-82.158,90.5533 L-63.9424,75.4307 L-45.7304,90.5533 L-27.5166,75.4307 L-9.30741,90.5533 L8.90178,75.4307 L27.1165,90.5543 L45.3368,75.4316 L63.5515,90.5543 L81.7773,75.4325 L94.334,85.85 L94.334,76.7717 L81.7773,66.3538 Z M81.7773,28.5472 L63.5515,43.6707 L45.3368,28.5481 L27.1165,43.6707 L8.90178,28.549 L-9.30741,43.6717 L-27.5166,28.549 L-45.7304,43.6717 L-63.9424,28.549 L-82.158,43.6717 L-94.699,33.2581 L-94.699,42.3331 L-82.158,52.7467 L-63.9424,37.6241 L-45.7304,52.7467 L-27.5166,37.6241 L-9.30741,52.7467 L8.90178,37.6241 L27.1165,52.7477 L45.3368,37.625 L63.5515,52.7477 L81.7773,37.6259 L94.334,48.0434 L94.334,38.9651 L81.7773,28.5472 Z M81.7773,-9.25942 L63.5515,5.86415 L45.3368,-9.25849 L27.1165,5.86415 L8.90178,-9.25757 L-9.30741,5.86507 L-27.5166,-9.25757 L-45.7304,5.86507 L-63.9424,-9.25757 L-82.158,5.86507 L-94.699,-4.54847 L-94.699,4.52647 L-82.158,14.9401 L-63.9424,-0.182509 L-45.7304,14.9401 L-27.5166,-0.182509 L-9.30741,14.9401 L8.90178,-0.182509 L27.1165,14.9411 L45.3368,-0.181586 L63.5515,14.9411 L81.7773,-0.180663 L94.334,10.2368 L94.334,1.15851 L81.7773,-9.25942 Z M-74.8735,94.334 L-53.0134,94.334 L-63.9424,85.2589 L-74.8735,94.334 Z M81.7773,47.4505 L63.5515,62.574 L45.3368,47.4514 L27.1165,62.574 L8.90178,47.4523 L-9.30741,62.575 L-27.5166,47.4523 L-45.7304,62.575 L-63.9424,47.4523 L-82.158,62.575 L-94.699,52.1614 L-94.699,61.2364 L-82.158,71.65 L-63.9424,56.5274 L-45.7304,71.65 L-27.5166,56.5274 L-9.30741,71.65 L8.90178,56.5274 L27.1165,71.651 L45.3368,56.5283 L63.5515,71.651 L81.7773,56.5292 L94.334,66.9467 L94.334,57.8684 L81.7773,47.4505 Z M34.4017,94.334 L56.2685,94.334 L45.3368,85.258 L34.4017,94.334 Z M70.8385,94.334 L92.7177,94.334 L81.7773,85.2571 L70.8385,94.334 Z M-2.02553,94.334 L19.833,94.334 L8.90178,85.2589 L-2.02553,94.334 Z M-38.4467,94.334 L-16.5893,94.334 L-27.5166,85.2589 L-38.4467,94.334 Z M81.7773,9.64388 L63.5515,24.7674 L45.3368,9.64481 L27.1165,24.7674 L8.90178,9.64573 L-9.30741,24.7684 L-27.5166,9.64573 L-45.7304,24.7684 L-63.9424,9.64573 L-82.158,24.7684 L-94.699,14.3548 L-94.699,23.4298 L-82.158,33.8434 L-63.9424,18.7208 L-45.7304,33.8434 L-27.5166,18.7208 L-9.30741,33.8434 L8.90178,18.7208 L27.1165,33.8444 L45.3368,18.7217 L63.5515,33.8444 L81.7773,18.7226 L94.334,29.1401 L94.334,20.0618 L81.7773,9.64388 Z M92.7177,-94.699 L70.8385,-94.699 L63.5515,-88.6524 L56.2685,-94.699 L34.4017,-94.699 L27.1165,-88.6524 L19.833,-94.699 L8.90178,-94.699 L27.1165,-79.5754 L45.3368,-94.6981 L63.5515,-79.5754 L81.7773,-94.6972 L94.334,-84.2797 L94.334,-93.358 L92.7177,-94.699 Z M81.7773,-28.1627 L63.5515,-13.0392 L45.3368,-28.1618 L27.1165,-13.0392 L8.90178,-28.1609 L-9.30741,-13.0382 L-27.5166,-28.1609 L-45.7304,-13.0382 L-63.9424,-28.1609 L-82.158,-13.0382 L-94.699,-23.4518 L-94.699,-14.3768 L-82.158,-3.96317 L-63.9424,-19.0858 L-45.7304,-3.96317 L-27.5166,-19.0858 L-9.30741,-3.96317 L8.90178,-19.0858 L27.1165,-3.96225 L45.3368,-19.0849 L63.5515,-3.96225 L81.7773,-19.084 L94.334,-8.6665 L94.334,-17.7448 L81.7773,-28.1627 Z M-94.699,89.968 L-94.699,94.334 L-89.4411,94.334 L-94.699,89.968 Z M-38.4467,-94.699 L-27.5166,-94.699 L-45.7304,-79.5764 L-63.9424,-94.699 L-53.0134,-94.699 L-45.7304,-88.6515 L-38.4467,-94.699 Z M-2.02553,-94.699 L8.90178,-94.699 L-9.30741,-79.5764 L-27.5166,-94.699 L-16.5893,-94.699 L-9.30741,-88.6515 L-2.02553,-94.699 Z M81.7773,-65.9693 L63.5515,-50.8458 L45.3368,-65.9684 L27.1165,-50.8458 L8.90178,-65.9675 L-9.30741,-50.8448 L-27.5166,-65.9675 L-45.7304,-50.8448 L-63.9424,-65.9675 L-82.158,-50.8448 L-94.699,-61.2584 L-94.699,-52.1834 L-82.158,-41.7698 L-63.9424,-56.8924 L-45.7304,-41.7698 L-27.5166,-56.8924 L-9.30741,-41.7698 L8.90178,-56.8924 L27.1165,-41.7688 L45.3368,-56.8915 L63.5515,-41.7688 L81.7773,-56.8906 L94.334,-46.4731 L94.334,-55.5514 L81.7773,-65.9693 Z M81.7773,-47.066 L63.5515,-31.9425 L45.3368,-47.0651 L27.1165,-31.9425 L8.90178,-47.0642 L-9.30741,-31.9415 L-27.5166,-47.0642 L-45.7304,-31.9415 L-63.9424,-47.0642 L-82.158,-31.9415 L-94.699,-42.3551 L-94.699,-33.2801 L-82.158,-22.8665 L-63.9424,-37.9891 L-45.7304,-22.8665 L-27.5166,-37.9891 L-9.30741,-22.8665 L8.90178,-37.9891 L27.1165,-22.8655 L45.3368,-37.9882 L63.5515,-22.8655 L81.7773,-37.9873 L94.334,-27.5698 L94.334,-36.6481 L81.7773,-47.066 Z M-74.8735,-94.699 L-63.9424,-94.699 L-82.158,-79.5764 L-94.699,-89.9901 L-94.699,-94.699 L-89.4411,-94.699 L-82.158,-88.6515 L-74.8735,-94.699 Z M81.7773,-84.8726 L63.5515,-69.7491 L45.3368,-84.8717 L27.1165,-69.7491 L8.90178,-84.8708 L-9.30741,-69.7481 L-27.5166,-84.8708 L-45.7304,-69.7481 L-63.9424,-84.8708 L-82.158,-69.7481 L-94.699,-80.1617 L-94.699,-71.0867 L-82.158,-60.6731 L-63.9424,-75.7957 L-45.7304,-60.6731 L-27.5166,-75.7957 L-9.30741,-60.6731 L8.90178,-75.7957 L27.1165,-60.6721 L45.3368,-75.7948 L63.5515,-60.6721 L81.7773,-75.7939 L94.334,-65.3764 L94.334,-74.4547 L81.7773,-84.8726 Z " fill="#ffffff" fill-opacity="1.00" />		</g>	</svg>