<?xml version="1.0" encoding="utf-8" ?>	<!-- Generator: Assembly 2.4 - http://assemblyapp.co -->	<svg version="1.1" xmlns="http://www.w3.org/2000/svg" xmlns:xlink="http://www.w3.org/1999/xlink" width="4096.00" height="4096.00" viewBox="0 0 4096.0 4096.0">		<g id="document" transform="scale(13.653333333333334 13.653333333333334) translate(150.0 150.0)">			<path d="M63.5628,149.253 C111.036,149.253 149.253,111.036 149.253,63.5628 L149.253,-63.9278 C149.253,-111.401 110.737,-149.618 63.5628,-149.618 L-63.9278,-149.618 C-111.401,-149.618 -149.618,-111.102 -149.618,-63.9278 L-149.618,63.5628 C-149.618,111.036 -111.102,149.253 -63.9278,149.253 L63.5628,149.253 Z " fill="#79bd9a" fill-opacity="1.00" />			<path d="M115.435,44.8058 C115.435,40.045 111.587,36.1972 106.826,36.1972 C106.565,36.1972 106.37,36.1972 106.109,36.2624 C104.478,31.6972 100.109,28.4363 94.9565,28.4363 C92.6087,28.4363 90.3913,29.1537 88.5652,30.3276 C86.8043,31.5015 84.587,34.3058 84.587,37.2406 C84.2609,34.6972 85.3696,31.6972 86.8696,29.7406 C87.2609,29.2189 87.2609,28.4363 86.8043,27.9145 C84.587,25.5015 81.3261,23.9363 77.8043,23.9363 C71.7391,23.9363 66.7174,28.3058 65.7391,34.045 C62.4783,35.0232 59.8043,37.3711 58.3043,40.3711 C53.8043,40.7624 50.2826,44.4798 50.2826,49.045 C50.2826,53.8711 54.1957,57.7841 59.0217,57.7841 C59.1522,57.7841 59.2826,57.7841 59.3478,57.7841 C60.3913,61.4363 63.7174,64.1102 67.6957,64.1102 C69.5217,64.1102 71.1522,63.5885 72.587,62.6102 C74.2826,66.458 78.1304,69.1319 82.6304,69.1319 C83.3478,69.1319 84.0652,69.0667 84.7826,68.9363 C85.6957,68.7406 86.2174,67.8276 86.0217,66.9798 C85.2391,63.7841 84.7826,58.7624 84.7826,58.8276 C85.1739,62.545 87.3913,66.3276 88.8261,68.3493 C89.1522,68.8058 89.413,69.1972 89.7391,69.6537 C89.7391,69.6537 89.7391,69.6537 89.7391,69.6537 C93.3913,74.1537 98.7391,77.2841 104.804,78.0015 C101.152,74.0885 98.9348,68.9363 98.7391,63.1972 C100.043,63.9798 101.609,64.4363 103.239,64.4363 C108.13,64.4363 112.043,60.5232 112.043,55.6319 C112.043,54.458 111.783,53.2841 111.391,52.3058 C113.804,50.6102 115.435,47.9363 115.435,44.8058 Z " fill="#bde9b7" fill-opacity="1.00" />			<path d="M-61.2065,73.0571 L-64.9643,66.2953 L-64.4909,58.52 L-71.2789,54.8235 L-75.105,48.0469 L-82.8299,48.6588 L-89.7011,45.0159 L-95.8742,49.6895 L-103.599,50.3014 L-106.261,57.6009 L-112.434,62.2745 L-110.722,69.8805 L-113.384,77.1799 L-107.901,82.5979 L-106.189,90.2039 L-98.5833,91.7863 L-93.0473,97.2875 L-85.7802,94.4991 L-78.1744,96.0815 L-73.5949,89.8437 L-66.3278,87.0553 L-65.786,79.2948 L-61.2065,73.0571 Z M-98.9912,98.9313 L-98.9078,97.2305 L-100.323,96.493 L-101.15,95.0241 L-102.827,95.1608 L-104.295,94.34 L-105.589,95.3479 L-107.266,95.4845 L-107.813,97.0128 L-109.19,98.0742 L-108.818,99.659 L-109.38,101.256 L-108.191,102.374 L-107.834,104.027 L-106.193,104.384 L-105.004,105.502 L-103.443,104.91 L-101.802,105.267 L-100.805,103.98 L-99.3127,103.373 L-99.1609,101.688 L-98.1499,100.332 L-98.9912,98.9313 Z M-110.865,107.092 L-110.793,106.105 L-111.638,105.707 L-112.089,104.821 L-113.038,104.901 L-113.936,104.419 L-114.715,105.037 L-115.663,105.118 L-116.008,106.045 L-116.773,106.595 L-116.556,107.574 L-116.901,108.501 L-116.184,109.158 L-115.967,110.137 L-114.995,110.276 L-114.362,110.987 L-113.422,110.618 L-112.465,110.827 L-111.944,110.08 L-111.004,109.712 L-110.933,108.725 L-110.344,107.993 L-110.865,107.092 Z " fill="#bde9b7" fill-opacity="1.00" />			<path d="M-55.5969,-32.9856 C-81.7064,-32.9856 -102.879,-20.1682 -102.879,-4.31259 C-102.879,4.23235 -96.7075,11.9228 -86.9283,17.1447 C-85.789,17.7144 -85.3143,19.0436 -85.694,20.1829 L-89.3968,32.0509 C-89.5867,32.7155 -88.8272,33.2851 -88.2575,32.8104 L-75.3452,22.7464 C-74.6806,22.2717 -73.921,22.0818 -73.1615,22.2717 C-67.7497,23.6009 -61.8631,24.2655 -55.5969,24.2655 C-29.4873,24.2655 -8.31486,11.4481 -8.31486,-4.40753 C-8.31486,-20.2631 -29.4873,-32.9856 -55.5969,-32.9856 Z " fill="#ffffff" fill-opacity="1.00" />			<path d="M11.6413,-120.075 L32.1848,-104.357 L17.5109,-123.531 L33.0326,-119.683 L23.6413,-128.292 L36.6196,-132.336 L19.4022,-133.64 L30.3587,-140.097 L17.5109,-139.379 L19.2717,-149.097 L7.92391,-140.357 L3.03261,-149.618 L0.0978261,-140.357 L-11.25,-149.162 L-9.09783,-139.444 L-22.9891,-142.249 L-11.3152,-133.64 L-28.5978,-132.466 L-12.2935,-128.488 L-21.2935,-120.923 L-9.48913,-123.597 L-14.6413,-108.401 L-3.61957,-120.14 L-3.09783,-113.423 L4.01087,-118.836 L11.837,-108.531 L11.6413,-120.075 Z " fill="#bde9b7" fill-opacity="1.00" />			<path d="M112.349,-71.2548 C112.349,-76.8285 106.965,-81.2686 100.352,-81.2686 C97.2343,-81.2686 94.4947,-80.3239 92.4164,-78.7179 C90.2436,-80.0405 87.4095,-80.8907 84.292,-80.8907 C82.0248,-80.8907 79.9464,-80.4184 78.1515,-79.7571 C77.8681,-80.2295 77.5847,-80.7018 77.2068,-81.0797 C73.9004,-85.3308 67.9488,-86.2755 63.9811,-83.158 C63.6032,-82.8746 63.2253,-82.4967 62.8474,-82.1188 C61.0525,-85.8032 56.8014,-88.3538 51.7945,-88.3538 C45.1816,-88.3538 39.7969,-83.8193 39.7969,-78.3401 C39.7969,-78.0567 39.7969,-77.7732 39.8913,-77.4898 C33.7508,-77.2064 28.8384,-73.7111 28.8384,-69.4599 C28.8384,-68.9876 28.9329,-68.4208 29.0274,-67.9484 C22.6034,-66.9092 17.7855,-63.036 17.7855,-58.407 C17.7855,-53.778 22.6034,-49.9047 29.0274,-48.8656 C29.0274,-48.7711 29.0274,-48.6766 29.0274,-48.5822 C29.0274,-43.1974 33.0895,-38.7573 38.1909,-38.7573 C40.4582,-38.7573 42.5365,-39.6076 44.048,-41.0246 C46.1263,-39.6076 49.0549,-38.7573 52.2669,-38.7573 C54.4397,-38.7573 56.518,-39.2297 58.3129,-39.891 C58.6908,-38.9463 59.1631,-38.096 59.8244,-37.3403 C63.1309,-33.0892 69.0824,-32.1445 73.0502,-35.262 C74.2783,-36.2067 75.223,-37.5292 75.7898,-38.9463 C77.1123,-38.5684 78.5294,-38.3795 80.0409,-38.3795 C83.1584,-38.3795 85.9925,-39.2297 88.1653,-40.5522 C90.3381,-39.2297 93.1722,-38.3795 96.2897,-38.3795 C102.903,-38.3795 108.287,-41.9693 108.287,-46.4094 C108.287,-48.4877 107.154,-50.2826 105.264,-51.6997 C107.154,-53.4946 108.287,-55.7618 108.287,-58.3125 C108.287,-59.9185 107.815,-61.43 107.059,-62.7526 C110.177,-64.642 112.349,-67.7595 112.349,-71.2548 Z M98.6514,-28.3657 C98.6514,-31.4439 94.9294,-33.9394 90.3381,-33.9394 C85.7468,-33.9394 82.0248,-31.4439 82.0248,-28.3657 C82.0248,-25.2874 85.7468,-22.792 90.3381,-22.792 C94.9294,-22.792 98.6514,-25.2874 98.6514,-28.3657 Z M108.004,-15.9902 C108.004,-18.0771 105.466,-19.7689 102.336,-19.7689 C99.2053,-19.7689 96.6675,-18.0771 96.6675,-15.9902 C96.6675,-13.9032 99.2053,-12.2114 102.336,-12.2114 C105.466,-12.2114 108.004,-13.9032 108.004,-15.9902 Z " fill="#ffffff" fill-opacity="1.00" />			<path d="M33.8804,82.8587 L0.228261,82.8587 C-1.20652,82.8587 -2.38043,84.0326 -2.38043,85.4674 L-2.38043,92.7065 C-2.38043,94.2065 -3.55435,95.3804 -5.05435,95.3804 L-25.9891,95.3804 C-27.4239,95.3804 -28.5978,96.5543 -28.5978,97.9891 L-28.5978,115.272 C-28.5978,116.707 -27.4239,117.88 -25.9891,117.88 L-23.9022,117.88 C-23.4457,117.88 -23.1848,118.402 -23.4457,118.793 L-27.6848,124.924 C-27.8804,125.25 -27.5543,125.576 -27.2283,125.38 L-15.8804,118.011 C-15.8152,117.946 -15.6848,117.946 -15.5543,117.946 L2.05435,117.946 C3.48913,117.946 4.66304,116.772 4.66304,115.337 L4.66304,108.033 C4.66304,106.533 5.83696,105.359 7.33696,105.359 L24.3587,105.359 C24.4891,105.359 24.5543,105.359 24.6848,105.424 L35.0543,111.75 C35.3804,111.946 35.7065,111.554 35.5109,111.293 L31.7935,106.272 C31.5326,105.88 31.7935,105.359 32.25,105.359 L33.9457,105.359 C35.3804,105.359 36.5543,104.185 36.5543,102.75 L36.5543,85.4674 C36.4891,84.0326 35.3152,82.8587 33.8804,82.8587 Z " fill="#378c75" fill-opacity="1.00" />			<path d="M-42.2919,-73.3362 C-42.8789,-74.184 -42.7484,-75.3579 -42.031,-76.0753 C-39.2919,-78.8144 -37.6615,-82.2057 -37.6615,-85.9231 C-37.6615,-94.8579 -47.1832,-102.097 -58.9223,-102.097 C-61.4658,-102.097 -63.8136,-101.771 -66.0962,-101.119 C-67.1397,-100.793 -68.3136,-101.38 -68.7049,-102.358 C-70.9223,-107.771 -77.5745,-111.749 -85.4006,-111.749 C-95.0528,-111.749 -102.879,-105.814 -102.879,-98.4449 C-102.879,-95.6405 -101.77,-93.097 -99.8136,-90.9449 C-99.1615,-90.2275 -99.031,-89.2492 -99.4876,-88.4666 L-102.879,-82.3362 L-95.4441,-86.6405 C-94.8571,-86.9666 -94.1397,-87.0318 -93.4876,-86.7709 C-91.0745,-85.7927 -88.2702,-85.2057 -85.3354,-85.2057 C-84.2919,-85.2057 -83.2484,-85.2709 -82.2702,-85.4014 C-81.1615,-85.5318 -80.118,-84.8144 -79.8571,-83.6405 C-78.4223,-75.8144 -69.5528,-69.7492 -58.8571,-69.7492 C-55.5962,-69.7492 -52.5962,-70.3362 -49.7919,-71.3144 C-49.2702,-71.5101 -48.6832,-71.5101 -48.1615,-71.2492 L-37.5962,-66.4231 L-42.2919,-73.3362 Z " fill="#378c75" fill-opacity="1.00" />		</g>	</svg>