<?xml version="1.0" encoding="utf-8" ?>	<!-- Generator: Assembly 2.4 - http://assemblyapp.co -->	<svg version="1.1" xmlns="http://www.w3.org/2000/svg" xmlns:xlink="http://www.w3.org/1999/xlink" width="4096.00" height="4096.00" viewBox="0 0 4096.0 4096.0">		<g id="document" transform="scale(13.653333333333334 13.653333333333334) translate(150.0 150.0)">			<path d="M63.5628,149.253 C111.036,149.253 149.253,111.036 149.253,63.5628 L149.253,-63.9278 C149.253,-111.401 110.737,-149.618 63.5628,-149.618 L-63.9278,-149.618 C-111.401,-149.618 -149.618,-111.102 -149.618,-63.9278 L-149.618,63.5628 C-149.618,111.036 -111.102,149.253 -63.9278,149.253 L63.5628,149.253 Z " fill="#f9b194" fill-opacity="1.00" />			<path d="M-19.8364,-54.4355 L-23.352,-54.4355 C-24.8989,-56.6855 -27.477,-58.1855 -30.3833,-58.1855 C-34.5083,-58.1855 -37.9302,-55.2324 -38.727,-51.3418 C-39.3833,-51.7636 -40.1333,-52.0449 -40.9302,-52.0449 C-41.6802,-52.0449 -42.3364,-51.8574 -42.9927,-51.4824 C-43.8364,-55.3261 -47.2114,-58.2324 -51.3364,-58.2324 C-51.3833,-58.2324 -51.3833,-58.2324 -51.4302,-58.2324 C-51.477,-58.2324 -51.5239,-58.2324 -51.5239,-58.2324 C-54.4302,-58.2324 -57.0083,-56.7324 -58.5552,-54.4824 L-62.0708,-54.4824 L-62.0708,-53.0761 L-59.3052,-53.0761 C-59.7739,-52.0449 -60.0083,-50.9199 -60.0083,-49.7011 C-60.0083,-45.0136 -56.2114,-41.1699 -51.477,-41.1699 C-46.7895,-41.1699 -42.9458,-44.9668 -42.9458,-49.7011 L-42.8989,-49.7011 C-42.8989,-49.7011 -42.8989,-49.7011 -42.8989,-49.7011 L-42.7583,-49.7011 C-42.7583,-49.748 -42.7583,-49.7949 -42.7583,-49.8418 C-42.2895,-50.3574 -41.5864,-50.6386 -40.8833,-50.6386 C-40.0864,-50.6386 -39.3833,-50.3105 -38.8677,-49.7011 L-38.8208,-49.748 C-38.8208,-49.748 -38.8208,-49.7011 -38.8208,-49.7011 C-38.8208,-45.0136 -35.0239,-41.1699 -30.2895,-41.1699 C-25.602,-41.1699 -21.7583,-44.9668 -21.7583,-49.7011 C-21.7583,-50.9199 -21.9927,-52.0449 -22.4614,-53.0761 L-19.6958,-53.0761 L-19.6958,-54.4355 L-19.8364,-54.4355 Z M-51.5239,-42.5293 C-55.4614,-42.5293 -58.602,-45.7168 -58.602,-49.6074 L-58.4145,-49.6074 C-58.4145,-53.498 -55.2739,-56.6386 -51.4302,-56.6855 C-47.5395,-56.6386 -44.4458,-53.4511 -44.4458,-49.6074 C-44.4458,-45.7168 -47.5864,-42.5293 -51.5239,-42.5293 Z M-30.3833,-42.5293 C-34.3208,-42.5293 -37.4614,-45.7168 -37.4614,-49.6074 C-37.4614,-53.5449 -34.2739,-56.6855 -30.3833,-56.6855 C-26.4458,-56.6855 -23.2583,-53.498 -23.2583,-49.6074 C-23.3052,-45.7168 -26.4458,-42.5293 -30.3833,-42.5293 Z " fill="#f25d5a" fill-opacity="1.00" />			<path d="M-19.3095,-84.3901 L-19.3095,-87.9128 C-19.3095,-88.6173 -19.8731,-89.1339 -20.5307,-89.1339 L-20.7185,-89.1339 C-21.0943,-89.1339 -21.4231,-88.993 -21.6579,-88.7112 C-23.5836,-86.3628 -26.5426,-84.8598 -29.8304,-84.8598 L-42.8876,-84.8598 C-54.4887,-84.8598 -63.4127,-74.4329 -61.3931,-63.0665 C-61.1582,-61.7984 -60.9234,-61.0469 -60.5476,-61.0469 C-57.8705,-61.0469 -58.3871,-71.3329 -48.9934,-71.3329 C-43.5921,-71.3329 -40.4922,-68.9845 -34.7151,-68.9845 C-26.026,-68.9845 -19.3095,-75.8889 -19.3095,-84.3901 Z M-19.3095,-75.1374 C-20.9534,-72.4602 -23.2548,-70.2057 -26.026,-68.6558 C-22.0806,-67.1997 -23.3957,-61.0469 -21.0473,-61.0469 C-19.1216,-61.0469 -19.3095,-67.9982 -19.3095,-75.1374 Z " fill="#f25d5a" fill-opacity="1.00" />			<path d="M84.587,47.7514 C78.4522,47.7514 72.8287,49.6827 68.1709,53.0341 C65.1603,55.1926 63.3995,58.7144 63.3995,62.4066 C63.3995,68.4845 63.3995,77.8002 63.3995,77.8002 C63.3995,89.5016 72.8855,98.9877 84.587,98.9877 C96.2884,98.9877 105.774,89.5016 105.774,77.8002 L105.774,62.4066 C105.774,58.7144 104.014,55.1926 101.003,53.0341 C96.3452,49.6827 90.6649,47.7514 84.587,47.7514 Z M98.3333,56.2151 C102.082,57.5783 102.821,62.5202 99.8101,65.1331 C99.4693,65.4172 99.1853,65.6444 98.8445,65.9284 C95.5499,68.4845 90.8921,63.7131 84.587,63.7131 C78.2818,63.7131 73.624,68.4845 70.3294,65.9284 C69.9886,65.6444 69.6478,65.3603 69.307,65.0763 C66.3532,62.5202 67.0916,57.7488 70.727,56.2719 C70.7838,56.2719 70.8406,56.2151 70.8974,56.2151 C73.908,55.0222 95.3795,55.1926 98.2765,56.2151 C98.2765,56.1583 98.2765,56.1583 98.3333,56.2151 Z " fill="#f25d5a" fill-opacity="1.00" />			<path d="M113.935,20.4268 C113.609,16.6442 110.283,13.9051 106.565,14.2312 C104.478,14.4268 102.457,15.3399 99.9783,16.4486 C99.7826,11.6877 97.9565,6.60074 96.2609,3.01378 C95.0217,0.274653 91.6304,-0.768825 89.087,0.731174 L89.0217,0.731174 C86.5435,2.23117 83.413,2.23117 80.9348,0.731174 C78.3261,-0.834043 75,0.209435 73.7609,2.94857 C72.0652,6.66596 70.1087,11.9486 70.0435,16.7094 C67.1739,15.4703 64.9565,14.2964 62.6087,14.1007 C58.8261,13.7747 55.5652,16.579 55.2391,20.2964 C54.913,24.079 58.4348,27.0138 61.8261,28.6442 C64.6304,29.9486 75.5217,33.2747 84.587,33.2747 C93.7174,33.2747 104.609,29.8833 107.348,28.6442 C110.739,27.1442 114.261,24.2094 113.935,20.4268 Z M94.7609,18.5355 C92.0217,19.4486 88.7609,20.166 84.587,20.4268 C80.413,20.166 77.087,19.3833 74.413,18.5355 C73.7609,18.3399 73.8913,17.2964 74.6087,17.2964 L94.5652,17.2964 C95.2826,17.2964 95.413,18.2747 94.7609,18.5355 Z " fill="#f25d5a" fill-opacity="1.00" />			<path d="M0.0950118,-9.5754 C-11.5914,-9.5754 -21.0925,-0.0742828 -21.0925,11.6121 L-21.0925,33.2747 L-14.2517,33.2747 L-14.2517,15.4125 C-6.17573,14.5574 0.0950118,7.76414 0.0950118,-0.549339 C0.0950118,7.71664 6.36575,14.5574 14.4417,15.4125 L14.4417,33.2747 L21.2825,33.2747 L21.2825,11.6121 C21.235,-0.121789 11.7814,-9.5754 0.0950118,-9.5754 Z " fill="#fffbd4" fill-opacity="1.00" />			<path d="M50.3132,-88.6693 C51.1607,-88.6693 51.8387,-89.305 51.7963,-90.2372 L51.7963,-94.4323 C56.966,-94.4323 61.4578,-96.8053 64.424,-100.534 C64.763,-97.4833 67.3055,-95.2375 70.3565,-95.2375 L70.3565,-98.4156 C73.1109,-95.9155 76.8823,-94.4323 80.9503,-94.4323 L87.5608,-94.4323 L87.5608,-90.2372 C87.5608,-89.3473 88.2812,-88.5846 89.2134,-88.5846 L89.3829,-88.5846 C90.2728,-88.5846 91.0355,-89.305 91.0355,-90.2372 L91.0355,-104.899 C91.0355,-114.094 83.5352,-121.552 74.3822,-121.637 C74.3822,-121.637 64.5512,-121.637 64.1698,-121.637 C64.3393,-123.12 63.8732,-124.561 62.6867,-125.747 C62.6867,-125.747 56.1609,-119.222 54.5083,-117.569 C50.9064,-114.518 48.6605,-109.899 48.6605,-104.857 L48.6605,-90.322 C48.6605,-89.3897 49.3809,-88.6693 50.3132,-88.6693 Z " fill="#f25d5a" fill-opacity="1.00" />			<path d="M73.6645,-72.5283 C72.4394,-72.5283 72.099,-70.7814 70.8739,-70.7814 C69.4672,-70.7814 69.1269,-72.3468 67.9018,-72.3468 C64.5667,-72.3468 62.5021,-70.0781 59.3484,-69.3747 C64.5667,-67.1059 65.8145,-63.8162 70.6924,-63.8162 C75.5476,-63.8162 76.2509,-67.1286 82.0363,-69.0344 C77.5214,-69.3974 76.9996,-72.5283 73.6645,-72.5283 Z " fill="#f25d5a" fill-opacity="1.00" />			<path d="M-20.743,-124.92 C-19.7321,-123.332 -17.951,-122.465 -16.0736,-122.61 L-20.6949,-118.422 C-19.4914,-116.496 -17.277,-115.63 -15.2071,-116.015 L-19.5877,-111.875 C-18.0473,-106.917 -10.5858,-108.12 -10.5858,-108.12 L-10.5858,-119.481 L0.726733,-128.242 L-2.6911,-119.77 C4.00015,-117.555 16.131,-120.347 21.2818,-124.487 L21.2818,-106.435 C24.9404,-111.779 27.3954,-117.122 27.3954,-122.995 C27.3954,-134.307 18.1528,-143.598 6.79218,-143.598 C0.871148,-143.598 -4.5685,-141.047 -8.32329,-137.003 L-20.743,-124.92 Z " fill="#fffbd4" fill-opacity="1.00" />			<path d="M-94.0609,92.0919 C-98.1074,92.2372 -101.981,91.0533 -104.774,90.0235 C-106.45,90.9381 -107.864,91.485 -107.864,91.485 C-107.864,91.485 -101.299,95.4664 -93.9492,95.2025 C-86.5995,94.9386 -80.3289,90.7169 -80.3289,90.7169 C-80.3289,90.7169 -81.9177,90.2227 -83.7681,89.352 C-86.4253,90.5775 -90.1245,91.9506 -94.0609,92.0919 Z " fill="#f25d5a" fill-opacity="1.00" />			<path d="M-68.3636,38.9113 L-103.516,38.9113 C-110.876,38.9113 -116.95,44.5728 -117.464,51.8813 C-118.905,52.9621 -119.832,54.6606 -119.832,56.6164 L-119.832,76.0199 C-116.486,76.1228 -113.862,73.395 -113.862,70.0496 L-113.862,52.9621 L-82.363,52.9621 C-81.2307,52.9621 -80.0984,52.8077 -79.0175,52.5504 L-79.0175,70.1011 C-79.0175,73.4465 -76.2382,76.1743 -73.0472,76.0714 L-73.0472,56.6164 C-73.0472,54.3518 -74.231,52.4475 -76.0324,51.4696 C-71.4517,49.102 -68.2607,44.367 -68.3636,38.9113 Z " fill="#f25d5a" fill-opacity="1.00" />			<path d="M-5.71382,84.8372 C-5.71382,73.4819 -14.9266,64.0121 -26.4532,64.0121 C-37.8085,64.0121 -47.1927,73.2248 -47.1927,84.6229 L-47.1927,106.862 L-32.4094,85.4371 L-26.4532,103.048 L-20.5399,85.5657 L-5.75667,106.776 L-5.71382,84.8372 Z " fill="#f25d5a" fill-opacity="1.00" />			<path d="M-11.5578,121.651 C-11.1579,121.285 -10.9579,120.785 -10.9579,120.185 L-13.324,120.185 C-13.324,116.819 -16.5899,114.053 -20.5889,114.053 C-21.5553,114.053 -22.4885,114.22 -23.3216,114.52 C-23.055,113.653 -23.3882,112.653 -24.2214,112.22 L-26.4208,114.353 L-28.587,112.187 C-29.3868,112.687 -29.7533,113.653 -29.4867,114.486 C-30.3532,114.186 -31.253,114.02 -32.2194,114.02 C-36.2518,114.02 -39.4843,116.786 -39.4843,120.152 L-41.8837,120.152 C-41.8837,120.718 -41.6171,121.251 -41.2839,121.618 L-43.0834,121.618 C-43.0834,125.85 -39.6509,129.249 -35.452,129.249 L-32.4527,129.249 C-30.0199,129.249 -27.8871,128.15 -26.4542,126.383 C-25.0545,128.15 -22.8884,129.249 -20.4556,129.249 L-17.4563,129.249 C-13.224,129.249 -9.82488,125.817 -9.82488,121.618 C-9.75823,121.651 -11.5578,121.651 -11.5578,121.651 Z " fill="#f25d5a" fill-opacity="1.00" />			<path d="M-113.451,-108.221 C-113.656,-106.416 -113.309,-101.843 -109.784,-101.513 C-106.63,-101.296 -104.992,-99.4105 -104.844,-89.0657 C-104.675,-77.7807 -94.3669,-75.9242 -88.0231,-77.5788 C-94.5315,-79.6426 -96.2643,-87.6616 -92.1873,-93.7649 C-87.5217,-100.986 -85.2292,-113.757 -97.5728,-117.041 C-110.574,-120.473 -113.285,-109.942 -113.451,-108.221 Z " fill="#f25d5a" fill-opacity="1.00" />			<path d="M41.1291,113.543 C40.4511,113.543 39.8154,113.543 39.1374,113.543 C39.8154,115.873 39.1374,118.204 39.1374,118.204 C39.1374,118.204 37.1458,114.221 32.4846,112.526 C31.1709,112.187 29.8149,112.187 28.5013,112.187 C21.1281,112.187 14.7294,117.526 13.0768,124.221 L55.4518,124.221 C53.8416,118.246 47.8243,113.543 41.1291,113.543 Z " fill="#fffbd4" fill-opacity="1.00" />			<path d="M-25.4348,18.7582 L-16.5652,18.7582 L-16.5652,12.106 C-16.5,3.69294 -9.65217,-3.15489 -1.23913,-3.15489 C7.17391,-3.15489 14.0217,3.69294 14.0217,12.106 L14.0217,18.7582 L22.8261,18.7582 C23.413,14.9103 22.4348,10.8668 20.1522,7.47554 L31.2391,7.47554 C31.2391,-1.06793 24.3261,-7.91576 15.8478,-7.91576 L13.2391,-7.91576 L20.6087,-15.2853 C14.413,-21.3505 4.69565,-21.3505 -1.43478,-15.2853 C-7.5,-21.3505 -17.2174,-21.3505 -23.3478,-15.2853 L-15.9783,-7.91576 L-18.587,-7.91576 C-27.0652,-7.85054 -33.913,-0.9375 -33.913,7.54076 L-22.6304,7.54076 C-25.1087,10.8668 -26.087,14.9103 -25.4348,18.7582 Z " fill="#fffbd4" fill-opacity="1.00" />			<path d="M106.473,-34.2852 L108.591,-30.4714 L135.245,-30.4714 C135.245,-37.5904 129.482,-43.3111 122.406,-43.3111 L105.71,-43.3111 C98.5908,-43.3111 92.8702,-37.5481 92.8702,-30.4291 L104.184,-30.4291 L106.473,-34.2852 Z " fill="#fffbd4" fill-opacity="1.00" />			<path d="M-125.338,-85.6875 C-123.07,-86.3454 -112.136,-82.1035 -110.571,-81.8994 C-109.8,-81.786 -109.142,-83.2831 -109.913,-84.0543 C-110.458,-84.5987 -123.886,-88.8406 -126.404,-87.5249 C-128.922,-86.2093 -132.257,-80.2435 -132.257,-80.2435 C-132.257,-80.2435 -127.493,-84.9163 -125.338,-85.6875 Z " fill="#f25d5a" fill-opacity="1.00" />			<path d="M-108.592,-40.0673 C-111.791,-43.2069 -116.115,-45.2209 -120.913,-45.2209 C-130.51,-45.2209 -138.329,-37.4017 -138.329,-27.8054 L-138.329,-3.40003 C-138.329,6.25551 -130.45,14.0155 -120.913,14.0155 C-111.376,14.0155 -103.498,6.19627 -103.498,-3.40003 L-103.498,-27.8054 C-103.439,-32.6036 -105.334,-36.9278 -108.592,-40.0673 Z M-105.097,-3.93315 C-105.69,-3.57774 -106.282,-3.40003 -106.934,-3.40003 C-108.474,-3.40003 -109.659,-4.28857 -110.488,-5.76948 C-111.317,-7.25039 -112.68,-10.6269 -117.537,-10.6269 L-124.231,-10.6269 C-129.088,-10.6269 -130.391,-7.30963 -131.28,-5.76948 C-132.168,-4.28857 -133.294,-3.40003 -134.834,-3.40003 C-135.545,-3.40003 -136.078,-3.57774 -136.67,-3.87392 L-136.67,-3.93315 L-136.67,-27.8054 C-136.67,-33.6698 -134.064,-39.475 -127.548,-39.475 C-125.001,-39.475 -122.691,-38.5272 -120.913,-36.9278 C-119.196,-38.468 -116.826,-39.475 -114.279,-39.475 C-107.763,-39.475 -105.157,-33.7291 -105.157,-27.8054 L-105.097,-3.93315 Z " fill="#fffbd4" fill-opacity="1.00" />		</g>	</svg>