<?xml version="1.0" encoding="utf-8" ?>	<!-- Generator: Assembly 2.4 - http://assemblyapp.co -->	<svg version="1.1" xmlns="http://www.w3.org/2000/svg" xmlns:xlink="http://www.w3.org/1999/xlink" width="4096.00" height="4096.00" viewBox="0 0 4096.0 4096.0">		<g id="document" transform="scale(13.653333333333334 13.653333333333334) translate(150.0 150.0)">			<path d="M63.5628,149.253 C111.036,149.253 149.253,111.036 149.253,63.5628 L149.253,-63.9278 C149.253,-111.401 110.737,-149.618 63.5628,-149.618 L-63.9278,-149.618 C-111.401,-149.618 -149.618,-111.102 -149.618,-63.9278 L-149.618,63.5628 C-149.618,111.036 -111.102,149.253 -63.9278,149.253 L63.5628,149.253 Z " fill="#6c5a7b" fill-opacity="1.00" />			<path d="M-51.9063,-76.1427 L-64.1582,-62.9863 L-57.0044,-58.9571 L-51.9063,-76.1427 Z M-50.0151,-48.9254 L-36.9409,-61.2595 L-54.1265,-55.9969 L-50.0151,-48.9254 Z M-49.0283,-36.6735 L-31.4317,-40.7848 L-49.0283,-44.8962 L-49.0283,-36.6735 Z M-54.1265,-25.655 L-36.9409,-20.4746 L-50.0151,-32.6443 L-54.1265,-25.655 Z M-64.1582,-18.5834 L-51.9063,-5.59147 L-57.0044,-22.6948 L-64.1582,-18.5834 Z M-76.3279,-17.5967 L-68.1051,-17.5967 L-72.2165,-7.10543e-15 L-76.3279,-17.5967 Z M-92.6912,-5.59147 L-80.357,-18.5834 L-87.5108,-22.6948 L-92.6912,-5.59147 Z M-94.4179,-32.6443 L-107.657,-20.4746 L-90.3066,-25.655 L-94.4179,-32.6443 Z M-95.5691,-44.8962 L-113.084,-40.7848 L-95.5691,-36.6735 L-95.5691,-44.8962 Z M-90.3066,-55.9969 L-107.657,-61.2595 L-94.4179,-48.9254 L-90.3066,-55.9969 Z M-80.357,-62.9863 L-92.6912,-76.1427 L-87.5108,-58.9571 L-80.357,-62.9863 Z M-68.1051,-63.973 L-76.3279,-63.973 L-72.2165,-81.6519 L-68.1051,-63.973 Z M-72.2165,-61.2595 C-83.4817,-61.2595 -92.6912,-52.1322 -92.6912,-40.7848 C-92.6912,-29.4374 -83.5639,-20.3102 -72.2165,-20.3102 C-60.8691,-20.3102 -51.7419,-29.4374 -51.7419,-40.7848 C-51.7419,-52.1322 -60.9513,-61.2595 -72.2165,-61.2595 Z M-72.2165,-22.6948 C-82.2483,-22.6948 -90.3888,-30.8353 -90.3888,-40.8671 C-90.3888,-50.8988 -82.2483,-59.0393 -72.2165,-59.0393 C-62.1847,-59.0393 -54.0442,-50.8988 -54.0442,-40.8671 C-54.0442,-30.8353 -62.1847,-22.6948 -72.2165,-22.6948 Z M-56.4288,-40.7848 C-56.4288,-49.5041 -63.4972,-56.5725 -72.2165,-56.5725 C-80.9358,-56.5725 -88.0042,-49.5041 -88.0042,-40.7848 C-88.0042,-32.0655 -80.9358,-24.9972 -72.2165,-24.9972 C-63.4972,-24.9972 -56.4288,-32.0655 -56.4288,-40.7848 Z " fill="#f9b194" fill-opacity="1.00" />			<path d="M78.1048,84.3088 C79.408,82.7809 80.6197,81.0945 81.6645,79.3633 C70.3895,87.9173 54.3727,87.6479 43.3724,77.9966 C32.4251,68.3149 30.0749,52.4006 37.1387,40.2155 C35.569,41.4037 34.0684,42.834 32.6818,44.3395 C21.5911,56.8758 22.8277,76.1117 35.4392,87.0885 C47.9978,98.0959 67.0364,96.7617 78.1048,84.3088 Z " fill="#f9b194" fill-opacity="1.00" />			<path d="M-52.0692,61.461 L-103.501,61.461 C-114.242,61.461 -123.023,52.68 -123.023,41.939 C-123.023,31.1979 -114.242,22.4169 -103.501,22.4169 C-97.6206,22.4169 -92.1325,24.9258 -88.2908,29.5515 C-87.5068,30.4923 -86.0171,30.6491 -85.0763,29.8651 C-84.1355,29.0811 -83.9787,27.5914 -84.7627,26.6506 C-89.3884,21.0841 -96.131,17.8696 -103.344,17.8696 C-116.751,17.8696 -127.492,28.7674 -127.492,41.939 C-127.492,55.1105 -116.594,66.0083 -103.422,66.0083 L-51.9908,66.0083 C-50.7363,66.0083 -49.7171,65.0675 -49.7171,63.7347 C-49.7171,62.4018 -50.8147,61.461 -52.0692,61.461 Z M-115.888,41.939 C-115.888,35.118 -110.322,29.4731 -103.422,29.4731 C-99.7374,29.4731 -96.2094,31.1195 -93.8573,33.942 C-93.0733,34.8828 -91.5837,35.0396 -90.6428,34.2556 C-89.702,33.4716 -89.5452,31.9819 -90.3292,31.0411 C-93.5437,27.121 -98.3262,24.8474 -103.422,24.8474 C-112.831,24.8474 -120.436,32.4523 -120.436,41.8605 C-120.436,51.2688 -112.831,58.8737 -103.422,58.8737 L-57.0869,58.8737 C-55.8324,58.8737 -54.8132,57.9329 -54.8132,56.6001 C-54.8132,55.2673 -55.754,54.3264 -57.0869,54.3264 L-103.501,54.3264 C-110.322,54.4048 -115.888,48.7599 -115.888,41.939 Z M-108.675,41.939 C-108.675,39.1165 -106.323,36.7644 -103.501,36.7644 C-101.933,36.7644 -100.443,37.47 -99.5022,38.6461 C-98.7182,39.5869 -97.2286,39.7437 -96.2878,38.9597 C-95.3469,38.1757 -95.1901,36.686 -95.9742,35.7452 C-97.9342,33.4716 -100.6,32.2171 -103.579,32.2171 C-108.989,32.2171 -113.379,36.6076 -113.379,42.0174 C-113.379,47.4271 -108.989,51.8176 -103.579,51.8176 L-62.183,51.8176 C-60.9286,51.8176 -59.9093,50.8768 -59.9093,49.5439 C-59.9093,48.2111 -60.8502,47.4271 -62.0262,47.4271 L-103.422,47.4271 C-106.323,47.1135 -108.675,44.7614 -108.675,41.939 Z " fill="#e8ddcb" fill-opacity="1.00" />			<path d="M28.3105,-27.843 C23.4496,-27.843 18.9023,-25.8046 15.7662,-22.6685 C13.0222,-32.8607 3.61394,-40.4657 -7.44071,-40.4657 C-20.6906,-40.4657 -31.4317,-29.7246 -31.4317,-16.4747 C-31.4317,-3.22483 -20.6906,7.43781 -7.44071,7.43781 L28.3105,7.43781 C38.1107,7.43781 46.0293,-0.480769 46.0293,-10.281 C46.0293,-20.0812 38.1107,-27.843 28.3105,-27.843 Z " fill="#e8ddcb" fill-opacity="1.00" />			<path d="M-9.53183,118.956 C-7.41498,116.29 -6.08215,112.998 -6.08215,109.234 C-6.08215,100.688 -12.9031,93.7891 -21.4489,93.7891 C-22.5465,93.7891 -23.5658,93.8675 -24.585,94.1027 C-27.8779,86.4978 -35.5612,81.088 -44.499,81.088 C-55.9457,81.088 -65.2755,90.0259 -66.1379,101.159 C-67.4708,100.688 -68.882,100.375 -70.45,100.375 C-77.8982,100.375 -83.8567,106.333 -83.8567,113.782 C-83.8567,115.506 -83.4647,117.31 -82.9159,118.878 L-9.53183,118.956 Z " fill="#e8ddcb" fill-opacity="1.00" />			<path d="M78.4501,-96.3618 C80.4885,-99.8115 81.6645,-103.81 81.6645,-108.122 C81.6645,-120.745 71.3939,-130.937 58.7712,-130.937 C49.2062,-130.937 40.974,-125.057 37.6027,-116.746 C34.0746,-120.98 28.9001,-123.489 23.02,-123.489 C12.4357,-123.489 3.81154,-114.943 3.81154,-104.28 C3.81154,-101.458 4.36035,-98.7139 5.53638,-96.2834 L78.4501,-96.3618 Z " fill="#e8ddcb" fill-opacity="1.00" />			<path d="M55.7389,19.13 L107.17,19.13 C117.912,19.13 126.693,10.349 126.693,-0.392009 C126.693,-11.1331 117.912,-19.9141 107.17,-19.9141 C101.29,-19.9141 95.8022,-17.4052 91.9605,-12.7795 C91.1765,-11.8387 89.6869,-11.6819 88.7461,-12.4659 C87.8052,-13.2499 87.6484,-14.7395 88.4324,-15.6804 C93.0582,-21.2469 99.8007,-24.4614 107.014,-24.4614 C120.42,-24.4614 131.161,-13.5635 131.161,-0.392009 C131.161,12.7795 120.264,23.6773 107.092,23.6773 L55.6605,23.6773 C54.4061,23.6773 53.3868,22.7365 53.3868,21.4037 C53.3868,20.0709 54.4845,19.13 55.7389,19.13 Z M119.558,-0.392009 C119.558,-7.21297 113.991,-12.8579 107.092,-12.8579 C103.407,-12.8579 99.8791,-11.2115 97.5271,-8.38899 C96.743,-7.44817 95.2534,-7.29137 94.3126,-8.07539 C93.3718,-8.8594 93.215,-10.349 93.999,-11.2899 C97.2135,-15.2099 101.996,-17.4836 107.092,-17.4836 C116.5,-17.4836 124.105,-9.87863 124.105,-0.470411 C124.105,8.93781 116.5,16.5428 107.092,16.5428 L60.7566,16.5428 C59.5022,16.5428 58.483,15.602 58.483,14.2691 C58.483,12.9363 59.4238,11.9955 60.7566,11.9955 L107.17,11.9955 C113.991,12.0739 119.558,6.42895 119.558,-0.392009 Z M112.345,-0.392009 C112.345,-3.21447 109.993,-5.56653 107.17,-5.56653 C105.602,-5.56653 104.113,-4.86091 103.172,-3.68488 C102.388,-2.74406 100.898,-2.58726 99.9575,-3.37128 C99.0167,-4.1553 98.8599,-5.64493 99.6439,-6.58575 C101.604,-8.8594 104.27,-10.1138 107.249,-10.1138 C112.659,-10.1138 117.049,-5.72333 117.049,-0.313607 C117.049,5.09612 112.659,9.48662 107.249,9.48662 L65.8527,9.48662 C64.5983,9.48662 63.5791,8.5458 63.5791,7.21297 C63.5791,5.88014 64.5199,5.09612 65.6959,5.09612 L107.092,5.09612 C109.993,4.78251 112.345,2.43046 112.345,-0.392009 Z " fill="#e8ddcb" fill-opacity="1.00" />			<path d="M57.6924,-62.6543 C62.3683,-59.9547 64.7656,-54.8508 64.1971,-49.7827 C68.3186,-52.7471 73.9207,-53.2849 78.5966,-50.5852 C82.3295,-48.4301 84.6093,-44.7562 85.0646,-40.826 C85.0343,-45.4015 82.6792,-49.8523 78.4747,-52.2798 C74.4668,-54.5938 69.6267,-54.559 65.8078,-52.5725 C65.6021,-56.935 63.2681,-61.0593 59.2208,-63.396 C54.9605,-65.9081 49.945,-65.6603 46.0293,-63.4154 C49.6772,-64.9242 53.9988,-64.7868 57.6924,-62.6543 Z " fill="#f9b194" fill-opacity="1.00" />		</g>	</svg>