<?xml version="1.0" encoding="utf-8" ?>	<!-- Generator: Assembly 2.4 - http://assemblyapp.co -->	<svg version="1.1" xmlns="http://www.w3.org/2000/svg" xmlns:xlink="http://www.w3.org/1999/xlink" width="4096.00" height="4096.00" viewBox="0 0 4096.0 4096.0">		<g id="document" transform="scale(13.653333333333334 13.653333333333334) translate(150.0 150.0)">			<path d="M63.5628,149.253 C111.036,149.253 149.253,111.036 149.253,63.5628 L149.253,-63.9278 C149.253,-111.401 110.737,-149.618 63.5628,-149.618 L-63.9278,-149.618 C-111.401,-149.618 -149.618,-111.102 -149.618,-63.9278 L-149.618,63.5628 C-149.618,111.036 -111.102,149.253 -63.9278,149.253 L63.5628,149.253 Z " fill="#ffe875" fill-opacity="1.00" />			<path d="M-69.8387,15.9559 C-69.8387,9.81289 -72.1523,4.22832 -75.9019,-2.22045e-15 C-72.0725,-4.22832 -69.8387,-9.81289 -69.8387,-15.9559 C-69.8387,-29.1993 -80.5291,-39.8898 -93.7725,-39.8898 L-149.618,-39.8898 L-149.618,-23.9339 L-93.7725,-23.9339 C-89.3847,-23.9339 -85.7946,-20.3438 -85.7946,-15.9559 C-85.7946,-11.568 -89.3847,-7.97796 -93.7725,-7.97796 L-149.618,-7.97796 L-149.618,7.97796 L-93.7725,7.97796 C-89.3847,7.97796 -85.7946,11.568 -85.7946,15.9559 C-85.7946,20.3438 -89.3847,23.9339 -93.7725,23.9339 L-149.618,23.9339 L-149.618,39.8898 L-93.7725,39.8898 C-80.5291,39.8898 -69.8387,29.1993 -69.8387,15.9559 Z " fill="#dce9eb" fill-opacity="1.00" />			<path d="M-2.08696,30.587 C15.587,30.587 29.8696,16.3043 29.8696,-1.36957 L29.8696,-33.8478 L-2.6087,-33.8478 C-20.2826,-33.8478 -34.5652,-19.5652 -34.5652,-1.8913 L-34.5652,30.587 L-2.08696,30.587 Z " fill="#ffe875" fill-opacity="1.00" />			<path d="M32.4783,9.95138e-07 C50.1522,9.95138e-07 64.4348,-14.2826 64.4348,-31.9565 L64.4348,-64.4348 L31.9565,-64.4348 C14.2826,-64.4348 2.48785e-07,-50.1522 2.48785e-07,-32.4783 L2.48785e-07,9.95138e-07 L32.4783,9.95138e-07 Z " fill="#a5ae31" fill-opacity="1.00" />			<path d="M125.924,-64.4348 L113.627,-64.4348 L113.627,-2.94507 L125.924,-2.94507 L125.924,-64.4348 Z M101.329,-64.4348 L89.0307,-64.4348 L89.0307,-2.94507 L101.329,-2.94507 L101.329,-64.4348 Z M76.7327,-64.4348 L64.4348,-64.4348 L64.4348,-2.94507 L76.7327,-2.94507 L76.7327,-64.4348 Z " fill="#a5ae31" fill-opacity="1.00" />			<path d="M87.7635,2.22045e-14 L87.7635,12.2979 L149.253,12.2979 L149.253,1.86517e-14 L87.7635,2.22045e-14 Z " fill="#dce9eb" fill-opacity="1.00" />			<path d="M6.14897,149.253 L6.14897,74.0793 C6.14897,56.2523 -8.24146,41.8619 -26.0684,41.8619 C-43.8954,41.8619 -58.2858,56.2523 -58.2858,74.0793 L-58.2858,149.253 L-36.8076,149.253 L-36.8076,74.0793 C-36.8076,68.1728 -31.9749,63.3402 -26.0684,63.3402 C-20.1619,63.3402 -15.3293,68.1728 -15.3293,74.0793 L-15.3293,149.253 L6.14897,149.253 Z " fill="#ffcc1a" fill-opacity="1.00" />			<path d="M32.2174,137.702 L32.2174,150 C66.1597,150 93.7071,122.453 93.7071,88.5103 L81.4092,88.5103 C81.4092,115.689 59.3958,137.702 32.2174,137.702 Z " fill="#ffcc1a" fill-opacity="1.00" />			<path d="M59.1419,100.808 L59.1419,88.5103 C25.1996,88.5103 -2.34783,116.058 -2.34783,150 L9.95012,150 C9.95012,122.822 31.9634,100.808 59.1419,100.808 Z " fill="#ffcc1a" fill-opacity="1.00" />			<path d="M81.4092,89.8867 L93.7071,89.8867 L93.7071,28.397 L81.4092,28.397 L81.4092,89.8867 Z " fill="#ffcc1a" fill-opacity="1.00" />			<path d="M150,59.1419 C150,42.1707 136.226,28.397 119.255,28.397 C102.284,28.397 88.5103,42.1707 88.5103,59.1419 C88.5103,76.113 102.284,89.8867 119.255,89.8867 C136.226,89.8867 150,76.113 150,59.1419 Z M119.255,40.695 C129.462,40.695 137.702,48.9346 137.702,59.1419 C137.702,69.3492 129.462,77.5888 119.255,77.5888 C109.048,77.5888 100.808,69.3492 100.808,59.1419 C100.808,48.9346 109.048,40.695 119.255,40.695 Z " fill="#ff7502" fill-opacity="1.00" />			<path d="M-98.1756,103.299 C-111.419,103.299 -122.109,92.6088 -122.109,79.3653 L-122.109,39.4756 L-138.065,39.4756 L-138.065,79.3653 C-138.065,101.385 -120.195,119.255 -98.1756,119.255 L-58.2858,119.255 L-58.2858,103.299 L-98.1756,103.299 Z " fill="#ff7502" fill-opacity="1.00" />			<path d="M-70.5677,75.9772 C-70.5677,65.1688 -79.3397,56.3968 -90.1481,56.3968 C-100.956,56.3968 -109.728,65.1688 -109.728,75.9772 C-109.728,86.7856 -100.956,95.5576 -90.1481,95.5576 C-79.3397,95.5576 -70.5677,86.7856 -70.5677,75.9772 Z M-90.1481,64.229 C-83.6474,64.229 -78.3999,69.4765 -78.3999,75.9772 C-78.3999,82.4779 -83.6474,87.7254 -90.1481,87.7254 C-96.6488,87.7254 -101.896,82.4779 -101.896,75.9772 C-101.896,69.4765 -96.6488,64.229 -90.1481,64.229 Z " fill="#ff7502" fill-opacity="1.00" />			<path d="M13.4544,-124.98 C26.0175,-124.98 36.1588,-114.839 36.1588,-102.275 L36.1588,-64.4348 L51.2951,-64.4348 L51.2951,-102.275 C51.2951,-123.164 34.3425,-140.116 13.4544,-140.116 L-24.3863,-140.116 L-24.3863,-124.98 L13.4544,-124.98 Z " fill="#ff7502" fill-opacity="1.00" />			<path d="M-2.31545e-06,-39.8898 L-1.80261e-06,-55.8457 C-13.2434,-55.8457 -23.9339,-66.5362 -23.9339,-79.7796 C-23.9339,-93.023 -13.2434,-103.713 -2.64063e-07,-103.713 L2.48785e-07,-119.669 C-22.0192,-119.669 -39.8898,-101.799 -39.8898,-79.7796 C-39.8898,-57.7604 -22.0192,-39.8898 -2.31545e-06,-39.8898 Z " fill="#527779" fill-opacity="1.00" />			<path d="M113.885,-102.275 C113.885,-116.808 102.091,-128.603 87.5581,-128.603 C73.0254,-128.603 61.2308,-116.808 61.2308,-102.275 C61.2308,-87.7428 73.0254,-75.9481 87.5581,-75.9481 C102.091,-75.9481 113.885,-87.7428 113.885,-102.275 Z M87.5581,-118.072 C96.2988,-118.072 103.355,-111.016 103.355,-102.275 C103.355,-93.5348 96.2988,-86.4791 87.5581,-86.4791 C78.8175,-86.4791 71.7617,-93.5348 71.7617,-102.275 C71.7617,-111.016 78.8175,-118.072 87.5581,-118.072 Z " fill="#527779" fill-opacity="1.00" />			<path d="M-60.9463,-61.076 L-43.1615,-61.076 L-43.1615,-150 L-60.9463,-150 L-60.9463,-61.076 Z " fill="#dce9eb" fill-opacity="1.00" />			<path d="M-85.0916,-69.9375 L-34.5652,-69.9375 L-34.5652,-90.1481 L-85.0916,-90.1481 C-112.982,-90.1481 -135.618,-67.5123 -135.618,-39.6217 L-115.407,-39.6217 C-115.407,-56.3965 -101.866,-69.9375 -85.0916,-69.9375 Z " fill="#527779" fill-opacity="1.00" />			<path d="M-60.9463,27.848 L-43.1615,27.848 L-43.1615,-61.076 L-60.9463,-61.076 L-60.9463,27.848 Z " fill="#dce9eb" fill-opacity="1.00" />			<path d="M4.0174,15.8639 L-2.34783,26.8888 L52.7767,58.7149 L59.1419,47.69 L4.0174,15.8639 Z " fill="#dce9eb" fill-opacity="1.00" />		</g>	</svg>