<?xml version="1.0" encoding="utf-8" ?>	<!-- Generator: Assembly 2.4 - http://assemblyapp.co -->	<svg version="1.1" xmlns="http://www.w3.org/2000/svg" xmlns:xlink="http://www.w3.org/1999/xlink" width="4096.00" height="4096.00" viewBox="0 0 4096.0 4096.0">		<g id="document" transform="scale(13.653333333333334 13.653333333333334) translate(150.0 150.0)">			<path d="M63.5628,149.253 C111.036,149.253 149.253,111.036 149.253,63.5628 L149.253,-63.9278 C149.253,-111.401 110.737,-149.618 63.5628,-149.618 L-63.9278,-149.618 C-111.401,-149.618 -149.618,-111.102 -149.618,-63.9278 L-149.618,63.5628 C-149.618,111.036 -111.102,149.253 -63.9278,149.253 L63.5628,149.253 Z " fill="#ffcc1a" fill-opacity="1.00" />			<path d="M32.8128,73.1169 L58.1295,66.3333 L66.6654,57.7973 L41.3487,64.581 L32.8128,73.1169 Z M21.1526,69.9925 L39.6295,88.4693 L14.3303,95.2483 L21.1091,69.949 L17.9848,58.2889 L11.2011,83.6055 L14.3215,95.2506 L14.3177,95.2516 L5.7819,103.787 L31.0987,97.0039 L39.6313,88.4712 L39.6858,88.5256 L51.3459,91.65 L32.8128,73.1169 L21.1526,69.9925 Z M59.7905,42.3867 L85.1071,35.6031 L93.6431,27.0672 L68.3264,33.8508 L59.7905,42.3867 Z M48.1303,39.2623 L66.6634,57.7954 L78.3236,60.9198 L59.7905,42.3867 L48.1303,39.2623 Z M41.3032,64.5354 L48.0868,39.2188 L44.9624,27.5586 L38.1788,52.8754 L41.3032,64.5354 Z M112.096,4.88379 L86.7791,11.6674 L95.315,3.13151 L120.632,-3.65212 L112.096,4.88379 Z M93.652,27.0761 L93.6431,27.0672 L75.1189,8.54299 L86.7791,11.6674 L105.312,30.2006 L93.652,27.0761 Z M75.0754,8.49948 L68.2917,33.8162 L65.1674,22.1561 L71.9509,-3.16068 L75.0754,8.49948 Z M120.63,-3.65406 L132.29,-0.529719 L113.757,-19.0628 L102.097,-22.1872 L120.63,-3.65406 Z M95.2694,3.08597 L102.053,-22.2308 L98.9286,-33.8909 L92.145,-8.57419 L95.2694,3.08597 Z M73.6119,-27.1073 L82.1477,-35.6431 L107.459,-42.4254 L88.9736,-60.9112 L92.9672,-59.8411 L111.5,-41.308 L107.507,-42.3781 L107.461,-42.4235 L98.9286,-33.8909 L73.6119,-27.1073 Z M61.9518,-30.2317 L80.4414,-11.742 L80.4849,-11.6985 L92.145,-8.57419 L73.6119,-27.1073 L61.9518,-30.2317 Z M79.0222,-47.2981 L60.489,-65.8313 L48.8289,-68.9556 L67.3165,-50.468 L67.3621,-50.4225 L79.0222,-47.2981 Z M47.3219,-104.606 L35.6617,-107.73 L54.1948,-89.1971 L65.8551,-86.0728 L47.3219,-104.606 Z M55.1246,-4.95841 L61.9083,-30.2752 L58.7839,-41.9353 L52.0003,-16.6186 L55.1246,-4.95841 Z M46.5887,3.57741 L71.9055,-3.20613 L80.4414,-11.742 L55.1246,-4.95841 L46.5887,3.57741 Z M45.659,-80.6613 L38.8754,-55.3446 L41.9998,-43.6843 L48.7834,-69.0012 L45.659,-80.6613 Z M58.7839,-41.9353 L67.3165,-50.468 L41.9998,-43.6843 L33.4639,-35.1485 L58.7806,-41.9321 L58.7839,-41.9353 Z M40.3369,-19.7398 L40.2914,-19.7853 L21.8038,-38.2729 L33.4639,-35.1485 L51.9971,-16.6153 L40.3369,-19.7398 Z M18.6339,-49.9785 L11.8503,-24.6619 L14.9746,-13.0016 L21.7582,-38.3184 L18.6339,-49.9785 Z M31.7555,-11.2494 L6.43878,-4.46577 L14.9746,-13.0016 L40.2914,-19.7853 L31.7555,-11.2494 Z M13.3117,10.9429 L24.9719,14.0674 L6.43878,-4.46577 L-5.19099,-7.58198 L-8.3072,-19.2118 L-15.0908,6.10491 L-11.9665,17.7652 L-5.18286,-7.55168 L13.3117,10.9429 Z M31.8408,-11.1705 L31.8254,-11.113 L31.801,-11.2039 L25.0174,14.1128 L28.1418,25.773 L28.1572,25.7156 L28.1815,25.8064 L34.9652,0.489558 L53.4618,18.9862 L65.1219,22.1105 L46.5887,3.57741 L34.9574,0.460737 L31.8408,-11.1705 Z M19.6457,34.3422 L28.1815,25.8064 L53.4983,19.0227 L44.9624,27.5586 L19.6457,34.3422 Z M7.98553,31.2178 L26.4751,49.7074 L26.5187,49.7509 L38.1788,52.8754 L19.6457,34.3422 L7.98553,31.2178 Z M7.94202,31.1743 L1.15829,56.4911 L-1.96596,44.8309 L4.81758,19.5141 L7.94202,31.1743 Z M12.655,119.196 L24.315,122.321 L5.7819,103.787 L-5.87818,100.663 L12.655,119.196 Z M-5.88141,100.666 L-12.6651,125.983 L-15.7894,114.323 L-9.00584,89.0061 L-5.88141,100.666 Z M-27.4931,111.155 L-15.8329,114.279 L-34.366,95.7463 L-46.0262,92.6218 L-27.4931,111.155 Z M-7.37744,65.027 L17.9392,58.2433 L26.4751,49.7074 L1.15829,56.4911 L-7.37744,65.027 Z M-19.0376,61.9025 L-0.513438,80.4267 L-0.504477,80.4357 L11.1557,83.5601 L-7.37744,65.027 L-7.37753,65.0269 L-19.0376,61.9025 Z M-25.8206,87.2078 L-0.513438,80.4267 L-9.04935,88.9626 L-34.366,95.7463 L-25.8302,87.2104 L-25.8279,87.2098 L-28.9488,75.5624 L-22.1653,50.2456 L-19.0408,61.9058 L-25.8206,87.2078 Z M-11.9665,17.7652 L-20.5023,26.301 L4.81435,19.5174 L4.81758,19.5141 L13.3503,10.9814 L-11.9665,17.7652 Z M-13.6748,41.6642 L-13.6294,41.7097 L-1.96919,44.8341 L-20.5023,26.301 L-32.1625,23.1766 L-13.6748,41.6642 Z M-35.3324,11.4709 L-42.1159,36.7877 L-38.9917,48.4479 L-32.2079,23.1311 L-35.3324,11.4709 Z M-47.5275,56.9837 L-22.2107,50.2002 L-13.6748,41.6642 L-38.9917,48.4479 L-47.5275,56.9837 Z M-40.6615,72.3855 L-40.6544,72.3925 L-28.9944,75.5168 L-47.5275,56.9837 L-59.1876,53.8594 L-40.6615,72.3855 Z M-59.1908,53.8626 L-62.3152,42.2024 L-69.0988,67.5192 L-65.9772,79.1689 L-65.9782,79.1692 L-68.3493,81.5402 L-64.79,85.0995 L-49.1974,80.9214 L-40.6615,72.3855 L-65.9712,79.1674 L-59.1908,53.8626 Z M25.5718,-93.9827 L32.3553,-119.299 L35.4797,-107.639 L28.6961,-82.3225 L25.5718,-93.9827 Z M45.477,-80.5702 L54.0128,-89.1061 L28.6961,-82.3225 L20.1602,-73.7867 L45.477,-80.5702 Z M27.0333,-58.3779 L38.6934,-55.2536 L20.1602,-73.7867 L8.50015,-76.911 L27.0333,-58.3779 Z M-1.45142,-63.298 L5.33221,-88.6147 L8.45655,-76.9545 L1.67292,-51.6378 L-1.45142,-63.298 Z M18.4539,-49.8855 L26.9897,-58.4213 L1.67292,-51.6378 L-6.86291,-43.102 L18.4539,-49.8855 Z M13.8648,-97.1473 L13.9083,-97.1038 L25.5686,-93.9794 L7.03544,-112.513 L-4.62482,-115.637 L13.8648,-97.1473 Z M-7.77881,-127.289 L-7.74907,-127.297 L0.786755,-135.833 L-24.53,-129.049 L-33.0659,-120.514 L-7.80865,-127.281 L-14.5762,-102.024 L-11.452,-90.3638 L-4.66833,-115.68 L-7.77881,-127.289 Z M-11.452,-90.3638 L13.8648,-97.1473 L5.33221,-88.6147 L5.32898,-88.6115 L-19.9878,-81.8279 L-11.452,-90.3638 Z M-13.1147,-66.4191 L-1.45466,-63.2948 L-19.9878,-81.8279 L-31.6479,-84.9523 L-13.1147,-66.4191 Z M-21.6962,-57.9288 L-13.1604,-66.4646 L-38.477,-59.681 L-47.0129,-51.1451 L-21.6962,-57.9288 Z M-78.5783,-67.682 L-53.2615,-74.4655 L-61.7974,-65.9296 L-87.1142,-59.1461 L-78.5783,-67.682 Z M-21.6108,-57.8499 L-21.6263,-57.7923 L-21.6506,-57.8832 L-28.4343,-32.5666 L-25.3098,-20.9064 L-25.2944,-20.9638 L-25.2701,-20.873 L-18.4866,-46.1897 L-18.4867,-46.19 L0.0100574,-27.6933 L11.6702,-24.5688 L-6.86291,-43.102 L-18.4943,-46.2187 L-21.6108,-57.8499 Z M-8.48928,-19.1208 L0.0465458,-27.6566 L-25.2701,-20.873 L-33.8059,-12.3371 L-8.48928,-19.1208 Z M-26.933,3.07156 L-15.2728,6.196 L-33.8059,-12.3371 L-45.4661,-15.4616 L-26.933,3.07156 Z M-55.4176,-1.84848 L-48.6341,-27.1652 L-45.5097,-15.505 L-52.2934,9.81169 L-55.4176,-1.84848 Z M-35.5124,11.564 L-26.9766,3.02814 L-52.2934,9.81169 L-60.8292,18.3475 L-35.5124,11.564 Z M-53.9878,33.7246 L-53.9561,33.7563 L-42.296,36.8806 L-60.8292,18.3475 L-72.4892,15.2232 L-53.9878,33.7246 Z M-72.4925,15.2264 L-75.6169,3.56623 L-82.4005,28.883 L-79.2867,40.5034 L-79.3047,40.5082 L-87.8405,49.0441 L-62.5237,42.2605 L-53.9878,33.7246 L-79.2638,40.4973 L-72.4925,15.2264 Z M-61.7588,-65.8911 L-68.5425,-40.5745 L-65.4181,-28.9142 L-58.6346,-54.231 L-58.6347,-54.2312 L-40.1399,-35.7364 L-28.4797,-32.612 L-47.0129,-51.1451 L-58.6427,-54.2614 L-61.7588,-65.8911 Z M-48.6373,-27.162 L-48.6341,-27.1652 L-40.1015,-35.6978 L-65.4181,-28.9142 L-73.954,-20.3784 L-48.6373,-27.162 Z M-67.081,-4.96968 L-55.4208,-1.84525 L-73.954,-20.3784 L-85.6141,-23.5028 L-67.081,-4.96968 Z M-105.519,-36.9152 L-80.2026,-43.6987 L-88.7385,-35.1629 L-88.7695,-35.1546 L-85.6597,-23.5482 L-92.4433,1.7685 L-95.5676,-9.89166 L-88.8007,-35.1463 L-114.055,-28.3793 L-105.519,-36.9152 Z M-75.6624,3.52079 L-67.1265,-5.01504 L-92.4433,1.7685 L-100.979,10.3043 L-75.6624,3.52079 Z M-94.1379,25.6813 L-94.1061,25.7131 L-82.446,28.8375 L-100.979,10.3043 L-112.639,7.17999 L-94.1379,25.6813 Z M-132.544,-6.23237 L-107.228,-13.016 L-115.764,-4.48018 L-141.08,2.30348 L-132.544,-6.23237 Z M-24.067,-130.777 L-24.53,-129.049 L-24.7974,-130.047 L-24.067,-130.777 Z M-4.84442,-150 L-9.11238,-145.732 L0.786755,-135.833 L12.4469,-132.709 L-4.84442,-150 Z M-33.1094,-120.557 L-34.0384,-120.806 L-37.9663,-116.878 L-26.2365,-105.148 L-14.5762,-102.024 L-33.0659,-120.514 L-33.1094,-120.557 Z M-60.1345,-89.8744 L-63.9482,-90.8962 L-66.8202,-88.0242 L-53.2615,-74.4655 L-41.6014,-71.3412 L-60.089,-89.8288 L-60.1345,-89.8744 Z M-87.0756,-59.1076 L-68.5425,-40.5745 L-80.2026,-43.6987 L-95.6742,-59.1702 L-93.9066,-60.9379 L-87.0756,-59.1076 Z M-49.6712,-105.173 L-52.568,-102.276 L-51.5221,-98.373 L-51.5532,-98.3647 L-60.089,-89.8288 L-34.8344,-96.5958 L-41.6014,-71.3412 L-38.477,-59.681 L-31.6935,-84.9977 L-34.8033,-96.6041 L-34.7723,-96.6124 L-26.2365,-105.148 L-51.4911,-98.3813 L-49.6712,-105.173 Z M-44.7337,-123.672 L-44.7241,-123.636 L-44.7695,-123.681 L-44.7337,-123.672 Z M-75.4363,-79.4082 L-78.5783,-67.682 L-80.3923,-74.4521 L-75.4363,-79.4082 Z M-100.977,-53.8673 L-105.519,-36.9152 L-108.142,-46.7025 L-100.977,-53.8673 Z M-126.72,-28.1245 L-132.577,-6.26498 L-135.701,-17.9253 L-135.256,-19.5887 L-126.72,-28.1245 Z M-114.101,-28.4248 L-123.816,-31.0281 L-124.528,-30.3163 L-107.228,-13.016 L-95.5676,-9.89166 L-114.055,-28.3793 L-114.101,-28.4248 Z M-33.1138,116.776 L-27.4931,111.155 L-36.359,113.531 L-33.1138,116.776 Z M-46.0294,92.6251 L-48.4037,101.486 L-53.3319,96.5576 L-49.1539,80.9649 L-46.0294,92.6251 Z M-102.602,34.2823 L-105.351,44.5389 L-100.422,49.4672 L-99.4779,45.9425 L-81.0217,64.3987 L-84.5464,65.3431 L-83.1793,66.7102 L-80.9316,64.4625 L-69.3074,67.5772 L-87.8405,49.0441 L-99.4827,45.9246 L-102.602,34.2823 Z M-112.925,36.9642 L-102.674,34.2173 L-94.1379,25.6813 L-117.853,32.036 L-112.925,36.9642 Z M-141.113,2.27087 L-141.08,2.30348 L-122.58,20.804 L-131.467,18.4226 L-150,-0.110517 L-141.113,2.27087 Z M-12.6651,125.983 L-18.2858,131.604 L-16.6046,133.285 L4.11904,127.732 L12.655,119.196 L-12.6618,125.98 L-12.6651,125.983 Z M-115.767,-4.47695 L-122.55,20.8398 L-120.172,29.7179 L-118.996,30.8938 L-112.642,7.18322 L-115.767,-4.47695 Z M-1.01802,148.871 L6.79755,141.056 L7.24336,139.392 L4.11904,127.732 L-1.4338,148.456 L-1.01802,148.871 Z M94.4109,53.4426 L97.9733,49.8802 L88.2405,47.2722 L94.4109,53.4426 Z M126.969,19.7574 L115.309,16.6329 L123.265,24.5886 L127.533,20.3208 L128.509,19.3449 L137.044,10.809 L135.505,11.2214 L126.969,19.7574 Z M115.266,16.5894 L109.41,38.4435 L107.946,39.9071 L105.358,30.246 L112.141,4.92934 L115.266,16.5894 Z M65.557,82.2965 L68.0162,79.8373 L61.2974,78.0369 L65.557,82.2965 Z M52.3725,95.481 L58.1039,89.7496 L61.2539,77.9934 L58.1295,66.3333 L51.3459,91.65 L52.3725,95.481 Z M80.1431,67.7103 L83.7079,64.1455 L88.2316,47.2632 L85.1071,35.6031 L78.3236,60.9198 L80.1431,67.7103 Z M36.7095,111.144 L38.138,109.715 L34.2352,108.67 L36.7095,111.144 Z M24.5776,123.276 L32.4207,115.433 L34.232,108.673 L31.1076,97.0128 L24.324,122.329 L24.5776,123.276 Z M7.85553,139.998 L8.20714,139.646 L7.24659,139.389 L7.85553,139.998 Z M68.9863,-74.4056 L70.9763,-81.8321 L66.048,-86.7604 L65.862,-86.0659 L68.9863,-74.4056 Z M60.4505,-65.8698 L68.9863,-74.4056 L76.4128,-76.3956 L81.3411,-71.4673 L60.4505,-65.8698 Z M135.46,11.1759 L141.488,-11.3207 L136.559,-16.249 L132.335,-0.484178 L135.46,11.1759 Z M122.293,-27.5988 L121.225,-31.5836 L122.909,-29.8994 L122.293,-27.5988 Z M113.757,-19.0628 L122.293,-27.5988 L124.593,-28.2152 L129.521,-23.2869 L113.757,-19.0628 Z M82.1477,-35.6431 L88.9314,-60.9599 L87.8636,-64.9447 L84.6196,-68.1888 L79.0234,-47.3033 L82.1477,-35.6431 Z M14.0641,-138.744 L12.4469,-132.709 L15.5713,-121.048 L18.9923,-133.816 L14.0641,-138.744 Z M32.3521,-119.296 L32.3553,-119.299 L32.9321,-119.876 L28.3389,-124.469 L15.5713,-121.048 L7.03544,-112.513 L32.3521,-119.296 Z " fill="#ffffff" fill-opacity="1.00" />		</g>	</svg>