<?xml version="1.0" encoding="utf-8" ?>	<!-- Generator: Assembly 2.4 - http://assemblyapp.co -->	<svg version="1.1" xmlns="http://www.w3.org/2000/svg" xmlns:xlink="http://www.w3.org/1999/xlink" width="4096.00" height="4096.00" viewBox="0 0 4096.0 4096.0">		<g id="document" transform="scale(13.653333333333334 13.653333333333334) translate(150.0 150.0)">			<path d="M63.5628,149.253 C111.036,149.253 149.253,111.036 149.253,63.5628 L149.253,-63.9278 C149.253,-111.401 110.737,-149.618 63.5628,-149.618 L-63.9278,-149.618 C-111.401,-149.618 -149.618,-111.102 -149.618,-63.9278 L-149.618,63.5628 C-149.618,111.036 -111.102,149.253 -63.9278,149.253 L63.5628,149.253 Z " fill="#c14d1e" fill-opacity="1.00" />			<path d="M-47.413,-5.71018 C-47.413,-22.3102 -34.013,-35.7102 -17.413,-35.7102 L32.587,-35.7102 L32.587,-55.7102 L-17.413,-55.7102 C-45.013,-55.7102 -67.413,-33.3102 -67.413,-5.71018 L-67.413,44.2898 L-47.413,44.2898 L-47.413,-5.71018 Z " fill="#9b1239" fill-opacity="1.00" />			<path d="M20.8921,-149.618 L0.892068,-149.618 C0.892069,-133.018 -12.5079,-119.618 -29.1079,-119.618 C-45.7079,-119.618 -59.1079,-133.018 -59.1079,-149.618 L-79.1079,-149.618 C-79.1079,-122.018 -56.7079,-99.6183 -29.1079,-99.6183 C-1.50793,-99.6183 20.8921,-122.018 20.8921,-149.618 Z " fill="#542237" fill-opacity="1.00" />			<path d="M20.8921,-31.2329 L44.6455,-31.2329 L44.6455,-150 L20.8921,-150 L20.8921,-31.2329 Z " fill="#fce29b" fill-opacity="1.00" />			<path d="M65.7201,-3.10532 C65.7201,-21.2944 50.9579,-36.0566 32.7688,-36.0566 C14.5797,-36.0566 -0.182524,-21.2944 -0.182524,-3.10532 C-0.182524,15.0838 14.5797,29.846 32.7688,29.846 C50.9579,29.846 65.7201,15.0838 65.7201,-3.10532 Z M32.7688,-22.8761 C43.7086,-22.8761 52.5396,-14.0452 52.5396,-3.10532 C52.5396,7.83451 43.7086,16.6655 32.7688,16.6655 C21.8289,16.6655 12.998,7.83451 12.998,-3.10532 C12.998,-14.0452 21.8289,-22.8761 32.7688,-22.8761 Z " fill="#ffa538" fill-opacity="1.00" />			<path d="M35.9442,78.4351 C35.9442,54.9234 54.9234,35.9442 78.4351,35.9442 L149.253,35.9442 L149.253,7.61692 L78.4351,7.61692 C39.3434,7.61692 7.61692,39.3434 7.61692,78.4351 L7.61692,149.253 L35.9442,149.253 L35.9442,78.4351 Z " fill="#fe772b" fill-opacity="1.00" />			<path d="M7.61692,112.769 L-62.3831,112.769 C-67.8831,112.769 -72.3831,108.269 -72.3831,102.769 C-72.3831,97.2688 -67.8831,92.7688 -62.3831,92.7688 L-22.3831,92.7688 C-5.78308,92.7688 7.61692,79.3688 7.61692,62.7688 C7.61692,46.1688 -5.78308,32.7688 -22.3831,32.7688 L-92.3831,32.7688 L-92.3831,52.7688 L-22.3831,52.7688 C-16.8831,52.7688 -12.3831,57.2688 -12.3831,62.7688 C-12.3831,68.2688 -16.8831,72.7688 -22.3831,72.7688 L-62.3831,72.7688 C-78.9831,72.7688 -92.3831,86.1688 -92.3831,102.769 C-92.3831,119.369 -78.9831,132.769 -62.3831,132.769 L7.61692,132.769 L7.61692,112.769 Z " fill="#fce29b" fill-opacity="1.00" />			<path d="M-49.6183,52.811 L-49.6183,32.811 L-149.618,32.811 L-149.618,52.811 L-49.6183,52.811 Z " fill="#fce29b" fill-opacity="1.00" />			<path d="M84.187,-58.2857 L84.187,7.61692 L110.548,7.61692 L110.548,-58.2857 C110.548,-94.6639 81.0237,-124.188 44.6455,-124.188 L44.6455,-97.8272 C66.5251,-97.8272 84.187,-80.1653 84.187,-58.2857 Z " fill="#542237" fill-opacity="1.00" />			<path d="M-67.413,-109.295 L-74.0033,-102.705 L-41.052,-69.7537 L-34.4617,-76.344 L-67.413,-109.295 Z M-80.5935,-96.1148 L-87.1838,-89.5245 L-54.2325,-56.5732 L-47.6422,-63.1635 L-80.5935,-96.1148 Z M-93.7741,-82.9342 L-100.364,-76.344 L-67.413,-43.3927 L-60.8228,-49.9829 L-93.7741,-82.9342 Z " fill="#9cc7e9" fill-opacity="1.00" />			<path d="M-105.358,-38.0059 C-90.6632,-38.0059 -78.8013,-26.1441 -78.8013,-11.4496 L-78.8013,32.811 L-61.0971,32.811 L-61.0971,-11.4496 C-61.0971,-35.8814 -80.9259,-55.7102 -105.358,-55.7102 L-149.618,-55.7102 L-149.618,-38.0059 L-105.358,-38.0059 Z " fill="#9b1239" fill-opacity="1.00" />			<path d="M119.713,52.811 L106.533,52.811 L106.533,118.714 L119.713,118.714 L119.713,52.811 Z M93.3523,52.811 L80.1718,52.811 L80.1718,118.714 L93.3523,118.714 L93.3523,52.811 Z M66.9913,52.811 L53.8108,52.811 L53.8108,118.714 L66.9913,118.714 L66.9913,52.811 Z " fill="#542237" fill-opacity="1.00" />		</g>	</svg>