<?xml version="1.0" encoding="utf-8" ?>	<!-- Generator: Assembly 2.4 - http://assemblyapp.co -->	<svg version="1.1" xmlns="http://www.w3.org/2000/svg" xmlns:xlink="http://www.w3.org/1999/xlink" width="4096.00" height="4096.00" viewBox="0 0 4096.0 4096.0">		<g id="document" transform="scale(13.653333333333334 13.653333333333334) translate(150.0 150.0)">			<path d="M63.5628,149.253 C111.036,149.253 149.253,111.036 149.253,63.5628 L149.253,-63.9278 C149.253,-111.401 110.737,-149.618 63.5628,-149.618 L-63.9278,-149.618 C-111.401,-149.618 -149.618,-111.102 -149.618,-63.9278 L-149.618,63.5628 C-149.618,111.036 -111.102,149.253 -63.9278,149.253 L63.5628,149.253 Z " fill="#79bd9a" fill-opacity="1.00" />			<path d="M-106.103,117.143 L-44.4611,126.539 L-46.6315,109.547 L-108.273,100.152 L-106.103,117.143 Z M-46.6315,109.547 L15.0101,118.943 L12.8397,101.951 L-48.8019,92.5553 L-46.6315,109.547 Z M12.8397,101.951 L74.4814,111.346 L72.311,94.3544 L10.6694,84.959 L12.8397,101.951 Z M72.311,94.3544 L70.1406,77.3627 L131.782,86.7581 L133.953,103.75 L72.311,94.3544 Z M-112.614,66.1679 L-110.444,83.1598 L-48.8019,92.5553 L-50.9723,75.5635 L-112.614,66.1679 Z M8.499,67.9671 L-53.1426,58.5716 L-50.9723,75.5635 L10.6694,84.959 L8.499,67.9671 Z M8.499,67.9671 L70.1406,77.3627 L67.9703,60.3708 L6.32861,50.9753 L8.499,67.9671 Z M67.9703,60.3708 L65.7999,43.379 L127.442,52.7745 L129.612,69.7663 L67.9703,60.3708 Z M-116.955,32.1844 L-114.784,49.1762 L-53.1426,58.5716 L-55.313,41.5799 L-116.955,32.1844 Z M4.15825,33.9836 L-57.4834,24.588 L-55.313,41.5799 L6.32861,50.9753 L4.15825,33.9836 Z M4.15825,33.9836 L65.7999,43.379 L63.6295,26.3873 L1.98786,16.9917 L4.15825,33.9836 Z M63.6295,26.3873 L61.4591,9.3954 L123.101,18.7909 L125.271,35.7826 L63.6295,26.3873 Z M-121.295,-1.79919 L-119.125,15.1927 L-57.4834,24.588 L-59.6538,7.59634 L-121.295,-1.79919 Z M-0.182504,1.69877e-05 L-61.8242,-9.39552 L-59.6538,7.59634 L1.98786,16.9917 L-0.182504,1.69877e-05 Z M-0.182504,1.69877e-05 L61.4591,9.3954 L59.2888,-7.5963 L-2.35289,-16.9918 L-0.182504,1.69877e-05 Z M120.93,1.79909 L118.76,-15.1926 L57.1184,-24.5882 L59.2888,-7.5963 L120.93,1.79909 Z M-63.9945,-26.3872 L-61.8242,-9.39552 L-123.466,-18.7909 L-125.636,-35.7828 L-63.9945,-26.3872 Z M-4.52325,-33.9835 L-66.1649,-43.3791 L-63.9945,-26.3872 L-2.35289,-16.9918 L-4.52325,-33.9835 Z M-4.52325,-33.9835 L57.1184,-24.5882 L54.948,-41.5799 L-6.69364,-50.9754 L-4.52325,-33.9835 Z M116.59,-32.1845 L114.419,-49.1762 L52.7776,-58.5717 L54.948,-41.5799 L116.59,-32.1845 Z M-68.3353,-60.3709 L-66.1649,-43.3791 L-127.807,-52.7746 L-129.977,-69.7663 L-68.3353,-60.3709 Z M-8.86402,-67.9672 L-70.5057,-77.3626 L-68.3353,-60.3709 L-6.69364,-50.9754 L-8.86402,-67.9672 Z M-8.86402,-67.9672 L52.7776,-58.5717 L50.6072,-75.5636 L-11.0344,-84.9589 L-8.86402,-67.9672 Z M112.249,-66.168 L110.079,-83.1599 L48.4369,-92.5553 L50.6072,-75.5636 L112.249,-66.168 Z M-72.676,-94.3545 L-70.5057,-77.3626 L-132.147,-86.7582 L-134.318,-103.75 L-72.676,-94.3545 Z M-13.2048,-101.951 L-74.8464,-111.346 L-72.676,-94.3545 L-11.0344,-84.9589 L-13.2048,-101.951 Z M46.2665,-109.547 L48.4369,-92.5553 L-13.2048,-101.951 L-15.3751,-118.943 L46.2665,-109.547 Z M105.738,-117.143 L44.0961,-126.539 L46.2665,-109.547 L107.908,-100.152 L105.738,-117.143 Z " fill="#ffffff" fill-opacity="1.00" />		</g>	</svg>