<?xml version="1.0" encoding="utf-8" ?>	<!-- Generator: Assembly 2.4 - http://assemblyapp.co -->	<svg version="1.1" xmlns="http://www.w3.org/2000/svg" xmlns:xlink="http://www.w3.org/1999/xlink" width="4096.00" height="4096.00" viewBox="0 0 4096.0 4096.0">		<g id="document" transform="scale(13.653333333333334 13.653333333333334) translate(150.0 150.0)">			<path d="M63.5628,149.253 C111.036,149.253 149.253,111.036 149.253,63.5628 L149.253,-63.9278 C149.253,-111.401 110.737,-149.618 63.5628,-149.618 L-63.9278,-149.618 C-111.401,-149.618 -149.618,-111.102 -149.618,-63.9278 L-149.618,63.5628 C-149.618,111.036 -111.102,149.253 -63.9278,149.253 L63.5628,149.253 Z " fill="#e1f9a4" fill-opacity="1.00" />			<path d="M-65.0199,150 L-37.1676,150 L-37.1676,84.7826 L-65.0199,84.7826 L-65.0199,150 Z M-48.4427,94.5984 L-41.6362,94.5984 L-41.6362,98.9168 L-48.4427,98.9168 L-48.4427,94.5984 Z M-48.4427,103.704 L-41.6362,103.704 L-41.6362,108.023 L-48.4427,108.023 L-48.4427,103.704 Z M-48.4427,112.81 L-41.6362,112.81 L-41.6362,117.129 L-48.4427,117.129 L-48.4427,112.81 Z M-48.4427,121.916 L-41.6362,121.916 L-41.6362,126.235 L-48.4427,126.235 L-48.4427,121.916 Z M-48.4427,131.022 L-41.6362,131.022 L-41.6362,135.341 L-48.4427,135.341 L-48.4427,131.022 Z M-60.5513,94.5984 L-53.7448,94.5984 L-53.7448,98.9168 L-60.5513,98.9168 L-60.5513,94.5984 Z M-60.5513,103.704 L-53.7448,103.704 L-53.7448,108.023 L-60.5513,108.023 L-60.5513,103.704 Z M-60.5513,112.81 L-53.7448,112.81 L-53.7448,117.129 L-60.5513,117.129 L-60.5513,112.81 Z M-60.5513,121.916 L-53.7448,121.916 L-53.7448,126.235 L-60.5513,126.235 L-60.5513,121.916 Z M-60.5513,131.022 L-53.7448,131.022 L-53.7448,135.341 L-60.5513,135.341 L-60.5513,131.022 Z " fill="#9abc45" fill-opacity="1.00" />			<path d="M-37.1676,150 L-32.9684,150 L-32.9684,106.41 L-31.2621,106.41 L-31.2621,150 L-27.0634,150 L-27.0634,106.41 L-25.3571,106.41 L-25.3571,150 L-21.1585,150 L-21.1585,106.41 L-19.4521,106.41 L-19.4521,150 L-15.2529,150 L-15.2529,98.6871 L-37.1676,98.6871 L-37.1676,150 Z " fill="#9abc45" fill-opacity="0.53" />			<path d="M10.9573,121.722 C10.9573,115.68 6.04194,110.765 0,110.765 C-6.04194,110.765 -10.9573,115.68 -10.9573,121.722 C-10.9573,127.198 -6.91973,131.749 -1.66505,132.553 L-1.66505,149.253 L1.53019,149.253 L1.53019,132.571 C6.84999,131.824 10.9573,127.245 10.9573,121.722 Z " fill="#9abc45" fill-opacity="0.22" />			<path d="M-29.1791,150 L-1.3268,150 L-1.3268,133.014 L-29.1791,133.014 L-29.1791,150 Z M-24.586,138.213 L-17.7795,138.213 L-17.7795,142.531 L-24.586,142.531 L-24.586,138.213 Z M-15.2533,115.745 L-27.9366,130.845 L-2.56928,130.845 L-15.2533,115.745 Z " fill="#9abc45" fill-opacity="1.00" />			<path d="M18.9458,150 L46.7981,150 L46.7981,84.7826 L18.9458,84.7826 L18.9458,150 Z M35.5231,94.5984 L42.3296,94.5984 L42.3296,98.9168 L35.5231,98.9168 L35.5231,94.5984 Z M35.5231,103.704 L42.3296,103.704 L42.3296,108.023 L35.5231,108.023 L35.5231,103.704 Z M35.5231,112.81 L42.3296,112.81 L42.3296,117.129 L35.5231,117.129 L35.5231,112.81 Z M35.5231,121.916 L42.3296,121.916 L42.3296,126.235 L35.5231,126.235 L35.5231,121.916 Z M35.5231,131.022 L42.3296,131.022 L42.3296,135.341 L35.5231,135.341 L35.5231,131.022 Z M23.4144,94.5984 L30.2209,94.5984 L30.2209,98.9168 L23.4144,98.9168 L23.4144,94.5984 Z M23.4144,103.704 L30.2209,103.704 L30.2209,108.023 L23.4144,108.023 L23.4144,103.704 Z M23.4144,112.81 L30.2209,112.81 L30.2209,117.129 L23.4144,117.129 L23.4144,112.81 Z M23.4144,121.916 L30.2209,121.916 L30.2209,126.235 L23.4144,126.235 L23.4144,121.916 Z M23.4144,131.022 L30.2209,131.022 L30.2209,135.341 L23.4144,135.341 L23.4144,131.022 Z " fill="#9abc45" fill-opacity="0.10" />			<path d="M6.66172,150 L41.1964,150 L41.1964,128.939 L6.66172,128.939 L6.66172,150 Z M26.9972,134.118 L35.4365,134.118 L35.4365,139.472 L26.9972,139.472 L26.9972,134.118 Z M40.5548,126.25 L36.3524,115.745 L11.5057,115.745 L7.30333,126.25 L40.5548,126.25 Z " fill="#9abc45" fill-opacity="1.00" />			<path d="M51.7192,150 L72.4204,150 L72.4204,102.358 L51.7192,114.681 L51.7192,150 Z M55.8938,121.619 L68.2458,121.619 L68.2458,123.231 L55.8938,123.231 L55.8938,121.619 Z M55.8938,126.992 L68.2458,126.992 L68.2458,128.604 L55.8938,128.604 L55.8938,126.992 Z M55.8938,132.365 L68.2458,132.365 L68.2458,133.977 L55.8938,133.977 L55.8938,132.365 Z M55.8938,137.738 L68.2458,137.738 L68.2458,139.35 L55.8938,139.35 L55.8938,137.738 Z M55.8938,143.111 L68.2458,143.111 L68.2458,144.723 L55.8938,144.723 L55.8938,143.111 Z " fill="#9abc45" fill-opacity="1.00" />			<path d="M61.6355,150 L58.6144,142.056 L60.9112,142.056 L57.9525,134.276 L60.3115,134.276 L47.2538,99.9401 L34.196,134.276 L36.5552,134.276 L33.5963,142.056 L35.8931,142.056 L32.872,150 L61.6355,150 Z " fill="#9abc45" fill-opacity="0.24" />			<path d="M3.40438,47.3915 C-1.43405,35.9524 -8.35796,25.6815 -17.1753,16.8641 C-25.9927,8.04674 -36.2636,1.12284 -47.7027,-3.7156 C-59.5519,-8.72739 -72.1321,-11.2685 -85.0938,-11.2685 L-85.0938,-0.997333 C-81.5118,-0.997333 -77.9051,-0.77406 -74.3738,-0.333874 L-74.7369,2.57841 C-78.1481,2.15311 -81.6327,1.93732 -85.0938,1.93732 L-85.0938,12.2086 C-65.7086,12.2086 -47.4835,19.7575 -33.7761,33.4649 C-20.0687,47.1725 -12.5198,65.3974 -12.5198,84.7826 L-2.24853,84.7826 C-2.24853,81.3218 -2.46433,77.8372 -2.88962,74.4257 L0.0226598,74.0629 C0.462845,77.5942 0.686119,81.2009 0.686119,84.7826 L10.9573,84.7826 C10.9573,71.8209 8.41617,59.241 3.40438,47.3915 Z M-63.3305,4.82524 L-62.5613,1.99321 C-55.5878,3.88695 -48.8637,6.66999 -42.5757,10.2649 L-44.0321,12.8127 C-50.104,9.34098 -56.5969,6.65367 -63.3305,4.82524 Z M-34.3693,19.2769 L-32.5707,16.9578 C-26.8565,21.3893 -21.7111,26.5332 -17.2785,32.2475 L-19.597,34.0461 C-23.8792,28.5264 -28.8491,23.5573 -34.3693,19.2769 Z M-13.1313,43.7072 L-10.5842,42.2502 C-6.9895,48.5338 -4.2059,55.2546 -2.31044,62.2257 L-5.14246,62.9955 C-6.97233,56.2648 -9.66019,49.775 -13.1313,43.7072 Z " fill="#9abc45" fill-opacity="0.14" />			<path d="M-58.8198,-99.7882 L-49.5576,-114.313 L-64.0825,-105.051 L-63.129,-100.742 L-58.8198,-99.7882 Z M-88.9855,-80.1481 L-98.2477,-65.6232 L-83.7228,-74.8853 L-84.6763,-79.1947 L-88.9855,-80.1481 Z M-83.7232,-105.051 L-98.2477,-114.313 L-88.9854,-99.7881 L-84.6768,-100.741 L-83.7232,-105.051 Z M-58.8198,-80.148 L-63.1286,-79.1946 L-64.0821,-74.8851 L-49.5576,-65.6232 L-58.8198,-80.148 Z M-121.928,-89.9682 L-86.325,-82.0911 C-87.7766,-84.3722 -88.6299,-87.0698 -88.6299,-89.9682 C-88.6299,-92.8665 -87.7767,-95.564 -86.3251,-97.8451 L-121.928,-89.9682 Z M-25.8769,-89.9682 L-61.4803,-97.8453 C-60.0287,-95.5642 -59.1754,-92.8666 -59.1754,-89.9682 C-59.1754,-87.0698 -60.0287,-84.3721 -61.4805,-82.0909 L-25.8769,-89.9682 Z M-73.9031,-137.994 L-81.78,-102.39 C-79.4989,-103.842 -76.801,-104.695 -73.9023,-104.695 C-71.004,-104.695 -68.3066,-103.842 -66.0256,-102.391 L-73.9031,-137.994 Z M-73.9023,-41.9425 L-66.0254,-77.546 C-68.3064,-76.0943 -71.0039,-75.241 -73.9023,-75.241 C-76.8009,-75.241 -79.4987,-76.0943 -81.7798,-77.546 L-73.9023,-41.9425 Z M-61.6475,-89.9682 C-61.6475,-96.7257 -67.1452,-102.223 -73.9023,-102.223 C-80.6601,-102.223 -86.1579,-96.7257 -86.1579,-89.9682 C-86.1579,-83.2107 -80.6601,-77.713 -73.9023,-77.713 C-67.1452,-77.713 -61.6475,-83.2107 -61.6475,-89.9682 Z " fill="#9abc45" fill-opacity="1.00" />			<path d="M-3.40438,-36.5114 C1.43405,-25.0723 8.35796,-14.8014 17.1753,-5.98397 C25.9927,2.8334 36.2636,9.7573 47.7027,14.5957 C59.5519,19.6075 72.1321,22.1487 85.0938,22.1487 L85.0938,11.8775 C81.5118,11.8775 77.9051,11.6542 74.3738,11.214 L74.7369,8.30173 C78.1481,8.72703 81.6327,8.94282 85.0938,8.94282 L85.0938,-1.32842 C65.7086,-1.32842 47.4835,-8.87735 33.7761,-22.5847 C20.0687,-36.2924 12.5198,-54.5172 12.5198,-73.9025 L2.24853,-73.9025 C2.24853,-70.4417 2.46433,-66.9571 2.88962,-63.5455 L-0.0226597,-63.1827 C-0.462845,-66.7141 -0.686119,-70.3207 -0.686119,-73.9025 L-10.9573,-73.9025 C-10.9573,-60.9408 -8.41617,-48.3608 -3.40438,-36.5114 Z M63.3305,6.0549 L62.5613,8.88692 C55.5878,6.99319 48.8637,4.21015 42.5757,0.615205 L44.0321,-1.93252 C50.104,1.53916 56.5969,4.22647 63.3305,6.0549 Z M34.3693,-8.39674 L32.5707,-6.07769 C26.8565,-10.5092 21.7111,-15.6531 17.2785,-21.3673 L19.597,-23.1659 C23.8792,-17.6463 28.8491,-12.6772 34.3693,-8.39674 Z M13.1313,-32.827 L10.5842,-31.37 C6.9895,-37.6537 4.2059,-44.3744 2.31044,-51.3456 L5.14246,-52.1154 C6.97233,-45.3846 9.66019,-38.8949 13.1313,-32.827 Z " fill="#9abc45" fill-opacity="1.00" />		</g>	</svg>