<?xml version="1.0" encoding="utf-8" ?>	<!-- Generator: Assembly 2.4 - http://assemblyapp.co -->	<svg version="1.1" xmlns="http://www.w3.org/2000/svg" xmlns:xlink="http://www.w3.org/1999/xlink" width="4096.00" height="4096.00" viewBox="0 0 4096.0 4096.0">		<g id="document" transform="scale(13.653333333333334 13.653333333333334) translate(150.0 150.0)">			<path d="M63.5628,149.253 C111.036,149.253 149.253,111.036 149.253,63.5628 L149.253,-63.9278 C149.253,-111.401 110.737,-149.618 63.5628,-149.618 L-63.9278,-149.618 C-111.401,-149.618 -149.618,-111.102 -149.618,-63.9278 L-149.618,63.5628 C-149.618,111.036 -111.102,149.253 -63.9278,149.253 L63.5628,149.253 Z " fill="#fce29b" fill-opacity="1.00" />			<path d="M91.3594,61.5332 L60.1219,92.7707 L60.1219,124.008 L122.597,61.5332 L91.3594,61.5332 Z M91.3594,124.008 L122.597,124.008 L122.597,92.7707 L91.3594,124.008 Z " fill="#542237" fill-opacity="1.00" />			<path d="M66.5862,48.0705 L42.912,71.7447 L52.3817,81.2143 L76.0558,57.5402 C89.1239,44.4721 89.1239,23.2601 76.0558,10.1919 L66.5862,19.6616 C74.446,27.5214 74.446,40.2107 66.5862,48.0705 Z " fill="#542237" fill-opacity="1.00" />			<path d="M85.8569,0 C85.8569,-12.9375 75.3569,-23.4375 62.4194,-23.4375 C49.4819,-23.4375 38.9819,-12.9375 38.9819,0 C38.9819,12.9375 49.4819,23.4375 62.4194,23.4375 C75.3569,23.4375 85.8569,12.9375 85.8569,0 Z M62.4194,-14.0625 C70.2007,-14.0625 76.4819,-7.78125 76.4819,0 C76.4819,7.78125 70.2007,14.0625 62.4194,14.0625 C54.6382,14.0625 48.3569,7.78125 48.3569,0 C48.3569,-7.78125 54.6382,-14.0625 62.4194,-14.0625 Z " fill="#ffffff" fill-opacity="1.00" />			<path d="M127.946,26.022 L127.946,-9.48921 L113.742,-9.48921 L113.742,26.022 C113.742,45.6242 129.651,61.5332 149.253,61.5332 L149.253,47.3287 C137.463,47.3287 127.946,37.8117 127.946,26.022 Z " fill="#ffffff" fill-opacity="1.00" />			<path d="M38.9819,-31.4062 L48.3569,-31.4062 C48.3569,-39.1875 54.6382,-45.4688 62.4194,-45.4688 C70.2007,-45.4688 76.4819,-39.1875 76.4819,-31.4062 L85.8569,-31.4062 C85.8569,-44.3437 75.3569,-54.8438 62.4194,-54.8438 C49.4819,-54.8438 38.9819,-44.3437 38.9819,-31.4062 Z " fill="#527779" fill-opacity="1.00" />			<path d="M-114.489,30.8383 C-102.699,30.8383 -93.1821,40.3553 -93.1821,52.1451 L-93.1821,87.6562 L-78.9776,87.6562 L-78.9776,52.1451 C-78.9776,32.5429 -94.8866,16.6339 -114.489,16.6339 L-150,16.6339 L-150,30.8383 L-114.489,30.8383 Z " fill="#f9b194" fill-opacity="1.00" />			<path d="M127.946,-12.0737 L127.946,-47.5849 L113.742,-47.5849 L113.742,-12.0737 C113.742,7.52848 129.651,23.4375 149.253,23.4375 L149.253,9.23302 C137.463,9.23302 127.946,-0.283977 127.946,-12.0737 Z " fill="#f9b194" fill-opacity="1.00" />			<path d="M36.9917,112.117 L36.9917,150 L52.1451,150 L52.1451,112.117 C52.1451,91.2051 35.1733,74.2334 14.2617,74.2334 L14.2617,89.3867 C26.839,89.3867 36.9917,99.5394 36.9917,112.117 Z " fill="#f9b194" fill-opacity="1.00" />			<path d="M22.5,78.4082 C22.5,65.4707 12,54.9707 -0.9375,54.9707 C-13.875,54.9707 -24.375,65.4707 -24.375,78.4082 C-24.375,91.3457 -13.875,101.846 -0.9375,101.846 C12,101.846 22.5,91.3457 22.5,78.4082 Z M-0.9375,64.3457 C6.84375,64.3457 13.125,70.6269 13.125,78.4082 C13.125,86.1894 6.84375,92.4707 -0.9375,92.4707 C-8.71875,92.4707 -15,86.1894 -15,78.4082 C-15,70.6269 -8.71875,64.3457 -0.9375,64.3457 Z " fill="#527779" fill-opacity="1.00" />			<path d="M-123.433,-16.4272 C-123.433,-27.4035 -114.573,-36.2638 -103.596,-36.2638 L-70.5352,-36.2638 L-70.5352,-49.4883 L-103.596,-49.4883 C-121.846,-49.4883 -136.657,-34.6769 -136.657,-16.4272 L-136.657,16.6339 L-123.433,16.6339 L-123.433,-16.4272 Z " fill="#527779" fill-opacity="1.00" />			<path d="M-40.1107,95.0358 L-42.1237,97.0488 L-40.1107,99.0618 L-38.0977,97.0488 L-40.1107,95.0358 Z M-42.5263,97.4514 L-44.5394,99.4644 L-42.5263,101.477 L-40.5133,99.4644 L-42.5263,97.4514 Z M-44.942,99.867 L-46.955,101.88 L-44.942,103.893 L-42.9289,101.88 L-44.942,99.867 Z M-47.3576,102.283 L-49.3707,104.296 L-47.3576,106.309 L-45.3446,104.296 L-47.3576,102.283 Z M-49.7924,104.717 L-51.8055,106.731 L-49.7924,108.744 L-47.7794,106.731 L-49.7924,104.717 Z M-52.1889,107.114 L-54.2019,109.127 L-52.1889,111.14 L-50.1759,109.127 L-52.1889,107.114 Z M-54.6237,109.549 L-56.6367,111.562 L-54.6237,113.575 L-52.6107,111.562 L-54.6237,109.549 Z M-57.0393,111.964 L-59.0524,113.977 L-57.0393,115.99 L-55.0263,113.977 L-57.0393,111.964 Z M-42.5263,92.6202 L-44.5394,94.6332 L-42.5263,96.6462 L-40.5133,94.6332 L-42.5263,92.6202 Z M-44.942,95.0358 L-46.955,97.0488 L-44.942,99.0618 L-42.9289,97.0488 L-44.942,95.0358 Z M-47.3576,97.4514 L-49.3706,99.4644 L-47.3576,101.477 L-45.3446,99.4644 L-47.3576,97.4514 Z M-49.7733,99.8671 L-51.7863,101.88 L-49.7733,103.893 L-47.7602,101.88 L-49.7733,99.8671 Z M-52.2081,102.302 L-54.2211,104.315 L-52.2081,106.328 L-50.195,104.315 L-52.2081,102.302 Z M-54.6045,104.698 L-56.6176,106.711 L-54.6045,108.724 L-52.5915,106.711 L-54.6045,104.698 Z M-57.0393,107.133 L-59.0523,109.146 L-57.0393,111.159 L-55.0263,109.146 L-57.0393,107.133 Z M-59.455,109.549 L-61.468,111.562 L-59.455,113.575 L-57.4419,111.562 L-59.455,109.549 Z M-44.942,90.2045 L-46.955,92.2176 L-44.942,94.2306 L-42.9289,92.2176 L-44.942,90.2045 Z M-47.3576,92.6202 L-49.3706,94.6332 L-47.3576,96.6462 L-45.3446,94.6332 L-47.3576,92.6202 Z M-49.7732,95.0358 L-51.7863,97.0488 L-49.7732,99.0618 L-47.7602,97.0488 L-49.7732,95.0358 Z M-52.1889,97.4514 L-54.2019,99.4645 L-52.1889,101.477 L-50.1759,99.4645 L-52.1889,97.4514 Z M-54.6237,99.8862 L-56.6367,101.899 L-54.6237,103.912 L-52.6107,101.899 L-54.6237,99.8862 Z M-57.0202,102.283 L-59.0332,104.296 L-57.0202,106.309 L-55.0071,104.296 L-57.0202,102.283 Z M-59.455,104.717 L-61.468,106.731 L-59.455,108.744 L-57.4419,106.731 L-59.455,104.717 Z M-61.8706,107.133 L-63.8836,109.146 L-61.8706,111.159 L-59.8576,109.146 L-61.8706,107.133 Z M-47.3576,87.7889 L-49.3707,89.8019 L-47.3576,91.8149 L-45.3446,89.8019 L-47.3576,87.7889 Z M-49.7733,90.2045 L-51.7863,92.2175 L-49.7733,94.2306 L-47.7602,92.2175 L-49.7733,90.2045 Z M-52.1889,92.6201 L-54.2019,94.6332 L-52.1889,96.6462 L-50.1759,94.6332 L-52.1889,92.6201 Z M-54.6045,95.0358 L-56.6176,97.0488 L-54.6045,99.0618 L-52.5915,97.0488 L-54.6045,95.0358 Z M-57.0393,97.4706 L-59.0524,99.4836 L-57.0393,101.497 L-55.0263,99.4836 L-57.0393,97.4706 Z M-59.4358,99.867 L-61.4488,101.88 L-59.4358,103.893 L-57.4228,101.88 L-59.4358,99.867 Z M-61.8706,102.302 L-63.8836,104.315 L-61.8706,106.328 L-59.8576,104.315 L-61.8706,102.302 Z M-64.2863,104.717 L-66.2993,106.731 L-64.2863,108.744 L-62.2732,106.731 L-64.2863,104.717 Z M-49.7924,85.3541 L-51.8055,87.3671 L-49.7924,89.3801 L-47.7794,87.3671 L-49.7924,85.3541 Z M-52.2081,87.7697 L-54.2211,89.7827 L-52.2081,91.7958 L-50.195,89.7827 L-52.2081,87.7697 Z M-54.6237,90.1853 L-56.6367,92.1984 L-54.6237,94.2114 L-52.6107,92.1984 L-54.6237,90.1853 Z M-57.0393,92.601 L-59.0524,94.614 L-57.0393,96.627 L-55.0263,94.614 L-57.0393,92.601 Z M-59.4741,95.0358 L-61.4872,97.0488 L-59.4741,99.0618 L-57.4611,97.0488 L-59.4741,95.0358 Z M-61.8706,97.4322 L-63.8836,99.4453 L-61.8706,101.458 L-59.8576,99.4453 L-61.8706,97.4322 Z M-64.3054,99.867 L-66.3184,101.88 L-64.3054,103.893 L-62.2924,101.88 L-64.3054,99.867 Z M-66.7211,102.283 L-68.7341,104.296 L-66.7211,106.309 L-64.708,104.296 L-66.7211,102.283 Z M-52.1889,82.9576 L-54.2019,84.9706 L-52.1889,86.9837 L-50.1759,84.9706 L-52.1889,82.9576 Z M-54.6045,85.3732 L-56.6176,87.3863 L-54.6045,89.3993 L-52.5915,87.3863 L-54.6045,85.3732 Z M-57.0202,87.7889 L-59.0332,89.8019 L-57.0202,91.8149 L-55.0071,89.8019 L-57.0202,87.7889 Z M-59.4358,90.2045 L-61.4488,92.2176 L-59.4358,94.2306 L-57.4228,92.2176 L-59.4358,90.2045 Z M-61.8706,92.6393 L-63.8836,94.6523 L-61.8706,96.6654 L-59.8576,94.6523 L-61.8706,92.6393 Z M-64.2671,95.0358 L-66.2801,97.0488 L-64.2671,99.0618 L-62.254,97.0488 L-64.2671,95.0358 Z M-66.7019,97.4706 L-68.7149,99.4836 L-66.7019,101.497 L-64.6888,99.4836 L-66.7019,97.4706 Z M-69.1175,99.8862 L-71.1306,101.899 L-69.1175,103.912 L-67.1045,101.899 L-69.1175,99.8862 Z M-54.6237,80.5228 L-56.6367,82.5358 L-54.6237,84.5489 L-52.6107,82.5358 L-54.6237,80.5228 Z M-57.0393,82.9384 L-59.0523,84.9515 L-57.0393,86.9645 L-55.0263,84.9515 L-57.0393,82.9384 Z M-59.455,85.3541 L-61.468,87.3671 L-59.455,89.3801 L-57.4419,87.3671 L-59.455,85.3541 Z M-61.8706,87.7697 L-63.8836,89.7828 L-61.8706,91.7958 L-59.8576,89.7828 L-61.8706,87.7697 Z M-64.3054,90.2045 L-66.3184,92.2176 L-64.3054,94.2306 L-62.2924,92.2176 L-64.3054,90.2045 Z M-66.7019,92.601 L-68.7149,94.614 L-66.7019,96.627 L-64.6888,94.614 L-66.7019,92.601 Z M-69.1367,95.0358 L-71.1497,97.0488 L-69.1367,99.0618 L-67.1236,97.0488 L-69.1367,95.0358 Z M-71.5523,97.4514 L-73.5653,99.4645 L-71.5523,101.477 L-69.5393,99.4645 L-71.5523,97.4514 Z M-57.0393,78.1072 L-59.0524,80.1202 L-57.0393,82.1332 L-55.0263,80.1202 L-57.0393,78.1072 Z M-59.455,80.5228 L-61.468,82.5358 L-59.455,84.5488 L-57.4419,82.5358 L-59.455,80.5228 Z M-61.8706,82.9384 L-63.8836,84.9514 L-61.8706,86.9645 L-59.8576,84.9514 L-61.8706,82.9384 Z M-64.2863,85.3541 L-66.2993,87.3671 L-64.2863,89.3801 L-62.2732,87.3671 L-64.2863,85.3541 Z M-66.7211,87.7889 L-68.7341,89.8019 L-66.7211,91.8149 L-64.708,89.8019 L-66.7211,87.7889 Z M-69.1175,90.1853 L-71.1306,92.1984 L-69.1175,94.2114 L-67.1045,92.1984 L-69.1175,90.1853 Z M-71.5523,92.6201 L-73.5653,94.6332 L-71.5523,96.6462 L-69.5393,94.6332 L-71.5523,92.6201 Z M-73.968,95.0358 L-75.981,97.0488 L-73.968,99.0618 L-71.9549,97.0488 L-73.968,95.0358 Z " fill="#ffffff" fill-opacity="1.00" />			<path d="M-150,-68.0682 L-150,-54.8437 L-83.8779,-54.8437 L-83.8779,-68.0682 L-150,-68.0682 Z " fill="#ffffff" fill-opacity="1.00" />			<path d="M-110.076,14.4458 C-112.16,14.4458 -113.864,12.7411 -113.864,10.6575 L-113.864,-19.6492 C-113.864,-21.7328 -112.16,-23.4375 -110.076,-23.4375 C-107.992,-23.4375 -106.288,-21.7328 -106.288,-19.6492 L-106.288,10.6575 C-106.288,12.7411 -107.992,14.4458 -110.076,14.4458 Z M-91.1343,10.6575 L-91.1343,-19.6492 C-91.1343,-21.7328 -92.8391,-23.4375 -94.9227,-23.4375 C-97.0062,-23.4375 -98.711,-21.7328 -98.711,-19.6492 L-98.711,10.6575 C-98.711,12.7411 -97.0062,14.4458 -94.9227,14.4458 C-92.8391,14.4458 -91.1343,12.7411 -91.1343,10.6575 Z M-75.981,10.6575 L-75.981,-19.6492 C-75.981,-21.7328 -77.6858,-23.4375 -79.7693,-23.4375 C-81.8529,-23.4375 -83.5577,-21.7328 -83.5577,-19.6492 L-83.5577,10.6575 C-83.5577,12.7411 -81.8529,14.4458 -79.7693,14.4458 C-77.6858,14.4458 -75.981,12.7411 -75.981,10.6575 Z " fill="#ffffff" fill-opacity="1.00" />			<path d="M72.6325,-150 L72.6325,-103.715 C72.6325,-100.078 69.657,-97.1023 66.0203,-97.1023 C62.3835,-97.1023 59.4081,-100.078 59.4081,-103.715 L59.4081,-130.163 C59.4081,-141.14 50.5477,-150 39.5714,-150 C28.5951,-150 19.7348,-141.14 19.7348,-130.163 L19.7348,-83.8779 L32.9592,-83.8779 L32.9592,-130.163 C32.9592,-133.8 35.9347,-136.776 39.5714,-136.776 C43.2081,-136.776 46.1836,-133.8 46.1836,-130.163 L46.1836,-103.715 C46.1836,-92.7382 55.044,-83.8779 66.0203,-83.8779 C76.9965,-83.8779 85.8569,-92.7382 85.8569,-103.715 L85.8569,-150 L72.6325,-150 Z " fill="#ffffff" fill-opacity="1.00" />			<path d="M-61.8616,-36.6619 L-61.8616,-23.4375 L4.26052,-23.4375 L4.26052,-36.6619 L-61.8616,-36.6619 Z " fill="#f9b194" fill-opacity="1.00" />			<path d="M-64.0412,-35.0071 L-64.0412,-1.94605 L-50.8168,-1.94605 L-50.8168,-35.0071 C-50.8168,-53.2568 -65.6282,-68.0682 -83.8779,-68.0682 L-83.8779,-54.8438 C-72.9016,-54.8438 -64.0412,-45.9834 -64.0412,-35.0071 Z " fill="#ffffff" fill-opacity="1.00" />			<path d="M-87.0658,145.178 L-87.0658,131.953 C-98.042,131.953 -106.902,123.093 -106.902,112.117 C-106.902,101.14 -98.042,92.28 -87.0658,92.28 L-87.0658,79.0556 C-105.315,79.0556 -120.127,93.867 -120.127,112.117 C-120.127,130.366 -105.315,145.178 -87.0658,145.178 Z " fill="#ffffff" fill-opacity="1.00" />			<path d="M-9.85888,19.084 C-9.85888,0.834292 -24.6702,-13.9771 -42.9199,-13.9771 C-61.1696,-13.9771 -75.981,0.834292 -75.981,19.084 C-75.981,37.3337 -61.1696,52.1451 -42.9199,52.1451 C-24.6702,52.1451 -9.85888,37.3337 -9.85888,19.084 Z M-42.9199,-0.752639 C-31.9437,-0.752639 -23.0833,8.10773 -23.0833,19.084 C-23.0833,30.0603 -31.9437,38.9206 -42.9199,38.9206 C-53.8962,38.9206 -62.7566,30.0603 -62.7566,19.084 C-62.7566,8.10773 -53.8962,-0.752639 -42.9199,-0.752639 Z " fill="#ffffff" fill-opacity="1.00" />			<path d="M-100.29,-94.517 L-100.29,-61.456 L-87.0658,-61.456 L-87.0658,-94.517 C-87.0658,-112.767 -101.877,-127.578 -120.127,-127.578 L-120.127,-114.354 C-109.151,-114.354 -100.29,-105.493 -100.29,-94.517 Z " fill="#542237" fill-opacity="1.00" />			<path d="M-81.6982,-94.517 C-81.6982,-105.493 -72.8379,-114.354 -61.8616,-114.354 L-28.8005,-114.354 L-28.8005,-127.578 L-61.8616,-127.578 C-80.1113,-127.578 -94.9227,-112.767 -94.9227,-94.517 L-94.9227,-61.456 L-81.6982,-61.456 L-81.6982,-94.517 Z " fill="#542237" fill-opacity="1.00" />			<path d="M-19.9099,-31.4062 L-6.68549,-31.4062 L-6.68549,-97.5284 L-19.9099,-97.5284 L-19.9099,-31.4062 Z " fill="#f9b194" fill-opacity="1.00" />			<path d="M10.1398,-117.955 C10.1398,-130.892 -0.360199,-141.392 -13.2977,-141.392 C-26.2352,-141.392 -36.7352,-130.892 -36.7352,-117.955 C-36.7352,-105.017 -26.2352,-94.517 -13.2977,-94.517 C-0.360199,-94.517 10.1398,-105.017 10.1398,-117.955 Z M-13.2977,-132.017 C-5.51645,-132.017 0.764801,-125.736 0.764801,-117.955 C0.764801,-110.173 -5.51645,-103.892 -13.2977,-103.892 C-21.0789,-103.892 -27.3602,-110.173 -27.3602,-117.955 C-27.3602,-125.736 -21.0789,-132.017 -13.2977,-132.017 Z " fill="#542237" fill-opacity="1.00" />			<path d="M3.55271e-15,107.055 L-8.58897,107.055 L-8.58897,150 L3.55271e-15,150 L3.55271e-15,107.055 Z M-17.1779,107.055 L-25.7669,107.055 L-25.7669,150 L-17.1779,150 L-17.1779,107.055 Z M-34.3559,107.055 L-42.9449,107.055 L-42.9449,150 L-34.3559,150 L-34.3559,107.055 Z " fill="#527779" fill-opacity="1.00" />			<path d="M94.7475,-71.0224 C94.7475,-58.0701 105.233,-47.5849 118.185,-47.5849 C131.137,-47.5849 141.623,-58.0701 141.623,-71.0224 L94.7475,-71.0224 Z " fill="#527779" fill-opacity="1.00" />		</g>	</svg>