<?xml version="1.0" encoding="utf-8" ?>	<!-- Generator: Assembly 2.4 - http://assemblyapp.co -->	<svg version="1.1" xmlns="http://www.w3.org/2000/svg" xmlns:xlink="http://www.w3.org/1999/xlink" width="4096.00" height="4096.00" viewBox="0 0 4096.0 4096.0">		<g id="document" transform="scale(13.653333333333334 13.653333333333334) translate(150.0 150.0)">			<path d="M63.5628,149.253 C111.036,149.253 149.253,111.036 149.253,63.5628 L149.253,-63.9278 C149.253,-111.401 110.737,-149.618 63.5628,-149.618 L-63.9278,-149.618 C-111.401,-149.618 -149.618,-111.102 -149.618,-63.9278 L-149.618,63.5628 C-149.618,111.036 -111.102,149.253 -63.9278,149.253 L63.5628,149.253 Z " fill="#51bad2" fill-opacity="1.00" />			<path d="M74.4632,99.8766 C75.864,97.4503 75.0293,94.3352 72.5466,92.9019 C70.8538,91.9245 68.922,92.0129 67.3502,92.911 C67.107,93.0716 66.7685,92.8761 66.7859,92.5853 C66.6737,90.5644 65.5912,88.6604 63.7856,87.618 C61.98,86.5755 59.7334,86.5574 57.951,87.5597 C57.7078,87.7202 57.3693,87.5247 57.3867,87.2339 C57.4351,85.4562 56.5218,83.6499 54.8291,82.6726 C52.4028,81.2718 49.2313,82.0739 47.8304,84.5002 C47.8304,84.5002 47.8304,84.5002 47.8304,84.5002 C47.635,84.8388 47.5285,85.1535 47.3895,85.5246 L30.1077,124.449 L48.728,135.199 L73.7965,100.771 C74.0158,100.521 74.2677,100.215 74.4632,99.8766 C74.4632,99.8766 74.4632,99.8766 74.4632,99.8766 Z M42.8953,129.274 L38.1556,126.537 L57.5682,90.047 L57.6008,89.9906 L57.8765,89.7736 C59.24,88.4544 61.3261,88.2293 62.9624,89.174 C64.5987,90.1188 65.4143,92.0943 64.9535,93.9348 L64.9035,94.2821 L42.8953,129.274 Z M55.4568,81.4551 C56.9802,82.3347 58.0325,83.7698 58.4618,85.3719 C58.5333,85.6389 58.7916,85.7127 59.026,85.6976 C60.8625,85.2532 62.7443,85.5121 64.4371,86.4895 C66.0734,87.4342 67.2624,89.0235 67.772,90.7471 C67.8435,91.0141 68.0692,91.1444 68.3362,91.0729 C69.9383,90.6436 71.7072,90.8373 73.2307,91.7169 C74.8671,92.6617 75.8868,94.1532 76.3073,95.9007 C76.6156,95.6273 76.8437,95.2323 77.0717,94.8373 C77.6581,93.8217 77.8733,92.667 77.7652,91.5512 C78.5487,91.6275 79.3585,91.2674 79.782,90.5339 C80.3358,89.5746 80.0345,88.2722 79.0188,87.6858 C78.9624,87.6532 78.8496,87.5881 78.7931,87.5555 C79.4423,86.9523 79.9549,86.1949 80.2178,85.2182 C80.7024,83.4667 80.0562,81.5889 78.6066,80.451 C77.7451,79.7279 76.712,79.4324 75.7178,79.4603 C74.5782,79.4795 73.4125,79.9349 72.5114,80.8441 C72.2921,81.0937 71.8796,81.1565 71.5975,80.9936 C71.5411,80.961 71.4847,80.9285 71.4282,80.8959 C71.1548,80.5876 71.1246,80.1187 71.3765,79.8127 C72.245,78.96 73.2741,78.3504 74.455,78.1293 C74.9,78.0101 75.128,77.6151 75.0978,77.1462 C74.9093,75.9089 74.2194,74.7583 73.0345,74.0742 C71.116,72.9666 68.6566,73.5779 67.4687,75.3748 C66.3553,74.9576 65.1267,75.0007 64.0499,75.4323 C63.7504,75.5602 63.6439,75.8749 63.7154,76.142 C64.403,77.8179 64.3459,79.741 63.3686,81.4338 C63.1732,81.7723 62.9213,82.0783 62.6368,82.4407 C62.3849,82.7467 61.9725,82.8095 61.6339,82.614 C61.5775,82.5815 61.5211,82.5489 61.5211,82.5489 C61.2151,82.297 61.161,81.7391 61.4693,81.4657 C61.6886,81.2162 61.8189,80.9905 61.9818,80.7083 C62.7637,79.3541 62.7707,77.7783 62.0895,76.4822 C61.5515,75.7202 60.7703,75.1187 59.7371,74.8231 C58.0182,74.2821 56.084,74.8958 54.9787,76.2889 C54.2882,77.094 54.0252,78.0707 53.9967,79.0323 C53.4976,78.5936 52.8769,78.2353 51.9718,78.2393 C51.0667,78.2434 50.2005,78.5709 49.6315,79.2957 C49.3471,79.6581 49.0865,80.1095 49.0039,80.5132 C48.9212,80.9169 49.2836,81.2013 49.6722,81.0495 C51.639,80.3794 53.7076,80.4452 55.4568,81.4551 Z " fill="#dce9eb" fill-opacity="1.00" />			<path d="M-18.4866,-88.9177 C-18.1245,-89.1274 -16.9193,-90.754 -14.0421,-92.2658 C-11.248,-93.7874 -6.92818,-95.3803 -2.50748,-95.6968 C1.84989,-96.1895 6.30816,-95.4058 8.96175,-94.3312 C11.7914,-93.32 12.9728,-91.915 13.0658,-91.9882 C12.8897,-91.9249 12.1536,-93.5298 9.46636,-95.0297 C6.94537,-96.51 2.46336,-97.8022 -2.3531,-97.7014 C-7.15966,-97.6837 -12.3007,-96.2728 -15.633,-94.4781 C-19.0386,-92.7764 -20.5327,-90.8471 -20.9047,-90.5542 C-21.8941,-89.3234 -21.9693,-87.9837 -21.251,-87.6453 C-20.5228,-87.3901 -19.4365,-88.0193 -18.4866,-88.9177 Z M32.1057,-74.2121 C32.1828,-73.4443 32.4262,-72.6568 32.8952,-72.3481 C33.384,-72.2056 33.9717,-72.8942 34.0073,-73.9014 C33.9539,-74.1606 34.0588,-75.7496 33.2357,-78.0391 C32.4125,-80.3287 30.6514,-83.2356 28.3758,-85.3609 C26.1932,-87.5594 23.5693,-88.8833 21.6776,-89.2771 C19.7957,-89.754 18.739,-89.3741 18.6658,-89.4671 C18.6559,-89.384 19.8491,-89.4948 21.6182,-88.7784 C23.3041,-88.072 25.7321,-86.5185 27.5823,-84.3596 C29.5255,-82.2739 30.9007,-79.6658 31.5141,-77.7384 C32.2007,-75.718 32.0523,-74.4713 32.1057,-74.2121 Z M42.5643,-101.878 C43.4587,-101.603 44.4659,-101.567 44.7647,-101.953 C45.0635,-102.339 44.6638,-103.229 43.5399,-103.7 C43.2074,-103.74 41.6145,-104.52 38.7491,-104.524 C36.0599,-104.591 32.0884,-103.799 28.9421,-102.151 C25.6394,-100.606 23.1717,-98.2866 22.02,-96.4008 C20.7852,-94.5249 20.7931,-93.1754 20.71,-93.1853 C20.7931,-93.1754 21.0345,-94.4953 22.582,-96.1654 C24.0365,-97.7622 26.6406,-99.8122 29.7276,-100.962 C32.7414,-102.205 36.1747,-102.723 38.5215,-102.612 C40.9614,-102.574 42.3149,-101.908 42.5643,-101.878 Z M-4.31994,-103.836 C-4.07061,-103.806 -3.09702,-104.196 -1.26859,-103.978 C0.476727,-103.77 2.84735,-103.151 4.97258,-101.886 C7.10771,-100.705 8.85102,-99.0646 9.69991,-97.6992 C10.6319,-96.3239 10.6893,-95.3899 10.7724,-95.38 C10.6893,-95.3899 10.808,-96.3872 10.1353,-97.8159 C9.46248,-99.2446 7.93486,-101.281 5.6632,-102.731 C3.56766,-104.245 0.728063,-105.173 -1.26659,-105.411 C-3.33445,-105.741 -4.56726,-105.298 -4.81659,-105.328 C-5.68728,-105.094 -6.09889,-104.469 -5.87924,-104.19 C-5.66949,-103.828 -5.00461,-103.749 -4.31994,-103.836 Z M-19.2243,-110.331 C-18.789,-110.447 -16.3372,-111.925 -12.4151,-112.301 C-8.56633,-112.77 -3.17405,-112.044 1.27232,-109.744 C5.8117,-107.518 9.47839,-103.626 11.283,-100.376 C13.1609,-97.0342 13.2597,-94.3252 13.426,-94.3054 C13.2597,-94.3252 13.7624,-97.1312 12.2863,-101.016 C10.9665,-104.797 7.74109,-109.564 2.94844,-112.495 C-1.65821,-115.572 -7.7391,-116.886 -12.2528,-116.496 C-16.8298,-116.283 -19.7466,-114.439 -20.2651,-114.332 C-22.1687,-113.21 -23.2373,-111.314 -22.8376,-110.424 C-22.3647,-109.44 -20.8291,-109.594 -19.2243,-110.331 Z M42.4116,-87.1455 C42.8846,-86.162 43.4703,-85.418 44.2677,-85.7445 C44.7229,-86.0274 44.9841,-87.5135 44.5508,-88.8295 C44.3311,-89.1085 43.6643,-91.2951 41.7112,-93.2977 C39.7582,-95.3003 36.5189,-97.1189 33.2578,-97.3386 C29.9334,-97.7344 26.6703,-96.5215 24.6439,-95.077 C22.5345,-93.6424 21.6519,-91.8931 21.5787,-91.9861 C21.5688,-91.903 22.6611,-93.2901 24.8042,-94.2993 C26.8642,-95.3183 30.0481,-95.8664 32.9174,-95.1876 C35.7966,-94.5919 38.5273,-92.7496 40.0846,-90.9627 C41.725,-89.1659 42.2751,-87.4146 42.4116,-87.1455 Z M52.4604,-104.998 C53.9505,-104.062 55.4168,-103.635 56.0975,-104.397 C56.612,-105.178 55.8522,-107.292 54.1623,-108.673 C53.6834,-108.899 51.0021,-111.156 46.5637,-112.106 C42.2281,-113.213 35.9592,-112.948 30.9586,-110.593 C25.8216,-108.507 21.8698,-104.342 19.9285,-100.78 C17.9041,-97.2281 17.9001,-94.3627 17.7339,-94.3825 C17.8071,-94.2895 18.2999,-97.0124 20.7635,-100.006 C23.061,-103.02 27.2364,-106.232 32.1281,-107.672 C36.9564,-109.289 42.325,-109.071 46.0788,-108.034 C49.9157,-106.987 51.9717,-105.141 52.4604,-104.998 Z M6.71046,-127.809 C6.83709,-127.457 8.3845,-125.587 9.96948,-122.617 C11.6376,-119.636 13.2799,-115.732 14.3939,-111.638 C15.5079,-107.544 16.1035,-103.343 16.236,-100.208 C16.3685,-97.0737 16.0281,-94.9228 16.1211,-94.996 C16.038,-95.0059 16.5446,-97.1371 16.7545,-100.315 C16.9742,-103.576 16.9802,-107.874 16.3945,-112.158 C15.892,-116.433 14.7978,-120.693 13.658,-123.863 C12.5183,-127.033 11.333,-129.113 11.2064,-129.465 C10.4406,-130.821 8.66164,-131.454 7.34572,-131.021 C6.10301,-130.494 5.85167,-129.091 6.71046,-127.809 Z M1.26851,-117.499 C1.41494,-117.313 2.74865,-116.48 4.35543,-115.109 C5.96221,-113.738 7.90537,-111.652 9.4963,-109.44 C11.0872,-107.227 12.3259,-104.888 13.1155,-103.024 C13.905,-101.16 14.1721,-99.8639 14.2552,-99.854 C14.1721,-99.8639 13.998,-101.233 13.4776,-103.234 C12.8741,-105.244 11.9144,-107.803 10.6025,-110.235 C9.29057,-112.667 7.70953,-114.962 6.39166,-116.637 C4.99069,-118.321 3.84299,-119.3 3.69656,-119.486 C2.92483,-120.084 1.75139,-120.139 1.09045,-119.544 C0.356298,-119.041 0.496777,-118.097 1.26851,-117.499 Z M-14.1214,-84.5207 C-13.9453,-84.584 -13.0587,-85.6585 -11.6538,-86.8398 C-10.2488,-88.0211 -8.23233,-89.3825 -6.16246,-90.4847 C-4.0926,-91.5868 -1.81298,-92.3269 -0.164613,-92.7206 C1.56686,-93.1045 2.7601,-93.2153 2.67699,-93.2252 C2.66709,-93.1421 1.49365,-93.1975 -0.301147,-92.9898 C-2.09594,-92.782 -4.42898,-92.3012 -6.7185,-91.4781 C-8.99811,-90.738 -11.1511,-89.6457 -12.7757,-88.7434 C-14.4102,-87.758 -15.4333,-86.9526 -15.6193,-86.8062 C-16.2803,-86.2106 -16.399,-85.2133 -16.0527,-84.582 C-15.5402,-83.931 -14.6992,-83.9151 -14.1214,-84.5207 Z M-0.827878,-72.9918 C-0.641866,-73.1382 -0.204518,-74.6876 0.864081,-76.5833 C1.93268,-78.479 3.46631,-80.7408 5.30269,-82.7136 C7.13907,-84.6865 9.205,-86.4634 10.8593,-87.6151 C12.5136,-88.7667 13.7563,-89.2931 13.7662,-89.3762 C13.7563,-89.2931 12.4404,-88.8597 10.6397,-87.8941 C8.83892,-86.9285 6.47025,-85.4404 4.32121,-83.6734 C2.17218,-81.9063 0.252686,-79.9434 -1.04545,-78.2436 C-2.4267,-76.5537 -3.09359,-75.2002 -3.2796,-75.0538 C-3.7209,-74.1791 -3.52699,-72.976 -2.82848,-72.4714 C-2.06664,-71.7907 -1.26917,-72.1172 -0.827878,-72.9918 Z M31.0578,-122.044 C31.8018,-122.63 31.9107,-123.544 31.2122,-124.049 C30.5137,-124.553 29.3303,-124.526 28.5764,-123.857 C28.3904,-123.71 27.2545,-122.666 25.9564,-120.966 C24.6582,-119.266 23.1978,-116.911 21.9768,-114.444 C20.7559,-111.976 19.8574,-109.386 19.3607,-107.338 C18.8739,-105.373 18.7888,-103.95 18.7056,-103.96 C18.6957,-103.877 18.9471,-105.28 19.6733,-107.132 C20.4095,-109.067 21.5375,-111.462 23.0711,-113.723 C24.5216,-115.995 26.3679,-118.051 27.9787,-119.545 C29.5895,-121.039 30.9549,-121.888 31.0578,-122.044 Z M24.2872,-67.3042 C24.2516,-66.297 24.9402,-65.7093 25.8109,-65.9427 C26.6816,-66.1762 27.3821,-67.1043 27.3346,-68.1214 C27.2812,-68.3806 27.21,-69.9063 26.6995,-71.99 C26.189,-74.0737 25.3223,-76.7056 24.1034,-79.2108 C22.8845,-81.716 21.3866,-84.0016 20.1518,-85.6658 C18.9171,-87.33 17.8525,-88.2996 17.9356,-88.2897 C17.8525,-88.2996 18.741,-87.2667 19.7996,-85.5391 C20.8582,-83.8116 22.0039,-81.3994 22.7875,-78.7774 C23.6542,-76.1456 24.0855,-73.397 24.2537,-71.2698 C24.4119,-69.0594 24.2338,-67.5634 24.2872,-67.3042 Z M-8.93104,-79.2668 C-8.66192,-79.4033 -7.55969,-80.8736 -5.76289,-82.514 C-3.96609,-84.1544 -1.38171,-86.0382 1.41241,-87.5598 C4.12343,-89.0914 7.0343,-90.1777 9.29412,-90.7515 C11.5638,-91.4085 13.0895,-91.4797 13.0994,-91.5628 C13.0895,-91.4797 11.4906,-91.5015 9.16748,-91.1038 C6.84434,-90.7061 3.72372,-89.9819 0.729745,-88.9055 C-2.26423,-87.829 -5.14147,-86.3173 -7.15791,-84.9559 C-9.25747,-83.6044 -10.5793,-82.4131 -10.7654,-82.2667 C-11.6222,-81.4416 -11.7805,-80.1118 -11.2047,-79.2846 C-10.712,-78.4674 -9.69488,-78.5148 -8.93104,-79.2668 Z M-13.2129,-97.8144 C-12.8606,-97.941 -11.2795,-99.1857 -9.05335,-100.185 C-6.99337,-101.204 -4.3081,-101.811 -4.3081,-101.811 C-4.3081,-101.811 -6.6055,-102.338 -9.3541,-101.906 C-11.9998,-101.631 -15.1066,-100.316 -15.5716,-99.9496 C-16.6679,-99.2372 -16.8697,-98.2498 -15.9852,-97.8916 C-15.1205,-97.3672 -13.9272,-97.478 -13.2129,-97.8144 Z M12.2067,-79.1101 C12.3393,-79.5157 12.5768,-81.5104 13.3526,-83.7781 C14.1184,-85.9627 15.4957,-88.3274 15.4957,-88.3274 C15.5788,-88.3175 13.4892,-87.0491 11.9555,-84.7873 C10.3487,-82.6186 9.14155,-79.5593 9.06238,-78.8944 C8.82094,-77.5746 9.40666,-76.8305 10.2872,-77.1471 C11.1678,-77.4637 11.9515,-78.3819 12.2067,-79.1101 Z M33.1231,-88.42 C33.8513,-88.1648 35.0445,-88.2756 35.8519,-88.6852 C36.586,-89.1878 36.3624,-90.1416 35.1652,-90.7056 C34.6132,-91.0242 31.4411,-91.9919 28.742,-91.9761 C26.0627,-92.1265 23.7732,-91.3034 23.7831,-91.3865 C23.7831,-91.3865 26.5257,-91.0599 28.7103,-90.2941 C30.9879,-89.6014 32.7174,-88.5526 33.1231,-88.42 Z M30.4937,-113.767 C31.1447,-114.279 31.7819,-115.384 31.7146,-116.234 C31.7404,-117.159 30.846,-117.434 29.6765,-116.814 C29.1382,-116.541 26.5341,-114.491 25.0835,-112.219 C23.4668,-109.968 22.8573,-107.68 22.8573,-107.68 C22.8573,-107.68 24.6205,-109.746 26.4707,-111.127 C28.3407,-112.675 30.2147,-113.547 30.4937,-113.767 Z M17.1696,-79.0249 L15.3115,-78.9933 L16.4829,-77.5052 L15.9328,-75.7163 L17.694,-76.3495 L19.2572,-75.3205 L19.1425,-77.1885 L20.7137,-78.35 L18.8318,-78.827 L18.2085,-80.6713 L17.1696,-79.0249 Z M49.3456,-97.9517 L46.4704,-97.8726 L48.3107,-95.6306 L47.4755,-92.8642 L50.2103,-93.8872 L52.5453,-92.2606 L52.3831,-95.1457 L54.6983,-96.893 L51.922,-97.645 L50.9822,-100.37 L49.3456,-97.9517 Z M-4.4718,-131.585 L-3.53191,-128.86 L-0.672525,-128.098 L-2.99767,-126.268 L-2.83546,-123.383 L-5.25356,-125.019 L-7.98831,-123.996 L-7.15319,-126.762 L-8.98356,-129.088 L-6.10833,-129.167 L-4.4718,-131.585 Z M22.1038,-131.792 L23.1268,-129.057 L25.9031,-128.305 L23.5878,-126.558 L23.75,-123.673 L21.3319,-125.309 L18.5972,-124.286 L19.4323,-127.053 L17.592,-129.295 L20.5504,-129.364 L22.1038,-131.792 Z M36.9606,-122.774 L37.6037,-121.096 L39.3193,-120.639 L37.8411,-119.551 L37.9658,-117.766 L36.4856,-118.785 L34.8076,-118.142 L35.3478,-119.848 L34.2496,-121.243 L36.0246,-121.284 L36.9606,-122.774 Z M47.4365,-120.853 L47.9965,-119.185 L49.7121,-118.727 L48.317,-117.629 L48.4416,-115.844 L46.9615,-116.863 L45.2834,-116.22 L45.8237,-117.926 L44.6424,-119.331 L46.4174,-119.373 L47.4365,-120.853 Z M-17.4558,-77.7531 L-19.3971,-77.7314 L-18.2256,-76.2433 L-18.7857,-74.3714 L-16.9315,-75.0778 L-15.3781,-73.9656 L-15.483,-75.9168 L-13.9118,-77.0783 L-15.7936,-77.5552 L-16.4169,-79.3995 L-17.4558,-77.7531 Z M16.0969,-67.1836 L14.3219,-67.1421 L15.4201,-65.747 L14.8799,-64.0413 L16.5579,-64.6844 L18.038,-63.6653 L17.9134,-65.4502 L19.3916,-66.5385 L17.676,-66.9956 L17.0329,-68.6737 L16.0969,-67.1836 Z M4.77816,-74.7687 L2.99326,-74.644 L4.18449,-73.3222 L3.64424,-71.6164 L5.32229,-72.2595 L6.80243,-71.2404 L6.6778,-73.0253 L8.06299,-74.0404 L6.35726,-74.5807 L5.79728,-76.2488 L4.77816,-74.7687 Z M49.1039,-82.4714 L47.3289,-82.4299 L48.4271,-81.0348 L47.8869,-79.3291 L49.5649,-79.9722 L51.0451,-78.953 L50.9205,-80.7379 L52.3987,-81.8263 L50.683,-82.2834 L50.0399,-83.9615 L49.1039,-82.4714 Z M-15.5596,-108.546 L-17.3346,-108.504 L-16.2363,-107.109 L-16.6935,-105.393 L-15.0154,-106.036 L-13.5353,-105.017 L-13.6599,-106.802 L-12.2648,-107.9 L-13.9805,-108.358 L-14.5404,-110.026 L-15.5596,-108.546 Z M-16.3508,-126.678 L-15.7908,-125.009 L-14.0752,-124.552 L-15.4702,-123.454 L-15.4287,-121.679 L-16.8258,-122.688 L-18.5038,-122.045 L-18.0467,-123.761 L-19.1449,-125.156 L-17.3699,-125.197 L-16.3508,-126.678 Z M38.2461,-80.477 L36.4711,-80.4354 L37.5693,-79.0403 L37.0291,-77.3346 L38.7071,-77.9777 L40.1872,-76.9586 L40.0626,-78.7435 L41.5408,-79.8318 L39.8252,-80.2889 L39.1821,-81.967 L38.2461,-80.477 Z M38.1713,-100.378 L36.6555,-100.39 L37.6073,-99.1808 L37.1798,-97.7145 L38.5887,-98.2211 L39.8393,-97.3978 L39.7681,-98.9235 L40.9772,-99.8753 L39.501,-100.22 L39.0044,-101.712 L38.1713,-100.378 Z M-25.4439,-103.401 L-28.3191,-103.322 L-26.4788,-101.08 L-27.3239,-98.2302 L-24.5792,-99.3363 L-22.2541,-97.6265 L-22.3233,-100.585 L-20.0912,-102.342 L-22.8675,-103.094 L-23.8073,-105.819 L-25.4439,-103.401 Z " fill="#a9ebfa" fill-opacity="1.00" />			<path d="M73.7294,-64.2339 L77.5102,-62.0511 L78.3614,-63.5255 L74.5807,-65.7083 L73.7294,-64.2339 Z M77.3932,-60.1022 L71.344,-63.5947 C70.0964,-64.315 68.5081,-63.9214 67.7878,-62.6737 L56.59,-43.2787 C55.8915,-42.0688 56.3229,-40.4587 57.5706,-39.7384 L90.8409,-20.5297 C92.0885,-19.8094 93.6768,-20.203 94.3972,-21.4507 L105.595,-40.8458 C106.293,-42.0556 105.862,-43.6657 104.614,-44.3861 L98.5652,-47.8785 C97.3176,-48.5989 96.3669,-50.3575 96.4329,-51.7814 L96.4679,-52.366 C96.5338,-53.7898 95.5832,-55.5485 94.3356,-56.2688 L86.7742,-60.6344 C85.5265,-61.3547 83.5282,-61.2987 82.3281,-60.5297 L81.8393,-60.207 C80.6392,-59.438 78.6408,-59.3819 77.3932,-60.1022 Z M97.6336,-45.3918 C98.2763,-45.0208 98.484,-44.2455 98.113,-43.6028 C97.7419,-42.9601 96.9288,-42.7742 96.3239,-43.1234 C95.6812,-43.4945 95.4953,-44.3075 95.8445,-44.9125 C96.2156,-45.5552 96.9909,-45.7629 97.6336,-45.3918 Z M86.6695,-51.7219 C91.6979,-48.8188 93.4295,-42.4757 90.57,-37.5229 C87.7105,-32.5702 81.3514,-30.8982 76.323,-33.8013 C71.2947,-36.7045 69.5631,-43.0476 72.4226,-48.0004 C75.282,-52.9531 81.6412,-54.6251 86.6695,-51.7219 Z M85.3817,-49.4913 C89.1246,-47.3304 90.4625,-42.5755 88.3016,-38.8326 C86.1406,-35.0897 81.3538,-33.871 77.6109,-36.032 C73.868,-38.1929 72.5518,-42.9856 74.691,-46.6907 C76.8301,-50.3958 81.6387,-51.6523 85.3817,-49.4913 Z " fill="#ffffff" fill-opacity="1.00" />			<path d="M-60.2893,25.2986 C-59.2197,23.4459 -59.869,21.0225 -61.7217,19.9528 L-74.1483,12.7783 L-75.0096,-11.8191 L-79.5284,-14.428 L-84.3156,6.90823 L-96.7422,-0.266284 L-97.5224,-6.74174 L-100.911,-8.69843 L-103.218,0.513881 L-110.043,7.11728 L-106.654,9.07396 L-100.656,6.51188 L-88.2289,13.6864 L-104.313,28.5003 L-99.7943,31.1093 L-78.0617,19.5565 L-65.6351,26.731 C-63.7824,27.8006 -61.359,27.1513 -60.2893,25.2986 Z " fill="#a9ebfa" fill-opacity="1.00" />			<path d="M-1.08758,83.532 C3.28181,84.7378 7.79924,82.1373 8.99291,77.812 C10.9905,70.5738 7.34791,61.3991 5.09444,56.3125 C6.59717,65.3242 -4.55416,65.2865 -6.80752,73.4515 C-8.01337,77.8209 -5.41283,82.3383 -1.08758,83.532 Z M4.76326,64.913 C6.20725,68.1139 8.35869,73.7423 7.14066,78.1558 C6.39766,80.848 3.59406,82.4017 0.945946,81.6708 C-1.70217,80.94 -3.29992,78.1242 -2.5691,75.4761 C-1.2049,70.533 5.70628,70.4454 4.76326,64.913 Z M11.47,97.9218 L5.19408,92.4376 L13.3945,90.9484 C15.4477,90.5651 16.7263,88.6857 16.3552,86.5884 C15.9719,84.5352 14.0924,83.2566 11.9951,83.6277 L-1.88689,86.2562 L-12.5122,76.9118 C-14.0781,75.5297 -16.4158,75.7395 -17.7736,77.2171 C-19.1557,78.7831 -18.9459,81.1208 -17.4682,82.4785 L-11.1923,87.9628 L-19.3927,89.4519 C-21.4459,89.8352 -22.7245,91.7147 -22.3534,93.812 C-21.9701,95.8651 -20.0906,97.1438 -17.9933,96.7726 L-4.07935,94.2005 L6.60223,103.513 C8.16817,104.895 10.5059,104.685 11.8636,103.208 C13.2138,101.585 12.9918,99.2917 11.47,97.9218 Z " fill="#a9ebfa" fill-opacity="1.00" />			<path d="M-70.315,68.2283 C-71.3902,68.3721 -72.3986,68.7499 -73.3695,69.3104 C-75.9246,70.7856 -77.5888,73.4498 -77.7805,76.4222 C-77.7863,76.7662 -78.0044,77.0966 -78.311,77.2736 C-78.4643,77.3621 -78.6982,77.429 -78.9105,77.4153 C-79.4669,77.3958 -79.8936,76.8927 -79.9036,76.2853 C-79.6198,72.6465 -77.5705,69.3511 -74.4021,67.5219 C-74.0444,67.3154 -73.6867,67.1088 -73.3506,66.9829 C-76.0349,64.1038 -80.4445,63.3111 -84.0216,65.3763 C-88.1608,67.7661 -89.5863,73.0861 -87.1965,77.2253 C-87.167,77.2764 -87.1375,77.3275 -87.1375,77.3275 C-90.3095,79.9765 -91.2477,84.6063 -89.0939,88.3367 C-86.7041,92.476 -81.3841,93.9014 -77.2449,91.5116 C-74.6387,90.007 -73.1573,87.3802 -72.8987,84.6417 C-70.3683,85.8381 -67.3823,85.8174 -64.7761,84.3128 C-60.6368,81.923 -59.2113,76.603 -61.6011,72.4638 C-63.4304,69.2955 -66.9064,67.7593 -70.315,68.2283 Z M-63.146,85.4839 C-63.4015,85.6314 -63.6275,85.83 -63.8319,85.948 C-65.876,87.1282 -68.2014,87.585 -70.4937,87.2731 C-71.0284,87.1731 -71.5905,87.4976 -71.7712,88.0107 C-72.6473,90.1518 -74.2056,91.9373 -76.2497,93.1174 C-76.5052,93.2649 -76.7607,93.4124 -76.9946,93.4793 C-77.5862,93.7528 -77.7,94.4998 -77.2222,94.9734 L-55.0743,116.459 C-54.6259,116.881 -53.9105,116.468 -54.0523,115.869 L-61.585,85.9453 C-61.8585,85.3537 -62.6134,85.1082 -63.146,85.4839 Z " fill="#ffffff" fill-opacity="1.00" />			<path d="M-74.846,-91.359 C-74.2746,-91.6889 -73.8372,-92.0107 -73.8971,-92.1146 L-78.1255,-99.4383 C-78.2454,-99.646 -78.2615,-99.9138 -78.2476,-100.13 L-76.9743,-104.881 C-76.9743,-104.881 -76.9743,-104.881 -76.9743,-104.881 C-76.9523,-104.963 -77.452,-105.229 -78.0774,-105.353 C-78.7328,-105.528 -79.2463,-105.578 -79.3202,-105.466 C-79.3202,-105.466 -79.3202,-105.466 -79.3202,-105.466 L-80.835,-99.813 C-80.9008,-99.5673 -80.8328,-99.3295 -80.7129,-99.1217 L-75.9748,-90.9151 C-75.9148,-90.8112 -75.4173,-91.0292 -74.846,-91.359 Z M-64.3218,-96.8811 C-64.6217,-97.4006 -68.6233,-95.575 -73.6176,-92.83 L-73.3777,-92.4145 C-73.0179,-91.7912 -73.7151,-91.3194 -74.5461,-90.8396 C-75.3772,-90.3598 -76.1643,-90.0439 -76.4942,-90.6152 L-76.7341,-91.0308 C-81.6385,-88.13 -85.1902,-85.5253 -84.8904,-85.0059 L-84.4084,-83.6913 C-84.0485,-83.068 -79.0221,-85.2775 -73.2047,-88.6362 C-67.3873,-91.9948 -62.9606,-95.2431 -63.3205,-95.8664 L-64.3218,-96.8811 Z M-72.357,-87.048 C-75.2137,-85.3986 -77.9746,-83.9431 -80.2022,-83.0033 C-80.9074,-82.6654 -81.6426,-82.3795 -82.4078,-82.1454 L-62.317,-50.9457 C-61.4773,-49.4913 -57.2337,-50.4178 -52.7668,-52.9968 C-48.2999,-55.5758 -45.3757,-58.7876 -46.2154,-60.242 L-63.1897,-93.241 C-63.775,-92.6953 -64.4202,-92.2535 -65.0355,-91.7598 C-66.8593,-90.3606 -69.5002,-88.6973 -72.357,-87.048 Z M-53.8302,-72.9514 L-51.1511,-67.7112 C-50.4913,-66.5686 -53.3577,-63.7363 -57.5129,-61.3373 C-61.6682,-58.9383 -65.5541,-57.872 -66.2139,-59.0147 L-69.4124,-63.955 C-69.4724,-64.0589 -69.4285,-64.2227 -69.2646,-64.1788 C-67.9918,-64.0134 -64.6274,-65.2633 -60.9915,-67.3624 C-57.3557,-69.4616 -54.5911,-71.7503 -54.0979,-72.9353 C-54.054,-73.0992 -53.8901,-73.0553 -53.8302,-72.9514 Z " fill="#dce9eb" fill-opacity="1.00" />			<path d="M-3.01171,-20.1711 L-39.3364,-20.1711 C-40.7592,-20.1711 -41.8473,-19.083 -41.8473,-17.6602 L-41.8473,10.6296 C-41.8473,12.0524 -40.7592,13.1405 -39.3364,13.1405 L-3.01171,13.1405 C-1.58885,13.1405 -0.500785,12.0524 -0.500785,10.6296 L-0.500785,-17.6602 C-0.500785,-19.083 -1.67255,-20.1711 -3.01171,-20.1711 Z M23.7715,4.26857 C23.353,3.93378 23.353,3.2642 23.7715,2.84571 L41.5153,-11.4665 C42.1849,-12.0524 41.7664,-13.1405 40.9294,-13.1405 L4.93955,-13.1405 C3.43299,-13.1405 2.17753,-11.885 2.17753,-10.3785 L2.17753,17.4091 C2.17753,18.9156 3.43299,20.1711 4.93955,20.1711 L40.9294,20.1711 C41.7664,20.1711 42.1849,19.083 41.5153,18.4971 L23.7715,4.26857 Z " fill="#ffffff" fill-opacity="1.00" />			<path d="M63.4514,44.2859 L85.7248,44.2859 C89.4233,41.9207 92.3214,38.4134 93.9207,34.2603 L55.2555,34.2603 C56.8548,38.4134 59.7528,41.9207 63.4514,44.2859 Z M83.7836,37.2281 C84.3484,37.2281 84.8062,37.6859 84.8062,38.2506 C84.8062,38.8153 84.3484,39.2731 83.7836,39.2731 C83.2189,39.2731 82.7611,38.8153 82.7611,38.2506 C82.7611,37.6859 83.2189,37.2281 83.7836,37.2281 Z M77.6533,37.2281 C78.218,37.2281 78.6758,37.6859 78.6758,38.2506 C78.6758,38.8153 78.218,39.2731 77.6533,39.2731 C77.0885,39.2731 76.6308,38.8153 76.6308,38.2506 C76.6308,37.6859 77.0885,37.2281 77.6533,37.2281 Z M71.5229,37.2281 C72.0877,37.2281 72.5454,37.6859 72.5454,38.2506 C72.5454,38.8153 72.0877,39.2731 71.5229,39.2731 C70.9582,39.2731 70.5003,38.8153 70.5003,38.2506 C70.5003,37.6859 70.9582,37.2281 71.5229,37.2281 Z M65.3925,37.2281 C65.9572,37.2281 66.4151,37.6859 66.4151,38.2506 C66.4151,38.8153 65.9572,39.2731 65.3925,39.2731 C64.8277,39.2731 64.37,38.8153 64.37,38.2506 C64.37,37.6859 64.8277,37.2281 65.3925,37.2281 Z M78.8731,9.20672 L55.8968,32.183 L78.8731,32.183 L78.8731,9.20672 Z M81.0431,19.1343 L81.0431,32.183 L94.0918,32.183 L81.0431,19.1343 Z " fill="#a9ebfa" fill-opacity="1.00" />			<path d="M-138.503,-39.8755 C-138.503,-39.8755 -128.713,-30.086 -128.713,-30.086 L-122.187,-36.6123 L-105.842,-36.6123 L-131.976,-62.747 L-131.976,-46.4018 L-138.503,-39.8755 Z M-111.545,-57.0144 C-114.426,-59.8954 -118.6,-60.7186 -122.216,-59.5133 L-109.075,-46.3724 C-107.841,-49.9589 -108.664,-54.1335 -111.545,-57.0144 Z M-129.948,-67.2449 L-126.567,-63.8642 C-120.423,-67.1861 -112.633,-66.2748 -107.429,-61.0714 C-102.226,-55.8679 -101.314,-48.0775 -104.636,-41.9333 L-101.256,-38.5526 C-96.1991,-46.6076 -97.1399,-57.3084 -104.137,-64.3051 C-111.133,-71.3018 -121.922,-72.3308 -129.948,-67.2449 Z " fill="#a9ebfa" fill-opacity="1.00" />		</g>	</svg>