<?xml version="1.0" encoding="utf-8" ?>	<!-- Generator: Assembly 2.4 - http://assemblyapp.co -->	<svg version="1.1" xmlns="http://www.w3.org/2000/svg" xmlns:xlink="http://www.w3.org/1999/xlink" width="4096.00" height="4096.00" viewBox="0 0 4096.0 4096.0">		<g id="document" transform="scale(13.653333333333334 13.653333333333334) translate(150.0 150.0)">			<path d="M63.5628,149.253 C111.036,149.253 149.253,111.036 149.253,63.5628 L149.253,-63.9278 C149.253,-111.401 110.737,-149.618 63.5628,-149.618 L-63.9278,-149.618 C-111.401,-149.618 -149.618,-111.102 -149.618,-63.9278 L-149.618,63.5628 C-149.618,111.036 -111.102,149.253 -63.9278,149.253 L63.5628,149.253 Z " fill="#e8ddcb" fill-opacity="1.00" />			<path d="M-55.8719,13.4541 L-118.105,13.4541 L-122.688,22.4713 L-51.2155,22.4713 L-55.8719,13.4541 Z M-94.7492,20.3278 L-92.8275,16.7062 L-80.9278,16.7062 L-79.2279,20.3278 L-94.7492,20.3278 Z M-56.9806,11.3846 C-56.9806,11.3107 -56.9806,11.3107 -56.9806,11.2368 C-56.9806,11.1628 -56.9806,11.1628 -56.9806,11.0889 L-56.9806,-26.1623 C-56.9806,-27.1232 -57.7197,-27.8623 -58.6805,-27.8623 L-115.37,-27.8623 C-116.331,-27.8623 -117.07,-27.1232 -117.07,-26.1623 L-117.07,11.0889 C-117.07,11.1628 -117.07,11.1628 -117.07,11.2368 C-117.07,11.3107 -117.07,11.3107 -117.07,11.3846 L-56.9806,11.3846 Z M-61.1935,8.50204 L-112.71,8.50204 L-112.71,-23.6493 L-61.1935,-23.6493 L-61.1935,8.50204 Z M-50.1808,24.5408 L-123.722,24.5408 L-123.944,24.9103 C-123.944,25.8712 -123.205,27.4972 -122.244,27.4972 L-51.7329,27.4972 C-50.772,27.4972 -50.0329,25.8712 -50.0329,24.9103 L-50.1808,24.5408 Z " fill="#da4620" fill-opacity="1.00" />			<path d="M11.443,-27.6797 L-11.808,-27.6797 C-14.0224,-27.6797 -15.8493,-25.8529 -15.8493,-23.6385 L-15.8493,23.6385 C-15.8493,25.8529 -14.0224,27.6797 -11.808,27.6797 L11.443,27.6797 C13.6573,27.6797 15.4842,25.8529 15.4842,23.6385 L15.4842,-23.6385 C15.4842,-25.8529 13.7127,-27.6797 11.443,-27.6797 Z M-2.83978,-24.2475 L2.41937,-24.2475 L2.41937,-22.4759 L-2.83978,-22.4759 L-2.83978,-24.2475 Z M-0.182524,25.5761 C-1.62187,25.5761 -2.72906,24.4135 -2.72906,23.0295 C-2.72906,21.5902 -1.56651,20.483 -0.182524,20.483 C1.25682,20.483 2.36401,21.6456 2.36401,23.0295 C2.36401,24.4135 1.25682,25.5761 -0.182524,25.5761 Z M12.4948,18.8222 L-12.8045,18.8222 L-12.8045,-18.8222 L12.4948,-18.8222 L12.4948,18.8222 Z " fill="#f58231" fill-opacity="1.00" />			<path d="M57.5576,-127.248 L19.3424,-127.248 C18.181,-127.248 17.1855,-126.308 17.1855,-125.091 L17.1855,-74.0454 C17.1855,-72.884 18.1257,-71.8885 19.3424,-71.8885 L57.5576,-71.8885 C58.719,-71.8885 59.7145,-72.8287 59.7145,-74.0454 L59.7145,-125.091 C59.7145,-126.308 58.7743,-127.248 57.5576,-127.248 Z M38.4777,-72.8287 C37.7034,-72.8287 37.095,-73.437 37.095,-74.2113 C37.095,-74.9856 37.7034,-75.5939 38.4777,-75.5939 C39.2519,-75.5939 39.8603,-74.9856 39.8603,-74.2113 C39.8603,-73.437 39.2519,-72.8287 38.4777,-72.8287 Z M55.8432,-76.7553 L21.1121,-76.7553 L21.1121,-122.437 L55.8432,-122.437 L55.8432,-76.7553 Z " fill="#79bd9a" fill-opacity="1.00" />			<path d="M90.5365,60.804 C90.3885,60.1382 90.3145,59.4723 90.1665,58.8064 L72.4841,58.8064 C72.3361,60.0642 72.0402,61.5439 71.5223,62.8016 C71.0044,64.1334 70.3385,65.3171 69.3767,66.205 C68.4149,67.0188 67.2311,67.6107 65.5295,67.6107 L65.5295,69.1644 L97.0472,69.1644 L97.0472,67.6107 C95.3455,67.6107 94.1617,67.0928 93.1999,66.205 C91.8682,64.9472 90.9804,62.8756 90.5365,60.804 Z M116.283,5.01922 L46.5153,5.01922 C45.3315,5.01922 44.4437,5.98102 44.4437,7.0908 L44.4437,52.9616 C44.4437,54.1454 45.4055,55.0332 46.5153,55.0332 L116.283,55.0332 C117.467,55.0332 118.355,54.0714 118.355,52.9616 L118.355,7.0908 C118.355,5.98102 117.393,5.01922 116.283,5.01922 Z M113.25,50.0022 L49.4747,50.0022 L49.4747,10.1242 L113.25,10.1242 L113.25,50.0022 Z " fill="#f8c027" fill-opacity="1.00" />			<path d="M-112.817,71.2196 L-106.34,64.8532 C-105.786,64.2996 -105.454,63.5246 -105.454,62.6942 L-105.454,50.4044 C-105.454,48.6883 -106.838,47.3043 -108.554,47.3043 L-120.844,47.3043 C-122.56,47.3043 -123.944,48.6883 -123.944,50.4044 C-123.944,79.2467 -100.582,102.664 -71.6848,102.664 C-69.9686,102.664 -68.5846,101.28 -68.5846,99.5636 L-68.5846,87.2738 C-68.5846,85.5577 -69.9686,84.1737 -71.6848,84.1737 L-83.9746,84.1737 C-84.805,84.1737 -85.58,84.5058 -86.1336,85.0594 L-92.5553,91.4811 C-101.247,87.0524 -108.388,79.911 -112.817,71.2196 Z " fill="#f58231" fill-opacity="1.00" />			<path d="M77.2595,-59.6536 L58.5043,-17.1247 L58.5043,-40.8983 L34.7306,-40.8983 L77.2595,-59.6536 Z " fill="#f58231" fill-opacity="1.00" />			<path d="M-85.2701,-92.2786 L-110.318,-92.2786 C-113.199,-92.2786 -115.915,-93.2207 -116.247,-94.329 C-116.635,-95.4373 -119.295,-96.3793 -122.176,-96.3793 L-130.101,-96.3793 C-132.982,-96.3793 -135.365,-93.9411 -135.365,-90.9487 L-135.365,-81.4727 L-135.365,-54.3194 L-135.365,-52.9895 C-135.365,-50.7729 -133.592,-48.9442 -131.431,-48.9442 L-83.9402,-48.9442 C-81.779,-48.9442 -80.0057,-50.7729 -80.0057,-52.9895 L-80.0057,-54.3194 L-80.0057,-81.4727 L-80.0057,-86.9034 C-80.0057,-89.8404 -82.3885,-92.2786 -85.2701,-92.2786 Z M-130.156,-93.664 L-122.232,-93.664 C-120.348,-93.664 -119.073,-93.2207 -118.574,-92.999 C-117.355,-90.5054 -113.476,-89.6187 -110.318,-89.6187 L-85.2701,-89.6187 C-83.8293,-89.6187 -82.6102,-88.3996 -82.6102,-86.9034 L-82.6102,-85.2964 C-82.9981,-85.4626 -83.4414,-85.5734 -83.9402,-85.5734 L-131.431,-85.5734 C-131.874,-85.5734 -132.317,-85.4626 -132.761,-85.2964 L-132.761,-90.9487 C-132.761,-92.4449 -131.597,-93.664 -130.156,-93.664 Z M-82.6656,-54.264 C-82.6656,-52.7678 -83.8293,-51.5487 -85.3255,-51.5487 L-130.212,-51.5487 C-131.652,-51.5487 -132.872,-52.7678 -132.872,-54.264 L-132.872,-81.4173 C-132.872,-82.1377 -132.262,-82.7473 -131.542,-82.7473 L-84.051,-82.7473 C-83.3306,-82.7473 -82.721,-82.1377 -82.721,-81.4173 L-82.721,-54.264 L-82.6656,-54.264 Z " fill="#f8c027" fill-opacity="1.00" />			<path d="M-2.18791,55.9951 L-44.7168,55.9951 C-47.6407,55.9951 -49.9798,58.3873 -49.9798,61.3112 L-50.0329,93.2079 C-50.0329,96.1317 -47.6407,98.524 -44.7168,98.524 L-2.18791,98.524 C0.735948,98.524 3.1282,96.1317 3.1282,93.2079 L3.1282,61.3112 C3.1282,58.3873 0.735948,55.9951 -2.18791,55.9951 Z M-2.18791,66.6273 L-23.4524,79.9176 L-44.7168,66.6273 L-44.7168,61.3112 L-23.4524,74.6015 L-2.18791,61.3112 L-2.18791,66.6273 Z " fill="#f8c027" fill-opacity="1.00" />			<path d="M-14.3988,-109.792 L-47.4768,-109.792 C-51.3989,-109.792 -54.565,-106.626 -54.565,-102.704 L-54.565,-88.5279 L-45.1141,-88.5279 L-45.1141,-79.0771 L-16.7615,-79.0771 L-16.7615,-88.5279 L-7.31062,-88.5279 L-7.31062,-102.704 C-7.31062,-106.626 -10.4767,-109.792 -14.3988,-109.792 Z M-21.4869,-83.8025 L-40.3887,-83.8025 L-40.3887,-95.6161 L-21.4869,-95.6161 L-21.4869,-83.8025 Z M-14.3988,-100.342 C-15.7219,-100.342 -16.7615,-101.381 -16.7615,-102.704 C-16.7615,-104.027 -15.7219,-105.067 -14.3988,-105.067 C-13.0756,-105.067 -12.0361,-104.027 -12.0361,-102.704 C-12.0361,-101.381 -13.0756,-100.342 -14.3988,-100.342 Z M-16.7615,-121.606 L-45.1141,-121.606 L-45.1141,-112.155 L-16.7615,-112.155 L-16.7615,-121.606 Z " fill="#f58231" fill-opacity="1.00" />			<path d="M43.5325,81.3993 C34.3776,81.3993 26.9302,88.8466 26.9302,98.0016 C26.9302,110.43 43.5325,128.834 43.5325,128.834 C43.5325,128.834 60.1348,110.43 60.1348,98.0016 C60.1348,88.8466 52.6875,81.3993 43.5325,81.3993 Z M43.5325,103.931 C40.2595,103.931 37.6031,101.275 37.6031,98.0016 C37.6031,94.7286 40.2595,92.0722 43.5325,92.0722 C46.8056,92.0722 49.4619,94.7286 49.4619,98.0016 C49.4619,101.275 46.8056,103.931 43.5325,103.931 Z " fill="#da4620" fill-opacity="1.00" />			<path d="M113.474,-107.429 C110.482,-110.454 106.328,-112.315 101.741,-112.315 C92.5672,-112.315 85.1552,-104.87 85.1552,-95.696 C85.1552,-86.5223 92.5672,-79.0771 101.741,-79.0771 C109.485,-79.0771 115.967,-84.3619 117.795,-91.5412 L113.474,-91.5412 C111.779,-86.6885 107.159,-83.2318 101.741,-83.2318 C94.8606,-83.2318 89.2767,-88.8157 89.2767,-95.696 C89.2767,-102.576 94.8606,-108.16 101.741,-108.16 C105.198,-108.16 108.255,-106.731 110.516,-104.471 L103.802,-97.7567 L118.36,-97.7567 L118.36,-112.315 L113.474,-107.429 Z " fill="#f8c027" fill-opacity="1.00" />			<path d="M110.059,-39.0279 C106.439,-39.0279 102.986,-36.7036 101.757,-33.4827 C100.529,-36.6704 97.0756,-39.0279 93.4563,-39.0279 C88.7745,-39.0279 85.1552,-35.475 85.1552,-30.7267 C85.1552,-24.285 91.5969,-18.7399 101.757,-9.50899 C111.918,-18.7399 118.36,-24.2518 118.36,-30.7267 C118.36,-35.475 114.74,-39.0279 110.059,-39.0279 Z " fill="#da4620" fill-opacity="1.00" />		</g>	</svg>