<?xml version="1.0" encoding="utf-8" ?>	<!-- Generator: Assembly 2.4 - http://assemblyapp.co -->	<svg version="1.1" xmlns="http://www.w3.org/2000/svg" xmlns:xlink="http://www.w3.org/1999/xlink" width="4096.00" height="4096.00" viewBox="0 0 4096.0 4096.0">		<g id="document" transform="scale(13.653333333333334 13.653333333333334) translate(150.0 150.0)">			<path d="M63.5628,149.253 C111.036,149.253 149.253,111.036 149.253,63.5628 L149.253,-63.9278 C149.253,-111.401 110.737,-149.618 63.5628,-149.618 L-63.9278,-149.618 C-111.401,-149.618 -149.618,-111.102 -149.618,-63.9278 L-149.618,63.5628 C-149.618,111.036 -111.102,149.253 -63.9278,149.253 L63.5628,149.253 Z " fill="#e4b5a4" fill-opacity="1.00" />			<path d="M31.1305,149.253 L47.7057,149.253 L47.7057,66.3773 L31.1305,66.3773 L31.1305,149.253 Z " fill="#f3f3f3" fill-opacity="1.00" />			<path d="M13.8517,115.371 C13.8517,103.874 23.1324,94.593 34.6294,94.593 L69.2587,94.593 L69.2587,80.7413 L34.6294,80.7413 C15.514,80.7413 7.10543e-15,96.2552 7.10543e-15,115.371 L7.10543e-15,150 L13.8517,150 L13.8517,115.371 Z " fill="#f8c027" fill-opacity="1.00" />			<path d="M6.12019,-150 L-7.73156,-150 L-7.73156,-80.7413 L6.12019,-80.7413 L6.12019,-150 Z M-49.2868,-150 L-63.1386,-150 L-63.1386,-80.7413 L-49.2868,-80.7413 L-49.2868,-150 Z " fill="#f8c027" fill-opacity="1.00" />			<path d="M-38.4155,-50.9368 L-18.6029,-50.9368 L-18.6029,-150 L-38.4155,-150 L-38.4155,-50.9368 Z " fill="#f8c027" fill-opacity="1.00" />			<path d="M51.3788,60.7821 L57.9169,60.7821 L57.9169,34.6294 L51.3788,34.6294 L51.3788,60.7821 Z M64.356,60.7821 L70.8942,60.7821 L70.8942,34.6294 L64.356,34.6294 L64.356,60.7821 Z M77.5315,60.7821 L84.0697,60.7821 L84.0697,34.6294 L77.5315,34.6294 L77.5315,60.7821 Z M90.5088,60.7821 L97.0469,60.7821 L97.0469,34.6294 L90.5088,34.6294 L90.5088,60.7821 Z M103.585,60.7821 L110.123,60.7821 L110.123,34.6294 L103.585,34.6294 L103.585,60.7821 Z M116.661,60.7821 L123.2,60.7821 L123.2,34.6294 L116.661,34.6294 L116.661,60.7821 Z M129.738,60.7821 L136.276,60.7821 L136.276,34.6294 L129.738,34.6294 L129.738,60.7821 Z M142.715,60.7821 L149.253,60.7821 L149.253,34.6294 L142.715,34.6294 L142.715,60.7821 Z " fill="#f58231" fill-opacity="1.00" />			<path d="M-13.6925,99.7216 L-13.6925,149.253 L6.12019,149.253 L6.12019,99.7216 C6.12019,72.3801 -16.07,50.19 -43.4114,50.19 L-43.4114,70.0026 C-26.9669,70.0026 -13.6925,83.2771 -13.6925,99.7216 Z " fill="#f58231" fill-opacity="1.00" />			<path d="M150,4.47024 C119.388,4.47024 94.593,-20.3244 94.593,-50.9368 L80.7413,-50.9368 C80.7413,-12.7059 111.769,18.322 150,18.322 L150,4.47024 Z M122.297,-50.9368 C122.297,-35.6306 134.694,-23.2333 150,-23.2333 L150,-9.38151 C127.075,-9.38151 108.445,-28.0121 108.445,-50.9368 L122.297,-50.9368 Z M136.148,-50.9368 L150,-50.9368 L150,-37.085 C142.382,-37.085 136.148,-43.3183 136.148,-50.9368 Z " fill="#f3f3f3" fill-opacity="1.00" />			<path d="M-8.75919,-40.878 L-48.2592,-40.878 C-64.6592,-40.878 -77.8592,-27.678 -77.8592,-11.278 C-77.8592,5.12199 -64.6592,18.322 -48.2592,18.322 L-8.75919,18.322 C7.64081,18.322 20.8408,5.12199 20.8408,-11.278 C20.8408,-27.578 7.64081,-40.878 -8.75919,-40.878 Z " fill="#f3f3f3" fill-opacity="1.00" />			<path d="M-70,149.253 L-50,149.253 C-50,94.0532 -94.8,49.2532 -150,49.2532 L-150,69.2532 C-105.8,69.2532 -70,105.053 -70,149.253 Z " fill="#f3f3f3" fill-opacity="1.00" />			<path d="M100.316,-64.7885 L65.6866,-64.7885 L65.6866,-50.9368 L100.316,-50.9368 C119.431,-50.9368 134.945,-66.4507 134.945,-85.5661 C134.945,-104.682 119.431,-120.196 100.316,-120.196 L65.6866,-120.196 L65.6866,-106.344 L100.316,-106.344 C111.813,-106.344 121.094,-97.0631 121.094,-85.5661 C121.094,-74.0692 111.813,-64.7885 100.316,-64.7885 Z " fill="#fffb8b" fill-opacity="1.00" />			<path d="M-82.4147,26.3074 C-84.6704,21.5856 -83.8583,15.8413 -79.9486,11.9315 C-76.0689,8.05183 -70.2945,7.20973 -65.5727,9.46536 L-59.4073,3.29996 C-67.5276,-2.11355 -78.6553,-1.2113 -85.8433,5.97665 C-93.0312,13.1646 -93.9335,24.2924 -88.52,32.4127 L-82.4147,26.3074 Z M-59.6178,15.4202 C-57.3622,20.142 -58.1742,25.8864 -62.084,29.7961 C-65.9637,33.6758 -71.7381,34.5179 -76.4599,32.2623 L-82.5952,38.3976 C-74.4749,43.8111 -63.3471,42.9089 -56.1592,35.7209 C-48.9712,28.533 -48.069,17.4052 -53.4825,9.28491 L-59.6178,15.4202 Z " fill="#fffb8b" fill-opacity="1.00" />			<path d="M-150,-28.9885 L-100.985,-28.9885 C-89.3617,-28.9885 -79.9789,-38.3714 -79.9789,-49.9949 C-79.9789,-61.6184 -89.3617,-71.0012 -100.985,-71.0012 L-150,-71.0012 L-150,-56.997 L-100.985,-56.997 C-97.134,-56.997 -93.9831,-53.846 -93.9831,-49.9949 C-93.9831,-46.1437 -97.134,-42.9928 -100.985,-42.9928 L-150,-42.9928 L-150,-28.9885 Z " fill="#fffb8b" fill-opacity="1.00" />			<path d="M33.854,-80.3595 L47.7057,-80.3595 L47.7057,-149.618 L33.854,-149.618 L33.854,-80.3595 Z " fill="#8ad4ff" fill-opacity="1.00" />			<path d="M33.9125,-16.3074 L47.6472,-16.3074 L47.6472,-84.9813 L33.9125,-84.9813 L33.9125,-16.3074 Z " fill="#8ad4ff" fill-opacity="1.00" />			<path d="M33.9709,23.059 L47.7057,23.059 L47.7057,-45.615 L33.9709,-45.615 L33.9709,23.059 Z " fill="#8ad4ff" fill-opacity="1.00" />			<path d="M108.984,84.2196 C108.984,71.2821 98.4844,60.7821 85.5469,60.7821 C72.6094,60.7821 62.1094,71.2821 62.1094,84.2196 C62.1094,97.1571 72.6094,107.657 85.5469,107.657 C98.4844,107.657 108.984,97.1571 108.984,84.2196 Z M85.5469,70.1571 C93.3281,70.1571 99.6094,76.4383 99.6094,84.2196 C99.6094,92.0008 93.3281,98.2821 85.5469,98.2821 C77.7656,98.2821 71.4844,92.0008 71.4844,84.2196 C71.4844,76.4383 77.7656,70.1571 85.5469,70.1571 Z " fill="#542237" fill-opacity="1.00" />			<path d="M-91.8435,-88.2242 L-63.1386,-88.2242 L-63.1386,-99.7062 L-91.8435,-99.7062 C-107.689,-99.7062 -120.549,-86.8464 -120.549,-71.0012 L-109.067,-71.0012 C-109.067,-80.5313 -101.374,-88.2242 -91.8435,-88.2242 Z " fill="#f3f3f3" fill-opacity="1.00" />			<path d="M-120.281,20.5431 L-120.281,70.0747 L-100.468,70.0747 L-100.468,20.5431 C-100.468,-6.79837 -122.659,-28.9885 -150,-28.9885 L-150,-9.17589 C-133.556,-9.17589 -120.281,4.09858 -120.281,20.5431 Z " fill="#f3f3f3" fill-opacity="1.00" />			<path d="M-50,-28.079 C-50,-30.3891 -48.1099,-32.2792 -45.7998,-32.2792 L-12.1978,-32.2792 C-9.88765,-32.2792 -7.99754,-30.3891 -7.99754,-28.079 C-7.99754,-25.7689 -9.88765,-23.8787 -12.1978,-23.8787 L-45.7998,-23.8787 C-48.1099,-23.8787 -50,-25.7689 -50,-28.079 Z M-45.7998,-7.07776 L-12.1978,-7.07776 C-9.88765,-7.07776 -7.99754,-8.96787 -7.99754,-11.278 C-7.99754,-13.5881 -9.88765,-15.4783 -12.1978,-15.4783 L-45.7998,-15.4783 C-48.1099,-15.4783 -50,-13.5881 -50,-11.278 C-50,-8.96787 -48.1099,-7.07776 -45.7998,-7.07776 Z M-45.7998,9.72322 L-12.1978,9.72322 C-9.88765,9.72322 -7.99754,7.83311 -7.99754,5.52297 C-7.99754,3.21284 -9.88765,1.32273 -12.1978,1.32273 L-45.7998,1.32273 C-48.1099,1.32273 -50,3.21284 -50,5.52297 C-50,7.83311 -48.1099,9.72322 -45.7998,9.72322 Z " fill="#542237" fill-opacity="1.00" />		</g>	</svg>