<?xml version="1.0" encoding="utf-8" ?>	<!-- Generator: Assembly 2.4 - http://assemblyapp.co -->	<svg version="1.1" xmlns="http://www.w3.org/2000/svg" xmlns:xlink="http://www.w3.org/1999/xlink" width="4096.00" height="4096.00" viewBox="0 0 4096.0 4096.0">		<g id="document" transform="scale(13.653333333333334 13.653333333333334) translate(150.0 150.0)">			<path d="M63.5628,149.253 C111.036,149.253 149.253,111.036 149.253,63.5628 L149.253,-63.9278 C149.253,-111.401 110.737,-149.618 63.5628,-149.618 L-63.9278,-149.618 C-111.401,-149.618 -149.618,-111.102 -149.618,-63.9278 L-149.618,63.5628 C-149.618,111.036 -111.102,149.253 -63.9278,149.253 L63.5628,149.253 Z " fill="#f8c027" fill-opacity="1.00" />			<path d="M-1.68897,48.6939 L-1.68897,97.5704 L17.8616,97.5704 L17.8616,48.6939 C17.8616,21.7141 -4.03504,-0.182524 -31.0148,-0.182524 L-31.0148,19.3681 C-14.7879,19.3681 -1.68897,32.4669 -1.68897,48.6939 Z " fill="#9abc45" fill-opacity="1.00" />			<path d="M-118.597,74.7627 L-118.597,128.581 L-64.7783,128.581 L-64.7783,74.7627 L-118.597,74.7627 Z M-102.473,123.188 L-113.258,123.188 L-113.258,112.403 L-102.473,112.403 L-102.473,123.188 Z M-102.473,107.065 L-113.258,107.065 L-113.258,96.2791 L-102.473,96.2791 L-102.473,107.065 Z M-102.473,90.8864 L-113.258,90.8864 L-113.258,80.101 L-102.473,80.101 L-102.473,90.8864 Z M-86.2948,123.188 L-97.0802,123.188 L-97.0802,112.403 L-86.2948,112.403 L-86.2948,123.188 Z M-86.2948,107.065 L-97.0802,107.065 L-97.0802,96.2791 L-86.2948,96.2791 L-86.2948,107.065 Z M-86.2948,90.8864 L-97.0802,90.8864 L-97.0802,80.101 L-86.2948,80.101 L-86.2948,90.8864 Z M-70.1711,123.188 L-80.9565,123.188 L-80.9565,112.403 L-70.1711,112.403 L-70.1711,123.188 Z M-70.1711,107.065 L-80.9565,107.065 L-80.9565,96.2791 L-70.1711,96.2791 L-70.1711,107.065 Z M-70.1711,90.8864 L-80.9565,90.8864 L-80.9565,80.101 L-70.1711,80.101 L-70.1711,90.8864 Z " fill="#24682c" fill-opacity="1.00" />			<path d="M2.74866,135.748 L-44.5202,135.748 C-48.2342,135.748 -51.2729,132.709 -51.2729,128.995 C-51.2729,125.281 -48.2342,122.242 -44.5202,122.242 L-17.5094,122.242 C-6.29995,122.242 2.74867,113.194 2.74867,101.984 C2.74867,90.7748 -6.29995,81.7262 -17.5094,81.7262 L-64.7783,81.7262 L-64.7783,95.2316 L-17.5094,95.2316 C-13.7954,95.2316 -10.7567,98.2703 -10.7567,101.984 C-10.7567,105.698 -13.7954,108.737 -17.5094,108.737 L-44.5202,108.737 C-55.7297,108.737 -64.7783,117.786 -64.7783,128.995 C-64.7783,140.205 -55.7297,149.253 -44.5202,149.253 L2.74866,149.253 L2.74866,135.748 Z " fill="#f58231" fill-opacity="1.00" />			<path d="M69.2532,18.9852 C69.2532,2.38516 82.6532,-11.0148 99.2532,-11.0148 L149.253,-11.0148 L149.253,-31.0148 L99.2532,-31.0148 C71.6532,-31.0148 49.2532,-8.61484 49.2532,18.9852 L49.2532,68.9852 L69.2532,68.9852 L69.2532,18.9852 Z " fill="#f58231" fill-opacity="1.00" />			<path d="M21.7289,101.672 L21.7289,149.123 L2.74867,149.123 L2.74867,101.672 C2.74867,75.4791 24.0066,54.2212 50.1993,54.2212 L50.1993,73.2015 C34.4457,73.2015 21.7289,85.9182 21.7289,101.672 Z " fill="#fffb8b" fill-opacity="1.00" />			<path d="M50.1993,100.534 C62.9962,100.534 73.3556,90.1743 73.3556,77.3774 C73.3556,64.5806 62.9962,54.2212 50.1993,54.2212 L50.1993,100.534 Z " fill="#da4620" fill-opacity="1.00" />			<path d="M-23.6953,-1.69864e-14 C-23.6953,-26.1928 -44.9532,-47.4507 -71.146,-47.4507 C-97.3388,-47.4507 -118.597,-26.1928 -118.597,-1.69864e-14 C-118.597,26.1928 -97.3388,47.4507 -71.146,47.4507 C-44.9532,47.4507 -23.6953,26.1928 -23.6953,-1.69864e-14 Z M-71.146,-28.4704 C-55.3924,-28.4704 -42.6756,-15.7536 -42.6756,-1.69864e-14 C-42.6756,15.7536 -55.3924,28.4704 -71.146,28.4704 C-86.8996,28.4704 -99.6164,15.7536 -99.6164,-1.69864e-14 C-99.6164,-15.7536 -86.8996,-28.4704 -71.146,-28.4704 Z " fill="#f58231" fill-opacity="1.00" />			<path d="M150,67.527 L150,54.0216 C138.791,54.0216 129.742,44.973 129.742,33.7635 C129.742,22.554 138.791,13.5054 150,13.5054 L150,0 C131.363,0 116.236,15.126 116.236,33.7635 C116.236,52.401 131.363,67.527 150,67.527 Z " fill="#fffb8b" fill-opacity="1.00" />			<path d="M111.917,117.667 C120.957,108.627 120.957,93.9539 111.917,84.9141 C102.878,75.8743 88.2043,75.8743 79.1646,84.9141 C70.1248,93.9539 70.1248,108.627 79.1646,117.667 C88.2043,126.707 102.878,126.707 111.917,117.667 Z M105.367,91.4647 C110.804,96.9016 110.804,105.679 105.367,111.116 C99.9299,116.553 91.1521,116.553 85.7151,111.116 C80.2782,105.679 80.2782,96.9016 85.7151,91.4647 C91.1521,86.0277 99.9299,86.0277 105.367,91.4647 Z " fill="#fffb8b" fill-opacity="1.00" />			<path d="M-71.146,-149.618 L-71.146,-143.279 L-45.7877,-143.279 L-45.7877,-149.618 L-71.146,-149.618 Z M-71.146,-137.035 L-71.146,-130.696 L-45.7877,-130.696 L-45.7877,-137.035 L-71.146,-137.035 Z M-71.146,-124.26 L-71.146,-117.92 L-45.7877,-117.92 L-45.7877,-124.26 L-71.146,-124.26 Z M-71.146,-111.677 L-71.146,-105.337 L-45.7877,-105.337 L-45.7877,-111.677 L-71.146,-111.677 Z M-71.146,-98.9978 L-71.146,-92.6582 L-45.7877,-92.6582 L-45.7877,-98.9978 L-71.146,-98.9978 Z M-71.146,-86.3186 L-71.146,-79.979 L-45.7877,-79.979 L-45.7877,-86.3186 L-71.146,-86.3186 Z M-71.146,-73.6395 L-71.146,-67.2999 L-45.7877,-67.2999 L-45.7877,-73.6395 L-71.146,-73.6395 Z M-71.146,-61.0565 L-71.146,-54.7169 L-45.7877,-54.7169 L-45.7877,-61.0565 L-71.146,-61.0565 Z " fill="#fffb8b" fill-opacity="1.00" />			<path d="M27.9774,-105.115 C27.9774,-91.5148 16.8774,-80.4148 3.27744,-80.4148 C-10.3226,-80.4148 -21.4226,-91.5148 -21.4226,-105.115 C-21.4226,-118.715 -10.3226,-129.815 3.27744,-129.815 C16.8774,-129.815 27.9774,-118.715 27.9774,-105.115 Z M52.6774,-129.815 C39.0774,-129.815 27.9774,-118.715 27.9774,-105.115 C27.9774,-91.5148 39.0774,-80.4148 52.6774,-80.4148 C66.2774,-80.4148 77.3774,-91.5148 77.3774,-105.115 C77.3774,-118.715 66.2774,-129.815 52.6774,-129.815 Z M3.27744,-80.4148 C-10.3226,-80.4148 -21.4226,-69.3148 -21.4226,-55.7148 C-21.4226,-42.1148 -10.3226,-31.0148 3.27744,-31.0148 C16.8774,-31.0148 27.9774,-42.1148 27.9774,-55.7148 C27.9774,-69.3148 16.8774,-80.4148 3.27744,-80.4148 Z M52.6774,-80.4148 C39.0774,-80.4148 27.9774,-69.3148 27.9774,-55.7148 C27.9774,-42.1148 39.0774,-31.0148 52.6774,-31.0148 C66.2774,-31.0148 77.3774,-42.1148 77.3774,-55.7148 C77.3774,-69.3148 66.2774,-80.4148 52.6774,-80.4148 Z " fill="#9abc45" fill-opacity="1.00" />			<path d="M50.1993,-149.618 L40.4241,-149.618 L40.4241,-100.742 L50.1993,-100.742 L50.1993,-149.618 Z M11.0982,-149.618 L1.32291,-149.618 L1.32291,-100.742 L11.0982,-100.742 L11.0982,-149.618 Z " fill="#9abc45" fill-opacity="1.00" />			<path d="M-110.639,-8.47096 L-110.639,-16.2669 L-149.618,-16.2669 L-149.618,-8.47096 L-110.639,-8.47096 Z M-110.639,-24.0628 L-110.639,-31.8588 L-149.618,-31.8588 L-149.618,-24.0629 L-110.639,-24.0628 Z M-110.639,-39.6547 L-110.639,-47.4507 L-149.618,-47.4507 L-149.618,-39.6547 L-110.639,-39.6547 Z " fill="#24682c" fill-opacity="1.00" />		</g>	</svg>