<?xml version="1.0" encoding="utf-8" ?>	<!-- Generator: Assembly 2.4 - http://assemblyapp.co -->	<svg version="1.1" xmlns="http://www.w3.org/2000/svg" xmlns:xlink="http://www.w3.org/1999/xlink" width="4096.00" height="4096.00" viewBox="0 0 4096.0 4096.0">		<g id="document" transform="scale(13.653333333333334 13.653333333333334) translate(150.0 150.0)">			<path d="M63.5628,149.253 C111.036,149.253 149.253,111.036 149.253,63.5628 L149.253,-63.9278 C149.253,-111.401 110.737,-149.618 63.5628,-149.618 L-63.9278,-149.618 C-111.401,-149.618 -149.618,-111.102 -149.618,-63.9278 L-149.618,63.5628 C-149.618,111.036 -111.102,149.253 -63.9278,149.253 L63.5628,149.253 Z " fill="#a9ebfa" fill-opacity="1.00" />			<path d="M15.5876,30.1819 C18.7204,21.3184 27.0491,15.0528 36.9824,15.0528 C46.8393,15.0528 55.2444,21.3184 58.3772,30.1819 L74.0413,30.1819 C70.6028,12.9897 55.3208,-1.16592e-06 37.0588,-1.16592e-06 C18.7969,-1.16592e-06 3.51486,12.9897 0.0764082,30.1819 L15.5876,30.1819 Z M58.3772,45.3111 C55.2444,54.1747 46.9157,60.4403 36.9824,60.4403 C27.1255,60.4403 18.7204,54.1747 15.5876,45.3111 L-5.82962e-07,45.3111 C3.43845,62.5034 18.7204,75.4931 36.9824,75.4931 C55.2444,75.4931 70.5264,62.5034 73.9649,45.3111 L58.3772,45.3111 Z " fill="#aaffc3" fill-opacity="1.00" />			<path d="M60.4581,-47.0575 L51.0831,-47.0575 L51.0831,-0.182524 L60.4581,-0.182524 L60.4581,-47.0575 Z M41.7081,-47.0575 L32.3331,-47.0575 L32.3331,-0.182524 L41.7081,-0.182524 L41.7081,-47.0575 Z M22.9581,-47.0575 L13.5831,-47.0575 L13.5831,-0.182524 L22.9581,-0.182524 L22.9581,-47.0575 Z " fill="#e1f9a4" fill-opacity="1.00" />			<path d="M4.57828,-150 L4.57828,-74.3012 C4.57828,-56.3497 19.0692,-41.8588 37.0206,-41.8588 C54.9721,-41.8588 69.463,-56.3497 69.463,-74.3012 L69.463,-150 L47.8348,-150 L47.8348,-74.3012 C47.8348,-68.3534 42.9684,-63.487 37.0206,-63.487 C31.0729,-63.487 26.2065,-68.3534 26.2065,-74.3012 L26.2065,-150 L4.57828,-150 Z " fill="#8ca5ff" fill-opacity="1.00" />			<path d="M149.253,-46.9024 L149.253,-62.424 C106.414,-62.424 71.6453,-27.6556 71.6453,15.1839 L87.1669,15.1839 C87.1669,-19.1188 114.951,-46.9024 149.253,-46.9024 Z " fill="#8ca5ff" fill-opacity="1.00" />			<path d="M75.8246,71.6453 L60.303,71.6453 L60.303,149.253 L75.8246,149.253 L75.8246,71.6453 Z M13.7383,71.6453 L-1.78333,71.6453 L-1.78333,149.253 L13.7383,149.253 L13.7383,71.6453 Z " fill="#8ca5ff" fill-opacity="1.00" />			<path d="M149.253,52.6839 C128.534,52.6839 111.753,35.9027 111.753,15.1839 L102.378,15.1839 C102.378,41.0589 123.378,62.0589 149.253,62.0589 L149.253,52.6839 Z M130.503,15.1839 C130.503,25.5433 138.894,33.9339 149.253,33.9339 L149.253,43.3089 C133.738,43.3089 121.128,30.6996 121.128,15.1839 L130.503,15.1839 Z M139.878,15.1839 L149.253,15.1839 L149.253,24.5589 C144.097,24.5589 139.878,20.3402 139.878,15.1839 Z " fill="#8ca5ff" fill-opacity="1.00" />			<path d="M-55.8303,28.2509 L-121.749,28.2509 C-126.928,28.2509 -131.166,24.0133 -131.166,18.8339 C-131.166,13.6546 -126.928,9.41697 -121.749,9.41697 L-84.0812,9.41697 C-68.449,9.41697 -55.8303,-3.20177 -55.8303,-18.8339 C-55.8303,-34.4661 -68.449,-47.0849 -84.0812,-47.0849 L-150,-47.0849 L-150,-28.2509 L-84.0812,-28.2509 C-78.9018,-28.2509 -74.6642,-24.0133 -74.6642,-18.8339 C-74.6642,-13.6546 -78.9019,-9.41697 -84.0812,-9.41697 L-121.749,-9.41697 C-137.381,-9.41697 -150,3.20177 -150,18.8339 C-150,34.4661 -137.381,47.0849 -121.749,47.0849 L-55.8303,47.0849 L-55.8303,28.2509 Z " fill="#8ca5ff" fill-opacity="1.00" />			<path d="M-93.0608,-75.3358 L-45.976,-75.3358 L-45.976,-94.1697 L-93.0608,-94.1697 C-119.052,-94.1697 -140.146,-73.0757 -140.146,-47.0849 L-121.312,-47.0849 C-121.312,-62.717 -108.693,-75.3358 -93.0608,-75.3358 Z " fill="#e1f9a4" fill-opacity="1.00" />			<path d="M8.7174,-85.9664 C8.7174,-103.875 -5.81678,-118.409 -23.725,-118.409 C-41.6331,-118.409 -56.1673,-103.875 -56.1673,-85.9664 C-56.1673,-68.0582 -41.6331,-53.5241 -23.725,-53.5241 C-5.81677,-53.5241 8.7174,-68.0582 8.7174,-85.9664 Z M-23.725,-105.432 C-12.9541,-105.432 -4.25954,-96.7373 -4.25954,-85.9664 C-4.25954,-75.1956 -12.9541,-66.501 -23.725,-66.501 C-34.4958,-66.501 -43.1904,-75.1956 -43.1904,-85.9664 C-43.1904,-96.7373 -34.4958,-105.432 -23.725,-105.432 Z " fill="#e1f9a4" fill-opacity="1.00" />			<path d="M101.905,-38.8867 L101.905,15.1839 L123.534,15.1839 L123.534,-38.8867 C123.534,-68.7336 99.31,-92.9572 69.463,-92.9572 L69.463,-71.329 C87.4144,-71.329 101.905,-56.8381 101.905,-38.8867 Z " fill="#aaffc3" fill-opacity="1.00" />			<path d="M-12.5001,-16.7379 L-12.5001,16.7379 L-25.8905,16.7379 L-25.8905,-16.7379 L-12.5001,-16.7379 Z M-32.5856,16.7379 L-32.5856,-16.7379 L-45.976,-16.7379 L-45.976,16.7379 L-32.5856,16.7379 Z " fill="#f58231" fill-opacity="1.00" />			<path d="M-29.7301,98.2148 C-29.7301,77.3672 -46.6499,60.4473 -67.4976,60.4473 C-88.3452,60.4473 -105.265,77.3672 -105.265,98.2148 C-105.265,119.063 -88.3452,135.982 -67.4976,135.982 C-46.6499,135.982 -29.7301,119.063 -29.7301,98.2148 Z M-67.4976,75.5543 C-54.9588,75.5543 -44.8371,85.676 -44.8371,98.2148 C-44.8371,110.754 -54.9588,120.875 -67.4976,120.875 C-80.0364,120.875 -90.1581,110.754 -90.1581,98.2148 C-90.1581,85.676 -80.0364,75.5543 -67.4976,75.5543 Z " fill="#ffffff" fill-opacity="1.00" />		</g>	</svg>