<?xml version="1.0" encoding="utf-8" ?>	<!-- Generator: Assembly 2.4 - http://assemblyapp.co -->	<svg version="1.1" xmlns="http://www.w3.org/2000/svg" xmlns:xlink="http://www.w3.org/1999/xlink" width="4096.00" height="4096.00" viewBox="0 0 4096.0 4096.0">		<g id="document" transform="scale(13.653333333333334 13.653333333333334) translate(150.0 150.0)">			<path d="M63.5628,149.253 C111.036,149.253 149.253,111.036 149.253,63.5628 L149.253,-63.9278 C149.253,-111.401 110.737,-149.618 63.5628,-149.618 L-63.9278,-149.618 C-111.401,-149.618 -149.618,-111.102 -149.618,-63.9278 L-149.618,63.5628 C-149.618,111.036 -111.102,149.253 -63.9278,149.253 L63.5628,149.253 Z " fill="#e1f9a4" fill-opacity="1.00" />			<path d="M79.5841,-85.8427 L79.5841,-54.8011 L92.0007,-54.8011 L92.0007,-85.8427 C92.0007,-102.978 78.0941,-116.884 60.9591,-116.884 L60.9591,-104.468 C71.2649,-104.468 79.5841,-96.1486 79.5841,-85.8427 Z " fill="#f4dd4c" fill-opacity="1.00" />			<path d="M60.9591,-105.098 L60.9591,-149.618 L16.4387,-149.618 L60.9591,-105.098 Z M16.4387,-105.098 L16.4387,-149.618 L-28.0818,-149.618 L16.4387,-105.098 Z M60.9591,-104.918 L16.4387,-104.918 L16.4387,-60.3971 L60.9591,-104.918 Z " fill="#509547" fill-opacity="1.00" />			<path d="M149.253,9.89272 L86.9246,9.89272 C72.1438,9.89272 60.2123,21.8242 60.2123,36.605 C60.2123,51.3858 72.1438,63.3173 86.9246,63.3173 L149.253,63.3173 L149.253,45.5091 L86.9246,45.5091 C82.0273,45.5091 78.0205,41.5022 78.0205,36.605 C78.0205,31.7077 82.0273,27.7009 86.9246,27.7009 L149.253,27.7009 L149.253,9.89272 Z " fill="#f4dd4c" fill-opacity="1.00" />			<path d="M77.3584,17.4153 C77.3584,0.601398 63.7124,-13.0446 46.8986,-13.0446 C30.0847,-13.0446 16.4387,0.601398 16.4387,17.4153 C16.4387,34.2291 30.0847,47.8751 46.8986,47.8751 C63.7124,47.8751 77.3584,34.2291 77.3584,17.4153 Z M46.8986,-0.860676 C57.0112,-0.860676 65.1745,7.30257 65.1745,17.4153 C65.1745,27.5279 57.0112,35.6912 46.8986,35.6912 C36.7859,35.6912 28.6226,27.5279 28.6226,17.4153 C28.6226,7.30257 36.7859,-0.860676 46.8986,-0.860676 Z " fill="#f8c027" fill-opacity="1.00" />			<path d="M139.801,-44.1137 L127.617,-44.1137 L127.617,16.8061 L139.801,16.8061 L139.801,-44.1137 Z M115.433,-44.1137 L103.249,-44.1137 L103.249,16.8061 L115.433,16.8061 L115.433,-44.1137 Z M91.0654,-44.1137 L78.8814,-44.1137 L78.8814,16.8061 L91.0654,16.8061 L91.0654,-44.1137 Z " fill="#f4dd4c" fill-opacity="1.00" />			<path d="M95.0978,-38.735 L149.253,-38.735 L149.253,-60.3971 L95.0978,-60.3971 C65.2041,-60.3971 40.9424,-36.1355 40.9424,-6.24174 L62.6046,-6.24174 C62.6046,-24.2213 77.1182,-38.735 95.0978,-38.735 Z " fill="#f8c027" fill-opacity="1.00" />			<path d="M-119.291,-74.5478 C-119.291,-101.474 -97.4822,-123.284 -70.5556,-123.284 L-70.5556,-135.468 C-104.183,-135.468 -131.475,-108.176 -131.475,-74.5478 L-119.291,-74.5478 Z M-70.5556,-98.9157 C-84.0189,-98.9157 -94.9235,-88.0111 -94.9235,-74.5478 L-107.107,-74.5478 C-107.107,-94.7122 -90.7201,-111.1 -70.5556,-111.1 L-70.5556,-98.9157 Z M-70.5556,-86.7318 L-70.5556,-74.5478 L-82.7396,-74.5478 C-82.7396,-81.249 -77.2568,-86.7318 -70.5556,-86.7318 Z " fill="#f4dd4c" fill-opacity="1.00" />			<path d="M-61.002,-64.4831 L-43.9749,-64.4831 L-43.9749,-149.618 L-61.002,-149.618 L-61.002,-64.4831 Z " fill="#f4dd4c" fill-opacity="1.00" />			<path d="M-60.3173,2.79196 L-122.828,2.79197 C-127.74,2.79197 -131.758,-1.22657 -131.758,-6.13812 C-131.758,-11.0497 -127.74,-15.0682 -122.828,-15.0682 L-87.1076,-15.0682 C-72.2837,-15.0682 -60.3173,-27.0345 -60.3173,-41.8585 C-60.3173,-56.6824 -72.2837,-68.6488 -87.1076,-68.6488 L-149.618,-68.6488 L-149.618,-50.7886 L-87.1076,-50.7886 C-82.1961,-50.7886 -78.1775,-46.77 -78.1775,-41.8585 C-78.1775,-36.9469 -82.1961,-32.9284 -87.1076,-32.9284 L-122.828,-32.9284 C-137.652,-32.9284 -149.618,-20.9621 -149.618,-6.13812 C-149.618,8.68583 -137.652,20.6521 -122.828,20.6521 L-60.3173,20.6521 L-60.3173,2.79196 Z " fill="#f4dd4c" fill-opacity="1.00" />			<path d="M-61.002,20.6521 L-43.9749,20.6521 L-43.9749,-64.4831 L-61.002,-64.4831 L-61.002,20.6521 Z " fill="#f4dd4c" fill-opacity="1.00" />			<path d="M-42.1745,71.2016 C-42.1745,46.5264 -62.1497,26.5512 -86.8249,26.5512 C-111.5,26.5512 -131.475,46.5264 -131.475,71.2016 L-42.1745,71.2016 Z " fill="#509547" fill-opacity="1.00" />			<path d="M-131.475,77.1007 C-131.475,101.776 -111.5,121.751 -86.8249,121.751 C-62.1497,121.751 -42.1745,101.776 -42.1745,77.1007 L-131.475,77.1007 Z " fill="#509547" fill-opacity="1.00" />			<path d="M36.605,80.3443 L36.605,63.3173 C-10.3896,63.3173 -48.5302,101.458 -48.5302,148.452 L-31.5032,148.452 C-31.5032,110.823 -1.02477,80.3443 36.605,80.3443 Z " fill="#fffb8b" fill-opacity="1.00" />			<path d="M60.2123,103.802 L51.2822,103.802 L51.2822,148.452 L60.2123,148.452 L60.2123,103.802 Z M42.3521,103.802 L33.422,103.802 L33.422,148.452 L42.3521,148.452 L42.3521,103.802 Z M24.492,103.802 L15.5619,103.802 L15.5619,148.452 L24.492,148.452 L24.492,103.802 Z " fill="#dddddc" fill-opacity="1.00" />			<path d="M-20.1825,31.3512 L-0.182524,31.3512 L-0.182524,-68.6488 L-20.1825,-68.6488 L-20.1825,31.3512 Z " fill="#dddddc" fill-opacity="1.00" />		</g>	</svg>