<?xml version="1.0" encoding="utf-8" ?>	<!-- Generator: Assembly 2.4 - http://assemblyapp.co -->	<svg version="1.1" xmlns="http://www.w3.org/2000/svg" xmlns:xlink="http://www.w3.org/1999/xlink" width="4096.00" height="4096.00" viewBox="0 0 4096.0 4096.0">		<g id="document" transform="scale(13.653333333333334 13.653333333333334) translate(150.0 150.0)">			<path d="M63.5628,149.253 C111.036,149.253 149.253,111.036 149.253,63.5628 L149.253,-63.9278 C149.253,-111.401 110.737,-149.618 63.5628,-149.618 L-63.9278,-149.618 C-111.401,-149.618 -149.618,-111.102 -149.618,-63.9278 L-149.618,63.5628 C-149.618,111.036 -111.102,149.253 -63.9278,149.253 L63.5628,149.253 Z " fill="#375b93" fill-opacity="1.00" />			<path d="M-39.4122,-49.6183 L-59.4122,-49.6183 L-59.4122,-149.618 L-39.4122,-149.618 L-39.4122,-49.6183 Z " fill="#b4eff7" fill-opacity="1.00" />			<path d="M-27.8906,102.378 L-27.8906,135.191 C-27.8906,137.769 -30,139.878 -32.5781,139.878 C-35.1562,139.878 -37.2656,137.769 -37.2656,135.191 L-37.2656,116.441 C-37.2656,108.659 -43.5469,102.378 -51.3281,102.378 C-59.1094,102.378 -65.3906,108.659 -65.3906,116.441 L-65.3906,149.253 L-56.0156,149.253 L-56.0156,116.441 C-56.0156,113.863 -53.9062,111.753 -51.3281,111.753 C-48.75,111.753 -46.6406,113.863 -46.6406,116.441 L-46.6406,135.191 C-46.6406,142.972 -40.3594,149.253 -32.5781,149.253 C-24.7969,149.253 -18.5156,142.972 -18.5156,135.191 L-18.5156,102.378 L-27.8906,102.378 Z " fill="#ffffff" fill-opacity="1.00" />			<path d="M0,-0.182524 L-38.0054,-53.1815 C-47.6513,-46.2645 -54.8518,-37.1687 -59.4122,-27.0769 L0,-0.182524 Z " fill="#ffffff" fill-opacity="1.00" />			<path d="M22.5,-9.78261 C4.5,-9.78261 -10.1087,4.82609 -10.1087,22.8261 C-10.1087,40.8261 4.5,55.4348 22.5,55.4348 L55.1087,55.4348 L55.1087,22.8261 C55.1087,4.82609 40.5,-9.78261 22.5,-9.78261 Z M2.93478,22.8261 C2.93478,12 11.6739,3.26087 22.5,3.26087 C33.3261,3.26087 42.0652,12 42.0652,22.8261 C42.0652,33.6522 33.3261,42.3913 22.5,42.3913 C11.6739,42.3913 2.93478,33.6522 2.93478,22.8261 Z " fill="#ffffff" fill-opacity="1.00" />			<path d="M101.586,36.3179 L54.711,36.3179 L54.711,55.0679 L101.586,55.0679 C127.461,55.0679 148.461,34.0679 148.461,8.19293 L129.711,8.19293 C129.711,23.7554 117.148,36.3179 101.586,36.3179 Z " fill="#e2eca2" fill-opacity="1.00" />			<path d="M115.852,-40.138 L148.461,-40.138 L148.461,-53.1815 L115.852,-53.1815 C97.8523,-53.1815 83.2436,-38.5728 83.2436,-20.5728 C83.2436,-2.57283 97.8523,12.0359 115.852,12.0359 L148.461,12.0359 L148.461,-1.00761 L115.852,-1.00761 C105.026,-1.00761 96.287,-9.74674 96.287,-20.5728 C96.287,-31.3989 105.026,-40.138 115.852,-40.138 Z " fill="#e2eca2" fill-opacity="1.00" />			<path d="M112.772,-53.1815 L125.816,-53.1815 C125.816,-89.1815 96.5983,-118.399 60.5983,-118.399 L60.5983,-105.355 C89.4244,-105.355 112.772,-82.0076 112.772,-53.1815 Z " fill="#e29475" fill-opacity="1.00" />			<path d="M47.5548,-117.01 L47.5548,-84.4009 L60.5983,-84.4009 L60.5983,-117.01 C60.5983,-135.01 45.9896,-149.618 27.9896,-149.618 L27.9896,-136.575 C38.8157,-136.575 47.5548,-127.836 47.5548,-117.01 Z " fill="#e29475" fill-opacity="1.00" />			<path d="M87.7174,-53.1815 C87.7174,-71.1815 73.1087,-85.7902 55.1087,-85.7902 C37.1087,-85.7902 22.5,-71.1815 22.5,-53.1815 C22.5,-35.1815 37.1087,-20.5728 55.1087,-20.5728 C73.1087,-20.5728 87.7174,-35.1815 87.7174,-53.1815 Z M55.1087,-72.7467 C65.9348,-72.7467 74.6739,-64.0076 74.6739,-53.1815 C74.6739,-42.3554 65.9348,-33.6163 55.1087,-33.6163 C44.2826,-33.6163 35.5435,-42.3554 35.5435,-53.1815 C35.5435,-64.0076 44.2826,-72.7467 55.1087,-72.7467 Z " fill="#e29475" fill-opacity="1.00" />			<path d="M-10.1825,-50 L9.81748,-50 L9.81748,-150 L-10.1825,-150 L-10.1825,-50 Z " fill="#b4eff7" fill-opacity="1.00" />			<path d="M-119.618,-27.1739 L-119.618,22.8261 L-99.6183,22.8261 L-99.6183,-27.1739 C-99.6183,-54.7739 -122.018,-77.1739 -149.618,-77.1739 L-149.618,-57.1739 C-133.018,-57.1739 -119.618,-43.7739 -119.618,-27.1739 Z " fill="#b4eff7" fill-opacity="1.00" />			<path d="M24.5479,136.67 C20.961,136.67 18.0262,133.735 18.0262,130.148 L18.0262,77.9745 C18.0262,74.3876 20.961,71.4528 24.5479,71.4528 C28.1349,71.4528 31.0697,74.3876 31.0697,77.9745 L31.0697,130.148 C31.0697,133.735 28.1349,136.67 24.5479,136.67 Z M57.1566,130.148 L57.1566,77.9745 C57.1566,74.3876 54.2218,71.4528 50.6349,71.4528 C47.0479,71.4528 44.1131,74.3876 44.1131,77.9745 L44.1131,130.148 C44.1131,133.735 47.0479,136.67 50.6349,136.67 C54.2218,136.67 57.1566,133.735 57.1566,130.148 Z M83.2436,130.148 L83.2436,77.9745 C83.2436,74.3876 80.3088,71.4528 76.7218,71.4528 C73.1349,71.4528 70.2001,74.3876 70.2001,77.9745 L70.2001,130.148 C70.2001,133.735 73.1349,136.67 76.7218,136.67 C80.3088,136.67 83.2436,133.735 83.2436,130.148 Z " fill="#b4eff7" fill-opacity="1.00" />			<path d="M-150,22.8261 L-150,39.1114 L-68.5735,39.1114 L-68.5735,22.8261 L-150,22.8261 Z " fill="#e29475" fill-opacity="1.00" />			<path d="M-22.9127,30.9687 C-22.9127,16.341 -34.7845,4.46923 -49.4122,4.46923 C-64.0399,4.46923 -75.9117,16.341 -75.9117,30.9687 C-75.9117,45.5965 -64.0399,57.4682 -49.4122,57.4682 C-34.7845,57.4682 -22.9127,45.5965 -22.9127,30.9687 Z M-49.4122,15.069 C-40.6144,15.069 -33.5125,22.1709 -33.5125,30.9687 C-33.5125,39.7666 -40.6144,46.8684 -49.4122,46.8684 C-58.2101,46.8684 -65.3119,39.7666 -65.3119,30.9687 C-65.3119,22.1709 -58.2101,15.069 -49.4122,15.069 Z " fill="#e29475" fill-opacity="1.00" />			<path d="M-102.088,114.847 L-90.206,114.847 C-90.206,82.0515 -116.823,55.4348 -149.618,55.4348 L-149.618,67.3172 C-123.358,67.3172 -102.088,88.5868 -102.088,114.847 Z " fill="#e2eca2" fill-opacity="1.00" />			<path d="M-95.2565,-80.2517 L-76.5147,-98.9935 C-68.7333,-106.775 -68.7333,-119.301 -76.5147,-127.082 C-84.2961,-134.864 -96.8223,-134.864 -104.604,-127.082 L-123.345,-108.341 C-131.127,-100.559 -131.127,-88.0331 -123.345,-80.2517 C-115.611,-72.5178 -103.038,-72.4704 -95.2565,-80.2517 Z M-86.7159,-118.589 C-83.015,-115.932 -82.9676,-110.476 -86.7159,-107.676 C-88.9934,-106.063 -92.125,-106.063 -94.4024,-107.676 C-98.1033,-110.333 -98.1508,-115.79 -94.4024,-118.589 C-92.1724,-120.155 -88.946,-120.155 -86.7159,-118.589 Z M-105.505,-99.8001 C-101.804,-97.143 -101.757,-91.6866 -105.505,-88.8872 C-107.783,-87.274 -110.914,-87.274 -113.192,-88.8872 C-116.893,-91.5442 -116.94,-97.0007 -113.192,-99.8001 C-110.914,-101.413 -107.735,-101.366 -105.505,-99.8001 Z " fill="#e2eca2" fill-opacity="1.00" />		</g>	</svg>