<?xml version="1.0" encoding="utf-8" ?>	<!-- Generator: Assembly 2.4 - http://assemblyapp.co -->	<svg version="1.1" xmlns="http://www.w3.org/2000/svg" xmlns:xlink="http://www.w3.org/1999/xlink" width="4096.00" height="4096.00" viewBox="0 0 4096.0 4096.0">		<g id="document" transform="scale(13.653333333333334 13.653333333333334) translate(150.0 150.0)">			<path d="M63.5628,149.253 C111.036,149.253 149.253,111.036 149.253,63.5628 L149.253,-63.9278 C149.253,-111.401 110.737,-149.618 63.5628,-149.618 L-63.9278,-149.618 C-111.401,-149.618 -149.618,-111.102 -149.618,-63.9278 L-149.618,63.5628 C-149.618,111.036 -111.102,149.253 -63.9278,149.253 L63.5628,149.253 Z " fill="#ffa538" fill-opacity="1.00" />			<path d="M106.398,-83.087 C101.637,-87.8478 94.007,-87.8478 89.3113,-83.087 L59.1157,-52.8913 L59.1157,-38.2826 L65.8331,-45.0652 L65.8331,-52.1087 C65.8331,-53.087 66.6157,-53.8696 67.5939,-53.8696 C68.5722,-53.8696 69.3548,-53.087 69.3548,-52.1087 L69.3548,-48.5217 L75.42,-54.587 L75.42,-61.7609 C75.42,-62.7391 76.2026,-63.5217 77.1809,-63.5217 C78.1592,-63.5217 78.9418,-62.7391 78.9418,-61.7609 L78.9418,-58.1087 L85.007,-64.1739 C85.007,-64.2391 85.007,-64.2391 85.007,-64.3043 L85.007,-71.4783 C85.007,-72.4565 85.7896,-73.2391 86.7679,-73.2391 C87.7461,-73.2391 88.5287,-72.4565 88.5287,-71.4783 L88.5287,-67.7609 L92.3766,-71.6087 C93.0939,-72.3261 94.2026,-72.3261 94.8548,-71.6087 C95.5722,-70.8913 95.5722,-69.7826 94.8548,-69.1304 L91.2026,-65.4783 L94.7896,-65.4783 C95.7679,-65.4783 96.5505,-64.6957 96.5505,-63.7174 C96.5505,-62.7391 95.7679,-61.9565 94.7896,-61.9565 L87.6809,-61.9565 L81.7461,-55.8913 L85.2026,-55.8913 C86.1809,-55.8913 86.9635,-55.1087 86.9635,-54.1304 C86.9635,-53.1522 86.1809,-52.3696 85.2026,-52.3696 L78.2244,-52.3696 L72.1592,-46.3043 L75.4852,-46.3043 C76.4635,-46.3043 77.2461,-45.5217 77.2461,-44.5435 C77.2461,-43.5652 76.4635,-42.7826 75.4852,-42.7826 L68.7026,-42.7826 L61.7896,-35.8696 L76.3983,-35.8696 L106.594,-66.0652 C111.159,-70.6957 111.159,-78.3913 106.398,-83.087 Z " fill="#bde9b7" fill-opacity="1.00" />			<path d="M-104.697,59.207 C-106.44,65.7105 -102.625,72.3186 -96.1537,74.0048 L-54.9057,85.0571 L-42.2542,77.7528 L-51.4868,75.3267 L-57.5866,78.8484 C-58.4338,79.3375 -59.5029,79.0511 -59.992,78.2039 C-60.4812,77.3567 -60.1947,76.2876 -59.3475,75.7985 L-56.2411,74.005 L-64.5263,71.785 L-70.7391,75.3719 C-71.5863,75.8611 -72.6554,75.5746 -73.1445,74.7274 C-73.6337,73.8802 -73.3472,72.8111 -72.5,72.322 L-69.3371,70.4959 L-77.6224,68.2759 C-77.6789,68.3085 -77.6789,68.3085 -77.7353,68.3411 L-83.9481,71.9281 C-84.7953,72.4172 -85.8644,72.1308 -86.3535,71.2836 C-86.8426,70.4364 -86.5562,69.3673 -85.709,68.8782 L-82.4896,67.0195 L-87.7459,65.6111 C-88.7258,65.3485 -89.2802,64.3883 -88.985,63.4648 C-88.7224,62.4849 -87.7623,61.9305 -86.8388,62.2257 L-81.8498,63.5625 L-83.6433,60.4561 C-84.1324,59.6089 -83.8459,58.5398 -82.9987,58.0507 C-82.1516,57.5616 -81.0825,57.848 -80.5934,58.6952 L-77.039,64.8515 L-68.819,66.9586 L-70.5472,63.9652 C-71.0364,63.118 -70.7499,62.0489 -69.9027,61.5598 C-69.0555,61.0706 -67.9865,61.3571 -67.4973,62.2043 L-64.0082,68.2476 L-55.723,70.4677 L-57.386,67.5872 C-57.8751,66.74 -57.5887,65.6709 -56.7415,65.1818 C-55.8943,64.6927 -54.8252,64.9791 -54.3361,65.8263 L-50.9448,71.7002 L-41.5014,74.2306 L-48.8057,61.5791 L-90.0538,50.5267 C-96.3464,48.8883 -103.011,52.7362 -104.697,59.207 Z " fill="#bde9b7" fill-opacity="1.00" />			<path d="M123.402,106.791 C128.155,102.039 128.155,94.4219 123.402,89.7345 L93.26,59.5923 L78.6772,59.5923 L85.4478,66.2978 L92.4788,66.2978 C93.4553,66.2978 94.2366,67.0791 94.2366,68.0556 C94.2366,69.0321 93.4553,69.8133 92.4788,69.8133 L88.8982,69.8133 L94.9527,75.8678 L102.114,75.8678 C103.09,75.8678 103.872,76.6491 103.872,77.6256 C103.872,78.6021 103.09,79.3833 102.114,79.3833 L98.4682,79.3833 L104.523,85.4378 C104.588,85.4378 104.588,85.4378 104.653,85.4378 L111.814,85.4378 C112.791,85.4378 113.572,86.219 113.572,87.1956 C113.572,88.1721 112.791,88.9533 111.814,88.9533 L108.103,88.9533 L111.944,92.7943 C112.66,93.5105 112.66,94.6172 111.944,95.2682 C111.228,95.9843 110.121,95.9843 109.47,95.2682 L105.825,91.6225 L105.825,95.2031 C105.825,96.1796 105.043,96.9609 104.067,96.9609 C103.09,96.9609 102.309,96.1796 102.309,95.2031 L102.309,88.107 L96.2547,82.1827 L96.2547,85.6331 C96.2547,86.6097 95.4735,87.3909 94.497,87.3909 C93.5204,87.3909 92.7392,86.6097 92.7392,85.6331 L92.7392,78.6672 L86.6847,72.6127 L86.6847,75.9329 C86.6847,76.9095 85.9035,77.6907 84.927,77.6907 C83.9505,77.6907 83.1692,76.9095 83.1692,75.9329 L83.1692,69.1623 L76.2684,62.2615 L76.2684,76.8444 L106.411,106.987 C111.033,111.544 118.715,111.544 123.402,106.791 Z " fill="#bde9b7" fill-opacity="1.00" />			<path d="M-32.2056,-136.521 C-38.6975,-134.782 -42.506,-128.185 -40.7339,-121.75 L-29.7011,-80.5748 L-17.072,-73.2834 L-19.5828,-82.4758 L-25.6718,-85.9913 C-26.5175,-86.4796 -26.8035,-87.5468 -26.3152,-88.3925 C-25.8269,-89.2382 -24.7598,-89.5241 -23.9141,-89.0358 L-20.8132,-87.2455 L-23.0293,-95.5161 L-29.2311,-99.0967 C-30.0768,-99.585 -30.3627,-100.652 -29.8744,-101.498 C-29.3862,-102.344 -28.319,-102.629 -27.4733,-102.141 L-24.316,-100.318 L-26.5321,-108.589 C-26.5885,-108.622 -26.5885,-108.622 -26.6449,-108.654 L-32.8467,-112.235 C-33.6924,-112.723 -33.9783,-113.79 -33.4901,-114.636 C-33.0018,-115.481 -31.9346,-115.767 -31.0889,-115.279 L-27.8753,-113.424 L-29.2812,-118.671 C-29.5433,-119.649 -28.9899,-120.607 -28.0442,-120.813 C-27.066,-121.075 -26.1075,-120.522 -25.9018,-119.576 L-24.5674,-114.596 L-22.7771,-117.697 C-22.2888,-118.543 -21.2216,-118.829 -20.3759,-118.34 C-19.5302,-117.852 -19.2443,-116.785 -19.7326,-115.939 L-23.2806,-109.794 L-20.9994,-101.636 L-19.2742,-104.624 C-18.786,-105.47 -17.7188,-105.756 -16.8731,-105.267 C-16.0274,-104.779 -15.7414,-103.712 -16.2297,-102.866 L-19.7127,-96.8337 L-17.4966,-88.5631 L-15.8365,-91.4385 C-15.3482,-92.2842 -14.281,-92.5702 -13.4353,-92.0819 C-12.5896,-91.5936 -12.3037,-90.5265 -12.792,-89.6808 L-16.1773,-83.8172 L-13.6514,-74.3906 L-6.35996,-87.0197 L-17.3928,-128.195 C-19.1172,-134.452 -25.77,-138.293 -32.2056,-136.521 Z " fill="#bde9b7" fill-opacity="1.00" />			<path d="M-101.501,-54.501 L-83.9968,-59.2256 L-67.637,-49.7803 C-66.2162,-48.96 -64.4233,-49.4404 -63.603,-50.8612 C-62.7827,-52.282 -63.2631,-54.0749 -64.6839,-54.8952 L-81.003,-64.3171 L-85.7042,-81.862 C-86.116,-83.3988 -87.7804,-84.3597 -89.3171,-83.9479 C-90.1496,-83.7249 -90.7275,-83.1926 -91.0791,-82.5836 C-91.4307,-81.9747 -91.5855,-81.144 -91.3796,-80.3756 L-88.2055,-68.5296 L-95.1878,-72.5608 C-96.6087,-73.3812 -98.4016,-72.9007 -99.2219,-71.4799 C-100.042,-70.0591 -99.5618,-68.2662 -98.141,-67.4459 L-91.118,-63.3912 L-102.964,-60.2171 C-103.796,-59.994 -104.374,-59.4617 -104.726,-58.8528 C-105.078,-58.2438 -105.232,-57.4131 -105.027,-56.6447 C-104.702,-55.0502 -103.078,-54.1127 -101.501,-54.501 Z " fill="#c14d1e" fill-opacity="1.00" />			<path d="M-15.179,-22.6839 L2.34249,-18.0233 L11.7878,-1.66356 C12.6081,-0.242733 14.401,0.237676 15.8219,-0.582637 C17.2427,-1.40295 17.7231,-3.19586 16.9028,-4.61668 L7.48089,-20.9358 L12.182,-38.4807 C12.5938,-40.0175 11.6329,-41.6819 10.0961,-42.0937 C9.26367,-42.3167 8.49696,-42.1447 7.88804,-41.7931 C7.27912,-41.4416 6.72963,-40.7996 6.52374,-40.0312 L3.34961,-28.1852 L-0.681637,-35.1675 C-1.50195,-36.5883 -3.29486,-37.0687 -4.71568,-36.2484 C-6.1365,-35.4281 -6.61691,-33.6352 -5.7966,-32.2144 L-1.74191,-25.1915 L-13.5879,-28.3656 C-14.4203,-28.5886 -15.187,-28.4166 -15.796,-28.065 C-16.4049,-27.7135 -16.9544,-27.0715 -17.1603,-26.3031 C-17.6767,-24.76 -16.7392,-23.1362 -15.179,-22.6839 Z " fill="#c14d1e" fill-opacity="1.00" />			<path d="M12.9613,70.6304 L27.8926,60.3455 L46.4642,63.8026 C48.0771,64.1028 49.6076,63.0527 49.9079,61.4398 C50.2081,59.8268 49.158,58.2963 47.545,57.9961 L29.0195,54.5475 L18.7432,39.5702 C17.8431,38.2583 15.9536,37.9066 14.6418,38.8067 C13.9312,39.2943 13.5635,39.9887 13.4348,40.68 C13.3061,41.3712 13.4368,42.2061 13.8869,42.8621 L20.8253,52.9745 L12.8989,51.499 C11.286,51.1988 9.75549,52.2489 9.45524,53.8618 C9.155,55.4747 10.2051,57.0053 11.8181,57.3055 L19.7905,58.7896 L9.67805,65.728 C8.96744,66.2156 8.59977,66.91 8.4711,67.6013 C8.34242,68.2925 8.47309,69.1274 8.92315,69.7833 C9.76002,71.1788 11.6034,71.5219 12.9613,70.6304 Z " fill="#c14d1e" fill-opacity="1.00" />			<path d="M-17.3029,128.581 C10.8559,137.821 29.7795,125.578 33.3953,99.5609 C21.9612,111.905 19.0075,118.029 0.866867,121.711 C15.5421,115.563 22.5761,105.905 31.0169,93.9359 C27.6202,93.7953 22.6917,95.0463 18.7379,95.4763 C10.5102,96.4337 1.08441,99.3395 -3.3182,108.414 C-9.22554,120.663 -16.1749,127.621 -17.3029,128.581 Z " fill="#fbdd8f" fill-opacity="1.00" />			<path d="M86.2335,-27.4265 C76.3172,0.501621 88.101,19.7146 114.024,23.956 C101.959,12.2279 95.9078,9.12758 92.6638,-9.09651 C98.4559,5.72257 107.942,12.9871 119.704,21.7138 C119.927,18.3215 118.795,13.3642 118.46,9.40126 C117.701,1.15282 115.023,-8.34017 106.057,-12.9601 C93.9546,-19.1607 87.1661,-26.2757 86.2335,-27.4265 Z " fill="#fbdd8f" fill-opacity="1.00" />			<path d="M-118.52,-49.3802 C-140.924,-29.9797 -140.153,-7.45411 -119.697,9.02409 C-124.405,-7.12941 -128.139,-12.8116 -121.97,-30.2638 C-124.243,-14.5162 -119.575,-3.5172 -113.65,9.87641 C-111.783,7.03534 -110.322,2.16494 -108.657,-1.44728 C-105.248,-8.99641 -102.894,-18.5749 -108.414,-27.0169 C-115.882,-38.3812 -118.277,-47.9191 -118.52,-49.3802 Z " fill="#fbdd8f" fill-opacity="1.00" />			<path d="M-56.9577,21.7459 C-56.2789,18.781 -58.2138,16.2438 -61.1463,15.5835 C-64.0789,14.9233 -67.6517,16.8628 -68.3306,19.8276 C-69.0094,22.7924 -66.3045,24.7414 -63.372,25.4017 C-60.4208,26.0297 -57.6366,24.7107 -56.9577,21.7459 Z M-45.1404,12.086 C-44.6369,10.0958 -46.4318,8.28489 -48.4306,7.64729 C-50.3562,7.18106 -52.3954,8.32768 -52.9312,10.2992 C-53.4669,12.2708 -52.0748,15.2263 -50.0473,15.6653 C-47.3643,16.3106 -45.6762,14.0575 -45.1404,12.086 Z M-42.9985,27.3092 C-42.3832,25.1253 -44.184,22.5794 -46.3679,21.9641 C-48.5567,21.4319 -50.869,22.6791 -51.4198,24.9002 C-52.0215,27.1349 -51.0589,30.0146 -48.8378,30.5654 C-46.6166,31.1161 -43.5493,29.5303 -42.9985,27.3092 Z M-33.9692,11.5209 C-33.4311,10.0671 -34.5318,8.09749 -35.9856,7.55939 C-37.3885,7.00766 -39.4513,8.26974 -39.9571,9.74217 C-40.4629,11.2146 -39.0667,13.2687 -37.5943,13.7745 C-36.1914,14.3263 -34.475,12.9933 -33.9692,11.5209 Z " fill="#efe6ce" fill-opacity="1.00" />			<path d="M38.759,-112.898 C42.7139,-109.224 48.3313,-109.946 51.9488,-113.868 C55.5663,-117.79 55.7557,-125.003 51.8008,-128.678 C47.8459,-132.353 42.4494,-129.924 38.8319,-126.003 C35.2475,-122.023 34.8041,-116.573 38.759,-112.898 Z M43.1202,-86.1602 C45.7326,-83.62 50.1091,-84.7718 52.8631,-87.2785 C55.2888,-89.8247 55.3359,-93.9768 52.7808,-96.5501 C50.2257,-99.1234 44.447,-99.6064 41.9729,-96.8794 C38.6,-93.3279 40.5651,-88.7335 43.1202,-86.1602 Z M17.8187,-96.378 C20.6296,-93.4941 26.1413,-94.0027 29.0252,-96.8136 C31.7858,-99.7059 31.9209,-104.367 28.9955,-107.185 C26.0942,-110.093 20.8134,-111.169 17.9956,-108.244 C15.1778,-105.318 14.8933,-99.1958 17.8187,-96.378 Z M34.0746,-68.4867 C35.8317,-66.3693 39.8362,-66.3133 41.9535,-68.0705 C44.0467,-69.7373 43.9373,-74.0282 42.1229,-76.1124 C40.3084,-78.1967 35.9118,-77.8735 33.8275,-76.0591 C31.7344,-74.3923 32.2601,-70.5709 34.0746,-68.4867 Z " fill="#efe6ce" fill-opacity="1.00" />			<path d="M57.2045,6.61258 C56.3822,10.2037 58.7258,13.277 62.2779,14.0767 C65.8299,14.8764 70.1575,12.5272 70.9797,8.93606 C71.802,5.34493 68.5257,2.98421 64.9737,2.18449 C61.3991,1.42386 58.0268,3.02146 57.2045,6.61258 Z M42.8908,18.3131 C42.281,20.7237 44.4549,22.9171 46.876,23.6894 C49.2084,24.2541 51.6783,22.8653 52.3273,20.4773 C52.9763,18.0892 51.29,14.5093 48.8343,13.9777 C45.5845,13.1961 43.5398,15.9251 42.8908,18.3131 Z M40.2964,-0.125939 C39.5511,2.51924 41.7324,5.60299 44.3775,6.34829 C47.0288,6.99282 49.8296,5.48227 50.4967,2.79195 C51.2254,0.0851064 50.0595,-3.40288 47.3692,-4.06999 C44.6789,-4.73709 40.9635,-2.81626 40.2964,-0.125939 Z M29.3597,18.9976 C28.708,20.7584 30.0412,23.1441 31.8021,23.7959 C33.5013,24.4642 35.9998,22.9355 36.6125,21.152 C37.2252,19.3685 35.5341,16.8805 33.7506,16.2678 C32.0514,15.5995 29.9724,17.2141 29.3597,18.9976 Z " fill="#efe6ce" fill-opacity="1.00" />		</g>	</svg>