<?xml version="1.0" encoding="utf-8" ?>	<!-- Generator: Assembly 2.4 - http://assemblyapp.co -->	<svg version="1.1" xmlns="http://www.w3.org/2000/svg" xmlns:xlink="http://www.w3.org/1999/xlink" width="4096.00" height="2304.00" viewBox="0 0 4096.0 2304.0">		<g id="document" transform="scale(13.653333333333334 13.653333333333334) translate(150.0 84.37499937135726)">			<path d="M-112.494,17.3148 L-146.048,-16.239 L-146.048,17.3148 L-112.494,17.3148 Z M-129.271,-16.239 L-112.494,0.537866 L-129.271,0.537864 L-129.271,-16.239 Z " fill="#ffe875" fill-opacity="1.00" />			<path d="M0.235888,-7.95124 C0.235888,-3.3325 -3.53382,0.437205 -8.15256,0.437205 C-12.7713,0.437205 -16.541,-3.3325 -16.541,-7.95124 C-16.541,-12.57 -12.7713,-16.3397 -8.15256,-16.3397 C-3.53382,-16.3397 0.235888,-12.57 0.235888,-7.95124 Z M8.62434,-16.3397 C4.0056,-16.3397 0.235888,-12.57 0.235888,-7.95124 C0.235888,-3.3325 4.0056,0.437205 8.62434,0.437205 C13.2431,0.437205 17.0128,-3.3325 17.0128,-7.95124 C17.0128,-12.57 13.2431,-16.3397 8.62434,-16.3397 Z M-8.15256,0.437205 C-12.7713,0.437205 -16.541,4.20691 -16.541,8.82565 C-16.541,13.4444 -12.7713,17.2141 -8.15256,17.2141 C-3.53382,17.2141 0.235888,13.4444 0.235888,8.82565 C0.235888,4.20691 -3.53382,0.437205 -8.15256,0.437205 Z M8.62434,0.437205 C4.0056,0.437205 0.235888,4.20691 0.235888,8.82565 C0.235888,13.4444 4.0056,17.2141 8.62434,17.2141 C13.2431,17.2141 17.0128,13.4444 17.0128,8.82565 C17.0128,4.20691 13.2431,0.437205 8.62434,0.437205 Z " fill="#ffa538" fill-opacity="1.00" />			<path d="M-68.8429,-16.3397 L-75.5738,-16.3397 L-75.5738,17.3148 L-68.8429,17.3148 L-68.8429,-16.3397 Z M-82.3047,-16.3397 L-89.0356,-16.3397 L-89.0356,17.3148 L-82.3047,17.3148 L-82.3047,-16.3397 Z M-95.7665,-16.3397 L-102.497,-16.3397 L-102.497,17.3148 L-95.7665,17.3148 L-95.7665,-16.3397 Z " fill="#345b7d" fill-opacity="1.00" />			<path d="M102.296,16.3397 L102.296,9.6088 L68.6416,9.6088 L68.6416,16.3397 L102.296,16.3397 Z M102.296,2.87791 L102.296,-3.85298 L68.6416,-3.85298 L68.6416,2.87791 L102.296,2.87791 Z M102.296,-10.5839 L102.296,-17.3148 L68.6416,-17.3148 L68.6416,-10.5839 L102.296,-10.5839 Z " fill="#ffa538" fill-opacity="1.00" />			<path d="M112.192,-16.9279 L145.847,16.7266 L145.847,-16.9279 L112.192,-16.9279 Z M129.019,16.7266 L112.192,-0.100654 L129.019,-0.100654 L129.019,16.7266 Z " fill="#ffe875" fill-opacity="1.00" />			<path d="M59.3179,-0.100654 C59.3179,-9.38928 51.7793,-16.9279 42.4906,-16.9279 C33.202,-16.9279 25.6634,-9.38928 25.6634,-0.100654 C25.6634,9.18798 33.202,16.7266 42.4906,16.7266 C51.7793,16.7266 59.3179,9.18798 59.3179,-0.100654 Z M42.4906,-10.197 C48.0773,-10.197 52.587,-5.68729 52.587,-0.100654 C52.587,5.48599 48.0773,9.99568 42.4906,9.99568 C36.904,9.99568 32.3943,5.48599 32.3943,-0.100654 C32.3943,-5.68729 36.904,-10.197 42.4906,-10.197 Z " fill="#345b7d" fill-opacity="1.00" />			<path d="M-43.3651,17.3148 C-34.0658,17.3148 -26.5378,9.78679 -26.5378,0.487535 C-26.5378,-8.81172 -34.0658,-16.3397 -43.3651,-16.3397 C-52.6643,-16.3397 -60.1923,-8.81172 -60.1923,0.487535 C-60.1923,9.78679 -52.6643,17.3148 -43.3651,17.3148 Z " fill="#ffe875" fill-opacity="1.00" />		</g>	</svg>