<?xml version="1.0" encoding="utf-8" ?>	<!-- Generator: Assembly 2.4 - http://assemblyapp.co -->	<svg version="1.1" xmlns="http://www.w3.org/2000/svg" xmlns:xlink="http://www.w3.org/1999/xlink" width="4096.00" height="2304.00" viewBox="0 0 4096.0 2304.0">		<g id="document" transform="scale(13.653333333333334 13.653333333333334) translate(150.0 84.37499937135726)">			<path d="M-68.8429,-16.3397 L-75.5738,-16.3397 L-75.5738,17.3148 L-68.8429,17.3148 L-68.8429,-16.3397 Z M-82.3047,-16.3397 L-89.0356,-16.3397 L-89.0356,17.3148 L-82.3047,17.3148 L-82.3047,-16.3397 Z M-95.7665,-16.3397 L-102.497,-16.3397 L-102.497,17.3148 L-95.7665,17.3148 L-95.7665,-16.3397 Z " fill="#ffcc1a" fill-opacity="1.00" />			<path d="M102.296,16.3397 L102.296,9.6088 L68.6416,9.6088 L68.6416,16.3397 L102.296,16.3397 Z M102.296,2.87791 L102.296,-3.85298 L68.6416,-3.85298 L68.6416,2.87791 L102.296,2.87791 Z M102.296,-10.5839 L102.296,-17.3148 L68.6416,-17.3148 L68.6416,-10.5839 L102.296,-10.5839 Z " fill="#ffcc1a" fill-opacity="1.00" />			<path d="M-43.3651,17.3148 C-34.0658,17.3148 -26.5378,9.78679 -26.5378,0.487535 C-26.5378,-8.81172 -34.0658,-16.3397 -43.3651,-16.3397 C-52.6643,-16.3397 -60.1923,-8.81172 -60.1923,0.487535 C-60.1923,9.78679 -52.6643,17.3148 -43.3651,17.3148 Z " fill="#ffe875" fill-opacity="1.00" />			<path d="M-9.81591,-3.95197 C-8.38114,-8.01131 -4.56676,-10.8808 -0.0174974,-10.8808 C4.49677,-10.8808 8.34614,-8.01131 9.78091,-3.95197 L16.9547,-3.95197 C15.38,-11.8257 8.38114,-17.7747 0.0174969,-17.7747 C-8.34614,-17.7747 -15.345,-11.8257 -16.9198,-3.95197 L-9.81591,-3.95197 Z M9.78091,2.9769 C8.34614,7.03624 4.53176,9.90578 -0.0174974,9.90578 C-4.53176,9.90578 -8.38114,7.03624 -9.81591,2.9769 L-16.9547,2.9769 C-15.38,10.8506 -8.38114,16.7997 -0.0174974,16.7997 C8.34614,16.7997 15.345,10.8506 16.9198,2.9769 L9.78091,2.9769 Z " fill="#c14d1e" fill-opacity="1.00" />			<path d="M128.374,16.7997 C137.857,16.7997 145.521,9.1359 145.521,-0.347557 L145.521,-17.7747 L128.094,-17.7747 C118.61,-17.7747 110.947,-10.111 110.947,-0.627512 L110.947,16.7997 L128.374,16.7997 Z " fill="#ffe875" fill-opacity="1.00" />			<path d="M58.8035,16.3397 L58.8035,-17.3148 C40.239,-17.3148 25.149,-2.22476 25.149,16.3397 L58.8035,16.3397 Z " fill="#ffa538" fill-opacity="1.00" />			<path d="M-144.346,0.623789 C-144.346,9.85492 -136.886,17.3148 -127.655,17.3148 L-110.692,17.3148 L-110.692,0.351282 C-110.692,-8.87985 -118.152,-16.3397 -127.383,-16.3397 L-144.346,-16.3397 L-144.346,0.623789 Z " fill="#ffa538" fill-opacity="1.00" />		</g>	</svg>