<?xml version="1.0" encoding="utf-8" ?>	<!-- Generator: Assembly 2.4 - http://assemblyapp.co -->	<svg version="1.1" xmlns="http://www.w3.org/2000/svg" xmlns:xlink="http://www.w3.org/1999/xlink" width="4096.00" height="4096.00" viewBox="0 0 4096.0 4096.0">		<g id="document" transform="scale(13.653333333333334 13.653333333333334) translate(150.0 150.0)">			<path d="M-1.7022e-06,-144.539 C-81.8277,-144.539 -148.194,-78.185 -148.194,3.65508 C-148.194,69.1321 -105.736,124.68 -46.8416,144.279 C-39.4443,145.649 -37.0485,141.055 -37.0485,137.153 L-37.0485,109.564 C-78.2711,118.53 -86.854,92.0774 -86.854,92.0774 C-93.5968,74.9487 -103.316,70.3917 -103.316,70.3917 C-116.764,61.1913 -102.291,61.3889 -102.291,61.3889 C-87.4097,62.4263 -79.5801,76.6653 -79.5801,76.6653 C-66.3662,99.3142 -44.9151,92.769 -36.4557,88.9777 C-35.1343,79.4068 -31.2936,72.8616 -27.0454,69.1691 C-59.9568,65.4025 -94.56,52.6949 -94.56,-4.07571 C-94.56,-20.2659 -88.7681,-33.4798 -79.2961,-43.8534 C-80.8274,-47.5953 -85.903,-62.674 -77.8512,-83.0754 C-77.8512,-83.0754 -65.4029,-87.0519 -37.0855,-67.8855 C-25.2671,-71.1705 -12.5965,-72.813 -1.61019e-06,-72.8747 C12.5965,-72.813 25.2794,-71.1705 37.1226,-67.8855 C65.4152,-87.0519 77.8388,-83.0754 77.8388,-83.0754 C85.903,-62.6617 80.8274,-47.583 79.2961,-43.8534 C88.8052,-33.4798 94.5477,-20.2535 94.5477,-4.07571 C94.5477,52.8431 59.8827,65.3778 26.8848,69.0456 C32.1951,73.6396 37.0485,82.6547 37.0485,96.4862 L37.0485,137.153 C37.0485,141.093 39.4196,145.724 46.9404,144.266 C105.786,124.643 148.194,69.1074 148.194,3.65508 C148.194,-78.185 81.8401,-144.539 1.7022e-06,-144.539 L-1.7022e-06,-144.539 Z " fill="#79bd9a" fill-opacity="1.00" />		</g>	</svg>