<?xml version="1.0" encoding="utf-8" ?>	<!-- Generator: Assembly 2.4 - http://assemblyapp.co -->	<svg version="1.1" xmlns="http://www.w3.org/2000/svg" xmlns:xlink="http://www.w3.org/1999/xlink" width="4096.00" height="4096.00" viewBox="0 0 4096.0 4096.0">		<g id="document" transform="scale(13.653333333333334 13.653333333333334) translate(150.0 150.0)">			<path d="M-1.67548,-132.908 L-130.353,-52.4845 C-132.028,-51.1441 -133.033,-49.8037 -133.033,-48.1283 L-133.033,-40.0859 L-133.033,13.5295 L-133.033,134.164 L-79.4179,134.164 L-79.4179,-16.6292 C-79.4179,-18.6398 -78.0775,-20.3152 -76.7371,-20.9854 L-1.34039,-67.899 C0.670193,-69.2393 2.68077,-69.2393 4.69135,-67.899 L79.753,-20.9854 C81.0934,-19.9801 82.0987,-18.6398 82.0987,-16.6292 L82.0987,134.164 L135.714,134.164 L135.714,13.5295 L135.714,-40.0859 L135.714,-48.1283 C135.714,-50.1388 134.374,-51.8143 133.033,-52.4845 L4.35626,-132.908 C2.01058,-133.913 -0.335097,-133.913 -1.67548,-132.908 Z " fill="#79bd9a" fill-opacity="1.00" />		</g>	</svg>