<?xml version="1.0" encoding="utf-8" ?>	<!-- Generator: Assembly 2.4 - http://assemblyapp.co -->	<svg version="1.1" xmlns="http://www.w3.org/2000/svg" xmlns:xlink="http://www.w3.org/1999/xlink" width="4096.00" height="4096.00" viewBox="0 0 4096.0 4096.0">		<g id="document" transform="scale(13.653333333333334 13.653333333333334) translate(150.0 150.0)">			<path d="M143.333,-48.0188 C143.046,-62.1084 142.183,-76.198 137.87,-89.7126 C132.982,-104.665 124.355,-116.742 111.991,-126.231 C102.502,-133.419 91.8631,-137.732 80.3613,-140.32 C69.7222,-142.621 58.508,-142.908 47.5814,-143.196 C20.8398,-144.058 -5.90174,-143.771 -32.6433,-143.483 C-47.308,-143.483 -61.9727,-143.483 -76.3499,-140.895 C-89.8644,-138.595 -102.229,-133.707 -113.155,-125.368 C-131.558,-110.703 -139.897,-90.8628 -142.197,-68.1468 C-143.348,-56.9326 -143.635,-45.4309 -143.635,-34.2167 C-143.923,-18.4018 -143.635,-2.5869 -143.923,12.9404 C-143.923,29.618 -143.923,46.008 -142.772,62.6855 C-142.197,73.3246 -140.185,83.9637 -136.446,94.0277 C-132.996,102.942 -128.108,110.705 -121.494,117.894 C-116.318,123.357 -110.568,128.245 -103.954,131.696 C-94.7527,136.584 -84.9762,139.747 -74.9122,141.185 C-70.8866,141.76 -66.5734,142.335 -62.5478,142.623 C-58.8097,142.91 -55.0717,143.198 -51.0461,143.198 C-13.0903,143.773 24.8654,144.348 62.8212,142.335 C71.735,141.76 80.6489,140.322 89.2752,137.447 C99.6267,133.996 109.116,128.82 117.167,121.344 C128.956,110.418 136.145,96.6156 139.595,80.8007 C142.183,69.8741 142.471,58.6599 142.758,47.4457 C143.908,15.8159 144.196,-16.1014 143.333,-48.0188 Z M117.454,49.1709 C117.167,58.6599 116.879,68.1488 114.579,77.3502 C112.566,84.5388 109.978,91.4398 104.803,97.4782 C97.3264,106.967 87.2624,112.143 75.7606,114.731 C69.1471,116.169 62.2461,116.744 55.6326,117.031 C24.8654,118.181 -5.6142,117.606 -36.3814,117.606 C-46.4454,117.606 -56.5094,117.319 -66.5734,116.169 C-81.5257,114.443 -94.7527,109.843 -104.529,97.7658 C-110.855,90.2897 -114.018,81.3758 -115.743,71.5993 C-118.044,58.6599 -117.756,45.4329 -118.044,32.4934 C-118.331,23.5796 -118.044,14.9533 -118.044,6.0394 C-118.044,-17.2516 -118.619,-40.2551 -116.894,-63.5461 C-116.318,-70.7347 -115.168,-77.6358 -112.58,-84.5368 C-107.405,-98.3389 -97.6281,-107.828 -83.826,-113.004 C-75.4873,-116.167 -66.5734,-117.029 -57.9471,-117.604 C-30.0554,-118.754 -2.16368,-118.179 25.728,-118.467 C35.217,-118.467 44.7059,-118.179 54.1949,-117.892 C63.1087,-117.317 71.735,-117.029 80.3613,-114.441 C99.9143,-108.403 111.128,-94.6008 115.154,-74.7603 C116.879,-66.7091 117.167,-58.3703 117.454,-50.0316 C118.317,-16.389 118.317,16.391 117.454,49.1709 Z M-12.5152,-72.46 C-40.1194,-67.5717 -58.8097,-51.1818 -69.1613,-25.3028 C-71.1741,-20.4146 -72.0368,-15.2388 -73.1869,-10.063 C-73.762,-6.61251 -73.4745,-2.87445 -73.762,0.576076 C-73.4745,8.62729 -72.3243,16.6785 -69.7364,24.1546 C-66.5734,33.356 -61.9727,41.6948 -55.3592,48.8834 C-48.4582,56.3595 -40.407,62.6855 -30.918,66.9986 C-16.5409,73.3246 -1.58859,75.3374 14.2263,72.1744 C24.0028,70.1616 33.2042,66.4235 41.5429,60.6727 C49.5942,55.2093 56.4952,48.0208 61.9585,39.9695 C67.9969,30.1931 72.0226,19.5539 73.1727,8.33975 C74.3229,-2.29936 73.4603,-12.6509 70.0097,-22.7149 C59.0831,-56.9326 24.5779,-79.361 -12.5152,-72.46 Z M40.6803,25.5924 C38.955,28.4678 36.9422,30.7681 34.6419,33.0685 C32.054,35.9439 29.1786,38.2443 26.0156,40.5446 C4.73737,54.0592 -23.7294,48.8834 -38.3942,28.4678 C-44.145,20.7041 -47.308,11.7903 -47.5956,2.30134 C-48.7457,-19.8395 -33.7935,-40.5426 -12.2277,-46.2935 C15.9516,-53.7697 43.8433,-35.3669 47.8689,-6.90006 C49.3066,4.60169 47.2938,15.8159 40.6803,25.5924 Z M76.3357,-93.7382 C67.1343,-93.7382 59.3706,-85.9745 59.3706,-76.4856 C59.3706,-66.9966 67.1343,-59.233 76.6232,-59.233 C86.1122,-59.233 93.5883,-66.9966 93.5883,-76.4856 C93.8759,-86.2621 86.1122,-93.7382 76.3357,-93.7382 Z " fill="#79bd9a" fill-opacity="1.00" />		</g>	</svg>