<?xml version="1.0" encoding="utf-8" ?>	<!-- Generator: Assembly 2.4 - http://assemblyapp.co -->	<svg version="1.1" xmlns="http://www.w3.org/2000/svg" xmlns:xlink="http://www.w3.org/1999/xlink" width="4096.00" height="4096.00" viewBox="0 0 4096.0 4096.0">		<g id="document" transform="scale(13.653333333333334 13.653333333333334) translate(150.0 150.0)">			<path d="M-12.177,144.16 L12.4593,144.16 L18.6843,-88.4387 L-18.6984,-88.4387 L-12.177,144.16 Z " fill="#79db9a" fill-opacity="1.00" />			<path d="M-68.6622,111.076 L-137.324,111.076 L-137.324,88.9544 L-68.6622,88.9544 C-30.7607,88.9544 9.70376e-07,113.731 0,144.259 L-18.6433,144.259 C-18.6433,125.898 -45.8664,111.076 -68.6622,111.076 Z " fill="#79db9a" fill-opacity="1.00" />			<path d="M68.7122,111.076 L137.374,111.076 L137.374,88.9544 L68.7122,88.9544 C30.8107,88.9544 0.0499994,113.731 0.0500003,144.259 L18.6933,144.259 C18.6933,125.898 45.9164,111.076 68.7122,111.076 Z " fill="#79db9a" fill-opacity="1.00" />			<path d="M68.6122,-119.584 L137.274,-119.584 L137.274,-141.705 L68.6122,-141.705 C30.7107,-141.705 -0.050001,-116.929 -0.05,-86.4012 L18.5933,-86.4012 C18.5933,-104.762 45.8164,-119.584 68.6122,-119.584 Z " fill="#79db9a" fill-opacity="1.00" />			<path d="M-68.7122,-119.584 L-137.374,-119.584 L-137.374,-141.705 L-68.7122,-141.705 C-30.8107,-141.705 -0.049999,-116.929 -0.05,-86.4012 L-18.6933,-86.4012 C-18.6933,-104.762 -45.9164,-119.584 -68.7122,-119.584 Z " fill="#79db9a" fill-opacity="1.00" />			<path d="M121.653,88.9544 L137.324,88.9544 L137.324,-120.76 L121.653,-120.76 L121.653,88.9544 Z " fill="#79db9a" fill-opacity="1.00" />			<path d="M-137.324,88.9544 L-121.653,88.9544 L-121.653,-120.76 L-137.324,-120.76 L-137.324,88.9544 Z " fill="#79db9a" fill-opacity="1.00" />			<path d="M2.94087,45.403 L2.94087,-2.4869e-14 L-3.00926,-2.4869e-14 L-3.00926,45.403 L2.94087,45.403 Z " fill="#bde9b7" fill-opacity="1.00" />			<path d="M2.97507,-0.05 L0.0187389,-88.8341 L0.0187389,-88.8341 L-2.97507,-0.05 L2.97507,-0.05 Z " fill="#bde9b7" fill-opacity="1.00" />			<path d="M-2.94087,45.3511 L0.0154572,134.135 L0.0154572,134.135 L3.00926,45.3511 L-2.94087,45.3511 Z " fill="#bde9b7" fill-opacity="1.00" />			<path d="M-98.3054,-98.3054 L-98.3054,-87.2445 L-43.0012,-87.2445 L-43.0012,-98.3054 L-98.3054,-98.3054 Z M-98.3054,-76.1837 L-98.3054,-65.1229 L-43.0012,-65.1229 L-43.0012,-76.1837 L-98.3054,-76.1837 Z M-98.3054,-54.062 L-98.3054,-43.0012 L-43.0012,-43.0012 L-43.0012,-54.062 L-98.3054,-54.062 Z " fill="#bde9b7" fill-opacity="1.00" />			<path d="M-43.0012,24.558 L-43.0012,13.4972 L-98.3054,13.4972 L-98.3054,24.558 L-43.0012,24.558 Z M-43.0012,2.43634 L-43.0012,-8.6245 L-98.3054,-8.6245 L-98.3054,2.43634 L-43.0012,2.43634 Z M-43.0012,-19.6853 L-43.0012,-30.7462 L-98.3054,-30.7462 L-98.3054,-19.6853 L-43.0012,-19.6853 Z " fill="#bde9b7" fill-opacity="1.00" />		</g>	</svg>