<?xml version="1.0" encoding="utf-8" ?>	<!-- Generator: Assembly 2.4 - http://assemblyapp.co -->	<svg version="1.1" xmlns="http://www.w3.org/2000/svg" xmlns:xlink="http://www.w3.org/1999/xlink" width="4096.00" height="3277.00" viewBox="0 0 4096.0 3277.0">		<g id="document" transform="scale(13.653333333333334 13.653333333333334) translate(150.0 120.29020624765306)">			<path d="M-84.4313,-98.4651 L-84.4313,71.4313 L-71.6635,71.4313 L-71.6635,-98.4651 L-28.5327,-98.4651 C-9.96087,-98.4651 12.2178,-86.39 12.2178,-71.4313 L12.2602,-71.4313 L16.7873,90.0354 C6.61628,78.7638 -9.88118,71.4313 -28.492,71.4313 L-84.4313,71.4313 L-84.4313,89.4539 L-28.492,89.4539 C-9.92013,89.4539 12.2586,101.529 12.2586,116.488 L27.4473,116.488 C27.4473,116.461 27.4473,116.434 27.4472,116.407 L27.4472,116.407 L27.4881,116.407 L27.4881,116.407 C27.4881,116.434 27.488,116.461 27.488,116.488 L42.6768,116.488 C42.6768,101.529 64.8555,89.4539 83.4273,89.4539 L139.367,89.4539 L139.367,71.4313 L139.326,71.4313 L139.326,71.4313 L139.326,-99.4236 L139.285,-99.4236 L139.285,-116.488 L83.3458,-116.488 C53.1573,-116.488 28.5294,-97.1944 27.4439,-73.0912 L27.3693,-73.0912 L27.3693,-73.0912 C26.2838,-97.1944 1.65583,-116.488 -28.5327,-116.488 L-84.472,-116.488 L-84.472,-98.4651 L-84.4313,-98.4651 L-84.4313,-98.4651 Z M139.131,71.4313 L83.4273,71.4313 C64.914,71.4313 48.492,78.6872 38.3084,89.8585 L42.6635,-72.8671 L42.6635,-72.8671 C44.0199,-87.1552 65.372,-98.4651 83.3459,-98.4651 L126.558,-98.4651 L126.558,71.4313 L139.131,71.4313 L139.131,71.4313 Z " fill="#79db9a" fill-opacity="1.00" />			<path d="M29.8432,35.9499 L29.8432,-1.04004 L24.9957,-1.04004 L24.9957,35.9499 L29.8432,35.9499 Z " fill="#bde9b7" fill-opacity="1.00" />			<path d="M29.8711,-1.08078 L27.4626,-73.4134 L27.4626,-73.4134 L25.0235,-1.08078 L29.8711,-1.08078 Z " fill="#bde9b7" fill-opacity="1.00" />			<path d="M25.0514,35.9076 L27.4599,108.24 L27.4599,108.24 L29.899,35.9076 L25.0514,35.9076 Z " fill="#bde9b7" fill-opacity="1.00" />			<path d="M59.1227,-82.3035 L59.1227,-73.2923 L104.179,-73.2923 L104.179,-82.3035 L59.1227,-82.3035 Z M59.1227,-64.281 L59.1227,-55.2697 L104.179,-55.2697 L104.179,-64.281 L59.1227,-64.281 Z M59.1227,-46.2584 L59.1227,-37.2471 L104.179,-37.2471 L104.179,-46.2584 L59.1227,-46.2584 Z " fill="#bde9b7" fill-opacity="1.00" />			<path d="M104.179,17.4549 L104.179,8.44365 L59.1227,8.44365 L59.1227,17.4549 L104.179,17.4549 Z M104.179,-0.567644 L104.179,-9.57893 L59.1227,-9.57893 L59.1227,-0.567642 L104.179,-0.567644 Z M104.179,-18.5902 L104.179,-27.6015 L59.1227,-27.6015 L59.1227,-18.5902 L104.179,-18.5902 Z " fill="#bde9b7" fill-opacity="1.00" />			<path d="M-52.6423,20.3578 L-95.0356,116.488 L-95.0356,62.7511 L-148.772,62.7511 L-52.6423,20.3578 Z " fill="#fe772b" fill-opacity="1.00" />		</g>	</svg>