<?xml version="1.0" encoding="utf-8" ?>	<!-- Generator: Assembly 2.4 - http://assemblyapp.co -->	<svg version="1.1" xmlns="http://www.w3.org/2000/svg" xmlns:xlink="http://www.w3.org/1999/xlink" width="4096.00" height="4096.00" viewBox="0 0 4096.0 4096.0">		<g id="document" transform="scale(13.653333333333334 13.653333333333334) translate(150.0 150.0)">			<path d="M-7.99361e-15,-140.268 C-78.4333,-140.268 -142.089,-76.6123 -142.089,1.82101 C-142.089,80.2543 -78.4333,143.91 -7.99361e-15,143.91 L142.089,143.91 L142.089,1.82101 C142.089,-76.6123 78.4333,-140.268 -7.99361e-15,-140.268 Z M-85.2536,1.82101 C-85.2536,-45.3527 -47.1737,-83.4326 -7.99361e-15,-83.4326 C47.1737,-83.4326 85.2536,-45.3527 85.2536,1.82101 C85.2536,48.9947 47.1737,87.0746 -7.99361e-15,87.0746 C-47.1737,87.0746 -85.2536,48.9947 -85.2536,1.82101 Z " fill="#bde9b7" fill-opacity="1.00" />			<path d="M-2.74909,-20.2817 C-2.74909,-24.8269 -4.4352,-28.8589 -7.80742,-32.3777 C-9.49353,-34.0638 -11.4912,-35.42 -13.8004,-36.4464 C-16.1097,-37.4727 -18.6572,-37.9858 -21.4429,-37.9858 C-24.7418,-37.9858 -27.5826,-37.4177 -29.9651,-36.2814 C-32.3477,-35.1451 -34.3087,-33.624 -35.8482,-31.7179 C-37.461,-29.8119 -38.6706,-27.5393 -39.477,-24.9002 C-40.2834,-22.261 -40.6866,-19.4753 -40.6866,-16.5429 C-40.6866,-11.6312 -39.8618,-7.54423 -38.2124,-4.28198 C-36.5629,-1.01972 -33.319,1.60108 -28.4806,3.58043 L-20.4532,6.87934 C-19.0604,7.46581 -17.9424,8.01563 -17.0994,8.52879 C-16.2563,9.04196 -15.5782,9.70174 -15.065,10.5081 C-14.6252,11.3145 -14.3319,12.3775 -14.1853,13.6971 C-14.0387,15.0166 -13.9654,16.7028 -13.9654,18.7554 C-13.9654,20.5148 -14.0204,22.1093 -14.1303,23.5388 C-14.2403,24.9684 -14.5885,26.1963 -15.175,27.2226 C-15.7615,28.2489 -16.5862,29.037 -17.6492,29.5868 C-18.7122,30.1367 -20.1967,30.4116 -22.1027,30.4116 C-24.9618,30.4116 -26.9961,29.5868 -28.2057,27.9374 C-29.4153,26.2879 -30.0201,24.4369 -30.0201,22.3842 L-30.0201,18.8654 L-41.2364,18.8654 L-41.2364,23.044 C-41.2364,25.6831 -40.7415,28.1207 -39.7519,30.3566 C-38.7622,32.5925 -37.4243,34.5535 -35.7382,36.2396 C-34.0521,37.9258 -32.0361,39.2453 -29.6902,40.1983 C-27.3443,41.1514 -24.8151,41.6279 -22.1027,41.6279 C-18.5106,41.6279 -15.4682,41.0414 -12.9757,39.8684 C-10.4832,38.6955 -8.4672,37.0827 -6.92771,35.03 C-5.46153,33.0507 -4.39855,30.6498 -3.73877,27.8274 C-3.07898,25.005 -2.74909,21.9444 -2.74909,18.6455 C-2.74909,15.7864 -2.89571,13.2389 -3.18895,11.003 C-3.48218,8.76705 -4.032,6.76937 -4.8384,5.00995 C-5.71811,3.32384 -6.92771,1.83933 -8.4672,0.556424 C-10.0067,-0.726485 -12.0227,-1.84445 -14.5152,-2.79747 L-23.0924,-6.20634 C-24.5586,-6.79282 -25.7132,-7.37929 -26.5562,-7.96576 C-27.3993,-8.55223 -28.0407,-9.24867 -28.4806,-10.0551 C-28.9205,-10.8615 -29.1954,-11.7778 -29.3053,-12.8042 C-29.4153,-13.8305 -29.4703,-15.1134 -29.4703,-16.6529 C-29.4703,-17.9725 -29.3603,-19.237 -29.1404,-20.4466 C-28.9205,-21.6562 -28.5173,-22.7376 -27.9308,-23.6906 C-27.3443,-24.5703 -26.5746,-25.3034 -25.6215,-25.8898 C-24.6685,-26.4763 -23.4223,-26.7696 -21.8828,-26.7696 C-19.0237,-26.7696 -16.9894,-25.8349 -15.7798,-23.9655 C-14.5702,-22.0961 -13.9654,-19.8785 -13.9654,-17.3127 L-13.9654,-14.7835 L-2.74909,-14.7835 L-2.74909,-20.2817 Z M30.0201,18.6455 L30.0201,22.4942 C30.0201,24.0337 29.8002,25.3166 29.3603,26.3429 C28.9205,27.3692 28.3706,28.1756 27.7108,28.7621 C26.9778,29.3486 26.1897,29.7701 25.3466,30.0267 C24.5036,30.2833 23.7155,30.4116 22.9824,30.4116 C20.4166,30.4116 18.6388,29.6418 17.6492,28.1023 C16.6595,26.5628 16.1647,24.6568 16.1647,22.3842 L16.1647,-17.6426 C16.1647,-20.2817 16.6228,-22.4626 17.5392,-24.1854 C18.4556,-25.9082 20.3066,-26.7696 23.0924,-26.7696 C25.2183,-26.7696 26.9044,-25.9632 28.1507,-24.3504 C29.397,-22.7376 30.0201,-20.8315 30.0201,-18.6322 L30.0201,-14.8935 L41.2364,-14.8935 L41.2364,-19.292 C41.2364,-22.0045 40.7782,-24.5153 39.8618,-26.8245 C38.9455,-29.1338 37.6809,-31.1314 36.0681,-32.8176 C32.7692,-36.2631 28.4806,-37.9858 23.2023,-37.9858 C20.4899,-37.9858 18.0157,-37.5277 15.7798,-36.6113 C13.5439,-35.6949 11.6195,-34.4304 10.0067,-32.8176 C8.3939,-31.2048 7.14764,-29.2987 6.26793,-27.0994 C5.38822,-24.9002 4.94837,-22.5176 4.94837,-19.9518 L4.94837,23.154 C4.94837,26.7461 5.51651,29.6968 6.6528,32.006 C7.78909,34.3153 9.23695,36.203 10.9964,37.6692 C12.7558,39.1354 14.7351,40.1617 16.9344,40.7482 C19.1337,41.3346 21.2963,41.6279 23.4223,41.6279 C25.9148,41.6279 28.2423,41.133 30.405,40.1434 C32.5676,39.1537 34.4553,37.8158 36.0681,36.1297 C37.6809,34.4436 38.9455,32.5192 39.8618,30.3566 C40.7782,28.194 41.2364,25.9031 41.2364,23.4839 L41.2364,18.6455 L30.0201,18.6455 Z " fill="#79bd9a" fill-opacity="1.00" />		</g>	</svg>