<?xml version="1.0" encoding="utf-8" ?>	<!-- Generator: Assembly 2.4 - http://assemblyapp.co -->	<svg version="1.1" xmlns="http://www.w3.org/2000/svg" xmlns:xlink="http://www.w3.org/1999/xlink" width="4096.00" height="2304.00" viewBox="0 0 4096.0 2304.0">		<g id="document" transform="scale(13.653333333333334 13.653333333333334) translate(150.0 84.37499937135726)">			<path d="M-58.9253,75.7863 L-60.9909,75.7863 C-63.6545,75.7863 -65.8289,77.9606 -65.8289,80.6242 L-65.8289,84.375 L-51.0432,84.375 C-48.5427,84.375 -46.477,82.3637 -46.477,79.8088 L-46.477,45.6713 C-46.477,44.2036 -45.3355,43.0621 -43.8678,43.0621 C-42.4001,43.0621 -41.2586,44.2036 -41.2586,45.6713 L-41.2586,79.8088 C-41.2586,82.3094 -39.2473,84.375 -36.6924,84.375 L-21.9067,84.375 L-21.9067,80.6242 C-21.9067,77.9606 -24.0811,75.7863 -26.7447,75.7863 L-28.8103,75.7863 L-28.8103,30.0159 L-58.7622,30.0159 L-58.7622,75.7863 L-58.9253,75.7863 Z " fill="#ffa538" fill-opacity="1.00" />			<path d="M-14.8081,75.7863 L-16.7277,75.7863 C-19.2031,75.7863 -21.2238,77.9606 -21.2238,80.6242 L-21.2238,84.375 L-7.48296,84.375 C-5.15914,84.375 -3.23946,82.3637 -3.23946,79.8088 L-3.23946,45.6713 C-3.23946,44.2036 -2.17858,43.0621 -0.814602,43.0621 C0.549381,43.0621 1.61026,44.2036 1.61026,45.6713 L1.61026,79.8088 C1.61026,82.3094 3.47942,84.375 5.85376,84.375 L19.5946,84.375 L19.5946,80.6242 C19.5946,77.9606 17.5739,75.7863 15.0985,75.7863 L13.1788,75.7863 L13.1788,30.0159 L-14.6565,30.0159 L-14.6565,75.7863 L-14.8081,75.7863 Z " fill="#c5e0dc" fill-opacity="1.00" />			<path d="M71.5895,74.5174 L69.8984,74.5174 C67.7177,74.5174 65.9376,77.013 65.9376,80.0701 L65.9376,84.375 L78.0425,84.375 C80.0896,84.375 81.7807,82.0666 81.7807,79.1342 L81.7807,39.9533 C81.7807,38.2688 82.7153,36.9586 83.9169,36.9586 C85.1184,36.9586 86.053,38.2688 86.053,39.9533 L86.053,79.1342 C86.053,82.0042 87.6996,84.375 89.7913,84.375 L101.896,84.375 L101.896,80.0701 C101.896,77.013 100.116,74.5174 97.9353,74.5174 L96.2442,74.5174 L96.2442,21.985 L71.723,21.985 L71.723,74.5174 L71.5895,74.5174 Z " fill="#527779" fill-opacity="1.00" />			<path d="M21.3723,32.4724 L21.3723,31.6669 L23.2983,31.6669 L23.2983,30.2662 L21.3723,30.2662 L21.3723,29.4608 L23.2983,29.4608 L23.2983,28.0601 L21.3723,28.0601 L21.3723,27.2547 L23.2983,27.2547 L23.2983,13.4578 L18.2207,13.4578 L18.2207,37.725 C16.75,38.1102 15.6995,39.4759 15.6995,41.0517 L15.6995,43.3978 L16.5049,43.3978 C17.1702,43.3978 17.6955,42.8726 17.6955,42.2072 L17.6955,41.2968 C17.6955,40.9466 17.9756,40.6665 18.3258,40.6665 L18.3258,43.8881 L16.6099,43.8881 C15.9446,43.8881 15.4193,44.4133 15.4193,45.0787 L15.4193,45.8841 L18.781,45.8841 C18.781,46.1992 18.5359,46.4444 18.2207,46.4444 L16.2598,46.4444 C15.5944,46.4444 15.0692,46.9696 15.0692,47.635 L15.0692,48.4404 L18.3958,48.4404 C21.1272,48.4404 23.3683,46.2343 23.3683,43.4679 L23.3683,32.4373 L21.3723,32.4373 L21.3723,32.4724 Z " fill="#527779" fill-opacity="1.00" />			<path d="M9.47181,7.10543e-15 L-10.1375,7.10543e-15 C-18.0977,7.10543e-15 -24.6017,7.28412 -24.6017,16.199 L-18.5345,16.199 C-18.5345,12.8288 -16.9328,9.94772 -14.5544,8.31694 C-14.5544,19.2975 -14.5544,37.3447 -14.5544,37.4534 C-14.5544,38.758 -13.6322,39.8452 -12.4187,39.8452 L11.8016,39.8452 C12.9665,39.8452 13.9373,38.8124 13.9373,37.4534 C13.9373,37.3447 13.9373,19.2975 13.9373,8.31694 C16.3156,9.94772 17.8688,12.8831 17.8688,16.199 L23.9361,16.199 C23.9361,7.28412 17.4805,7.10543e-15 9.47181,7.10543e-15 Z " fill="#f9b194" fill-opacity="1.00" />			<path d="M-108.917,33.0362 L-108.917,32.1303 L-110.875,32.1303 L-110.875,30.555 L-108.917,30.555 L-108.917,29.6492 L-110.875,29.6492 L-110.875,28.0739 L-108.917,28.0739 L-108.917,27.1681 L-110.875,27.1681 L-110.875,11.6512 L-105.714,11.6512 L-105.714,38.9436 C-104.219,39.3768 -103.151,40.9128 -103.151,42.685 L-103.151,45.3237 L-103.969,45.3237 C-104.646,45.3237 -105.18,44.7329 -105.18,43.9846 L-105.18,42.9607 C-105.18,42.5669 -105.464,42.2518 -105.82,42.2518 L-105.82,45.875 L-104.076,45.875 C-103.4,45.875 -102.866,46.4658 -102.866,47.2141 L-102.866,48.1199 L-106.283,48.1199 C-106.283,48.4743 -106.034,48.75 -105.714,48.75 L-103.72,48.75 C-103.044,48.75 -102.51,49.3407 -102.51,50.089 L-102.51,50.9948 L-105.892,50.9948 C-108.668,50.9948 -110.946,48.5137 -110.946,45.4024 L-110.946,32.9968 L-108.917,32.9968 L-108.917,33.0362 Z " fill="#353a57" fill-opacity="1.00" />			<path d="M-86.2267,18.1101 L-86.2267,17.1928 L-83.1746,17.1928 L-83.1746,15.5974 L-86.2267,15.5974 L-86.2267,14.68 L-83.1746,14.68 L-83.1746,13.0846 L-86.2267,13.0846 L-86.2267,12.1673 L-83.1746,12.1673 L-83.1746,-3.54748 L-91.221,-3.54748 L-91.221,24.0929 C-93.5517,24.5316 -95.2165,26.0872 -95.2165,27.882 L-95.2165,30.5543 L-93.9401,30.5543 C-92.8858,30.5543 -92.0534,29.956 -92.0534,29.1982 L-92.0534,28.1612 C-92.0534,27.7623 -91.6095,27.4433 -91.0545,27.4433 L-91.0545,31.1127 L-93.7737,31.1127 C-94.828,31.1127 -95.6604,31.711 -95.6604,32.4688 L-95.6604,33.3861 L-90.3331,33.3861 C-90.3331,33.7451 -90.7216,34.0243 -91.221,34.0243 L-94.3286,34.0243 C-95.383,34.0243 -96.2153,34.6226 -96.2153,35.3804 L-96.2153,36.2978 L-90.9435,36.2978 C-86.6151,36.2978 -83.0636,33.785 -83.0636,30.6341 L-83.0636,18.0703 L-86.2267,18.0703 L-86.2267,18.1101 Z " fill="#353a57" fill-opacity="1.00" />			<path d="M-99.3642,37.0289 L-94.4589,84.3758 L-88.9405,84.3758 L-88.9405,37.0289 L-99.3642,37.0289 Z M-75.6043,37.0289 L-86.5901,37.0289 L-86.5901,84.3758 L-80.4585,84.3758 L-75.6043,37.0289 Z M-67.531,83.221 C-69.115,80.6489 -71.8742,79.0217 -74.8889,79.0217 L-77.7503,79.0217 L-78.4657,84.4283 L-66.9178,84.4283 L-67.531,83.221 Z M-100.08,78.9692 C-103.043,78.9692 -105.854,80.5965 -107.438,83.1685 L-108.153,84.3233 L-96.605,84.3233 L-97.3204,78.9167 L-100.08,78.9692 Z " fill="#e3cbe8" fill-opacity="1.00" />			<path d="M-82.0003,39.2979 C-77.7194,39.3365 -75.1094,36.8442 -74.1603,30.7203 L-72.5747,21.8242 C-66.3979,20.3075 -62.4785,13.4766 -63.8279,6.59816 L-76.7075,0.139986 C-79.3646,2.63191 -83.001,4.17155 -86.9997,4.13551 L-87.0467,4.13509 C-91.0453,4.09904 -94.6535,2.4941 -97.2652,-0.0453051 L-110.259,6.17967 C-111.732,13.0326 -107.937,19.9331 -101.788,21.5609 L-100.363,30.4841 C-99.5712,36.5713 -96.9599,39.1631 -92.679,39.2017 L-82.0003,39.2979 Z " fill="#fbdd8f" fill-opacity="1.00" />			<path d="M-16.0882,37.957 L-16.0882,1.39996 C-16.0882,-2.24945 -18.668,-4.64045 -22.6949,-5.20673 L-38.6139,-7.40897 L-38.6139,-15.0853 L-49.1217,-15.0853 L-49.1217,-7.40897 L-65.0407,-5.20673 C-69.0676,-4.64045 -71.6474,-2.24945 -71.6474,1.39996 L-71.6474,37.957 C-72.717,39.0267 -73.3463,40.4738 -73.3463,42.0469 C-73.3463,45.2558 -70.7665,47.8356 -67.5575,47.8356 L-63.1531,47.8356 L-63.1531,41.7952 C-63.1531,41.7952 -61.1396,41.7952 -60.6991,41.7952 C-60.6991,39.593 -61.3284,38.5233 -62.7755,37.5795 L-62.7755,10.7123 C-62.7755,9.01339 -61.3913,7.69205 -59.7553,7.69205 L-59.252,7.69205 L-59.252,31.2245 L-28.4836,31.2245 L-28.4836,7.62913 L-27.9803,7.62913 C-26.2814,7.62913 -24.9601,9.01339 -24.9601,10.6493 L-24.9601,37.5795 C-26.4073,38.4604 -27.0365,39.53 -27.0365,41.7952 C-26.596,41.7952 -24.5825,41.7952 -24.5825,41.7952 L-24.5825,47.8356 L-20.1781,47.8356 C-16.9691,47.8356 -14.3894,45.2558 -14.3894,42.0469 C-14.3894,40.4109 -15.0186,38.9637 -16.0882,37.957 Z " fill="#857f7f" fill-opacity="1.00" />			<path d="M-52.194,77.1832 L-52.2277,80.6396 L-53.5794,80.6264 L-53.5456,77.17 L-55.2256,77.1536 L-55.2593,80.61 L-56.611,80.5968 L-56.5773,77.1404 L-58.2572,77.124 L-58.2909,80.5804 L-59.6426,80.5672 L-59.6089,77.1108 L-60.7675,77.0995 C-63.5674,77.0722 -65.8682,79.3285 -65.8955,82.1284 C-65.8957,82.1477 -65.8961,82.1863 -65.8962,82.2056 L-65.9185,84.4842 L-46.6087,84.6726 L-46.536,77.2191 L-52.1938,77.1638 L-52.194,77.1832 Z " fill="#353a57" fill-opacity="1.00" />			<path d="M-35.682,77.1832 L-35.6483,80.6396 L-34.2966,80.6264 L-34.3303,77.17 L-32.6504,77.1536 L-32.6167,80.61 L-31.265,80.5968 L-31.2987,77.1404 L-29.6188,77.124 L-29.585,80.5804 L-28.2333,80.5672 L-28.2671,77.1108 L-27.1085,77.0995 C-24.3086,77.0722 -22.0078,79.3285 -21.9805,82.1284 C-21.9803,82.1477 -21.9799,82.1863 -21.9797,82.2056 L-21.9575,84.4842 L-41.2672,84.6726 L-41.34,77.2191 L-35.6822,77.1638 L-35.682,77.1832 Z " fill="#353a57" fill-opacity="1.00" />			<path d="M-0.552956,-23.1962 C-5.24543,-23.1962 -9.08723,-19.5809 -9.08723,-15.0487 L-9.08723,-5.59137 C-9.08723,-4.36008 -8.73049,-3.52176 -8.0719,-2.84062 C-7.4133,-2.23807 -2.28176,2.24172 -2.28176,2.24172 C-1.78782,2.71328 -1.21155,3.00145 -0.552956,3.00145 C0.105638,3.00145 0.681907,2.71328 1.17585,2.24172 C1.17585,2.24172 6.25251,-2.18568 6.96599,-2.86681 C7.62458,-3.49556 7.98132,-4.38628 7.98132,-5.61756 L7.98132,-15.0487 C7.98132,-19.5285 4.16696,-23.1962 -0.552956,-23.1962 Z " fill="#c5e0dc" fill-opacity="1.00" />			<path d="M8.06542,-24.1948 L7.98927,-25.6819 C7.97404,-25.9793 7.72493,-26.1853 7.44733,-26.1711 L7.36801,-26.167 C7.20938,-26.1589 7.07363,-26.0923 6.98058,-25.9682 C6.21838,-24.9352 5.00168,-24.2367 3.61368,-24.1656 L-1.89864,-23.8833 C-6.79628,-23.6325 -10.3383,-19.0377 -9.23993,-14.2829 C-9.11337,-13.7526 -8.99798,-13.4404 -8.83936,-13.4485 C-7.70913,-13.5064 -8.14961,-17.8377 -4.18391,-18.0407 C-1.90364,-18.1575 -0.544188,-17.2331 1.89472,-17.358 C5.56299,-17.5458 8.2492,-20.6058 8.06542,-24.1948 Z M8.26545,-20.2886 C7.62933,-19.1228 6.70647,-18.1213 5.5701,-17.407 C7.26717,-16.8776 6.84498,-14.2517 7.83641,-14.3024 C8.64937,-14.3441 8.41979,-17.2746 8.26545,-20.2886 Z " fill="#527779" fill-opacity="1.00" />			<path d="M122.097,30.0963 L105.218,0.862503 C103.441,-2.19301 100.065,-4.0098 96.4226,-4.0098 L71.7254,-4.0098 C67.9053,-4.0098 64.4406,-2.02784 62.7527,1.11025 L47.1171,30.0963 L56.8005,30.0963 L68.083,10.5245 C68.8826,9.12064 71.1924,9.61613 71.1924,11.2678 L71.1924,25.8021 L96.8668,25.8021 L96.8668,11.5155 C96.8668,9.86387 99.1766,9.36838 99.9762,10.7723 L111.17,30.1789 L122.097,30.1789 L122.097,30.0963 Z M122.808,32.326 L113.924,32.326 C113.657,33.895 113.924,35.7118 114.812,37.6112 C116.5,41.4099 119.876,43.7222 122.364,42.7313 C124.851,41.7403 125.562,37.9415 123.785,34.1428 C123.518,33.4821 123.163,32.9041 122.808,32.326 Z M46.4952,32.326 C46.1398,32.9041 45.7845,33.4821 45.518,34.1428 C43.7412,37.9415 44.4519,41.7403 46.9394,42.7313 C49.4269,43.7222 52.8027,41.4099 54.4907,37.6112 C55.3791,35.7118 55.6456,33.895 55.3791,32.326 L46.4952,32.326 Z " fill="#ffa538" fill-opacity="1.00" />			<path d="M71.2824,16.6062 L96.9784,16.6062 L96.9784,11.4785 L71.2824,11.4785 L71.2824,16.6062 Z " fill="#fbdd8f" fill-opacity="1.00" />			<path d="M30.3939,35.1492 L35.3829,84.3205 L40.9955,84.3205 L40.9955,35.1492 L30.3939,35.1492 Z M54.5593,35.1492 L43.3861,35.1492 L43.3861,84.3205 L49.6223,84.3205 L54.5593,35.1492 Z M62.7704,83.1212 C61.1593,80.45 58.353,78.7601 55.2869,78.7601 L52.3766,78.7601 L51.6491,84.375 L63.394,84.375 L62.7704,83.1212 Z M29.6664,78.7056 C26.6522,78.7056 23.7939,80.3955 22.1829,83.0667 L21.4553,84.266 L33.2002,84.266 L32.4727,78.6511 L29.6664,78.7056 Z " fill="#fbdd8f" fill-opacity="1.00" />			<path d="M76.0743,-15.5111 L76.0743,-22.3709 C76.0743,-24.0369 77.2447,-25.3598 78.6705,-25.3598 L89.9281,-25.3598 C91.3752,-25.3598 92.5244,-24.0124 92.5244,-22.3709 L92.5244,-15.5111 C93.8651,-15.5111 94.9291,-14.2616 94.9291,-12.7427 C94.9291,-11.1992 93.8438,-9.97425 92.5244,-9.97425 L92.5244,-9.85176 C92.5244,-5.63788 89.5664,-2.23247 85.906,-2.23247 L82.6713,-2.23247 C79.011,-2.23247 76.053,-5.63788 76.053,-9.85176 L76.053,-9.97425 C74.7123,-9.97425 73.6483,-11.2237 73.6483,-12.7427 C73.6695,-14.2616 74.7549,-15.5111 76.0743,-15.5111 Z " fill="#e3cbe8" fill-opacity="1.00" />			<path d="M29.9566,7.8134 L39.0103,7.8134 C39.7392,7.8134 40.353,6.89471 40.353,5.80376 C40.353,5.80376 40.353,5.51667 40.353,5.34441 C40.3147,5.6315 40.1612,5.80376 39.9694,5.80376 L39.8543,5.80376 L39.8543,4.19604 L39.9694,4.19604 C40.1612,4.19604 40.3147,4.42571 40.353,4.65539 C40.353,4.25346 40.353,3.85153 40.353,3.85153 C40.353,2.12897 41.2738,0.750931 42.4247,0.750931 C43.5756,0.750931 44.4963,2.12897 44.4963,3.85153 C44.4963,3.85153 44.4963,4.25346 44.4963,4.65539 C44.5346,4.36829 44.6881,4.19604 44.8799,4.19604 L44.995,4.19604 L44.995,5.80376 L44.8799,5.80376 C44.6881,5.80376 44.5346,5.57408 44.4963,5.34441 C44.4963,5.51667 44.4963,5.80376 44.4963,5.80376 C44.4963,6.89471 45.1101,7.8134 45.839,7.8134 L54.8927,7.8134 C59.2661,7.8134 62.8339,13.1533 62.8339,19.699 L62.8339,57.0785 C62.8339,57.6527 62.527,58.112 62.1433,58.112 C61.7597,58.112 61.4528,57.6527 61.4528,57.0785 L61.4528,53.6908 C61.4528,53.4611 61.3377,53.2889 61.1843,53.2889 C61.0308,53.2889 60.9157,53.4611 60.9157,53.6908 L60.9157,57.0785 C60.9157,57.6527 60.6088,58.112 60.2252,58.112 C59.8415,58.112 59.5346,57.6527 59.5346,57.0785 L59.5346,53.7482 C59.5346,53.5185 59.4196,53.3463 59.2661,53.3463 C59.1126,53.3463 58.9976,53.5185 58.9976,53.7482 L58.9976,57.0785 C58.9976,57.6527 58.6907,58.112 58.307,58.112 C57.9234,58.112 57.6165,57.6527 57.6165,57.0785 L57.6165,53.7482 C57.6165,53.5185 57.5014,53.3463 57.3479,53.3463 C57.1945,53.3463 57.0794,53.5185 57.0794,53.7482 L57.0794,57.0785 C57.0794,57.6527 56.7725,58.112 56.3889,58.112 C56.0052,58.112 55.6983,57.6527 55.6983,57.0785 L55.6983,53.7482 C55.6983,53.5185 55.5832,53.3463 55.4298,53.3463 L54.6625,55.0114 C54.3556,55.4133 53.8953,55.4133 53.6267,54.954 C53.3582,54.4946 53.3582,54.0353 53.6651,53.4037 L55.0845,50.1308 L55.0845,35.4891 L29.7648,35.4891 L29.7648,50.1308 L31.1842,53.4037 C31.4911,54.0353 31.4911,54.4946 31.2226,54.954 C30.9541,55.4133 30.4937,55.4133 30.1868,55.0114 L29.4195,53.3463 C29.2661,53.3463 29.151,53.5185 29.151,53.7482 L29.151,57.0785 C29.151,57.6527 28.8441,58.112 28.4605,58.112 C28.0768,58.112 27.7699,57.6527 27.7699,57.0785 L27.7699,53.7482 C27.7699,53.5185 27.6548,53.3463 27.5014,53.3463 C27.3479,53.3463 27.2328,53.5185 27.2328,53.7482 L27.2328,57.0785 C27.2328,57.6527 26.9259,58.112 26.5423,58.112 C26.1587,58.112 25.8518,57.6527 25.8518,57.0785 L25.8518,53.7482 C25.8518,53.5185 25.7367,53.3463 25.5832,53.3463 C25.4298,53.3463 25.3147,53.5185 25.3147,53.7482 L25.3147,57.0785 C25.3147,57.6527 25.0078,58.112 24.6241,58.112 C24.2405,58.112 23.9336,57.6527 23.9336,57.0785 L23.9336,53.6908 C23.9336,53.4611 23.8185,53.2889 23.6651,53.2889 C23.5116,53.2889 23.3965,53.4611 23.3965,53.6908 L23.3965,57.0785 C23.3965,57.6527 23.0896,58.112 22.706,58.112 C22.3223,58.112 22.0154,57.6527 22.0154,57.0785 L22.0154,19.699 C22.0154,13.1533 25.5832,7.8134 29.9566,7.8134 Z " fill="#bde9b7" fill-opacity="1.00" />			<path d="M52.2983,-2.31273 L52.2983,-3.86227 C52.2983,-8.09457 47.8507,-11.5637 42.4247,-11.5637 C36.9986,-11.5637 32.5511,-8.09457 32.5511,-3.86227 L32.5511,-2.31273 C31.454,-2.31273 30.5645,-1.61891 30.5645,-0.763202 C30.5645,0.0925094 31.454,0.78633 32.5511,0.78633 L32.5511,3.86227 C32.5511,8.09457 36.9986,11.5637 42.4247,11.5637 C47.8507,11.5637 52.2983,8.09457 52.2983,3.86227 L52.2983,0.78633 C53.3953,0.78633 54.2848,0.0925094 54.2848,-0.763202 C54.2848,-1.61891 53.3953,-2.31273 52.2983,-2.31273 Z " fill="#f9b194" fill-opacity="1.00" />			<path d="M58.3865,-9.9333 C58.2092,-11.9906 56.4001,-13.4804 54.3783,-13.303 C53.2432,-13.1966 52.1437,-12.7 50.7958,-12.097 C50.6894,-14.6864 49.6962,-17.4531 48.7739,-19.404 C48.1,-20.8938 46.2555,-21.4613 44.8721,-20.6455 L44.8367,-20.6455 C43.4888,-19.8296 41.7862,-19.8296 40.4383,-20.6455 C39.0195,-21.4968 37.2105,-20.9292 36.5365,-19.4395 C35.6143,-17.4176 34.5501,-14.5445 34.5147,-11.9551 C32.954,-12.6291 31.748,-13.2675 30.471,-13.374 C28.4137,-13.5513 26.6402,-12.0261 26.4628,-10.0042 C26.2855,-7.94693 28.2009,-6.35075 30.0454,-5.46398 C31.5706,-4.75456 37.4942,-2.94555 42.4247,-2.94555 C47.3906,-2.94555 53.3142,-4.79003 54.804,-5.46398 C56.6484,-6.27981 58.5639,-7.87599 58.3865,-9.9333 Z M47.9581,-10.9619 C46.4683,-10.4654 44.6948,-10.0752 42.4247,-9.9333 C40.1545,-10.0752 38.3455,-10.5008 36.8912,-10.9619 C36.5365,-11.0684 36.6075,-11.6359 36.9976,-11.6359 L47.8517,-11.6359 C48.2419,-11.6359 48.3128,-11.1038 47.9581,-10.9619 Z " fill="#353a57" fill-opacity="1.00" />			<path d="M6.4152,-11.6555 L5.25818,-11.6555 C4.74909,-12.396 3.9006,-12.8896 2.94413,-12.8896 C1.58655,-12.8896 0.460382,-11.9177 0.198123,-10.6373 C-0.0178546,-10.7761 -0.264686,-10.8687 -0.526945,-10.8687 C-0.773777,-10.8687 -0.989755,-10.807 -1.20573,-10.6836 C-1.48342,-11.9486 -2.59416,-12.9051 -3.95174,-12.9051 C-3.96716,-12.9051 -3.96716,-12.9051 -3.98259,-12.9051 C-3.99802,-12.9051 -4.01345,-12.9051 -4.01345,-12.9051 C-4.96992,-12.9051 -5.8184,-12.4114 -6.32749,-11.6709 L-7.48452,-11.6709 L-7.48452,-11.2081 L-6.57433,-11.2081 C-6.7286,-10.8687 -6.80573,-10.4985 -6.80573,-10.0974 C-6.80573,-8.55466 -5.55614,-7.28965 -3.99802,-7.28965 C-2.45532,-7.28965 -1.19031,-8.53923 -1.19031,-10.0974 L-1.17488,-10.0974 C-1.17488,-10.0974 -1.17488,-10.0974 -1.17488,-10.0974 L-1.1286,-10.0974 C-1.1286,-10.1128 -1.1286,-10.1282 -1.1286,-10.1436 C-0.974328,-10.3133 -0.742923,-10.4059 -0.511518,-10.4059 C-0.249259,-10.4059 -0.0178546,-10.2979 0.151842,-10.0974 L0.167269,-10.1128 C0.167269,-10.1128 0.167269,-10.0974 0.167269,-10.0974 C0.167269,-8.55466 1.41686,-7.28965 2.97498,-7.28965 C4.51768,-7.28965 5.78269,-8.53923 5.78269,-10.0974 C5.78269,-10.4985 5.70556,-10.8687 5.55129,-11.2081 L6.46148,-11.2081 L6.46148,-11.6555 L6.4152,-11.6555 Z M-4.01345,-7.73703 C-5.30931,-7.73703 -6.34292,-8.78606 -6.34292,-10.0665 L-6.28121,-10.0665 C-6.28121,-11.3469 -5.2476,-12.3806 -3.98259,-12.396 C-2.70215,-12.3806 -1.68397,-11.3315 -1.68397,-10.0665 C-1.68397,-8.78606 -2.71758,-7.73703 -4.01345,-7.73703 Z M2.94413,-7.73703 C1.64826,-7.73703 0.614652,-8.78606 0.614652,-10.0665 C0.614652,-11.3624 1.66369,-12.396 2.94413,-12.396 C4.24,-12.396 5.28903,-11.3469 5.28903,-10.0665 C5.2736,-8.78606 4.24,-7.73703 2.94413,-7.73703 Z " fill="#527779" fill-opacity="1.00" />			<path d="M96.8321,-8.28431 C95.6758,-8.28431 94.7628,-9.22766 94.7628,-10.3536 L94.7628,-18.7829 C94.7628,-24.656 90.0157,-29.4032 84.1425,-29.4032 L84.1425,-29.1598 L84.1425,-29.4032 C78.2694,-29.4032 73.5222,-24.656 73.5222,-18.7829 L73.5222,-10.3536 C73.5222,-9.19723 72.5789,-8.28431 71.4529,-8.28431 C70.9052,-8.28431 70.4487,-7.82785 70.4487,-7.28009 C70.4487,-6.73234 70.9052,-6.27588 71.4529,-6.27588 C73.5526,-6.27588 76.9609,-7.52354 76.9609,-11.0535 C76.9609,-15.8007 74.8003,-21.1869 77.8129,-23.7127 C79.4258,-22.0694 81.6776,-21.0652 84.1425,-21.0652 C86.6378,-21.0652 88.8593,-22.0999 90.4721,-23.7127 L91.2633,-22.7998 C93.0587,-20.0306 91.3242,-15.2834 91.3242,-11.0535 C91.3242,-7.52354 94.7324,-6.27588 96.8321,-6.27588 C97.3799,-6.27588 97.8363,-6.73234 97.8363,-7.28009 C97.8363,-7.82785 97.3799,-8.28431 96.8321,-8.28431 Z " fill="#c5e0dc" fill-opacity="1.00" />			<path d="M-75.1865,-10.0402 C-75.1865,-11.0501 -75.6662,-11.9591 -76.4237,-12.4388 C-76.4237,-12.5146 -76.4237,-12.5903 -76.4237,-12.7166 C-76.4237,-18.1199 -81.2715,-24.6341 -87.811,-24.6341 C-94.3504,-24.6341 -99.1983,-17.3876 -99.1983,-12.7418 C-99.1983,-12.6661 -99.1983,-12.5903 -99.1983,-12.4641 C-99.9557,-11.9591 -100.435,-11.0754 -100.435,-10.0402 C-100.435,-8.57575 -99.4255,-7.33855 -98.1378,-7.2628 C-96.3451,-3.12197 -92.5073,-0.395075 -87.811,-0.395075 C-83.1399,-0.395075 -79.2768,-3.12197 -77.4841,-7.28805 C-76.1964,-7.38905 -75.1865,-8.57575 -75.1865,-10.0402 Z " fill="#353a57" fill-opacity="1.00" />			<path d="M-69.8316,-8.9954 C-70.5891,-8.93316 -71.3939,-9.19482 -72.1687,-9.63837 C-72.3157,-9.70566 -72.3219,-9.8863 -72.2173,-9.99841 C-71.1371,-11.1931 -70.7296,-13.0156 -70.6038,-13.5625 C-70.5701,-13.636 -70.6449,-13.7058 -70.7532,-13.7021 C-71.6913,-13.6336 -72.6456,-14.0348 -73.4989,-14.6565 C-73.6472,-14.7599 -73.7618,-14.9369 -73.8415,-15.1511 C-73.8813,-15.2583 -73.9224,-15.4015 -73.9623,-15.5087 C-73.2048,-16.6199 -72.8908,-18.0052 -72.7986,-18.4786 C-72.7649,-18.5521 -72.8397,-18.6219 -72.948,-18.6181 C-73.6694,-18.5571 -74.4006,-18.7852 -75.0659,-19.1963 C-75.3985,-19.4019 -75.6613,-19.6822 -75.8183,-20.0385 C-75.974,-20.3587 -76.1297,-20.6789 -76.2854,-20.9991 C-78.616,-25.6572 -85.2945,-28.4296 -88.3917,-26.9846 C-91.5821,-28.2493 -98.0891,-24.987 -100.058,-20.1808 C-100.191,-19.8507 -100.323,-19.4844 -100.458,-19.1904 C-100.59,-18.8241 -100.833,-18.5264 -101.15,-18.2985 C-101.787,-17.8787 -102.501,-17.6009 -103.223,-17.576 C-103.296,-17.5735 -103.366,-17.4988 -103.363,-17.4265 C-103.238,-16.9606 -102.831,-15.6363 -101.998,-14.5437 C-102.03,-14.434 -102.061,-14.2883 -102.094,-14.1787 C-102.124,-13.9968 -102.226,-13.8124 -102.402,-13.6617 C-103.21,-12.9828 -104.098,-12.5181 -105.075,-12.5207 C-105.147,-12.5182 -105.217,-12.4434 -105.215,-12.3712 C-105.088,-11.833 -104.52,-10.044 -103.36,-8.92645 C-103.248,-8.82179 -103.241,-8.64115 -103.384,-8.56392 C-104.126,-8.06814 -104.912,-7.78788 -105.671,-7.76177 C-105.743,-7.75928 -105.813,-7.68454 -105.773,-7.57739 C-105.217,-6.14968 -103.881,-4.09776 -101.171,-3.14207 C-100.512,-2.91156 -99.7847,-2.79192 -99.0236,-2.74577 C-99.1245,-2.52527 -99.1893,-2.30602 -99.2939,-2.1939 C-99.7063,-1.5648 -100.054,-1.15495 -100.441,-0.852248 C-100.511,-0.777505 -100.507,-0.66912 -100.398,-0.636723 C-95.9131,1.45151 -92.6128,-1.44726 -92.6128,-1.44726 C-92.6128,-1.44726 -94.5412,-2.82772 -95.8292,-5.56856 C-97.9766,-10.1607 -97.1928,-13.6601 -96.9935,-14.1734 C-96.9947,-14.2095 -96.9237,-14.2481 -96.8876,-14.2493 C-92.516,-14.3998 -89.7092,-15.8709 -88.0372,-17.737 C-86.2409,-15.9903 -83.3407,-14.7518 -78.968,-14.8662 C-78.9318,-14.8674 -78.8583,-14.8338 -78.8571,-14.7976 C-78.6578,-14.2619 -77.6003,-10.8621 -79.427,-6.13314 C-80.4885,-3.3476 -82.3524,-1.80044 -82.3524,-1.80044 C-82.3524,-1.80044 -78.8605,0.864539 -74.53,-1.52713 C-74.459,-1.56574 -74.4278,-1.7115 -74.5013,-1.74514 C-74.9099,-2.05662 -75.2837,-2.40546 -75.7383,-3.00472 C-75.8517,-3.1455 -75.9302,-3.32365 -76.046,-3.53669 C-75.2898,-3.63506 -74.5361,-3.80569 -73.9306,-4.07973 C-71.2558,-5.18459 -70.1008,-7.35844 -69.6448,-8.82098 C-69.6485,-8.92936 -69.7233,-8.99913 -69.8316,-8.9954 Z " fill="#f9b194" fill-opacity="1.00" />			<path d="M-33.5648,-21.3601 L-34.3271,-21.3601 L-35.336,-21.3601 L-36.5018,-23.759 L-36.5018,-25.7992 C-36.5018,-26.6511 -37.2192,-27.3686 -38.0712,-27.3686 L-42.1291,-27.3686 L-43.833,-26.2476 L-45.5369,-27.3686 L-49.5724,-27.3686 C-50.4244,-27.3686 -51.1418,-26.6511 -51.1418,-25.7992 L-51.1418,-23.759 L-52.3076,-21.3601 L-53.3165,-21.3601 L-54.0788,-21.3601 C-54.6168,-21.3601 -55.0652,-20.9117 -55.0652,-20.3737 L-55.0652,-19.6562 L-55.0652,-17.1676 C-54.2581,-17.1676 -53.5855,-16.4951 -53.5855,-15.688 L-53.5855,-10.4193 C-53.5855,-8.80514 -53.2717,-8.06529 -52.3749,-7.48238 L-35.3584,-7.48238 C-34.5065,-8.11013 -34.1478,-8.78272 -34.1478,-10.4193 L-34.1478,-15.688 C-34.1478,-16.4951 -33.4752,-17.1676 -32.6681,-17.1676 L-32.6681,-19.6786 L-32.6681,-20.3961 C-32.5784,-20.9117 -33.0268,-21.3601 -33.5648,-21.3601 Z " fill="#542237" fill-opacity="1.00" />			<path d="M-36.1131,-16.1707 L-51.6001,-16.1707 C-53.5303,-16.1707 -55.079,-14.622 -55.079,-12.6918 L-55.079,0.236514 C-55.079,2.16678 -53.5303,3.71547 -51.6001,3.71547 L-36.1355,3.71547 C-34.2053,3.71547 -32.6566,2.16678 -32.6566,0.236514 L-32.6566,-12.6918 C-32.7239,-14.622 -34.2502,-16.1707 -36.1131,-16.1707 Z M-38.2005,-8.0681 L-49.5351,-8.0681 C-50.4554,-8.0681 -51.241,-8.83123 -51.241,-9.77391 C-51.241,-10.7166 -50.4778,-11.4797 -49.5351,-11.4797 L-38.2454,-11.4797 C-37.3251,-11.4797 -36.5395,-10.7166 -36.5395,-9.77391 C-36.562,-8.85367 -37.2578,-8.0681 -38.2005,-8.0681 Z " fill="#bde9b7" fill-opacity="1.00" />			<path d="M-48.2256,-23.9566 L-47.1051,-21.9399 L-33.0101,-21.9399 C-33.0101,-25.7045 -36.0577,-28.7297 -39.7999,-28.7297 L-48.6289,-28.7297 C-52.3936,-28.7297 -55.4187,-25.6821 -55.4187,-21.9174 L-49.4356,-21.9174 L-48.2256,-23.9566 Z " fill="#bde9b7" fill-opacity="1.00" />			<path d="M-79.0077,20.4398 C-79.0077,18.6853 -82.9491,17.2629 -87.811,17.2629 C-92.6729,17.2629 -96.6142,18.6853 -96.6142,20.4398 C-96.6142,22.1944 -92.6729,23.6168 -87.811,23.6168 C-82.9491,23.6168 -79.0077,22.1944 -79.0077,20.4398 Z M-85.0825,18.859 C-87.5134,14.6486 -90.709,11.9426 -92.22,12.815 C-93.731,13.6874 -92.9852,17.8078 -90.5543,22.0182 C-88.1233,26.2286 -84.9278,28.9346 -83.4168,28.0622 C-81.9058,27.1898 -82.6515,23.0694 -85.0825,18.859 Z M-90.5433,18.8647 C-92.9743,23.0752 -93.7201,27.1956 -92.2091,28.068 C-90.6981,28.9404 -87.5025,26.2344 -85.0716,22.024 C-82.6406,17.8136 -81.8948,13.6932 -83.4058,12.8208 C-84.9168,11.9484 -88.1124,14.6543 -90.5433,18.8647 Z " fill="none" stroke-width="2.00" stroke="#bde9b7" stroke-linecap="square" stroke-linejoin="miter" />			<path d="M45.3143,19.2187 C44.2051,19.2187 43.1981,19.642 42.4247,20.3133 C41.6658,19.6274 40.6442,19.2187 39.5351,19.2187 C37.1416,19.2187 35.2152,21.1452 35.2152,23.5386 C35.2152,25.932 37.1416,27.8584 39.5351,27.8584 C40.6442,27.8584 41.6512,27.4351 42.4247,26.7638 C43.1835,27.4497 44.2051,27.8584 45.3143,27.8584 C47.7077,27.8584 49.6341,25.932 49.6341,23.5386 C49.6341,21.1597 47.7077,19.2187 45.3143,19.2187 Z M39.5351,24.998 C38.747,24.998 38.0903,24.3558 38.0903,23.5532 C38.0903,22.7651 38.7324,22.1084 39.5351,22.1084 C40.3377,22.1084 40.9799,22.7505 40.9799,23.5532 C40.9799,24.3412 40.3377,24.998 39.5351,24.998 Z M45.3143,24.998 C44.5262,24.998 43.8695,24.3558 43.8695,23.5532 C43.8695,22.7651 44.5116,22.1084 45.3143,22.1084 C46.1023,22.1084 46.7591,22.7505 46.7591,23.5532 C46.7445,24.3412 46.1023,24.998 45.3143,24.998 Z " fill="#e3cbe8" fill-opacity="1.00" />			<path d="M-12.6766,39.783 L-10.9562,39.783 L-10.9562,32.9014 L-12.6766,32.9014 L-12.6766,39.783 Z M-9.26182,39.783 L-7.54142,39.783 L-7.54142,32.9014 L-9.26182,32.9014 L-9.26182,39.783 Z M-5.79493,39.783 L-4.07452,39.783 L-4.07452,32.9014 L-5.79493,32.9014 L-5.79493,39.783 Z M-2.38018,39.783 L-0.659776,39.783 L-0.659776,32.9014 L-2.38018,32.9014 L-2.38018,39.783 Z M1.06062,39.783 L2.78103,39.783 L2.78103,32.9014 L1.06062,32.9014 L1.06062,39.783 Z M4.50146,39.783 L6.22186,39.783 L6.22186,32.9014 L4.50146,32.9014 L4.50146,39.783 Z M7.94226,39.783 L9.66267,39.783 L9.66267,32.9014 L7.94226,32.9014 L7.94226,39.783 Z M11.357,39.783 L13.0774,39.783 L13.0774,32.9014 L11.357,32.9014 L11.357,39.783 Z " fill="#542237" fill-opacity="1.00" />			<path d="M-52.5405,16.3751 L-48.6956,16.3751 L-48.6956,6.73034 L-52.5405,6.73034 L-52.5405,16.3751 Z M-55.4187,13.4535 L-45.7739,13.4535 L-45.7739,9.60858 L-55.4187,9.60858 L-55.4187,13.4535 Z " fill="#e3cbe8" fill-opacity="1.00" />			<path d="M72.2824,16.6913 C80.1652,16.6913 88.1198,16.6913 96.0027,16.6913 M96.0027,11.5637 C88.1198,11.5637 80.1652,11.5637 72.2824,11.5637 " fill="none" stroke-width="2.00" stroke="#e3cbe8" stroke-linecap="square" stroke-linejoin="miter" />		</g>	</svg>