<?xml version="1.0" encoding="utf-8" ?>	<!-- Generator: Assembly 2.4 - http://assemblyapp.co -->	<svg version="1.1" xmlns="http://www.w3.org/2000/svg" xmlns:xlink="http://www.w3.org/1999/xlink" width="4096.00" height="2304.00" viewBox="0 0 4096.0 2304.0">		<g id="document" transform="scale(13.653333333333334 13.653333333333334) translate(150.0 84.37499937135726)">			<path d="M-77.9164,-13.5688 L-77.9164,-15.3586 C-77.9164,-20.2473 -82.3639,-24.2544 -87.79,-24.2544 C-93.216,-24.2544 -97.6636,-20.2473 -97.6636,-15.3586 L-97.6636,-13.5688 C-98.7606,-13.5688 -99.6501,-12.7674 -99.6501,-11.779 C-99.6501,-10.7906 -98.7606,-9.98914 -97.6636,-9.98914 L-97.6636,-6.43619 C-97.6636,-1.54755 -93.216,2.45954 -87.79,2.45954 C-82.3639,2.45954 -77.9164,-1.54755 -77.9164,-6.43619 L-77.9164,-9.98914 C-76.8193,-9.98914 -75.9298,-10.7906 -75.9298,-11.779 C-75.9298,-12.7674 -76.8193,-13.5688 -77.9164,-13.5688 Z " fill="#353a57" fill-opacity="1.00" />			<path d="M-58.9253,75.7863 L-60.9909,75.7863 C-63.6545,75.7863 -65.8289,77.9606 -65.8289,80.6242 L-65.8289,84.375 L-51.0432,84.375 C-48.5427,84.375 -46.477,82.3637 -46.477,79.8088 L-46.477,45.6713 C-46.477,44.2036 -45.3355,43.0621 -43.8678,43.0621 C-42.4001,43.0621 -41.2586,44.2036 -41.2586,45.6713 L-41.2586,79.8088 C-41.2586,82.3094 -39.2473,84.375 -36.6924,84.375 L-21.9067,84.375 L-21.9067,80.6242 C-21.9067,77.9606 -24.0811,75.7863 -26.7447,75.7863 L-28.8103,75.7863 L-28.8103,30.0159 L-58.7622,30.0159 L-58.7622,75.7863 L-58.9253,75.7863 Z " fill="#ffa538" fill-opacity="1.00" />			<path d="M-14.8081,75.7863 L-16.7277,75.7863 C-19.2031,75.7863 -21.2238,77.9606 -21.2238,80.6242 L-21.2238,84.375 L-7.48296,84.375 C-5.15914,84.375 -3.23946,82.3637 -3.23946,79.8088 L-3.23946,45.6713 C-3.23946,44.2036 -2.17858,43.0621 -0.814602,43.0621 C0.549381,43.0621 1.61026,44.2036 1.61026,45.6713 L1.61026,79.8088 C1.61026,82.3094 3.47942,84.375 5.85376,84.375 L19.5946,84.375 L19.5946,80.6242 C19.5946,77.9606 17.5739,75.7863 15.0985,75.7863 L13.1788,75.7863 L13.1788,30.0159 L-14.6565,30.0159 L-14.6565,75.7863 L-14.8081,75.7863 Z " fill="#dce9eb" fill-opacity="1.00" />			<path d="M30.216,76.5046 L28.3354,76.5046 C25.9104,76.5046 23.9309,78.4971 23.9309,80.9379 L23.9309,84.375 L37.392,84.375 C39.6685,84.375 41.5491,82.5319 41.5491,80.1907 L41.5491,48.9085 C41.5491,47.5636 42.5883,46.5175 43.9245,46.5175 C45.2608,46.5175 46.3,47.5636 46.3,48.9085 L46.3,80.1907 C46.3,82.4821 48.1311,84.375 50.4571,84.375 L63.9182,84.375 L63.9182,80.9379 C63.9182,78.4971 61.9387,76.5046 59.5137,76.5046 L57.6331,76.5046 L57.6331,34.5625 L30.3645,34.5625 L30.3645,76.5046 L30.216,76.5046 Z " fill="#ffe875" fill-opacity="1.00" />			<path d="M72.5294,75.7863 L70.5571,75.7863 C68.0138,75.7863 65.9376,77.9606 65.9376,80.6242 L65.9376,84.375 L80.0556,84.375 C82.4432,84.375 84.4155,82.3637 84.4155,79.8088 L84.4155,45.6713 C84.4155,44.2036 85.5055,43.0621 86.9069,43.0621 C88.3083,43.0621 89.3983,44.2036 89.3983,45.6713 L89.3983,79.8088 C89.3983,82.3094 91.3188,84.375 93.7583,84.375 L107.876,84.375 L107.876,80.6242 C107.876,77.9606 105.8,75.7863 103.257,75.7863 L101.284,75.7863 L101.284,30.0159 L72.6852,30.0159 L72.6852,75.7863 L72.5294,75.7863 Z " fill="#527779" fill-opacity="1.00" />			<path d="M-102.847,75.7863 L-104.913,75.7863 C-107.577,75.7863 -109.751,77.9606 -109.751,80.6242 L-109.751,84.375 L-94.9654,84.375 C-92.4649,84.375 -90.3992,82.3637 -90.3992,79.8088 L-90.3992,45.6713 C-90.3992,44.2036 -89.2577,43.0621 -87.79,43.0621 C-86.3223,43.0621 -85.1807,44.2036 -85.1807,45.6713 L-85.1807,79.8088 C-85.1807,82.3094 -83.1694,84.375 -80.6146,84.375 L-65.8289,84.375 L-65.8289,80.6242 C-65.8289,77.9606 -68.0033,75.7863 -70.6668,75.7863 L-72.7325,75.7863 L-72.7325,30.0159 L-102.684,30.0159 L-102.684,75.7863 L-102.847,75.7863 Z " fill="#542237" fill-opacity="1.00" />			<path d="M113.24,37.957 L113.24,1.39996 C113.24,-2.24945 110.77,-4.64045 106.915,-5.20673 L91.6737,-7.40897 L91.6737,-15.0853 L81.6133,-15.0853 L81.6133,-7.40897 L66.3722,-5.20673 C62.5167,-4.64045 60.0468,-2.24945 60.0468,1.39996 L60.0468,37.957 C59.0227,39.0267 58.4202,40.4738 58.4202,42.0469 C58.4202,45.2558 60.8902,47.8356 63.9625,47.8356 L68.1794,47.8356 L68.1794,41.7952 C68.1794,41.7952 70.1072,41.7952 70.5288,41.7952 C70.5288,39.593 69.9264,38.5233 68.5409,37.5795 L68.5409,10.7123 C68.5409,9.01339 69.8662,7.69205 71.4325,7.69205 L71.9144,7.69205 L71.9144,31.2245 L101.373,31.2245 L101.373,7.62913 L101.855,7.62913 C103.481,7.62913 104.746,9.01339 104.746,10.6493 L104.746,37.5795 C103.361,38.4604 102.758,39.53 102.758,41.7952 C103.18,41.7952 105.108,41.7952 105.108,41.7952 L105.108,47.8356 L109.325,47.8356 C112.397,47.8356 114.867,45.2558 114.867,42.0469 C114.867,40.4109 114.264,38.9637 113.24,37.957 Z " fill="#79bd9a" fill-opacity="1.00" />			<path d="M24.6204,35.5729 L24.6204,34.5411 L27.0876,34.5411 L27.0876,32.7468 L24.6204,32.7468 L24.6204,31.7151 L27.0876,31.7151 L27.0876,29.9208 L24.6204,29.9208 L24.6204,28.889 L27.0876,28.889 L27.0876,11.2149 L20.5831,11.2149 L20.5831,42.3016 C18.6991,42.795 17.3534,44.5445 17.3534,46.5631 L17.3534,49.5686 L18.3851,49.5686 C19.2374,49.5686 19.9103,48.8957 19.9103,48.0434 L19.9103,46.8771 C19.9103,46.4285 20.2691,46.0697 20.7177,46.0697 L20.7177,50.1966 L18.5197,50.1966 C17.6674,50.1966 16.9945,50.8695 16.9945,51.7218 L16.9945,52.7535 L21.3009,52.7535 C21.3009,53.1573 20.9869,53.4713 20.5831,53.4713 L18.0711,53.4713 C17.2188,53.4713 16.5459,54.1441 16.5459,54.9964 L16.5459,56.0282 L20.8074,56.0282 C24.3064,56.0282 27.1773,53.2021 27.1773,49.6583 L27.1773,35.528 L24.6204,35.528 L24.6204,35.5729 Z " fill="#527779" fill-opacity="1.00" />			<path d="M-23.961,37.8158 L-23.961,36.784 L-26.4282,36.784 L-26.4282,34.9897 L-23.961,34.9897 L-23.961,33.958 L-26.4282,33.958 L-26.4282,32.1637 L-23.961,32.1637 L-23.961,31.1319 L-26.4282,31.1319 L-26.4282,13.4578 L-19.9237,13.4578 L-19.9237,44.5445 C-18.0397,45.0379 -16.694,46.7874 -16.694,48.806 L-16.694,51.8115 L-17.7257,51.8115 C-18.578,51.8115 -19.2509,51.1386 -19.2509,50.2863 L-19.2509,49.12 C-19.2509,48.6714 -19.6097,48.3126 -20.0583,48.3126 L-20.0583,52.4395 L-17.8603,52.4395 C-17.008,52.4395 -16.3351,53.1124 -16.3351,53.9647 L-16.3351,54.9964 L-20.6415,54.9964 C-20.6415,55.4002 -20.3275,55.7142 -19.9237,55.7142 L-17.4117,55.7142 C-16.5594,55.7142 -15.8865,56.387 -15.8865,57.2393 L-15.8865,58.2711 L-20.148,58.2711 C-23.647,58.2711 -26.5179,55.445 -26.5179,51.9012 L-26.5179,37.7709 L-23.961,37.7709 L-23.961,37.8158 Z " fill="#527779" fill-opacity="1.00" />			<path d="M11.0349,2.07364e-07 L-10.9262,2.07364e-07 C-19.8411,2.07364e-07 -27.1252,7.28412 -27.1252,16.199 L-20.3303,16.199 C-20.3303,12.8288 -18.5365,9.94772 -15.8729,8.31694 C-15.8729,19.2975 -15.8729,37.3447 -15.8729,37.4534 C-15.8729,38.758 -14.84,39.8452 -13.4811,39.8452 L13.6441,39.8452 C14.9488,39.8452 16.0359,38.8124 16.0359,37.4534 C16.0359,37.3447 16.0359,19.2975 16.0359,8.31694 C18.6995,9.94772 20.439,12.8831 20.439,16.199 L27.2339,16.199 C27.2339,7.28412 20.0042,2.07364e-07 11.0349,2.07364e-07 Z " fill="#783853" fill-opacity="1.00" />			<path d="M57.3926,13.2869 L47.6505,13.2869 C46.8661,13.2869 46.2057,12.4166 46.2057,11.3832 C46.2057,11.3832 46.2057,11.1112 46.2057,10.948 C46.2469,11.22 46.4121,11.3832 46.6185,11.3832 L46.7423,11.3832 L46.7423,9.86017 L46.6185,9.86017 C46.4121,9.86017 46.2469,10.0777 46.2057,10.2953 C46.2057,9.91456 46.2057,9.53382 46.2057,9.53382 C46.2057,7.90205 45.2149,6.59664 43.9765,6.59664 C42.7381,6.59664 41.7474,7.90205 41.7474,9.53382 C41.7474,9.53382 41.7474,9.91456 41.7474,10.2953 C41.7061,10.0233 41.541,9.86017 41.3346,9.86017 L41.2107,9.86017 L41.2107,11.3832 L41.3346,11.3832 C41.541,11.3832 41.7061,11.1656 41.7474,10.948 C41.7474,11.1112 41.7474,11.3832 41.7474,11.3832 C41.7474,12.4166 41.0869,13.2869 40.3026,13.2869 L30.5604,13.2869 C25.8545,13.2869 22.0154,18.3454 22.0154,24.5461 L22.0154,59.9554 C22.0154,60.4993 22.3457,60.9345 22.7585,60.9345 C23.1713,60.9345 23.5015,60.4993 23.5015,59.9554 L23.5015,56.7463 C23.5015,56.5287 23.6254,56.3655 23.7905,56.3655 C23.9556,56.3655 24.0795,56.5287 24.0795,56.7463 L24.0795,59.9554 C24.0795,60.4993 24.4097,60.9345 24.8225,60.9345 C25.2353,60.9345 25.5655,60.4993 25.5655,59.9554 L25.5655,56.8007 C25.5655,56.5831 25.6894,56.4199 25.8545,56.4199 C26.0196,56.4199 26.1435,56.5831 26.1435,56.8007 L26.1435,59.9554 C26.1435,60.4993 26.4737,60.9345 26.8865,60.9345 C27.2993,60.9345 27.6296,60.4993 27.6296,59.9554 L27.6296,56.8007 C27.6296,56.5831 27.7534,56.4199 27.9185,56.4199 C28.0836,56.4199 28.2075,56.5831 28.2075,56.8007 L28.2075,59.9554 C28.2075,60.4993 28.5377,60.9345 28.9505,60.9345 C29.3633,60.9345 29.6936,60.4993 29.6936,59.9554 L29.6936,56.8007 C29.6936,56.5831 29.8174,56.4199 29.9825,56.4199 L30.8081,57.9973 C31.1384,58.378 31.6337,58.378 31.9227,57.9429 C32.2117,57.5077 32.2117,57.0726 31.8814,56.4743 L30.354,53.3739 L30.354,39.5039 L57.599,39.5039 L57.599,53.3739 L56.0716,56.4743 C55.7414,57.0726 55.7414,57.5077 56.0304,57.9429 C56.3193,58.378 56.8147,58.378 57.1449,57.9973 L57.9705,56.4199 C58.1356,56.4199 58.2595,56.5831 58.2595,56.8007 L58.2595,59.9554 C58.2595,60.4993 58.5897,60.9345 59.0025,60.9345 C59.4153,60.9345 59.7456,60.4993 59.7456,59.9554 L59.7456,56.8007 C59.7456,56.5831 59.8694,56.4199 60.0345,56.4199 C60.1997,56.4199 60.3235,56.5831 60.3235,56.8007 L60.3235,59.9554 C60.3235,60.4993 60.6537,60.9345 61.0665,60.9345 C61.4793,60.9345 61.8096,60.4993 61.8096,59.9554 L61.8096,56.8007 C61.8096,56.5831 61.9334,56.4199 62.0985,56.4199 C62.2637,56.4199 62.3875,56.5831 62.3875,56.8007 L62.3875,59.9554 C62.3875,60.4993 62.7177,60.9345 63.1306,60.9345 C63.5434,60.9345 63.8736,60.4993 63.8736,59.9554 L63.8736,56.7463 C63.8736,56.5287 63.9974,56.3655 64.1626,56.3655 C64.3277,56.3655 64.4515,56.5287 64.4515,56.7463 L64.4515,59.9554 C64.4515,60.4993 64.7818,60.9345 65.1946,60.9345 C65.6074,60.9345 65.9376,60.4993 65.9376,59.9554 L65.9376,24.5461 C65.9376,18.3454 62.0985,13.2869 57.3926,13.2869 Z " fill="#ffa538" fill-opacity="1.00" />			<path d="M-112.337,36.1344 L-112.337,35.0721 L-114.877,35.0721 L-114.877,33.2246 L-112.337,33.2246 L-112.337,32.1624 L-114.877,32.1624 L-114.877,30.3149 L-112.337,30.3149 L-112.337,29.2526 L-114.877,29.2526 L-114.877,11.0551 L-108.18,11.0551 L-108.18,43.0624 C-106.24,43.5704 -104.855,45.3717 -104.855,47.4501 L-104.855,50.5446 L-105.917,50.5446 C-106.795,50.5446 -107.487,49.8518 -107.487,48.9742 L-107.487,47.7734 C-107.487,47.3115 -107.857,46.942 -108.319,46.942 L-108.319,51.1912 L-106.056,51.1912 C-105.178,51.1912 -104.485,51.884 -104.485,52.7615 L-104.485,53.8238 L-108.919,53.8238 C-108.919,54.2395 -108.596,54.5628 -108.18,54.5628 L-105.594,54.5628 C-104.716,54.5628 -104.023,55.2556 -104.023,56.1332 L-104.023,57.1954 L-108.411,57.1954 C-112.014,57.1954 -114.97,54.2857 -114.97,50.637 L-114.97,36.0882 L-112.337,36.0882 L-112.337,36.1344 Z " fill="#353a57" fill-opacity="1.00" />			<path d="M-86.2267,18.1101 L-86.2267,17.1928 L-83.1746,17.1928 L-83.1746,15.5974 L-86.2267,15.5974 L-86.2267,14.68 L-83.1746,14.68 L-83.1746,13.0846 L-86.2267,13.0846 L-86.2267,12.1673 L-83.1746,12.1673 L-83.1746,-3.54748 L-91.221,-3.54748 L-91.221,24.0929 C-93.5517,24.5316 -95.2165,26.0872 -95.2165,27.882 L-95.2165,30.5543 L-93.9401,30.5543 C-92.8858,30.5543 -92.0534,29.956 -92.0534,29.1982 L-92.0534,28.1612 C-92.0534,27.7623 -91.6095,27.4433 -91.0545,27.4433 L-91.0545,31.1127 L-93.7737,31.1127 C-94.828,31.1127 -95.6604,31.711 -95.6604,32.4688 L-95.6604,33.3861 L-90.3331,33.3861 C-90.3331,33.7451 -90.7216,34.0243 -91.221,34.0243 L-94.3286,34.0243 C-95.383,34.0243 -96.2153,34.6226 -96.2153,35.3804 L-96.2153,36.2978 L-90.9435,36.2978 C-86.6151,36.2978 -83.0636,33.785 -83.0636,30.6341 L-83.0636,18.0703 L-86.2267,18.0703 L-86.2267,18.1101 Z " fill="#353a57" fill-opacity="1.00" />			<path d="M-67.127,-0.22772 L-78.2595,-1.66671 C-79.8343,1.70748 -83.527,4.03964 -87.8171,4.03964 C-92.1072,4.03964 -95.7456,1.70748 -97.3748,-1.66671 L-108.507,-0.22772 C-112.417,0.318106 -114.97,2.40216 -114.97,5.67712 L-114.97,20.3152 L-106.281,20.3152 L-106.281,13.9637 C-106.281,12.4751 -104.977,11.2346 -103.294,11.2346 L-102.805,11.2346 L-102.805,38.1785 L-72.7747,38.1785 L-72.7747,11.2346 L-72.2859,11.2346 C-70.6568,11.2346 -69.2992,12.4255 -69.2992,13.9637 L-69.2992,20.3152 L-60.6104,20.3152 L-60.6104,5.67712 C-60.6647,2.45179 -63.217,0.318106 -67.127,-0.22772 Z " fill="#527779" fill-opacity="1.00" />			<path d="M-0.137731,25.9512 L-14.6531,10.7602 L-14.8559,20.6302 L-0.340554,35.8211 L13.9874,22.0702 L14.1903,12.2002 L-0.137731,25.9512 Z " fill="#fcea9b" fill-opacity="1.00" />			<path d="M-16.0882,37.957 L-16.0882,1.39996 C-16.0882,-2.24945 -18.668,-4.64045 -22.6949,-5.20673 L-38.6139,-7.40897 L-38.6139,-15.0853 L-49.1217,-15.0853 L-49.1217,-7.40897 L-65.0407,-5.20673 C-69.0676,-4.64045 -71.6474,-2.24945 -71.6474,1.39996 L-71.6474,37.957 C-72.717,39.0267 -73.3463,40.4738 -73.3463,42.0469 C-73.3463,45.2558 -70.7665,47.8356 -67.5575,47.8356 L-63.1531,47.8356 L-63.1531,41.7952 C-63.1531,41.7952 -61.1396,41.7952 -60.6991,41.7952 C-60.6991,39.593 -61.3284,38.5233 -62.7755,37.5795 L-62.7755,10.7123 C-62.7755,9.01339 -61.3913,7.69205 -59.7553,7.69205 L-59.252,7.69205 L-59.252,31.2245 L-28.4836,31.2245 L-28.4836,7.62913 L-27.9803,7.62913 C-26.2814,7.62913 -24.9601,9.01339 -24.9601,10.6493 L-24.9601,37.5795 C-26.4073,38.4604 -27.0365,39.53 -27.0365,41.7952 C-26.596,41.7952 -24.5825,41.7952 -24.5825,41.7952 L-24.5825,47.8356 L-20.1781,47.8356 C-16.9691,47.8356 -14.3894,45.2558 -14.3894,42.0469 C-14.3894,40.4109 -15.0186,38.9637 -16.0882,37.957 Z " fill="#857f7f" fill-opacity="1.00" />			<path d="M76.1549,-18.043 L76.1549,-25.8424 C76.1549,-27.7365 77.6869,-29.2407 79.5532,-29.2407 L94.2885,-29.2407 C96.1826,-29.2407 97.6868,-27.7087 97.6868,-25.8424 L97.6868,-18.043 C99.4417,-18.043 100.834,-16.6224 100.834,-14.8954 C100.834,-13.1405 99.4138,-11.7477 97.6868,-11.7477 L97.6868,-11.6085 C97.6868,-6.8174 93.815,-2.94555 89.0239,-2.94555 L84.7899,-2.94555 C79.9989,-2.94555 76.127,-6.8174 76.127,-11.6085 L76.127,-11.7477 C74.3722,-11.7477 72.9794,-13.1683 72.9794,-14.8954 C73.0073,-16.6224 74.4279,-18.043 76.1549,-18.043 Z " fill="#e3cbe8" fill-opacity="1.00" />			<path d="M96.1579,-14.6615 L96.1579,-21.0186 L94.1416,-21.0186 L94.1416,-16.4643 C94.1416,-15.6103 93.4537,-14.9224 92.5998,-14.9224 L88.7097,-14.9224 C88.7097,-15.9187 87.9032,-16.7252 86.9069,-16.7252 C85.9107,-16.7252 85.1042,-15.9187 85.1042,-14.9224 L81.214,-14.9224 C80.3601,-14.9224 79.6722,-15.6103 79.6722,-16.4643 L79.6722,-21.0186 L77.656,-21.0186 L77.656,-14.6615 L75.0467,-14.6615 L75.0467,-9.75141 C75.0467,-3.20459 80.3601,2.10877 86.9069,2.10877 C93.4537,2.10877 98.7671,-3.20459 98.7671,-9.75141 L98.7671,-14.6615 L96.1579,-14.6615 Z M86.9069,-8.06726 C85.033,-8.06726 83.5149,-9.58536 83.5149,-11.4593 L90.2989,-11.4593 C90.2989,-9.60908 88.7808,-8.06726 86.9069,-8.06726 Z " fill="#c14d1e" fill-opacity="1.00" />			<path d="M53.8501,0.688717 L53.8501,-0.860815 C53.8501,-5.09312 49.4026,-8.56222 43.9765,-8.56222 C38.5505,-8.56222 34.1029,-5.09312 34.1029,-0.860815 L34.1029,0.688717 C33.0059,0.688717 32.1163,1.38254 32.1163,2.23825 C32.1163,3.09396 33.0059,3.78778 34.1029,3.78778 L34.1029,6.86372 C34.1029,11.096 38.5505,14.5651 43.9765,14.5651 C49.4026,14.5651 53.8501,11.096 53.8501,6.86372 L53.8501,3.78778 C54.9472,3.78778 55.8367,3.09396 55.8367,2.23825 C55.8367,1.38254 54.9472,0.688717 53.8501,0.688717 Z " fill="#fcea9b" fill-opacity="1.00" />			<path d="M89.1366,-31.6539 C88.3775,-31.6539 87.6422,-31.5591 86.9306,-31.393 C86.219,-31.5591 85.4837,-31.6539 84.7009,-31.6539 C79.3638,-31.6539 75.0467,-27.4554 75.0467,-22.2844 C75.0467,-21.3831 75.1891,-20.5054 75.4263,-19.6752 C76.1853,-19.4854 76.9681,-19.3906 77.7746,-19.3906 C82.0205,-19.3906 85.6023,-22.0472 86.9069,-25.7476 C88.2115,-22.0472 91.7932,-19.3906 96.0392,-19.3906 C96.8457,-19.3906 97.6284,-19.5092 98.3875,-19.6752 C98.6484,-20.5054 98.767,-21.3831 98.767,-22.2844 C98.7907,-27.4554 94.4736,-31.6539 89.1366,-31.6539 Z " fill="#800102" fill-opacity="1.00" />			<path d="M55.5835,4.15758 C56.2845,1.51852 55.4185,-1.4092 54.3464,-3.75961 C53.2743,-6.11003 50.0167,-13.5736 43.7902,-10.481 C37.5636,-13.5736 34.306,-6.15127 33.2339,-3.75961 C32.1618,-1.4092 31.2958,1.51852 31.9968,4.15758 C32.7803,7.04406 33.9761,9.43572 34.3473,10.714 C34.6771,11.7861 34.1411,13.8479 33.5638,15.0437 C32.9865,16.2808 32.4092,18.0539 32.9865,19.7446 C33.5225,21.4352 35.3781,22.2187 35.9142,23.8269 C36.4503,25.4763 35.2544,26.3835 34.4297,25.9299 C33.7287,25.5588 33.5225,24.6516 34.306,23.9093 C31.3371,24.8578 32.4917,28.4865 34.0586,29.3524 C35.873,30.3833 38.9244,30.2596 40.4501,28.6514 C41.9758,27.0432 41.8109,23.4145 41.0686,20.3631 C40.3264,17.3117 37.976,14.2603 37.2337,13.0232 C36.4915,11.7861 35.9142,9.7656 35.873,8.77595 C35.6668,5.47712 36.3678,-0.254604 38.0997,-3.5122 C37.976,-2.27514 37.5636,-1.32672 37.6873,-0.0896623 C38.9656,0.405163 41.8109,0.69381 43.8314,0.69381 C45.8519,0.69381 48.6972,0.405163 49.9755,-0.0896623 C50.0992,-1.32672 49.6456,-2.27514 49.5631,-3.5122 C51.295,-0.295839 51.996,5.47712 51.7898,8.77595 C51.7074,9.7656 51.1713,11.7861 50.4291,13.0232 C49.6868,14.2603 47.2952,17.3529 46.5942,20.3631 C45.8932,23.3733 45.7282,27.002 47.2127,28.6514 C48.7384,30.2596 51.7898,30.3833 53.6042,29.3524 C55.1711,28.4452 56.3257,24.8578 53.3568,23.9093 C54.1402,24.6516 53.9341,25.5588 53.2331,25.9299 C52.4084,26.3835 51.2125,25.4763 51.7486,23.8269 C52.2847,22.2187 54.1402,21.4352 54.6763,19.7446 C55.2124,18.0539 54.6763,16.2396 54.099,15.0437 C53.5217,13.8067 52.9857,11.7449 53.3155,10.714 C53.6042,9.43572 54.8,7.04406 55.5835,4.15758 Z " fill="#542237" fill-opacity="1.00" />			<path d="M-34.7117,-21.4187 L-34.7117,-28.0603 C-34.7117,-29.6733 -36.0164,-30.9542 -37.6056,-30.9542 L-50.1537,-30.9542 C-51.7667,-30.9542 -53.0476,-29.6496 -53.0476,-28.0603 L-53.0476,-21.4187 C-54.542,-21.4187 -55.728,-20.2089 -55.728,-18.7383 C-55.728,-17.2439 -54.5182,-16.0579 -53.0476,-16.0579 L-53.0476,-15.9392 C-53.0476,-11.8593 -49.7505,-8.56222 -45.6706,-8.56222 L-42.0651,-8.56222 C-37.9852,-8.56222 -34.688,-11.8593 -34.688,-15.9392 L-34.688,-16.0579 C-33.1936,-16.0579 -32.0076,-17.2676 -32.0076,-18.7383 C-32.0313,-20.2089 -33.2411,-21.4187 -34.7117,-21.4187 Z " fill="#79bd9a" fill-opacity="1.00" />			<path d="M-32.7871,-26.1717 C-29.655,-26.1717 -27.1252,-28.7015 -27.1252,-31.8336 C-27.1252,-34.9416 -29.655,-37.4714 -32.763,-37.4955 C-31.992,-37.4714 -31.3897,-36.845 -31.3897,-36.074 C-31.3897,-35.303 -32.0161,-34.6525 -32.8112,-34.6525 C-36.1842,-34.6525 -43.6771,-34.6525 -46.9779,-34.6525 C-49.3149,-34.6525 -51.2183,-32.7492 -51.2183,-30.4121 C-51.2183,-28.0751 -49.3149,-26.1717 -46.9779,-26.1717 L-32.7871,-26.1717 Z " fill="#fbdd8f" fill-opacity="1.00" />			<path d="M10.0851,-10.1427 L9.63728,-10.2546 C9.18944,-10.3666 8.76399,-10.2546 8.45051,-9.98592 L8.45051,-14.9122 C8.45051,-17.3977 6.45762,-19.3906 3.9721,-19.3906 C2.24792,-19.3906 0.747654,-18.3829 0.03111,-16.9498 C-0.775002,-18.3829 -2.27527,-19.3906 -3.99945,-19.3906 C-6.48497,-19.3906 -8.47786,-17.3977 -8.47786,-14.9122 L-8.47786,-10.0083 C-8.79134,-10.2546 -9.1944,-10.3218 -9.59746,-10.2546 L-10.0453,-10.1427 C-10.8066,-9.98592 -11.2321,-9.22459 -11.0753,-8.46326 L-10.202,-4.74618 C-10.0453,-3.98486 -9.28397,-3.55941 -8.52264,-3.71615 L-8.32111,-3.76094 C-7.53739,0.135274 -4.11141,3.00145 -0.0360661,3.00145 C4.06167,3.00145 7.46526,0.0904898 8.22659,-3.78333 L8.49529,-3.69376 C9.25662,-3.53702 10.0179,-3.96246 10.1747,-4.72379 L11.048,-8.44087 C11.2719,-9.22459 10.8465,-9.98592 10.0851,-10.1427 Z " fill="#94b9bf" fill-opacity="1.00" />			<path d="M11.9016,-14.4356 C11.6592,-19.4905 7.47947,-25.9138 3.87517,-24.7129 C1.20981,-29.0696 -12.1776,-22.8697 -10.754,-16.6139 C-10.754,-16.6139 -13.48,-12.9554 -11.3901,-10.3582 C-12.5411,-7.20237 -8.42185,-6.47625 -9.75453,-3.29252 C-10.8752,-0.667332 -7.14974,-1.05832 -8.36127,1.28759 C-7.33147,0.617334 -7.05888,0.282203 -7.96753,-1.47723 C-8.42185,-2.31505 -7.81609,-2.5664 -7.11946,-3.73936 C-6.27139,-5.19159 -7.18003,-7.17444 -7.54349,-8.29154 C-9.72424,-14.8824 2.26989,-15.804 3.26941,-17.9265 C3.72373,-14.5473 8.90302,-12.0059 7.54005,-8.62667 C6.96457,-7.20237 6.26794,-6.53211 6.75255,-5.21951 C7.20688,-3.9907 8.96359,-3.57179 8.08524,-1.84029 C7.23716,-0.164637 9.66022,0.449768 8.691,1.76236 C10.6597,0.477696 8.23668,0.0308554 9.62993,-1.30966 C11.4472,-3.0691 10.1145,-4.29791 9.81166,-4.82853 C8.90302,-6.28076 12.1439,-9.07351 11.9016,-14.4356 Z " fill="#353a57" fill-opacity="1.00" />			<path d="M-98.6938,-14.4996 L-98.7493,-14.5051 C-98.7493,-14.5051 -98.7493,-14.5051 -98.7465,-14.5329 C-98.7577,-14.7022 -98.7027,-15.8179 -98.5505,-16.7837 C-98.5505,-16.7837 -98.5478,-16.8115 -98.5478,-16.8115 C-98.5367,-16.9225 -98.4979,-17.0307 -98.4591,-17.139 C-98.268,-17.9328 -97.9658,-18.7155 -97.6082,-19.4928 L-97.6054,-19.5205 C-97.5693,-19.601 -97.5333,-19.6815 -97.5,-19.7343 C-95.6893,-23.0016 -92.2988,-24.9624 -88.6828,-25.2471 C-88.7577,-25.3387 -88.7744,-25.4524 -88.7911,-25.5662 C-88.7913,-25.8465 -88.5471,-26.0464 -88.2946,-26.0493 L-86.9264,-25.9972 C-86.6461,-25.9974 -86.4461,-25.7532 -86.4433,-25.5007 C-86.4515,-25.4174 -86.4904,-25.3092 -86.5264,-25.2287 C-85.2247,-25.0711 -83.9424,-24.7192 -82.7127,-24.1203 C-80.603,-23.0694 -79.0232,-21.4827 -78.0011,-19.6432 C-79.7159,-19.029 -80.9004,-17.8296 -80.9135,-16.009 L-76.8005,-15.936 C-76.767,-15.4281 -76.7694,-14.5594 -76.8219,-14.0321 C-76.8219,-14.0321 -76.8219,-14.0321 -76.8246,-14.0044 L-88.3448,-14.2823 L-98.4279,-9.56812 C-101.044,-8.34306 -104.012,-9.22703 -105.101,-11.5217 L-98.6938,-14.4996 Z " fill="#fcea9b" fill-opacity="1.00" />			<path d="M-52.194,77.1832 L-52.2277,80.6396 L-53.5794,80.6264 L-53.5456,77.17 L-55.2256,77.1536 L-55.2593,80.61 L-56.611,80.5968 L-56.5773,77.1404 L-58.2572,77.124 L-58.2909,80.5804 L-59.6426,80.5672 L-59.6089,77.1108 L-60.7675,77.0995 C-63.5674,77.0722 -65.8682,79.3285 -65.8955,82.1284 C-65.8957,82.1477 -65.8961,82.1863 -65.8962,82.2056 L-65.9185,84.4842 L-46.6087,84.6726 L-46.536,77.2191 L-52.1938,77.1638 L-52.194,77.1832 Z " fill="#353a57" fill-opacity="1.00" />			<path d="M-35.682,77.1832 L-35.6483,80.6396 L-34.2966,80.6264 L-34.3303,77.17 L-32.6504,77.1536 L-32.6167,80.61 L-31.265,80.5968 L-31.2987,77.1404 L-29.6188,77.124 L-29.585,80.5804 L-28.2333,80.5672 L-28.2671,77.1108 L-27.1085,77.0995 C-24.3086,77.0722 -22.0078,79.3285 -21.9805,82.1284 C-21.9803,82.1477 -21.9799,82.1863 -21.9797,82.2056 L-21.9575,84.4842 L-41.2672,84.6726 L-41.34,77.2191 L-35.6822,77.1638 L-35.682,77.1832 Z " fill="#353a57" fill-opacity="1.00" />			<path d="M52.1914,76.8815 L52.2252,80.338 L53.5768,80.3248 L53.5431,76.8683 L55.2231,76.8519 L55.2568,80.3084 L56.6085,80.2952 L56.5747,76.8388 L58.2547,76.8224 L58.2884,80.2788 L59.6401,80.2656 L59.6064,76.8092 L60.765,76.7979 C63.5649,76.7705 65.8656,79.0269 65.893,81.8268 C65.8932,81.8461 65.8935,81.8847 65.8937,81.904 L65.916,84.1826 L46.6062,84.371 L46.5335,76.9174 L52.1912,76.8622 L52.1914,76.8815 Z " fill="#542237" fill-opacity="1.00" />			<path d="M35.6253,77.0826 L35.5916,80.5391 L34.2399,80.5259 L34.2736,77.0694 L32.5937,77.053 L32.5599,80.5095 L31.2083,80.4963 L31.242,77.0398 L29.562,77.0234 L29.5283,80.4799 L28.1766,80.4667 L28.2104,77.0103 L27.0518,76.9989 C24.2519,76.9716 21.9511,79.2279 21.9238,82.0279 C21.9236,82.0472 21.9232,82.0858 21.923,82.1051 L21.9008,84.3836 L41.2105,84.5721 L41.2832,77.1185 L35.6255,77.0633 L35.6253,77.0826 Z " fill="#542237" fill-opacity="1.00" />			<path d="M31.1759,40.3316 L56.9312,40.3316 " fill="none" stroke-width="2.00" stroke="#527779" stroke-linecap="square" stroke-linejoin="miter" />			<path d="M-44.4903,2.89941 C-44.4223,1.36306 -45.6132,0.0485369 -47.1622,-0.0200563 C-48.4719,-0.0780539 -49.6202,0.779574 -49.9777,2.01291 C-50.2127,0.765957 -51.2801,-0.202414 -52.6024,-0.260969 C-54.1388,-0.329005 -55.4533,0.861945 -55.5219,2.4109 C-55.5559,3.17907 -55.3669,3.75524 -54.8855,4.28128 C-54.8374,4.33388 -54.705,4.47854 -54.6328,4.55744 L-50.2718,8.93967 L-45.54,4.94748 C-45.4748,4.8999 -45.4611,4.87527 -45.409,4.83972 L-45.3959,4.82769 C-44.8824,4.34571 -44.5244,3.66759 -44.4903,2.89941 Z " fill="#542237" fill-opacity="1.00" />			<path d="M95.6923,6.59664 L77.5947,24.6942 L95.6923,24.6942 L95.6923,6.59664 Z M77.5947,15.6454 L86.6435,6.59664 L86.6435,15.6454 L77.5947,15.6454 Z " fill="#527779" fill-opacity="1.00" />		</g>	</svg>