<?xml version="1.0" encoding="utf-8" ?>	<!-- Generator: Assembly 2.4 - http://assemblyapp.co -->	<svg version="1.1" xmlns="http://www.w3.org/2000/svg" xmlns:xlink="http://www.w3.org/1999/xlink" width="4096.00" height="2304.00" viewBox="0 0 4096.0 2304.0">		<g id="document" transform="scale(13.653333333333334 13.653333333333334) translate(150.0 84.37499937135726)">			<path d="M17.2842,25.8274 L17.2842,24.7508 L19.8588,24.7508 L19.8588,22.8783 L17.2842,22.8783 L17.2842,21.8016 L19.8588,21.8016 L19.8588,19.9291 L17.2842,19.9291 L17.2842,18.8525 L19.8588,18.8525 L19.8588,0.408584 L13.0711,0.408584 L13.0711,32.8492 C11.105,33.3642 9.70063,35.1898 9.70063,37.2964 L9.70063,40.4328 L10.7773,40.4328 C11.6667,40.4328 12.3689,39.7306 12.3689,38.8411 L12.3689,37.624 C12.3689,37.1559 12.7434,36.7814 13.2115,36.7814 L13.2115,41.0881 L10.9177,41.0881 C10.0283,41.0881 9.32613,41.7903 9.32613,42.6797 L9.32613,43.7564 L13.8201,43.7564 C13.8201,44.1777 13.4924,44.5054 13.0711,44.5054 L10.4496,44.5054 C9.56019,44.5054 8.85801,45.2076 8.85801,46.097 L8.85801,47.1737 L13.3051,47.1737 C16.9565,47.1737 19.9524,44.2245 19.9524,40.5264 L19.9524,25.7806 L17.2842,25.7806 L17.2842,25.8274 Z " fill="#ffa538" fill-opacity="1.00" />			<path d="M-19.2384,25.4189 L-19.2384,24.3422 L-21.8131,24.3422 L-21.8131,22.4697 L-19.2384,22.4697 L-19.2384,21.393 L-21.8131,21.393 L-21.8131,19.5206 L-19.2384,19.5206 L-19.2384,18.4439 L-21.8131,18.4439 L-21.8131,1.06581e-14 L-15.0254,1.06581e-14 L-15.0254,32.4406 C-13.0593,32.9556 -11.6549,34.7812 -11.6549,36.8878 L-11.6549,40.0242 L-12.7316,40.0242 C-13.621,40.0242 -14.3232,39.322 -14.3232,38.4326 L-14.3232,37.2155 C-14.3232,36.7473 -14.6977,36.3728 -15.1658,36.3728 L-15.1658,40.6795 L-12.872,40.6795 C-11.9826,40.6795 -11.2804,41.3817 -11.2804,42.2711 L-11.2804,43.3478 L-15.7744,43.3478 C-15.7744,43.7691 -15.4467,44.0968 -15.0254,44.0968 L-12.4039,44.0968 C-11.5145,44.0968 -10.8123,44.799 -10.8123,45.6884 L-10.8123,46.7651 L-15.2594,46.7651 C-18.9108,46.7651 -21.9067,43.8159 -21.9067,40.1178 L-21.9067,25.372 L-19.2384,25.372 L-19.2384,25.4189 Z " fill="#ffa538" fill-opacity="1.00" />			<path d="M-52.2814,-36.3732 C-53.2237,-35.4757 -53.7846,-34.1969 -53.7846,-32.7834 L-53.7846,-30.5398 C-53.7846,-28.7449 -55.243,-27.3538 -56.9706,-27.3538 L-58.0251,-27.3538 L-58.0251,-27.1968 C-58.0251,-24.9083 -56.8584,-22.8442 -55.0635,-21.6775 L-58.4289,-20.2864 C-57.5764,-18.3121 -56.0507,-16.8537 -54.2109,-16.0684 C-52.3712,-15.2832 -50.6885,-15.2383 -48.7589,-16.0684 L-48.6916,-37.854 C-50.0827,-37.8764 -51.384,-37.2706 -52.2814,-36.3732 Z " fill="#015e6c" fill-opacity="1.00" />			<path d="M-47.6385,8.72106 C-47.2881,9.88921 -46.266,10.5901 -45.3606,10.6777 L-43.2872,10.6777 C-42.0606,10.6777 -41.0385,9.97683 -40.688,8.77947 C-39.6367,5.33343 -36.2199,2.55907 -32.5986,2.55907 C-32.5986,0.836043 -33.9712,-0.536534 -35.6942,-0.536534 L-41.2429,-0.536534 L-41.2429,-15.5473 C-41.2429,-17.2995 -42.6155,-18.6721 -44.3385,-18.4969 C-45.9155,-18.4969 -47.1129,-16.9491 -47.1129,-15.4013 L-47.1129,-0.565738 L-52.6324,-0.565738 C-54.3554,-0.565738 -55.728,0.806839 -55.728,2.52986 C-51.9607,2.52986 -48.6607,5.27502 -47.6385,8.72106 Z " fill="#f8c027" fill-opacity="1.00" />			<path d="M-35.2325,-36.3253 C-34.2901,-35.4278 -33.7292,-34.149 -33.7292,-32.7355 L-33.7292,-30.4919 C-33.7292,-28.697 -32.2709,-27.3059 -30.5433,-27.3059 L-29.4888,-27.3059 L-29.4888,-27.1489 C-29.4888,-24.8604 -30.6555,-22.7963 -32.4504,-21.6296 L-29.0849,-20.2386 C-29.9375,-18.2642 -31.4632,-16.8058 -33.3029,-16.0206 C-35.1427,-15.2353 -36.8254,-15.1904 -38.7549,-16.0206 L-38.8222,-37.8061 C-37.4312,-37.8285 -36.1299,-37.2227 -35.2325,-36.3253 Z " fill="#015e6c" fill-opacity="1.00" />			<path d="M-29.6499,-15.4147 L-39.2496,-15.4147 C-39.4053,-12.9141 -41.429,-10.9029 -43.8678,-10.9029 C-46.3066,-10.9029 -48.3303,-12.9141 -48.486,-15.4147 L-58.0857,-15.4147 C-64.5719,-15.4147 -69.8128,-9.92439 -69.8128,-3.1295 L-69.8128,6.27463 L-58.864,6.27463 L-58.864,36.7701 L-28.8716,36.7701 L-28.8716,6.27463 L-17.9228,6.27463 L-17.9228,-3.1295 C-17.9228,-9.92439 -23.1637,-15.4147 -29.6499,-15.4147 Z " fill="#9abc45" fill-opacity="1.00" />			<path d="M11.0337,-4.25553 L-12.9377,-3.88231 C-16.9096,-3.82047 -21.532,-3.51481 -21.5131,-2.29988 L-21.2621,13.8212 C-21.2083,17.2791 -17.0511,20.1122 -13.77,20.7155 C-12.9734,20.8433 -12.4492,21.4895 -12.4376,22.2371 L-12.1626,39.9003 L-12.1393,41.3956 C-12.1269,42.1899 -11.4626,42.8339 -10.6682,42.8216 L10.2659,42.4956 C11.0603,42.4833 11.7043,41.8189 11.6919,41.0245 L11.6628,39.1554 L11.3944,21.9128 C11.382,21.1184 11.9326,20.4555 12.678,20.3037 C15.9388,19.5986 20.0057,16.6374 19.9519,13.1796 L19.7009,-2.94155 C19.6353,-4.15575 14.9588,-4.31664 11.0337,-4.25553 Z " fill="#c02819" fill-opacity="1.00" />			<path d="M-58.9253,75.7863 L-60.9909,75.7863 C-63.6545,75.7863 -65.8289,77.9606 -65.8289,80.6242 L-65.8289,84.375 L-51.0432,84.375 C-48.5427,84.375 -46.477,82.3637 -46.477,79.8088 L-46.477,45.6713 C-46.477,44.2036 -45.3355,43.0621 -43.8678,43.0621 C-42.4001,43.0621 -41.2586,44.2036 -41.2586,45.6713 L-41.2586,79.8088 C-41.2586,82.3094 -39.2473,84.375 -36.6924,84.375 L-21.9067,84.375 L-21.9067,80.6242 C-21.9067,77.9606 -24.0811,75.7863 -26.7447,75.7863 L-28.8103,75.7863 L-28.8103,30.0159 L-58.7622,30.0159 L-58.7622,75.7863 L-58.9253,75.7863 Z " fill="#353a57" fill-opacity="1.00" />			<path d="M71.2423,75.7863 L69.6551,75.7863 C67.6084,75.7863 65.9376,77.9606 65.9376,80.6242 L65.9376,84.375 L77.2989,84.375 C79.2203,84.375 80.8076,82.3637 80.8076,79.8088 L80.8076,45.6713 C80.8076,44.2036 81.6847,43.0621 82.8125,43.0621 C83.9403,43.0621 84.8175,44.2036 84.8175,45.6713 L84.8175,79.8088 C84.8175,82.3094 86.3629,84.375 88.3261,84.375 L99.6874,84.375 L99.6874,80.6242 C99.6874,77.9606 98.0166,75.7863 95.9699,75.7863 L94.3827,75.7863 L94.3827,30.0159 L71.3677,30.0159 L71.3677,75.7863 L71.2423,75.7863 Z " fill="#f8c027" fill-opacity="1.00" />			<path d="M-102.847,75.7863 L-104.913,75.7863 C-107.577,75.7863 -109.751,77.9606 -109.751,80.6242 L-109.751,84.375 L-94.9654,84.375 C-92.4649,84.375 -90.3992,82.3637 -90.3992,79.8088 L-90.3992,45.6713 C-90.3992,44.2036 -89.2577,43.0621 -87.79,43.0621 C-86.3223,43.0621 -85.1807,44.2036 -85.1807,45.6713 L-85.1807,79.8088 C-85.1807,82.3094 -83.1694,84.375 -80.6146,84.375 L-65.8289,84.375 L-65.8289,80.6242 C-65.8289,77.9606 -68.0033,75.7863 -70.6668,75.7863 L-72.7325,75.7863 L-72.7325,30.0159 L-102.684,30.0159 L-102.684,75.7863 L-102.847,75.7863 Z " fill="#6c5a7b" fill-opacity="1.00" />			<path d="M105.706,37.957 L105.706,1.39996 C105.706,-2.24945 103.576,-4.64045 100.25,-5.20673 L87.1035,-7.40897 L87.1035,-15.0853 L78.4258,-15.0853 L78.4258,-7.40897 L65.2793,-5.20673 C61.9537,-4.64045 59.8232,-2.24945 59.8232,1.39996 L59.8232,37.957 C58.9399,39.0267 58.4202,40.4738 58.4202,42.0469 C58.4202,45.2558 60.5507,47.8356 63.2008,47.8356 L66.8382,47.8356 L66.8382,41.7952 C66.8382,41.7952 68.501,41.7952 68.8647,41.7952 C68.8647,39.593 68.3451,38.5233 67.1499,37.5795 L67.1499,10.7123 C67.1499,9.01339 68.2931,7.69205 69.6441,7.69205 L70.0598,7.69205 L70.0598,31.2245 L95.4695,31.2245 L95.4695,7.62913 L95.8852,7.62913 C97.2881,7.62913 98.3794,9.01339 98.3794,10.6493 L98.3794,37.5795 C97.1842,38.4604 96.6646,39.53 96.6646,41.7952 C97.0283,41.7952 98.6911,41.7952 98.6911,41.7952 L98.6911,47.8356 L102.328,47.8356 C104.979,47.8356 107.109,45.2558 107.109,42.0469 C107.109,40.4109 106.589,38.9637 105.706,37.957 Z " fill="#353a57" fill-opacity="1.00" />			<path d="M56.2723,7.09882 L46.5302,7.09882 C45.7459,7.09882 45.0854,6.22855 45.0854,5.1951 C45.0854,5.1951 45.0854,4.92314 45.0854,4.75996 C45.1267,5.03192 45.2918,5.1951 45.4982,5.1951 L45.622,5.1951 L45.622,3.67212 L45.4982,3.67212 C45.2918,3.67212 45.1267,3.88969 45.0854,4.10725 C45.0854,3.72651 45.0854,3.34576 45.0854,3.34576 C45.0854,1.714 44.0946,0.408584 42.8562,0.408584 C41.6178,0.408584 40.6271,1.714 40.6271,3.34576 C40.6271,3.34576 40.6271,3.72651 40.6271,4.10725 C40.5858,3.83529 40.4207,3.67212 40.2143,3.67212 L40.0905,3.67212 L40.0905,5.1951 L40.2143,5.1951 C40.4207,5.1951 40.5858,4.97753 40.6271,4.75996 C40.6271,4.92314 40.6271,5.1951 40.6271,5.1951 C40.6271,6.22855 39.9666,7.09882 39.1823,7.09882 L29.4402,7.09882 C24.7342,7.09882 20.8952,12.1573 20.8952,18.358 L20.8952,53.7673 C20.8952,54.3113 21.2254,54.7464 21.6382,54.7464 C22.051,54.7464 22.3812,54.3113 22.3812,53.7673 L22.3812,50.5582 C22.3812,50.3406 22.5051,50.1775 22.6702,50.1775 C22.8353,50.1775 22.9592,50.3406 22.9592,50.5582 L22.9592,53.7673 C22.9592,54.3113 23.2894,54.7464 23.7022,54.7464 C24.115,54.7464 24.4453,54.3113 24.4453,53.7673 L24.4453,50.6126 C24.4453,50.395 24.5691,50.2318 24.7342,50.2318 C24.8993,50.2318 25.0232,50.395 25.0232,50.6126 L25.0232,53.7673 C25.0232,54.3113 25.3534,54.7464 25.7662,54.7464 C26.179,54.7464 26.5093,54.3113 26.5093,53.7673 L26.5093,50.6126 C26.5093,50.395 26.6331,50.2318 26.7982,50.2318 C26.9634,50.2318 27.0872,50.395 27.0872,50.6126 L27.0872,53.7673 C27.0872,54.3113 27.4174,54.7464 27.8302,54.7464 C28.243,54.7464 28.5733,54.3113 28.5733,53.7673 L28.5733,50.6126 C28.5733,50.395 28.6971,50.2318 28.8622,50.2318 L29.6878,51.8092 C30.0181,52.19 30.5135,52.19 30.8024,51.7548 C31.0914,51.3197 31.0914,50.8846 30.7611,50.2862 L29.2338,47.1859 L29.2338,33.3159 L56.4787,33.3159 L56.4787,47.1859 L54.9513,50.2862 C54.6211,50.8846 54.6211,51.3197 54.9101,51.7548 C55.199,52.19 55.6944,52.19 56.0246,51.8092 L56.8502,50.2318 C57.0154,50.2318 57.1392,50.395 57.1392,50.6126 L57.1392,53.7673 C57.1392,54.3113 57.4694,54.7464 57.8822,54.7464 C58.295,54.7464 58.6253,54.3113 58.6253,53.7673 L58.6253,50.6126 C58.6253,50.395 58.7491,50.2318 58.9143,50.2318 C59.0794,50.2318 59.2032,50.395 59.2032,50.6126 L59.2032,53.7673 C59.2032,54.3113 59.5335,54.7464 59.9463,54.7464 C60.3591,54.7464 60.6893,54.3113 60.6893,53.7673 L60.6893,50.6126 C60.6893,50.395 60.8131,50.2318 60.9783,50.2318 C61.1434,50.2318 61.2672,50.395 61.2672,50.6126 L61.2672,53.7673 C61.2672,54.3113 61.5975,54.7464 62.0103,54.7464 C62.4231,54.7464 62.7533,54.3113 62.7533,53.7673 L62.7533,50.5582 C62.7533,50.3406 62.8772,50.1775 63.0423,50.1775 C63.2074,50.1775 63.3312,50.3406 63.3312,50.5582 L63.3312,53.7673 C63.3312,54.3113 63.6615,54.7464 64.0743,54.7464 C64.4871,54.7464 64.8173,54.3113 64.8173,53.7673 L64.8173,18.358 C64.8173,12.1573 60.9783,7.09882 56.2723,7.09882 Z " fill="#ffa538" fill-opacity="1.00" />			<path d="M-86.2267,14.9881 L-86.2267,14.203 L-83.1746,14.203 L-83.1746,12.8376 L-86.2267,12.8376 L-86.2267,12.0525 L-83.1746,12.0525 L-83.1746,10.687 L-86.2267,10.687 L-86.2267,9.90193 L-83.1746,9.90193 L-83.1746,-3.54748 L-91.221,-3.54748 L-91.221,20.1085 C-93.5517,20.484 -95.2165,21.8152 -95.2165,23.3513 L-95.2165,25.6384 L-93.9401,25.6384 C-92.8858,25.6384 -92.0534,25.1264 -92.0534,24.4778 L-92.0534,23.5903 C-92.0534,23.2489 -91.6095,22.9758 -91.0545,22.9758 L-91.0545,26.1163 L-93.7737,26.1163 C-94.828,26.1163 -95.6604,26.6284 -95.6604,27.2769 L-95.6604,28.062 L-90.3331,28.062 C-90.3331,28.3693 -90.7216,28.6082 -91.221,28.6082 L-94.3286,28.6082 C-95.383,28.6082 -96.2153,29.1203 -96.2153,29.7688 L-96.2153,30.5539 L-90.9435,30.5539 C-86.6151,30.5539 -83.0636,28.4034 -83.0636,25.7067 L-83.0636,14.954 L-86.2267,14.954 L-86.2267,14.9881 Z " fill="#353a57" fill-opacity="1.00" />			<path d="M-77.9164,-16.0283 L-77.9164,-17.8182 C-77.9164,-22.7068 -82.3639,-26.7139 -87.79,-26.7139 C-93.216,-26.7139 -97.6636,-22.7068 -97.6636,-17.8182 L-97.6636,-16.0283 C-98.7606,-16.0283 -99.6501,-15.2269 -99.6501,-14.2385 C-99.6501,-13.2501 -98.7606,-12.4487 -97.6636,-12.4487 L-97.6636,-8.89573 C-97.6636,-4.00709 -93.216,4.24574e-07 -87.79,4.24574e-07 C-82.3639,4.24574e-07 -77.9164,-4.00709 -77.9164,-8.89573 L-77.9164,-12.4487 C-76.8193,-12.4487 -75.9298,-13.2501 -75.9298,-14.2385 C-75.9298,-15.2269 -76.8193,-16.0283 -77.9164,-16.0283 Z " fill="#015e6c" fill-opacity="1.00" />			<path d="M74.8512,-19.105 L74.8512,-24.8453 C74.8512,-26.2394 75.9787,-27.3465 77.3523,-27.3465 L88.1975,-27.3465 C89.5915,-27.3465 90.6986,-26.2189 90.6986,-24.8453 L90.6986,-19.105 C91.9902,-19.105 93.0153,-18.0594 93.0153,-16.7884 C93.0153,-15.4968 91.9697,-14.4717 90.6986,-14.4717 L90.6986,-14.3692 C90.6986,-10.843 87.8489,-7.99333 84.3227,-7.99333 L81.2065,-7.99333 C77.6803,-7.99333 74.8307,-10.843 74.8307,-14.3692 L74.8307,-14.4717 C73.5391,-14.4717 72.514,-15.5173 72.514,-16.7884 C72.5345,-18.0594 73.5801,-19.105 74.8512,-19.105 Z " fill="#9b1239" fill-opacity="1.00" />			<path d="M52.7298,-2.31273 L52.7298,-3.86227 C52.7298,-8.09457 48.2823,-11.5637 42.8562,-11.5637 C37.4302,-11.5637 32.9826,-8.09457 32.9826,-3.86227 L32.9826,-2.31273 C31.8856,-2.31273 30.9961,-1.61891 30.9961,-0.763202 C30.9961,0.0925094 31.8856,0.78633 32.9826,0.78633 L32.9826,3.86227 C32.9826,8.09457 37.4302,11.5637 42.8562,11.5637 C48.2823,11.5637 52.7298,8.09457 52.7298,3.86227 L52.7298,0.78633 C53.8269,0.78633 54.7164,0.0925094 54.7164,-0.763202 C54.7164,-1.61891 53.8269,-2.31273 52.7298,-2.31273 Z " fill="#e1f9a4" fill-opacity="1.00" />			<path d="M-34.7117,-28.319 L-34.7117,-34.9607 C-34.7117,-36.5737 -36.0164,-37.8546 -37.6056,-37.8546 L-50.1537,-37.8546 C-51.7667,-37.8546 -53.0476,-36.5499 -53.0476,-34.9607 L-53.0476,-28.319 C-54.542,-28.319 -55.728,-27.1092 -55.728,-25.6386 C-55.728,-24.1442 -54.5182,-22.9582 -53.0476,-22.9582 L-53.0476,-22.8396 C-53.0476,-18.7597 -49.7505,-15.4625 -45.6706,-15.4625 L-42.0651,-15.4625 C-37.9852,-15.4625 -34.688,-18.7597 -34.688,-22.8396 L-34.688,-22.9582 C-33.1936,-22.9582 -32.0076,-24.1679 -32.0076,-25.6386 C-32.0313,-27.1092 -33.2411,-28.319 -34.7117,-28.319 Z " fill="#f8c027" fill-opacity="1.00" />			<path d="M9.60865,-17.4107 L9.16081,-17.5226 C8.71297,-17.6346 8.28752,-17.5226 7.97403,-17.2539 L7.97403,-22.1801 C7.97403,-24.6657 5.98115,-26.6586 3.49563,-26.6586 C1.77145,-26.6586 0.271182,-25.6509 -0.445362,-24.2178 C-1.25147,-25.6509 -2.75174,-26.6586 -4.47592,-26.6586 C-6.96144,-26.6586 -8.95433,-24.6657 -8.95433,-22.1801 L-8.95433,-17.2763 C-9.26781,-17.5226 -9.67087,-17.5898 -10.0739,-17.5226 L-10.5218,-17.4107 C-11.2831,-17.2539 -11.7085,-16.4926 -11.5518,-15.7312 L-10.6785,-12.0142 C-10.5218,-11.2528 -9.76044,-10.8274 -8.99911,-10.9841 L-8.79758,-11.0289 C-8.01386,-7.13272 -4.58788,-4.26654 -0.512538,-4.26654 C3.5852,-4.26654 6.98879,-7.1775 7.75011,-11.0513 L8.01882,-10.9618 C8.78015,-10.805 9.54148,-11.2305 9.69822,-11.9918 L10.5715,-15.7089 C10.7954,-16.4926 10.37,-17.2539 9.60865,-17.4107 Z " fill="#6c5a7b" fill-opacity="1.00" />			<path d="M2.00557,32.1902 L-3.56629,32.1902 L-14.7748,32.1902 L-14.7748,42.6794 L-14.7748,84.375 L-3.56629,84.375 L-3.56629,44.9233 C-3.56629,43.6709 -2.3353,42.6794 -0.780359,42.6794 C0.774579,42.6794 2.00557,43.6709 2.00557,44.9233 L2.00557,84.375 L13.2141,84.375 L13.2141,42.6794 L13.2141,32.1902 L2.00557,32.1902 Z " fill="#e8ddcb" fill-opacity="1.00" />			<path d="M29.6138,32.7208 L35.1053,84.3178 L41.2832,84.3178 L41.2832,32.7208 L29.6138,32.7208 Z M56.2131,32.7208 L43.9145,32.7208 L43.9145,84.3178 L50.7788,84.3178 L56.2131,32.7208 Z M65.2512,83.0593 C63.4779,80.2564 60.3889,78.4831 57.014,78.4831 L53.8106,78.4831 L53.0098,84.375 L65.9376,84.375 L65.2512,83.0593 Z M28.8129,78.4259 C25.4952,78.4259 22.349,80.1992 20.5757,83.0021 L19.7749,84.2606 L32.7027,84.2606 L31.9019,78.3687 L28.8129,78.4259 Z " fill="#9abc45" fill-opacity="1.00" />			<path d="M-62.2653,30.7929 L-55.0679,30.7929 C-55.0679,13.8753 -68.8691,0.0742004 -85.7866,0.0742004 C-86.4544,4.24574e-07 -87.1222,4.24574e-07 -87.79,4.24574e-07 C-88.4578,4.24574e-07 -89.1256,0.0742004 -89.7934,0.0742004 C-106.711,0.0742004 -120.512,13.8753 -120.512,30.7929 L-113.315,30.7929 C-113.315,23.8923 -110.347,17.6595 -105.598,13.3559 C-106.043,14.9883 -106.34,16.6949 -106.34,18.4757 C-106.34,28.7153 -98.0295,36.9514 -87.8642,36.9514 C-77.6246,36.9514 -69.3884,28.6411 -69.3884,18.4757 C-69.3884,16.6949 -69.611,14.9883 -70.1304,13.3559 C-65.2333,17.7337 -62.2653,23.8923 -62.2653,30.7929 Z M-55.5873,32.3511 L-61.7459,32.3511 C-62.5621,33.1673 -63.0815,34.2803 -63.0815,35.4675 C-63.0815,37.916 -61.1523,39.8452 -58.7037,39.8452 C-56.2551,39.8452 -54.3259,37.916 -54.3259,35.4675 C-54.3259,34.2061 -54.7711,33.1673 -55.5873,32.3511 Z M-119.918,32.3511 C-120.735,33.1673 -121.254,34.2803 -121.254,35.4675 C-121.254,37.916 -119.325,39.8452 -116.876,39.8452 C-114.428,39.8452 -112.498,37.916 -112.498,35.4675 C-112.498,34.2803 -113.018,33.1673 -113.834,32.3511 L-119.918,32.3511 Z " fill="#e8ddcb" fill-opacity="1.00" />			<path d="M-99.6501,-47.3255 C-99.6501,-49.281 -101.539,-50.8388 -103.859,-50.8388 C-104.953,-50.8388 -105.914,-50.5073 -106.643,-49.9439 C-107.406,-50.4079 -108.4,-50.7062 -109.494,-50.7062 C-110.289,-50.7062 -111.018,-50.5405 -111.648,-50.3085 C-111.748,-50.4742 -111.847,-50.6399 -111.98,-50.7725 C-113.14,-52.264 -115.228,-52.5954 -116.62,-51.5017 C-116.752,-51.4022 -116.885,-51.2697 -117.017,-51.1371 C-117.647,-52.4297 -119.139,-53.3246 -120.895,-53.3246 C-123.215,-53.3246 -125.105,-51.7337 -125.105,-49.8113 C-125.105,-49.7119 -125.105,-49.6125 -125.071,-49.513 C-127.226,-49.4136 -128.949,-48.1873 -128.949,-46.6958 C-128.949,-46.5301 -128.916,-46.3312 -128.883,-46.1655 C-131.137,-45.8009 -132.827,-44.442 -132.827,-42.818 C-132.827,-41.1939 -131.137,-39.835 -128.883,-39.4705 C-128.883,-39.4373 -128.883,-39.4042 -128.883,-39.371 C-128.883,-37.4818 -127.458,-35.9241 -125.668,-35.9241 C-124.873,-35.9241 -124.143,-36.2224 -123.613,-36.7195 C-122.884,-36.2224 -121.856,-35.9241 -120.73,-35.9241 C-119.967,-35.9241 -119.238,-36.0898 -118.608,-36.3218 C-118.476,-35.9904 -118.31,-35.6921 -118.078,-35.4269 C-116.918,-33.9354 -114.83,-33.604 -113.438,-34.6978 C-113.007,-35.0292 -112.676,-35.4932 -112.477,-35.9904 C-112.013,-35.8578 -111.516,-35.7915 -110.985,-35.7915 C-109.892,-35.7915 -108.897,-36.0898 -108.135,-36.5538 C-107.373,-36.0898 -106.378,-35.7915 -105.285,-35.7915 C-102.965,-35.7915 -101.075,-37.051 -101.075,-38.6087 C-101.075,-39.3379 -101.473,-39.9676 -102.136,-40.4648 C-101.473,-41.0945 -101.075,-41.89 -101.075,-42.7848 C-101.075,-43.3483 -101.241,-43.8786 -101.506,-44.3426 C-100.412,-45.0055 -99.6501,-46.0992 -99.6501,-47.3255 Z M-104.456,-32.2783 C-104.456,-33.3582 -105.762,-34.2337 -107.373,-34.2337 C-108.983,-34.2337 -110.289,-33.3582 -110.289,-32.2783 C-110.289,-31.1983 -108.983,-30.3228 -107.373,-30.3228 C-105.762,-30.3228 -104.456,-31.1983 -104.456,-32.2783 Z M-101.175,-27.9364 C-101.175,-28.6686 -102.065,-29.2622 -103.163,-29.2622 C-104.262,-29.2622 -105.152,-28.6686 -105.152,-27.9364 C-105.152,-27.2042 -104.262,-26.6107 -103.163,-26.6107 C-102.065,-26.6107 -101.175,-27.2042 -101.175,-27.9364 Z " fill="#ffa538" fill-opacity="0.37" />			<path d="M37.0406,-32.9607 C37.0406,-40.3641 47.7144,-39.6813 47.7144,-39.6813 C53.0334,-39.6813 72.9794,-37.6328 72.9794,-29.4387 C72.9794,-22.7182 58.2086,-21.4244 51.0927,-21.1728 C50.8052,-21.1728 50.5536,-20.9931 50.4098,-20.7775 C48.8645,-18.2977 46.2409,-16.7883 43.4377,-16.5726 C43.1143,-16.5367 42.9346,-16.968 43.2221,-17.1477 C44.3002,-18.0102 45.1987,-19.1602 45.8097,-20.5259 C45.9894,-20.9572 45.8097,-21.4603 45.3784,-21.6041 C41.8205,-23.0416 37.0406,-27.0668 37.0406,-32.9607 Z " fill="#015e6c" fill-opacity="0.28" />			<path d="M11.3837,-21.0519 C11.3837,-21.991 10.5685,-22.757 9.56918,-22.757 C9.43769,-22.757 9.3325,-22.757 9.20101,-22.7323 C9.83215,-23.0042 10.2792,-23.5973 10.2792,-24.2892 C10.2792,-25.2282 9.46399,-25.9943 8.46468,-25.9943 C8.09652,-25.9943 7.75465,-25.8955 7.46538,-25.7225 C7.80724,-26.0437 8.01762,-26.4638 8.01762,-26.9581 C8.01762,-27.8971 7.2024,-28.6632 6.2031,-28.6632 C5.59825,-28.6632 5.0723,-28.3914 4.73044,-27.9713 C4.73044,-27.9713 4.73044,-27.9713 4.73044,-27.9713 C4.86192,-28.1937 4.91452,-28.4655 4.91452,-28.7373 C4.91452,-29.6764 4.09929,-30.4425 3.09999,-30.4425 C2.25847,-30.4425 1.54844,-29.8988 1.33806,-29.1822 C1.33806,-29.1822 1.33806,-29.1822 1.33806,-29.1822 C1.33806,-29.2316 1.33806,-29.281 1.33806,-29.3304 C1.33806,-30.2695 0.522834,-31.0356 -0.476472,-31.0356 C-1.47578,-31.0356 -2.291,-30.2695 -2.291,-29.3304 C-2.291,-29.281 -2.291,-29.2316 -2.291,-29.1822 C-2.291,-29.1822 -2.291,-29.1822 -2.291,-29.1822 C-2.50138,-29.8988 -3.21141,-30.4425 -4.05293,-30.4425 C-5.05224,-30.4425 -5.86746,-29.6764 -5.86746,-28.7373 C-5.86746,-28.4655 -5.78857,-28.2184 -5.68338,-27.9713 C-5.68338,-27.9713 -5.68338,-27.9713 -5.68338,-27.9713 C-6.02525,-28.3914 -6.5512,-28.6632 -7.15604,-28.6632 C-8.15534,-28.6632 -8.97057,-27.8971 -8.97057,-26.9581 C-8.97057,-26.4638 -8.76019,-26.0437 -8.41832,-25.7225 C-8.70759,-25.8955 -9.04946,-25.9943 -9.41762,-25.9943 C-10.4169,-25.9943 -11.2322,-25.2282 -11.2322,-24.2892 C-11.2322,-23.5973 -10.7851,-22.9795 -10.154,-22.7323 C-10.2591,-22.757 -10.3906,-22.757 -10.5221,-22.757 C-11.5214,-22.757 -12.3366,-21.991 -12.3366,-21.0519 C-12.3366,-20.1376 -11.574,-19.3962 -10.601,-19.3468 L-10.601,-18.9514 C-10.601,-18.1606 -9.07576,-18.21 -8.94427,-19.0008 C-7.78718,-26.0932 7.2287,-25.8955 8.01762,-19.0008 C8.09652,-18.21 9.67437,-18.1606 9.67437,-18.9514 L9.67437,-19.3468 C10.6211,-19.3962 11.3837,-20.1376 11.3837,-21.0519 Z " fill="#f8c027" fill-opacity="1.00" />			<path d="M42.8562,3.78797e-07 C40.1752,3.78797e-07 37.7175,0.844045 35.6819,2.30871 C34.3661,3.25206 33.5966,4.7912 33.5966,6.40481 C33.5966,9.06107 33.5966,13.1323 33.5966,13.1323 C33.5966,18.2463 37.7423,22.392 42.8562,22.392 C47.9702,22.392 52.1159,18.2463 52.1159,13.1323 L52.1159,6.40481 C52.1159,4.7912 51.3463,3.25206 50.0306,2.30871 C47.995,0.844045 45.5125,3.78797e-07 42.8562,3.78797e-07 Z M48.8639,3.6989 C50.5023,4.2947 50.825,6.45446 49.5093,7.5964 C49.3604,7.72053 49.2362,7.81983 49.0873,7.94395 C47.6474,9.06107 45.6118,6.97578 42.8562,6.97578 C40.1007,6.97578 38.065,9.06107 36.6252,7.94395 C36.4763,7.81983 36.3273,7.6957 36.1784,7.57158 C34.8875,6.45446 35.2102,4.36917 36.799,3.72373 C36.8238,3.72373 36.8486,3.6989 36.8735,3.6989 C38.1892,3.17758 47.573,3.25206 48.839,3.6989 C48.839,3.67408 48.839,3.67408 48.8639,3.6989 Z " fill="#015e6c" fill-opacity="1.00" />			<path d="M-32.8492,-35.8061 C-32.9543,-35.8324 -33.0332,-35.8587 -33.1384,-35.885 C-34.1114,-40.9605 -38.5557,-44.7999 -43.8941,-44.7999 C-49.2325,-44.7999 -53.7031,-40.9605 -54.6498,-35.9113 C-54.755,-35.885 -54.8602,-35.8587 -54.9391,-35.8324 C-55.4124,-35.701 -55.728,-35.2802 -55.728,-34.7805 L-55.728,-32.1508 C-55.728,-31.4145 -55.0442,-30.9148 -54.3342,-31.0989 C-47.418,-32.9923 -40.4228,-32.966 -33.4014,-31.0726 C-32.6914,-30.8885 -32.0076,-31.4145 -32.0076,-32.1245 L-32.0076,-34.7542 C-32.0602,-35.2276 -32.3758,-35.6747 -32.8492,-35.8061 Z " fill="#e1f9a4" fill-opacity="1.00" />			<path d="M-78.6915,-15.4036 L-80.2113,-15.4036 C-80.88,-16.3763 -81.9945,-17.0247 -83.2509,-17.0247 C-85.0341,-17.0247 -86.5134,-15.7481 -86.8578,-14.0662 C-87.1415,-14.2486 -87.4658,-14.3701 -87.8102,-14.3701 C-88.1345,-14.3701 -88.4181,-14.2891 -88.7018,-14.127 C-89.0666,-15.7886 -90.5256,-17.045 -92.3088,-17.045 C-92.3291,-17.045 -92.3291,-17.045 -92.3493,-17.045 C-92.3696,-17.045 -92.3898,-17.045 -92.3898,-17.045 C-93.6462,-17.045 -94.7607,-16.3965 -95.4294,-15.4239 L-96.9492,-15.4239 L-96.9492,-14.8159 L-95.7536,-14.8159 C-95.9563,-14.3701 -96.0576,-13.8838 -96.0576,-13.357 C-96.0576,-11.3306 -94.4162,-9.66895 -92.3696,-9.66895 C-90.3432,-9.66895 -88.6816,-11.3103 -88.6816,-13.357 L-88.6613,-13.357 C-88.6613,-13.357 -88.6613,-13.357 -88.6613,-13.357 L-88.6005,-13.357 C-88.6005,-13.3772 -88.6005,-13.3975 -88.6005,-13.4177 C-88.3979,-13.6406 -88.0939,-13.7622 -87.79,-13.7622 C-87.4455,-13.7622 -87.1415,-13.6204 -86.9186,-13.357 L-86.8984,-13.3772 C-86.8984,-13.3772 -86.8984,-13.357 -86.8984,-13.357 C-86.8984,-11.3306 -85.257,-9.66895 -83.2104,-9.66895 C-81.184,-9.66895 -79.5223,-11.3103 -79.5223,-13.357 C-79.5223,-13.8838 -79.6237,-14.3701 -79.8263,-14.8159 L-78.6307,-14.8159 L-78.6307,-15.4036 L-78.6915,-15.4036 Z M-92.3898,-10.2566 C-94.092,-10.2566 -95.4497,-11.6345 -95.4497,-13.3164 L-95.3686,-13.3164 C-95.3686,-14.9983 -94.011,-16.356 -92.3493,-16.3763 C-90.6674,-16.356 -89.33,-14.9781 -89.33,-13.3164 C-89.33,-11.6345 -90.6877,-10.2566 -92.3898,-10.2566 Z M-83.2509,-10.2566 C-84.953,-10.2566 -86.3107,-11.6345 -86.3107,-13.3164 C-86.3107,-15.0186 -84.9328,-16.3763 -83.2509,-16.3763 C-81.5487,-16.3763 -80.1708,-14.9983 -80.1708,-13.3164 C-80.1911,-11.6345 -81.5487,-10.2566 -83.2509,-10.2566 Z " fill="#9b1239" fill-opacity="1.00" />			<path d="M-103.523,-21.2217 C-102.928,-20.4019 -101.879,-19.9548 -100.774,-20.0293 L-103.494,-17.868 C-102.786,-16.8743 -101.483,-16.4272 -100.264,-16.6259 L-102.843,-14.4895 C-101.936,-11.9307 -97.5446,-12.5518 -97.5446,-12.5518 L-97.5446,-18.4145 L-90.8865,-22.9358 L-92.8981,-18.5636 C-88.9599,-17.4209 -81.8201,-18.8617 -78.7886,-20.9981 L-78.7886,-11.6823 C-76.6353,-14.4398 -75.1904,-17.1973 -75.1904,-20.228 C-75.1904,-26.0659 -80.6302,-30.8605 -87.3166,-30.8605 C-90.8015,-30.8605 -94.003,-29.5438 -96.2129,-27.4571 L-103.523,-21.2217 Z " fill="#ffa538" fill-opacity="1.00" />			<path d="M93.9357,-15.2566 L93.9357,-22.3541 C93.9357,-28.5403 88.9094,-33.5113 82.7784,-33.5113 C76.5647,-33.5113 71.566,-28.485 71.566,-22.3541 L71.566,-15.2842 L68.97,-12.6053 C69.6881,-12.0254 70.5442,-11.6664 71.4003,-11.5007 L71.4003,-9.09801 C72.4498,-9.09801 73.3887,-9.37418 74.2448,-9.87128 C74.6867,-8.76661 75.7914,-7.99333 77.0341,-7.99333 L80.0444,-7.99333 C76.758,-9.53988 74.9629,-13.8481 74.9629,-17.245 L74.9629,-24.3701 C74.9629,-21.2494 77.476,-18.6811 80.652,-18.6811 L90.815,-18.6811 L90.815,-17.2726 C90.815,-13.8757 89.0751,-9.56749 85.7335,-8.02095 L88.4951,-8.02095 C89.7655,-8.02095 90.8426,-8.79422 91.2844,-9.8989 C92.0853,-9.40179 93.0795,-9.12563 94.129,-9.12563 L94.129,-11.4731 C94.9851,-11.6388 95.8412,-11.9702 96.5593,-12.5777 L93.9357,-15.2566 Z " fill="#ffa538" fill-opacity="1.00" />			<path d="M14.2975,65.184 L2.37582,65.184 L2.37582,84.375 L9.20925,84.375 L9.20925,83.3387 L15.2807,83.3387 L15.2807,84.375 L17.0259,84.375 L17.0259,83.3387 L18.3041,83.3387 L18.3041,84.375 L20.0493,84.375 L20.0493,83.3387 L21.3275,83.3387 L21.3275,84.375 L23.0728,84.375 L23.0728,83.3387 L24.3509,83.3387 L24.3509,84.375 L26.0962,84.375 L26.0962,80.863 C26.0962,79.1358 24.3018,77.7349 22.0895,77.7349 L18.5991,77.7349 C16.436,77.7349 14.6662,76.4875 14.3466,74.8754 L11.8148,74.8754 L11.8148,74.2229 L14.2975,74.2229 L14.2975,73.1866 L11.8148,73.1866 L11.8148,72.5341 L14.2975,72.5341 L14.2975,71.4978 L11.8148,71.4978 L11.8148,70.8453 L14.2975,70.8453 L14.2975,69.809 L11.8148,69.809 L11.8148,69.1565 L14.2975,69.1565 L14.2975,68.1202 L11.8148,68.1202 L11.8148,67.4677 L14.2975,67.4677 L14.2975,65.184 Z " fill="#ffa538" fill-opacity="1.00" />			<path d="M-2.85317,65.184 L-14.7748,65.184 L-14.7748,84.375 L-7.94137,84.375 L-7.94137,83.3387 L-1.86995,83.3387 L-1.86995,84.375 L-0.124718,84.375 L-0.124718,83.3387 L1.15348,83.3387 L1.15348,84.375 L2.8987,84.375 L2.8987,83.3387 L4.1769,83.3387 L4.1769,84.375 L5.92213,84.375 L5.92213,83.3387 L7.20032,83.3387 L7.20032,84.375 L8.94555,84.375 L8.94555,80.863 C8.94555,79.1358 7.15116,77.7349 4.9389,77.7349 L1.44844,77.7349 C-0.714655,77.7349 -2.48446,76.4875 -2.80401,74.8754 L-5.33582,74.8754 L-5.33582,74.2229 L-2.85317,74.2229 L-2.85317,73.1866 L-5.33582,73.1866 L-5.33582,72.5341 L-2.85317,72.5341 L-2.85317,71.4978 L-5.33582,71.4978 L-5.33582,70.8453 L-2.85317,70.8453 L-2.85317,69.809 L-5.33582,69.809 L-5.33582,69.1565 L-2.85317,69.1565 L-2.85317,68.1202 L-5.33582,68.1202 L-5.33582,67.4677 L-2.85317,67.4677 L-2.85317,65.184 Z " fill="#ffa538" fill-opacity="1.00" />			<path d="M33.7239,-0.429031 C32.2295,-0.429031 30.9961,0.804427 30.9961,2.29881 C30.9961,3.05786 31.3044,3.72203 31.8026,4.22016 C32.277,4.71829 32.9649,5.02665 33.7239,5.02665 L41.0298,5.02665 C41.7414,5.02665 42.3818,4.76573 42.8562,4.33876 C43.3544,4.76573 43.9948,5.02665 44.6827,5.02665 L51.9886,5.02665 C53.483,5.02665 54.7164,3.81691 54.7164,2.29881 C54.7164,0.804427 53.5067,-0.429031 51.9886,-0.429031 C51.4905,-0.429031 51.0872,-0.0257852 51.0872,0.472342 C51.0872,0.97047 51.4905,1.37372 51.9886,1.37372 C52.4867,1.37372 52.89,1.77696 52.89,2.27509 C52.89,2.77322 52.4867,3.17646 51.9886,3.17646 L50.1621,3.17646 C49.1659,3.17646 48.3356,2.34625 48.3356,1.35 C48.3119,0.424901 47.4343,-0.476472 46.5092,-0.476472 L39.2033,-0.476472 C38.3731,-0.476472 37.3768,0.35374 37.3768,1.35 C37.3768,2.36997 36.5466,3.17646 35.5504,3.17646 L33.7239,3.17646 C33.2258,3.17646 32.8225,2.77322 32.8225,2.27509 C32.8225,1.77696 33.2258,1.37372 33.7239,1.37372 C34.222,1.37372 34.6253,0.97047 34.6253,0.472342 C34.6253,-0.0257852 34.222,-0.429031 33.7239,-0.429031 Z " fill="#015e6c" fill-opacity="1.00" />			<path d="M-47.1004,9.82544 C-47.1004,8.17334 -45.7629,6.86215 -44.1108,6.86215 C-42.4587,6.86215 -41.1475,8.19957 -41.1475,9.82544 L-41.1475,20.551 C-41.1475,21.4426 -40.4133,22.2031 -39.4954,22.2031 C-38.5776,22.2031 -37.8433,21.4688 -37.8433,20.551 L-37.8433,11.9758 C-37.8433,11.4251 -37.3975,11.0055 -36.8731,11.0055 C-36.3486,11.0055 -35.9028,11.4513 -35.9028,11.9758 L-35.9028,20.6296 C-35.9028,21.5213 -35.1685,22.2817 -34.2507,22.2817 C-33.3329,22.2817 -32.5986,21.5475 -32.5986,20.6296 L-32.651,10.5859 L-32.651,4.34467 C-32.6248,1.46005 -34.985,-0.926315 -37.8958,-0.926315 L-50.4832,-0.926315 C-53.3678,-0.926315 -55.728,1.43383 -55.728,4.31844 L-55.728,10.6122 L-55.728,20.5772 C-55.728,21.4688 -54.9937,22.2293 -54.0759,22.2293 C-53.158,22.2293 -52.4238,21.495 -52.4238,20.5772 L-52.4238,12.002 C-52.4238,11.4513 -51.978,11.0317 -51.4535,11.0317 C-50.929,11.0317 -50.4832,11.4775 -50.4832,12.002 L-50.4832,20.5772 C-50.4832,21.4688 -49.749,22.2293 -48.8311,22.2293 C-47.9133,22.2293 -47.1528,21.495 -47.1528,20.5772 L-47.1528,9.82544 C-47.1528,9.82544 -47.1004,9.82544 -47.1004,9.82544 Z " fill="#f8c027" fill-opacity="1.00" />			<path d="M-97.0081,75.5161 L-97.0081,79.6349 L-98.6188,79.6349 L-98.6188,75.5161 L-100.621,75.5161 L-100.621,79.6349 L-102.231,79.6349 L-102.231,75.5161 L-104.233,75.5161 L-104.233,79.6349 L-105.844,79.6349 L-105.844,75.5161 L-107.225,75.5161 C-110.561,75.5161 -113.276,78.2313 -113.276,81.5678 C-113.276,81.5908 -113.276,81.6368 -113.276,81.6598 L-113.276,84.375 L-90.2661,84.375 L-90.2661,75.4931 L-97.0081,75.4931 L-97.0081,75.5161 Z " fill="#f8c027" fill-opacity="1.00" />			<path d="M-78.4631,75.6311 L-78.4631,79.7499 L-76.8524,79.7499 L-76.8524,75.6311 L-74.8505,75.6311 L-74.8505,79.7499 L-73.2398,79.7499 L-73.2398,75.6311 L-71.2379,75.6311 L-71.2379,79.7499 L-69.6272,79.7499 L-69.6272,75.6311 L-68.2466,75.6311 C-64.9101,75.6311 -62.1949,78.3463 -62.1949,81.6828 C-62.1949,81.7058 -62.1949,81.7518 -62.1949,81.7748 L-62.1949,84.4901 L-85.2051,84.4901 L-85.2051,75.6081 L-78.4631,75.6081 L-78.4631,75.6311 Z " fill="#f8c027" fill-opacity="1.00" />			<path d="M91.1444,6.17553 C90.9371,6.11676 90.7289,6.03531 90.5423,5.93014 C90.4608,5.88839 90.3706,5.90385 90.3056,5.97499 C90.0025,6.30699 89.619,6.86993 89.486,7.69424 C89.5958,7.10964 89.6535,6.6297 89.6679,6.19718 C89.6752,6.10594 89.5927,6.0415 89.503,6.0683 C89.2901,6.1348 88.9189,6.21986 88.6807,6.23069 C88.6694,6.23121 88.658,6.23172 88.624,6.23327 L88.5106,6.23842 C88.4766,6.23997 88.4312,6.24203 88.3977,6.25492 C88.307,6.25904 88.2425,6.34153 88.2467,6.43226 C88.2771,6.85137 88.2699,7.44267 88.1265,8.04015 C88.1178,8.09737 88.0271,8.1015 88.0131,8.04531 C87.842,7.53031 87.5059,6.88643 87.1533,6.37967 C87.129,6.34668 87.0945,6.33689 87.0599,6.32709 C86.6738,6.33328 86.2985,6.32761 85.9454,6.30956 C85.8428,6.30286 85.7913,6.41885 85.8516,6.49566 C86.4846,7.17151 87.4672,8.53608 87.0919,10.2806 C87.0445,10.4873 87.2017,10.6961 87.4182,10.709 C88.2281,10.7744 89.4468,10.8327 90.4304,10.4698 C90.5979,10.4053 90.6923,10.2306 90.6619,10.0615 C90.5149,9.32946 90.3391,7.96231 91.2604,6.47711 C91.3227,6.34926 91.2707,6.20388 91.1444,6.17553 Z M94.4359,3.08243 C94.3014,1.87252 93.2807,0.918815 92.0625,0.871903 C91.6187,0.857984 91.1913,0.956963 90.8248,1.14409 C90.2685,0.407938 89.3726,-0.0513865 88.3859,-0.00653665 C87.8415,0.0182081 87.3378,0.188844 86.9079,0.481141 C86.7975,0.554345 86.8048,0.713123 86.9213,0.776016 C87.4816,1.10285 87.9142,1.61734 88.125,2.25555 C88.1518,2.34525 88.1116,2.46072 88.0224,2.49887 C88.0002,2.51124 87.9662,2.51279 87.9435,2.51382 C87.8528,2.51794 87.7708,2.46485 87.744,2.37515 C87.5198,1.69209 87.0079,1.18121 86.3604,0.937888 C86.3604,0.937888 86.3604,0.937888 86.3496,0.949745 C86.015,0.83994 85.6495,0.79973 85.2768,0.850766 C84.056,0.997173 83.1152,2.0514 83.092,3.29122 C83.0776,4.47381 83.872,5.44917 84.9417,5.73012 C84.9417,5.73012 84.9417,5.73012 84.9417,5.73012 C85.0799,5.7693 85.217,5.7858 85.3654,5.80178 C86.2109,5.89973 87.461,5.89973 88.4673,5.7858 C88.5807,5.78064 88.6256,5.76724 88.6483,5.76621 C88.9204,5.75384 89.1674,5.68579 89.4138,5.6064 C89.4473,5.59351 89.4808,5.58062 89.5143,5.56774 C89.57,5.54248 89.6148,5.52907 89.6705,5.50381 C89.7932,5.45278 89.8205,5.30379 89.7365,5.20533 C89.5556,4.97489 89.4071,4.70889 89.3148,4.42896 C89.2761,4.32844 89.3164,4.21296 89.4164,4.16296 C89.5277,4.11244 89.6442,4.17533 89.6834,4.2872 C89.8009,4.6228 89.9855,4.93262 90.235,5.1713 C90.235,5.1713 90.235,5.1713 90.235,5.1713 C90.6742,5.5832 91.2655,5.84044 91.9022,5.8456 C91.9249,5.84457 91.9362,5.84405 91.9589,5.84302 C91.9589,5.84302 91.9589,5.84302 91.9589,5.84302 C91.9929,5.84148 92.0156,5.84044 92.0496,5.8389 C93.5018,5.78425 94.5927,4.53 94.4359,3.08243 Z " fill="#6c5a7b" fill-opacity="1.00" />			<path d="M30.9961,33.7208 L54.7164,33.7208 " fill="none" stroke-width="2.00" stroke="#6c5a7b" stroke-linecap="square" stroke-linejoin="miter" />		</g>	</svg>