<?xml version="1.0" encoding="utf-8" ?>	<!-- Generator: Assembly 2.4 - http://assemblyapp.co -->	<svg version="1.1" xmlns="http://www.w3.org/2000/svg" xmlns:xlink="http://www.w3.org/1999/xlink" width="4096.00" height="4096.00" viewBox="0 0 4096.0 4096.0">		<g id="document" transform="scale(13.653333333333334 13.653333333333334) translate(150.0 150.0)">			<path d="M63.181,148.871 C110.654,148.871 148.871,110.654 148.871,63.181 L148.871,-64.3096 C148.871,-111.783 110.356,-150 63.181,-150 L-64.3096,-150 C-111.783,-150 -150,-111.484 -150,-64.3096 L-150,63.181 C-150,110.654 -111.484,148.871 -64.3096,148.871 L63.181,148.871 Z " fill="#65b7c5" fill-opacity="1.00" />			<path d="M70.8517,-58.61 L67.8994,-61.2035 L45.5919,-67.3223 L41.7368,-66.6244 L44.6818,-64.0046 L66.9894,-57.8857 L70.8517,-58.61 Z " fill="#f1f1f1" fill-opacity="1.00" />			<path d="M80.062,-52.5902 L84.3256,-55.6494 L87.2632,-78.842 L83.9575,-82.86 L79.6333,-79.8084 L76.6957,-56.6158 L80.062,-52.5902 Z " fill="#f1f1f1" fill-opacity="1.00" />			<path d="M69.536,-72.6522 C72.871,-77.7275 71.4629,-84.5321 66.3646,-87.8822 C61.2663,-91.2324 54.4848,-89.8092 51.1498,-84.734 L69.536,-72.6522 Z " fill="#f1f1f1" fill-opacity="1.00" />			<path d="M66.6039,-86.9784 L67.3535,-92.5864 L84.1063,-82.8098 L83.3566,-77.2018 L66.6039,-86.9784 Z " fill="#f1f1f1" fill-opacity="1.00" />			<path d="M65.2839,-78.429 C64.5856,-78.5755 64.0027,-78.6133 63.9811,-78.5104 L62.5337,-71.6084 C62.5059,-71.4761 63.0488,-71.2471 63.7471,-71.1007 C64.4454,-70.9543 65.0345,-70.9458 65.0622,-71.0781 L66.5096,-77.9801 C66.5312,-78.083 65.9822,-78.2826 65.2839,-78.429 Z " fill="#f1f1f1" fill-opacity="1.00" />			<path d="M61.1569,-79.3076 C60.6746,-79.6048 60.2494,-79.7898 60.2056,-79.7187 L57.2681,-74.9523 C57.2118,-74.8609 57.5557,-74.5439 58.038,-74.2467 C58.5202,-73.9495 58.958,-73.7848 59.0143,-73.8762 L61.9517,-78.6426 C61.9955,-78.7137 61.6391,-79.0104 61.1569,-79.3076 Z " fill="#f1f1f1" fill-opacity="1.00" />			<path d="M58.0254,-82.0475 C57.5773,-82.5598 57.1547,-82.9231 57.0792,-82.857 L52.0161,-78.4271 C51.9191,-78.3421 52.2015,-77.8562 52.6497,-77.344 C53.0978,-76.8317 53.542,-76.4873 53.639,-76.5722 L58.7021,-81.0022 C58.7776,-81.0682 58.4736,-81.5353 58.0254,-82.0475 Z " fill="#f1f1f1" fill-opacity="1.00" />			<path d="M74.9074,-101.304 C71.7701,-103.264 68.9711,-104.462 68.6588,-103.962 L59.4827,-89.2752 C58.8903,-88.3271 60.9676,-85.9747 64.1049,-84.0145 C67.2423,-82.0544 70.2674,-81.2189 70.8597,-82.1669 L80.0359,-96.8537 C80.3482,-97.3536 78.0447,-99.3441 74.9074,-101.304 Z " fill="#f1f1f1" fill-opacity="1.00" />			<path d="M62.1531,-41.7255 C62.0022,-41.1663 62.5624,-40.5264 63.4006,-40.3003 L77.5265,-36.4905 C78.3647,-36.2644 79.1706,-36.5359 79.3214,-37.0951 L84.3602,-55.7776 C84.511,-56.3368 83.9509,-56.9767 83.1127,-57.2027 L68.9868,-61.0126 C68.1486,-61.2387 67.3427,-60.9672 67.1919,-60.408 L62.1531,-41.7255 Z " fill="#f1f1f1" fill-opacity="1.00" />			<path d="M83.1068,-31.9418 L78.9572,-38.5604 L42.7372,-48.3291 L35.8403,-44.7616 L39.9719,-38.0761 L76.1919,-28.3074 L83.1068,-31.9418 Z " fill="#f1f1f1" fill-opacity="1.00" />			<path d="M-48.9876,-78.525 C-56.7492,-78.525 -63.0834,-77.9897 -63.0834,-77.3652 L-50.3258,-39.3599 C-49.9689,-38.2001 -48.3631,-38.2001 -48.0062,-39.3599 L-34.8917,-77.3652 C-34.8025,-77.9897 -41.1367,-78.525 -48.9876,-78.525 Z M-32.5722,-97.1708 C-31.0555,-98.6874 -30.1634,-100.829 -30.1634,-103.148 C-30.1634,-105.735 -31.3232,-108.144 -33.1967,-109.661 C-33.1967,-109.661 -33.1967,-109.661 -33.1967,-109.661 C-34.7133,-110.999 -36.676,-111.713 -38.9064,-111.713 C-41.4936,-111.713 -43.9024,-110.553 -45.5974,-108.679 C-45.9543,-108.233 -46.668,-108.144 -47.2033,-108.59 C-47.6494,-108.947 -47.7386,-109.661 -47.2925,-110.196 C-45.1514,-112.605 -42.1181,-114.032 -38.9064,-114.032 C-36.8544,-114.032 -34.8917,-113.408 -33.2859,-112.426 C-33.9996,-117.958 -38.7279,-122.24 -44.4377,-122.24 C-44.5269,-122.24 -44.6161,-122.24 -44.6161,-122.24 C-45.7759,-125.452 -48.8984,-127.771 -52.5562,-127.771 C-57.1953,-127.771 -60.9423,-124.024 -60.9423,-119.385 C-60.9423,-118.047 -60.5854,-116.798 -60.0502,-115.638 C-60.1394,-115.638 -60.2286,-115.638 -60.3178,-115.638 C-64.6001,-115.638 -68.0794,-112.159 -68.0794,-107.876 C-68.0794,-106.003 -67.3657,-104.219 -66.2952,-102.88 C-64.0648,-104.397 -61.3884,-105.2 -58.6227,-105.2 C-57.1953,-105.2 -55.8571,-105.022 -54.5189,-104.576 C-53.8944,-104.397 -53.6267,-103.773 -53.8052,-103.148 C-53.9836,-102.524 -54.6081,-102.256 -55.2326,-102.434 C-56.3032,-102.791 -57.4629,-102.97 -58.7119,-102.97 C-61.5668,-102.97 -64.2432,-101.899 -66.2952,-100.115 C-66.3844,-100.026 -66.4736,-99.9364 -66.5628,-99.8472 C-66.652,-99.758 -66.8304,-99.5795 -66.9197,-99.4903 C-68.7039,-97.6168 -69.7745,-95.1188 -69.7745,-92.3532 C-69.7745,-88.4278 -67.6334,-85.0376 -64.4217,-83.2533 C-64.0648,-82.0935 -63.6187,-81.1122 -63.0834,-80.0416 C-61.4776,-80.6661 -57.6414,-81.023 -48.8092,-81.023 C-41.4044,-81.023 -37.5682,-80.7553 -35.5162,-80.3093 C-32.1261,-82.1828 -29.8957,-85.7513 -29.8957,-89.8552 C-29.8065,-92.6208 -30.8771,-95.208 -32.5722,-97.1708 Z " fill="#65b7c5" fill-opacity="1.00" />			<path d="M80.0278,-109.904 C78.897,-110.557 77.9049,-110.955 77.8087,-110.788 L71.3558,-99.6116 C71.2321,-99.3973 72.0455,-98.6896 73.1763,-98.0368 C74.3071,-97.3839 75.3267,-97.0333 75.4504,-97.2475 L81.9033,-108.424 C81.9995,-108.591 81.1586,-109.251 80.0278,-109.904 Z " fill="#f1f1f1" fill-opacity="1.00" />			<path d="M77.8886,-112.086 C77.7358,-112.175 77.5393,-112.122 77.4511,-111.969 L76.6699,-110.616 C76.5816,-110.463 76.6343,-110.267 76.7871,-110.179 L81.888,-107.234 C82.0409,-107.145 82.2373,-107.198 82.3256,-107.351 L83.1068,-108.704 C83.195,-108.857 83.1424,-109.053 82.9895,-109.141 L77.8886,-112.086 Z " fill="#f1f1f1" fill-opacity="1.00" />			<path d="M45.9777,-36.778 C45.9777,-36.8454 45.9709,-36.9061 45.9642,-36.9735 C45.8159,-38.1801 44.8318,-41.2335 44.7644,-41.3346 C44.7644,-41.3346 44.7644,-41.3346 44.7644,-41.3346 C44.67,-41.5436 44.4611,-41.6851 44.2117,-41.6851 C43.969,-41.6851 43.7601,-41.5368 43.659,-41.3346 C43.659,-41.3346 43.659,-41.3346 43.659,-41.3346 C43.6522,-41.3211 43.6522,-41.3144 43.6455,-41.3009 C43.5039,-40.9369 42.567,-38.052 42.4524,-36.9129 C42.4457,-36.8724 42.4457,-36.8252 42.4457,-36.7848 C42.4457,-36.7646 42.4457,-36.7376 42.4457,-36.7174 C42.4457,-35.74 43.241,-34.9514 44.2117,-34.9514 C45.1823,-34.9514 45.9777,-35.7468 45.9777,-36.7174 C45.9777,-36.7309 45.9777,-36.7511 45.9777,-36.778 Z " fill="#f1f1f1" fill-opacity="1.00" />			<path d="M74.1137,-28.9723 C74.1137,-29.0397 74.1069,-29.1004 74.1002,-29.1678 C73.9519,-30.3743 72.9678,-33.4277 72.9004,-33.5288 C72.9004,-33.5288 72.9004,-33.5288 72.9004,-33.5288 C72.806,-33.7378 72.5971,-33.8793 72.3477,-33.8793 C72.105,-33.8793 71.8961,-33.7311 71.795,-33.5288 C71.795,-33.5288 71.795,-33.5288 71.795,-33.5288 C71.7882,-33.5154 71.7882,-33.5086 71.7815,-33.4951 C71.6399,-33.1312 70.703,-30.2462 70.5884,-29.1071 C70.5817,-29.0666 70.5817,-29.0195 70.5817,-28.979 C70.5817,-28.9588 70.5817,-28.9318 70.5817,-28.9116 C70.5817,-27.9343 71.3771,-27.1456 72.3477,-27.1456 C73.3183,-27.1456 74.1137,-27.941 74.1137,-28.9116 C74.1137,-28.9251 74.1137,-28.9453 74.1137,-28.9723 Z " fill="#f1f1f1" fill-opacity="1.00" />			<path d="M-72.1586,-25.743 C-80.9806,-16.921 -95.2196,-16.921 -104.08,-25.7817 C-112.941,-34.6424 -112.902,-48.8428 -104.08,-57.6648 C-99.3211,-62.424 -92.9368,-64.6295 -86.7459,-64.2426 C-93.8267,-65.1326 -101.217,-62.7723 -106.634,-57.3552 C-116.075,-47.9141 -116.153,-32.5143 -106.673,-23.0345 C-97.2317,-13.5934 -81.8705,-13.5547 -72.3907,-23.0345 C-66.9737,-28.4515 -64.6521,-35.8806 -65.4647,-42.9614 C-65.1938,-36.8866 -67.3606,-30.5409 -72.1586,-25.743 Z " fill="#f1f1f1" fill-opacity="1.00" />			<path d="M-97.1629,-52.7168 C-96.8335,-53.28 -97.0354,-53.992 -97.5986,-54.3215 C-98.1619,-54.6509 -98.8845,-54.4596 -99.2139,-53.8964 C-99.5433,-53.3332 -99.3414,-52.6106 -98.7782,-52.2811 C-98.2044,-51.9623 -97.4817,-52.1536 -97.1629,-52.7168 Z M-97.1629,-50.3577 C-97.4924,-50.9209 -98.215,-51.1122 -98.7782,-50.7934 C-99.3414,-50.4639 -99.5327,-49.7413 -99.2139,-49.1781 C-98.8951,-48.6149 -98.1619,-48.4236 -97.5986,-48.753 C-97.0248,-49.0825 -96.8335,-49.7945 -97.1629,-50.3577 Z M-95.1226,-49.1781 C-95.7708,-49.1781 -96.3022,-48.6468 -96.3022,-47.9985 C-96.3022,-47.3503 -95.7708,-46.8189 -95.1226,-46.8189 C-94.4744,-46.8189 -93.943,-47.3503 -93.943,-47.9985 C-93.943,-48.6468 -94.4744,-49.1781 -95.1226,-49.1781 Z M-93.0822,-50.3577 C-93.4117,-49.7945 -93.2098,-49.0718 -92.6465,-48.7424 C-92.0833,-48.413 -91.3607,-48.6149 -91.0313,-49.1781 C-90.7018,-49.7413 -90.9037,-50.4639 -91.467,-50.7934 C-92.0408,-51.1122 -92.7634,-50.9209 -93.0822,-50.3577 Z M-93.0822,-52.7168 C-92.7528,-52.1536 -92.0302,-51.9623 -91.467,-52.2811 C-90.9037,-52.6106 -90.7125,-53.3332 -91.0313,-53.8964 C-91.3607,-54.4596 -92.0833,-54.6509 -92.6465,-54.3215 C-93.2204,-53.992 -93.4117,-53.28 -93.0822,-52.7168 Z M-95.1226,-53.8964 C-94.4744,-53.8964 -93.943,-54.4277 -93.943,-55.076 C-93.943,-55.7242 -94.4744,-56.2555 -95.1226,-56.2555 C-95.7708,-56.2555 -96.3022,-55.7242 -96.3022,-55.076 C-96.3022,-54.4277 -95.7708,-53.8964 -95.1226,-53.8964 Z " fill="#da4620" fill-opacity="1.00" />			<path d="M-83.7126,-35.9076 C-83.4955,-35.9064 -83.3239,-36.0831 -83.3227,-36.3002 C-83.3214,-36.5173 -83.4968,-36.6937 -83.7139,-36.695 C-83.931,-36.6962 -84.1057,-36.5178 -84.1069,-36.3006 C-84.1033,-36.0822 -83.9279,-35.9058 -83.7126,-35.9076 Z M-84.3925,-35.5151 C-84.285,-35.7038 -84.3501,-35.9438 -84.5357,-36.0531 C-84.7243,-36.1606 -84.9644,-36.0955 -85.0736,-35.9099 C-85.1829,-35.7243 -85.116,-35.4812 -84.9274,-35.3737 C-84.737,-35.2631 -84.5,-35.3265 -84.3925,-35.5151 Z M-84.3929,-34.7309 C-84.5008,-34.9177 -84.7423,-34.9824 -84.9291,-34.8745 C-85.1159,-34.7667 -85.1806,-34.5252 -85.0728,-34.3383 C-84.9649,-34.1515 -84.7234,-34.0868 -84.5366,-34.1947 C-84.3498,-34.3025 -84.2851,-34.5441 -84.3929,-34.7309 Z M-83.7135,-34.3391 C-83.9306,-34.3404 -84.1053,-34.1619 -84.1065,-33.9448 C-84.1077,-33.7277 -83.9293,-33.553 -83.7122,-33.5518 C-83.4951,-33.5506 -83.3204,-33.729 -83.3192,-33.9461 C-83.3228,-34.1645 -83.4981,-34.341 -83.7135,-34.3391 Z M-83.0336,-34.7317 C-83.1411,-34.543 -83.076,-34.3029 -82.8904,-34.1937 C-82.7018,-34.0862 -82.4617,-34.1513 -82.3525,-34.3369 C-82.245,-34.5255 -82.3101,-34.7656 -82.4987,-34.8731 C-82.6891,-34.9836 -82.9261,-34.9203 -83.0336,-34.7317 Z M-83.0332,-35.5159 C-82.9253,-35.3291 -82.6838,-35.2644 -82.497,-35.3722 C-82.3102,-35.4801 -82.2455,-35.7216 -82.3533,-35.9084 C-82.4612,-36.0952 -82.7027,-36.16 -82.8895,-36.0521 C-83.0763,-35.9442 -83.141,-35.7027 -83.0332,-35.5159 Z " fill="#da4620" fill-opacity="1.00" />			<path d="M33.8692,-1.57544 C33.5552,-8.43846 17.8842,-13.2967 -1.13282,-12.4266 C-20.1499,-11.5565 -35.3117,-5.28757 -34.9977,1.57544 C-34.6837,8.43846 -19.0128,13.2967 0.00428964,12.4266 C19.0214,11.5565 34.1832,5.28757 33.8692,-1.57544 Z M9.82509,-6.67183 C-0.436943,-22.7056 -13.4205,-32.718 -19.1746,-29.0353 C-24.9286,-25.3525 -21.2742,-9.36916 -11.0121,6.66458 C-0.750102,22.6983 12.2335,32.7108 17.9875,29.028 C23.7416,25.3453 20.0871,9.36191 9.82509,-6.67183 Z M-11.5337,-5.67193 C-20.2888,11.2319 -22.4684,27.4822 -16.4021,30.6241 C-10.3358,33.7661 1.67923,22.6098 10.4343,5.706 C19.1893,-11.1978 21.369,-27.4481 15.3027,-30.5901 C9.23637,-33.732 -2.77869,-22.5758 -11.5337,-5.67193 Z " fill="none" stroke-width="2.00" stroke="#f1f1f1" stroke-linecap="square" stroke-linejoin="miter" />			<path d="M-102.051,-35.0792 C-101.35,-35.4837 -101.11,-36.3797 -101.514,-37.0804 C-101.919,-37.7811 -102.815,-38.0212 -103.516,-37.6167 C-104.216,-37.2121 -104.456,-36.3161 -104.052,-35.6154 C-103.647,-34.9147 -102.751,-34.6746 -102.051,-35.0792 Z M-103.729,-37.9869 C-103.029,-38.3915 -102.789,-39.2875 -103.193,-39.9882 C-103.598,-40.6889 -104.494,-40.929 -105.194,-40.5244 C-105.895,-40.1199 -106.135,-39.2239 -105.731,-38.5232 C-105.326,-37.8225 -104.43,-37.5824 -103.729,-37.9869 Z " fill="#f1f1f1" fill-opacity="1.00" />			<path d="M-79.5058,-53.7087 C-79.8227,-53.0115 -80.4459,-52.7792 -81.0691,-52.9904 C-81.6711,-53.1911 -81.9563,-54.4797 -82.2732,-54.9445 C-82.6957,-55.5677 -83.4773,-55.8528 -84.1216,-55.462 C-85.0194,-54.9128 -84.9244,-53.9516 -84.4807,-53.4868 C-83.9632,-52.9482 -82.9597,-52.663 -82.3788,-52.2405 C-81.7979,-51.8074 -82.1253,-51.5645 -82.2943,-51.5434 C-82.8013,-51.48 -83.0126,-51.7018 -83.5301,-51.9236 C-83.8892,-52.082 -84.2695,-52.1032 -84.5547,-51.9975 C-84.9877,-51.8391 -85.2307,-51.4166 -85.0828,-50.899 C-84.9666,-50.5188 -84.6709,-50.3075 -84.2906,-50.2547 C-83.9315,-50.2019 -83.4879,-50.3392 -82.9597,-50.4554 C-82.3471,-50.5927 -81.9246,-50.4554 -82.0514,-50.0224 C-82.1147,-49.7794 -82.5478,-49.2196 -83.0442,-48.8499 C-83.6569,-48.3852 -84.3012,-47.8676 -84.5019,-47.3606 C-84.7659,-46.6741 -84.3857,-46.0403 -83.9949,-45.8396 C-83.5301,-45.5967 -82.7696,-45.6601 -82.3682,-46.3149 C-81.9986,-46.917 -81.8612,-47.6881 -81.7028,-48.4063 C-81.5549,-49.1245 -81.3437,-49.283 -81.1324,-49.3358 C-80.9106,-49.3992 -80.7311,-49.2724 -80.6677,-48.9239 C-80.5832,-48.5014 -80.6043,-47.857 -80.4776,-47.2761 C-80.3719,-46.7902 -79.9706,-46.6635 -79.7065,-46.7057 C-79.2946,-46.7691 -79.0094,-47.1494 -79.0727,-47.5824 C-79.1467,-48.0683 -79.4952,-48.4908 -79.7276,-48.8605 C-79.96,-49.2302 -79.8121,-49.4942 -79.6537,-49.5893 C-79.4636,-49.7055 -79.2523,-49.6949 -78.9037,-49.5048 C-78.5552,-49.3041 -77.7736,-48.4485 -77.1926,-48.1528 C-76.6117,-47.8676 -76.0202,-48.0366 -75.7667,-48.4591 C-75.4709,-48.9555 -75.4709,-49.4731 -75.7878,-49.8534 C-76.0624,-50.1914 -76.4533,-50.3287 -77.5623,-50.4765 C-78.6397,-50.6139 -78.9777,-51.0364 -79.0199,-51.3004 C-79.0939,-51.7863 -78.8404,-52.1877 -78.3228,-52.4834 C-77.5412,-52.9376 -76.8758,-52.8214 -76.1575,-53.5185 C-75.3548,-54.3002 -75.5449,-55.3036 -76.2103,-55.874 C-76.8124,-56.381 -77.7841,-56.381 -78.3862,-55.8845 C-79.0094,-55.367 -79.2417,-54.279 -79.5058,-53.7087 Z " fill="#f1f1f1" fill-opacity="1.00" />			<path d="M88.4657,3.44555 C87.1088,4.19942 85.6764,5.02869 84.244,6.00873 C86.0533,6.46105 85.8272,6.38566 87.4857,7.13954 C89.9735,5.85795 93.2905,4.57636 96.306,3.89787 C99.8493,3.144 100.98,4.42559 98.8692,9.47655 C92.989,23.574 73.6144,42.3455 57.2553,51.5428 C53.3352,53.729 50.4704,54.0306 50.772,50.5627 C50.9982,48.1503 52.129,45.5872 53.109,43.5517 C52.4305,42.4963 51.6766,40.9885 51.3751,39.5562 C50.8474,40.4608 42.6301,51.5428 47.5303,57.6492 C49.3396,59.5339 52.129,60.0616 54.8429,59.6092 C57.5569,59.1569 60.5724,57.8753 63.8894,56.1414 C70.4481,52.5982 78.213,46.6426 85.6764,39.1038 C93.2152,31.6405 99.0954,23.951 102.639,17.3922 C104.448,14.1506 105.654,11.1351 106.106,8.49651 C107.162,4.19942 102.639,-4.99785 88.4657,3.44555 Z M72.7098,5.02869 C72.182,5.02869 71.7297,5.02869 71.202,5.10407 C70.8251,5.10407 70.4481,5.10407 70.0712,5.17946 C58.3107,6.83799 49.7166,17.543 50.772,29.5296 C51.3751,36.3145 54.9937,42.1193 60.1954,45.8133 C61.4016,45.1348 62.5324,44.4564 63.5879,43.8533 C74.5191,36.3145 85.2995,26.5141 91.632,14.5275 C87.4103,8.5719 80.3993,4.87791 72.7098,5.02869 Z M99.3969,27.5696 C93.1398,36.6914 84.6964,44.4564 76.253,51.3166 C75.1222,52.0705 73.916,52.8998 72.7098,53.729 C74.3683,53.9552 76.1022,54.0306 77.8361,53.8798 C80.0223,53.6536 82.1332,53.2013 84.0933,52.4474 C84.4702,52.2967 84.7718,52.1459 85.1487,51.9951 C85.2241,51.9951 85.2995,51.9197 85.3749,51.9197 C88.0888,50.7889 90.652,49.2058 92.8382,46.9441 C95.5522,44.2302 97.3615,40.9885 98.4169,37.5207 C98.4169,37.4453 98.4923,37.4453 98.4923,37.3699 C98.4923,37.3699 98.4923,37.2945 98.5677,37.2192 C98.7184,36.8422 98.7938,36.4653 98.8692,36.013 C99.5477,33.4498 99.7739,30.7358 99.5477,27.9465 C99.3969,27.9465 99.3969,27.7203 99.3969,27.5696 Z " fill="#fbdd8f" fill-opacity="1.00" />			<path d="M51.6485,98.6307 L51.5119,99.2839 L52.1791,99.4234 L51.3751,103.268 L50.7079,103.129 L50.5714,103.782 L51.2385,103.921 L51.0186,104.973 L52.5427,105.291 L52.7625,104.24 L53.4063,104.375 L53.1864,105.426 L54.7104,105.745 L54.9303,104.693 L55.5446,104.822 L55.3136,105.872 L56.8342,106.207 L57.0623,105.169 L57.5193,105.278 L57.2209,106.309 L58.7165,106.742 L59.0137,105.714 C59.1608,105.761 59.3091,105.81 59.4595,105.861 L59.097,106.864 L60.5612,107.393 L60.9225,106.394 C61.0658,106.45 61.2118,106.508 61.3584,106.567 L60.9349,107.536 L62.3616,108.159 L62.7852,107.19 L63.2089,107.391 L62.7223,108.332 L64.1053,109.047 L64.5916,108.106 L65.0243,108.34 L64.4703,109.258 L65.8033,110.062 L66.3564,109.146 C66.3717,109.155 66.3862,109.164 66.4017,109.173 C66.496,109.227 66.5931,109.294 66.6959,109.366 L66.7497,109.402 L66.1392,110.28 L67.4169,111.169 L68.0288,110.29 C68.0845,110.332 68.1401,110.375 68.1952,110.419 L68.4007,110.576 L67.7413,111.403 L68.9587,112.374 L69.6186,111.546 L69.9756,111.851 L69.2623,112.634 L70.4139,113.682 L71.1272,112.898 L71.4683,113.221 L70.6969,113.965 L71.7778,115.085 L72.5478,114.343 L72.6068,114.405 C72.6764,114.475 72.7307,114.535 72.7822,114.598 L72.8624,114.691 L72.0458,115.382 L73.0513,116.571 L73.8691,115.879 L74.1553,116.251 L73.3036,116.881 L74.2296,118.132 L75.0813,117.502 L75.36,117.907 L74.4699,118.479 L75.3114,119.789 L76.201,119.217 L76.224,119.255 C76.3024,119.378 76.3862,119.515 76.4735,119.66 L75.5477,120.195 L76.3262,121.543 L77.2562,121.006 C77.3073,121.095 77.3586,121.183 77.4102,121.272 L77.5853,121.576 L76.655,122.113 L77.4335,123.461 L78.3638,122.924 L78.6926,123.494 L77.7623,124.031 L78.5408,125.379 L79.471,124.842 L79.7999,125.412 L78.8697,125.949 L79.6482,127.297 L80.5784,126.76 L80.9072,127.33 L79.977,127.867 L80.7554,129.215 L81.6857,128.678 L82.0146,129.248 L81.0843,129.785 L81.8628,131.133 L88.7217,127.173 L87.9432,125.825 L86.5721,126.616 L86.2432,126.047 L87.6143,125.255 L86.8359,123.907 L85.4648,124.698 L85.136,124.129 L86.507,123.337 L85.7286,121.989 L84.3575,122.78 L84.0286,122.211 L85.3997,121.419 L84.6212,120.071 L83.2501,120.862 L82.9213,120.293 L84.2924,119.501 L83.5139,118.153 L82.1428,118.944 L81.9672,118.64 C81.9152,118.551 81.8643,118.463 81.8137,118.375 L83.1851,117.583 L82.4066,116.235 L81.0312,117.029 C80.9277,116.856 80.8243,116.685 80.7195,116.519 L80.6292,116.372 L81.9746,115.507 L81.1331,114.198 L79.7891,115.061 C79.7712,115.035 79.7533,115.009 79.736,114.983 L79.3471,114.419 L78.7977,114.797 L79.184,115.358 C79.1978,115.378 79.2128,115.4 79.2276,115.422 L75.9216,117.546 L75.618,117.105 L80.5966,113.422 L79.6706,112.17 L78.3857,113.121 L77.8901,112.477 L79.0979,111.456 L78.0923,110.267 L76.8793,111.293 L76.714,111.1 C76.6467,111.019 76.5716,110.936 76.4802,110.842 L76.335,110.69 L77.4784,109.587 L76.3975,108.467 L75.2589,109.565 L74.6687,109.007 L75.7444,107.825 L74.5929,106.777 L73.5183,107.958 L72.9005,107.431 L73.8968,106.182 L72.6794,105.211 L71.6826,106.461 C71.6818,106.461 71.6809,106.46 71.6801,106.459 L71.3505,106.207 C71.2459,106.124 71.1411,106.046 71.0364,105.969 L71.9417,104.669 L70.6639,103.779 L69.7559,105.084 L69.6032,104.979 C69.4769,104.893 69.3464,104.803 69.2176,104.728 C69.1686,104.698 69.1226,104.67 69.075,104.641 L69.8955,103.281 L68.5625,102.477 L67.7442,103.833 C67.7151,103.816 67.6862,103.799 67.6584,103.783 L67.0558,103.456 L66.7378,104.043 L67.3333,104.366 C67.3546,104.378 67.3771,104.391 67.3994,104.404 L65.3693,107.768 L64.898,107.514 L67.7424,102.012 L66.3593,101.297 L65.6264,102.715 L64.8928,102.367 L65.5329,100.902 L64.1063,100.278 L63.4667,101.742 C63.2123,101.639 62.9605,101.539 62.7116,101.443 L63.2531,99.9451 L61.7888,99.4158 L61.2486,100.911 C60.9875,100.821 60.7304,100.737 60.477,100.656 L60.9175,99.1337 L59.422,98.701 L58.9827,100.219 L58.9604,100.213 L58.1927,100.031 L58.5357,98.4715 L57.015,98.137 L56.6752,99.6818 L56.0074,99.5422 L56.3315,97.9924 L54.8075,97.6738 L54.4834,99.2235 L53.8397,99.0889 L54.1637,97.5392 L52.6397,97.2205 L52.3156,98.7702 L51.6485,98.6307 Z M85.9943,126.95 L82.5924,128.914 L82.2635,128.344 L85.6654,126.38 L85.9943,126.95 Z M84.8869,125.032 L81.4851,126.996 L81.1563,126.426 L84.5581,124.462 L84.8869,125.032 Z M83.7796,123.114 L80.3778,125.078 L80.0489,124.508 L83.4507,122.544 L83.7796,123.114 Z M82.6723,121.196 L79.2704,123.16 L78.9416,122.59 L82.3435,120.626 L82.6723,121.196 Z M81.3899,118.975 L81.565,119.278 L78.1631,121.242 L77.9876,120.938 C77.9361,120.849 77.885,120.761 77.8341,120.673 L81.2359,118.709 C81.2866,118.797 81.3377,118.885 81.3899,118.975 Z M80.1528,116.871 C80.2535,117.031 80.3533,117.196 80.4531,117.363 L77.0516,119.327 C76.96,119.174 76.8722,119.031 76.7899,118.901 L76.7625,118.856 L80.0678,116.733 L80.1528,116.871 Z M77.8492,113.518 L74.6919,115.854 L74.379,115.447 L77.3801,112.909 L77.8492,113.518 Z M75.9993,111.305 C76.0807,111.389 76.1446,111.459 76.2041,111.53 L76.37,111.724 L73.3717,114.26 L73.2936,114.169 C73.2338,114.096 73.1667,114.022 73.086,113.94 L73.0281,113.879 L75.8547,111.153 L75.9993,111.305 Z M74.7784,110.028 L71.9488,112.757 L71.5761,112.405 L74.2196,109.5 L74.7784,110.028 Z M73.0692,108.451 L70.4247,111.357 L70.0347,111.025 L72.4843,107.953 L73.0692,108.451 Z M70.9397,106.733 L71.2665,106.983 L68.8167,110.055 L68.6073,109.894 C68.5419,109.842 68.4762,109.791 68.4105,109.742 L70.6551,106.517 C70.7503,106.587 70.8454,106.658 70.9397,106.733 Z M68.8765,105.301 C68.9891,105.367 69.1038,105.446 69.2253,105.529 L69.3747,105.631 L67.131,108.855 L67.0754,108.817 C66.9659,108.741 66.8526,108.663 66.7399,108.598 C66.7268,108.59 66.7142,108.583 66.7011,108.575 L68.7303,105.212 C68.7791,105.242 68.8258,105.271 68.8765,105.301 Z M65.3198,103.308 L63.5155,106.798 L63.0525,106.578 L64.6255,102.978 L65.3198,103.308 Z M63.1992,102.354 L61.626,105.954 C61.4652,105.89 61.3064,105.827 61.1494,105.766 L62.4844,102.072 C62.7202,102.163 62.9583,102.257 63.1992,102.354 Z M61.0213,101.539 L59.6866,105.233 C59.5223,105.177 59.3599,105.123 59.1996,105.072 L60.2913,101.298 C60.531,101.374 60.7747,101.455 61.0213,101.539 Z M58.7812,100.856 L58.7972,100.86 L57.7048,104.636 L57.2056,104.518 L58.0494,100.682 L58.7812,100.856 Z M56.5319,100.334 L55.6879,104.17 L55.0669,104.04 L55.8709,100.195 L56.5319,100.334 Z M54.3468,99.8767 L53.5428,103.722 L52.8991,103.587 L53.7031,99.742 L54.3468,99.8767 Z M15.1103,73.8704 L14.5325,74.2041 L14.8733,74.7943 L13.943,75.3314 L14.7215,76.6797 L15.6517,76.1426 L15.9806,76.7122 L15.0503,77.2493 L15.8288,78.5976 L16.7591,78.0605 L17.088,78.6302 L16.1576,79.1673 L16.9361,80.5156 L17.8664,79.9785 L18.1953,80.5481 L17.2649,81.0852 L18.0434,82.4335 L18.9737,81.8964 L19.3026,82.466 L18.3722,83.0031 L19.1507,84.3514 L20.0811,83.8143 L20.4134,84.39 L19.4847,84.9291 L20.2664,86.2756 L21.2118,85.7267 L21.6532,86.4473 L20.7579,87.0483 L21.6256,88.341 L26.3409,85.1762 L26.4115,85.2788 C26.4301,85.3045 26.4506,85.3352 26.4739,85.3697 C26.5246,85.445 26.5876,85.5385 26.6679,85.642 L23.5585,88.0403 L23.4993,87.9635 C23.4158,87.8559 23.3509,87.7601 23.2935,87.6756 C23.2621,87.6292 23.2342,87.5882 23.2133,87.5595 L23.1101,87.4101 L22.5611,87.7892 L22.6685,87.9447 C22.6902,87.9747 22.7141,88.01 22.7413,88.05 C22.8011,88.1382 22.8755,88.248 22.9714,88.3717 L23.0301,88.4479 L22.1785,89.1048 L23.1292,90.3376 L23.981,89.6806 L24.0904,89.8226 L24.0987,89.8328 C24.2399,90.0018 24.3807,90.1671 24.5214,90.3311 L23.7097,91.0462 L24.7388,92.2144 L25.5534,91.4968 C25.7469,91.7079 25.9394,91.9129 26.1311,92.1136 L25.3602,92.8876 L26.4632,93.9863 L27.2305,93.216 C27.4378,93.415 27.6439,93.6079 27.8482,93.7934 L27.1386,94.6051 L28.3109,95.6298 L29.024,94.8139 C29.2404,94.994 29.4592,95.172 29.6792,95.3477 L29.0214,96.2072 L30.2579,97.1533 L30.9142,96.2958 C31.1449,96.4658 31.3741,96.6309 31.6003,96.7895 L31.0012,97.6881 L32.2966,98.5518 L32.8953,97.6539 L33.6164,98.0946 L33.0704,99.0418 L34.4192,99.8194 L37.2608,94.8901 L37.7608,95.1611 L36.0264,98.6877 L35.3419,98.3179 L35.0244,98.9048 L35.7317,99.2868 L35.255,100.256 L36.6521,100.943 L37.1308,99.9701 L37.3005,100.051 C37.3589,100.078 37.4177,100.106 37.4773,100.135 C37.5953,100.191 37.7173,100.25 37.8488,100.304 L37.8983,100.325 L37.4879,101.318 L38.9267,101.912 L39.3376,100.918 L39.4857,100.979 L40.1318,101.208 L39.7833,102.237 L41.2579,102.736 L41.6041,101.715 C41.6475,101.728 41.6916,101.741 41.7345,101.754 L42.4149,101.954 L42.1324,103.009 L43.6364,103.412 L43.9188,102.357 L44.7139,102.545 L44.4917,103.608 L46.0157,103.927 L46.2362,102.872 L46.8798,103.007 L46.6594,104.061 L48.1834,104.38 L48.4036,103.327 L49.0472,103.462 L48.8272,104.514 L50.3512,104.833 L51.9722,97.0809 L50.4482,96.7622 L50.1241,98.312 L49.4805,98.1774 L49.8045,96.6276 L48.2805,96.3089 L47.9564,97.8587 L47.3127,97.7241 L47.6368,96.1743 L46.1128,95.8556 L45.7922,97.3888 L45.2806,97.2697 L45.6845,95.7609 L44.1805,95.3584 L43.7761,96.869 L43.2941,96.7277 L43.7999,95.2353 L42.3253,94.7356 L41.82,96.2267 L41.4194,96.0857 L41.3472,96.0559 L41.9519,94.5929 L40.5131,93.9983 L39.9084,95.4613 C39.8271,95.4262 39.746,95.3878 39.6671,95.3496 C39.6103,95.3219 39.5542,95.2947 39.5023,95.2709 L39.4534,95.2476 L40.1475,93.8363 L38.7503,93.1491 L38.0555,94.5619 L37.5942,94.3118 L38.3747,92.9579 L37.0259,92.1803 L36.2453,93.5345 L35.8165,93.2727 L36.6903,91.9622 L35.3948,91.0984 L34.5208,92.4093 C34.3857,92.3138 34.2498,92.2163 34.1128,92.116 L35.0711,90.8637 L33.8346,89.9176 L32.8779,91.1677 C32.7475,91.0629 32.6177,90.9569 32.4886,90.8502 L33.5231,89.6666 L32.3508,88.642 L31.3116,89.831 C31.1896,89.7194 31.0672,89.6049 30.9442,89.4878 L32.0526,88.3752 L30.9495,87.2765 L29.8456,88.3847 C29.732,88.2648 29.6177,88.1425 29.5027,88.0177 L30.6817,86.9791 L29.6525,85.8109 L28.4702,86.8525 C28.3735,86.7395 28.2765,86.6254 28.1786,86.5088 L28.1467,86.4675 L29.4005,85.5004 L28.4498,84.2676 L27.1964,85.2344 C27.1287,85.1472 27.0748,85.0676 27.0276,84.9975 C26.9993,84.9554 26.9742,84.9183 26.9564,84.8939 L26.8949,84.8044 L28.2017,83.9273 L27.334,82.6346 L26.0256,83.5127 L25.763,83.0843 L27.1156,82.299 L26.3339,80.9526 L24.9645,81.7477 L24.6385,81.183 L26.0096,80.3914 L25.2311,79.0431 L23.86,79.8347 L23.5312,79.2651 L24.9023,78.4735 L24.1238,77.1252 L22.7527,77.9168 L22.4239,77.3472 L23.795,76.5557 L23.0165,75.2073 L21.6454,75.9989 L21.3166,75.4293 L22.6876,74.6377 L21.9092,73.2893 L20.5381,74.0809 L20.2093,73.5114 L21.5803,72.7198 L20.8019,71.3714 L19.4308,72.163 L19.09,71.5728 L18.5122,71.9064 L18.853,72.4966 L15.4511,74.4607 L15.1103,73.8704 L15.1103,73.8704 Z M49.9876,98.9649 L49.1836,102.81 L48.5399,102.675 L49.3439,98.8302 L49.9876,98.9649 Z M47.82,98.5111 L47.0158,102.357 L46.3721,102.222 L47.1763,98.3764 L47.82,98.5111 Z M45.6546,98.0467 L44.8516,101.887 L44.092,101.71 L45.1073,97.917 L45.6546,98.0467 Z M43.0908,97.3634 L43.6035,97.5138 L42.5875,101.309 L41.9219,101.113 C41.8865,101.103 41.8531,101.093 41.8184,101.083 L43.0798,97.3601 C43.0834,97.3612 43.0872,97.3624 43.0908,97.3634 Z M41.6075,96.8537 L40.3454,100.578 L39.821,100.393 L39.5933,100.3 L41.0935,96.6698 L41.6075,96.8537 Z M39.2198,95.8754 C39.2715,95.8991 39.3233,95.9243 39.3759,95.9499 C39.4643,95.9927 39.5564,96.0363 39.6535,96.078 L38.1532,99.7081 L38.1038,99.6878 C37.9896,99.6405 37.8761,99.586 37.7664,99.5332 C37.7032,99.5029 37.641,99.4729 37.5832,99.4464 L37.4253,99.3713 L39.1589,95.8465 L39.2198,95.8754 Z M35.9119,94.1127 L33.9498,97.5163 L33.2657,97.0983 L35.4461,93.8282 L35.9119,94.1127 Z M34.1505,92.9647 L31.9706,96.2342 C31.7558,96.0835 31.5384,95.9268 31.3198,95.7658 L33.7072,92.646 C33.8561,92.7551 34.0039,92.8612 34.1505,92.9647 Z M32.4723,91.6977 L30.0847,94.8177 C29.8761,94.6511 29.6685,94.4822 29.4632,94.3114 L32.0493,91.3527 C32.1895,91.4688 32.3306,91.5839 32.4723,91.6977 Z M30.8724,90.3335 L28.2874,93.2909 C28.0936,93.1149 27.8982,92.9318 27.7014,92.7433 L30.4732,89.9607 C30.6068,90.088 30.7398,90.2123 30.8724,90.3335 Z M29.3745,88.8576 L26.6021,91.6409 C26.4202,91.4503 26.2376,91.2559 26.054,91.0558 L29.002,88.4589 C29.1269,88.5946 29.2511,88.7275 29.3745,88.8576 Z M27.6544,86.9217 L27.6631,86.9324 C27.766,87.055 27.8679,87.1749 27.9695,87.2936 L25.0221,89.89 C24.8866,89.7319 24.751,89.5728 24.6149,89.4099 L24.5093,89.2731 L27.6184,86.875 L27.6544,86.9217 Z M25.4711,83.8848 L22.2077,86.0752 L21.789,85.3916 L25.1858,83.4194 L25.4711,83.8848 Z M24.3875,82.0826 L20.9904,84.055 L20.6588,83.4807 L24.0607,81.5166 L24.3875,82.0826 Z M23.2823,80.1683 L19.8804,82.1324 L19.5515,81.5628 L22.9534,79.5987 L23.2823,80.1683 Z M22.175,78.2504 L18.7731,80.2145 L18.4442,79.6449 L21.8461,77.6808 L22.175,78.2504 Z M21.0676,76.3325 L17.6658,78.2966 L17.3369,77.7269 L20.7387,75.7629 L21.0676,76.3325 Z M19.6314,73.845 L19.9603,74.4145 L16.5584,76.3786 L16.2296,75.809 L19.6314,73.845 Z " fill="#f1f1f1" fill-opacity="1.00" />			<path d="M53.51,101.563 L52.9549,101.532 L52.9865,100.965 L49.7192,100.783 L49.6876,101.35 L49.1325,101.319 L49.1641,100.752 L48.2707,100.702 L48.3429,99.4072 L49.2363,99.457 L49.2667,98.91 L48.3733,98.8602 L48.4454,97.565 L49.3389,97.6148 L49.368,97.0928 L48.4731,97.0523 L48.5318,95.7565 L49.4156,95.7966 L49.427,95.4055 L48.5328,95.4232 L48.507,94.1264 L49.398,94.1088 C49.3917,93.9803 49.3845,93.8504 49.3759,93.7184 L48.4905,93.7938 L48.3803,92.5014 L49.2625,92.4262 C49.2485,92.2989 49.2331,92.1688 49.2174,92.0382 L48.3464,92.17 L48.1523,90.8875 L49.0237,90.7557 L48.9533,90.3713 L48.0909,90.56 L47.8138,89.2929 L48.6756,89.1044 L48.581,88.7059 L47.7229,88.9537 L47.363,87.7076 L48.2198,87.4601 C48.2157,87.4459 48.2117,87.4322 48.2075,87.4178 C48.1842,87.3301 48.1511,87.2376 48.1161,87.1395 L48.0981,87.0883 L47.2606,87.3905 L46.8203,86.1705 L47.6596,85.8676 C47.6379,85.8137 47.6155,85.7598 47.5917,85.7059 L47.5093,85.5066 L46.7018,85.8589 L46.1831,84.67 L46.9913,84.3173 L46.8236,83.9645 L46.0391,84.3695 L45.4441,83.2169 L46.2287,82.8119 L46.0428,82.4678 L45.2777,82.9281 L44.6091,81.8168 L45.3728,81.3572 L45.3357,81.2965 C45.2937,81.2251 45.2574,81.1686 45.218,81.1136 L45.1601,81.029 L44.4282,81.5371 L43.6885,80.4717 L44.4215,79.9628 L44.184,79.6523 L43.4933,80.2018 L42.6858,79.1867 L43.3765,78.6372 L43.111,78.3257 L42.4589,78.9187 L41.5863,77.9591 L42.238,77.3665 L42.2128,77.3399 C42.1306,77.2502 42.0384,77.1533 41.94,77.0516 L41.3103,77.6813 L40.3931,76.7641 L41.0257,76.1315 C40.9656,76.0714 40.9053,76.011 40.8448,75.9503 L40.6385,75.7439 L40.0057,76.3767 L39.0885,75.4596 L39.7213,74.8268 L39.3339,74.4393 L38.7011,75.0721 L37.7839,74.155 L38.4167,73.5222 L38.0292,73.1347 L37.3964,73.7675 L36.4793,72.8503 L37.112,72.2175 L36.7246,71.8301 L36.0918,72.4629 L35.1747,71.5457 L35.8075,70.9129 L35.4199,70.5254 L34.7872,71.1582 L33.87,70.2411 L38.5356,65.5755 L39.4527,66.4927 L38.5201,67.4253 L38.9076,67.8128 L39.8402,66.8802 L40.7574,67.7973 L39.8247,68.7299 L40.2122,69.1174 L41.1448,68.1848 L42.062,69.1019 L41.1293,70.0345 L41.5169,70.4221 L42.4495,69.4894 L43.3666,70.4066 L42.434,71.3392 L42.8214,71.7266 L43.7541,70.794 L44.6712,71.7112 L43.7386,72.6438 L43.9455,72.8507 C44.0062,72.9118 44.0662,72.9718 44.1258,73.0314 L45.0587,72.0986 L45.9758,73.0158 L45.0402,73.9514 C45.1573,74.0719 45.2721,74.192 45.3835,74.3121 L45.4824,74.4165 L46.4681,73.5203 L47.3407,74.4799 L46.3561,75.3752 C46.3732,75.3953 46.3903,75.4153 46.4074,75.4348 L46.7777,75.8695 L46.3546,76.2299 L45.9868,75.7982 C45.9731,75.7826 45.9588,75.7658 45.9446,75.7493 L43.5225,77.9517 L43.8117,78.291 L47.8491,75.0788 L48.6566,76.0938 L47.6146,76.9229 L48.0258,77.4605 L49.1084,76.7089 L49.8481,77.7743 L48.7607,78.5292 L48.8803,78.7038 C48.9311,78.7754 48.9815,78.8537 49.0374,78.9475 L49.1286,79.0973 L50.2626,78.4149 L50.9313,79.5263 L49.802,80.2058 L50.1239,80.8011 L51.3071,80.1903 L51.9021,81.3429 L50.7201,81.953 L51.0105,82.5637 L52.2306,82.0314 L52.7493,83.2203 L51.5286,83.7529 C51.5289,83.7537 51.5292,83.7546 51.5296,83.7554 L51.6612,84.0749 C51.7057,84.177 51.7461,84.2782 51.7851,84.379 L53.0267,83.9309 L53.467,85.1509 L52.2216,85.6004 L52.2727,85.7458 C52.3153,85.8661 52.3593,85.9905 52.3918,86.1102 C52.4052,86.1561 52.4179,86.1992 52.4311,86.2438 L53.702,85.8767 L54.062,87.1228 L52.7944,87.4889 C52.8018,87.516 52.809,87.5429 52.8159,87.5687 L52.9488,88.124 L52.4083,88.2535 L52.2769,87.7047 C52.2717,87.6849 52.266,87.6639 52.2603,87.6432 L49.1156,88.5515 L49.2187,88.9856 L54.2595,87.8831 L54.5366,89.1502 L53.2377,89.4343 L53.3595,90.0996 L54.6762,89.9004 L54.8703,91.1828 L53.5547,91.3819 C53.5828,91.6088 53.6086,91.8329 53.632,92.0539 L54.9545,91.9413 L55.0647,93.2337 L53.7454,93.3461 C53.761,93.5755 53.7736,93.8006 53.7835,94.0218 L55.1038,93.9957 L55.1295,95.2924 L53.813,95.3185 L53.8135,95.3379 L53.7946,95.9949 L55.1232,96.0552 L55.0644,97.3509 L53.748,97.2913 L53.7164,97.8588 L55.0334,97.9321 L54.9612,99.2273 L53.6442,99.1539 L53.6138,99.7009 L54.9307,99.7743 L54.8585,101.069 L53.5416,100.996 L53.51,101.563 Z M38.127,67.8184 L35.813,70.1324 L36.2005,70.5199 L38.5145,68.2059 L38.127,67.8184 Z M39.4317,69.123 L37.1177,71.437 L37.5051,71.8245 L39.8191,69.5105 L39.4317,69.123 Z M40.7363,70.4276 L38.4223,72.7416 L38.8098,73.1291 L41.1238,70.8151 L40.7363,70.4276 Z M42.0409,71.7323 L39.7269,74.0463 L40.1144,74.4337 L42.4284,72.1197 L42.0409,71.7323 Z M43.5519,73.2432 L43.3455,73.0369 L41.0315,75.3509 L41.2384,75.5577 C41.2986,75.6183 41.3588,75.6785 41.4188,75.7385 L43.7328,73.4245 C43.6729,73.3647 43.6127,73.3045 43.5519,73.2432 Z M44.9779,74.6923 C44.8708,74.5767 44.7598,74.4609 44.647,74.3446 L42.3332,76.6584 C42.4365,76.7651 42.5329,76.8665 42.6192,76.9607 L42.6494,76.9924 L45.071,74.7905 L44.9779,74.6923 Z M47.1795,77.269 L44.6191,79.3061 L44.8786,79.6454 L47.5687,77.7778 L47.1795,77.269 Z M48.5616,79.2348 C48.5117,79.1513 48.4688,79.0846 48.4242,79.0214 L48.3042,78.8462 L45.6167,80.712 L45.6731,80.7945 C45.719,80.8584 45.7639,80.9283 45.8127,81.0109 L45.8491,81.0706 L48.6523,79.3838 L48.5616,79.2348 Z M49.3255,80.4925 L46.5192,82.1811 L46.7225,82.557 L49.63,81.0561 L49.3255,80.4925 Z M50.2261,82.208 L47.3176,83.7095 L47.5009,84.095 L50.5008,82.7861 L50.2261,82.208 Z M51.1496,84.2921 L51.019,83.9752 L48.0188,85.2843 L48.1028,85.4874 C48.1311,85.5514 48.1577,85.6152 48.1831,85.6787 L51.262,84.5677 C51.2264,84.4761 51.1896,84.3842 51.1496,84.2921 Z M51.8568,86.2611 C51.8283,86.1563 51.7896,86.047 51.7486,85.9313 L51.6986,85.789 L48.621,86.8996 L48.6397,86.9525 C48.6769,87.057 48.7155,87.165 48.7432,87.2696 C48.7467,87.2819 48.7502,87.2937 48.7537,87.3059 L51.897,86.398 C51.8836,86.3523 51.8706,86.3086 51.8568,86.2611 Z M52.6943,89.5531 L49.4967,90.2525 L49.5736,90.6725 L52.8096,90.1828 L52.6943,89.5531 Z M53.0042,91.4652 L49.768,91.9549 C49.7854,92.0982 49.8016,92.2395 49.8168,92.379 L53.0772,92.1012 C53.055,91.8919 53.0307,91.68 53.0042,91.4652 Z M53.1903,93.3934 L49.9305,93.6711 C49.94,93.8153 49.9482,93.9576 49.955,94.0977 L53.2269,94.0328 C53.2174,93.8236 53.2049,93.6101 53.1903,93.3934 Z M53.2575,95.3435 L53.2572,95.3296 L49.9831,95.3944 L49.9707,95.8217 L53.2394,95.9698 L53.2575,95.3435 Z M53.1927,97.2661 L49.9233,97.118 L49.8939,97.6458 L53.1614,97.8278 L53.1927,97.2661 Z M53.0892,99.123 L49.8218,98.9409 L49.7913,99.4879 L53.0587,99.67 L53.0892,99.123 Z M65.5565,136.304 L65.1634,136.698 L64.7619,136.296 L64.1291,136.929 L63.2119,136.012 L63.8447,135.379 L63.4573,134.991 L62.8245,135.624 L61.9073,134.707 L62.5402,134.074 L62.1527,133.687 L61.5199,134.32 L60.6027,133.402 L61.2355,132.77 L60.8481,132.382 L60.2153,133.015 L59.2981,132.098 L59.9309,131.465 L59.5435,131.078 L58.9107,131.71 L57.9935,130.793 L58.6263,130.16 L58.2348,129.769 L57.6006,130.4 L56.6856,129.481 L57.3312,128.838 L56.8465,128.327 L56.1699,128.918 L55.3167,127.941 L58.8801,124.829 L58.8128,124.75 C58.7961,124.73 58.7759,124.707 58.7531,124.681 C58.7034,124.624 58.6418,124.553 58.5758,124.466 L55.9754,126.451 L56.0245,126.515 C56.093,126.605 56.1561,126.678 56.2118,126.743 C56.2423,126.778 56.2693,126.809 56.2879,126.832 L56.3859,126.948 L55.9624,127.308 L55.8605,127.188 C55.841,127.164 55.8178,127.137 55.7914,127.106 C55.7333,127.039 55.661,126.956 55.5821,126.852 L55.5335,126.788 L54.8213,127.332 L54.0342,126.301 L54.7465,125.757 L54.6559,125.638 L54.6495,125.63 C54.5439,125.48 54.4413,125.331 54.3396,125.182 L53.5891,125.681 L52.871,124.601 L53.6241,124.1 C53.4959,123.899 53.3725,123.7 53.2523,123.502 L52.4633,123.956 L51.817,122.831 L52.6022,122.38 C52.4869,122.17 52.376,121.963 52.2708,121.758 L51.4646,122.154 L50.8928,120.99 L51.7031,120.592 C51.6049,120.379 51.5088,120.165 51.4149,119.95 L50.5814,120.294 L50.0866,119.095 L50.9182,118.752 C50.8311,118.529 50.7477,118.309 50.6689,118.093 L49.8166,118.381 L49.4008,117.153 L50.2525,116.865 L50.0533,116.189 L49.1733,116.424 L48.8385,115.171 L53.4179,113.947 L53.3076,113.487 L50.0957,114.122 L50.2457,114.753 L49.705,114.881 L49.55,114.23 L48.6672,114.405 L48.4156,113.132 L49.3019,112.957 L49.2735,112.803 C49.2644,112.75 49.2545,112.697 49.2442,112.642 C49.224,112.535 49.2031,112.424 49.1877,112.307 L49.182,112.263 L48.2945,112.379 L48.1262,111.093 L49.0148,110.976 L48.9975,110.844 L48.9526,110.275 L48.05,110.334 L47.9658,109.039 L48.8624,108.981 C48.8615,108.943 48.86,108.905 48.8592,108.867 L48.8449,108.277 L47.9349,108.277 L47.9353,106.98 L48.8451,106.98 L48.8648,106.299 L47.9616,106.249 L48.0338,104.954 L48.9299,105.004 L48.96,104.457 L48.0642,104.407 L48.1364,103.112 L49.0311,103.162 L49.0611,102.615 L48.1669,102.565 L48.2391,101.27 L54.8269,101.637 L54.7548,102.932 L53.4378,102.858 L53.4073,103.405 L54.7243,103.479 L54.6522,104.774 L53.3352,104.701 L53.3047,105.248 L54.6217,105.321 L54.5496,106.616 L53.2466,106.543 L53.2322,106.981 L54.5334,106.981 L54.533,108.278 L53.2302,108.278 L53.24,108.696 L54.55,108.611 L54.6342,109.905 L53.3253,109.99 L53.3524,110.343 L53.3608,110.408 L54.6685,110.237 L54.8367,111.523 L53.5291,111.694 C53.5398,111.767 53.5532,111.84 53.5669,111.912 C53.5769,111.964 53.5867,112.015 53.5947,112.062 L53.6029,112.106 L54.8883,111.852 L55.14,113.124 L53.8533,113.379 L53.9551,113.804 L55.2129,113.468 L55.5478,114.721 L54.2897,115.057 L54.4079,115.458 L55.651,115.038 L56.0667,116.267 L54.8234,116.687 C54.8711,116.817 54.9202,116.947 54.9714,117.079 L56.1857,116.578 L56.6805,117.777 L55.4683,118.277 C55.5245,118.405 55.5818,118.532 55.6398,118.659 L56.8153,118.082 L57.3871,119.246 L56.2062,119.826 C56.2697,119.948 56.3354,120.071 56.4031,120.195 L57.5375,119.543 L58.1838,120.668 L57.0539,121.317 C57.1259,121.435 57.1997,121.553 57.2753,121.672 L58.3653,120.948 L59.0835,122.028 L57.9903,122.754 C58.0604,122.857 58.1313,122.959 58.204,123.063 L58.2304,123.098 L59.279,122.297 L60.066,123.328 L59.0178,124.128 C59.0734,124.202 59.1258,124.262 59.1721,124.315 C59.1998,124.347 59.2243,124.375 59.2401,124.395 L59.2988,124.464 L60.2864,123.601 L61.1396,124.578 L60.1508,125.442 L60.4389,125.745 L61.3625,124.826 L62.2774,125.746 L61.3423,126.676 L61.7264,127.06 L62.659,126.128 L63.5762,127.045 L62.6436,127.977 L63.031,128.365 L63.9636,127.432 L64.8808,128.349 L63.9482,129.282 L64.3356,129.67 L65.2682,128.737 L66.1854,129.654 L65.2528,130.587 L65.6403,130.974 L66.5729,130.042 L67.4901,130.959 L66.5574,131.891 L66.9449,132.279 L67.8775,131.346 L68.7947,132.263 L67.862,133.196 L68.2635,133.597 L67.8705,133.99 L67.469,133.589 L65.155,135.903 L65.5565,136.304 L65.5565,136.304 Z M52.8829,102.827 L49.6154,102.645 L49.5849,103.192 L52.8526,103.374 L52.8829,102.827 Z M52.7807,104.67 L49.5127,104.488 L49.4822,105.035 L52.7504,105.217 L52.7807,104.67 Z M52.6876,106.512 L49.4243,106.33 L49.403,106.98 L52.6739,106.981 L52.6876,106.512 Z M52.6846,108.723 L52.6741,108.278 L49.4009,108.277 L49.4148,108.855 C49.4156,108.885 49.4167,108.915 49.4175,108.945 L52.6849,108.732 C52.6848,108.729 52.6847,108.726 52.6846,108.723 Z M52.7749,110.026 L49.5058,110.239 L49.5414,110.701 L49.5676,110.904 L52.8121,110.48 L52.7749,110.026 Z M53.0473,112.159 C53.0395,112.112 53.0303,112.065 53.0211,112.017 C53.0057,111.937 52.9904,111.853 52.9779,111.766 L49.7331,112.191 L49.7388,112.235 C49.7523,112.337 49.7717,112.44 49.7905,112.539 C49.8013,112.597 49.812,112.653 49.8208,112.706 L49.8472,112.849 L53.0575,112.214 L53.0473,112.159 Z M53.7526,115.201 L50.5906,116.046 L50.7794,116.686 L53.8811,115.637 L53.7526,115.201 Z M54.2966,116.866 L51.1956,117.915 C51.2705,118.12 51.3497,118.329 51.4321,118.539 L54.4575,117.291 C54.4018,117.148 54.3482,117.006 54.2966,116.866 Z M54.9543,118.489 L51.9287,119.738 C52.0179,119.942 52.109,120.145 52.2022,120.347 L55.1407,118.904 C55.0776,118.766 55.0153,118.628 54.9543,118.489 Z M55.7071,120.071 L52.7699,121.513 C52.8697,121.707 52.9749,121.904 53.0842,122.103 L55.921,120.472 C55.8474,120.337 55.7761,120.204 55.7071,120.071 Z M56.5718,121.594 L53.7343,123.225 C53.8484,123.413 53.9655,123.602 54.0869,123.792 L56.8123,121.98 C56.7301,121.85 56.6499,121.722 56.5718,121.594 Z M57.7588,123.396 L57.752,123.387 C57.6756,123.277 57.6011,123.17 57.5274,123.062 L54.8026,124.874 C54.9006,125.017 54.9994,125.161 55.1011,125.305 L55.1884,125.42 L57.7885,123.435 L57.7588,123.396 Z M59.7318,125.808 L57.2655,127.962 L57.7253,128.446 L60.0448,126.138 L59.7318,125.808 Z M60.9484,127.068 L58.6287,129.377 L59.0194,129.767 L61.3334,127.453 L60.9484,127.068 Z M62.2506,128.371 L59.9365,130.685 L60.3239,131.072 L62.638,128.758 L62.2506,128.371 Z M63.5552,129.675 L61.2411,131.989 L61.6285,132.377 L63.9426,130.063 L63.5552,129.675 Z M64.8597,130.98 L62.5457,133.294 L62.9332,133.681 L65.2472,131.367 L64.8597,130.98 Z M66.5518,132.672 L66.1644,132.284 L63.8504,134.598 L64.2378,134.986 L66.5518,132.672 Z " fill="#f1f1f1" fill-opacity="1.00" />			<path d="M50.4325,91.2742 L50.2779,90.7005 L49.6877,90.8595 L49.6436,90.6955 L50.2337,90.5365 L50.0792,89.9627 L37.8486,93.2579 L38.0032,93.8317 L38.5934,93.6727 L38.6375,93.8366 L38.0474,93.9956 L38.2019,94.5694 L50.4325,91.2742 Z M47.9053,91.1638 L49.0228,90.8628 L49.0669,91.0267 L47.9495,91.3278 L47.9053,91.1638 Z M46.1671,91.6322 L47.2845,91.3311 L47.3287,91.495 L46.2113,91.7961 L46.1671,91.6322 Z M44.4289,92.1005 L45.5463,91.7994 L45.5905,91.9634 L44.473,92.2644 L44.4289,92.1005 Z M42.6906,92.5688 L43.8081,92.2677 L43.8522,92.4317 L42.7348,92.7327 L42.6906,92.5688 Z M40.9524,93.0371 L42.0698,92.7361 L42.114,92.9 L40.9966,93.201 L40.9524,93.0371 Z M39.2142,93.5054 L40.3316,93.2044 L40.3758,93.3683 L39.2583,93.6694 L39.2142,93.5054 Z " fill="#f1f1f1" fill-opacity="1.00" />			<path d="M60.3337,104.948 L59.9496,104.701 L59.6956,105.096 L59.5859,105.026 L59.8399,104.631 L59.4558,104.384 L54.1911,112.571 L54.5752,112.818 L54.8292,112.423 L54.939,112.494 L54.6849,112.889 L55.069,113.136 L60.3337,104.948 Z M58.8376,106.189 L59.3186,105.441 L59.4284,105.512 L58.9474,106.26 L58.8376,106.189 Z M58.0894,107.353 L58.5704,106.605 L58.6801,106.676 L58.1991,107.424 L58.0894,107.353 Z M57.3412,108.517 L57.8222,107.769 L57.9319,107.839 L57.4509,108.587 L57.3412,108.517 Z M56.5929,109.68 L57.0739,108.932 L57.1837,109.003 L56.7027,109.751 L56.5929,109.68 Z M55.8447,110.844 L56.3257,110.096 L56.4354,110.166 L55.9544,110.914 L55.8447,110.844 Z M55.0965,112.007 L55.5775,111.259 L55.6872,111.33 L55.2062,112.078 L55.0965,112.007 Z " fill="#f1f1f1" fill-opacity="1.00" />			<path d="M63.9666,108.759 L63.5144,108.367 L63.111,108.832 L62.9818,108.72 L63.3852,108.254 L62.933,107.862 L54.5734,117.502 L55.0257,117.894 L55.429,117.429 L55.5582,117.541 L55.1549,118.006 L55.6071,118.398 L63.9666,108.759 Z M61.7937,110.09 L62.5575,109.209 L62.6867,109.321 L61.9229,110.202 L61.7937,110.09 Z M60.6057,111.46 L61.3694,110.579 L61.4986,110.691 L60.7349,111.572 L60.6057,111.46 Z M59.4176,112.83 L60.1813,111.949 L60.3105,112.061 L59.5468,112.942 L59.4176,112.83 Z M58.2295,114.2 L58.9933,113.319 L59.1225,113.431 L58.3587,114.312 L58.2295,114.2 Z M57.0414,115.57 L57.8052,114.689 L57.9344,114.801 L57.1706,115.682 L57.0414,115.57 Z M55.8534,116.94 L56.6171,116.059 L56.7463,116.171 L55.9826,117.052 L55.8534,116.94 Z " fill="#f1f1f1" fill-opacity="1.00" />			<path d="M70.4367,112.91 L69.9991,112.338 L69.4113,112.788 L69.2863,112.625 L69.8741,112.175 L69.4365,111.604 L57.2549,120.931 L57.6925,121.502 L58.2803,121.052 L58.4053,121.215 L57.8175,121.666 L58.2551,122.237 L70.4367,112.91 Z M67.555,113.951 L68.668,113.099 L68.793,113.262 L67.68,114.114 L67.555,113.951 Z M65.8237,115.276 L66.9367,114.424 L67.0617,114.587 L65.9488,115.44 L65.8237,115.276 Z M64.0924,116.602 L65.2054,115.75 L65.3304,115.913 L64.2175,116.765 L64.0924,116.602 Z M62.3612,117.928 L63.4741,117.075 L63.5992,117.239 L62.4862,118.091 L62.3612,117.928 Z M60.6299,119.253 L61.7429,118.401 L61.8679,118.564 L60.7549,119.416 L60.6299,119.253 Z M58.8986,120.579 L60.0116,119.727 L60.1366,119.89 L59.0236,120.742 L58.8986,120.579 Z " fill="#f1f1f1" fill-opacity="1.00" />			<path d="M75.5237,118.167 L75.1319,117.469 L74.4139,117.872 L74.3019,117.672 L75.0199,117.269 L74.6281,116.571 L59.7488,124.923 L60.1406,125.621 L60.8586,125.218 L60.9706,125.418 L60.2526,125.821 L60.6444,126.519 L75.5237,118.167 Z M72.1873,118.859 L73.5467,118.096 L73.6587,118.296 L72.2992,119.059 L72.1873,118.859 Z M70.0726,120.046 L71.432,119.283 L71.544,119.483 L70.1845,120.246 L70.0726,120.046 Z M67.9579,121.233 L69.3173,120.47 L69.4293,120.67 L68.0698,121.433 L67.9579,121.233 Z M65.8432,122.42 L67.2027,121.657 L67.3146,121.857 L65.9552,122.62 L65.8432,122.42 Z M63.7285,123.607 L65.088,122.844 L65.1999,123.044 L63.8405,123.807 L63.7285,123.607 Z M61.6139,124.794 L62.9733,124.031 L63.0852,124.231 L61.7258,124.994 L61.6139,124.794 Z " fill="#f1f1f1" fill-opacity="1.00" />			<path d="M80.4325,125.094 L80.228,124.32 L79.4319,124.531 L79.3735,124.31 L80.1695,124.099 L79.965,123.325 L63.4683,127.685 L63.6728,128.459 L64.4688,128.248 L64.5272,128.469 L63.7312,128.68 L63.9357,129.454 L80.4325,125.094 Z M77.0289,124.929 L78.5362,124.531 L78.5946,124.752 L77.0874,125.15 L77.0289,124.929 Z M74.6844,125.549 L76.1916,125.15 L76.25,125.371 L74.7428,125.77 L74.6844,125.549 Z M72.3398,126.168 L73.847,125.77 L73.9055,125.991 L72.3983,126.389 L72.3398,126.168 Z M69.9953,126.788 L71.5025,126.389 L71.5609,126.611 L70.0537,127.009 L69.9953,126.788 Z M67.6507,127.407 L69.1579,127.009 L69.2164,127.23 L67.7092,127.628 L67.6507,127.407 Z M65.3062,128.027 L66.8134,127.629 L66.8718,127.85 L65.3646,128.248 L65.3062,128.027 Z " fill="#f1f1f1" fill-opacity="1.00" />			<path d="M48.3454,86.0276 L48.0705,85.4142 L47.4396,85.697 L47.361,85.5217 L47.992,85.2389 L47.717,84.6255 L34.6412,90.4859 L34.9161,91.0993 L35.547,90.8165 L35.6256,90.9918 L34.9946,91.2746 L35.2696,91.888 L48.3454,86.0276 Z M45.5026,86.3546 L46.6973,85.8192 L46.7759,85.9944 L45.5812,86.5299 L45.5026,86.3546 Z M43.6443,87.1875 L44.8389,86.6521 L44.9175,86.8273 L43.7228,87.3628 L43.6443,87.1875 Z M41.7859,88.0204 L42.9805,87.485 L43.0591,87.6602 L41.8644,88.1957 L41.7859,88.0204 Z M39.9275,88.8533 L41.1222,88.3179 L41.2007,88.4931 L40.0061,89.0286 L39.9275,88.8533 Z M38.0691,89.6862 L39.2638,89.1507 L39.3424,89.326 L38.1477,89.8614 L38.0691,89.6862 Z M36.2108,90.5191 L37.4054,89.9836 L37.484,90.1589 L36.2893,90.6943 L36.2108,90.5191 Z " fill="#f1f1f1" fill-opacity="1.00" />			<path d="M45.7219,80.6679 L45.3823,79.9589 L44.653,80.3082 L44.556,80.1056 L45.2853,79.7563 L44.9457,79.0472 L29.8319,86.2862 L30.1715,86.9952 L30.9008,86.6459 L30.9978,86.8485 L30.2686,87.1978 L30.6082,87.9068 L45.7219,80.6679 Z M42.408,81.1344 L43.7889,80.473 L43.8859,80.6756 L42.505,81.337 L42.408,81.1344 Z M40.26,82.1632 L41.6409,81.5018 L41.7379,81.7044 L40.357,82.3658 L40.26,82.1632 Z M38.112,83.192 L39.4928,82.5306 L39.5899,82.7332 L38.209,83.3946 L38.112,83.192 Z M35.964,84.2208 L37.3448,83.5594 L37.4419,83.762 L36.061,84.4234 L35.964,84.2208 Z M33.816,85.2496 L35.1968,84.5883 L35.2939,84.7908 L33.913,85.4522 L33.816,85.2496 Z M31.668,86.2784 L33.0488,85.6171 L33.1458,85.8197 L31.765,86.481 L31.668,86.2784 Z " fill="#f1f1f1" fill-opacity="1.00" />			<path d="M40.7432,76.0431 L40.3663,75.42 L39.7254,75.8076 L39.6177,75.6296 L40.2586,75.242 L39.8818,74.6189 L26.5999,82.6524 L26.9768,83.2755 L27.6177,82.8879 L27.7253,83.0659 L27.0844,83.4535 L27.4613,84.0766 L40.7432,76.0431 Z M37.7301,76.7714 L38.9436,76.0374 L39.0513,76.2154 L37.8378,76.9494 L37.7301,76.7714 Z M35.8424,77.9131 L37.0559,77.1791 L37.1636,77.3571 L35.9501,78.0911 L35.8424,77.9131 Z M33.9548,79.0548 L35.1683,78.3209 L35.276,78.4989 L34.0625,79.2329 L33.9548,79.0548 Z M32.0671,80.1966 L33.2806,79.4626 L33.3883,79.6406 L32.1748,80.3746 L32.0671,80.1966 Z M30.1795,81.3383 L31.393,80.6044 L31.5007,80.7824 L30.2872,81.5164 L30.1795,81.3383 Z M28.2918,82.4801 L29.5053,81.7461 L29.613,81.9241 L28.3995,82.6581 L28.2918,82.4801 Z " fill="#f1f1f1" fill-opacity="1.00" />			<path d="M-46.1817,-116.416 C-54.1772,-127.508 -62.4446,-125.091 -70.8711,-119.341 L-65.0641,-110.831 C-62.3164,-106.805 -56.8692,-105.776 -52.8427,-108.524 L-52.0125,-109.091 C-53.1479,-107.099 -53.1014,-104.089 -51.7417,-102.096 C-49.8155,-99.2737 -45.7102,-98.6072 -43.0878,-101.005 C-40.6446,-103.22 -39.606,-106.423 -41.2812,-109.235 C-39.2891,-106.761 -35.8012,-106.464 -32.9594,-107.917 C-29.7856,-109.596 -29.0078,-113.716 -30.934,-116.539 C-32.2937,-118.532 -34.9666,-119.506 -37.2067,-119.134 L-36.3765,-119.7 C-32.35,-122.448 -31.3217,-127.895 -34.0694,-131.921 L-39.9047,-140.472 C-48.318,-134.792 -53.6942,-127.96 -46.1817,-116.416 Z " fill="#f1f1f1" fill-opacity="1.00" />			<path d="M-17.0975,-86.6436 C-26.9792,-86.6436 -35.0025,-78.6204 -35.0025,-68.7839 L-35.0025,-61.9392 C-35.0025,-58.1316 -33.1893,-54.7319 -30.3789,-52.6014 L-30.3789,-47.2979 C-30.3789,-46.5273 -29.7897,-45.8021 -28.9737,-45.7567 C-28.1125,-45.7114 -27.4325,-46.3913 -27.4325,-47.2073 L-27.4325,-48.2045 L-27.4325,-48.3858 C-27.3419,-49.1111 -26.7526,-49.7004 -25.982,-49.7004 C-25.2567,-49.7004 -24.6221,-49.1111 -24.5315,-48.3858 L-24.5315,-48.2045 L-24.5315,-47.2526 C-24.5315,-46.482 -23.9422,-45.7567 -23.1263,-45.7114 C-22.265,-45.6661 -21.5851,-46.346 -21.5851,-47.1619 L-21.5851,-48.2045 L-21.5851,-48.3858 C-21.4944,-49.1111 -20.9051,-49.7004 -20.1345,-49.7004 C-19.4093,-49.7004 -18.7747,-49.1111 -18.684,-48.3858 L-18.684,-48.2045 L-18.684,-47.2526 C-18.684,-46.482 -18.0947,-45.7567 -17.2788,-45.7114 C-16.4176,-45.6661 -15.7376,-46.346 -15.7376,-47.1619 L-15.7376,-48.2045 L-15.7376,-48.3858 C-15.647,-49.1111 -15.0577,-49.7004 -14.2871,-49.7004 C-13.5165,-49.7004 -12.9272,-49.1111 -12.8365,-48.3858 L-12.8365,-48.2045 L-12.8365,-47.2526 C-12.8365,-46.482 -12.2473,-45.7567 -11.4313,-45.7114 C-10.5701,-45.6661 -9.89015,-46.346 -9.89015,-47.1619 L-9.89015,-49.8364 C-9.89015,-50.471 -9.48219,-51.1056 -8.84758,-51.3322 C-3.18144,-53.644 0.852855,-59.2648 0.852855,-65.7469 L0.852855,-68.6933 C0.762198,-78.6204 -7.21573,-86.6436 -17.0975,-86.6436 Z M-20.2705,-57.5876 L-19.228,-54.8679 C-18.9107,-54.0066 -19.8626,-53.2814 -20.6332,-53.78 C-20.9505,-54.0066 -21.3131,-54.0066 -21.6757,-53.78 C-22.4463,-53.2814 -23.3982,-54.052 -23.0809,-54.8679 L-22.0384,-57.5876 C-21.6757,-58.4036 -20.5425,-58.4036 -20.2705,-57.5876 Z M-32.1014,-62.2112 C-32.1014,-64.7043 -30.107,-66.6988 -27.6139,-66.6988 C-25.1208,-66.6988 -23.1263,-64.7043 -23.1263,-62.2112 C-23.1263,-59.7181 -25.1208,-57.7236 -27.6139,-57.7236 C-30.107,-57.7236 -32.1014,-59.7181 -32.1014,-62.2112 Z M-13.6071,-57.6783 C-16.1002,-57.6783 -18.0947,-59.6728 -18.0947,-62.1659 C-18.0947,-64.659 -16.1002,-66.6535 -13.6071,-66.6535 C-11.114,-66.6535 -9.11956,-64.659 -9.11956,-62.1659 C-9.07423,-59.7181 -11.114,-57.6783 -13.6071,-57.6783 Z " fill="#fbdd8f" fill-opacity="1.00" />			<path d="M28.9271,-115.358 C29.698,-112.249 32.4478,-109.859 35.6602,-109.679 C39.9776,-109.371 43.6011,-112.84 43.6011,-117.183 C43.6011,-117.44 43.5754,-117.748 43.524,-118.057 C43.4212,-118.751 43.1643,-119.496 42.8302,-120.113 L36.1742,-131.96 L29.4668,-120.036 C29.0042,-119.265 28.7729,-118.391 28.7215,-117.492 C28.6701,-116.823 28.7472,-116.052 28.9271,-115.358 Z " fill="#da4620" fill-opacity="1.00" />			<path d="M-100.032,43.6246 L-94.5629,18.429 L-84.6102,8.47633 L-84.4757,8.61082 C-83.9377,9.1488 -83.1756,9.10397 -82.6824,8.61082 C-82.1444,8.07284 -82.1893,7.31069 -82.6824,6.81754 L-90.0797,-0.579727 C-90.6177,-1.11771 -91.3798,-1.07288 -91.873,-0.579727 C-92.411,-0.0417429 -92.3661,0.7204 -91.873,1.21355 L-91.7385,1.34805 L-101.691,11.3007 L-126.976,16.6806 C-130.294,17.3979 -131.46,21.5224 -129.083,23.8985 L-107.205,45.7765 C-104.829,48.1526 -100.705,46.987 -100.032,43.6246 Z M-82.9962,3.90347 C-82.9962,3.90347 -76.8094,-0.490063 -74.4333,-1.16254 C-75.9128,-2.642 -80.6202,-6.63204 -82.1444,-7.08036 C-83.1756,-5.6009 -85.3723,-2.86616 -87.5691,-0.66939 C-87.1208,-0.221071 -82.9962,3.90347 -82.9962,3.90347 Z " fill="#f1f1f1" fill-opacity="1.00" />			<path d="M126.403,-43.2767 C124.508,-43.2518 123.313,-44.3952 122.504,-45.5322 L114.102,-60.0837 C114.675,-60.4145 114.812,-61.1043 114.514,-61.62 C114.216,-62.1356 113.493,-62.3293 112.978,-62.0316 L106.447,-58.2609 C105.874,-57.9301 105.737,-57.2403 106.035,-56.7247 C106.333,-56.2091 107.056,-56.0154 107.571,-56.313 L115.443,-42.6781 C116.171,-41.4177 117.199,-39.1084 115.78,-37.0672 C115.723,-37.0341 115.756,-36.9768 115.699,-36.9437 C112.936,-32.5991 112.568,-26.8865 115.313,-22.1315 C119.216,-15.3713 127.891,-13.0468 134.652,-16.9498 C141.412,-20.8528 143.736,-29.5279 139.833,-36.2881 C137.022,-41.1577 131.677,-43.8007 126.403,-43.2767 Z M112.006,-62.9216 C112.006,-62.9216 111.183,-65.2729 110.763,-67.3223 C108.048,-67.1297 101.821,-65.2148 101.272,-64.9744 C102.235,-64.232 105.086,-61.6764 106.277,-59.614 L112.006,-62.9216 Z " fill="#f1f1f1" fill-opacity="1.00" />			<path d="M-89.8221,-92.9695 C-90.0773,-93.1882 -90.3325,-93.407 -90.6972,-93.7352 C-90.369,-93.9904 -90.1502,-94.1727 -89.9679,-94.355 C-88.2907,-95.8134 -87.7073,-98.621 -90.4784,-100.189 C-91.0253,-100.481 -91.7181,-100.59 -92.3379,-100.663 C-92.9578,-100.736 -93.1401,-100.918 -92.9578,-101.538 C-92.5202,-103.106 -92.9578,-104.491 -94.2339,-105.512 C-95.3277,-106.387 -97.1144,-106.387 -98.427,-105.622 C-99.302,-105.111 -99.3385,-105.111 -99.776,-106.059 C-100.432,-107.481 -101.599,-108.32 -103.13,-108.32 C-104.589,-108.283 -105.756,-107.518 -106.448,-106.132 C-106.995,-105.038 -106.959,-105.075 -108.016,-105.622 C-109.402,-106.351 -110.787,-106.351 -112.064,-105.439 C-113.267,-104.564 -113.704,-103.252 -113.413,-101.757 C-113.194,-100.736 -113.194,-100.736 -114.288,-100.663 C-115.746,-100.553 -117.168,-99.4596 -117.606,-98.0741 C-118.007,-96.8344 -117.423,-95.1936 -116.257,-94.2821 C-116.038,-94.0998 -115.855,-93.9175 -115.6,-93.6987 C-115.892,-93.4435 -116.111,-93.2612 -116.329,-93.0788 C-118.371,-91.4016 -118.153,-88.5212 -115.819,-87.245 C-115.272,-86.9533 -114.652,-86.844 -114.032,-86.771 C-113.449,-86.6981 -113.157,-86.5887 -113.34,-85.896 C-113.777,-84.3646 -113.194,-82.7603 -112.064,-81.9217 C-110.97,-81.1195 -109.147,-81.0831 -107.87,-81.8487 C-106.995,-82.3592 -106.959,-82.3592 -106.521,-81.4112 C-105.865,-79.9892 -104.735,-79.1871 -103.167,-79.1506 C-101.636,-79.1141 -100.469,-79.9528 -99.776,-81.3383 C-99.2656,-82.3592 -99.302,-82.3957 -98.3176,-81.8123 C-96.2028,-80.5726 -93.6141,-81.4841 -92.9578,-83.7447 C-92.739,-84.4375 -92.8484,-85.2397 -92.9578,-86.0053 C-93.0307,-86.5523 -92.9213,-86.771 -92.4108,-86.8075 C-92.2285,-86.8075 -92.0827,-86.8075 -91.9004,-86.844 C-90.369,-87.0627 -89.2752,-87.8284 -88.6918,-89.3233 C-88.2907,-90.4172 -88.7647,-92.0215 -89.8221,-92.9695 Z M-103.13,-87.0627 C-106.813,-87.0627 -109.766,-90.0526 -109.766,-93.6987 C-109.766,-97.3448 -106.813,-100.335 -103.13,-100.335 C-99.4479,-100.335 -96.4945,-97.3813 -96.4945,-93.6987 C-96.4945,-90.0161 -99.4479,-87.0627 -103.13,-87.0627 Z M-100.323,-93.6987 C-100.323,-95.2492 -101.58,-96.5062 -103.13,-96.5062 C-104.681,-96.5062 -105.938,-95.2492 -105.938,-93.6987 C-105.938,-92.1481 -104.681,-90.8912 -103.13,-90.8912 C-101.58,-90.8912 -100.323,-92.1481 -100.323,-93.6987 Z " fill="#fbdd8f" fill-opacity="1.00" />			<path d="M117.129,68.4583 C115.414,69.4487 114.333,71.1616 114.084,72.9938 L109.142,75.8471 C106.978,74.6458 104.31,74.5524 102.063,75.8494 L94.9974,79.929 C92.4242,81.4146 91.121,84.3453 91.543,87.1514 L100.57,81.9399 C101.877,81.1853 103.511,81.6577 104.289,83.0056 C105.044,84.3126 104.618,86.0285 103.352,86.7595 L94.2848,91.9946 C96.5448,93.7395 99.6936,94.0999 102.267,92.6142 L109.333,88.5347 C111.579,87.2377 112.873,84.8569 112.874,82.4058 L117.816,79.5524 C119.527,80.2526 121.551,80.1734 123.267,79.183 C126.248,77.4616 127.267,73.6605 125.569,70.7197 C123.871,67.7789 120.07,66.7604 117.129,68.4583 Z M121.569,76.2422 C120.262,76.9968 118.546,76.5716 117.768,75.2237 C117.013,73.9167 117.438,72.2008 118.786,71.4226 C120.134,70.6444 121.809,71.0933 122.587,72.4411 C123.342,73.7481 122.917,75.464 121.569,76.2422 Z " fill="#da4620" fill-opacity="1.00" />			<path d="M-82.5367,69.7391 C-82.7498,69.5261 -82.9628,69.242 -83.1759,69.0289 C-83.3179,68.8869 -83.46,68.8159 -83.602,68.6738 C-91.1303,61.4296 -103.062,61.5007 -110.448,68.8869 C-123.516,81.8838 -115.704,105.392 -94.3262,105.889 C-110.59,102.338 -118.189,83.9434 -107.252,72.58 C-105.193,70.5204 -102.707,69.1 -100.008,68.3187 C-100.221,68.5318 -100.505,68.7448 -100.718,68.9579 C-100.86,69.1 -100.931,69.242 -101.073,69.384 C-108.317,76.9123 -108.246,88.8439 -100.86,96.2301 C-87.8633,109.298 -64.3552,101.486 -63.9291,80.0372 C-67.4802,96.3011 -85.8747,103.971 -97.1671,93.0341 C-99.2267,90.9745 -100.647,88.4888 -101.428,85.79 C-101.215,86.003 -101.002,86.2871 -100.789,86.5002 C-100.647,86.6422 -100.505,86.7132 -100.363,86.8553 C-92.8348,94.0995 -80.9032,94.0284 -73.517,86.6422 C-60.4491,73.6453 -68.2614,50.1373 -89.6388,49.6401 C-73.3749,53.1912 -65.7757,71.5857 -76.7129,82.9491 C-78.7726,85.0087 -81.2583,86.4292 -83.9571,87.2104 C-83.7441,87.0684 -83.46,86.7843 -83.2469,86.5712 C-83.1049,86.4292 -83.0338,86.2871 -82.8918,86.1451 C-75.6476,78.6168 -75.7186,66.6852 -83.1049,59.299 C-96.1018,46.2311 -119.61,54.0434 -120.107,75.4209 C-116.556,59.157 -98.1614,51.5577 -86.798,62.495 C-84.7384,64.5546 -83.3179,67.0403 -82.5367,69.7391 Z " fill="#da4620" fill-opacity="1.00" />			<path d="M-22.7832,65.9635 L-25.2305,48.5681 L-29.0998,52.4374 L-52.2496,29.2876 L-59.4592,36.4971 L-36.3094,59.6469 L-40.1787,63.5162 L-22.7832,65.9635 Z " fill="#fbdd8f" fill-opacity="1.00" />			<path d="M-7.10543e-15,124.583 L-3.79836,114.253 C-2.73296,112.678 -2.22343,110.733 -2.50136,108.741 C-2.73296,106.981 -3.47411,105.452 -4.58582,104.248 C-3.01089,102.58 -2.17711,100.264 -2.50136,97.8089 C-3.05721,93.4547 -7.04085,90.3512 -11.3951,90.9071 C-12.4141,91.046 -13.3869,91.3703 -14.2207,91.8335 C-16.722,89.0542 -20.4741,87.5256 -24.4577,87.9888 C-28.0708,88.452 -31.0817,90.4902 -32.8882,93.3158 C-34.5558,91.9724 -36.7329,91.2776 -39.049,91.5556 C-43.4958,92.1114 -46.692,96.1877 -46.1361,100.681 C-45.9508,102.163 -45.395,103.46 -44.5612,104.572 C-45.9045,106.239 -46.6457,108.463 -46.3677,110.779 C-45.8119,115.272 -41.6893,118.468 -37.1961,117.912 C-35.2043,117.681 -33.4441,116.708 -32.1934,115.318 C-29.9236,117.542 -26.7275,118.746 -23.2997,118.329 C-20.752,118.005 -18.4822,116.801 -16.861,115.087 C-15.1471,117.079 -12.5531,118.19 -9.77382,117.866 C-6.02178,120.414 -7.10543e-15,124.583 -7.10543e-15,124.583 Z " fill="#f1f1f1" fill-opacity="1.00" />		</g>	</svg>