<?xml version="1.0" encoding="utf-8" ?>	<!-- Generator: Assembly 2.4 - http://assemblyapp.co -->	<svg version="1.1" xmlns="http://www.w3.org/2000/svg" xmlns:xlink="http://www.w3.org/1999/xlink" width="4096.00" height="4096.00" viewBox="0 0 4096.0 4096.0">		<g id="document" transform="scale(13.653333333333334 13.653333333333334) translate(150.0 150.0)">			<path d="M63.596,149.286 C111.069,149.286 149.286,111.069 149.286,63.596 L149.286,-63.8946 C149.286,-111.368 110.771,-149.585 63.596,-149.585 L-63.8946,-149.585 C-111.368,-149.585 -149.585,-111.069 -149.585,-63.8946 L-149.585,63.596 C-149.585,111.069 -111.069,149.286 -63.8946,149.286 L63.596,149.286 Z " fill="#e7ad00" fill-opacity="1.00" />			<path d="M-124.84,-6.09511 C-125.732,6.34747 -124.39,19.2569 -121.139,31.1998 C-116.501,49.4342 -107.405,66.2106 -95.4502,80.7397 C-88.2294,89.4729 -79.2571,97.7187 -69.6569,104.048 C-59.9781,110.137 -49.7457,115.347 -38.4847,119.036 C-16.4419,126.258 5.88625,126.94 26.9132,122.686 C35.1175,121.129 43.235,118.217 51.2699,114.747 C56.599,112.248 62.0066,109.509 67.092,106.134 M90.3543,86.9586 C96.7783,80.3079 102.24,72.5459 107.619,64.2262 M118.496,39.9321 C124.541,21.4831 125.958,2.57967 123.794,-15.1094 C122.303,-25.9451 119.858,-36.2975 115.901,-46.084 C113.24,-51.7312 111.059,-57.2214 107.763,-62.5463 C104.223,-68.7471 99.8071,-74.7041 95.0731,-80.5001 C89.0586,-87.2462 83.1266,-93.4347 75.8438,-98.7391 M39.3841,-118.644 C19.9768,-125.002 0.594167,-126.576 -18.1277,-123.689 C-26.2534,-122.372 -33.6604,-120.819 -40.6625,-118.072 C-50.135,-115.073 -58.6451,-110.963 -66.9899,-105.737 C-70.5674,-103.726 -73.4261,-101.479 -76.921,-98.9092 C-86.53,-91.4448 -95.0154,-82.551 -102.377,-72.2278 C-109.499,-61.8261 -115.184,-50.9535 -119.187,-38.7341 " fill="none" stroke-width="2.00" stroke="#f1f1f1" stroke-linecap="square" stroke-linejoin="miter" />			<path d="M-109.655,96.8926 C-110.286,97.5235 -110.286,98.5559 -109.597,99.3016 C-108.967,99.9898 -107.934,99.9898 -107.246,99.3589 L-70.5956,64.7735 C-69.2764,63.569 -69.2191,61.5042 -70.5382,60.185 C-71.8001,58.9232 -73.8649,58.9232 -75.1267,60.2424 L-109.655,96.8926 Z M-69.4485,51.1228 C-71.628,53.3023 -71.628,56.801 -69.4485,58.9806 C-67.269,61.1601 -63.7703,61.1601 -61.5908,58.9806 C-59.4112,56.801 -58.4362,47.9683 -58.4362,47.9683 C-58.4362,47.9683 -67.269,48.9433 -69.4485,51.1228 Z " fill="#79bd9a" fill-opacity="1.00" />			<path d="M-18.6986,-3.76109 L-30.3195,-5.72992 L-30.4104,-5.19357 L-18.7895,-3.22474 L-18.6986,-3.76109 Z M-35.9452,-6.87343 L-53.1084,-9.78124 L-53.1992,-9.24489 L-36.0361,-6.33708 L-35.9452,-6.87343 Z M-56.8423,-10.3933 L-72.2177,-12.9982 L-72.3085,-12.4619 L-56.9332,-9.85697 L-56.8423,-10.3933 Z M-13.4509,29.4436 L-13.9238,29.1747 L-8.09751,18.9285 L-7.6246,19.1974 L-13.4509,29.4436 Z M-25.0091,49.6093 L-25.482,49.3404 L-16.877,34.2075 L-16.4041,34.4764 L-25.0091,49.6093 Z M-34.468,66.271 L-34.9409,66.0021 L-27.2323,52.4455 L-26.7594,52.7144 L-34.468,66.271 Z M24.3958,25.8715 L16.7595,16.8936 L17.1738,16.5412 L24.8102,25.519 L24.3958,25.8715 Z M39.4304,43.6324 L28.1521,30.3728 L28.5665,30.0204 L39.8447,43.28 L39.4304,43.6324 Z M51.9548,58.0358 L41.8513,46.1574 L42.2657,45.805 L52.3692,57.6833 L51.9548,58.0358 Z M23.3769,-7.21628 L23.1873,-7.72618 L34.2352,-11.8342 L34.4248,-11.3243 L23.3769,-7.21628 Z M39.8423,-13.4033 L39.6527,-13.9132 L55.9695,-19.9804 L56.1591,-19.4705 L39.8423,-13.4033 Z M74.1848,-26.2215 L73.9952,-26.7314 L59.378,-21.2961 L59.5676,-20.7862 L74.1848,-26.2215 Z M2.84212,-33.6629 L2.29812,-33.6594 L2.37395,-21.8727 L2.91796,-21.8762 L2.84212,-33.6629 Z M2.72326,-56.942 L2.17926,-56.9385 L2.29127,-39.5305 L2.83527,-39.534 L2.72326,-56.942 Z M2.51329,-76.1562 L1.96929,-76.1527 L2.06963,-60.558 L2.61363,-60.5615 L2.51329,-76.1562 Z M0.397715,-12.7269 L0.932799,-12.8249 L-2.40061,-31.0178 L-2.9357,-30.9197 L0.397715,-12.7269 Z M-3.68735,-35.0221 L-3.15227,-35.1201 L-4.78629,-44.0382 L-5.32138,-43.9401 L-3.68735,-35.0221 Z M-5.97499,-47.5073 L-5.4399,-47.6054 L-7.17197,-57.0585 L-7.70705,-56.9605 L-5.97499,-47.5073 Z M-7.08528,-8.45805 L-21.333,-20.2511 L-21.6799,-19.832 L-7.43213,-8.03899 L-7.08528,-8.45805 Z M-24.1459,-22.7557 L-31.1302,-28.5375 L-31.4771,-28.1184 L-24.4928,-22.3366 L-24.1459,-22.7557 Z M-34.0882,-30.9644 L-41.4915,-37.0922 L-41.8383,-36.6731 L-34.4351,-30.5454 L-34.0882,-30.9644 Z M-10.2007,-0.16308 L-28.6957,-0.0386149 L-28.6921,0.505356 L-10.1971,0.380891 L-10.2007,-0.16308 Z M-32.6621,-0.0120215 L-41.7284,0.0480991 L-41.7248,0.59208 L-32.6584,0.531959 L-32.6621,-0.0120215 Z M-45.4636,0.099559 L-55.0739,0.163287 L-55.0703,0.707268 L-45.46,0.64354 L-45.4636,0.099559 Z M-2.2162,31.4434 L-2.75254,31.3526 L0.335187,13.1171 L0.871527,13.2079 L-2.2162,31.4434 Z M-4.38868,43.9657 L-4.92502,43.8749 L-3.41142,34.9359 L-2.87508,35.0267 L-4.38868,43.9657 Z M-6.43627,56.9971 L-6.97261,56.9063 L-5.3682,47.431 L-4.83186,47.5218 L-6.43627,56.9971 Z M18.7712,27.5134 L9.41681,11.5576 L9.8861,11.2825 L19.2405,27.2383 L18.7712,27.5134 Z M25.1553,38.7365 L20.5698,30.915 L21.0391,30.6398 L25.6246,38.4613 L25.1553,38.7365 Z M31.9042,50.1654 L27.0436,41.8747 L27.5129,41.5996 L32.3735,49.8903 L31.9042,50.1654 Z M32.7638,10.3297 L15.342,4.12001 L15.1594,4.63241 L32.5811,10.8421 L32.7638,10.3297 Z M44.8345,15.174 L36.2945,12.13 L36.4771,11.6176 L45.0172,14.6616 L44.8345,15.174 Z M57.3593,19.7675 L48.3069,16.5409 L48.4895,16.0285 L57.542,19.2551 L57.3593,19.7675 Z M18.6668,-27.3701 L18.1939,-27.639 L9.05113,-11.5602 L9.52404,-11.2913 L18.6668,-27.3701 Z M25.1484,-38.5452 L24.6755,-38.8141 L20.1937,-30.9323 L20.6667,-30.6634 L25.1484,-38.5452 Z M31.6434,-50.0821 L31.1704,-50.351 L26.4198,-41.9963 L26.8927,-41.7274 L31.6434,-50.0821 Z M-10.3846,-22.9484 L-29.9187,-56.2679 L-30.388,-55.9928 L-10.8539,-22.6733 L-10.3846,-22.9484 Z M-32.8515,-61.4749 L-38.9043,-71.7993 L-39.3736,-71.5241 L-33.3208,-61.1998 L-32.8515,-61.4749 Z M-22.171,-9.13036 L-58.5516,-22.0977 L-58.7343,-21.5853 L-22.3536,-8.61796 L-22.171,-9.13036 Z M-63.9271,-24.1031 L-75.2,-28.1211 L-75.3826,-27.6087 L-64.1097,-23.5907 L-63.9271,-24.1031 Z M-57.9928,22.9184 L-58.1824,22.4085 L-21.9794,8.94673 L-21.7898,9.45663 L-57.9928,22.9184 Z M-74.7684,29.1929 L-74.958,28.683 L-63.7401,24.5117 L-63.5505,25.0216 L-74.7684,29.1929 Z M14.483,64.1469 L15.0181,64.0488 L8.05715,26.0579 L7.52207,26.1559 L14.483,64.1469 Z M17.6857,81.6263 L18.2208,81.5283 L16.0639,69.7564 L15.5288,69.8545 L17.6857,81.6263 Z M52.918,41.6817 L23.1653,17.0551 L23.5121,16.6361 L53.2648,41.2627 L52.918,41.6817 Z M66.5764,53.0249 L57.3573,45.3941 L57.7041,44.9751 L66.9233,52.6059 L66.5764,53.0249 Z M67.8384,-0.817931 L29.2165,-0.558019 L29.2201,-0.0140489 L67.8421,-0.27396 L67.8384,-0.817931 Z M85.8052,-0.888279 L73.8376,-0.808921 L73.8412,-0.26494 L85.8088,-0.344299 L85.8052,-0.888279 Z M52.5548,-42.0495 L52.2023,-42.4637 L22.7922,-17.43 L23.1448,-17.0158 L52.5548,-42.0495 Z M66.3375,-53.5642 L65.9849,-53.9784 L56.8719,-46.2215 L57.2245,-45.8073 L66.3375,-53.5642 Z M13.9264,-64.1515 L13.3901,-64.2423 L6.94216,-26.1623 L7.4785,-26.0714 L13.9264,-64.1515 Z M16.9279,-81.8341 L16.3916,-81.9249 L14.3936,-70.1254 L14.93,-70.0346 L16.9279,-81.8341 Z M-7.03287,-12.1846 L-16.9014,-23.7868 L-17.3157,-23.4343 L-7.44723,-11.8322 L-7.03287,-12.1846 Z M-23.0071,-30.9743 L-36.5176,-46.8582 L-36.9319,-46.5057 L-23.4215,-30.6218 L-23.0071,-30.9743 Z M-27.5054,6.02755 L-12.523,3.28239 L-12.621,2.7473 L-27.6034,5.49247 L-27.5054,6.02755 Z M-57.4701,11.5179 L-36.9585,7.75962 L-37.0566,7.22454 L-57.5681,10.9828 L-57.4701,11.5179 Z M-20.6256,20.1336 L-20.9782,19.7193 L-9.37986,9.8469 L-9.02728,10.2611 L-20.6256,20.1336 Z M-43.8433,39.9196 L-44.1959,39.5053 L-28.3172,25.9895 L-27.9646,26.4037 L-43.8433,39.9196 Z M-7.38348,29.1145 L-7.8958,28.9317 L-2.77689,14.5865 L-2.26457,14.7694 L-7.38348,29.1145 Z M-17.4917,57.8393 L-18.004,57.6565 L-10.996,38.0173 L-10.4837,38.2001 L-17.4917,57.8393 Z M8.3064,30.4366 L8.84149,30.3385 L6.09632,15.3562 L5.56124,15.4542 L8.3064,30.4366 Z M13.7641,60.2229 L14.2991,60.1249 L10.5409,39.6133 L10.0058,39.7114 L13.7641,60.2229 Z M18.3335,-2.37134 L33.3159,-5.1165 L33.2178,-5.65159 L18.2355,-2.90643 L18.3335,-2.37134 Z M42.5907,-6.81589 L63.1022,-10.5742 L63.0042,-11.1092 L42.4926,-7.35098 L42.5907,-6.81589 Z M14.8249,-32.6399 L14.3126,-32.8228 L7.91397,-14.8914 L8.42629,-14.7085 L14.8249,-32.6399 Z M27.3642,-68.4145 L26.8518,-68.5973 L18.0766,-44.0056 L18.5889,-43.8228 L27.3642,-68.4145 Z M-2.49622,-14.9565 L-9.12669,-32.8041 L-9.63662,-32.6147 L-3.00615,-14.7671 L-2.49622,-14.9565 Z M-13.1802,-43.6979 L-22.276,-68.1741 L-22.7859,-67.9846 L-13.6901,-43.5084 L-13.1802,-43.6979 Z M-10.6693,-8.14399 L-27.2206,-17.5538 L-27.4895,-17.0809 L-10.9382,-7.67109 L-10.6693,-8.14399 Z M-37.682,-23.381 L-60.381,-36.2859 L-60.6498,-35.813 L-37.9508,-22.9081 L-37.682,-23.381 Z M-26.7915,17.8014 L-27.0666,17.3321 L-10.6411,7.70449 L-10.3661,8.17378 L-26.7915,17.8014 Z M-59.8944,36.9301 L-60.1695,36.4608 L-37.6432,23.2572 L-37.3681,23.7265 L-59.8944,36.9301 Z M3.43394,34.8382 L2.88994,34.8417 L2.76744,15.8017 L3.31144,15.7982 L3.43394,34.8382 Z M3.56134,72.9085 L3.01734,72.912 L2.84933,46.8 L3.39333,46.7965 L3.56134,72.9085 Z M32.8649,17.3815 L16.3136,7.97163 L16.5824,7.49873 L33.1338,16.9086 L32.8649,17.3815 Z M66.0251,36.1136 L43.3261,23.2087 L43.5949,22.7358 L66.2939,35.6407 L66.0251,36.1136 Z M16.6544,-7.65971 L16.3793,-8.12901 L32.8048,-17.7566 L33.0798,-17.2873 L16.6544,-7.65971 Z M65.7808,-36.613 L65.5057,-37.0823 L42.9794,-23.8787 L43.2545,-23.4094 L65.7808,-36.613 Z " fill="#f1f1f1" fill-opacity="1.00" />			<path d="M-77.8132,-86.5853 C-82.7281,-95.0981 -79.8034,-106.013 -71.2907,-110.928 C-68.0548,-112.796 -64.5428,-113.496 -61.0267,-113.269 C-68.4219,-116.766 -77.4552,-116.661 -85.0718,-112.264 C-97.4676,-105.107 -101.718,-89.2453 -94.5611,-76.8495 C-87.4044,-64.4538 -71.5425,-60.2036 -59.1468,-67.3603 C-51.5301,-71.7578 -46.9728,-79.4999 -46.2535,-87.6812 C-47.7654,-84.5516 -50.1775,-81.8314 -53.4133,-79.9632 C-62.0333,-75.1192 -72.8984,-78.0725 -77.8132,-86.5853 Z " fill="#bde9b7" fill-opacity="1.00" />			<path d="M95.9578,-73.7143 C96.2048,-73.6217 96.4519,-73.5292 96.7798,-73.4901 L96.129,-75.919 C93.7421,-84.7087 86.569,-99.8672 83.8063,-99.1587 L90.6798,-73.5065 L92.1609,-73.9033 C94.1159,-74.4272 95.1416,-74.0353 95.9578,-73.7143 Z M95.5862,-63.9633 L96.3006,-61.2974 C93.726,-61.7822 91.0527,-60.6214 89.6649,-58.2177 C87.9302,-55.213 88.9779,-51.3029 91.9826,-49.5682 C94.9872,-47.8334 98.8973,-48.8811 100.632,-51.8858 C101.521,-53.4257 101.701,-55.1248 101.272,-56.7243 L98.272,-67.9212 L94.5397,-66.9212 C94.8545,-66.3388 95.2428,-65.3634 95.5862,-63.9633 Z M99.1138,-52.8124 C97.8344,-50.5965 95.0341,-49.9096 92.8933,-51.1457 C90.6774,-52.425 89.9905,-55.2253 91.2265,-57.3662 C92.5059,-59.5821 95.3062,-60.269 97.447,-59.0329 C99.6254,-57.7752 100.35,-54.9533 99.1138,-52.8124 Z M102.892,-81.1284 C101.526,-78.7622 101.895,-75.845 103.543,-73.8419 L100.877,-73.1276 C97.5596,-72.2386 96.5339,-72.6305 95.605,-73.0166 C94.7888,-73.3376 93.9726,-73.6586 92.2762,-73.2358 L64.432,-65.775 C65.1623,-63.0498 81.8764,-64.417 90.7412,-66.7606 L109.914,-71.8662 C111.492,-72.2573 112.895,-73.3 113.784,-74.8399 C115.519,-77.8446 114.471,-81.7546 111.467,-83.4893 C108.462,-85.2241 104.649,-84.1706 102.892,-81.1284 Z M94.4236,-69.8427 C94.0856,-70.0378 93.9744,-70.4525 94.1696,-70.7905 C94.3648,-71.1286 94.7795,-71.2397 95.1175,-71.0445 C95.4555,-70.8494 95.5666,-70.4347 95.3715,-70.0966 C95.1388,-69.7803 94.7241,-69.6692 94.4236,-69.8427 Z M112.32,-75.6856 C111.04,-73.4696 108.24,-72.7828 106.099,-74.0188 C103.883,-75.2982 103.196,-78.0985 104.432,-80.2393 C105.712,-82.4553 108.512,-83.1421 110.653,-81.9061 C112.875,-80.7235 113.599,-77.9015 112.32,-75.6856 Z " fill="#79bd9a" fill-opacity="1.00" />			<path d="M66.8323,91.5724 L56.7879,101.445 L70.3702,97.7198 L116.38,71.1916 L112.842,65.0442 L110.917,66.1525 L112.92,69.6335 L69.518,94.6115 L69.0491,93.7968 L111.636,69.2877 L110.102,66.6213 L66.8323,91.5724 Z M122.267,67.8475 L118.74,61.7201 L114.917,63.9203 L118.444,70.0477 L122.267,67.8475 Z " fill="#79bd9a" fill-opacity="1.00" />			<path d="M86.9967,39.2522 C86.5899,38.8454 86.1462,38.5496 85.8134,38.2168 C83.9645,36.3679 82.3005,33.6685 81.0802,31.7086 C75.6444,22.575 79.5271,12.5539 85.4066,7.0442 C90.1768,2.56985 98.4599,-0.758185 106.114,4.52969 C113.621,9.66965 113.066,16.8064 110.219,21.2808 C107.741,25.3114 102.897,28.1587 98.4599,25.7921 C95.6126,24.276 94.6142,21.7245 94.7251,18.9512 C94.836,16.2518 98.5708,12.2211 101.27,14.7726 C98.8667,14.07 97.5354,16.8064 98.312,18.1746 C99.4213,20.3194 102.675,20.985 104.672,18.3965 C106.41,16.2148 104.783,13.4044 103.452,12.1472 C101.566,10.4832 99.3844,10.0764 97.1657,10.9639 C94.2444,12.1842 92.2106,15.4752 92.0257,18.9881 C91.8778,22.612 93.8007,25.7921 97.4985,27.715 C101.344,29.7858 105.375,28.8613 108.444,26.6056 C109.405,25.8661 109.96,25.2374 110.626,24.6458 L110.552,24.7198 C111.143,23.9802 111.772,23.2776 112.216,22.4641 C120.721,7.52492 104.007,0.794898 103.304,0.53605 C103.119,0.499073 102.971,0.425116 102.786,0.388138 C96.537,-1.64566 89.5851,0.0553348 83.9645,5.38019 C77.4563,11.5186 73.4257,22.3532 79.601,32.5221 C80.7474,34.482 85.1108,38.9194 86.9967,39.2522 C86.9597,39.2891 86.9597,39.2891 86.9967,39.2522 Z " fill="#bde9b7" fill-opacity="1.00" />			<path d="M-34.8091,79.1434 C-32.1258,77.4663 -26.7593,73.4894 -26.8552,68.9374 C-26.8552,63.5709 -32.6529,61.9897 -35.3841,64.7209 C-36.1028,65.2959 -36.5819,65.2959 -37.3007,64.673 C-39.9839,61.9418 -45.8296,63.523 -45.8296,68.8895 C-45.8296,73.4894 -40.4631,77.4663 -37.7798,79.1434 C-36.9173,79.6704 -35.6236,79.6704 -34.8091,79.1434 Z M-39.5048,80.9162 C-41.1818,78.2809 -45.1587,72.9144 -49.6628,73.0102 C-55.0293,73.0102 -56.6105,78.8079 -53.8793,81.5391 C-53.3043,82.2578 -53.3043,82.737 -53.9751,83.4078 C-56.7063,86.091 -55.1251,91.9367 -49.7586,91.9367 C-45.1587,91.9367 -41.1818,86.5702 -39.5048,83.887 C-38.9777,83.0245 -38.9777,81.7308 -39.5048,80.9162 Z M-37.684,85.6598 C-40.3672,87.2889 -45.7337,91.2659 -45.59,95.8178 C-45.59,101.184 -39.7922,102.766 -37.0611,100.034 C-36.3424,99.4594 -35.8632,99.4594 -35.1924,100.13 C-32.5092,102.861 -26.6635,101.28 -26.6635,95.9136 C-26.6635,91.3138 -32.03,87.3368 -34.7132,85.6598 C-35.5757,85.1327 -36.8694,85.1327 -37.684,85.6598 Z M-32.9883,83.839 C-31.3113,86.5223 -27.3343,91.8409 -22.8303,91.745 C-17.4638,91.745 -15.8826,85.9473 -18.6138,83.2161 C-19.1887,82.4974 -19.1887,82.0183 -18.5179,81.3474 C-15.7868,78.6642 -17.368,72.8186 -22.7345,72.8186 C-27.3343,72.8186 -31.3113,78.1851 -32.9883,80.8683 C-33.5154,81.7308 -33.5154,83.0245 -32.9883,83.839 Z " fill="#bde9b7" fill-opacity="1.00" />			<path d="M-90.5574,-11.5535 L-84.3801,-16.6854 L-78.2504,-11.5535 L-72.1206,-16.6854 L-65.9433,-11.5535 L-58.9583,-17.3506 C-58.3881,-17.8258 -58.3405,-18.5861 -58.7682,-19.1563 C-59.2434,-19.7265 -60.0512,-19.774 -60.5739,-19.3464 L-65.8958,-14.8797 L-72.1206,-20.0116 L-78.2504,-14.8797 L-84.3801,-20.0116 L-90.5574,-14.8797 L-95.8794,-19.3464 C-96.4496,-19.8215 -97.2574,-19.7265 -97.685,-19.1563 C-98.1602,-18.5861 -98.0652,-17.7783 -97.495,-17.3506 L-90.5574,-11.5535 Z M-60.5263,1.56134 L-65.8483,5.98047 L-72.0256,0.848581 L-78.2029,5.98047 L-84.3326,0.848581 L-90.5099,5.98047 L-95.9269,1.56134 C-96.4971,1.08617 -97.3049,1.1812 -97.7326,1.75141 C-98.2077,2.32162 -98.1127,3.12942 -97.5425,3.55708 L-90.5574,9.3067 L-84.4277,4.17481 L-78.2979,9.3067 L-72.1206,4.17481 L-65.9433,9.3067 L-58.9583,3.50956 C-58.3881,3.03439 -58.3405,2.27411 -58.7682,1.7039 C-59.1958,1.13369 -60.0036,1.08617 -60.5263,1.56134 Z M-60.5263,11.9677 L-65.8483,16.3868 L-72.0731,11.2549 L-78.2029,16.3868 L-84.3326,11.2549 L-90.5099,16.3868 L-95.8319,11.9677 C-96.4021,11.4925 -97.2099,11.5875 -97.6375,12.1578 C-98.1127,12.728 -98.0177,13.5358 -97.4475,13.9634 L-90.4624,19.713 L-84.3326,14.5811 L-78.2029,19.713 L-72.0256,14.5811 L-65.8958,19.713 L-58.9107,13.9159 C-58.3405,13.4407 -58.293,12.6804 -58.7207,12.1102 C-59.1958,11.6351 -60.0036,11.54 -60.5263,11.9677 Z M-60.5263,-8.89251 L-65.8958,-4.42586 L-72.1206,-9.55775 L-78.2504,-4.42586 L-84.3801,-9.55775 L-90.5574,-4.42586 L-95.8794,-8.89251 C-96.4496,-9.36768 -97.2574,-9.27265 -97.685,-8.70244 C-98.1602,-8.13223 -98.0652,-7.32443 -97.495,-6.89677 L-90.5099,-1.09964 L-84.3801,-6.23153 L-78.2029,-1.09964 L-72.0731,-6.23153 L-65.8958,-1.09964 L-58.9107,-6.89677 C-58.3405,-7.37195 -58.293,-8.13223 -58.7207,-8.70244 C-59.1958,-9.27265 -60.0036,-9.36768 -60.5263,-8.89251 Z " fill="#c14d1e" fill-opacity="1.00" />			<path d="M37.2728,67.7261 L39.9466,67.7261 L39.9466,66.6833 L37.2728,66.6833 L37.2728,67.7261 Z M40.4814,68.7957 L36.2032,68.7957 C35.3208,68.7957 34.5989,69.4909 34.5989,70.3733 L34.5989,84.0903 C34.5989,84.9459 35.3208,85.6679 36.2032,85.6679 L59.7333,85.6679 C60.6157,85.6679 61.3377,84.9726 61.3377,84.0903 L61.3377,70.3733 C61.3377,69.5176 60.6157,68.7957 59.7333,68.7957 L55.4551,68.7957 C54.5728,68.7957 53.5299,68.1539 53.1289,67.3785 L52.9684,67.0577 C52.5673,66.2822 51.5245,65.6405 50.6422,65.6405 L45.2944,65.6405 C44.412,65.6405 43.3692,66.2822 42.9681,67.0577 L42.8077,67.3785 C42.4066,68.1539 41.3638,68.7957 40.4814,68.7957 Z M55.7225,70.4 C56.1771,70.4 56.5247,70.7476 56.5247,71.2022 C56.5247,71.6567 56.1503,72.0043 55.7225,72.0043 C55.268,72.0043 54.9204,71.63 54.9204,71.2022 C54.9204,70.7476 55.268,70.4 55.7225,70.4 Z M47.9683,70.4 C51.5245,70.4 54.3856,73.2343 54.3856,76.7371 C54.3856,80.2399 51.5245,83.0742 47.9683,83.0742 C44.412,83.0742 41.551,80.2399 41.551,76.7371 C41.551,73.2343 44.412,70.4 47.9683,70.4 Z M47.9683,71.9776 C50.6154,71.9776 52.7813,74.09 52.7813,76.7371 C52.7813,79.3842 50.6154,81.4966 47.9683,81.4966 C45.3211,81.4966 43.1553,79.3575 43.1553,76.7371 C43.1553,74.1167 45.3211,71.9776 47.9683,71.9776 Z " fill="#c14d1e" fill-opacity="1.00" />			<path d="M41.5129,-105.533 C38.6334,-110.521 36.1183,-114.459 35.8952,-114.33 C35.672,-114.201 37.8254,-110.054 40.7048,-105.067 C43.5842,-100.079 46.0993,-96.1408 46.3225,-96.2697 C46.5456,-96.3985 44.3923,-100.546 41.5129,-105.533 Z M41.3306,-105.703 C36.3434,-108.582 32.196,-110.735 32.0671,-110.512 C31.9383,-110.289 35.8768,-107.774 40.8641,-104.895 C45.8513,-102.015 49.9987,-99.862 50.1275,-100.085 C50.2564,-100.308 46.3178,-102.823 41.3306,-105.703 Z M41.109,-105.758 C35.3503,-105.759 30.6819,-105.55 30.6819,-105.292 C30.6819,-105.034 35.3503,-104.825 41.109,-104.825 C46.8677,-104.825 51.5361,-105.034 51.5361,-105.292 C51.5361,-105.549 46.8678,-105.758 41.109,-105.758 Z M50.1392,-110.514 C50.0103,-110.737 45.8629,-108.583 40.8755,-105.704 C35.8882,-102.825 31.9497,-100.309 32.0785,-100.086 C32.2073,-99.8632 36.3548,-102.017 41.3421,-104.896 C46.3294,-107.775 50.268,-110.291 50.1392,-110.514 Z M40.703,-105.517 C37.8237,-100.53 35.6705,-96.3823 35.8936,-96.2535 C36.1168,-96.1247 38.6318,-100.063 41.5111,-105.05 C44.3904,-110.038 46.5436,-114.185 46.3205,-114.314 C46.0973,-114.443 43.5823,-110.504 40.703,-105.517 Z M40.6584,-105.314 C40.6583,-99.5556 40.8672,-94.8873 41.1248,-94.8873 C41.3825,-94.8873 41.5914,-99.5556 41.5915,-105.314 C41.5916,-111.073 41.3827,-115.741 41.1251,-115.741 C40.8674,-115.741 40.6585,-111.073 40.6584,-105.314 Z " fill="#f1f1f1" fill-opacity="1.00" />			<path d="M114.411,-37.8551 C115.785,-38.215 116.57,-39.6216 116.21,-40.9956 C115.85,-42.3695 114.444,-43.1873 113.07,-42.8275 C111.696,-42.4676 110.894,-41.0446 111.254,-39.6707 C111.647,-38.2968 113.053,-37.4789 114.411,-37.8551 Z M110.78,-34.224 C111.14,-35.598 110.322,-37.0046 108.964,-37.3808 C107.59,-37.7406 106.184,-36.9228 105.807,-35.5653 C105.431,-34.2077 106.265,-32.7847 107.639,-32.4248 C109.03,-32.0486 110.42,-32.8501 110.78,-34.224 Z M112.105,-29.2681 C111.107,-30.2658 109.471,-30.2658 108.474,-29.2681 C107.476,-28.2703 107.476,-26.6347 108.474,-25.637 C109.471,-24.6392 111.107,-24.6392 112.105,-25.637 C113.102,-26.6347 113.102,-28.2703 112.105,-29.2681 Z M117.061,-27.9432 C115.687,-27.5834 114.885,-26.1604 115.245,-24.7864 C115.605,-23.4125 117.028,-22.611 118.402,-22.9709 C119.776,-23.3307 120.577,-24.7537 120.217,-26.1277 C119.825,-27.5016 118.418,-28.3194 117.061,-27.9432 Z M120.692,-31.5743 C120.332,-30.2004 121.15,-28.7937 122.507,-28.4175 C123.881,-28.0577 125.288,-28.8755 125.664,-30.2331 C126.024,-31.607 125.206,-33.0137 123.832,-33.3735 C122.442,-33.7497 121.052,-32.9482 120.692,-31.5743 Z M119.367,-36.5303 C120.365,-35.5325 122,-35.5325 122.998,-36.5303 C123.996,-37.528 123.996,-39.1636 122.998,-40.1614 C122,-41.1591 120.365,-41.1591 119.367,-40.1614 C118.369,-39.1636 118.369,-37.528 119.367,-36.5303 Z " fill="#f1f1f1" fill-opacity="1.00" />		</g>	</svg>