<?xml version="1.0" encoding="utf-8" ?>	<!-- Generator: Assembly 2.4 - http://assemblyapp.co -->	<svg version="1.1" xmlns="http://www.w3.org/2000/svg" xmlns:xlink="http://www.w3.org/1999/xlink" width="4096.00" height="4096.00" viewBox="0 0 4096.0 4096.0">		<g id="document" transform="scale(13.653333333333334 13.653333333333334) translate(150.0 150.0)">			<path d="M63.5628,149.253 C111.036,149.253 149.253,111.036 149.253,63.5628 L149.253,-63.9278 C149.253,-111.401 110.737,-149.618 63.5628,-149.618 L-63.9278,-149.618 C-111.401,-149.618 -149.618,-111.102 -149.618,-63.9278 L-149.618,63.5628 C-149.618,111.036 -111.102,149.253 -63.9278,149.253 L63.5628,149.253 Z " fill="#da4620" fill-opacity="1.00" />			<path d="M27.274,11.8501 L-27.639,11.8501 L-31.6825,19.8066 L31.3827,19.8066 L27.274,11.8501 Z M-7.03035,17.9153 L-5.3347,14.7197 L5.1653,14.7197 L6.6653,17.9153 L-7.03035,17.9153 Z M26.2957,10.024 C26.2957,9.95878 26.2957,9.95878 26.2957,9.89356 C26.2957,9.82835 26.2957,9.82835 26.2957,9.76313 L26.2957,-23.1064 C26.2957,-23.9543 25.6436,-24.6064 24.7957,-24.6064 L-25.226,-24.6064 C-26.0738,-24.6064 -26.726,-23.9543 -26.726,-23.1064 L-26.726,9.76313 C-26.726,9.82835 -26.726,9.82835 -26.726,9.89356 C-26.726,9.95878 -26.726,9.95878 -26.726,10.024 L26.2957,10.024 Z M22.5783,7.48052 L-22.8782,7.48052 L-22.8782,-20.889 L22.5783,-20.889 L22.5783,7.48052 Z M32.2957,21.6327 L-32.5956,21.6327 L-32.7912,21.9588 C-32.7912,22.8066 -32.139,24.2414 -31.2912,24.2414 L30.9262,24.2414 C31.774,24.2414 32.4262,22.8066 32.4262,21.9588 L32.2957,21.6327 Z " fill="#ffffff" fill-opacity="1.00" />			<path d="M-34.3061,92.8975 C-33.2808,92.8975 -32.2555,92.8486 -31.1814,92.7022 C-30.205,92.5557 -29.4238,91.921 -29.082,91.0422 L-27.5685,87.0875 C-26.9826,86.8922 -26.3967,86.6481 -25.8597,86.404 L-22.0026,88.1616 C-21.1238,88.5522 -20.0985,88.4545 -19.3662,87.8687 C-17.7062,86.5504 -16.1926,85.0857 -14.9232,83.4257 C-14.3373,82.6446 -14.2397,81.6681 -14.6303,80.7893 L-16.3879,76.9322 C-16.1438,76.3952 -15.8997,75.8093 -15.7044,75.2234 L-11.7497,73.7099 C-10.8221,73.3681 -10.1873,72.5381 -10.0897,71.6105 C-9.94323,70.5363 -9.89441,69.5111 -9.89441,68.4858 C-9.89441,67.4605 -9.94323,66.4352 -10.0897,65.3611 C-10.2362,64.3846 -10.8709,63.6034 -11.7497,63.2617 L-15.7044,61.7481 C-15.8997,61.1623 -16.1438,60.5764 -16.3879,60.0393 L-14.6303,56.1823 C-14.2397,55.3034 -14.3373,54.2781 -14.9232,53.5458 C-16.2415,51.8858 -17.7062,50.3723 -19.3662,49.1029 C-20.1473,48.517 -21.1238,48.4193 -22.0026,48.8099 L-25.8597,50.5676 C-26.3967,50.3235 -26.9826,50.0793 -27.5685,49.884 L-29.082,45.9293 C-29.4238,45.0017 -30.2538,44.367 -31.1814,44.2693 C-33.3296,43.9764 -35.2826,43.9764 -37.4308,44.2693 C-38.4073,44.4158 -39.1885,45.0505 -39.5302,45.9293 L-41.0437,49.884 C-41.6296,50.0793 -42.2155,50.3235 -42.7526,50.5676 L-46.6096,48.8099 C-47.4884,48.4193 -48.5137,48.517 -49.2461,49.1029 C-50.9061,50.4211 -52.4196,51.8858 -53.689,53.5458 C-54.2749,54.327 -54.3725,55.3034 -53.982,56.1823 L-52.2243,60.0393 C-52.4684,60.5764 -52.7125,61.1623 -52.9078,61.7481 L-56.8625,63.2617 C-57.7902,63.6034 -58.4249,64.4334 -58.5225,65.3611 C-58.669,66.4352 -58.7178,67.4605 -58.7178,68.4858 C-58.7178,69.5111 -58.669,70.5363 -58.5225,71.6105 C-58.3761,72.5869 -57.7414,73.3681 -56.8625,73.7099 L-52.9078,75.2234 C-52.7125,75.8093 -52.4684,76.3952 -52.2243,76.9322 L-53.982,80.7893 C-54.3725,81.6681 -54.2749,82.6934 -53.689,83.4257 C-52.3708,85.0857 -50.9061,86.5992 -49.2461,87.8687 C-48.4649,88.4545 -47.4884,88.5522 -46.6096,88.1616 L-42.7526,86.404 C-42.2155,86.6481 -41.6296,86.8922 -41.0437,87.0875 L-39.5302,91.0422 C-39.1885,91.9698 -38.3585,92.6045 -37.4308,92.7022 C-36.3567,92.8486 -35.3314,92.8975 -34.3061,92.8975 Z M-35.2826,87.7222 L-36.6496,84.1093 C-36.9426,83.3281 -37.5773,82.791 -38.3585,82.5469 C-39.4326,82.254 -40.4579,81.8146 -41.4343,81.2775 C-42.1179,80.8869 -42.9967,80.8381 -43.729,81.1799 L-47.2443,82.791 C-47.7326,82.3516 -48.172,81.9122 -48.6114,81.424 L-47.0002,77.9087 C-46.6584,77.1763 -46.7073,76.3463 -47.0979,75.614 C-47.6349,74.6375 -48.0743,73.6122 -48.3673,72.5381 C-48.6114,71.7569 -49.1484,71.1222 -49.9296,70.8293 L-53.5425,69.4622 C-53.5914,69.1205 -53.5914,68.7787 -53.5914,68.4858 C-53.5914,68.144 -53.5425,67.8511 -53.5425,67.5093 L-49.9296,66.1422 C-49.1484,65.8493 -48.6114,65.2146 -48.3673,64.4334 C-48.0743,63.3593 -47.6349,62.334 -47.0979,61.3575 C-46.7073,60.674 -46.6584,59.7952 -47.0002,59.0628 L-48.6114,55.5476 C-48.172,55.0593 -47.7326,54.6199 -47.2443,54.1805 L-43.729,55.7917 C-42.9967,56.1334 -42.1667,56.0846 -41.4343,55.694 C-40.4579,55.157 -39.4326,54.7176 -38.3585,54.4246 C-37.5773,54.1805 -36.9426,53.6434 -36.6496,52.8623 L-35.2826,49.2493 C-34.6479,49.2005 -34.0132,49.2005 -33.3785,49.2493 L-32.0114,52.8623 C-31.7185,53.6434 -31.0838,54.1805 -30.3026,54.4246 C-29.2285,54.7176 -28.2032,55.157 -27.2267,55.694 C-26.5432,56.0846 -25.6644,56.1334 -24.932,55.7917 L-21.4167,54.1805 C-20.9285,54.6199 -20.4891,55.0593 -20.0497,55.5476 L-21.6609,59.0628 C-22.0026,59.7952 -21.9538,60.6252 -21.5632,61.3575 C-21.0261,62.334 -20.5867,63.3593 -20.2938,64.4334 C-20.0497,65.2146 -19.5126,65.8493 -18.7314,66.1422 L-15.1185,67.5093 C-15.0697,67.8511 -15.0697,68.1928 -15.0697,68.4858 C-15.0697,68.8275 -15.1185,69.1205 -15.1185,69.4622 L-18.7314,70.8293 C-19.5126,71.1222 -20.0497,71.7569 -20.2938,72.5381 C-20.5867,73.6122 -21.0261,74.6375 -21.5632,75.614 C-21.9538,76.2975 -22.0026,77.1763 -21.6609,77.9087 L-20.0497,81.424 C-20.4891,81.9122 -20.9285,82.3516 -21.4167,82.791 L-24.932,81.1799 C-25.6644,80.8381 -26.4944,80.8869 -27.2267,81.2775 C-28.2032,81.8146 -29.2285,82.254 -30.3026,82.5469 C-31.0838,82.791 -31.7185,83.3281 -32.0114,84.1093 L-33.3785,87.7222 C-34.0132,87.771 -34.6479,87.771 -35.2826,87.7222 Z M-34.3061,78.7875 C-28.5938,78.7875 -24.0044,74.1981 -24.0044,68.4858 C-24.0044,62.8222 -28.5938,58.184 -34.3061,58.184 C-39.9696,58.184 -44.6079,62.7734 -44.6079,68.4858 C-44.6079,74.1493 -40.0185,78.7875 -34.3061,78.7875 Z M-34.3061,63.3105 C-31.4744,63.3105 -29.1308,65.654 -29.1308,68.4858 C-29.1308,71.3175 -31.4744,73.661 -34.3061,73.661 C-37.1379,73.661 -39.4814,71.3175 -39.4814,68.4858 C-39.4814,65.654 -37.1379,63.3105 -34.3061,63.3105 Z " fill="#023649" fill-opacity="1.00" />			<path d="M7.81796,112.746 C8.63457,112.746 9.45117,112.707 10.3067,112.591 C11.0844,112.474 11.7065,111.968 11.9787,111.268 L13.1842,108.119 C13.6508,107.963 14.1175,107.769 14.5452,107.574 L17.6172,108.974 C18.3171,109.285 19.1337,109.207 19.717,108.741 C21.0391,107.691 22.2446,106.524 23.2556,105.202 C23.7223,104.58 23.8,103.802 23.4889,103.102 L22.0891,100.03 C22.2835,99.6027 22.4779,99.1361 22.6335,98.6694 L25.7832,97.464 C26.522,97.1918 27.0276,96.5307 27.1053,95.7919 C27.222,94.9364 27.2609,94.1198 27.2609,93.3032 C27.2609,92.4866 27.222,91.67 27.1053,90.8145 C26.9887,90.0368 26.4832,89.4146 25.7832,89.1424 L22.6335,87.937 C22.4779,87.4703 22.2835,87.0037 22.0891,86.576 L23.4889,83.504 C23.8,82.804 23.7223,81.9874 23.2556,81.4041 C22.2057,80.082 21.0391,78.8766 19.717,77.8655 C19.0948,77.3989 18.3171,77.3211 17.6172,77.6322 L14.5452,79.0321 C14.1175,78.8377 13.6508,78.6432 13.1842,78.4877 L11.9787,75.338 C11.7065,74.5991 11.0455,74.0936 10.3067,74.0158 C8.59568,73.7825 7.04025,73.7825 5.32927,74.0158 C4.55156,74.1325 3.92938,74.638 3.65718,75.338 L2.45172,78.4877 C1.98509,78.6432 1.51846,78.8377 1.09072,79.0321 L-1.98126,77.6322 C-2.6812,77.3211 -3.49781,77.3989 -4.08109,77.8655 C-5.40321,78.9154 -6.60867,80.082 -7.6197,81.4041 C-8.08633,82.0263 -8.1641,82.804 -7.85302,83.504 L-6.45313,86.576 C-6.64756,87.0037 -6.84199,87.4703 -6.99753,87.937 L-10.1473,89.1424 C-10.8861,89.4146 -11.3916,90.0757 -11.4694,90.8145 C-11.5861,91.67 -11.6249,92.4866 -11.6249,93.3032 C-11.6249,94.1198 -11.5861,94.9364 -11.4694,95.7919 C-11.3527,96.5696 -10.8472,97.1918 -10.1473,97.464 L-6.99753,98.6694 C-6.84199,99.1361 -6.64756,99.6027 -6.45313,100.03 L-7.85302,103.102 C-8.1641,103.802 -8.08633,104.619 -7.6197,105.202 C-6.56979,106.524 -5.40321,107.73 -4.08109,108.741 C-3.45892,109.207 -2.6812,109.285 -1.98126,108.974 L1.09072,107.574 C1.51846,107.769 1.98509,107.963 2.45172,108.119 L3.65718,111.268 C3.92938,112.007 4.59044,112.513 5.32927,112.591 C6.18476,112.707 7.00136,112.746 7.81796,112.746 Z M7.04025,108.624 L5.95145,105.747 C5.71813,105.124 5.21262,104.697 4.59044,104.502 C3.73495,104.269 2.91835,103.919 2.14064,103.491 C1.59623,103.18 0.896291,103.141 0.313003,103.414 L-2.48678,104.697 C-2.87563,104.347 -3.22561,103.997 -3.57558,103.608 L-2.29235,100.808 C-2.02015,100.225 -2.05903,99.5638 -2.37012,98.9805 C-2.79786,98.2028 -3.14783,97.3862 -3.38115,96.5307 C-3.57558,95.9085 -4.00332,95.403 -4.62549,95.1697 L-7.50305,94.0809 C-7.54193,93.8087 -7.54193,93.5365 -7.54193,93.3032 C-7.54193,93.031 -7.50305,92.7977 -7.50305,92.5255 L-4.62549,91.4367 C-4.00332,91.2034 -3.57558,90.6979 -3.38115,90.0757 C-3.14783,89.2202 -2.79786,88.4036 -2.37012,87.6259 C-2.05903,87.0815 -2.02015,86.3815 -2.29235,85.7982 L-3.57558,82.9985 C-3.22561,82.6096 -2.87563,82.2596 -2.48678,81.9097 L0.313003,83.1929 C0.89629,83.4651 1.55735,83.4262 2.14064,83.1151 C2.91835,82.6874 3.73495,82.3374 4.59044,82.1041 C5.21262,81.9097 5.71813,81.4819 5.95145,80.8597 L7.04025,77.9822 C7.54576,77.9433 8.05128,77.9433 8.55679,77.9822 L9.6456,80.8597 C9.87891,81.4819 10.3844,81.9097 11.0066,82.1041 C11.8621,82.3374 12.6787,82.6874 13.4564,83.1151 C14.0008,83.4262 14.7008,83.4651 15.284,83.1929 L18.0838,81.9097 C18.4727,82.2596 18.8226,82.6096 19.1726,82.9985 L17.8894,85.7982 C17.6172,86.3815 17.6561,87.0426 17.9672,87.6259 C18.3949,88.4036 18.7449,89.2202 18.9782,90.0757 C19.1726,90.6979 19.6004,91.2034 20.2225,91.4367 L23.1001,92.5255 C23.139,92.7977 23.139,93.0699 23.139,93.3032 C23.139,93.5754 23.1001,93.8087 23.1001,94.0809 L20.2225,95.1697 C19.6004,95.403 19.1726,95.9085 18.9782,96.5307 C18.7449,97.3862 18.3949,98.2028 17.9672,98.9805 C17.6561,99.5249 17.6172,100.225 17.8894,100.808 L19.1726,103.608 C18.8226,103.997 18.4727,104.347 18.0838,104.697 L15.284,103.414 C14.7008,103.141 14.0397,103.18 13.4564,103.491 C12.6787,103.919 11.8621,104.269 11.0066,104.502 C10.3844,104.697 9.87891,105.124 9.6456,105.747 L8.55679,108.624 C8.05128,108.663 7.54576,108.663 7.04025,108.624 Z M7.81796,101.508 C12.3676,101.508 16.0229,97.8528 16.0229,93.3032 C16.0229,88.7924 12.3676,85.0983 7.81796,85.0983 C3.30721,85.0983 -0.386942,88.7536 -0.386942,93.3032 C-0.386942,97.814 3.26832,101.508 7.81796,101.508 Z M7.81796,89.1813 C10.0733,89.1813 11.9399,91.0478 11.9399,93.3032 C11.9399,95.5586 10.0733,97.4251 7.81796,97.4251 C5.56259,97.4251 3.69607,95.5586 3.69607,93.3032 C3.69607,91.0478 5.56259,89.1813 7.81796,89.1813 Z " fill="#ffffff" fill-opacity="1.00" />			<path d="M60.8474,92.3171 C62.1617,91.9318 63.4576,91.4839 64.7793,90.8924 C65.9759,90.3377 66.7387,89.2305 66.8465,87.9756 L67.3002,82.3375 C67.9778,81.867 68.6371,81.3339 69.2337,80.8191 L74.8384,81.6225 C76.1116,81.7929 77.3892,81.2823 78.1077,80.2561 C79.7401,77.9425 81.1297,75.4962 82.1329,72.8913 C82.5903,71.6697 82.3485,70.3814 81.5175,69.4017 L77.8149,65.1182 C77.926,64.3381 78.0187,63.4954 78.0489,62.671 L82.5492,59.2446 C83.6098,58.4578 84.1115,57.1554 83.888,55.9296 C83.672,54.4978 83.3493,53.1652 82.9639,51.8509 C82.5786,50.5367 82.1307,49.2408 81.5392,47.919 C80.9845,46.7224 79.8773,45.9597 78.6224,45.8519 L72.9843,45.3981 C72.5138,44.7205 71.9807,44.0613 71.4659,43.4646 L72.2693,37.86 C72.4396,36.5867 71.9291,35.3092 70.9029,34.5906 C68.5893,32.9583 66.143,31.5687 63.538,30.5654 C62.3165,30.108 61.0282,30.3499 60.0485,31.1808 L55.765,34.8834 C54.9849,34.7724 54.1421,34.6796 53.3177,34.6495 L49.8914,30.1492 C49.1046,29.0885 47.8022,28.5869 46.5764,28.8104 C43.7127,29.2423 41.2094,29.9763 38.5658,31.1591 C37.3692,31.7139 36.6064,32.8211 36.4987,34.076 L36.0449,39.714 C35.3673,40.1846 34.7081,40.7177 34.1114,41.2324 L28.5068,40.4291 C27.2335,40.2587 25.956,40.7692 25.2374,41.7955 C23.6051,44.1091 22.2155,46.5554 21.2122,49.1603 C20.7548,50.3818 20.9967,51.6702 21.8276,52.6499 L25.5302,56.9333 C25.4192,57.7135 25.3264,58.5562 25.2963,59.3806 L20.7959,62.807 C19.7353,63.5937 19.2337,64.8962 19.4572,66.122 C19.6731,67.5538 19.9959,68.8864 20.3812,70.2007 C20.7666,71.5149 21.2145,72.8108 21.8059,74.1325 C22.3607,75.3292 23.4678,76.0919 24.7228,76.1997 L30.3608,76.6534 C30.8314,77.331 31.3645,77.9903 31.8792,78.5869 L31.0759,84.1916 C30.9055,85.4649 31.416,86.7424 32.4423,87.4609 C34.7559,89.0933 37.2022,90.4829 39.8071,91.4861 C41.0286,91.9435 42.317,91.7017 43.2967,90.8708 L47.5801,87.1681 C48.3603,87.2792 49.203,87.3719 50.0274,87.4021 L53.4538,91.9024 C54.2405,92.963 55.543,93.4647 56.7687,93.2412 C58.2006,93.0253 59.5332,92.7025 60.8474,92.3171 Z M49.7275,54.392 C53.3573,53.3277 57.2421,55.4509 58.3063,59.0807 C59.3706,62.7105 57.2474,66.5953 53.6176,67.6596 C49.9879,68.7238 46.1031,66.6007 45.0388,62.9709 C43.9745,59.3411 46.0977,55.4563 49.7275,54.392 Z " fill="#21426f" fill-opacity="1.00" />			<path d="M-70.3887,32.1838 L-86.3925,68.4736 L-86.3925,48.1876 L-106.679,48.1876 L-70.3887,32.1838 Z " fill="#d2b3ab" fill-opacity="1.00" />			<path d="M46.5765,2.14144 C46.8631,2.72118 47.3211,3.12369 47.7951,3.25929 C48.2612,3.52835 48.7651,3.61217 49.1516,3.42107 C49.2034,3.45097 49.3149,3.3773 49.4265,3.30364 C49.5082,3.28175 49.6198,3.20809 49.6796,3.10453 C49.8509,2.9273 49.9705,2.72018 50.0383,2.48317 C50.2257,2.03903 50.214,1.34185 50.0608,0.770121 L47.8781,-7.04886 C47.7249,-7.62059 47.245,-8.10478 46.6157,-8.33007 C46.2751,-8.45766 45.9345,-8.58525 45.556,-8.52761 C45.3708,-8.56552 45.2074,-8.52175 44.9923,-8.50787 C44.7772,-8.494 44.6138,-8.45023 44.4206,-8.35468 C43.6775,-8.02426 43.0598,-7.55237 42.7529,-6.90111 C42.4459,-6.24985 42.4059,-5.58257 42.7224,-5.05461 L46.5765,2.14144 Z M43.0201,4.71386 C43.4781,5.11637 43.9441,5.38543 44.4699,5.55093 C44.9439,5.68653 45.4041,5.607 45.7687,5.33423 C46.1333,5.06145 46.2908,4.66909 46.3228,4.13527 C46.3031,3.57155 46.2316,2.97793 45.915,2.44997 L41.8079,-4.54696 C41.5432,-5.04503 40.9218,-5.40377 40.2844,-5.49561 C39.6172,-5.53566 38.8821,-5.33869 38.1828,-4.84492 C37.4834,-4.35115 37.0948,-3.67801 36.9731,-2.98884 C36.8513,-2.29968 37.0264,-1.64627 37.4545,-1.19197 L43.0201,4.71386 Z M40.2761,8.03152 C40.8457,8.36036 41.4233,8.55576 41.9651,8.45434 C42.1803,8.44047 42.499,8.48639 42.6404,8.36094 C42.7819,8.23549 42.9751,8.13994 43.1465,7.96272 C43.4374,7.57837 43.4396,7.09633 43.3601,6.63617 C43.2805,6.17601 42.964,5.64805 42.5359,5.19375 L36.7691,-0.483071 C36.341,-0.937366 35.6817,-1.11087 35.0064,-1.01747 C34.361,-0.975848 33.7135,-0.45218 33.1695,0.131278 C32.9084,0.463846 32.6992,0.826308 32.5716,1.16688 C32.4958,1.53736 32.3682,1.87793 32.4557,2.20464 C32.5491,2.87993 32.8358,3.45967 33.4054,3.78852 L40.2761,8.03152 Z M59.108,0.884568 C58.9126,1.46216 58.9543,2.10756 59.0637,2.51594 C59.2767,2.9841 59.5195,3.40049 59.9119,3.55798 C60.3342,3.66369 60.8162,3.66583 61.2326,3.42295 C61.7008,3.20997 62.155,2.78185 62.4839,2.21227 L66.4162,-4.83787 C66.7451,-5.40745 66.7851,-6.07473 66.4985,-6.65447 C66.2118,-7.23421 65.6364,-7.91165 64.8735,-8.14495 C64.0589,-8.40814 63.2582,-8.4562 62.6566,-8.25123 C62.025,-7.99447 61.5707,-7.56636 61.3972,-6.90709 L59.108,0.884568 Z M54.7579,0.168075 C54.7995,0.81347 55.0045,1.4151 55.2693,1.91316 C55.5639,2.35944 55.8965,2.62049 56.3486,2.67442 C56.7709,2.78013 57.1873,2.53725 57.5818,2.21269 C57.9544,1.80646 58.2752,1.37033 58.4487,0.71106 L60.4492,-7.17829 C60.5928,-7.78578 60.4177,-8.43919 59.9677,-8.97516 C59.4878,-9.45935 58.7848,-9.79621 57.992,-9.97773 C57.1694,-10.1075 56.3527,-9.88861 55.8466,-9.49039 C55.3186,-9.17385 54.9898,-8.60426 54.9497,-7.93698 L54.7579,0.168075 Z M50.4691,0.660696 C50.5924,1.28421 50.9389,1.76039 51.2714,2.02143 C51.5005,2.22269 51.6558,2.31238 51.8928,2.38018 C52.0999,2.49976 52.2852,2.53767 52.5302,2.47201 C53.4206,2.36473 54.1221,1.38892 54.1205,0.0762424 L53.9936,-8.07473 C53.9841,-9.25395 52.6319,-10.3798 50.9546,-10.1055 C50.5761,-10.0478 50.2196,-9.90851 49.863,-9.76919 C49.5581,-9.59997 49.2453,-9.2973 49.044,-9.06829 C48.5817,-8.50672 48.4381,-7.89923 48.5614,-7.27572 L50.4691,0.660696 Z M68.9516,8.708 C67.814,9.36297 67.2897,10.5102 67.5385,11.2751 C67.634,11.4684 67.7595,11.6098 67.9367,11.7812 C68.1139,11.9526 68.321,12.0721 68.5581,12.1399 C69.054,12.3572 69.6695,12.3674 70.2711,12.1624 L78.0981,9.84632 C78.6997,9.64135 79.1839,9.16145 79.4092,8.53208 C79.5368,8.1915 79.6644,7.85092 79.6067,7.47244 C79.6009,7.12385 79.4915,6.71547 79.3521,6.35887 C78.7511,4.76913 77.1817,4.13918 76.074,4.74238 L68.9516,8.708 Z M66.3493,5.20338 C65.9168,5.71317 65.6179,6.23097 65.4823,6.70501 C65.3467,7.17904 65.4262,7.6392 65.699,8.00381 C65.9718,8.36842 66.3342,8.57768 66.9497,8.58784 C67.5134,8.5681 68.137,8.4448 68.6649,8.12826 L75.5882,3.9096 C76.1162,3.59305 76.445,3.02347 76.4851,2.35619 C76.5251,1.68891 76.358,0.902047 75.8344,0.254505 C75.3406,-0.444817 74.6675,-0.833457 73.9783,-0.955185 C73.319,-1.12869 72.6357,-0.901833 72.1814,-0.473716 L66.3493,5.20338 Z M62.92,2.53311 C62.6211,3.05091 62.4775,3.6584 62.5271,4.17034 C62.5468,4.73406 62.7678,5.06877 63.0705,5.3816 C63.4249,5.72432 63.907,5.72647 64.397,5.59516 C64.8572,5.51563 65.3553,5.25086 65.8395,4.77097 L71.4426,-1.10738 C71.8969,-1.5355 72.0704,-2.19477 71.977,-2.87006 C71.8318,-3.57525 71.3898,-4.24467 70.7247,-4.76677 C70.1114,-5.25897 69.3186,-5.44049 68.5916,-5.37698 C67.9163,-5.28358 67.3883,-4.96703 67.0595,-4.39745 L62.92,2.53311 Z M70.3937,21.2775 C69.8161,21.0821 69.1707,21.1237 68.7324,21.2849 C68.2642,21.4979 67.8479,21.7408 67.6904,22.1331 C67.5708,22.3403 67.5329,22.5255 67.5985,22.7705 C67.6642,23.0155 67.708,23.1789 67.8254,23.4538 C68.0683,23.8702 68.4964,24.3245 69.066,24.6533 L76.2277,28.512 C76.7973,28.8408 77.4944,28.8291 78.0742,28.5425 C78.3491,28.425 78.632,28.1741 78.915,27.9233 C79.176,27.5907 79.3554,27.28 79.5129,26.8876 C79.798,26.1547 79.846,25.354 79.5893,24.7225 C79.3325,24.0909 78.8526,23.6067 78.2451,23.4631 L70.3937,21.2775 Z M71.0285,16.9492 C70.3313,16.961 69.8631,17.1739 69.3133,17.4088 C68.8152,17.6736 68.5243,18.0579 68.552,18.4882 C68.4981,18.9403 68.6892,19.3268 69.0138,19.7213 C69.3383,20.1158 69.9079,20.4447 70.5154,20.5883 L78.4128,22.4553 C79.0203,22.5989 79.6737,22.4238 80.2096,21.9738 C80.6938,21.4939 81.0825,20.8208 81.2122,19.9981 C81.3419,19.1755 81.1231,18.3588 80.7249,17.8527 C80.3784,17.3765 79.7571,17.0178 79.1416,17.0076 L71.0285,16.9492 Z M70.4841,12.6306 C69.9124,12.7838 69.3545,13.1521 68.9819,13.5583 C68.8105,13.7356 68.6909,13.9427 68.6231,14.1797 C68.5932,14.2315 68.5852,14.3649 68.5772,14.4984 C68.5991,14.5801 68.621,14.6617 68.613,14.7952 C68.6925,15.2554 68.9653,15.62 69.4313,15.889 C69.8157,16.18 70.4231,16.3236 71.0387,16.3337 L79.1976,16.0734 C79.843,16.0318 80.371,15.7152 80.7815,15.1238 C81.192,14.5323 81.2919,13.7615 81.2065,12.9527 C81.1408,12.7077 81.119,12.626 81.0533,12.381 C80.9278,12.2395 80.8841,12.0762 80.7885,11.8829 C80.6193,11.5781 80.3166,11.2653 80.0876,11.064 C79.6077,10.5798 78.9186,10.4581 78.3468,10.6113 L70.4841,12.6306 Z " fill="#d2b3ab" fill-opacity="1.00" />			<path d="M-38.6663,7.8356 L-34.099,17.261 L-34.099,-19.9423 L-38.6663,-10.5169 L-43.1922,-19.9423 L-47.718,-10.5169 L-52.2438,-19.9423 L-56.7697,-10.5169 L-61.2955,-19.9423 L-65.8214,-10.5169 L-70.3887,-19.9423 L-70.3887,17.261 L-65.8214,7.8356 L-61.2955,17.261 L-56.7697,7.8356 L-52.2438,17.261 L-47.718,7.8356 L-43.1922,17.261 L-38.6663,7.8356 Z " fill="#fbdd8f" fill-opacity="1.00" />			<path d="M95.2782,-104.549 C89.2691,-108.018 81.5457,-105.98 78.0764,-99.9708 C76.3628,-97.0029 75.9276,-93.5413 76.8893,-90.2991 L69.9083,-78.2076 L68.7236,-76.1558 L84.0028,-67.3343 L92.1473,-81.441 C95.4205,-82.2871 98.2374,-84.3737 99.9297,-87.3049 C103.347,-93.393 101.287,-101.08 95.2782,-104.549 Z M90.1994,-85.9366 L89.0703,-85.7579 L82.1951,-73.8497 L80.1798,-75.0132 L90.6302,-93.1137 L87.7355,-94.7849 L77.2852,-76.6844 L75.2333,-77.8691 L81.5374,-88.788 L82.1085,-89.7773 L81.6987,-90.8444 C80.8269,-93.0577 81.0687,-95.5073 82.2322,-97.5226 C84.39,-101.26 89.1504,-102.566 92.9244,-100.388 C96.6984,-98.2086 97.9682,-93.4694 95.7893,-89.6954 C94.5525,-87.7225 92.5153,-86.3094 90.1994,-85.9366 Z " fill="#21426f" fill-opacity="1.00" />			<path d="M-90.4421,-73.339 C-85.7438,-73.339 -81.9366,-77.1462 -81.9366,-81.8444 C-81.9366,-82.0469 -81.9366,-82.2899 -81.9771,-82.4924 C-82.8682,-81.4394 -84.2048,-80.7509 -85.6628,-80.7509 C-88.2955,-80.7509 -90.4421,-82.8975 -90.4421,-85.5301 C-90.4421,-87.4742 -89.308,-89.0943 -87.6879,-89.8638 C-88.5385,-90.1473 -89.47,-90.3498 -90.4421,-90.3498 C-95.1403,-90.3498 -98.9475,-86.5426 -98.9475,-81.8444 C-98.9475,-77.1462 -95.1403,-73.339 -90.4421,-73.339 Z M-83.1112,-71.3544 C-85.1768,-69.8963 -87.7284,-69.0458 -90.4421,-69.0458 C-93.7227,-69.0458 -96.6389,-70.2608 -98.9475,-72.2859 L-98.9475,-65.8056 C-96.3959,-64.4691 -93.5202,-63.6995 -90.4421,-63.6995 C-82.0176,-63.6995 -74.8893,-69.4913 -72.8642,-77.2677 L-83.1112,-71.3544 Z M-103.241,-81.8444 C-103.241,-87.4742 -99.5955,-92.2939 -94.4923,-93.995 L-100.082,-97.2352 C-105.144,-93.995 -108.587,-88.2842 -108.587,-81.8444 C-108.587,-76.7817 -106.521,-72.2049 -103.16,-68.9648 L-103.16,-80.7104 C-103.241,-81.0344 -103.241,-81.4394 -103.241,-81.8444 Z M-77.6434,-81.8444 C-77.6434,-80.9534 -77.7244,-80.1433 -77.8864,-79.2928 L-72.2972,-82.5329 C-72.6617,-92.2129 -80.6406,-99.9893 -90.4421,-99.9893 C-92.1026,-99.9893 -93.7227,-99.7868 -95.2213,-99.3413 L-85.0553,-93.4685 C-80.6811,-91.4434 -77.6434,-86.9882 -77.6434,-81.8444 Z " fill="#023649" fill-opacity="1.00" />			<path d="M-5.50027,-34.6627 L5.4636,-34.6627 L5.4636,-38.6596 L-5.50027,-38.6596 L-5.50027,-34.6627 Z M-7.70037,-40.383 L7.6637,-40.383 L7.6637,-44.3799 L-7.70037,-44.3799 L-7.70037,-40.383 Z M-9.86381,-46.14 L9.86381,-46.14 L9.86381,-50.1368 L-9.86381,-50.1368 L-9.86381,-46.14 Z M-12.0639,-51.8602 L12.0272,-51.8602 L12.0272,-55.8571 L-12.0639,-55.8571 L-12.0639,-51.8602 Z M-14.264,-57.6172 L14.2273,-57.6172 L14.2273,-61.614 L-14.264,-61.614 L-14.264,-57.6172 Z M-16.4275,-63.3374 L16.4275,-63.3374 L16.4275,-67.3343 L-16.4275,-67.3343 L-16.4275,-63.3374 Z " fill="#d2b3ab" fill-opacity="1.00" />			<path d="M-97.3243,-2.12351 L-109.497,-2.12351 C-110.408,-5.47829 -113.427,-7.92249 -117.022,-7.92249 C-121.335,-7.92249 -124.786,-4.42393 -124.786,-0.158561 C-124.786,4.10681 -121.335,7.60537 -117.022,7.60537 C-113.427,7.60537 -110.408,5.16117 -109.497,1.80638 L-97.2764,1.80638 C-96.3179,9.52239 -89.8,15.4172 -81.8444,15.4172 L-81.8444,-15.7823 C-89.8,-15.7343 -96.3179,-9.79159 -97.3243,-2.12351 Z M-119.13,-0.110635 C-119.13,-1.26085 -118.172,-2.21936 -117.022,-2.21936 C-115.872,-2.21936 -114.913,-1.26085 -114.913,-0.110635 C-114.913,1.03958 -115.872,1.99809 -117.022,1.99809 C-118.172,1.99809 -119.13,1.03958 -119.13,-0.110635 Z " fill="#d2b3ab" fill-opacity="1.00" />			<path d="M118.006,-24.6064 C108.949,-24.6064 101.579,-17.2361 101.579,-8.17898 C101.579,0.878121 108.949,8.24848 118.006,8.24848 C127.063,8.24848 134.433,0.878121 134.433,-8.17898 C134.433,-17.2361 127.063,-24.6064 118.006,-24.6064 Z M127.32,-11.4791 L121.343,-11.4791 L121.343,-17.4561 C124.093,-16.466 126.33,-14.2659 127.32,-11.4791 Z M114.706,-17.4561 L114.706,-11.4791 L108.729,-11.4791 C109.719,-14.2659 111.919,-16.466 114.706,-17.4561 Z M108.729,-4.87882 L114.706,-4.87882 L114.706,1.09813 C111.919,0.108084 109.719,-2.09202 108.729,-4.87882 Z M121.306,1.09813 L121.306,-4.87882 L127.283,-4.87882 C126.33,-2.09202 124.093,0.108084 121.306,1.09813 Z " fill="#d2b3ab" fill-opacity="1.00" />			<path d="M126.816,62.7002 L133.193,51.6546 C135.914,46.9418 134.022,40.8092 128.85,38.5433 C124.52,36.6326 119.457,38.4874 117.048,42.6602 L110.812,53.4604 L113.021,54.7358 L109.62,60.6268 L107.411,59.3514 L101.034,70.397 C98.3128,75.1098 100.205,81.2423 105.377,83.5083 C109.707,85.419 114.77,83.5642 117.179,79.3914 L123.415,68.5912 L121.058,67.2307 L124.46,61.3397 L126.816,62.7002 Z M108.015,76.7842 C106.199,75.7355 105.576,73.4125 106.625,71.5961 C107.674,69.7797 109.997,69.1572 111.813,70.2059 C113.63,71.2546 114.252,73.5777 113.203,75.3941 C112.155,77.2105 109.832,77.8329 108.015,76.7842 Z M126.212,45.2674 C128.028,46.316 128.65,48.6391 127.602,50.4555 C126.553,52.2719 124.23,52.8943 122.414,51.8456 C120.597,50.7969 119.975,48.4739 121.023,46.6575 C122.072,44.8411 124.395,44.2187 126.212,45.2674 Z M116.051,64.3398 L114.578,63.4895 L118.008,57.5494 L119.481,58.3997 L116.051,64.3398 Z " fill="#ffffff" fill-opacity="1.00" />			<path d="M-82.0177,89.4505 C-82.8384,89.9243 -83.1298,91.0118 -82.6559,91.8325 L-73.1411,108.313 L-75.6689,109.772 L-85.1838,93.2919 C-85.6576,92.4712 -86.7451,92.1798 -87.5658,92.6537 C-88.3865,93.1275 -88.6779,94.215 -88.2041,95.0357 L-78.6892,111.516 L-81.2171,112.975 L-90.7319,96.4952 C-91.2058,95.6744 -92.2932,95.383 -93.1139,95.8569 C-93.9347,96.3307 -94.226,97.4182 -93.7522,98.2389 L-84.2373,114.719 L-86.4369,115.989 L-95.9517,99.5088 C-96.4256,98.6881 -97.513,98.3967 -98.3338,98.8706 C-99.1545,99.3444 -99.4459,100.432 -98.972,101.253 L-89.4572,117.733 L-87.3722,121.344 L-86.0834,123.576 L-89.035,122.786 L-93.3944,115.235 C-93.8683,114.414 -94.9557,114.123 -95.7764,114.597 C-96.5972,115.07 -96.8885,116.158 -96.4147,116.979 L-91.354,125.744 L-82.6406,128.023 C-82.6406,128.023 -82.5888,128.037 -82.5559,128.018 C-81.8828,128.199 -81.1213,128.153 -80.4318,127.755 L-65.9214,119.377 C-64.641,118.638 -64.1642,116.962 -64.9224,115.649 L-68.6563,109.181 L-70.1915,106.522 L-79.7064,90.042 C-80.1285,89.2352 -81.197,88.9766 -82.0177,89.4505 Z " fill="#ffffff" fill-opacity="1.00" />			<path d="M-52.533,-59.7961 C-54.1528,-61.4159 -56.7358,-61.4159 -58.3557,-59.7961 C-59.9755,-58.1762 -59.9755,-55.5932 -58.3557,-53.9734 C-57.108,-52.7257 -55.2473,-52.4411 -53.7151,-53.1416 L-40.7344,-40.161 C-40.1872,-39.6137 -39.2678,-39.6137 -38.7206,-40.161 C-38.1733,-40.7082 -38.1733,-41.6276 -38.7206,-42.1748 L-51.7012,-55.1554 C-50.9788,-56.6658 -51.2853,-58.5484 -52.533,-59.7961 Z " fill="#d2b3ab" fill-opacity="1.00" />			<path d="M-35.8164,-113.401 L-35.8164,-120.594 L-38.8883,-120.594 C-39.2255,-121.83 -39.75,-122.991 -40.3869,-124.04 L-38.1391,-126.288 L-43.2715,-131.421 L-45.6691,-129.023 C-46.6057,-129.51 -47.6172,-129.922 -48.6661,-130.184 L-48.6661,-133.593 L-55.859,-133.593 L-55.859,-130.184 C-56.908,-129.922 -57.9195,-129.51 -58.856,-129.023 L-61.2537,-131.421 L-66.3486,-126.326 L-64.1008,-124.078 C-64.7752,-122.991 -65.2622,-121.868 -65.5993,-120.631 L-68.6713,-120.631 L-68.6713,-113.401 L-65.6368,-113.401 C-65.2996,-112.127 -64.8126,-110.928 -64.1758,-109.805 L-66.2737,-107.707 L-61.2162,-102.574 L-59.0808,-104.71 C-58.0693,-104.148 -56.9829,-103.698 -55.8965,-103.398 L-55.8965,-99.9893 L-48.6661,-99.9893 L-48.6661,-103.398 C-47.5423,-103.698 -46.4558,-104.148 -45.4818,-104.71 L-43.3464,-102.574 L-38.2515,-107.669 L-40.3494,-109.767 C-39.6751,-110.891 -39.2255,-112.09 -38.8883,-113.364 L-35.8164,-113.364 L-35.8164,-113.401 Z M-52.2626,-115.199 C-53.1617,-115.199 -53.8735,-115.948 -53.8735,-116.81 C-53.8735,-117.709 -53.1242,-118.421 -52.2626,-118.421 C-51.3635,-118.421 -50.6517,-117.672 -50.6517,-116.81 C-50.6517,-115.911 -51.3635,-115.199 -52.2626,-115.199 Z " fill="#fbdd8f" fill-opacity="1.00" />			<path d="M-7.11083,-123.201 L-3.38516,-116.748 L2.45714,-113.353 L2.45323,-106.636 L-3.40959,-103.251 L-9.25189,-106.646 L-9.2707,-113.403 L-12.9737,-119.816 C-17.1879,-115.757 -18.4891,-109.287 -15.9686,-103.922 C-14.3585,-100.497 -11.5635,-98.0185 -8.37383,-96.7647 C-3.95339,-95.0149 -0.192507,-92.0448 2.19283,-87.9132 L4.94164,-83.1521 L15.6049,-89.3086 L12.9015,-93.991 C10.5843,-98.0045 9.58836,-102.728 10.4754,-107.28 C11.0587,-110.45 10.5536,-113.778 8.84975,-116.729 C5.55571,-122.435 -1.08854,-124.947 -7.11083,-123.201 Z " fill="#21426f" fill-opacity="1.00" />			<path d="M48.762,-117.893 C47.8868,-117.893 47.194,-117.2 47.194,-116.325 C47.194,-115.486 47.9233,-114.757 48.762,-114.757 C49.6006,-114.757 50.3299,-115.45 50.3299,-116.325 C50.3299,-117.164 49.6371,-117.893 48.762,-117.893 Z M48.762,-122.816 C47.8868,-122.816 47.194,-122.123 47.194,-121.248 C47.194,-120.409 47.9233,-119.68 48.762,-119.68 C49.6006,-119.68 50.3299,-120.373 50.3299,-121.248 C50.3299,-122.086 49.6371,-122.816 48.762,-122.816 Z M48.762,-112.97 C47.8868,-112.97 47.194,-112.278 47.194,-111.402 C47.194,-110.564 47.9233,-109.835 48.762,-109.835 C49.6006,-109.835 50.3299,-110.527 50.3299,-111.402 C50.3299,-112.241 49.6371,-112.97 48.762,-112.97 Z M48.762,-108.048 C47.8868,-108.048 47.194,-107.319 47.194,-106.48 C47.194,-105.641 47.9233,-104.912 48.762,-104.912 C49.6006,-104.912 50.3299,-105.605 50.3299,-106.48 C50.3299,-107.319 49.6371,-108.048 48.762,-108.048 Z M48.762,-127.738 C47.8868,-127.738 47.194,-127.045 47.194,-126.17 C47.194,-125.332 47.9233,-124.602 48.762,-124.602 C49.6006,-124.602 50.3299,-125.295 50.3299,-126.17 C50.3299,-127.009 49.6371,-127.738 48.762,-127.738 Z M48.762,-132.661 C47.8868,-132.661 47.194,-131.932 47.194,-131.093 C47.194,-130.254 47.9233,-129.525 48.762,-129.525 C49.6006,-129.525 50.3299,-130.218 50.3299,-131.093 C50.3299,-131.932 49.6371,-132.661 48.762,-132.661 Z M48.762,-103.125 C47.8868,-103.125 47.194,-102.432 47.194,-101.557 C47.194,-100.719 47.9233,-99.9893 48.762,-99.9893 C49.6006,-99.9893 50.3299,-100.682 50.3299,-101.557 C50.3299,-102.396 49.6371,-103.125 48.762,-103.125 Z M48.1785,-117.747 C47.3399,-117.419 46.9752,-116.507 47.3399,-115.705 C47.6316,-114.903 48.5796,-114.538 49.3818,-114.867 C50.184,-115.158 50.5487,-116.106 50.2205,-116.909 C49.9288,-117.711 48.9807,-118.075 48.1785,-117.747 Z M51.9343,-108.668 C51.1321,-108.34 50.7675,-107.428 51.0956,-106.626 C51.3874,-105.824 52.3354,-105.459 53.1376,-105.787 C53.9398,-106.079 54.3045,-107.027 53.9763,-107.829 C53.6846,-108.631 52.7365,-108.996 51.9343,-108.668 Z M44.3863,-126.9 C43.5841,-126.571 43.2195,-125.623 43.5476,-124.858 C43.8393,-124.055 44.7874,-123.727 45.5896,-124.019 C46.3918,-124.311 46.7564,-125.259 46.4283,-126.061 C46.1366,-126.863 45.1885,-127.228 44.3863,-126.9 Z M42.5266,-131.421 C41.688,-131.093 41.3598,-130.181 41.688,-129.379 C41.9797,-128.577 42.9277,-128.249 43.73,-128.54 C44.5322,-128.832 44.8968,-129.78 44.5686,-130.582 C44.2769,-131.385 43.3288,-131.749 42.5266,-131.421 Z M53.8304,-104.146 C53.0282,-103.818 52.6271,-102.906 52.9918,-102.104 C53.2835,-101.302 54.2315,-100.937 55.0337,-101.266 C55.8359,-101.557 56.2006,-102.505 55.8724,-103.308 C55.5807,-104.11 54.6326,-104.474 53.8304,-104.146 Z M47.668,-117.419 C47.0117,-116.799 47.0117,-115.851 47.668,-115.195 C48.2879,-114.575 49.2724,-114.575 49.8923,-115.195 C50.5122,-115.815 50.5122,-116.799 49.8923,-117.419 C49.2724,-118.039 48.2879,-118.039 47.668,-117.419 Z M44.204,-120.883 C43.5476,-120.3 43.5476,-119.315 44.204,-118.659 C44.8239,-118.039 45.8084,-118.039 46.4283,-118.659 C47.0482,-119.279 47.0482,-120.263 46.4283,-120.883 C45.8084,-121.503 44.8239,-121.503 44.204,-120.883 Z M51.1321,-113.955 C50.5122,-113.335 50.5122,-112.351 51.1321,-111.731 C51.752,-111.111 52.7365,-111.111 53.3564,-111.731 C53.9763,-112.351 53.9763,-113.335 53.3564,-113.955 C52.7365,-114.575 51.752,-114.575 51.1321,-113.955 Z M54.5962,-110.491 C53.9763,-109.871 53.9763,-108.886 54.5962,-108.267 C55.2161,-107.647 56.2006,-107.647 56.8205,-108.267 C57.4403,-108.886 57.4403,-109.871 56.8205,-110.491 C56.2006,-111.111 55.2161,-111.111 54.5962,-110.491 Z M40.7035,-124.384 C40.0836,-123.764 40.0836,-122.779 40.7035,-122.159 C41.3233,-121.539 42.3079,-121.539 42.9277,-122.159 C43.5476,-122.779 43.5476,-123.764 42.9277,-124.384 C42.3079,-125.003 41.3233,-125.003 40.7035,-124.384 Z M37.2029,-127.884 C36.6195,-127.264 36.6195,-126.28 37.2029,-125.66 C37.8228,-125.04 38.8073,-125.04 39.4272,-125.66 C40.0471,-126.28 40.0471,-127.264 39.4272,-127.884 C38.8073,-128.504 37.8228,-128.504 37.2029,-127.884 Z M58.0967,-106.99 C57.4768,-106.37 57.4768,-105.386 58.0967,-104.766 C58.7166,-104.146 59.7011,-104.146 60.321,-104.766 C60.9409,-105.386 60.9409,-106.37 60.321,-106.99 C59.7011,-107.61 58.7166,-107.61 58.0967,-106.99 Z M47.3399,-116.909 C46.9752,-116.143 47.3399,-115.231 48.1785,-114.867 C48.9807,-114.538 49.8923,-114.903 50.2205,-115.705 C50.5487,-116.507 50.184,-117.419 49.3818,-117.747 C48.5796,-118.075 47.668,-117.711 47.3399,-116.909 Z M56.4194,-113.153 C56.0912,-112.387 56.4558,-111.439 57.258,-111.111 C58.0602,-110.783 58.9718,-111.147 59.3,-111.949 C59.6282,-112.752 59.2635,-113.663 58.4613,-113.991 C57.6591,-114.32 56.7475,-113.955 56.4194,-113.153 Z M38.1875,-120.701 C37.8593,-119.899 38.2604,-118.987 39.0261,-118.659 C39.8283,-118.331 40.7399,-118.695 41.0681,-119.497 C41.3963,-120.3 41.0316,-121.211 40.2294,-121.539 C39.4272,-121.868 38.5156,-121.503 38.1875,-120.701 Z M33.6659,-122.56 C33.3378,-121.795 33.7389,-120.883 34.5046,-120.518 C35.3068,-120.19 36.2184,-120.555 36.5466,-121.357 C36.8748,-122.159 36.5101,-123.071 35.7079,-123.399 C34.9057,-123.727 33.9941,-123.363 33.6659,-122.56 Z M60.9409,-111.257 C60.6127,-110.491 61.0138,-109.543 61.7795,-109.215 C62.5817,-108.886 63.4933,-109.251 63.8215,-110.053 C64.1497,-110.856 63.785,-111.767 62.9828,-112.095 C62.1806,-112.423 61.269,-112.059 60.9409,-111.257 Z M47.194,-116.325 C47.194,-115.45 47.8868,-114.757 48.762,-114.757 C49.6006,-114.757 50.3299,-115.486 50.3299,-116.325 C50.3299,-117.164 49.6371,-117.893 48.762,-117.893 C47.9233,-117.893 47.194,-117.2 47.194,-116.325 Z M42.2714,-116.325 C42.2714,-115.45 42.9642,-114.757 43.8393,-114.757 C44.678,-114.757 45.4073,-115.486 45.4073,-116.325 C45.4073,-117.164 44.7145,-117.893 43.8393,-117.893 C43.0007,-117.893 42.2714,-117.2 42.2714,-116.325 Z M52.1166,-116.325 C52.1166,-115.45 52.8094,-114.757 53.6846,-114.757 C54.5232,-114.757 55.2525,-115.486 55.2525,-116.325 C55.2525,-117.164 54.5597,-117.893 53.6846,-117.893 C52.8459,-117.893 52.1166,-117.2 52.1166,-116.325 Z M57.0392,-116.325 C57.0392,-115.45 57.7685,-114.757 58.6072,-114.757 C59.4459,-114.757 60.1751,-115.486 60.1751,-116.325 C60.1751,-117.164 59.4823,-117.893 58.6072,-117.893 C57.7685,-117.893 57.0392,-117.2 57.0392,-116.325 Z M37.3488,-116.325 C37.3488,-115.45 38.0416,-114.757 38.9167,-114.757 C39.7554,-114.757 40.4847,-115.486 40.4847,-116.325 C40.4847,-117.164 39.7919,-117.893 38.9167,-117.893 C38.0781,-117.893 37.3488,-117.2 37.3488,-116.325 Z M32.4262,-116.325 C32.4262,-115.45 33.1554,-114.757 33.9941,-114.757 C34.8328,-114.757 35.5621,-115.486 35.5621,-116.325 C35.5621,-117.164 34.8692,-117.893 33.9941,-117.893 C33.1554,-117.893 32.4262,-117.2 32.4262,-116.325 Z M61.9619,-116.325 C61.9619,-115.45 62.6547,-114.757 63.5298,-114.757 C64.3685,-114.757 65.0977,-115.486 65.0977,-116.325 C65.0977,-117.164 64.4049,-117.893 63.5298,-117.893 C62.6911,-117.893 61.9619,-117.2 61.9619,-116.325 Z M47.3399,-115.742 C47.668,-114.903 48.5796,-114.538 49.3818,-114.903 C50.184,-115.195 50.5487,-116.143 50.2205,-116.945 C49.9288,-117.747 48.9807,-118.112 48.1785,-117.784 C47.3763,-117.492 47.0117,-116.544 47.3399,-115.742 Z M56.4194,-119.497 C56.7475,-118.695 57.6591,-118.331 58.4613,-118.659 C59.2635,-118.95 59.5917,-119.899 59.3,-120.701 C59.0083,-121.503 58.0602,-121.868 57.258,-121.539 C56.4558,-121.248 56.0912,-120.3 56.4194,-119.497 Z M38.1875,-111.949 C38.5156,-111.147 39.4637,-110.783 40.2294,-111.111 C41.0316,-111.402 41.3598,-112.351 41.0681,-113.153 C40.7764,-113.955 39.8283,-114.32 39.0261,-113.991 C38.2239,-113.7 37.8593,-112.752 38.1875,-111.949 Z M33.6659,-110.09 C33.9941,-109.251 34.9057,-108.923 35.7079,-109.251 C36.5101,-109.543 36.8383,-110.491 36.5466,-111.293 C36.2549,-112.095 35.3068,-112.46 34.5046,-112.132 C33.7024,-111.84 33.3378,-110.892 33.6659,-110.09 Z M60.9409,-121.394 C61.269,-120.591 62.1806,-120.19 62.9828,-120.555 C63.785,-120.847 64.1497,-121.795 63.8215,-122.597 C63.5298,-123.399 62.5817,-123.764 61.7795,-123.436 C60.9773,-123.144 60.6127,-122.196 60.9409,-121.394 Z M47.668,-115.231 C48.2879,-114.575 49.236,-114.575 49.8923,-115.231 C50.5122,-115.851 50.5122,-116.836 49.8923,-117.455 C49.2724,-118.075 48.2879,-118.075 47.668,-117.455 C47.0482,-116.836 47.0482,-115.851 47.668,-115.231 Z M44.204,-111.767 C44.7874,-111.111 45.7719,-111.111 46.4283,-111.767 C47.0482,-112.387 47.0482,-113.372 46.4283,-113.991 C45.8084,-114.611 44.8239,-114.611 44.204,-113.991 C43.5841,-113.372 43.5841,-112.387 44.204,-111.767 Z M51.1321,-118.695 C51.752,-118.075 52.7365,-118.075 53.3564,-118.695 C53.9763,-119.315 53.9763,-120.3 53.3564,-120.92 C52.7365,-121.539 51.752,-121.539 51.1321,-120.92 C50.5122,-120.3 50.5122,-119.315 51.1321,-118.695 Z M54.5962,-122.159 C55.2161,-121.539 56.2006,-121.539 56.8205,-122.159 C57.4403,-122.779 57.4403,-123.764 56.8205,-124.384 C56.2006,-125.003 55.2161,-125.003 54.5962,-124.384 C53.9763,-123.764 53.9763,-122.779 54.5962,-122.159 Z M40.7035,-108.267 C41.3233,-107.647 42.3079,-107.647 42.9277,-108.267 C43.5476,-108.886 43.5476,-109.871 42.9277,-110.491 C42.3079,-111.111 41.3233,-111.111 40.7035,-110.491 C40.0836,-109.871 40.0836,-108.886 40.7035,-108.267 Z M37.2029,-104.766 C37.8228,-104.183 38.8073,-104.183 39.4272,-104.766 C40.0471,-105.386 40.0471,-106.37 39.4272,-106.99 C38.8073,-107.61 37.8228,-107.61 37.2029,-106.99 C36.583,-106.37 36.583,-105.386 37.2029,-104.766 Z M58.0967,-125.66 C58.7166,-125.04 59.7011,-125.04 60.321,-125.66 C60.9409,-126.28 60.9409,-127.264 60.321,-127.884 C59.7011,-128.504 58.7166,-128.504 58.0967,-127.884 C57.4768,-127.264 57.4768,-126.28 58.0967,-125.66 Z M48.1785,-114.903 C48.9443,-114.538 49.8559,-114.903 50.2205,-115.742 C50.5487,-116.544 50.184,-117.455 49.3818,-117.784 C48.5796,-118.112 47.668,-117.747 47.3399,-116.945 C47.0117,-116.143 47.3763,-115.231 48.1785,-114.903 Z M51.9343,-123.982 C52.7,-123.654 53.6481,-124.019 53.9763,-124.858 C54.3045,-125.66 53.9398,-126.571 53.1376,-126.9 C52.3354,-127.228 51.4238,-126.863 51.0956,-126.024 C50.7675,-125.222 51.1321,-124.311 51.9343,-123.982 Z M44.3863,-105.751 C45.1885,-105.422 46.1001,-105.824 46.4283,-106.589 C46.7564,-107.391 46.3918,-108.303 45.5896,-108.631 C44.7874,-108.959 43.8758,-108.595 43.5476,-107.793 C43.2195,-106.99 43.5841,-106.079 44.3863,-105.751 Z M42.5266,-101.229 C43.2924,-100.901 44.204,-101.302 44.5686,-102.068 C44.8968,-102.87 44.5322,-103.782 43.73,-104.11 C42.9277,-104.438 42.0162,-104.073 41.688,-103.271 C41.3598,-102.469 41.7244,-101.557 42.5266,-101.229 Z M53.8304,-128.504 C54.5962,-128.176 55.5442,-128.577 55.8724,-129.343 C56.2006,-130.145 55.8359,-131.056 55.0337,-131.385 C54.2315,-131.713 53.3199,-131.348 52.9918,-130.546 C52.6636,-129.744 53.0282,-128.832 53.8304,-128.504 Z " fill="#d2b3ab" fill-opacity="1.00" />			<path d="M52.1839,-41.4045 L56.6504,-38.8257 L57.96,-41.0939 L53.4934,-43.6727 L52.1839,-41.4045 Z M49.8623,-52.0503 L45.8842,-54.347 C45.3324,-53.8747 44.7952,-53.3473 44.4124,-52.6843 C44.0297,-52.0213 43.8066,-51.3126 43.7084,-50.5783 L47.6864,-48.2816 C47.6864,-48.2816 49.8623,-52.0503 49.8623,-52.0503 Z M56.737,-49.2908 L61.2036,-46.712 L62.5131,-48.9802 L58.0466,-51.559 L56.737,-49.2908 Z M43.6529,-49.3541 C43.7558,-47.7593 44.5486,-46.2314 45.8732,-45.141 L47.1425,-47.3394 L43.6529,-49.3541 Z M57.5926,-38.2818 L62.0592,-35.703 L63.3687,-37.9712 L58.9021,-40.5499 L57.5926,-38.2818 Z M63.0363,-35.1389 L67.5028,-32.5601 L68.8124,-34.8283 L64.3458,-37.4071 L63.0363,-35.1389 Z M64.8898,-38.3492 L69.3564,-35.7704 L71.5322,-39.5391 L67.0656,-42.1179 L64.8898,-38.3492 Z M46.7751,-44.5273 L51.2417,-41.9485 L52.5512,-44.2167 L48.0846,-46.7954 L46.7751,-44.5273 Z M48.6286,-47.7376 L53.0952,-45.1588 L55.271,-48.9275 L50.8044,-51.5063 L48.6286,-47.7376 Z M68.5055,-32.1208 C70.057,-31.5042 71.8317,-31.5962 73.2642,-32.3045 L69.7747,-34.3192 L68.5055,-32.1208 L68.5055,-32.1208 Z M76.5079,-37.9227 C76.405,-39.5174 75.6121,-41.0453 74.2876,-42.1357 L73.0183,-39.9373 L76.5079,-37.9227 Z M51.3283,-52.4136 L55.7948,-49.8348 L57.1044,-52.103 L52.6378,-54.6818 L51.3283,-52.4136 Z M70.2985,-35.2265 L74.2766,-32.9297 C74.8284,-33.4021 75.3656,-33.9295 75.7483,-34.5925 C76.1311,-35.2555 76.3542,-35.9642 76.4524,-36.6984 L72.4744,-38.9952 L70.2985,-35.2265 Z M67.5894,-43.0252 L72.056,-40.4464 L73.3656,-42.7146 L68.899,-45.2934 L67.5894,-43.0252 Z M51.6553,-55.1559 C50.1038,-55.7726 48.3291,-55.6805 46.8966,-54.9722 L50.3861,-52.9575 C50.3861,-52.9575 51.6553,-55.1559 51.6553,-55.1559 Z M62.1458,-46.1681 L66.6124,-43.5893 L67.9219,-45.8575 L63.4553,-48.4363 L62.1458,-46.1681 Z M54.0374,-44.6149 L58.5039,-42.0361 L60.6798,-45.8048 L56.2132,-48.3835 L54.0374,-44.6149 Z M59.4461,-41.4921 L63.9127,-38.9133 L66.0885,-42.682 L61.622,-45.2608 L59.4461,-41.4921 Z " fill="#ffffff" fill-opacity="1.00" />			<path d="M-135.414,-51.6992 L-135.414,-36.7558 C-135.414,-31.5744 -131.247,-27.4068 -126.103,-27.4068 C-120.959,-27.4068 -116.791,-31.5744 -116.791,-36.7183 L-116.791,-51.6992 C-116.791,-56.8431 -120.959,-61.0107 -126.103,-61.0107 C-131.247,-61.0482 -135.414,-56.8806 -135.414,-51.6992 Z M-119.457,-36.7183 C-119.457,-33.0387 -122.423,-30.0726 -126.103,-30.0726 C-129.782,-30.0726 -132.749,-33.0387 -132.749,-36.7183 C-132.749,-40.3978 -129.782,-43.3264 -126.103,-43.3264 C-122.423,-43.3639 -119.457,-40.3978 -119.457,-36.7183 Z M-119.457,-51.549 C-119.457,-47.8695 -122.423,-44.9033 -126.103,-44.9033 C-129.782,-44.9033 -132.749,-47.8695 -132.749,-51.549 C-132.749,-55.2286 -129.782,-58.1947 -126.103,-58.1947 C-122.423,-58.1947 -119.457,-55.2286 -119.457,-51.549 Z M-126.103,-39.1212 C-127.43,-39.1212 -128.506,-38.0454 -128.506,-36.7183 C-128.506,-35.3911 -127.43,-34.3153 -126.103,-34.3153 C-124.776,-34.3153 -123.7,-35.3911 -123.7,-36.7183 C-123.7,-38.0454 -124.776,-39.1212 -126.103,-39.1212 Z M-126.103,-53.952 C-127.43,-53.952 -128.506,-52.8762 -128.506,-51.549 C-128.506,-50.2219 -127.43,-49.1461 -126.103,-49.1461 C-124.776,-49.1461 -123.7,-50.2219 -123.7,-51.549 C-123.7,-52.8762 -124.776,-53.952 -126.103,-53.952 Z " fill="#ffffff" fill-opacity="1.00" />			<path d="M-126.601,52.7692 C-129.639,51.9666 -132.739,53.7706 -133.541,56.8091 C-134.344,59.8477 -132.54,62.9468 -129.501,63.7494 C-126.463,64.5521 -123.398,62.739 -122.596,59.7004 C-121.793,56.6619 -123.562,53.5719 -126.601,52.7692 Z M-128.589,60.2966 C-129.694,60.0047 -130.38,58.8261 -130.088,57.7212 C-129.796,56.6163 -128.618,55.9303 -127.513,56.2221 C-126.408,56.514 -125.722,57.6925 -126.014,58.7975 C-126.306,59.9024 -127.484,60.5884 -128.589,60.2966 Z M-113.853,60.163 L-115.648,59.6887 C-115.531,58.6854 -115.561,57.6802 -115.669,56.6912 L-113.878,56.2039 C-112.931,55.9739 -112.372,54.9765 -112.636,54.0201 C-112.866,53.0728 -113.864,52.5139 -114.82,52.7784 L-116.611,53.2657 C-116.997,52.351 -117.515,51.5125 -118.11,50.6903 L-116.802,49.3737 C-116.134,48.6636 -116.128,47.5202 -116.803,46.8615 C-117.513,46.1938 -118.657,46.1873 -119.315,46.8628 L-120.623,48.1795 C-121.395,47.6062 -122.255,47.0837 -123.22,46.6811 L-122.745,44.8856 C-122.49,43.9188 -123.049,42.9585 -124.016,42.7031 C-124.983,42.4477 -125.943,43.0067 -126.198,43.9735 L-126.673,45.769 C-127.676,45.6517 -128.681,45.6817 -129.67,45.7898 L-130.157,43.9989 C-130.387,43.0516 -131.385,42.4927 -132.341,42.7572 C-133.288,42.9871 -133.847,43.9846 -133.583,44.941 L-133.096,46.7319 C-133.976,47.1274 -134.849,47.6355 -135.671,48.231 L-136.988,46.9228 C-137.698,46.255 -138.841,46.2485 -139.5,46.9241 C-140.167,47.6342 -140.174,48.7776 -139.498,49.4362 L-138.182,50.7444 C-138.755,51.5164 -139.278,52.3757 -139.68,53.3406 L-141.476,52.8663 C-142.442,52.6109 -143.403,53.1699 -143.658,54.1367 C-143.914,55.1035 -143.355,56.0638 -142.388,56.3192 L-140.592,56.7935 C-140.71,57.7968 -140.68,58.802 -140.571,59.791 L-142.362,60.2783 C-143.31,60.5083 -143.869,61.5057 -143.604,62.4621 C-143.439,63.0967 -142.934,63.5625 -142.347,63.7175 C-142.071,63.7905 -141.742,63.8035 -141.429,63.7384 L-139.638,63.2511 C-139.252,64.1657 -138.735,65.0042 -138.139,65.8264 L-139.448,67.1431 C-140.115,67.8532 -140.122,68.9965 -139.446,69.6552 C-139.207,69.8663 -138.949,70.0083 -138.638,70.0904 C-138.051,70.2454 -137.382,70.0897 -136.925,69.6194 L-135.617,68.3027 C-134.845,68.876 -133.985,69.3985 -133.021,69.8011 L-133.495,71.5966 C-133.75,72.5634 -133.191,73.5237 -132.225,73.7791 C-131.258,74.0345 -130.297,73.4755 -130.042,72.5087 L-129.568,70.7132 C-128.564,70.8305 -127.559,70.8005 -126.57,70.6924 L-126.083,72.4833 C-125.918,73.1179 -125.413,73.5837 -124.826,73.7387 C-124.55,73.8117 -124.221,73.8247 -123.908,73.7596 C-122.961,73.5296 -122.402,72.5322 -122.667,71.5758 L-123.154,69.7848 C-122.239,69.3985 -121.401,68.8812 -120.578,68.2858 L-119.262,69.594 C-119.022,69.805 -118.764,69.9471 -118.453,70.0291 C-117.866,70.1842 -117.197,70.0285 -116.741,69.5581 C-116.073,68.848 -116.066,67.7046 -116.742,67.046 L-118.059,65.7378 C-117.485,64.9658 -116.963,64.1065 -116.56,63.1416 L-114.765,63.6159 C-113.798,63.8713 -112.837,63.3123 -112.582,62.3455 C-112.327,61.3787 -112.886,60.4184 -113.853,60.163 Z M-130.34,66.9261 C-135.105,65.6674 -137.986,60.7695 -136.718,55.97 C-135.45,51.1705 -130.561,48.3248 -125.762,49.5926 C-120.962,50.8604 -118.117,55.7492 -119.384,60.5487 C-120.652,65.3482 -125.575,68.1848 -130.34,66.9261 Z " fill="#21426f" fill-opacity="1.00" />			<path d="M67.7203,136.678 L68.8072,135.591 C69.0859,135.312 69.5318,135.312 69.8105,135.591 L73.489,139.27 C73.7677,139.548 74.2136,139.548 74.4923,139.27 L75.8021,137.96 C76.0808,137.681 76.5267,137.681 76.8053,137.96 L78.3659,139.52 C78.6446,139.799 79.0905,139.799 79.3692,139.52 L91.2688,127.621 C91.5475,127.342 91.5475,126.896 91.2688,126.617 L89.7082,125.057 C89.4296,124.778 89.4296,124.332 89.7082,124.054 L91.018,122.744 C91.2967,122.465 91.2967,122.019 91.018,121.741 L87.3395,118.062 C87.0608,117.783 87.0608,117.337 87.3395,117.059 L88.4263,115.972 L88.5935,115.805 C88.8722,115.526 88.8722,115.08 88.5935,114.801 L81.4872,107.695 C81.2085,107.416 80.7626,107.416 80.4839,107.695 L80.3167,107.862 L79.2299,108.949 C78.9512,109.228 78.5053,109.228 78.2266,108.949 L74.548,105.27 C74.2693,104.992 73.8235,104.992 73.5448,105.27 L57.0469,121.768 C56.7682,122.047 56.7682,122.493 57.0469,122.772 L60.7255,126.45 C61.0042,126.729 61.0042,127.175 60.7255,127.453 L59.6386,128.54 L59.4714,128.708 C59.1927,128.986 59.1927,129.432 59.4714,129.711 L66.5778,136.817 C66.8564,137.096 67.3023,137.096 67.581,136.817 L67.7203,136.678 Z " fill="#fbdd8f" fill-opacity="1.00" />			<path d="M115.45,-57.5366 L120.95,-63.0364 L118.733,-65.2541 L118.733,-72.528 L114.297,-76.9634 L120.906,-83.6164 L118.733,-85.7897 L118.733,-91.733 C115.184,-91.0677 112.523,-88.0073 112.523,-84.326 L112.523,-59.4438 C112.523,-55.7181 115.229,-52.6134 118.777,-51.9924 L118.777,-54.2101 L115.45,-57.5366 Z M124.853,-83.6164 L118.2,-76.9634 L121.482,-73.6812 L121.482,-66.4073 L124.898,-62.992 L119.398,-57.4922 L121.527,-55.3633 L121.527,-52.0368 C125.031,-52.7464 127.603,-55.7625 127.603,-59.3994 L127.603,-84.326 C127.603,-88.0073 124.942,-91.0677 121.438,-91.7774 L121.438,-87.0316 L124.853,-83.6164 Z " fill="#fbdd8f" fill-opacity="1.00" />		</g>	</svg>