<?xml version="1.0" encoding="utf-8" ?>	<!-- Generator: Assembly 2.4 - http://assemblyapp.co -->	<svg version="1.1" xmlns="http://www.w3.org/2000/svg" xmlns:xlink="http://www.w3.org/1999/xlink" width="4096.00" height="2341.00" viewBox="0 0 4096.0 2341.0">		<g id="document" transform="scale(13.653333333333334 13.653333333333334) translate(150.22610385059366 85.71428571428571)">			<path d="M-100.863,16.2649 C-100.161,16.3168 -99.4411,16.0763 -98.9043,15.5395 C-98.3674,15.0027 -98.127,14.283 -98.1789,13.581 C-98.8809,13.5291 -99.6006,13.7696 -100.137,14.3064 C-100.674,14.8432 -100.915,15.5629 -100.863,16.2649 Z M-97.7165,13.1186 C-97.0145,13.1705 -96.2948,12.9301 -95.758,12.3932 C-95.2212,11.8564 -94.9807,11.1368 -95.0326,10.4347 C-95.7347,10.3829 -96.4543,10.6233 -96.9911,11.1601 C-97.5279,11.6969 -97.7684,12.4166 -97.7165,13.1186 Z M-100.863,10.4347 C-100.915,11.1367 -100.674,11.8564 -100.137,12.3932 C-99.6006,12.93 -98.8809,13.1705 -98.1789,13.1186 C-98.127,12.4166 -98.3674,11.6969 -98.9043,11.1601 C-99.4411,10.6233 -100.161,10.3828 -100.863,10.4347 Z M-97.7164,13.581 C-97.7684,14.283 -97.5279,15.0027 -96.9911,15.5395 C-96.4543,16.0763 -95.7347,16.3167 -95.0326,16.2649 C-94.9807,15.5628 -95.2212,14.8432 -95.758,14.3064 C-96.2948,13.7696 -97.0144,13.5291 -97.7164,13.581 Z M-91.6712,25.4564 C-90.9691,25.5084 -90.2495,25.2679 -89.7127,24.7311 C-89.1758,24.1942 -88.9354,23.4746 -88.9873,22.7726 C-89.6893,22.7207 -90.409,22.9612 -90.9458,23.498 C-91.4826,24.0348 -91.7231,24.7544 -91.6712,25.4564 Z M-88.5249,22.3102 C-87.8229,22.3621 -87.1032,22.1216 -86.5664,21.5848 C-86.0296,21.048 -85.7891,20.3284 -85.841,19.6263 C-86.5431,19.5744 -87.2627,19.8149 -87.7995,20.3517 C-88.3363,20.8885 -88.5768,21.6082 -88.5249,22.3102 Z M-91.6712,19.6263 C-91.723,20.3284 -91.4826,21.048 -90.9458,21.5848 C-90.409,22.1216 -89.6893,22.3621 -88.9873,22.3102 C-88.9354,21.6082 -89.1758,20.8885 -89.7127,20.3517 C-90.2495,19.8149 -90.9691,19.5744 -91.6712,19.6263 Z M-88.5249,22.7726 C-88.5768,23.4746 -88.3363,24.1942 -87.7995,24.7311 C-87.2627,25.2679 -86.543,25.5083 -85.841,25.4564 C-85.7891,24.7544 -86.0296,24.0348 -86.5664,23.498 C-87.1032,22.9612 -87.8228,22.7207 -88.5249,22.7726 Z M-82.5105,16.4892 C-81.8085,16.5411 -81.0888,16.3006 -80.552,15.7638 C-80.0152,15.227 -79.7748,14.5073 -79.8267,13.8053 C-80.5287,13.7534 -81.2483,13.9939 -81.7852,14.5307 C-82.3219,15.0675 -82.5624,15.7872 -82.5105,16.4892 Z M-79.3643,13.3429 C-78.6622,13.3948 -77.9426,13.1544 -77.4058,12.6175 C-76.869,12.0807 -76.6285,11.3611 -76.6804,10.659 C-77.3824,10.6072 -78.102,10.8476 -78.6389,11.3844 C-79.1757,11.9212 -79.4162,12.6409 -79.3643,13.3429 Z M-82.5105,10.659 C-82.5624,11.3611 -82.3219,12.0807 -81.7852,12.6175 C-81.2483,13.1543 -80.5287,13.3948 -79.8266,13.3429 C-79.7747,12.6409 -80.0152,11.9212 -80.552,11.3844 C-81.0888,10.8476 -81.8085,10.6071 -82.5105,10.659 Z M-79.3642,13.8053 C-79.4162,14.5073 -79.1757,15.227 -78.6389,15.7638 C-78.102,16.3006 -77.3824,16.541 -76.6804,16.4892 C-76.6285,15.7871 -76.869,15.0675 -77.4058,14.5307 C-77.9426,13.9939 -78.6622,13.7534 -79.3642,13.8053 Z M-73.2989,25.4564 C-72.5969,25.5084 -71.8772,25.2679 -71.3404,24.7311 C-70.8036,24.1942 -70.5632,23.4746 -70.615,22.7726 C-71.3171,22.7207 -72.0367,22.9612 -72.5735,23.498 C-73.1103,24.0348 -73.3508,24.7544 -73.2989,25.4564 Z M-70.1526,22.3102 C-69.4506,22.3621 -68.731,22.1216 -68.1941,21.5848 C-67.6573,21.048 -67.4169,20.3284 -67.4688,19.6263 C-68.1708,19.5744 -68.8904,19.8149 -69.4273,20.3517 C-69.9641,20.8885 -70.2045,21.6082 -70.1526,22.3102 Z M-73.2989,19.6263 C-73.3508,20.3284 -73.1103,21.048 -72.5735,21.5848 C-72.0367,22.1216 -71.3171,22.3621 -70.615,22.3102 C-70.5631,21.6082 -70.8036,20.8885 -71.3404,20.3517 C-71.8772,19.8149 -72.5969,19.5744 -73.2989,19.6263 Z M-70.1526,22.7726 C-70.2045,23.4746 -69.9641,24.1942 -69.4273,24.7311 C-68.8904,25.2679 -68.1708,25.5083 -67.4688,25.4564 C-67.4169,24.7544 -67.6573,24.0348 -68.1941,23.498 C-68.731,22.9612 -69.4506,22.7207 -70.1526,22.7726 Z M-64.1383,16.4892 C-63.4362,16.5411 -62.7166,16.3006 -62.1798,15.7638 C-61.6429,15.227 -61.4025,14.5073 -61.4544,13.8053 C-62.1564,13.7534 -62.8761,13.9939 -63.4129,14.5307 C-63.9497,15.0675 -64.1902,15.7872 -64.1383,16.4892 Z M-60.992,13.3429 C-60.29,13.3948 -59.5704,13.1544 -59.0335,12.6175 C-58.4967,12.0807 -58.2562,11.3611 -58.3081,10.659 C-59.0102,10.6072 -59.7298,10.8476 -60.2666,11.3844 C-60.8034,11.9212 -61.0439,12.6409 -60.992,13.3429 Z M-64.1383,10.659 C-64.1901,11.3611 -63.9497,12.0807 -63.4129,12.6175 C-62.8761,13.1543 -62.1564,13.3948 -61.4544,13.3429 C-61.4025,12.6409 -61.6429,11.9212 -62.1798,11.3844 C-62.7166,10.8476 -63.4362,10.6071 -64.1383,10.659 Z M-60.992,13.8053 C-61.0439,14.5073 -60.8034,15.227 -60.2666,15.7638 C-59.7298,16.3006 -59.0101,16.541 -58.3081,16.4892 C-58.2562,15.7871 -58.4967,15.0675 -59.0335,14.5307 C-59.5704,13.9939 -60.2899,13.7534 -60.992,13.8053 Z M-54.9266,25.4564 C-54.2246,25.5084 -53.505,25.2679 -52.9682,24.7311 C-52.4313,24.1942 -52.1909,23.4746 -52.2428,22.7726 C-52.9448,22.7207 -53.6645,22.9612 -54.2013,23.498 C-54.7381,24.0348 -54.9786,24.7544 -54.9266,25.4564 Z M-51.7804,22.3102 C-51.0784,22.3621 -50.3587,22.1216 -49.8219,21.5848 C-49.2851,21.048 -49.0446,20.3284 -49.0965,19.6263 C-49.7986,19.5744 -50.5182,19.8149 -51.055,20.3517 C-51.5918,20.8885 -51.8323,21.6082 -51.7804,22.3102 Z M-54.9266,19.6263 C-54.9785,20.3284 -54.7381,21.048 -54.2013,21.5848 C-53.6645,22.1216 -52.9448,22.3621 -52.2428,22.3102 C-52.1909,21.6082 -52.4313,20.8885 -52.9682,20.3517 C-53.505,19.8149 -54.2246,19.5744 -54.9266,19.6263 Z M-51.7804,22.7726 C-51.8323,23.4746 -51.5918,24.1942 -51.055,24.7311 C-50.5182,25.2679 -49.7985,25.5083 -49.0965,25.4564 C-49.0446,24.7544 -49.2851,24.0348 -49.8219,23.498 C-50.3587,22.9612 -51.0783,22.7207 -51.7804,22.7726 Z M-98.1789,-4.87113 C-98.8809,-4.92302 -99.6006,-4.68257 -100.137,-4.14572 C-100.674,-3.6089 -100.915,-2.88928 -100.863,-2.18729 C-100.161,-2.13534 -99.4411,-2.37582 -98.9043,-2.91263 C-98.3674,-3.44945 -98.127,-4.16911 -98.1789,-4.87113 Z M-97.7165,-5.33352 C-97.0145,-5.28163 -96.2948,-5.52208 -95.758,-6.0589 C-95.2212,-6.59571 -94.9807,-7.31534 -95.0326,-8.01736 C-95.7347,-8.06928 -96.4543,-7.8288 -96.9911,-7.29202 C-97.5279,-6.7552 -97.7684,-6.03558 -97.7165,-5.33352 Z M-100.863,-8.01736 C-100.915,-7.31537 -100.674,-6.59571 -100.137,-6.0589 C-99.6006,-5.52208 -98.8809,-5.28163 -98.1789,-5.33352 C-98.127,-6.03558 -98.3674,-6.7552 -98.9043,-7.29202 C-99.4411,-7.82883 -100.161,-8.06931 -100.863,-8.01736 Z M-97.7164,-4.87113 C-97.7684,-4.16911 -97.5279,-3.44945 -96.9911,-2.91263 C-96.4543,-2.37582 -95.7347,-2.13537 -95.0326,-2.18729 C-94.9807,-2.88931 -95.2212,-3.60894 -95.758,-4.14575 C-96.2948,-4.68257 -97.0144,-4.92302 -97.7164,-4.87113 Z M-88.9873,4.32045 C-89.6893,4.26857 -90.409,4.50901 -90.9458,5.04586 C-91.4826,5.58268 -91.7231,6.3023 -91.6712,7.0043 C-90.9691,7.05625 -90.2495,6.81577 -89.7127,6.27899 C-89.1758,5.74214 -88.9354,5.02251 -88.9873,4.32045 Z M-88.5249,3.85807 C-87.8229,3.90995 -87.1032,3.66954 -86.5664,3.13269 C-86.0296,2.59587 -85.7891,1.87625 -85.841,1.17422 C-86.5431,1.1223 -87.2627,1.36278 -87.7995,1.89957 C-88.3363,2.43638 -88.5768,3.15604 -88.5249,3.85807 Z M-91.6712,1.17422 C-91.723,1.87621 -91.4826,2.59587 -90.9458,3.13269 C-90.409,3.6695 -89.6893,3.90995 -88.9873,3.85807 C-88.9354,3.15604 -89.1758,2.43638 -89.7127,1.89957 C-90.2495,1.36275 -90.9691,1.12227 -91.6712,1.17422 Z M-88.5249,4.32045 C-88.5768,5.02251 -88.3363,5.74214 -87.7995,6.27895 C-87.2627,6.81577 -86.543,7.05621 -85.841,7.0043 C-85.7891,6.30227 -86.0296,5.58265 -86.5664,5.04583 C-87.1032,4.50901 -87.8228,4.26857 -88.5249,4.32045 Z M-79.8267,-4.64684 C-80.5287,-4.69872 -81.2483,-4.45827 -81.7852,-3.92142 C-82.3219,-3.38461 -82.5624,-2.66498 -82.5105,-1.96299 C-81.8085,-1.91104 -81.0888,-2.15152 -80.552,-2.6883 C-80.0152,-3.22515 -79.7748,-3.94478 -79.8267,-4.64684 Z M-79.3643,-5.10922 C-78.6622,-5.05734 -77.9426,-5.29775 -77.4058,-5.8346 C-76.869,-6.37142 -76.6285,-7.09104 -76.6804,-7.79307 C-77.3824,-7.84498 -78.102,-7.6045 -78.6389,-7.06772 C-79.1757,-6.53091 -79.4162,-5.81125 -79.3643,-5.10922 Z M-82.5105,-7.79307 C-82.5624,-7.09107 -82.3219,-6.37142 -81.7852,-5.8346 C-81.2483,-5.29778 -80.5287,-5.05734 -79.8266,-5.10922 C-79.7747,-5.81125 -80.0152,-6.53091 -80.552,-7.06772 C-81.0888,-7.60454 -81.8085,-7.84502 -82.5105,-7.79307 Z M-79.3642,-4.64684 C-79.4162,-3.94478 -79.1757,-3.22515 -78.6389,-2.68834 C-78.102,-2.15152 -77.3824,-1.91107 -76.6804,-1.96299 C-76.6285,-2.66502 -76.869,-3.38464 -77.4058,-3.92146 C-77.9426,-4.45827 -78.6622,-4.69872 -79.3642,-4.64684 Z M-70.615,4.32045 C-71.3171,4.26857 -72.0367,4.50901 -72.5735,5.04586 C-73.1103,5.58268 -73.3508,6.3023 -73.2989,7.0043 C-72.5969,7.05625 -71.8772,6.81577 -71.3404,6.27899 C-70.8036,5.74214 -70.5632,5.02251 -70.615,4.32045 Z M-70.1526,3.85807 C-69.4506,3.90995 -68.731,3.66954 -68.1941,3.13269 C-67.6573,2.59587 -67.4169,1.87625 -67.4688,1.17422 C-68.1708,1.1223 -68.8904,1.36278 -69.4273,1.89957 C-69.9641,2.43638 -70.2045,3.15604 -70.1526,3.85807 Z M-73.2989,1.17422 C-73.3508,1.87621 -73.1103,2.59587 -72.5735,3.13269 C-72.0367,3.6695 -71.3171,3.90995 -70.615,3.85807 C-70.5631,3.15604 -70.8036,2.43638 -71.3404,1.89957 C-71.8772,1.36275 -72.5969,1.12227 -73.2989,1.17422 Z M-70.1526,4.32045 C-70.2045,5.02251 -69.9641,5.74214 -69.4273,6.27895 C-68.8904,6.81577 -68.1708,7.05621 -67.4688,7.0043 C-67.4169,6.30227 -67.6573,5.58265 -68.1941,5.04583 C-68.731,4.50901 -69.4506,4.26857 -70.1526,4.32045 Z M-61.4544,-4.64684 C-62.1564,-4.69872 -62.8761,-4.45827 -63.4129,-3.92142 C-63.9497,-3.38461 -64.1902,-2.66498 -64.1383,-1.96299 C-63.4362,-1.91104 -62.7166,-2.15152 -62.1798,-2.6883 C-61.6429,-3.22515 -61.4025,-3.94478 -61.4544,-4.64684 Z M-60.992,-5.10922 C-60.29,-5.05734 -59.5704,-5.29775 -59.0335,-5.8346 C-58.4967,-6.37142 -58.2562,-7.09104 -58.3081,-7.79307 C-59.0102,-7.84498 -59.7298,-7.6045 -60.2666,-7.06772 C-60.8034,-6.53091 -61.0439,-5.81125 -60.992,-5.10922 Z M-64.1383,-7.79307 C-64.1901,-7.09107 -63.9497,-6.37142 -63.4129,-5.8346 C-62.8761,-5.29778 -62.1564,-5.05734 -61.4544,-5.10922 C-61.4025,-5.81125 -61.6429,-6.53091 -62.1798,-7.06772 C-62.7166,-7.60454 -63.4362,-7.84502 -64.1383,-7.79307 Z M-60.992,-4.64684 C-61.0439,-3.94478 -60.8034,-3.22515 -60.2666,-2.68834 C-59.7298,-2.15152 -59.0101,-1.91107 -58.3081,-1.96299 C-58.2562,-2.66502 -58.4967,-3.38464 -59.0335,-3.92146 C-59.5704,-4.45827 -60.2899,-4.69872 -60.992,-4.64684 Z M-54.9266,7.0043 C-54.2246,7.05625 -53.505,6.81577 -52.9682,6.27899 C-52.4313,5.74214 -52.1909,5.02251 -52.2428,4.32045 C-52.9448,4.26857 -53.6645,4.50901 -54.2013,5.04586 C-54.7381,5.58268 -54.9786,6.3023 -54.9266,7.0043 Z M-51.7804,3.85807 C-51.0784,3.90995 -50.3587,3.66954 -49.8219,3.13269 C-49.2851,2.59587 -49.0446,1.87625 -49.0965,1.17422 C-49.7986,1.1223 -50.5182,1.36278 -51.055,1.89957 C-51.5918,2.43638 -51.8323,3.15604 -51.7804,3.85807 Z M-54.9266,1.17422 C-54.9785,1.87621 -54.7381,2.59587 -54.2013,3.13269 C-53.6645,3.6695 -52.9448,3.90995 -52.2428,3.85807 C-52.1909,3.15604 -52.4313,2.43638 -52.9682,1.89957 C-53.505,1.36275 -54.2246,1.12227 -54.9266,1.17422 Z M-51.7804,4.32045 C-51.8323,5.02251 -51.5918,5.74214 -51.055,6.27895 C-50.5182,6.81577 -49.7985,7.05621 -49.0965,7.0043 C-49.0446,6.30227 -49.2851,5.58265 -49.8219,5.04583 C-50.3587,4.50901 -51.0783,4.26857 -51.7804,4.32045 Z M-98.1789,-23.2438 C-98.8809,-23.2957 -99.6006,-23.0552 -100.137,-22.5184 C-100.674,-21.9815 -100.915,-21.2619 -100.863,-20.5599 C-100.161,-20.508 -99.4411,-20.7485 -98.9043,-21.2853 C-98.3674,-21.8221 -98.127,-22.5417 -98.1789,-23.2438 Z M-97.7165,-23.7062 C-97.0145,-23.6543 -96.2948,-23.8947 -95.758,-24.4315 C-95.2212,-24.9683 -94.9807,-25.688 -95.0326,-26.39 C-95.7347,-26.4419 -96.4543,-26.2014 -96.9911,-25.6647 C-97.5279,-25.1278 -97.7684,-24.4082 -97.7165,-23.7062 Z M-100.863,-26.39 C-100.915,-25.688 -100.674,-24.9683 -100.137,-24.4315 C-99.6006,-23.8947 -98.8809,-23.6543 -98.1789,-23.7062 C-98.127,-24.4082 -98.3674,-25.1278 -98.9043,-25.6647 C-99.4411,-26.2015 -100.161,-26.4419 -100.863,-26.39 Z M-97.7164,-23.2438 C-97.7684,-22.5417 -97.5279,-21.8221 -96.9911,-21.2853 C-96.4543,-20.7485 -95.7347,-20.508 -95.0326,-20.5599 C-94.9807,-21.2619 -95.2212,-21.9816 -95.758,-22.5184 C-96.2948,-23.0552 -97.0144,-23.2957 -97.7164,-23.2438 Z M-88.9873,-14.0522 C-89.6893,-14.1041 -90.409,-13.8636 -90.9458,-13.3268 C-91.4826,-12.79 -91.7231,-12.0703 -91.6712,-11.3683 C-90.9691,-11.3164 -90.2495,-11.5569 -89.7127,-12.0937 C-89.1758,-12.6305 -88.9354,-13.3502 -88.9873,-14.0522 Z M-88.5249,-14.5146 C-87.8229,-14.4627 -87.1032,-14.7031 -86.5664,-15.2399 C-86.0296,-15.7768 -85.7891,-16.4964 -85.841,-17.1984 C-86.5431,-17.2503 -87.2627,-17.0099 -87.7995,-16.4731 C-88.3363,-15.9363 -88.5768,-15.2166 -88.5249,-14.5146 Z M-91.6712,-17.1984 C-91.723,-16.4964 -91.4826,-15.7768 -90.9458,-15.2399 C-90.409,-14.7031 -89.6893,-14.4627 -88.9873,-14.5146 C-88.9354,-15.2166 -89.1758,-15.9363 -89.7127,-16.4731 C-90.2495,-17.0099 -90.9691,-17.2504 -91.6712,-17.1984 Z M-88.5249,-14.0522 C-88.5768,-13.3502 -88.3363,-12.6305 -87.7995,-12.0937 C-87.2627,-11.5569 -86.543,-11.3164 -85.841,-11.3683 C-85.7891,-12.0704 -86.0296,-12.79 -86.5664,-13.3268 C-87.1032,-13.8636 -87.8228,-14.1041 -88.5249,-14.0522 Z M-79.8267,-23.0195 C-80.5287,-23.0714 -81.2483,-22.8309 -81.7852,-22.2941 C-82.3219,-21.7572 -82.5624,-21.0376 -82.5105,-20.3356 C-81.8085,-20.2837 -81.0888,-20.5242 -80.552,-21.061 C-80.0152,-21.5978 -79.7748,-22.3174 -79.8267,-23.0195 Z M-79.3643,-23.4819 C-78.6622,-23.43 -77.9426,-23.6704 -77.4058,-24.2072 C-76.869,-24.7441 -76.6285,-25.4637 -76.6804,-26.1657 C-77.3824,-26.2176 -78.102,-25.9771 -78.6389,-25.4404 C-79.1757,-24.9035 -79.4162,-24.1839 -79.3643,-23.4819 Z M-82.5105,-26.1657 C-82.5624,-25.4637 -82.3219,-24.7441 -81.7852,-24.2072 C-81.2483,-23.6704 -80.5287,-23.43 -79.8266,-23.4819 C-79.7747,-24.1839 -80.0152,-24.9035 -80.552,-25.4404 C-81.0888,-25.9772 -81.8085,-26.2177 -82.5105,-26.1657 Z M-79.3642,-23.0195 C-79.4162,-22.3174 -79.1757,-21.5978 -78.6389,-21.061 C-78.102,-20.5242 -77.3824,-20.2837 -76.6804,-20.3356 C-76.6285,-21.0377 -76.869,-21.7573 -77.4058,-22.2941 C-77.9426,-22.8309 -78.6622,-23.0714 -79.3642,-23.0195 Z M-70.615,-14.0522 C-71.3171,-14.1041 -72.0367,-13.8636 -72.5735,-13.3268 C-73.1103,-12.79 -73.3508,-12.0703 -73.2989,-11.3683 C-72.5969,-11.3164 -71.8772,-11.5569 -71.3404,-12.0937 C-70.8036,-12.6305 -70.5632,-13.3502 -70.615,-14.0522 Z M-70.1526,-14.5146 C-69.4506,-14.4627 -68.731,-14.7031 -68.1941,-15.2399 C-67.6573,-15.7768 -67.4169,-16.4964 -67.4688,-17.1984 C-68.1708,-17.2503 -68.8904,-17.0099 -69.4273,-16.4731 C-69.9641,-15.9363 -70.2045,-15.2166 -70.1526,-14.5146 Z M-73.2989,-17.1984 C-73.3508,-16.4964 -73.1103,-15.7768 -72.5735,-15.2399 C-72.0367,-14.7031 -71.3171,-14.4627 -70.615,-14.5146 C-70.5631,-15.2166 -70.8036,-15.9363 -71.3404,-16.4731 C-71.8772,-17.0099 -72.5969,-17.2504 -73.2989,-17.1984 Z M-70.1526,-14.0522 C-70.2045,-13.3502 -69.9641,-12.6305 -69.4273,-12.0937 C-68.8904,-11.5569 -68.1708,-11.3164 -67.4688,-11.3683 C-67.4169,-12.0704 -67.6573,-12.79 -68.1941,-13.3268 C-68.731,-13.8636 -69.4506,-14.1041 -70.1526,-14.0522 Z M-61.4544,-23.0195 C-62.1564,-23.0714 -62.8761,-22.8309 -63.4129,-22.2941 C-63.9497,-21.7572 -64.1902,-21.0376 -64.1383,-20.3356 C-63.4362,-20.2837 -62.7166,-20.5242 -62.1798,-21.061 C-61.6429,-21.5978 -61.4025,-22.3174 -61.4544,-23.0195 Z M-60.992,-23.4819 C-60.29,-23.43 -59.5704,-23.6704 -59.0335,-24.2072 C-58.4967,-24.7441 -58.2562,-25.4637 -58.3081,-26.1657 C-59.0102,-26.2176 -59.7298,-25.9771 -60.2666,-25.4404 C-60.8034,-24.9035 -61.0439,-24.1839 -60.992,-23.4819 Z M-64.1383,-26.1657 C-64.1901,-25.4637 -63.9497,-24.7441 -63.4129,-24.2072 C-62.8761,-23.6704 -62.1564,-23.43 -61.4544,-23.4819 C-61.4025,-24.1839 -61.6429,-24.9035 -62.1798,-25.4404 C-62.7166,-25.9772 -63.4362,-26.2177 -64.1383,-26.1657 Z M-60.992,-23.0195 C-61.0439,-22.3174 -60.8034,-21.5978 -60.2666,-21.061 C-59.7298,-20.5242 -59.0101,-20.2837 -58.3081,-20.3356 C-58.2562,-21.0377 -58.4967,-21.7573 -59.0335,-22.2941 C-59.5704,-22.8309 -60.2899,-23.0714 -60.992,-23.0195 Z M-54.9266,-11.3683 C-54.2246,-11.3164 -53.505,-11.5569 -52.9682,-12.0937 C-52.4313,-12.6305 -52.1909,-13.3502 -52.2428,-14.0522 C-52.9448,-14.1041 -53.6645,-13.8636 -54.2013,-13.3268 C-54.7381,-12.79 -54.9786,-12.0703 -54.9266,-11.3683 Z M-49.0965,-17.1984 C-49.7986,-17.2503 -50.5182,-17.0099 -51.055,-16.4731 C-51.5918,-15.9363 -51.8323,-15.2166 -51.7804,-14.5146 C-51.0784,-14.4627 -50.3587,-14.7031 -49.8219,-15.2399 C-49.2851,-15.7768 -49.0446,-16.4964 -49.0965,-17.1984 Z M-54.9266,-17.1984 C-54.9785,-16.4964 -54.7381,-15.7768 -54.2013,-15.2399 C-53.6645,-14.7031 -52.9448,-14.4627 -52.2428,-14.5146 C-52.1909,-15.2166 -52.4313,-15.9363 -52.9682,-16.4731 C-53.505,-17.0099 -54.2246,-17.2504 -54.9266,-17.1984 Z M-51.7804,-14.0522 C-51.8323,-13.3502 -51.5918,-12.6305 -51.055,-12.0937 C-50.5182,-11.5569 -49.7985,-11.3164 -49.0965,-11.3683 C-49.0446,-12.0704 -49.2851,-12.79 -49.8219,-13.3268 C-50.3587,-13.8636 -51.0783,-14.1041 -51.7804,-14.0522 Z " fill="#fce29b" fill-opacity="0.19" />			<path d="M49.0965,17.0715 C49.7985,17.1234 50.5182,16.8829 51.055,16.3461 C51.5918,15.8093 51.8322,15.0897 51.7804,14.3876 C51.0783,14.3357 50.3587,14.5762 49.8219,15.113 C49.2851,15.6498 49.0446,16.3695 49.0965,17.0715 Z M52.2428,13.9252 C52.9448,13.9771 53.6644,13.7367 54.2013,13.1998 C54.7381,12.6631 54.9785,11.9434 54.9267,11.2414 C54.2246,11.1895 53.505,11.4299 52.9681,11.9667 C52.4313,12.5036 52.1909,13.2232 52.2428,13.9252 Z M49.0965,11.2414 C49.0446,11.9434 49.2851,12.6631 49.8219,13.1998 C50.3587,13.7366 51.0783,13.9771 51.7804,13.9252 C51.8323,13.2232 51.5918,12.5036 51.055,11.9667 C50.5182,11.4299 49.7985,11.1894 49.0965,11.2414 Z M52.2428,14.3876 C52.1909,15.0897 52.4313,15.8093 52.9681,16.3461 C53.505,16.8829 54.2246,17.1234 54.9267,17.0715 C54.9785,16.3694 54.7381,15.6498 54.2013,15.113 C53.6644,14.5762 52.9448,14.3357 52.2428,14.3876 Z M58.2881,26.2631 C58.9901,26.315 59.7098,26.0745 60.2466,25.5377 C60.7834,25.0009 61.0239,24.2812 60.9719,23.5792 C60.2699,23.5273 59.5503,23.7678 59.0135,24.3046 C58.4767,24.8414 58.2362,25.5611 58.2881,26.2631 Z M61.4344,23.1168 C62.1364,23.1687 62.856,22.9283 63.3929,22.3915 C63.9297,21.8546 64.1701,21.135 64.1182,20.433 C63.4162,20.3811 62.6966,20.6215 62.1597,21.1583 C61.6229,21.6951 61.3824,22.4148 61.4344,23.1168 Z M58.2881,20.433 C58.2362,21.135 58.4767,21.8546 59.0135,22.3915 C59.5503,22.9282 60.2699,23.1687 60.972,23.1168 C61.0239,22.4148 60.7834,21.6951 60.2466,21.1583 C59.7098,20.6215 58.9901,20.381 58.2881,20.433 Z M61.4344,23.5792 C61.3824,24.2812 61.6229,25.0009 62.1597,25.5377 C62.6966,26.0745 63.4162,26.3149 64.1182,26.2631 C64.1701,25.561 63.9297,24.8414 63.3929,24.3046 C62.856,23.7678 62.1364,23.5273 61.4344,23.5792 Z M67.4488,17.2958 C68.1508,17.3477 68.8704,17.1072 69.4072,16.5704 C69.9441,16.0336 70.1845,15.314 70.1326,14.6119 C69.4305,14.56 68.7109,14.8005 68.1741,15.3373 C67.6373,15.8741 67.3968,16.5938 67.4488,17.2958 Z M70.595,14.1495 C71.297,14.2014 72.0167,13.961 72.5535,13.4242 C73.0903,12.8873 73.3308,12.1677 73.2789,11.4657 C72.5768,11.4138 71.8572,11.6542 71.3204,12.191 C70.7836,12.7279 70.5431,13.4475 70.595,14.1495 Z M67.4488,11.4657 C67.3968,12.1677 67.6373,12.8873 68.1741,13.4242 C68.7109,13.9609 69.4305,14.2014 70.1326,14.1495 C70.1845,13.4475 69.9441,12.7279 69.4072,12.191 C68.8704,11.6542 68.1508,11.4137 67.4488,11.4657 Z M70.595,14.6119 C70.5431,15.314 70.7836,16.0336 71.3204,16.5704 C71.8572,17.1072 72.5768,17.3477 73.2789,17.2958 C73.3308,16.5937 73.0903,15.8741 72.5535,15.3373 C72.0167,14.8005 71.2971,14.56 70.595,14.6119 Z M76.6604,26.2631 C77.3624,26.315 78.082,26.0745 78.6188,25.5377 C79.1557,25.0009 79.3961,24.2812 79.3442,23.5792 C78.6422,23.5273 77.9225,23.7678 77.3857,24.3046 C76.8489,24.8414 76.6084,25.5611 76.6604,26.2631 Z M79.8066,23.1168 C80.5087,23.1687 81.2283,22.9283 81.7651,22.3915 C82.3019,21.8546 82.5424,21.135 82.4905,20.433 C81.7884,20.3811 81.0688,20.6215 80.532,21.1583 C79.9952,21.6951 79.7547,22.4148 79.8066,23.1168 Z M76.6604,20.433 C76.6084,21.135 76.8489,21.8546 77.3857,22.3915 C77.9225,22.9282 78.6422,23.1687 79.3442,23.1168 C79.3961,22.4148 79.1557,21.6951 78.6188,21.1583 C78.082,20.6215 77.3624,20.381 76.6604,20.433 Z M79.8067,23.5792 C79.7547,24.2812 79.9952,25.0009 80.532,25.5377 C81.0688,26.0745 81.7885,26.3149 82.4905,26.2631 C82.5424,25.561 82.3019,24.8414 81.7651,24.3046 C81.2283,23.7678 80.5087,23.5273 79.8067,23.5792 Z M85.821,17.2958 C86.523,17.3477 87.2427,17.1072 87.7795,16.5704 C88.3163,16.0336 88.5568,15.314 88.5048,14.6119 C87.8028,14.56 87.0832,14.8005 86.5464,15.3373 C86.0096,15.8741 85.7691,16.5938 85.821,17.2958 Z M88.9673,14.1495 C89.6693,14.2014 90.3889,13.961 90.9258,13.4242 C91.4626,12.8873 91.703,12.1677 91.6511,11.4657 C90.9491,11.4138 90.2295,11.6542 89.6926,12.191 C89.1558,12.7279 88.9153,13.4475 88.9673,14.1495 Z M85.821,11.4657 C85.7691,12.1677 86.0096,12.8873 86.5464,13.4242 C87.0832,13.9609 87.8028,14.2014 88.5049,14.1495 C88.5568,13.4475 88.3163,12.7279 87.7795,12.191 C87.2427,11.6542 86.523,11.4137 85.821,11.4657 Z M88.9673,14.6119 C88.9153,15.314 89.1558,16.0336 89.6926,16.5704 C90.2295,17.1072 90.9491,17.3477 91.6511,17.2958 C91.703,16.5937 91.4626,15.8741 90.9258,15.3373 C90.3889,14.8005 89.6693,14.56 88.9673,14.6119 Z M95.0326,26.2631 C95.7347,26.315 96.4543,26.0745 96.9911,25.5377 C97.5279,25.0009 97.7684,24.2812 97.7165,23.5792 C97.0144,23.5273 96.2948,23.7678 95.758,24.3046 C95.2212,24.8414 94.9807,25.5611 95.0326,26.2631 Z M98.1789,23.1168 C98.8809,23.1687 99.6005,22.9283 100.137,22.3915 C100.674,21.8546 100.915,21.135 100.863,20.433 C100.161,20.3811 99.4411,20.6215 98.9042,21.1583 C98.3674,21.6951 98.127,22.4148 98.1789,23.1168 Z M95.0326,20.433 C94.9807,21.135 95.2212,21.8546 95.758,22.3915 C96.2948,22.9282 97.0144,23.1687 97.7165,23.1168 C97.7684,22.4148 97.5279,21.6951 96.9911,21.1583 C96.4543,20.6215 95.7347,20.381 95.0326,20.433 Z M98.1789,23.5792 C98.127,24.2812 98.3674,25.0009 98.9042,25.5377 C99.4411,26.0745 100.161,26.3149 100.863,26.2631 C100.915,25.561 100.674,24.8414 100.137,24.3046 C99.6005,23.7678 98.8809,23.5273 98.1789,23.5792 Z M51.7804,-4.06451 C51.0783,-4.1164 50.3587,-3.87595 49.8219,-3.3391 C49.2851,-2.80229 49.0446,-2.08266 49.0965,-1.38067 C49.7985,-1.32872 50.5182,-1.5692 51.055,-2.10601 C51.5918,-2.64283 51.8322,-3.36249 51.7804,-4.06451 Z M52.2428,-4.5269 C52.9448,-4.47502 53.6644,-4.71546 54.2013,-5.25228 C54.7381,-5.78909 54.9785,-6.50872 54.9267,-7.21074 C54.2246,-7.26266 53.505,-7.02218 52.9681,-6.4854 C52.4313,-5.94858 52.1909,-5.22896 52.2428,-4.5269 Z M49.0965,-7.21074 C49.0446,-6.50875 49.2851,-5.78909 49.8219,-5.25228 C50.3587,-4.71546 51.0783,-4.47502 51.7804,-4.5269 C51.8323,-5.22896 51.5918,-5.94858 51.055,-6.4854 C50.5182,-7.02222 49.7985,-7.2627 49.0965,-7.21074 Z M52.2428,-4.06451 C52.1909,-3.36249 52.4313,-2.64283 52.9681,-2.10601 C53.505,-1.5692 54.2246,-1.32875 54.9267,-1.38067 C54.9785,-2.0827 54.7381,-2.80232 54.2013,-3.33914 C53.6644,-3.87595 52.9448,-4.1164 52.2428,-4.06451 Z M60.9719,5.12707 C60.2699,5.07519 59.5503,5.31563 59.0135,5.85248 C58.4767,6.3893 58.2362,7.10892 58.2881,7.81091 C58.9901,7.86287 59.7098,7.62239 60.2466,7.0856 C60.7834,6.54875 61.0239,5.82913 60.9719,5.12707 Z M61.4344,4.66468 C62.1364,4.71657 62.856,4.47616 63.3929,3.93931 C63.9297,3.40249 64.1701,2.68287 64.1182,1.98084 C63.4162,1.92892 62.6966,2.1694 62.1597,2.70618 C61.6229,3.243 61.3824,3.96266 61.4344,4.66468 Z M58.2881,1.98084 C58.2362,2.68283 58.4767,3.40249 59.0135,3.93931 C59.5503,4.47612 60.2699,4.71657 60.972,4.66468 C61.0239,3.96266 60.7834,3.243 60.2466,2.70618 C59.7098,2.16937 58.9901,1.92889 58.2881,1.98084 Z M61.4344,5.12707 C61.3824,5.82913 61.6229,6.54875 62.1597,7.08557 C62.6966,7.62239 63.4162,7.86283 64.1182,7.81091 C64.1701,7.10889 63.9297,6.38926 63.3929,5.85245 C62.856,5.31563 62.1364,5.07519 61.4344,5.12707 Z M70.1326,-3.84022 C69.4305,-3.8921 68.7109,-3.65166 68.1741,-3.11481 C67.6373,-2.57799 67.3968,-1.85837 67.4488,-1.15637 C68.1508,-1.10442 68.8704,-1.3449 69.4072,-1.88168 C69.9441,-2.41853 70.1845,-3.13816 70.1326,-3.84022 Z M70.595,-4.3026 C71.297,-4.25072 72.0167,-4.49113 72.5535,-5.02798 C73.0903,-5.5648 73.3308,-6.28442 73.2789,-6.98645 C72.5768,-7.03837 71.8572,-6.79789 71.3204,-6.2611 C70.7836,-5.72429 70.5431,-5.00463 70.595,-4.3026 Z M67.4488,-6.98645 C67.3968,-6.28446 67.6373,-5.5648 68.1741,-5.02798 C68.7109,-4.49117 69.4305,-4.25072 70.1326,-4.3026 C70.1845,-5.00463 69.9441,-5.72429 69.4072,-6.2611 C68.8704,-6.79792 68.1508,-7.0384 67.4488,-6.98645 Z M70.595,-3.84022 C70.5431,-3.13816 70.7836,-2.41853 71.3204,-1.88172 C71.8572,-1.3449 72.5768,-1.10446 73.2789,-1.15637 C73.3308,-1.8584 73.0903,-2.57802 72.5535,-3.11484 C72.0167,-3.65166 71.2971,-3.8921 70.595,-3.84022 Z M79.3442,5.12707 C78.6422,5.07519 77.9225,5.31563 77.3857,5.85248 C76.8489,6.3893 76.6084,7.10892 76.6604,7.81091 C77.3624,7.86287 78.082,7.62239 78.6188,7.0856 C79.1557,6.54875 79.3961,5.82913 79.3442,5.12707 Z M79.8066,4.66468 C80.5087,4.71657 81.2283,4.47616 81.7651,3.93931 C82.3019,3.40249 82.5424,2.68287 82.4905,1.98084 C81.7884,1.92892 81.0688,2.1694 80.532,2.70618 C79.9952,3.243 79.7547,3.96266 79.8066,4.66468 Z M76.6604,1.98084 C76.6084,2.68283 76.8489,3.40249 77.3857,3.93931 C77.9225,4.47612 78.6422,4.71657 79.3442,4.66468 C79.3961,3.96266 79.1557,3.243 78.6188,2.70618 C78.082,2.16937 77.3624,1.92889 76.6604,1.98084 Z M79.8067,5.12707 C79.7547,5.82913 79.9952,6.54875 80.532,7.08557 C81.0688,7.62239 81.7885,7.86283 82.4905,7.81091 C82.5424,7.10889 82.3019,6.38926 81.7651,5.85245 C81.2283,5.31563 80.5087,5.07519 79.8067,5.12707 Z M88.5048,-3.84022 C87.8028,-3.8921 87.0832,-3.65166 86.5464,-3.11481 C86.0096,-2.57799 85.7691,-1.85837 85.821,-1.15637 C86.523,-1.10442 87.2427,-1.3449 87.7795,-1.88168 C88.3163,-2.41853 88.5568,-3.13816 88.5048,-3.84022 Z M88.9673,-4.3026 C89.6693,-4.25072 90.3889,-4.49113 90.9258,-5.02798 C91.4626,-5.5648 91.703,-6.28442 91.6511,-6.98645 C90.9491,-7.03837 90.2295,-6.79789 89.6926,-6.2611 C89.1558,-5.72429 88.9153,-5.00463 88.9673,-4.3026 Z M85.821,-6.98645 C85.7691,-6.28446 86.0096,-5.5648 86.5464,-5.02798 C87.0832,-4.49117 87.8028,-4.25072 88.5049,-4.3026 C88.5568,-5.00463 88.3163,-5.72429 87.7795,-6.2611 C87.2427,-6.79792 86.523,-7.0384 85.821,-6.98645 Z M88.9673,-3.84022 C88.9153,-3.13816 89.1558,-2.41853 89.6926,-1.88172 C90.2295,-1.3449 90.9491,-1.10446 91.6511,-1.15637 C91.703,-1.8584 91.4626,-2.57802 90.9258,-3.11484 C90.3889,-3.65166 89.6693,-3.8921 88.9673,-3.84022 Z M95.0326,7.81091 C95.7347,7.86287 96.4543,7.62239 96.9911,7.0856 C97.5279,6.54875 97.7684,5.82913 97.7165,5.12707 C97.0144,5.07519 96.2948,5.31563 95.758,5.85248 C95.2212,6.3893 94.9807,7.10892 95.0326,7.81091 Z M98.1789,4.66468 C98.8809,4.71657 99.6005,4.47616 100.137,3.93931 C100.674,3.40249 100.915,2.68287 100.863,1.98084 C100.161,1.92892 99.4411,2.1694 98.9042,2.70618 C98.3674,3.243 98.127,3.96266 98.1789,4.66468 Z M95.0326,1.98084 C94.9807,2.68283 95.2212,3.40249 95.758,3.93931 C96.2948,4.47612 97.0144,4.71657 97.7165,4.66468 C97.7684,3.96266 97.5279,3.243 96.9911,2.70618 C96.4543,2.16937 95.7347,1.92889 95.0326,1.98084 Z M98.1789,5.12707 C98.127,5.82913 98.3674,6.54875 98.9042,7.08557 C99.4411,7.62239 100.161,7.86283 100.863,7.81091 C100.915,7.10889 100.674,6.38926 100.137,5.85245 C99.6005,5.31563 98.8809,5.07519 98.1789,5.12707 Z M51.7804,-22.4371 C51.0783,-22.489 50.3587,-22.2486 49.8219,-21.7117 C49.2851,-21.1749 49.0446,-20.4553 49.0965,-19.7533 C49.7985,-19.7014 50.5182,-19.9418 51.055,-20.4786 C51.5918,-21.0155 51.8322,-21.7351 51.7804,-22.4371 Z M52.2428,-22.8996 C52.9448,-22.8477 53.6644,-23.0881 54.2013,-23.6249 C54.7381,-24.1617 54.9785,-24.8814 54.9267,-25.5834 C54.2246,-25.6353 53.505,-25.3948 52.9681,-24.858 C52.4313,-24.3212 52.1909,-23.6016 52.2428,-22.8996 Z M49.0965,-25.5834 C49.0446,-24.8814 49.2851,-24.1617 49.8219,-23.6249 C50.3587,-23.0881 51.0783,-22.8477 51.7804,-22.8996 C51.8323,-23.6016 51.5918,-24.3212 51.055,-24.858 C50.5182,-25.3949 49.7985,-25.6353 49.0965,-25.5834 Z M52.2428,-22.4371 C52.1909,-21.7351 52.4313,-21.0155 52.9681,-20.4787 C53.505,-19.9418 54.2246,-19.7014 54.9267,-19.7533 C54.9785,-20.4553 54.7381,-21.175 54.2013,-21.7118 C53.6644,-22.2486 52.9448,-22.489 52.2428,-22.4371 Z M60.9719,-13.2456 C60.2699,-13.2974 59.5503,-13.057 59.0135,-12.5202 C58.4767,-11.9833 58.2362,-11.2637 58.2881,-10.5617 C58.9901,-10.5098 59.7098,-10.7502 60.2466,-11.2871 C60.7834,-11.8239 61.0239,-12.5435 60.9719,-13.2456 Z M61.4344,-13.708 C62.1364,-13.6561 62.856,-13.8965 63.3929,-14.4333 C63.9297,-14.9701 64.1701,-15.6898 64.1182,-16.3918 C63.4162,-16.4437 62.6966,-16.2032 62.1597,-15.6665 C61.6229,-15.1296 61.3824,-14.41 61.4344,-13.708 Z M58.2881,-16.3918 C58.2362,-15.6898 58.4767,-14.9701 59.0135,-14.4333 C59.5503,-13.8965 60.2699,-13.6561 60.972,-13.708 C61.0239,-14.41 60.7834,-15.1296 60.2466,-15.6665 C59.7098,-16.2033 58.9901,-16.4437 58.2881,-16.3918 Z M61.4344,-13.2456 C61.3824,-12.5435 61.6229,-11.8239 62.1597,-11.2871 C62.6966,-10.7502 63.4162,-10.5098 64.1182,-10.5617 C64.1701,-11.2637 63.9297,-11.9834 63.3929,-12.5202 C62.856,-13.057 62.1364,-13.2974 61.4344,-13.2456 Z M70.1326,-22.2129 C69.4305,-22.2647 68.7109,-22.0243 68.1741,-21.4874 C67.6373,-20.9506 67.3968,-20.231 67.4488,-19.529 C68.1508,-19.4771 68.8704,-19.7175 69.4072,-20.2544 C69.9441,-20.7912 70.1845,-21.5108 70.1326,-22.2129 Z M70.595,-22.6752 C71.297,-22.6234 72.0167,-22.8638 72.5535,-23.4006 C73.0903,-23.9374 73.3308,-24.6571 73.2789,-25.3591 C72.5768,-25.411 71.8572,-25.1705 71.3204,-24.6337 C70.7836,-24.0969 70.5431,-23.3773 70.595,-22.6752 Z M67.4488,-25.3591 C67.3968,-24.6571 67.6373,-23.9374 68.1741,-23.4006 C68.7109,-22.8638 69.4305,-22.6234 70.1326,-22.6752 C70.1845,-23.3773 69.9441,-24.0969 69.4072,-24.6337 C68.8704,-25.1706 68.1508,-25.411 67.4488,-25.3591 Z M70.595,-22.2129 C70.5431,-21.5108 70.7836,-20.7912 71.3204,-20.2544 C71.8572,-19.7175 72.5768,-19.4771 73.2789,-19.529 C73.3308,-20.231 73.0903,-20.9507 72.5535,-21.4875 C72.0167,-22.0243 71.2971,-22.2647 70.595,-22.2129 Z M79.3442,-13.2456 C78.6422,-13.2974 77.9225,-13.057 77.3857,-12.5202 C76.8489,-11.9833 76.6084,-11.2637 76.6604,-10.5617 C77.3624,-10.5098 78.082,-10.7502 78.6188,-11.2871 C79.1557,-11.8239 79.3961,-12.5435 79.3442,-13.2456 Z M79.8066,-13.708 C80.5087,-13.6561 81.2283,-13.8965 81.7651,-14.4333 C82.3019,-14.9701 82.5424,-15.6898 82.4905,-16.3918 C81.7884,-16.4437 81.0688,-16.2032 80.532,-15.6665 C79.9952,-15.1296 79.7547,-14.41 79.8066,-13.708 Z M76.6604,-16.3918 C76.6084,-15.6898 76.8489,-14.9701 77.3857,-14.4333 C77.9225,-13.8965 78.6422,-13.6561 79.3442,-13.708 C79.3961,-14.41 79.1557,-15.1296 78.6188,-15.6665 C78.082,-16.2033 77.3624,-16.4437 76.6604,-16.3918 Z M79.8067,-13.2456 C79.7547,-12.5435 79.9952,-11.8239 80.532,-11.2871 C81.0688,-10.7502 81.7885,-10.5098 82.4905,-10.5617 C82.5424,-11.2637 82.3019,-11.9834 81.7651,-12.5202 C81.2283,-13.057 80.5087,-13.2974 79.8067,-13.2456 Z M88.5048,-22.2129 C87.8028,-22.2647 87.0832,-22.0243 86.5464,-21.4874 C86.0096,-20.9506 85.7691,-20.231 85.821,-19.529 C86.523,-19.4771 87.2427,-19.7175 87.7795,-20.2544 C88.3163,-20.7912 88.5568,-21.5108 88.5048,-22.2129 Z M88.9673,-22.6752 C89.6693,-22.6234 90.3889,-22.8638 90.9258,-23.4006 C91.4626,-23.9374 91.703,-24.6571 91.6511,-25.3591 C90.9491,-25.411 90.2295,-25.1705 89.6926,-24.6337 C89.1558,-24.0969 88.9153,-23.3773 88.9673,-22.6752 Z M85.821,-25.3591 C85.7691,-24.6571 86.0096,-23.9374 86.5464,-23.4006 C87.0832,-22.8638 87.8028,-22.6234 88.5049,-22.6752 C88.5568,-23.3773 88.3163,-24.0969 87.7795,-24.6337 C87.2427,-25.1706 86.523,-25.411 85.821,-25.3591 Z M88.9673,-22.2129 C88.9153,-21.5108 89.1558,-20.7912 89.6926,-20.2544 C90.2295,-19.7175 90.9491,-19.4771 91.6511,-19.529 C91.703,-20.231 91.4626,-20.9507 90.9258,-21.4875 C90.3889,-22.0243 89.6693,-22.2647 88.9673,-22.2129 Z M95.0326,-10.5617 C95.7347,-10.5098 96.4543,-10.7502 96.9911,-11.2871 C97.5279,-11.8239 97.7684,-12.5435 97.7165,-13.2456 C97.0144,-13.2974 96.2948,-13.057 95.758,-12.5202 C95.2212,-11.9833 94.9807,-11.2637 95.0326,-10.5617 Z M100.863,-16.3918 C100.161,-16.4437 99.4411,-16.2032 98.9042,-15.6665 C98.3674,-15.1296 98.127,-14.41 98.1789,-13.708 C98.8809,-13.6561 99.6005,-13.8965 100.137,-14.4333 C100.674,-14.9701 100.915,-15.6898 100.863,-16.3918 Z M95.0326,-16.3918 C94.9807,-15.6898 95.2212,-14.9701 95.758,-14.4333 C96.2948,-13.8965 97.0144,-13.6561 97.7165,-13.708 C97.7684,-14.41 97.5279,-15.1296 96.9911,-15.6665 C96.4543,-16.2033 95.7347,-16.4437 95.0326,-16.3918 Z M98.1789,-13.2456 C98.127,-12.5435 98.3674,-11.8239 98.9042,-11.2871 C99.4411,-10.7502 100.161,-10.5098 100.863,-10.5617 C100.915,-11.2637 100.674,-11.9834 100.137,-12.5202 C99.6005,-13.057 98.8809,-13.2974 98.1789,-13.2456 Z " fill="#a9ebfa" fill-opacity="0.19" />			<path d="M57.5015,-51.0514 C54.7724,-51.9024 51.6219,-50.9616 49.9382,-48.8218 C49.7613,-51.5143 47.7116,-54.104 44.9825,-54.955 C41.4521,-56.0558 37.8876,-54.2277 36.7712,-50.6472 C35.2566,-45.7899 38.8102,-40.0939 44.3014,-30.7443 C54.1335,-35.3159 60.2869,-37.9576 61.8093,-42.8401 C62.9257,-46.4205 61.0319,-49.9506 57.5015,-51.0514 Z " fill="#fce29b" fill-opacity="1.00" />			<path d="M43.8704,29.5234 L-45.2306,29.5234 L-51.7914,42.4336 L50.5371,42.4336 L43.8704,29.5234 Z M-11.7912,39.3648 L-9.03989,34.1796 L7.99724,34.1796 L10.4311,39.3648 L-11.7912,39.3648 Z M42.2831,26.5605 C42.2831,26.4546 42.2831,26.4546 42.2831,26.3488 C42.2831,26.243 42.2831,26.243 42.2831,26.1372 L42.2831,-27.1964 C42.2831,-28.5721 41.2249,-29.6303 39.8493,-29.6303 L-41.3152,-29.6303 C-42.6909,-29.6303 -43.7491,-28.5721 -43.7491,-27.1964 L-43.7491,26.1372 C-43.7491,26.243 -43.7491,26.243 -43.7491,26.3488 C-43.7491,26.4546 -43.7491,26.4546 -43.7491,26.5605 L42.2831,26.5605 Z M36.2514,22.4335 L-37.5056,22.4335 L-37.5056,-23.5985 L36.2514,-23.5985 L36.2514,22.4335 Z M52.0186,45.3965 L-53.2729,45.3965 L-53.5904,45.9256 C-53.5904,47.3013 -52.5322,49.6294 -51.1565,49.6294 L49.7964,49.6294 C51.1721,49.6294 52.2303,47.3013 52.2303,45.9256 L52.0186,45.3965 Z " fill="#f8c027" fill-opacity="1.00" />			<path d="M1.37668e-14,-19.4744 L-32.849,-0.466782 L-32.849,18.5409 L32.849,-19.4744 L1.37668e-14,-19.4744 Z M1.37668e-14,18.5409 L32.849,18.5409 L32.849,-0.466782 L1.37668e-14,18.5409 Z " fill="#542237" fill-opacity="0.05" />			<path d="M-5.86233,12.8544 L4.38641,12.8544 L4.38641,-12.8544 L-5.86233,-12.8544 L-5.86233,12.8544 Z M-13.5344,5.06647 L12.1743,5.06647 L12.1743,-5.18227 L-13.5344,-5.18227 L-13.5344,5.06647 Z " fill="#f25d5a" fill-opacity="1.00" />			<path d="M97.2582,-3.45779 L80.0754,-3.45779 C78.0986,-3.45779 76.2359,-4.10405 76.0078,-4.86435 C75.7417,-5.62465 73.917,-6.2709 71.9402,-6.2709 L66.5041,-6.2709 C64.5273,-6.2709 62.8926,-4.59824 62.8926,-2.54543 L62.8926,3.95514 L62.8926,22.5825 L62.8926,23.4949 C62.8926,25.0155 64.1091,26.27 65.5917,26.27 L98.1706,26.27 C99.6532,26.27 100.87,25.0155 100.87,23.4949 L100.87,22.5825 L100.87,3.95514 L100.87,0.229669 C100.87,-1.78513 99.235,-3.45779 97.2582,-3.45779 Z M66.466,-4.40817 L71.9022,-4.40817 C73.1947,-4.40817 74.0691,-4.10405 74.4112,-3.95199 C75.2475,-2.24131 77.9086,-1.63307 80.0754,-1.63307 L97.2582,-1.63307 C98.2466,-1.63307 99.0829,-0.796737 99.0829,0.229669 L99.0829,1.33211 C98.8168,1.21806 98.5127,1.14203 98.1706,1.14203 L65.5917,1.14203 C65.2876,1.14203 64.9835,1.21806 64.6793,1.33211 L64.6793,-2.54543 C64.6793,-3.57183 65.4777,-4.40817 66.466,-4.40817 Z M99.0449,22.6205 C99.0449,23.6469 98.2466,24.4833 97.2202,24.4833 L66.428,24.4833 C65.4396,24.4833 64.6033,23.6469 64.6033,22.6205 L64.6033,3.99316 C64.6033,3.49896 65.0215,3.0808 65.5157,3.0808 L98.0946,3.0808 C98.5888,3.0808 99.0069,3.49896 99.0069,3.99316 L99.0069,22.6205 L99.0449,22.6205 Z " fill="#542237" fill-opacity="1.00" />			<path d="M109.345,10.22 L92.1624,10.22 C90.1856,10.22 88.3229,9.57372 88.0948,8.81342 C87.8287,8.05312 86.004,7.40686 84.0272,7.40686 L78.5911,7.40686 C76.6143,7.40686 74.9796,9.07953 74.9796,11.1323 L74.9796,17.6329 L74.9796,36.2603 L74.9796,37.1726 C74.9796,38.6932 76.1961,39.9477 77.6787,39.9477 L110.258,39.9477 C111.74,39.9477 112.957,38.6932 112.957,37.1726 L112.957,36.2603 L112.957,17.6329 L112.957,13.9074 C112.957,11.8926 111.322,10.22 109.345,10.22 Z M78.553,9.2696 L83.9892,9.2696 C85.2817,9.2696 86.1561,9.57372 86.4982,9.72578 C87.3345,11.4365 89.9956,12.0447 92.1624,12.0447 L109.345,12.0447 C110.334,12.0447 111.17,12.881 111.17,13.9074 L111.17,15.0099 C110.904,14.8958 110.6,14.8198 110.258,14.8198 L77.6787,14.8198 C77.3746,14.8198 77.0705,14.8958 76.7663,15.0099 L76.7663,11.1323 C76.7663,10.1059 77.5647,9.2696 78.553,9.2696 Z M111.132,36.2983 C111.132,37.3247 110.334,38.161 109.307,38.161 L78.515,38.161 C77.5266,38.161 76.6903,37.3247 76.6903,36.2983 L76.6903,17.6709 C76.6903,17.1767 77.1085,16.7586 77.6027,16.7586 L110.182,16.7586 C110.676,16.7586 111.094,17.1767 111.094,17.6709 L111.094,36.2983 L111.132,36.2983 Z " fill="#fce29b" fill-opacity="1.00" />			<path d="M-5.69517,-19.115 C-7.53277,-18.6556 -9.33208,-17.8516 -10.9017,-16.818 C-13.3135,-15.2867 -15.3043,-13.1811 -16.8356,-10.7692 C-17.7544,-9.31448 -18.5201,-7.63001 -18.9795,-5.94555 C-19.4006,-4.26108 -19.6686,-2.53833 -19.6686,-0.739018 C-19.6686,2.78304 -18.7115,6.03712 -17.1036,8.87009 C-16.4911,9.9803 -15.6871,11.014 -14.8066,12.0093 C-14.1941,12.6601 -13.5432,13.311 -12.8159,13.8852 M-8.94925,16.3353 C-7.6859,16.9479 -6.3077,17.369 -4.85294,17.7518 M-0.83319,18.1729 C2.11462,18.1729 4.9093,17.4838 7.35943,16.3353 C8.85248,15.6079 10.2307,14.7657 11.4557,13.7321 C12.1448,13.0812 12.8339,12.507 13.4465,11.7796 C14.1739,10.9757 14.8247,10.0569 15.4372,9.09979 C16.1263,7.91301 16.7388,6.76451 17.16,5.46287 M18.3085,-0.739018 C18.3085,-3.83997 17.6194,-6.71121 16.3177,-9.27619 C15.7435,-10.3864 15.1692,-11.3818 14.4418,-12.2623 C13.5613,-13.4874 12.566,-14.521 11.4175,-15.4781 C10.9581,-15.8992 10.4987,-16.2055 9.9627,-16.5883 C8.43137,-17.622 6.7469,-18.4259 4.9093,-19.0001 C3.07171,-19.5361 1.23411,-19.8424 -0.718341,-19.8424 " fill="none" stroke-width="2.00" stroke="#a9ebfa" stroke-linecap="square" stroke-linejoin="miter" />			<path d="M-59.7427,7.37196 C-60.4203,8.04953 -60.8268,8.94393 -60.7997,9.91963 C-60.7997,10.9224 -60.3932,11.8168 -59.7427,12.4673 C-59.0923,13.1178 -58.1979,13.5243 -57.1951,13.5243 C-56.1923,13.5243 -55.2979,13.1178 -54.6474,12.4673 C-53.9969,11.8168 -53.5904,10.9224 -53.5904,9.91963 C-53.5904,8.91682 -53.9969,8.02243 -54.6474,7.37196 C-55.2979,6.7215 -56.1923,6.31495 -57.1951,6.31495 C-58.1979,6.31495 -59.0923,6.7215 -59.7427,7.37196 Z M-71.668,13.5514 L-66.4371,13.5514 C-66.4371,10.1636 -65.1091,6.96542 -62.6698,4.58037 C-60.2577,2.19533 -57.0324,0.86729 -53.5904,0.86729 L-53.5904,-4.33645 C-58.5773,-4.33645 -63.0764,-2.33084 -66.3558,0.921496 C-69.6352,4.14673 -71.668,8.61869 -71.668,13.5514 Z M-80.6932,13.5514 L-75.5166,13.5514 C-75.5166,1.46355 -65.6782,-8.34766 -53.5904,-8.34766 L-53.5904,-13.5514 C-61.0708,-13.5514 -67.8194,-10.5159 -72.7521,-5.61028 C-77.6577,-0.704673 -80.6932,6.07103 -80.6932,13.5514 Z " fill="#fce29b" fill-opacity="0.42" />			<path d="M41.1356,35.9512 L41.1356,31.9547 L37.1391,31.9547 L41.1356,35.9512 Z M37.1391,35.9512 L37.1391,31.9547 L33.1426,31.9547 L37.1391,35.9512 Z M37.1391,39.9477 L37.1391,35.9512 L33.1426,35.9512 L37.1391,39.9477 Z M41.1356,35.9674 L37.1391,35.9674 L37.1391,39.9639 L41.1356,35.9674 Z " fill="#fce29b" fill-opacity="1.00" />			<path d="M28.0098,31.9709 L24.0133,35.9674 L24.0133,39.9639 L32.0063,31.9709 L28.0098,31.9709 Z M28.0098,39.9639 L32.0063,39.9639 L32.0063,35.9674 L28.0098,39.9639 Z " fill="#fce29b" fill-opacity="1.00" />			<path d="M22.8771,39.9477 L14.8841,39.9477 L18.8806,35.9512 L22.8771,39.9477 Z M14.8841,31.9547 L18.8806,35.9512 L22.8771,31.9547 L14.8841,31.9547 Z " fill="#fce29b" fill-opacity="1.00" />			<path d="M-15.4779,39.9477 L-23.4709,39.9477 L-19.4744,35.9512 L-15.4779,39.9477 Z M-15.4779,35.9512 L-19.4744,31.9547 L-23.4709,35.9512 L-15.4779,35.9512 Z " fill="#fce29b" fill-opacity="1.00" />			<path d="M-24.6072,35.935 L-24.6072,31.9385 L-28.6037,31.9385 L-24.6072,35.935 Z M-28.6037,35.935 L-28.6037,31.9385 L-32.6002,31.9385 L-28.6037,35.935 Z M-24.6072,35.9512 L-28.6037,35.9512 L-28.6037,39.9477 L-24.6072,35.9512 Z " fill="#fce29b" fill-opacity="1.00" />			<path d="M-33.7364,31.8375 L-41.7456,39.8467 L-33.7364,39.8467 L-33.7364,31.8375 Z M-41.7456,35.8421 L-37.741,31.8375 L-37.741,35.8421 L-41.7456,35.8421 Z " fill="#fce29b" fill-opacity="1.00" />			<path d="M-73.7668,8.84842 L-85.7192,35.9512 L-85.7192,20.8008 L-100.87,20.8008 L-73.7668,8.84842 Z " fill="#9abc45" fill-opacity="1.00" />		</g>	</svg>