<?xml version="1.0" encoding="utf-8" ?>	<!-- Generator: Assembly 2.4 - http://assemblyapp.co -->	<svg version="1.1" xmlns="http://www.w3.org/2000/svg" xmlns:xlink="http://www.w3.org/1999/xlink" width="4096.00" height="2341.00" viewBox="0 0 4096.0 2341.0">		<g id="document" transform="scale(13.653333333333334 13.653333333333334) translate(150.22610385059366 85.71428571428571)">			<path d="M-76.4944,7.75039 L-74.8922,8.22 L-73.29,7.75039 L-74.8922,7.28079 L-76.4944,7.75039 Z M-68.0967,7.75039 L-66.4945,8.22 L-64.8924,7.75039 L-66.4945,7.28079 L-68.0967,7.75039 Z M-51.3014,7.75039 L-49.6993,8.22 L-48.0971,7.75039 L-49.6993,7.28079 L-51.3014,7.75039 Z M-59.6991,7.75039 L-58.0969,8.22 L-56.4947,7.75039 L-58.0969,7.28079 L-59.6991,7.75039 Z M-70.6934,9.35258 L-71.163,7.75039 L-70.6934,6.14822 L-70.2238,7.75039 L-70.6934,9.35258 Z M-62.2957,9.35258 L-62.7653,7.75039 L-62.2957,6.14822 L-61.8261,7.75039 L-62.2957,9.35258 Z M-53.8981,9.35258 L-54.3677,7.75039 L-53.8981,6.14822 L-53.4285,7.75039 L-53.8981,9.35258 Z M-79.091,9.35258 L-79.5606,7.75039 L-79.091,6.14822 L-78.6214,7.75039 L-79.091,9.35258 Z M-72.2956,11.9492 L-70.6934,12.4188 L-69.0912,11.9492 L-70.6934,11.4796 L-72.2956,11.9492 Z M-63.8979,11.9492 L-62.2957,12.4188 L-60.6935,11.9492 L-62.2957,11.4796 L-63.8979,11.9492 Z M-55.5003,11.9492 L-53.8981,12.4188 L-52.2959,11.9492 L-53.8981,11.4796 L-55.5003,11.9492 Z M-80.6932,11.9492 L-79.091,12.4188 L-77.4888,11.9492 L-79.091,11.4796 L-80.6932,11.9492 Z M-75.3618,11.9492 L-74.8922,13.5514 L-74.4226,11.9492 L-74.8922,10.347 L-75.3618,11.9492 Z M-66.9641,11.9492 L-66.4945,13.5514 L-66.0249,11.9492 L-66.4945,10.347 L-66.9641,11.9492 Z M-58.5665,11.9492 L-58.0969,13.5514 L-57.6273,11.9492 L-58.0969,10.347 L-58.5665,11.9492 Z M-50.1689,11.9492 L-49.6993,13.5514 L-49.2296,11.9492 L-49.6993,10.347 L-50.1689,11.9492 Z M-72.2956,3.55157 L-70.6934,4.02118 L-69.0912,3.55157 L-70.6934,3.08197 L-72.2956,3.55157 Z M-63.8979,3.55157 L-62.2957,4.02118 L-60.6935,3.55157 L-62.2957,3.08197 L-63.8979,3.55157 Z M-55.5003,3.55157 L-53.8981,4.02118 L-52.2959,3.55157 L-53.8981,3.08197 L-55.5003,3.55157 Z M-80.6932,3.55157 L-79.091,4.02118 L-77.4888,3.55157 L-79.091,3.08197 L-80.6932,3.55157 Z M-74.8922,5.15377 L-75.3618,3.55157 L-74.8922,1.94938 L-74.4226,3.55157 L-74.8922,5.15377 Z M-66.4945,5.15377 L-66.9641,3.55157 L-66.4945,1.94938 L-66.0249,3.55157 L-66.4945,5.15377 Z M-58.0969,5.15377 L-58.5665,3.55157 L-58.0969,1.94938 L-57.6273,3.55157 L-58.0969,5.15377 Z M-49.6993,5.15377 L-50.1689,3.55157 L-49.6993,1.94938 L-49.2296,3.55157 L-49.6993,5.15377 Z M-76.4944,-0.591997 L-74.8922,-0.122393 L-73.29,-0.591997 L-74.8922,-1.0616 L-76.4944,-0.591997 Z M-68.0967,-0.591997 L-66.4945,-0.122393 L-64.8924,-0.591997 L-66.4945,-1.0616 L-68.0967,-0.591997 Z M-51.3014,-0.591997 L-49.6993,-0.122393 L-48.0971,-0.591997 L-49.6993,-1.0616 L-51.3014,-0.591997 Z M-59.6991,-0.591997 L-58.0969,-0.122393 L-56.4947,-0.591997 L-58.0969,-1.0616 L-59.6991,-0.591997 Z M-70.2238,-0.591997 L-70.6934,-2.19419 L-71.163,-0.591997 L-70.6934,1.01017 L-70.2238,-0.591997 Z M-61.8261,-0.591997 L-62.2957,-2.19419 L-62.7653,-0.591997 L-62.2957,1.01017 L-61.8261,-0.591997 Z M-53.4285,-0.591997 L-53.8981,-2.19419 L-54.3677,-0.591997 L-53.8981,1.01017 L-53.4285,-0.591997 Z M-78.6214,-0.591997 L-79.091,-2.19419 L-79.5606,-0.591997 L-79.091,1.01017 L-78.6214,-0.591997 Z M-74.8922,-9.45926 L-73.29,-8.98964 L-74.8922,-8.52003 L-76.4944,-8.98964 L-74.8922,-9.45926 Z M-66.4945,-9.45926 L-64.8924,-8.98964 L-66.4945,-8.52003 L-68.0967,-8.98964 L-66.4945,-9.45926 Z M-49.6993,-9.45926 L-48.0971,-8.98964 L-49.6993,-8.52003 L-51.3014,-8.98964 L-49.6993,-9.45926 Z M-58.0969,-9.45926 L-56.4947,-8.98964 L-58.0969,-8.52003 L-59.6991,-8.98964 L-58.0969,-9.45926 Z M-70.2238,-8.98964 L-70.6934,-10.5918 L-71.163,-8.98964 L-70.6934,-7.38746 L-70.2238,-8.98964 Z M-61.8261,-8.98964 L-62.2957,-10.5918 L-62.7653,-8.98964 L-62.2957,-7.38746 L-61.8261,-8.98964 Z M-53.4285,-8.98964 L-53.8981,-10.5918 L-54.3677,-8.98964 L-53.8981,-7.38746 L-53.4285,-8.98964 Z M-78.6214,-8.98964 L-79.091,-10.5918 L-79.5606,-8.98964 L-79.091,-7.38746 L-78.6214,-8.98964 Z M-74.8922,-17.8569 L-73.29,-17.3873 L-74.8922,-16.9177 L-76.4944,-17.3873 L-74.8922,-17.8569 Z M-66.4945,-17.8569 L-64.8924,-17.3873 L-66.4945,-16.9177 L-68.0967,-17.3873 L-66.4945,-17.8569 Z M-48.0971,-17.3873 L-49.6993,-17.8569 L-51.3014,-17.3873 L-49.6993,-16.9177 L-48.0971,-17.3873 Z M-58.0969,-17.8569 L-56.4947,-17.3873 L-58.0969,-16.9177 L-59.6991,-17.3873 L-58.0969,-17.8569 Z M-70.6934,-5.26042 L-69.0912,-4.79082 L-70.6934,-4.32121 L-72.2956,-4.79082 L-70.6934,-5.26042 Z M-62.2957,-5.26042 L-60.6935,-4.79082 L-62.2957,-4.32121 L-63.8979,-4.79082 L-62.2957,-5.26042 Z M-53.8981,-5.26042 L-52.2959,-4.79082 L-53.8981,-4.32121 L-55.5003,-4.79082 L-53.8981,-5.26042 Z M-79.091,-5.26042 L-77.4888,-4.79082 L-79.091,-4.32121 L-80.6932,-4.79082 L-79.091,-5.26042 Z M-74.4226,-4.79082 L-74.8922,-6.39301 L-75.3618,-4.79082 L-74.8922,-3.18864 L-74.4226,-4.79082 Z M-66.0249,-4.79082 L-66.4945,-6.39301 L-66.9641,-4.79082 L-66.4945,-3.18864 L-66.0249,-4.79082 Z M-57.6273,-4.79082 L-58.0969,-6.39301 L-58.5665,-4.79082 L-58.0969,-3.18864 L-57.6273,-4.79082 Z M-49.2296,-4.79082 L-49.6993,-6.39301 L-50.1689,-4.79082 L-49.6993,-3.18864 L-49.2296,-4.79082 Z M-70.6934,-13.6581 L-69.0912,-13.1885 L-70.6934,-12.7189 L-72.2956,-13.1885 L-70.6934,-13.6581 Z M-62.2957,-13.6581 L-60.6935,-13.1885 L-62.2957,-12.7189 L-63.8979,-13.1885 L-62.2957,-13.6581 Z M-53.8981,-13.6581 L-52.2959,-13.1885 L-53.8981,-12.7189 L-55.5003,-13.1885 L-53.8981,-13.6581 Z M-70.2238,-17.3873 L-70.6934,-18.9895 L-71.163,-17.3873 L-70.6934,-15.7851 L-70.2238,-17.3873 Z M-61.8261,-17.3873 L-62.2957,-18.9895 L-62.7653,-17.3873 L-62.2957,-15.7851 L-61.8261,-17.3873 Z M-53.4285,-17.3873 L-53.8981,-18.9895 L-54.3677,-17.3873 L-53.8981,-15.7851 L-53.4285,-17.3873 Z M-79.091,-13.6581 L-77.4888,-13.1885 L-79.091,-12.7189 L-80.6932,-13.1885 L-79.091,-13.6581 Z M-78.6214,-17.3873 L-79.091,-18.9895 L-79.5606,-17.3873 L-79.091,-15.7851 L-78.6214,-17.3873 Z M-74.4226,-13.1885 L-74.8922,-14.7906 L-75.3618,-13.1885 L-74.8922,-11.5863 L-74.4226,-13.1885 Z M-66.0249,-13.1885 L-66.4945,-14.7906 L-66.9641,-13.1885 L-66.4945,-11.5863 L-66.0249,-13.1885 Z M-57.6273,-13.1885 L-58.0969,-14.7906 L-58.5665,-13.1885 L-58.0969,-11.5863 L-57.6273,-13.1885 Z M-49.6993,-14.7906 L-49.2296,-13.1885 L-49.6993,-11.5863 L-50.1689,-13.1885 L-49.6993,-14.7906 Z " fill="#79bd9a" fill-opacity="1.00" />			<path d="M50.4767,9.23454 L52.0789,9.70414 L53.6811,9.23454 L52.0789,8.76493 L50.4767,9.23454 Z M58.8743,9.23454 L60.4765,9.70414 L62.0787,9.23454 L60.4765,8.76493 L58.8743,9.23454 Z M75.6696,9.23454 L77.2718,9.70414 L78.874,9.23454 L77.2718,8.76493 L75.6696,9.23454 Z M67.272,9.23454 L68.8742,9.70414 L70.4763,9.23454 L68.8742,8.76493 L67.272,9.23454 Z M56.2777,10.8367 L55.8081,9.23454 L56.2777,7.63237 L56.7473,9.23454 L56.2777,10.8367 Z M64.6753,10.8367 L64.2057,9.23454 L64.6753,7.63237 L65.1449,9.23454 L64.6753,10.8367 Z M73.073,10.8367 L72.6034,9.23454 L73.073,7.63237 L73.5426,9.23454 L73.073,10.8367 Z M47.8801,10.8367 L47.4104,9.23454 L47.8801,7.63237 L48.3497,9.23454 L47.8801,10.8367 Z M54.6755,13.4334 L56.2777,13.903 L57.8799,13.4334 L56.2777,12.9638 L54.6755,13.4334 Z M63.0732,13.4334 L64.6753,13.903 L66.2775,13.4334 L64.6753,12.9638 L63.0732,13.4334 Z M71.4708,13.4334 L73.073,13.903 L74.6752,13.4334 L73.073,12.9638 L71.4708,13.4334 Z M46.2779,13.4334 L47.8801,13.903 L49.4822,13.4334 L47.8801,12.9638 L46.2779,13.4334 Z M51.6093,13.4334 L52.0789,15.0355 L52.5485,13.4334 L52.0789,11.8312 L51.6093,13.4334 Z M60.0069,13.4334 L60.4765,15.0355 L60.9461,13.4334 L60.4765,11.8312 L60.0069,13.4334 Z M68.4046,13.4334 L68.8742,15.0355 L69.3438,13.4334 L68.8742,11.8312 L68.4046,13.4334 Z M76.8022,13.4334 L77.2718,15.0355 L77.7414,13.4334 L77.2718,11.8312 L76.8022,13.4334 Z M54.6755,5.03572 L56.2777,5.50532 L57.8799,5.03572 L56.2777,4.56611 L54.6755,5.03572 Z M63.0732,5.03572 L64.6753,5.50532 L66.2775,5.03572 L64.6753,4.56611 L63.0732,5.03572 Z M71.4708,5.03572 L73.073,5.50532 L74.6752,5.03572 L73.073,4.56611 L71.4708,5.03572 Z M46.2779,5.03572 L47.8801,5.50532 L49.4822,5.03572 L47.8801,4.56611 L46.2779,5.03572 Z M52.0789,6.63791 L51.6093,5.03572 L52.0789,3.43353 L52.5485,5.03572 L52.0789,6.63791 Z M60.4765,6.63791 L60.0069,5.03572 L60.4765,3.43353 L60.9461,5.03572 L60.4765,6.63791 Z M68.8742,6.63791 L68.4046,5.03572 L68.8742,3.43353 L69.3438,5.03572 L68.8742,6.63791 Z M77.2718,6.63791 L76.8022,5.03572 L77.2718,3.43353 L77.7414,5.03572 L77.2718,6.63791 Z M50.4767,0.892148 L52.0789,1.36175 L53.6811,0.892148 L52.0789,0.422544 L50.4767,0.892148 Z M58.8743,0.892148 L60.4765,1.36175 L62.0787,0.892148 L60.4765,0.422544 L58.8743,0.892148 Z M75.6696,0.892148 L77.2718,1.36175 L78.874,0.892148 L77.2718,0.422544 L75.6696,0.892148 Z M67.272,0.892148 L68.8742,1.36175 L70.4763,0.892148 L68.8742,0.422544 L67.272,0.892148 Z M56.7473,0.892148 L56.2777,-0.710044 L55.8081,0.892148 L56.2777,2.49432 L56.7473,0.892148 Z M65.1449,0.892148 L64.6753,-0.710044 L64.2057,0.892148 L64.6753,2.49432 L65.1449,0.892148 Z M73.5426,0.892148 L73.073,-0.710044 L72.6034,0.892148 L73.073,2.49432 L73.5426,0.892148 Z M48.3497,0.892148 L47.8801,-0.710044 L47.4104,0.892148 L47.8801,2.49432 L48.3497,0.892148 Z M52.0789,-7.97511 L53.6811,-7.50549 L52.0789,-7.03589 L50.4767,-7.50549 L52.0789,-7.97511 Z M60.4765,-7.97511 L62.0787,-7.50549 L60.4765,-7.03589 L58.8743,-7.50549 L60.4765,-7.97511 Z M77.2718,-7.97511 L78.874,-7.50549 L77.2718,-7.03589 L75.6696,-7.50549 L77.2718,-7.97511 Z M68.8742,-7.97511 L70.4763,-7.50549 L68.8742,-7.03589 L67.272,-7.50549 L68.8742,-7.97511 Z M56.7473,-7.50549 L56.2777,-9.10768 L55.8081,-7.50549 L56.2777,-5.90332 L56.7473,-7.50549 Z M65.1449,-7.50549 L64.6753,-9.10768 L64.2057,-7.50549 L64.6753,-5.90332 L65.1449,-7.50549 Z M73.5426,-7.50549 L73.073,-9.10768 L72.6034,-7.50549 L73.073,-5.90332 L73.5426,-7.50549 Z M48.3497,-7.50549 L47.8801,-9.10768 L47.4104,-7.50549 L47.8801,-5.90332 L48.3497,-7.50549 Z M52.0789,-16.3728 L53.6811,-15.9032 L52.0789,-15.4335 L50.4767,-15.9032 L52.0789,-16.3728 Z M60.4765,-16.3728 L62.0787,-15.9032 L60.4765,-15.4335 L58.8743,-15.9032 L60.4765,-16.3728 Z M78.874,-15.9032 L77.2718,-16.3728 L75.6696,-15.9032 L77.2718,-15.4335 L78.874,-15.9032 Z M68.8742,-16.3728 L70.4763,-15.9032 L68.8742,-15.4335 L67.272,-15.9032 L68.8742,-16.3728 Z M56.2777,-3.77628 L57.8799,-3.30667 L56.2777,-2.83707 L54.6755,-3.30667 L56.2777,-3.77628 Z M64.6753,-3.77628 L66.2775,-3.30667 L64.6753,-2.83707 L63.0732,-3.30667 L64.6753,-3.77628 Z M73.073,-3.77628 L74.6752,-3.30667 L73.073,-2.83707 L71.4708,-3.30667 L73.073,-3.77628 Z M47.8801,-3.77628 L49.4822,-3.30667 L47.8801,-2.83707 L46.2779,-3.30667 L47.8801,-3.77628 Z M52.5485,-3.30667 L52.0789,-4.90886 L51.6093,-3.30667 L52.0789,-1.7045 L52.5485,-3.30667 Z M60.9461,-3.30667 L60.4765,-4.90886 L60.0069,-3.30667 L60.4765,-1.7045 L60.9461,-3.30667 Z M69.3438,-3.30667 L68.8742,-4.90886 L68.4046,-3.30667 L68.8742,-1.7045 L69.3438,-3.30667 Z M77.7414,-3.30667 L77.2718,-4.90886 L76.8022,-3.30667 L77.2718,-1.7045 L77.7414,-3.30667 Z M56.2777,-12.1739 L57.8799,-11.7043 L56.2777,-11.2347 L54.6755,-11.7043 L56.2777,-12.1739 Z M64.6753,-12.1739 L66.2775,-11.7043 L64.6753,-11.2347 L63.0732,-11.7043 L64.6753,-12.1739 Z M73.073,-12.1739 L74.6752,-11.7043 L73.073,-11.2347 L71.4708,-11.7043 L73.073,-12.1739 Z M56.7473,-15.9032 L56.2777,-17.5053 L55.8081,-15.9032 L56.2777,-14.301 L56.7473,-15.9032 Z M65.1449,-15.9032 L64.6753,-17.5053 L64.2057,-15.9032 L64.6753,-14.301 L65.1449,-15.9032 Z M73.5426,-15.9032 L73.073,-17.5053 L72.6034,-15.9032 L73.073,-14.301 L73.5426,-15.9032 Z M47.8801,-12.1739 L49.4822,-11.7043 L47.8801,-11.2347 L46.2779,-11.7043 L47.8801,-12.1739 Z M48.3497,-15.9032 L47.8801,-17.5053 L47.4104,-15.9032 L47.8801,-14.301 L48.3497,-15.9032 Z M52.5485,-11.7043 L52.0789,-13.3065 L51.6093,-11.7043 L52.0789,-10.1021 L52.5485,-11.7043 Z M60.9461,-11.7043 L60.4765,-13.3065 L60.0069,-11.7043 L60.4765,-10.1021 L60.9461,-11.7043 Z M69.3438,-11.7043 L68.8742,-13.3065 L68.4046,-11.7043 L68.8742,-10.1021 L69.3438,-11.7043 Z M77.2718,-13.3065 L77.7414,-11.7043 L77.2718,-10.1021 L76.8022,-11.7043 L77.2718,-13.3065 Z " fill="#79bd9a" fill-opacity="1.00" />			<path d="M-33.9588,14.6064 L-16.9052,14.6064 L-16.9052,12.9834 L-33.9588,12.9834 L-33.9588,14.6064 Z M-16.9052,16.2293 L0.148343,16.2293 L0.148343,14.6064 L-16.9052,14.6064 L-16.9052,16.2293 Z M0.148343,14.6064 L17.2019,14.6064 L17.2019,12.9834 L0.148343,12.9834 L0.148343,14.6064 Z M17.2019,16.2293 L34.2555,16.2293 L34.2555,14.6064 L17.2019,14.6064 L17.2019,16.2293 Z M-33.9588,11.3605 L-16.9052,11.3605 L-16.9052,9.73758 L-33.9588,9.73758 L-33.9588,11.3605 Z M-16.9052,12.9834 L0.148343,12.9834 L0.148343,11.3605 L-16.9052,11.3605 L-16.9052,12.9834 Z M0.148343,11.3605 L17.2019,11.3605 L17.2019,9.73758 L0.148343,9.73758 L0.148343,11.3605 Z M17.2019,12.9834 L34.2555,12.9834 L34.2555,11.3605 L17.2019,11.3605 L17.2019,12.9834 Z M-33.9588,8.11465 L-16.9052,8.11465 L-16.9052,6.49172 L-33.9588,6.49172 L-33.9588,8.11465 Z M-16.9052,9.73758 L0.148343,9.73758 L0.148343,8.11465 L-16.9052,8.11465 L-16.9052,9.73758 Z M0.148343,8.11465 L17.2019,8.11465 L17.2019,6.49172 L0.148343,6.49172 L0.148343,8.11465 Z M17.2019,9.73758 L34.2555,9.73758 L34.2555,8.11465 L17.2019,8.11465 L17.2019,9.73758 Z M-33.9588,4.86879 L-16.9052,4.86879 L-16.9052,3.24586 L-33.9588,3.24586 L-33.9588,4.86879 Z M-16.9052,6.49172 L0.148343,6.49172 L0.148343,4.86879 L-16.9052,4.86879 L-16.9052,6.49172 Z M0.148343,4.86879 L17.2019,4.86879 L17.2019,3.24586 L0.148343,3.24586 L0.148343,4.86879 Z M17.2019,6.49172 L34.2555,6.49172 L34.2555,4.86879 L17.2019,4.86879 L17.2019,6.49172 Z M-33.9588,1.62293 L-16.9052,1.62293 L-16.9052,-4.32806e-14 L-33.9588,-4.32806e-14 L-33.9588,1.62293 Z M-16.9052,3.24586 L0.148343,3.24586 L0.148343,1.62293 L-16.9052,1.62293 L-16.9052,3.24586 Z M0.148343,1.62293 L17.2019,1.62293 L17.2019,-4.32806e-14 L0.148343,-4.32806e-14 L0.148343,1.62293 Z M17.2019,3.24586 L34.2555,3.24586 L34.2555,1.62293 L17.2019,1.62293 L17.2019,3.24586 Z M-33.9588,-1.62293 L-16.9052,-1.62293 L-16.9052,-3.24586 L-33.9588,-3.24586 L-33.9588,-1.62293 Z M-16.9052,-4.32806e-14 L0.148343,-4.32806e-14 L0.148343,-1.62293 L-16.9052,-1.62293 L-16.9052,-4.32806e-14 Z M0.148343,-1.62293 L17.2019,-1.62293 L17.2019,-3.24586 L0.148343,-3.24586 L0.148343,-1.62293 Z M17.2019,-4.32806e-14 L34.2555,-4.32806e-14 L34.2555,-1.62293 L17.2019,-1.62293 L17.2019,-4.32806e-14 Z M-33.9588,-4.86879 L-16.9052,-4.86879 L-16.9052,-6.49172 L-33.9588,-6.49172 L-33.9588,-4.86879 Z M-16.9052,-3.24586 L0.148343,-3.24586 L0.148343,-4.86879 L-16.9052,-4.86879 L-16.9052,-3.24586 Z M0.148343,-4.86879 L17.2019,-4.86879 L17.2019,-6.49172 L0.148343,-6.49172 L0.148343,-4.86879 Z M17.2019,-3.24586 L34.2555,-3.24586 L34.2555,-4.86879 L17.2019,-4.86879 L17.2019,-3.24586 Z M-33.9588,-8.11465 L-16.9052,-8.11465 L-16.9052,-9.73758 L-33.9588,-9.73758 L-33.9588,-8.11465 Z M-16.9052,-6.49172 L0.148343,-6.49172 L0.148343,-8.11465 L-16.9052,-8.11465 L-16.9052,-6.49172 Z M0.148343,-8.11465 L17.2019,-8.11465 L17.2019,-9.73758 L0.148343,-9.73758 L0.148343,-8.11465 Z M17.2019,-6.49172 L34.2555,-6.49172 L34.2555,-8.11465 L17.2019,-8.11465 L17.2019,-6.49172 Z M-33.9588,-11.3605 L-16.9052,-11.3605 L-16.9052,-12.9834 L-33.9588,-12.9834 L-33.9588,-11.3605 Z M-16.9052,-9.73758 L0.148343,-9.73758 L0.148343,-11.3605 L-16.9052,-11.3605 L-16.9052,-9.73758 Z M0.148343,-11.3605 L17.2019,-11.3605 L17.2019,-12.9834 L0.148343,-12.9834 L0.148343,-11.3605 Z M17.2019,-9.73758 L34.2555,-9.73758 L34.2555,-11.3605 L17.2019,-11.3605 L17.2019,-9.73758 Z M-33.9588,-14.6064 L-16.9052,-14.6064 L-16.9052,-16.2293 L-33.9588,-16.2293 L-33.9588,-14.6064 Z M-16.9052,-12.9834 L0.148343,-12.9834 L0.148343,-14.6064 L-16.9052,-14.6064 L-16.9052,-12.9834 Z M0.148343,-14.6064 L17.2019,-14.6064 L17.2019,-16.2293 L0.148343,-16.2293 L0.148343,-14.6064 Z M17.2019,-12.9834 L34.2555,-12.9834 L34.2555,-14.6064 L17.2019,-14.6064 L17.2019,-12.9834 Z " fill="#8ca5ff" fill-opacity="0.10" />			<path d="M43.8704,29.5234 L-45.2306,29.5234 L-51.7914,42.4336 L50.5371,42.4336 L43.8704,29.5234 Z M-11.7912,39.3648 L-9.03989,34.1796 L7.99724,34.1796 L10.4311,39.3648 L-11.7912,39.3648 Z M42.2831,26.5605 C42.2831,26.4546 42.2831,26.4546 42.2831,26.3488 C42.2831,26.243 42.2831,26.243 42.2831,26.1372 L42.2831,-27.1964 C42.2831,-28.5721 41.2249,-29.6303 39.8493,-29.6303 L-41.3152,-29.6303 C-42.6909,-29.6303 -43.7491,-28.5721 -43.7491,-27.1964 L-43.7491,26.1372 C-43.7491,26.243 -43.7491,26.243 -43.7491,26.3488 C-43.7491,26.4546 -43.7491,26.4546 -43.7491,26.5605 L42.2831,26.5605 Z M36.2514,22.4335 L-37.5056,22.4335 L-37.5056,-23.5985 L36.2514,-23.5985 L36.2514,22.4335 Z M52.0186,45.3965 L-53.2729,45.3965 L-53.5904,45.9256 C-53.5904,47.3013 -52.5322,49.6294 -51.1565,49.6294 L49.7964,49.6294 C51.1721,49.6294 52.2303,47.3013 52.2303,45.9256 L52.0186,45.3965 Z " fill="#a9ebfa" fill-opacity="1.00" />			<path d="M97.2582,-3.45779 L80.0754,-3.45779 C78.0986,-3.45779 76.2359,-4.10405 76.0078,-4.86435 C75.7417,-5.62465 73.917,-6.2709 71.9402,-6.2709 L66.5041,-6.2709 C64.5273,-6.2709 62.8926,-4.59824 62.8926,-2.54543 L62.8926,3.95514 L62.8926,22.5825 L62.8926,23.4949 C62.8926,25.0155 64.1091,26.27 65.5917,26.27 L98.1706,26.27 C99.6532,26.27 100.87,25.0155 100.87,23.4949 L100.87,22.5825 L100.87,3.95514 L100.87,0.229669 C100.87,-1.78513 99.235,-3.45779 97.2582,-3.45779 Z M66.466,-4.40817 L71.9022,-4.40817 C73.1947,-4.40817 74.0691,-4.10405 74.4112,-3.95199 C75.2475,-2.24131 77.9086,-1.63307 80.0754,-1.63307 L97.2582,-1.63307 C98.2466,-1.63307 99.0829,-0.796737 99.0829,0.229669 L99.0829,1.33211 C98.8168,1.21806 98.5127,1.14203 98.1706,1.14203 L65.5917,1.14203 C65.2876,1.14203 64.9835,1.21806 64.6793,1.33211 L64.6793,-2.54543 C64.6793,-3.57183 65.4777,-4.40817 66.466,-4.40817 Z M99.0449,22.6205 C99.0449,23.6469 98.2466,24.4833 97.2202,24.4833 L66.428,24.4833 C65.4396,24.4833 64.6033,23.6469 64.6033,22.6205 L64.6033,3.99316 C64.6033,3.49896 65.0215,3.0808 65.5157,3.0808 L98.0946,3.0808 C98.5888,3.0808 99.0069,3.49896 99.0069,3.99316 L99.0069,22.6205 L99.0449,22.6205 Z " fill="#8ca5ff" fill-opacity="1.00" />			<path d="M109.345,10.22 L92.1624,10.22 C90.1856,10.22 88.3229,9.57372 88.0948,8.81342 C87.8287,8.05312 86.004,7.40686 84.0272,7.40686 L78.5911,7.40686 C76.6143,7.40686 74.9796,9.07953 74.9796,11.1323 L74.9796,17.6329 L74.9796,36.2603 L74.9796,37.1726 C74.9796,38.6932 76.1961,39.9477 77.6787,39.9477 L110.258,39.9477 C111.74,39.9477 112.957,38.6932 112.957,37.1726 L112.957,36.2603 L112.957,17.6329 L112.957,13.9074 C112.957,11.8926 111.322,10.22 109.345,10.22 Z M78.553,9.2696 L83.9892,9.2696 C85.2817,9.2696 86.1561,9.57372 86.4982,9.72578 C87.3345,11.4365 89.9956,12.0447 92.1624,12.0447 L109.345,12.0447 C110.334,12.0447 111.17,12.881 111.17,13.9074 L111.17,15.0099 C110.904,14.8958 110.6,14.8198 110.258,14.8198 L77.6787,14.8198 C77.3746,14.8198 77.0705,14.8958 76.7663,15.0099 L76.7663,11.1323 C76.7663,10.1059 77.5647,9.2696 78.553,9.2696 Z M111.132,36.2983 C111.132,37.3247 110.334,38.161 109.307,38.161 L78.515,38.161 C77.5266,38.161 76.6903,37.3247 76.6903,36.2983 L76.6903,17.6709 C76.6903,17.1767 77.1085,16.7586 77.6027,16.7586 L110.182,16.7586 C110.676,16.7586 111.094,17.1767 111.094,17.6709 L111.094,36.2983 L111.132,36.2983 Z " fill="#79bd9a" fill-opacity="1.00" />			<path d="M44.0864,-34.0574 C43.7088,-34.3027 43.258,-34.4023 42.8122,-34.2947 C42.3512,-34.1968 41.9798,-33.9227 41.7443,-33.5602 C41.5087,-33.1977 41.4092,-32.7469 41.507,-32.286 C41.6049,-31.825 41.879,-31.4536 42.2415,-31.2181 C42.6039,-30.9825 43.0547,-30.8829 43.5157,-30.9808 C43.9766,-31.0787 44.3481,-31.3528 44.5836,-31.7153 C44.8191,-32.0777 44.9187,-32.5285 44.8209,-32.9895 C44.723,-33.4504 44.4489,-33.8219 44.0864,-34.0574 Z M40.0823,-38.936 L40.5927,-36.5316 C42.15,-36.8622 43.7496,-36.5638 45.084,-35.6753 C46.4157,-34.7992 47.3408,-33.4463 47.6767,-31.8641 L50.0687,-32.3719 C49.582,-34.6642 48.2211,-36.5366 46.4061,-37.7266 C44.6036,-38.9193 42.3497,-39.4173 40.0823,-38.936 Z M39.2016,-43.0846 L39.7067,-40.7051 C45.2631,-41.8846 50.7329,-38.3197 51.9125,-32.7633 L54.3044,-33.2711 C53.5745,-36.7096 51.5207,-39.5154 48.7844,-41.3041 C46.0508,-43.0804 42.64,-43.8145 39.2016,-43.0846 Z " fill="#fffb8b" fill-opacity="0.42" />			<path d="M41.1356,35.9512 L41.1356,31.9547 L37.1391,31.9547 L41.1356,35.9512 Z M37.1391,35.9512 L37.1391,31.9547 L33.1426,31.9547 L37.1391,35.9512 Z M37.1391,39.9477 L37.1391,35.9512 L33.1426,35.9512 L37.1391,39.9477 Z M41.1356,35.9674 L37.1391,35.9674 L37.1391,39.9639 L41.1356,35.9674 Z " fill="#8ca5ff" fill-opacity="1.00" />			<path d="M28.0098,31.9709 L24.0133,35.9674 L24.0133,39.9639 L32.0063,31.9709 L28.0098,31.9709 Z M28.0098,39.9639 L32.0063,39.9639 L32.0063,35.9674 L28.0098,39.9639 Z " fill="#8ca5ff" fill-opacity="1.00" />			<path d="M22.8771,39.9477 L14.8841,39.9477 L18.8806,35.9512 L22.8771,39.9477 Z M14.8841,31.9547 L18.8806,35.9512 L22.8771,31.9547 L14.8841,31.9547 Z " fill="#8ca5ff" fill-opacity="1.00" />			<path d="M-15.4779,39.9477 L-23.4709,39.9477 L-19.4744,35.9512 L-15.4779,39.9477 Z M-15.4779,35.9512 L-19.4744,31.9547 L-23.4709,35.9512 L-15.4779,35.9512 Z " fill="#8ca5ff" fill-opacity="1.00" />			<path d="M-24.6072,35.935 L-24.6072,31.9385 L-28.6037,31.9385 L-24.6072,35.935 Z M-28.6037,35.935 L-28.6037,31.9385 L-32.6002,31.9385 L-28.6037,35.935 Z M-24.6072,35.9512 L-28.6037,35.9512 L-28.6037,39.9477 L-24.6072,35.9512 Z " fill="#8ca5ff" fill-opacity="1.00" />			<path d="M-33.7364,31.8375 L-41.7456,39.8467 L-33.7364,39.8467 L-33.7364,31.8375 Z M-41.7456,35.8421 L-37.741,31.8375 L-37.741,35.8421 L-41.7456,35.8421 Z " fill="#8ca5ff" fill-opacity="1.00" />			<path d="M-48.0971,8.33285 L-57.279,29.1536 L-57.279,17.5148 L-68.9178,17.5148 L-48.0971,8.33285 Z " fill="#8ca5ff" fill-opacity="1.00" />			<path d="M-27.1796,-16.1955 C-27.1796,-16.9296 -27.7841,-17.5053 -28.5182,-17.5053 C-29.2522,-17.5053 -29.8568,-16.9152 -29.8568,-16.1955 C-29.8568,-15.4759 -29.2522,-14.8858 -28.5182,-14.8858 C-27.7841,-14.8858 -27.1796,-15.4759 -27.1796,-16.1955 Z M-25.7979,-15.7206 L-15.4779,-15.7206 L-15.4779,-16.5554 L-25.7979,-16.5554 L-25.7979,-15.7206 Z M-25.7979,-10.9708 L-15.4779,-10.9708 L-15.4779,-11.8056 L-25.7979,-11.8056 L-25.7979,-10.9708 Z M-25.7979,-6.20665 L-15.4779,-6.20665 L-15.4779,-7.04145 L-25.7979,-7.04145 L-25.7979,-6.20665 Z M-27.1796,-11.3882 C-27.1796,-12.1079 -27.7841,-12.698 -28.5182,-12.698 C-29.2522,-12.698 -29.8568,-12.1079 -29.8568,-11.3882 C-29.8568,-10.6685 -29.2666,-10.0784 -28.5182,-10.0784 C-27.7841,-10.0784 -27.1796,-10.6685 -27.1796,-11.3882 Z M-27.1796,-6.5233 C-27.1796,-7.24296 -27.7841,-7.83308 -28.5182,-7.83308 C-29.2522,-7.83308 -29.8568,-7.24296 -29.8568,-6.5233 C-29.8568,-5.80364 -29.2522,-5.21352 -28.5182,-5.21352 C-27.7841,-5.21352 -27.1796,-5.80364 -27.1796,-6.5233 Z " fill="#fffb8b" fill-opacity="1.00" />			<path d="M29.0677,-11.0639 L26.1526,-13.979 L24.9772,-12.8036 L21.1217,-12.8036 L18.7709,-10.4527 L15.2445,-13.9555 L14.0926,-12.8036 L10.9424,-12.8036 C11.295,-10.9228 12.9171,-9.51231 14.8684,-9.51231 L28.0569,-9.51231 C30.0316,-9.51231 31.6772,-10.9464 32.0063,-12.8271 L30.8309,-12.8271 L29.0677,-11.0639 Z M15.2445,-16.0478 L18.7709,-12.5214 L20.5105,-14.2611 L24.366,-14.2611 L26.1761,-16.0713 L29.0912,-13.1562 L30.2197,-14.2846 L31.9828,-14.2846 C31.6067,-16.1418 30.0081,-17.5053 28.0804,-17.5053 L14.8684,-17.5053 C12.9171,-17.5053 11.295,-16.0948 10.9189,-14.2376 L13.4343,-14.2376 L15.2445,-16.0478 Z " fill="#fffb8b" fill-opacity="1.00" />			<path d="M29.5934,-1.319 L26.4768,-4.4356 L25.2201,-3.17891 L21.0982,-3.17891 L18.5848,-0.665519 L14.8147,-4.41047 L13.5831,-3.17891 L10.2152,-3.17891 C10.5922,-1.1682 12.3265,0.339836 14.4126,0.339836 L28.5127,0.339836 C30.6239,0.339836 32.3833,-1.19333 32.7352,-3.20404 L31.4785,-3.20404 L29.5934,-1.319 Z M14.8147,-6.64738 L18.5848,-2.8773 L20.4447,-4.73721 L24.5667,-4.73721 L26.502,-6.67252 L29.6186,-3.55592 L30.825,-4.76234 L32.71,-4.76234 C32.3079,-6.74792 30.5988,-8.20569 28.5378,-8.20569 L14.4126,-8.20569 C12.3265,-8.20569 10.5922,-6.69765 10.1901,-4.71208 L12.8794,-4.71208 L14.8147,-6.64738 Z " fill="#f9b194" fill-opacity="1.00" />			<path d="M-21.8569,1.42491 L-22.942,0.339836 L-28.7648,6.16271 L-31.5151,3.41242 L-32.6002,4.49749 L-28.7648,8.33285 L-21.8569,1.42491 Z " fill="#79bd9a" fill-opacity="1.00" />			<path d="M15.9685,13.2297 C15.9836,13.1996 15.9836,13.1695 15.9836,13.1394 L16.0137,4.90578 C16.0137,4.75525 15.8933,4.63484 15.7427,4.63484 C15.7427,4.63484 15.7427,4.63484 15.7427,4.63484 C15.5922,4.63484 15.4718,4.75525 15.4718,4.90578 L15.4417,13.1394 C15.4417,13.1695 15.4417,13.2147 15.4567,13.2448 C14.6289,13.3802 13.9967,14.1028 13.9967,14.9607 C13.9967,15.8187 14.6138,16.5262 15.4266,16.6767 L15.4116,19.2808 C15.4116,19.4313 15.532,19.5517 15.6825,19.5517 C15.6825,19.5517 15.6825,19.5517 15.6825,19.5517 C15.833,19.5517 15.9535,19.4313 15.9535,19.2808 L15.9685,16.6918 C16.8265,16.5864 17.4888,15.8488 17.4888,14.9607 C17.4888,14.0727 16.8265,13.3351 15.9685,13.2297 Z M21.7938,7.60015 L21.8088,5.04125 C21.8088,4.89072 21.6884,4.77031 21.5379,4.77031 C21.3723,4.77031 21.2669,4.89072 21.2669,5.04125 L21.2519,7.60015 C20.409,7.72056 19.7617,8.44308 19.7617,9.33116 C19.7617,10.2042 20.3939,10.9267 21.2368,11.0622 L21.2067,19.4313 C21.2067,19.5818 21.3272,19.7022 21.4777,19.7022 C21.4777,19.7022 21.4777,19.7022 21.4777,19.7022 C21.6282,19.7022 21.7486,19.5818 21.7486,19.4313 L21.7787,11.0622 C22.6217,10.9267 23.2538,10.2042 23.2538,9.33116 C23.2538,8.45813 22.6217,7.73562 21.7938,7.60015 Z M28.9286,12.4319 C28.9286,11.5589 28.2964,10.8515 27.4685,10.716 L27.4685,10.6106 C27.4685,10.5956 27.4685,10.5956 27.4685,10.5805 L27.4836,5.13156 C27.4836,4.98104 27.3631,4.86062 27.2126,4.86062 C27.0621,4.86062 26.9417,4.98104 26.9417,5.13156 L26.9116,10.716 C26.0686,10.8364 25.4214,11.5589 25.4214,12.447 C25.4214,13.32 26.0686,14.0425 26.8965,14.178 L26.8815,19.356 C26.8815,19.5065 27.0019,19.627 27.1524,19.627 C27.1524,19.627 27.1524,19.627 27.1524,19.627 C27.3029,19.627 27.4233,19.5065 27.4233,19.356 L27.4384,14.178 C28.2964,14.0275 28.9286,13.305 28.9286,12.4319 Z " fill="#8ca5ff" fill-opacity="1.00" />			<path d="M-7.48491,1.14713 L-8.29221,0.339836 L-11.4814,3.52905 L-14.6706,0.339836 L-15.4779,1.14713 L-12.2887,4.33634 L-15.4779,7.52556 L-14.6706,8.33285 L-11.4814,5.14364 L-8.29221,8.33285 L-7.48491,7.52556 L-10.6741,4.33634 L-7.48491,1.14713 Z " fill="#f9b194" fill-opacity="1.00" />			<path d="M-92.3842,7.69133 L-84.084,7.69133 L-84.084,-13.1294 L-92.3842,-13.1294 L-92.3842,7.69133 Z M-98.5976,1.38415 L-77.7768,1.38415 L-77.7768,-6.916 L-98.5976,-6.916 L-98.5976,1.38415 Z " fill="#f9b194" fill-opacity="1.00" />			<path d="M-44.9797,-55.1885 C-44.9797,-57.4772 -47.1909,-59.3004 -49.9063,-59.3004 C-51.1864,-59.3004 -52.3114,-58.9125 -53.1648,-58.253 C-54.0571,-58.7961 -55.2208,-59.1453 -56.501,-59.1453 C-57.432,-59.1453 -58.2854,-58.9513 -59.0224,-58.6798 C-59.1388,-58.8737 -59.2552,-59.0677 -59.4104,-59.2228 C-60.7681,-60.9685 -63.212,-61.3564 -64.8412,-60.0763 C-64.9964,-59.9599 -65.1516,-59.8047 -65.3067,-59.6496 C-66.0438,-61.1624 -67.7894,-62.2098 -69.8454,-62.2098 C-72.5609,-62.2098 -74.772,-60.3478 -74.772,-58.0979 C-74.772,-57.9815 -74.772,-57.8651 -74.7332,-57.7487 C-77.2547,-57.6324 -79.2719,-56.1971 -79.2719,-54.4514 C-79.2719,-54.2575 -79.2331,-54.0247 -79.1943,-53.8307 C-81.8322,-53.404 -83.8105,-51.8136 -83.8105,-49.9128 C-83.8105,-48.0119 -81.8322,-46.4215 -79.1943,-45.9948 C-79.1943,-45.956 -79.1943,-45.9172 -79.1943,-45.8784 C-79.1943,-43.6672 -77.5262,-41.844 -75.4315,-41.844 C-74.5005,-41.844 -73.647,-42.1931 -73.0264,-42.775 C-72.1729,-42.1931 -70.9704,-41.844 -69.6515,-41.844 C-68.7592,-41.844 -67.9058,-42.038 -67.1688,-42.3095 C-67.0136,-41.9216 -66.8196,-41.5725 -66.5481,-41.2621 C-65.1904,-39.5165 -62.7465,-39.1286 -61.1172,-40.4087 C-60.6129,-40.7966 -60.225,-41.3397 -59.9922,-41.9216 C-59.4491,-41.7664 -58.8673,-41.6888 -58.2466,-41.6888 C-56.9665,-41.6888 -55.8027,-42.038 -54.9105,-42.5811 C-54.0183,-42.038 -52.8545,-41.6888 -51.5744,-41.6888 C-48.8589,-41.6888 -46.6478,-43.1629 -46.6478,-44.9862 C-46.6478,-45.8396 -47.1133,-46.5766 -47.8891,-47.1585 C-47.1133,-47.8956 -46.6478,-48.8266 -46.6478,-49.874 C-46.6478,-50.5334 -46.8417,-51.1541 -47.1521,-51.6972 C-45.8719,-52.473 -44.9797,-53.7532 -44.9797,-55.1885 Z M-50.6046,-37.5769 C-50.6046,-38.8409 -52.1329,-39.8656 -54.0183,-39.8656 C-55.9036,-39.8656 -57.432,-38.8409 -57.432,-37.5769 C-57.432,-36.3128 -55.9036,-35.2881 -54.0183,-35.2881 C-52.1329,-35.2881 -50.6046,-36.3128 -50.6046,-37.5769 Z M-46.7642,-32.4951 C-46.7642,-33.3521 -47.8062,-34.0468 -49.0917,-34.0468 C-50.3771,-34.0468 -51.4192,-33.3521 -51.4192,-32.4951 C-51.4192,-31.6381 -50.3771,-30.9434 -49.0917,-30.9434 C-47.8062,-30.9434 -46.7642,-31.6381 -46.7642,-32.4951 Z " fill="#f9b194" fill-opacity="0.51" />		</g>	</svg>